<svg width="85" height="85" viewBox="0 0 85 85" fill="none" xmlns="http://www.w3.org/2000/svg">
<path fill-rule="evenodd" clip-rule="evenodd" d="M42.5 0C65.97 0 85 19.03 85 42.5C85 65.97 65.97 85 42.5 85C19.03 85 0 65.97 0 42.5C0 19.03 19.03 0 42.5 0Z" fill="#8C52FF" fill-opacity="0.2"/>
<path fill-rule="evenodd" clip-rule="evenodd" d="M42.5013 7.53027C61.8112 7.53027 77.4713 23.1903 77.4713 42.5003C77.4713 61.8103 61.8112 77.4703 42.5013 77.4703C23.1913 77.4703 7.53125 61.8103 7.53125 42.5003C7.53125 23.1903 23.1913 7.53027 42.5013 7.53027Z" fill="#8C52FF" fill-opacity="0.2"/>
<path fill-rule="evenodd" clip-rule="evenodd" d="M42.4997 13.4297C58.5597 13.4297 71.5797 26.4397 71.5797 42.4997C71.5797 58.5597 58.5597 71.5697 42.4997 71.5697C26.4397 71.5697 13.4297 58.5597 13.4297 42.4997C13.4297 26.4397 26.4397 13.4297 42.4997 13.4297Z" fill="#8C52FF"/>
<path fill-rule="evenodd" clip-rule="evenodd" d="M59.171 44.1781C58.8118 42.0728 57.9941 40.1323 57.0879 38.3257C57.0854 38.3209 57.0831 38.3158 57.0806 38.311C56.7073 37.5672 56.319 36.8463 55.9419 36.1455C54.7118 33.8614 53.5501 31.704 53.4597 29.741C53.2529 25.2758 55.1723 23.5131 55.2481 23.4455C55.5154 23.226 55.61 22.8664 55.4944 22.5396C55.3787 22.2131 55.0647 22 54.72 22H30.28C29.935 22 29.6184 22.2105 29.5028 22.537C29.3868 22.8639 29.4786 23.2205 29.7458 23.44C29.8277 23.5128 31.7471 25.2758 31.5407 29.7407C31.4499 31.7036 30.2882 33.8611 29.0584 36.1455C28.681 36.8459 28.2927 37.5672 27.9194 38.311C27.9169 38.3158 27.9146 38.3206 27.9121 38.3254C26.9486 40.2464 26.0854 42.3186 25.7665 44.5796C25.7627 44.6023 25.7595 44.6254 25.7576 44.6485C25.6442 45.4822 25.6041 46.3416 25.662 47.2289C25.7608 48.7445 26.0178 50.4589 26.4259 52.3247C26.5227 52.7673 26.9575 53.0467 27.3973 52.9496C27.8372 52.8522 28.1153 52.4148 28.0185 51.9723C27.6283 50.1868 27.383 48.5549 27.2894 47.1216C27.2712 46.8447 27.2652 46.5707 27.2677 46.2993L38.8612 55.2612C39.64 55.8633 40.6284 56.2372 41.6846 56.3369V62.3594H31.2865C30.9874 61.6182 30.3972 60.1055 29.763 58.2037C29.6197 57.7743 29.1572 57.543 28.7307 57.6872C28.3035 57.831 28.0736 58.296 28.2169 58.7257C29.1441 61.5058 29.9576 63.4226 29.9917 63.5027C30.1204 63.8042 30.415 64 30.7412 64H54.2588C54.585 64 54.8799 63.8042 55.0083 63.5027C55.166 63.1329 58.8729 54.3617 59.338 47.2292C59.4058 46.1901 59.3402 45.1894 59.1784 44.2229C59.1765 44.2079 59.1739 44.1931 59.171 44.1781ZM33.1696 29.8173C33.3072 26.8437 32.5886 24.8435 31.9086 23.6409H53.0914C52.4111 24.8435 51.6928 26.8437 51.8304 29.8173C51.9384 32.1551 53.1867 34.4731 54.5076 36.927C54.7828 37.4378 55.0593 37.9518 55.3287 38.4699C52.3646 40.6565 47.6349 41.9482 42.5 41.9482C37.3651 41.9482 32.6354 40.6565 29.6713 38.4699C29.9407 37.9518 30.2172 37.4378 30.4921 36.927C31.8136 34.4731 33.0616 32.1551 33.1696 29.8173ZM27.448 44.3697C27.7197 42.83 28.271 41.3698 28.9339 39.9551C32.185 42.2433 37.1587 43.5888 42.5 43.5888C47.8416 43.5888 52.815 42.243 56.0661 39.9551C56.6735 41.2516 57.187 42.5865 57.4778 43.9858L44.4777 54.0349C43.2508 54.9834 41.1339 54.9491 39.855 53.9605L27.448 44.3697ZM57.7106 47.1219C57.3252 53.0342 54.5022 60.3993 53.7135 62.3594H43.3154V56.2689C44.1251 56.1206 44.8669 55.8027 45.4712 55.3358L57.7199 45.8677C57.7396 46.2795 57.7383 46.697 57.7106 47.1219Z" fill="white"/>
<path fill-rule="evenodd" clip-rule="evenodd" d="M42.5001 38.129C42.9505 38.129 43.3155 37.7618 43.3155 37.3087V34.8112C43.3155 34.3582 42.9505 33.9909 42.5001 33.9909C42.0497 33.9909 41.6847 34.3582 41.6847 34.8112V37.3087C41.6847 37.7618 42.0497 38.129 42.5001 38.129Z" fill="white"/>
<path fill-rule="evenodd" clip-rule="evenodd" d="M26.5609 31.0519C26.2424 31.3724 26.2424 31.8918 26.5609 32.2119C26.7202 32.3721 26.9288 32.4522 27.1374 32.4522C27.3461 32.4522 27.555 32.3721 27.714 32.2119C27.714 32.2119 30.0736 29.8381 30.0768 29.8349C30.2605 29.65 30.3532 29.3754 30.3074 29.1168C30.2774 28.9476 30.1991 28.7958 30.078 28.6737L27.714 26.2954C27.3958 25.9753 26.8794 25.9753 26.5609 26.2954C26.2424 26.6158 26.2424 27.1353 26.5609 27.4557L27.533 28.4333H22.8154C22.365 28.4333 22 28.8006 22 29.2537C22 29.7067 22.365 30.074 22.8154 30.074H27.533L26.5609 31.0519Z" fill="white"/>
<path fill-rule="evenodd" clip-rule="evenodd" d="M62.1846 28.4333H57.4673L58.4391 27.4557C58.7576 27.1352 58.7576 26.6158 58.4391 26.2954C58.1206 25.9753 57.6046 25.9753 57.286 26.2954L54.922 28.6736C54.7063 28.8903 54.6143 29.2491 54.7299 29.5382C54.7742 29.6487 54.8388 29.75 54.922 29.8336L57.286 32.2119C57.4453 32.3721 57.6539 32.4522 57.8626 32.4522C58.0712 32.4522 58.2798 32.3721 58.4391 32.2119C58.7576 31.8918 58.7576 31.3723 58.4391 31.0519L57.467 30.0739H62.1846C62.635 30.0739 63 29.7067 63 29.2536C63 28.8005 62.635 28.4333 62.1846 28.4333Z" fill="white"/>
<path fill-rule="evenodd" clip-rule="evenodd" d="M28.8383 55.3301C28.8383 54.8783 28.472 54.5098 28.0229 54.5098C27.5738 54.5098 27.2075 54.8783 27.2075 55.3301C27.2075 55.7819 27.5738 56.1504 28.0229 56.1504C28.472 56.1504 28.8383 55.7819 28.8383 55.3301Z" fill="white"/>
</svg>
