<svg width="85" height="85" viewBox="0 0 85 85" fill="none" xmlns="http://www.w3.org/2000/svg">
<path fill-rule="evenodd" clip-rule="evenodd" d="M42.5 0C65.97 0 85 19.03 85 42.5C85 65.97 65.97 85 42.5 85C19.03 85 0 65.97 0 42.5C0 19.03 19.03 0 42.5 0Z" fill="#8C52FF" fill-opacity="0.2"/>
<path fill-rule="evenodd" clip-rule="evenodd" d="M42.5013 7.53027C61.8112 7.53027 77.4713 23.1903 77.4713 42.5003C77.4713 61.8103 61.8112 77.4703 42.5013 77.4703C23.1913 77.4703 7.53125 61.8103 7.53125 42.5003C7.53125 23.1903 23.1913 7.53027 42.5013 7.53027Z" fill="#8C52FF" fill-opacity="0.2"/>
<path d="M42.4997 71.5697C58.5546 71.5697 71.5697 58.5546 71.5697 42.4997C71.5697 26.4448 58.5546 13.4297 42.4997 13.4297C26.4448 13.4297 13.4297 26.4448 13.4297 42.4997C13.4297 58.5546 26.4448 71.5697 42.4997 71.5697Z" fill="#8C52FF"/>
<path d="M64.0524 40.1196C63.4395 39.623 62.5333 39.1914 61.3361 38.8281C60.3977 38.5491 59.3293 38.3247 58.1748 38.163C57.0294 38.0036 55.8 37.9056 54.5235 37.8783C54.4672 37.8783 54.4223 37.8316 54.4223 37.7758L54.4212 27.9849C54.4212 27.2948 53.73 26.4884 53.2033 26.1081C52.595 25.6696 51.7451 25.2846 50.6572 24.9589C49.6268 24.648 48.44 24.4089 47.1589 24.2471C45.8721 24.0843 44.4863 24 43.0638 24C41.6458 24 40.2692 24.0843 38.9951 24.2471C37.7255 24.4089 36.5548 24.648 35.5439 24.9578C34.7205 25.2118 33.8143 25.5751 33.1174 26.075C32.409 26.5841 31.9789 27.354 31.9789 28.2537L32.0824 32.4527C32.0836 32.5096 32.0387 32.5563 31.9812 32.5586L31.9421 32.5529C28.9843 31.996 26.0782 32.685 23.7725 34.2476C21.4656 35.8112 19.7567 38.2507 19.1944 41.1935L19.1909 41.2118C19.1265 41.5466 19.0793 41.8814 19.0471 42.2174C19.0161 42.5511 19 42.8905 19 43.2333C19 46.2319 20.2248 48.9515 22.2005 50.9206C24.1773 52.8909 26.9074 54.1106 29.9158 54.1106C31.1728 54.1106 32.4079 53.8965 33.5717 53.4842C34.732 53.0731 35.8234 52.4649 36.7928 51.6757C36.8181 51.6552 36.8515 51.6484 36.8814 51.6552C37.7381 51.8556 38.6708 52.0105 39.654 52.1187C40.643 52.2258 41.6826 52.285 42.7509 52.2941C42.8015 52.2953 42.843 52.3317 42.8521 52.3795C43.0603 53.5047 44.3184 54.3577 46.1078 54.9522C48.2411 55.6618 51.1195 56 53.891 56C55.3055 56 56.6797 55.9134 57.9516 55.7483C59.2235 55.5832 60.3965 55.3383 61.4097 55.024L61.4132 55.0217C62.3493 54.7336 63.3877 54.3031 64.1076 53.6904C64.6423 53.2348 65 52.6779 65 52.0037V41.9315C65 41.1651 64.647 40.6036 64.0524 40.1196ZM27.8217 36.7998L27.7538 36.7975C27.5307 36.7975 27.3295 36.8886 27.1823 37.0344L27.1765 37.0401C27.0339 37.1847 26.9453 37.384 26.9453 37.6027V46.9027C26.9453 46.9608 26.8982 47.0075 26.8407 47.0075C26.6095 47.0075 26.4014 47.1009 26.2496 47.2512L26.2438 47.2569C26.0967 47.4061 26.0047 47.6122 26.0047 47.84C26.0047 48.07 26.099 48.2785 26.2496 48.4288L26.2553 48.4345C26.406 48.5814 26.613 48.6725 26.8407 48.6725C26.8982 48.6725 26.9453 48.7192 26.9453 48.7761V49.2989C26.9453 49.5198 27.0362 49.7225 27.1823 49.8683C27.3283 50.0141 27.5307 50.1041 27.7538 50.1041C27.9758 50.1041 28.1782 50.0141 28.3242 49.8683C28.4703 49.7225 28.5611 49.5198 28.5611 49.2989V48.7761C28.5611 48.7192 28.6083 48.6725 28.6658 48.6725H31.9145C32.1457 48.6725 32.3538 48.5791 32.5056 48.4288C32.6563 48.2785 32.7506 48.07 32.7506 47.84C32.7506 47.6099 32.6563 47.4015 32.5056 47.2512C32.3538 47.1009 32.1445 47.0075 31.9145 47.0075H28.6658C28.6083 47.0075 28.5623 46.9608 28.5623 46.9027V46.0542C28.5623 45.9973 28.6083 45.9506 28.6658 45.9506C29.2086 45.9506 29.7559 45.9404 30.2987 45.9506C30.9209 45.9506 31.5143 45.8276 32.0548 45.6044C32.616 45.3732 33.122 45.0327 33.5464 44.6102C33.9707 44.1876 34.3111 43.6831 34.5445 43.1239C34.7676 42.5864 34.8919 41.9942 34.8919 41.3735C34.8919 40.7528 34.7676 40.1617 34.5445 39.6242C34.3111 39.065 33.9707 38.5605 33.5464 38.1379C33.122 37.7154 32.616 37.3749 32.0548 37.1437C31.5143 36.9205 30.9209 36.7975 30.2987 36.7975C29.4823 36.7713 28.6405 36.7998 27.8217 36.7998ZM28.5623 44.1705V38.5673C28.5623 38.5104 28.6083 38.4637 28.6658 38.4637C29.2086 38.4637 29.7571 38.45 30.2987 38.4637C30.6932 38.4637 31.0704 38.5422 31.4154 38.6846C31.7742 38.8315 32.095 39.0479 32.3642 39.3155C32.6321 39.5832 32.8495 39.9043 32.9978 40.2608C33.1404 40.6036 33.2197 40.9806 33.2197 41.3735C33.2197 41.7675 33.1404 42.1445 32.9978 42.4873L32.9955 42.493C32.8471 42.8472 32.6309 43.1661 32.3642 43.4326C32.095 43.7002 31.7731 43.9166 31.4154 44.0635C31.0704 44.2059 30.6932 44.2844 30.2987 44.2844C29.7594 44.2685 29.2063 44.2844 28.6658 44.2844C28.6083 44.2844 28.5623 44.2377 28.5623 44.1808V44.1705ZM52.726 33.0563C52.6984 33.1451 52.5214 33.4777 51.8613 33.8444C51.4852 34.054 50.9482 34.2874 50.1915 34.5163C49.2485 34.7988 48.1238 35.0243 46.9013 35.1769C45.6903 35.3295 44.3863 35.4115 43.073 35.4115C41.9264 35.4115 40.7902 35.3511 39.7172 35.2327C38.6569 35.1165 37.6588 34.9491 36.7756 34.7247C36.7388 34.7145 36.687 34.7031 36.6594 34.6781C36.2258 34.3375 35.767 34.03 35.2886 33.7601C34.8148 33.4936 34.3214 33.2636 33.8108 33.0745C33.7706 33.0597 33.7442 33.021 33.7442 32.98L33.6797 30.3936C33.6774 30.3367 33.7234 30.2888 33.781 30.2877C33.7982 30.2866 33.8143 30.2911 33.8293 30.298C35.4358 31.1088 37.4023 31.496 39.1561 31.7102C40.39 31.8605 41.7148 31.9379 43.073 31.9379C44.4921 31.9379 45.879 31.8537 47.1681 31.6908C48.6459 31.504 50.2777 31.1897 51.6853 30.6282C52.0142 30.4973 52.3351 30.3503 52.6455 30.1886C52.6962 30.1624 52.7594 30.1829 52.7859 30.233C52.7939 30.2478 52.7974 30.2649 52.7974 30.2809V32.6839C52.7974 32.7534 52.7847 32.8684 52.726 33.0563ZM36.0361 26.5306C36.9745 26.2436 38.0716 26.0192 39.2676 25.8666C40.4556 25.7163 41.7401 25.6366 43.0638 25.6366C44.3851 25.6366 45.6984 25.7174 46.9174 25.87C48.1283 26.0226 49.245 26.2459 50.1822 26.5306C50.9401 26.7606 51.4783 26.993 51.8532 27.2014C52.5121 27.5647 52.6962 27.8858 52.6962 27.9781C52.6962 28.0772 52.5098 28.4006 51.8544 28.7639C51.476 28.9746 50.9344 29.2081 50.1731 29.4347C49.2324 29.7171 48.1145 29.9381 46.9013 30.0895C45.6903 30.2399 44.3828 30.3207 43.0638 30.3207C41.7896 30.3207 40.5464 30.2467 39.3918 30.1066C37.9359 29.929 35.8349 29.5372 34.4917 28.8095C33.8787 28.4792 33.6245 28.1831 33.6027 28.0327C33.5555 27.7139 34.234 27.2788 34.3663 27.2048C34.732 26.9964 35.2668 26.7629 36.0361 26.5306ZM36.1637 50.0801C34.2685 51.7976 31.8513 52.5879 29.4777 52.4775C27.1052 52.3659 24.7753 51.3545 23.0538 49.4674C21.3311 47.5792 20.5375 45.1705 20.648 42.8062C20.7595 40.4419 21.775 38.1209 23.669 36.4057C24.5188 35.6324 25.5021 35.0322 26.5601 34.6245C27.6227 34.2168 28.76 34.0027 29.9158 34.0027C30.3792 34.0027 30.8404 34.0369 31.297 34.1052C31.7581 34.1735 32.2135 34.276 32.662 34.4104L32.6678 34.4127C34.2801 34.9138 35.6934 35.8306 36.7894 37.0332C37.8876 38.2382 38.6685 39.7301 39.0123 41.378L39.0135 41.3792C39.0732 41.6855 39.1204 41.9999 39.1526 42.3153C39.1837 42.6262 39.1997 42.9372 39.1997 43.2424C39.2032 44.5441 38.9295 45.8128 38.4143 46.9756C37.8968 48.1418 37.1343 49.2021 36.1637 50.0801ZM38.3522 50.1405C38.7225 49.6884 39.056 49.2101 39.3493 48.7101C39.6425 48.2101 39.8944 47.6885 40.1036 47.1498C40.1197 47.1066 40.1635 47.0804 40.2083 47.0849C40.6028 47.1168 41.0007 47.1441 41.4009 47.1646C41.8079 47.1851 42.222 47.1988 42.6406 47.2034C42.6981 47.2034 42.7429 47.2501 42.7441 47.307C42.7464 48.3958 42.7797 49.4902 42.7981 50.5801C42.7993 50.6371 42.7544 50.6838 42.6969 50.6849C41.9954 50.6849 41.2594 50.6382 40.5602 50.5767C39.8449 50.5141 39.1285 50.4241 38.4155 50.3079C38.3361 50.2943 38.3027 50.2009 38.3522 50.1405ZM42.5589 42.1126C42.6152 42.1126 42.6601 42.1582 42.6601 42.214L42.7164 45.4609C42.7164 45.5178 42.6705 45.5657 42.6141 45.5657C42.2944 45.5657 41.9655 45.552 41.6469 45.5383C41.3272 45.5247 41.0168 45.5064 40.7166 45.4837C40.6499 45.4791 40.6143 45.421 40.6234 45.3573C40.6924 45.0053 40.7453 44.6489 40.7799 44.2924C40.8328 43.7617 40.8443 43.2321 40.8201 42.7003C40.8121 42.526 40.8006 42.3449 40.7868 42.1593C40.7822 42.1024 40.8258 42.0522 40.8834 42.0477C41.4365 42.0557 41.9977 42.1035 42.5589 42.1126ZM43.1558 40.4931H43.0638C42.6279 40.4931 42.1909 40.484 41.7597 40.4681C41.3307 40.4521 40.9179 40.4294 40.5245 40.402C40.4785 40.3986 40.4417 40.3656 40.4314 40.3246C40.2566 39.713 40.0324 39.1197 39.7575 38.5514C39.4861 37.9888 39.1664 37.4523 38.7996 36.9467C38.7662 36.9 38.7766 36.8351 38.8225 36.8021C38.8456 36.785 38.8743 36.7793 38.9008 36.7838C39.5862 36.8704 40.2761 36.9364 40.9685 36.9809C41.6585 37.0253 42.3542 37.048 43.0546 37.048C44.4771 37.048 45.8663 36.9626 47.1566 36.7998C48.632 36.6141 50.249 36.3044 51.6531 35.7475C51.9843 35.6153 52.3098 35.4684 52.6283 35.3067C52.6801 35.2817 52.7421 35.3022 52.7675 35.3534C52.7755 35.3682 52.779 35.3842 52.779 35.399L52.7801 37.8031C52.7801 37.8646 52.7295 37.909 52.6685 37.9068C50.5813 37.9648 48.4642 38.2245 46.7139 38.7005C45.1775 39.1174 43.9263 39.7005 43.2328 40.4601C43.2121 40.4817 43.1834 40.4931 43.1558 40.4931ZM44.2839 41.7721C44.3449 41.6081 44.607 41.3154 45.2108 40.9988C45.6236 40.7824 46.2032 40.5478 46.9944 40.3269C47.8926 40.0729 48.9253 39.877 50.0397 39.7449C52.4547 39.4579 55.2147 39.475 57.6228 39.7711C58.8199 39.918 59.9262 40.1355 60.8623 40.4191C61.6179 40.6457 62.1549 40.8747 62.5287 41.0797C63.1681 41.4293 63.3601 41.7379 63.367 41.8416V41.8575C63.367 41.8678 63.3658 41.8769 63.3635 41.886C63.3348 42.0067 63.1267 42.3108 62.5022 42.6536C62.1147 42.8643 61.5615 43.1011 60.7795 43.3323C59.8319 43.6136 58.736 43.83 57.5491 43.9769C56.3566 44.1239 55.0721 44.2002 53.753 44.2002C52.4823 44.2002 51.2425 44.1261 50.0914 43.9883C48.9322 43.8482 47.8627 43.6432 46.9381 43.379C46.2516 43.157 44.5622 42.6319 44.292 41.9224C44.2701 41.8643 44.2632 41.8279 44.2839 41.7721ZM60.9371 53.4785C60.001 53.769 58.905 53.9956 57.7101 54.1482C56.5176 54.3019 55.2262 54.3828 53.9002 54.3828C52.5674 54.3828 51.2782 54.3042 50.0914 54.1562C48.9 54.0081 47.8109 53.7883 46.8818 53.5059C46.1354 53.277 45.6122 53.0446 45.2499 52.8362C44.6266 52.4786 44.4599 52.1631 44.4599 52.0584C44.4599 51.1712 44.43 50.2703 44.4139 49.3809C44.4139 49.3239 44.4587 49.2772 44.5162 49.2761C44.5335 49.2761 44.5495 49.2807 44.5633 49.2875C44.9291 49.464 45.3017 49.6212 45.6789 49.7578C46.0572 49.8957 46.4425 50.0141 46.8358 50.1143L46.8438 50.1166C47.8064 50.3671 48.9011 50.563 50.0707 50.6963C51.2333 50.8295 52.4708 50.9001 53.7243 50.9001C55.1468 50.9001 56.5303 50.8147 57.8137 50.653C59.0936 50.4901 60.2758 50.251 61.2993 49.9412C61.6317 49.841 61.9582 49.7248 62.278 49.5961C62.5988 49.4663 62.9116 49.3228 63.2164 49.1679C63.2669 49.1429 63.3302 49.1634 63.3555 49.2146C63.3636 49.2294 63.367 49.2454 63.367 49.2602V51.9695C63.367 52.2554 62.7701 52.6836 62.5654 52.8009C62.2009 53.0127 61.6777 53.2474 60.9371 53.4785ZM63.3359 46.9391C63.3072 47.0337 63.1416 47.3491 62.4941 47.7124C62.1216 47.922 61.5857 48.1566 60.8255 48.3866C59.8779 48.6736 58.7728 48.8946 57.571 49.0438C56.3693 49.1941 55.0698 49.2727 53.7335 49.2727C51.438 49.2727 49.475 49.0404 47.9444 48.7033C46.0515 48.2864 44.8095 47.7033 44.4 47.1965C44.3839 47.1772 44.3771 47.1521 44.3771 47.1282L44.3678 46.3629L44.3311 44.2537C44.3311 44.1967 44.3759 44.1489 44.4334 44.1489C44.4507 44.1489 44.4668 44.1523 44.4817 44.1592C44.7991 44.3175 45.1234 44.4598 45.4546 44.5874C46.8219 45.1124 48.3952 45.4051 49.8269 45.5805C51.0609 45.7308 52.3857 45.8082 53.7426 45.8082C55.141 45.8082 56.5061 45.7262 57.7757 45.5679C59.043 45.4108 60.2171 45.1773 61.236 44.8778L61.2418 44.8755C61.5811 44.7821 61.9169 44.6694 62.2458 44.5407C62.5827 44.4097 62.9116 44.2605 63.2336 44.0954C63.2842 44.0692 63.3475 44.0897 63.3739 44.1398C63.382 44.1557 63.3854 44.1717 63.3854 44.1876V46.6282C63.3854 46.7125 63.367 46.8423 63.3359 46.9391Z" fill="white"/>
</svg>
