<svg width="80" height="80" viewBox="0 0 80 80" fill="none" xmlns="http://www.w3.org/2000/svg">
<path fill-rule="evenodd" clip-rule="evenodd" d="M40 0C62.09 0 80 17.91 80 40C80 62.09 62.09 80 40 80C17.91 80 0 62.09 0 40C0 17.91 17.91 0 40 0Z" fill="#8C52FF" fill-opacity="0.2"/>
<path d="M40.0014 74.5594C59.0884 74.5594 74.5614 59.0864 74.5614 39.9995C74.5614 20.9125 59.0884 5.43945 40.0014 5.43945C20.9144 5.43945 5.44141 20.9125 5.44141 39.9995C5.44141 59.0864 20.9144 74.5594 40.0014 74.5594Z" fill="#8C52FF"/>
<path d="M47.07 27.1702C47.05 27.1502 47.03 27.1402 47.02 27.1202L46.97 27.0802C46.37 26.5802 45.48 26.6202 44.93 27.1702L34.63 37.4602C34.27 37.8302 34.27 38.4202 34.63 38.7802L39.07 43.2202C39.43 43.5802 40.02 43.5802 40.39 43.2202L50.68 32.9202C51.24 32.3602 51.27 31.4602 50.75 30.8602L47.07 27.1702ZM39.73 41.2402L36.61 38.1302L46 28.7402L49.12 31.8502L39.73 41.2402Z" fill="white"/>
<path d="M54.2916 24.8802L60.0116 19.1602C60.3916 18.8002 60.3916 18.2002 60.0216 17.8302C59.6516 17.4602 59.0516 17.4702 58.6916 17.8402L52.9716 23.5602L52.7916 23.3802C51.7916 22.3802 50.1616 22.3802 49.1516 23.3802L48.2616 24.2702C46.4716 23.2602 44.2316 23.5602 42.7716 25.0102L26.6416 41.1302L26.1816 40.6702C25.3416 39.8302 23.9916 39.8302 23.1516 40.6702L22.0516 41.7702C21.2216 42.6102 21.2216 43.9602 22.0516 44.8002L24.9416 47.6802L21.5016 51.1202L19.7616 49.3802C18.7216 48.3402 17.0316 48.3402 15.9916 49.3802L15.6316 49.7402C14.5916 50.7802 14.5916 52.4702 15.6316 53.5102L24.3416 62.2302C24.8416 62.7202 25.5216 63.0102 26.2316 63.0102C26.9316 63.0102 27.6116 62.7202 28.1116 62.2302L28.4716 61.8602C29.5116 60.8202 29.5116 59.1402 28.4716 58.0902L26.7316 56.3502L30.1716 52.9202L33.0616 55.8002C33.8916 56.6402 35.2516 56.6402 36.0816 55.8002L37.1916 54.7002C38.0216 53.8602 38.0216 52.5102 37.1916 51.6702L36.7216 51.2102L52.8416 35.0902C54.2916 33.6302 54.5916 31.3802 53.5816 29.5902L54.4716 28.7002C55.4816 27.7002 55.4816 26.0602 54.4716 25.0602L54.2916 24.8802ZM27.1516 60.5402L26.7916 60.9102C26.4716 61.2102 25.9816 61.2102 25.6616 60.9102L16.9416 52.1902C16.6316 51.8802 16.6316 51.3702 16.9416 51.0602L17.3116 50.7002C17.6216 50.3902 18.1316 50.3902 18.4416 50.7002L27.1516 59.4102C27.4616 59.7302 27.4616 60.2302 27.1516 60.5402ZM25.4116 55.0402L22.8216 52.4402L26.2516 49.0002L28.8516 51.6002L25.4116 55.0402ZM35.8716 53.3802L34.7616 54.4802C34.6616 54.5902 34.4816 54.5902 34.3716 54.4802L23.3716 43.4802C23.2616 43.3702 23.2616 43.1902 23.3716 43.0902L24.4716 41.9802C24.5816 41.8802 24.7516 41.8802 24.8616 41.9802L34.7416 51.8702L35.8716 52.9902C35.9716 53.1002 35.9716 53.2702 35.8716 53.3802ZM51.4816 24.7002L53.1516 26.3802C53.4316 26.6502 53.4316 27.1102 53.1516 27.3802L52.3816 28.1602L49.7016 25.4702L50.4716 24.7002C50.7516 24.4302 51.1916 24.4302 51.4816 24.7002ZM51.5216 33.7702L35.4016 49.8902L27.9616 42.4502L44.0916 26.3302C45.0916 25.3302 46.6816 25.2702 47.7616 26.1902C47.8116 26.2302 47.8616 26.2802 47.9116 26.3302L51.5316 29.9402C51.5716 29.9902 51.6216 30.0402 51.6616 30.0902C52.5816 31.1702 52.5216 32.7702 51.5216 33.7702Z" fill="white"/>
<path d="M31.3713 41.7699C30.4913 40.9299 29.2013 42.2099 30.0513 43.0899L31.1513 44.1899C32.0313 45.0399 33.3213 43.7499 32.4713 42.8699L31.3713 41.7699Z" fill="white"/>
<path d="M33.54 39.6003C32.66 38.7203 31.34 40.0403 32.22 40.9203L33.32 42.0203C33.68 42.3803 34.28 42.3803 34.64 42.0203C35 41.6503 35 41.0603 34.64 40.7003L33.54 39.6003Z" fill="white"/>
<path d="M61.8181 23.1798C61.6281 22.9698 61.3681 22.8398 61.0781 22.8398C60.7981 22.8398 60.5281 22.9698 60.3481 23.1798C59.6981 24.0098 57.5781 26.8498 57.5781 28.4598C57.5981 30.3798 59.1581 31.9298 61.0781 31.9298C62.9981 31.9298 64.5681 30.3798 64.5881 28.4598C64.5881 26.8498 62.4681 24.0098 61.8181 23.1798ZM61.0781 30.1098C60.1781 30.1098 59.4381 29.3698 59.4381 28.4698C59.4381 27.9498 60.1981 26.5998 61.0781 25.3298C61.9681 26.5998 62.7281 27.9498 62.7281 28.4698C62.7181 29.3698 61.9881 30.1098 61.0781 30.1098Z" fill="white"/>
</svg>
