<svg width="80" height="80" viewBox="0 0 80 80" fill="none" xmlns="http://www.w3.org/2000/svg">
<path fill-rule="evenodd" clip-rule="evenodd" d="M40 0C62.09 0 80 17.91 80 40C80 62.09 62.09 80 40 80C17.91 80 0 62.09 0 40C0 17.91 17.91 0 40 0Z" fill="#8C52FF" fill-opacity="0.2"/>
<path d="M40.0014 74.5594C59.0884 74.5594 74.5614 59.0864 74.5614 39.9995C74.5614 20.9125 59.0884 5.43945 40.0014 5.43945C20.9144 5.43945 5.44141 20.9125 5.44141 39.9995C5.44141 59.0864 20.9144 74.5594 40.0014 74.5594Z" fill="#8C52FF"/>
<path d="M46.1491 28.9H39.2591C38.8191 28.9 38.4591 29.27 38.4591 29.71C38.4591 30.16 38.8191 30.52 39.2591 30.52H46.1491C49.7091 30.52 52.5991 33.41 52.5991 36.97V60.36C52.5991 61.69 51.5191 62.77 50.1791 62.77H29.8191C28.4891 62.77 27.3991 61.69 27.3991 60.36V36.97C27.3991 33.41 30.2891 30.52 33.8491 30.52H34.7591C35.1991 30.52 35.5691 30.16 35.5691 29.71C35.5691 29.27 35.1991 28.9 34.7591 28.9V25.48C34.7591 25.03 35.1191 24.67 35.5691 24.67H44.4391C44.8791 24.67 45.2391 25.03 45.2391 25.48V26.59C45.2391 27.03 45.5991 27.39 46.0491 27.39C46.4891 27.39 46.8591 27.03 46.8591 26.59V25.48C46.8591 24.14 45.7691 23.06 44.4391 23.06H43.9291V18.42C43.9291 17.09 42.8491 16 41.5091 16H38.4891C37.1591 16 36.0691 17.09 36.0691 18.42V23.06H35.5691C34.2291 23.06 33.1491 24.14 33.1491 25.48V28.94C29.0291 29.3 25.7891 32.76 25.7891 36.97V60.36C25.7891 62.58 27.5991 64.39 29.8191 64.39H50.1791C52.3991 64.39 54.2091 62.58 54.2091 60.36V36.97C54.2091 32.52 50.5991 28.9 46.1491 28.9ZM37.6791 18.42C37.6791 17.98 38.0391 17.61 38.4891 17.61H41.5091C41.9591 17.61 42.3191 17.98 42.3191 18.42V23.06H37.6791V18.42ZM56.2291 17.82C56.2291 18.26 55.8691 18.62 55.4191 18.62H55.1891C54.7391 18.62 54.3791 18.26 54.3791 17.82C54.3791 17.37 54.7391 17.01 55.1891 17.01H55.4191C55.8691 17.01 56.2291 17.37 56.2291 17.82ZM48.4691 17.82C48.4691 17.37 48.8291 17.01 49.2691 17.01H52.4991C52.9491 17.01 53.3091 17.37 53.3091 17.82C53.3091 18.26 52.9491 18.62 52.4991 18.62H49.2691C48.8291 18.62 48.4691 18.26 48.4691 17.82ZM55.4791 23.41C55.3691 23.75 55.0591 23.97 54.7191 23.97C54.5291 23.97 54.9191 24.08 49.0191 22.11C48.5991 21.97 48.3691 21.51 48.5091 21.09C48.6491 20.67 49.1091 20.44 49.5291 20.58L54.9691 22.39C55.3991 22.54 55.6191 22.99 55.4791 23.41ZM39.9991 39.69C36.1691 39.69 33.0491 42.81 33.0491 46.65C33.0491 50.48 36.1691 53.6 39.9991 53.6C42.3891 53.6 44.5891 52.4 45.8691 50.38C46.1091 50 46.6091 49.89 46.9791 50.13C47.3591 50.37 47.4691 50.87 47.2291 51.25C45.6491 53.73 42.9391 55.21 39.9991 55.21C35.2791 55.21 31.4291 51.37 31.4291 46.65C31.4291 41.92 35.2791 38.08 39.9991 38.08C44.7191 38.08 48.5691 41.92 48.5691 46.65C48.5691 47.09 48.2091 47.45 47.7591 47.45C47.3191 47.45 46.9591 47.09 46.9591 46.65C46.9591 42.81 43.8391 39.69 39.9991 39.69ZM39.1891 49.17V47.45H37.4791C37.0391 47.45 36.6691 47.09 36.6691 46.65C36.6691 46.2 37.0391 45.84 37.4791 45.84H39.1891V44.13C39.1891 43.68 39.5591 43.32 39.9991 43.32C40.4491 43.32 40.8091 43.68 40.8091 44.13V45.84H42.5191C42.9691 45.84 43.3291 46.2 43.3291 46.65C43.3291 47.09 42.9691 47.45 42.5191 47.45H40.8091V49.17C40.8091 49.61 40.4491 49.97 39.9991 49.97C39.5591 49.97 39.1891 49.61 39.1891 49.17Z" fill="white"/>
</svg>
