<svg width="80" height="80" viewBox="0 0 80 80" fill="none" xmlns="http://www.w3.org/2000/svg">
<path fill-rule="evenodd" clip-rule="evenodd" d="M40 0C62.09 0 80 17.91 80 40C80 62.09 62.09 80 40 80C17.91 80 0 62.09 0 40C0 17.91 17.91 0 40 0Z" fill="#8C52FF" fill-opacity="0.2"/>
<path d="M40.0014 74.5594C59.0884 74.5594 74.5614 59.0864 74.5614 39.9995C74.5614 20.9125 59.0884 5.43945 40.0014 5.43945C20.9144 5.43945 5.44141 20.9125 5.44141 39.9995C5.44141 59.0864 20.9144 74.5594 40.0014 74.5594Z" fill="#8C52FF"/>
<path d="M17.7315 45.0437H12.0458C11.7573 45.0437 11.4928 45.1639 11.3125 45.3442C11.1202 45.5366 11 45.801 11 46.0895V51.679C11 51.9675 11.1202 52.232 11.3125 52.4243C11.4928 52.6046 11.7573 52.7248 12.0458 52.7248H17.7315C17.8156 52.7248 17.8997 52.7128 17.9719 52.7008C18.056 52.6767 18.1281 52.6527 18.2003 52.6166L23.5734 49.924H26.2059L26.278 50.1765C27.444 53.7105 29.5476 57.557 32.3003 60.2977C34.524 62.5095 37.1806 64 40.0895 64C43.912 64 47.3739 61.4396 50.0064 57.8816C53.1678 53.6023 55.1512 47.9166 55.1992 43.4691C55.2113 42.9522 56.0286 40.1033 56.209 39.3941C57.8558 32.843 58 32.302 58 30.499C58 28.9604 57.7355 27.4578 57.2307 26.0274C56.7379 24.609 55.9926 23.2627 55.043 22.0726L54.9949 22.0125L54.9829 21.9404C54.5982 20.51 53.7448 19.2598 52.6028 18.3824C51.4849 17.5169 50.0905 17 48.5639 17H35.7621C32.0478 17 28.6701 18.5146 26.2299 20.9547C23.7898 23.3949 22.2752 26.7726 22.2752 30.499C22.2752 32.302 22.4074 32.843 24.0422 39.3581C24.2225 40.0552 25.0639 43.0003 25.0639 43.4691C25.076 44.0821 25.124 44.7312 25.1962 45.3803C25.2683 46.0414 25.3885 46.7266 25.5327 47.4118L25.6169 47.8445H23.5734L18.2003 45.1519C18.1281 45.1159 18.056 45.0918 17.9719 45.0678C17.8997 45.0558 17.8156 45.0437 17.7315 45.0437ZM37.5051 42.5795C37.1445 42.2189 36.5555 42.2189 36.1949 42.5795C35.2212 43.5532 33.6345 43.5532 32.6609 42.5795C32.3003 42.2189 31.6992 42.2189 31.3386 42.5795C30.978 42.9522 30.978 43.5412 31.3386 43.9018C32.1921 44.7552 33.31 45.176 34.4279 45.176C35.5458 45.176 36.6637 44.7552 37.5051 43.9018C37.8778 43.5412 37.8778 42.9522 37.5051 42.5795ZM45.7151 45.176C46.833 45.176 47.9389 44.7552 48.7923 43.9018C49.1529 43.5412 49.1529 42.9522 48.7923 42.5795C48.4317 42.2189 47.8427 42.2189 47.4821 42.5795C46.4964 43.5532 44.9217 43.5532 43.9481 42.5795C43.5755 42.2189 42.9864 42.2189 42.6258 42.5795C42.2652 42.9522 42.2652 43.5412 42.6258 43.9018C43.4793 44.7552 44.5972 45.176 45.7151 45.176ZM42.9744 53.1575L42.2171 52.5926C41.58 52.1118 40.7747 51.9795 40.0294 52.2079C39.2962 51.9795 38.4908 52.1118 37.8417 52.5926L37.0844 53.1575C36.856 53.3379 36.6997 53.6023 36.6757 53.9028C36.6517 54.1913 36.7478 54.4798 36.9522 54.6962L37.2407 55.0087C37.9499 55.79 38.9716 56.2348 40.0294 56.2348C41.0992 56.2348 42.109 55.79 42.8302 55.0087L43.1187 54.6962C43.323 54.4798 43.4192 54.1913 43.3951 53.9028C43.3591 53.6023 43.2148 53.3379 42.9744 53.1575ZM35.7621 19.1036H48.5639C49.8141 19.1036 50.956 19.6084 51.7734 20.4258C52.5908 21.2552 53.1077 22.3852 53.1077 23.6473C53.1077 24.8854 52.5908 26.0274 51.7734 26.8448C50.956 27.6742 49.8141 28.179 48.5639 28.179H40.0895C37.0604 28.179 34.2356 29.0806 31.8795 30.6432C29.4514 32.2419 27.5041 34.5378 26.3261 37.2545L25.9174 38.1921L25.665 37.1944C25.0639 34.7903 24.7394 33.468 24.5711 32.5785C24.3908 31.6529 24.3668 31.1962 24.3668 30.499C24.3668 27.3496 25.6529 24.5008 27.7084 22.4453C29.776 20.3778 32.6248 19.1036 35.7621 19.1036ZM52.2302 29.1767C53.2159 28.5156 54.0333 27.59 54.5501 26.5082L54.9107 25.7629L55.1872 26.5322C55.4276 27.1693 55.5959 27.8184 55.7161 28.4916C55.8363 29.1527 55.8964 29.8258 55.8964 30.499C55.8964 31.1962 55.8844 31.665 55.7041 32.5785C55.5238 33.48 55.1992 34.8023 54.5982 37.2184L54.3578 38.2041L53.9371 37.2785C53.5043 36.2928 52.9634 35.3432 52.3263 34.4657C51.7013 33.6003 50.968 32.7829 50.1506 32.0616C49.9343 31.8573 49.6939 31.6529 49.4414 31.4606C49.201 31.2683 48.9606 31.088 48.6962 30.9077L47.8668 30.3187L48.8765 30.2706C50.1146 30.2105 51.2565 29.8138 52.2302 29.1767ZM48.6721 56.1506C46.3642 59.4683 43.3471 61.9084 40.0895 61.9084C37.7335 61.9084 35.5698 60.6222 33.7307 58.7711C31.4107 56.4391 29.5957 53.1696 28.5739 50.4049L28.3936 49.924H31.2184C31.5069 49.924 31.7714 49.8159 31.9517 49.6235C32.144 49.4432 32.2522 49.1788 32.2522 48.8903C32.2522 48.5898 32.144 48.3253 31.9517 48.145C31.7593 47.9527 31.5069 47.8445 31.2184 47.8445H27.7685L27.7084 47.568C27.5281 46.8228 27.3959 46.0775 27.2997 45.3683C27.2156 44.6471 27.1675 43.9499 27.1675 43.3008C27.1675 39.7067 28.61 36.4491 30.954 34.0931C33.298 31.7371 36.5315 30.2826 40.0895 30.2826C43.335 30.2826 46.3762 31.5448 48.7082 33.6123C51.0281 35.6798 52.6389 38.5527 53.0115 41.7742L53.0836 42.5435L53.1077 43.3008C53.1077 47.1233 51.3647 52.256 48.6721 56.1506ZM17.4069 50.6332H13.0916V47.1353H17.479L20.977 48.8903L17.4911 50.6332H17.4069Z" fill="white"/>
</svg>
