<svg width="80" height="80" viewBox="0 0 80 80" fill="none" xmlns="http://www.w3.org/2000/svg">
<path fill-rule="evenodd" clip-rule="evenodd" d="M40 0C62.09 0 80 17.91 80 40C80 62.09 62.09 80 40 80C17.91 80 0 62.09 0 40C0 17.91 17.91 0 40 0Z" fill="#8C52FF" fill-opacity="0.2"/>
<path d="M40.0014 74.5594C59.0884 74.5594 74.5614 59.0864 74.5614 39.9995C74.5614 20.9125 59.0884 5.43945 40.0014 5.43945C20.9144 5.43945 5.44141 20.9125 5.44141 39.9995C5.44141 59.0864 20.9144 74.5594 40.0014 74.5594Z" fill="#8C52FF"/>
<path d="M31.58 51.1502H33.05C33.46 51.1502 33.79 50.8202 33.79 50.4102C33.79 50.0102 33.46 49.6802 33.05 49.6802H31.58C31.17 49.6802 30.84 50.0102 30.84 50.4102C30.84 50.8202 31.17 51.1502 31.58 51.1502Z" fill="white"/>
<path d="M53.68 49.6802H36C35.59 49.6802 35.26 50.0102 35.26 50.4102C35.26 50.8202 35.59 51.1502 36 51.1502H53.68C54.08 51.1502 54.41 50.8202 54.41 50.4102C54.41 50.0102 54.08 49.6802 53.68 49.6802Z" fill="white"/>
<path d="M31.58 46.7293H33.05C33.46 46.7293 33.79 46.3993 33.79 45.9893C33.79 45.5893 33.46 45.2593 33.05 45.2593H31.58C31.17 45.2593 30.84 45.5893 30.84 45.9893C30.84 46.3993 31.17 46.7293 31.58 46.7293Z" fill="white"/>
<path d="M53.68 45.2593H36C35.59 45.2593 35.26 45.5893 35.26 45.9893C35.26 46.3993 35.59 46.7293 36 46.7293H53.68C54.08 46.7293 54.41 46.3993 54.41 45.9893C54.41 45.5893 54.08 45.2593 53.68 45.2593Z" fill="white"/>
<path d="M31.58 42.3094H33.05C33.46 42.3094 33.79 41.9794 33.79 41.5794C33.79 41.1694 33.46 40.8394 33.05 40.8394H31.58C31.17 40.8394 30.84 41.1694 30.84 41.5794C30.84 41.9794 31.17 42.3094 31.58 42.3094Z" fill="white"/>
<path d="M53.68 40.8394H36C35.59 40.8394 35.26 41.1694 35.26 41.5794C35.26 41.9794 35.59 42.3094 36 42.3094H53.68C54.08 42.3094 54.41 41.9794 54.41 41.5794C54.41 41.1694 54.08 40.8394 53.68 40.8394Z" fill="white"/>
<path d="M31.58 37.8894H33.05C33.46 37.8894 33.79 37.5594 33.79 37.1594C33.79 36.7494 33.46 36.4194 33.05 36.4194H31.58C31.17 36.4194 30.84 36.7494 30.84 37.1594C30.84 37.5594 31.17 37.8894 31.58 37.8894Z" fill="white"/>
<path d="M53.68 36.4194H36C35.59 36.4194 35.26 36.7494 35.26 37.1594C35.26 37.5594 35.59 37.8894 36 37.8894H53.68C54.08 37.8894 54.41 37.5594 54.41 37.1594C54.41 36.7494 54.08 36.4194 53.68 36.4194Z" fill="white"/>
<path d="M23.48 22.42H26.42V57.04C26.42 57.45 26.75 57.78 27.16 57.78H52.94V60.73H23.48V22.42ZM27.9 19.48H47.05V29.05C47.05 29.46 47.38 29.79 47.78 29.79H57.36V56.31H27.9V19.48ZM56.32 28.32H48.52V20.52L56.32 28.32ZM22.74 62.2H53.68C54.08 62.2 54.41 61.87 54.41 61.46V57.78H58.1C58.5 57.78 58.83 57.45 58.83 57.04V29.05C58.83 29.04 58.82 29.02 58.82 29.01C58.82 28.94 58.81 28.88 58.79 28.82C58.78 28.79 58.77 28.77 58.76 28.75C58.73 28.67 58.68 28.6 58.61 28.53L48.3 18.22C48.24 18.16 48.17 18.11 48.09 18.07C48.06 18.06 48.04 18.06 48.02 18.05C47.96 18.03 47.89 18.02 47.83 18.01C47.81 18.01 47.8 18 47.78 18H27.16C26.75 18 26.42 18.34 26.42 18.74V20.95H22.74C22.33 20.95 22 21.28 22 21.69V61.46C22 61.87 22.33 62.2 22.74 62.2Z" fill="white"/>
<path d="M32.31 26.1099H35.26V29.0499H32.31V26.1099ZM31.58 30.5299H36C36.4 30.5299 36.73 30.1999 36.73 29.7899V25.3699C36.73 24.9599 36.4 24.6299 36 24.6299H31.58C31.17 24.6299 30.84 24.9599 30.84 25.3699V29.7899C30.84 30.1999 31.17 30.5299 31.58 30.5299Z" fill="white"/>
</svg>
