<svg width="60" height="60" viewBox="0 0 60 60" fill="none" xmlns="http://www.w3.org/2000/svg">
<path fill-rule="evenodd" clip-rule="evenodd" d="M30 0C46.5671 0 60 13.4329 60 30C60 46.5671 46.5671 60 30 60C13.4329 60 0 46.5671 0 30C0 13.4329 13.4329 0 30 0Z" fill="#8C52FF" fill-opacity="0.2"/>
<path fill-rule="evenodd" clip-rule="evenodd" d="M30.0001 5.31531C43.6307 5.31531 54.6848 16.3694 54.6848 30C54.6848 43.6306 43.6307 54.6847 30.0001 54.6847C16.3695 54.6847 5.31543 43.6306 5.31543 30C5.31543 16.3694 16.3695 5.31531 30.0001 5.31531Z" fill="#8C52FF" fill-opacity="0.2"/>
<path fill-rule="evenodd" clip-rule="evenodd" d="M29.9995 9.47998C41.336 9.47998 50.5266 18.6635 50.5266 30C50.5266 41.3365 41.336 50.52 29.9995 50.52C18.663 50.52 9.47949 41.3365 9.47949 30C9.47949 18.6635 18.663 9.47998 29.9995 9.47998Z" fill="#8C52FF"/>
<path d="M40.0522 24.8019H34.2877V20.8518C34.2877 18.9566 33.7221 17.5809 32.6023 16.7646C30.8427 15.4745 28.4489 16.1995 28.3461 16.2337C27.9404 16.3593 27.6605 16.7418 27.6605 17.1699V21.9363C27.6605 25.4641 23.507 26.6914 23.3299 26.737C23.3185 26.7427 23.3071 26.7427 23.3014 26.7484L22.8272 26.8969C22.2901 26.3888 21.5703 26.0806 20.7819 26.0806H18.9822C17.3369 26.0749 16 27.4106 16 29.0546V39.3067C16 40.9507 17.3369 42.2865 18.9822 42.2865H20.7819C21.5417 42.2865 22.2387 42.001 22.7643 41.5273C23.5185 42.4235 24.6497 43 25.9123 43H37.5899C40.2979 43 42.0975 41.5158 42.4117 39.0327L43.8629 29.928L43.9429 29.4371C43.9771 29.2087 44 28.9747 44 28.7406C43.9943 26.5715 42.2232 24.8019 40.0522 24.8019ZM21.8045 39.3124C21.8045 39.8776 21.3475 40.3342 20.7819 40.3342H18.9822C18.4166 40.3342 17.9596 39.8776 17.9596 39.3124V29.0546C17.9596 28.4895 18.4166 28.0328 18.9822 28.0328H20.7819C21.3475 28.0328 21.8045 28.4895 21.8045 29.0546V39.3124ZM42.0061 29.1345L40.475 38.7473C40.475 38.7587 40.4693 38.7701 40.4693 38.7816C40.4007 39.341 40.1951 41.0478 37.5899 41.0478H25.9123C24.7296 41.0478 23.7641 40.0831 23.7641 38.9014V29.0546C23.7641 28.9233 23.7527 28.792 23.7356 28.6607L23.8784 28.6151C24.2954 28.4952 29.6201 26.8626 29.6201 21.9306V17.9748C30.1857 17.9177 30.9284 17.9576 31.4483 18.3458C32.031 18.7796 32.3281 19.6188 32.3281 20.8518V25.7837C32.3281 26.326 32.768 26.7656 33.3108 26.7656H40.0522C41.1492 26.7656 42.0347 27.6561 42.0347 28.7463C42.0347 28.8719 42.0233 29.0032 42.0061 29.1345Z" fill="white"/>
</svg>
