<svg width="60" height="60" viewBox="0 0 60 60" fill="none" xmlns="http://www.w3.org/2000/svg">
<path fill-rule="evenodd" clip-rule="evenodd" d="M30 0C46.5671 0 60 13.4329 60 30C60 46.5671 46.5671 60 30 60C13.4329 60 0 46.5671 0 30C0 13.4329 13.4329 0 30 0Z" fill="#8C52FF" fill-opacity="0.2"/>
<path fill-rule="evenodd" clip-rule="evenodd" d="M30.0001 5.31531C43.6307 5.31531 54.6848 16.3694 54.6848 30C54.6848 43.6306 43.6307 54.6847 30.0001 54.6847C16.3695 54.6847 5.31543 43.6306 5.31543 30C5.31543 16.3694 16.3695 5.31531 30.0001 5.31531Z" fill="#8C52FF" fill-opacity="0.2"/>
<path d="M29.9995 50.52C41.3324 50.52 50.5195 41.3329 50.5195 30C50.5195 18.6671 41.3324 9.47998 29.9995 9.47998C18.6666 9.47998 9.47949 18.6671 9.47949 30C9.47949 41.3329 18.6666 50.52 29.9995 50.52Z" fill="#8C52FF"/>
<path d="M30.2283 38.5354C29.883 38.5354 29.6032 38.8152 29.6032 39.1604V39.4729C29.6032 39.8181 29.883 40.0979 30.2283 40.0979C30.5735 40.0979 30.8534 39.8181 30.8534 39.4729V39.1604C30.8534 38.8152 30.5735 38.5354 30.2283 38.5354Z" fill="white"/>
<path d="M30.2283 31.1217C29.883 31.1217 29.6032 31.4015 29.6032 31.7467V32.4332C29.6032 32.7783 29.883 33.0582 30.2283 33.0582C30.5735 33.0582 30.8534 32.7783 30.8534 32.4332V31.7467C30.8534 31.4015 30.5735 31.1217 30.2283 31.1217Z" fill="white"/>
<path d="M30.2283 34.8285C29.883 34.8285 29.6032 35.1084 29.6032 35.4535V36.14C29.6032 36.4852 29.883 36.765 30.2283 36.765C30.5735 36.765 30.8534 36.4852 30.8534 36.14V35.4535C30.8534 35.1084 30.5735 34.8285 30.2283 34.8285Z" fill="white"/>
<path d="M30.2283 23.708C29.883 23.708 29.6032 23.9878 29.6032 24.333V25.0195C29.6032 25.3646 29.883 25.6445 30.2283 25.6445C30.5735 25.6445 30.8534 25.3646 30.8534 25.0195V24.333C30.8534 23.9878 30.5735 23.708 30.2283 23.708Z" fill="white"/>
<path d="M30.2283 27.4149C29.883 27.4149 29.6032 27.6947 29.6032 28.0399V28.7263C29.6032 29.0715 29.883 29.3513 30.2283 29.3513C30.5735 29.3513 30.8534 29.0715 30.8534 28.7263V28.0399C30.8534 27.6947 30.5735 27.4149 30.2283 27.4149Z" fill="white"/>
<path d="M30.2283 20.3751C29.883 20.3751 29.6032 20.655 29.6032 21.0001V21.3126C29.6032 21.6578 29.883 21.9376 30.2283 21.9376C30.5735 21.9376 30.8534 21.6578 30.8534 21.3126V21.0001C30.8534 20.655 30.5735 20.3751 30.2283 20.3751Z" fill="white"/>
<path d="M50.6059 15.8477L49.1526 14.3947C48.898 14.1402 48.5596 14 48.1995 14C47.8395 14 47.5011 14.1402 47.2465 14.3947L36.4425 25.1968L35.5948 18.7101C35.2439 16.0249 32.9368 14 30.2283 14C27.5198 14 25.2127 16.0249 24.8617 18.7101L23.0986 32.2021C23.0042 32.9242 22.5752 33.5452 21.9509 33.8634C21.3801 34.1542 20.868 34.543 20.4289 35.0187C18.5091 37.0985 18.5258 40.342 20.4669 42.4026C21.5053 43.5049 22.9527 44.105 24.4277 44.1049C24.8439 44.1049 25.2624 44.0571 25.6743 43.9594C26.8333 45.2614 28.4703 46 30.2283 46C31.9861 46 33.6229 45.2616 34.7819 43.9599C36.6115 44.3989 38.5291 43.8664 39.8741 42.5217C40.8977 41.4982 41.4615 40.1376 41.4615 38.6902C41.4615 37.2429 40.8977 35.8822 39.8741 34.8589C39.4807 34.4654 39.0325 34.1367 38.5421 33.8822C37.8942 33.5457 37.4523 32.9237 37.3602 32.2183L37.0934 30.1772C38.1981 29.7849 39.2083 29.1491 40.0392 28.3183L44.1337 24.2245C44.3778 23.9805 44.3778 23.5847 44.1337 23.3406C43.8895 23.0966 43.4938 23.0966 43.2496 23.3406L40.9859 25.6039L39.3947 24.0129L48.1305 15.2785C48.1542 15.2549 48.1811 15.2499 48.1995 15.2499C48.2179 15.2499 48.2449 15.2549 48.2685 15.2786L49.7218 16.7316C49.7598 16.7696 49.7598 16.8315 49.7218 16.8696L47.2278 19.3631C46.9837 19.6072 46.9837 20.0029 47.2278 20.247C47.472 20.4911 47.8677 20.4911 48.1119 20.247L50.6059 17.7534C51.1314 17.228 51.1314 16.3731 50.6059 15.8477ZM37.966 34.9915C38.3426 35.187 38.6872 35.4398 38.9901 35.7427C39.7776 36.53 40.2112 37.5769 40.2112 38.6903C40.2112 39.8037 39.7775 40.8505 38.9901 41.6379C37.877 42.7507 36.2538 43.1403 34.7534 42.6542C34.5025 42.5729 34.228 42.6577 34.0666 42.866C33.1384 44.0633 31.7394 44.7501 30.2283 44.7501C28.7172 44.7501 27.3182 44.0633 26.3901 42.8659C26.2287 42.6577 25.9541 42.5729 25.7033 42.6542C24.1757 43.1491 22.4775 42.7139 21.377 41.5457C19.884 39.9607 19.8711 37.4661 21.3476 35.8665C21.686 35.4999 22.08 35.2006 22.5186 34.9771C23.5102 34.4718 24.1904 33.495 24.3382 32.3641L26.1014 18.8721C26.3713 16.8072 28.1454 15.25 30.2283 15.25C32.3111 15.25 34.0853 16.8072 34.3551 18.8721L35.3273 26.3118L32.2813 29.3575C32.1216 29.5171 32.0605 29.7504 32.1213 29.9678C32.1821 30.1852 32.3555 30.3529 32.5748 30.4065C33.1902 30.5569 33.8204 30.632 34.4507 30.632C34.9277 30.632 35.4046 30.588 35.8749 30.502L36.1204 32.3804C36.2656 33.4907 36.9554 34.4668 37.966 34.9915ZM39.1552 27.4344C37.8032 28.7862 35.92 29.4804 34.0388 29.368L38.5106 24.8968L40.1019 26.4878L39.1552 27.4344Z" fill="white"/>
<path d="M45.6809 21.1688C45.5159 21.1688 45.3553 21.2356 45.2384 21.3519C45.1221 21.4681 45.0558 21.6294 45.0558 21.7938C45.0558 21.9581 45.1221 22.1194 45.2384 22.2356C45.3553 22.3519 45.5165 22.4188 45.6809 22.4188C45.8454 22.4188 46.006 22.3519 46.1229 22.2356C46.2392 22.1194 46.306 21.9581 46.306 21.7938C46.306 21.6294 46.2392 21.4681 46.1229 21.3519C46.0066 21.2356 45.8454 21.1688 45.6809 21.1688Z" fill="white"/>
</svg>
