<svg width="60" height="60" viewBox="0 0 60 60" fill="none" xmlns="http://www.w3.org/2000/svg">
<path fill-rule="evenodd" clip-rule="evenodd" d="M30 0C46.5671 0 60 13.4329 60 30C60 46.5671 46.5671 60 30 60C13.4329 60 0 46.5671 0 30C0 13.4329 13.4329 0 30 0Z" fill="#8C52FF" fill-opacity="0.2"/>
<path fill-rule="evenodd" clip-rule="evenodd" d="M30.0001 5.31531C43.6307 5.31531 54.6848 16.3694 54.6848 30C54.6848 43.6306 43.6307 54.6847 30.0001 54.6847C16.3695 54.6847 5.31543 43.6306 5.31543 30C5.31543 16.3694 16.3695 5.31531 30.0001 5.31531Z" fill="#8C52FF" fill-opacity="0.2"/>
<path d="M29.9995 50.52C41.3324 50.52 50.5195 41.3329 50.5195 30C50.5195 18.6671 41.3324 9.47998 29.9995 9.47998C18.6666 9.47998 9.47949 18.6671 9.47949 30C9.47949 41.3329 18.6666 50.52 29.9995 50.52Z" fill="#8C52FF"/>
<path d="M43.9383 30.4436C43.651 27.6211 42.3599 24.9603 40.3027 22.9511C38.5447 21.2342 36.3929 20.1309 34.1288 19.6403V18.0893C35.0535 17.8647 35.7409 17.0471 35.7409 16.0754C35.7409 14.931 34.7877 14 33.6159 14H29.1158C27.9441 14 26.9908 14.931 26.9908 16.0754C26.9908 17.0471 27.6782 17.8646 28.6029 18.0893V19.6446C26.3457 20.1373 24.201 21.2391 22.448 22.9512C22.0643 23.3258 21.7106 23.7189 21.3868 24.1274C21.3711 24.1262 21.3554 24.1251 21.3394 24.1251H16.8855C16.5404 24.1251 16.2605 24.3983 16.2605 24.7355C16.2605 25.0726 16.5404 25.3459 16.8855 25.3459H20.5363C20.0781 26.0952 19.7086 26.882 19.4273 27.6921H12.625C12.2799 27.6921 12 27.9654 12 28.3025C12 28.6396 12.2799 28.9129 12.625 28.9129H19.0741C18.894 29.6851 18.7906 30.471 18.7639 31.2591H16.0001C15.6549 31.2591 15.3751 31.5324 15.3751 31.8696C15.3751 32.2067 15.6549 32.48 16.0001 32.48H18.7839C18.8366 33.2701 18.9667 34.0561 19.1741 34.8262H15.125C14.7799 34.8262 14.5 35.0995 14.5 35.4366C14.5 35.7738 14.7799 36.047 15.125 36.047H19.573C20.1861 37.6311 21.1443 39.1158 22.448 40.389C24.5071 42.4001 27.2344 43.6613 30.1273 43.9405C30.5402 43.9803 30.9534 44 31.366 44C33.805 44 36.2129 43.3107 38.256 42.0112C38.5453 41.8272 38.6271 41.4491 38.4387 41.1666C38.2503 40.8841 37.8631 40.8042 37.5739 40.9882C33.1015 43.8325 27.1119 43.2175 23.3319 39.5258C18.8967 35.1942 18.8967 28.1462 23.3319 23.8145C27.767 19.4829 34.9835 19.4829 39.4188 23.8145C43.1938 27.5014 43.8269 33.3461 40.9242 37.7119C40.7362 37.9947 40.8185 38.3728 41.1079 38.5563C41.3976 38.7399 41.7846 38.6596 41.9725 38.3768C43.5234 36.0441 44.2215 33.2267 43.9383 30.4436ZM28.2408 16.0755C28.2408 15.6042 28.6333 15.2209 29.1158 15.2209H33.6159C34.0984 15.2209 34.4909 15.6042 34.4909 16.0755C34.4909 16.5467 34.0984 16.93 33.6159 16.93H29.1158C28.6333 16.93 28.2408 16.5466 28.2408 16.0755ZM29.8529 19.4348V18.1509H32.8787V19.4326C31.874 19.3158 30.8575 19.3166 29.8529 19.4348Z" fill="white"/>
<path d="M39.861 39.3467C39.696 39.3467 39.5354 39.412 39.4192 39.5256C39.3023 39.6391 39.236 39.7966 39.236 39.9571C39.236 40.1177 39.3023 40.2751 39.4192 40.3887C39.5354 40.5028 39.6961 40.5675 39.861 40.5675C40.0254 40.5675 40.186 40.5028 40.3029 40.3887C40.4192 40.2751 40.486 40.1177 40.486 39.9571C40.486 39.7966 40.4192 39.6391 40.3029 39.5256C40.186 39.412 40.0253 39.3467 39.861 39.3467Z" fill="white"/>
<path d="M31.3753 22.2007C26.0291 22.2007 21.6796 26.4486 21.6796 31.67C21.6796 36.8914 26.0291 41.1393 31.3753 41.1393C36.7216 41.1393 41.0711 36.8914 41.0711 31.67C41.0711 26.4486 36.7216 22.2007 31.3753 22.2007ZM31.3753 39.9185C26.7183 39.9185 22.9297 36.2182 22.9297 31.67C22.9297 27.1218 26.7183 23.4216 31.3753 23.4216C36.0324 23.4216 39.821 27.1218 39.821 31.67C39.821 36.2182 36.0324 39.9185 31.3753 39.9185Z" fill="white"/>
<path d="M35.3289 26.9455L32.2332 29.9688C31.9743 29.8438 31.6832 29.7732 31.3753 29.7732C31.0675 29.7732 30.7763 29.8438 30.5174 29.9688L29.132 28.6157C28.8879 28.3774 28.4922 28.3774 28.248 28.6157C28.004 28.8541 28.004 29.2406 28.248 29.479L29.6335 30.8321C29.5054 31.0849 29.4332 31.3693 29.4332 31.6699C29.4332 32.7158 30.3044 33.5667 31.3753 33.5667C32.4463 33.5667 33.3175 32.7158 33.3175 31.6699C33.3175 31.3693 33.2452 31.0849 33.1172 30.8321L36.2128 27.8088C36.4569 27.5704 36.4569 27.1839 36.2128 26.9455C35.9687 26.7072 35.5731 26.7072 35.3289 26.9455ZM31.3753 32.346C30.9937 32.346 30.6832 32.0427 30.6832 31.67C30.6832 31.2973 30.9937 30.994 31.3753 30.994C31.757 30.994 32.0675 31.2973 32.0675 31.67C32.0675 32.0427 31.757 32.346 31.3753 32.346Z" fill="white"/>
<path d="M38.0579 31.0671H37.4788C37.1337 31.0671 36.8538 31.3403 36.8538 31.6775C36.8538 32.0146 37.1337 32.2879 37.4788 32.2879H38.0579C38.403 32.2879 38.6829 32.0146 38.6829 31.6775C38.6829 31.3403 38.403 31.0671 38.0579 31.0671Z" fill="white"/>
<path d="M25.2718 31.0522H24.6928C24.3477 31.0522 24.0678 31.3255 24.0678 31.6626C24.0678 31.9997 24.3477 32.273 24.6928 32.273H25.2718C25.6169 32.273 25.8968 31.9997 25.8968 31.6626C25.8968 31.3255 25.6169 31.0522 25.2718 31.0522Z" fill="white"/>
<path d="M31.383 26.3194C31.7281 26.3194 32.008 26.0461 32.008 25.709V25.1435C32.008 24.8064 31.7281 24.5331 31.383 24.5331C31.0378 24.5331 30.758 24.8064 30.758 25.1435V25.709C30.758 26.0461 31.0378 26.3194 31.383 26.3194Z" fill="white"/>
<path d="M31.3677 37.0206C31.0226 37.0206 30.7427 37.2939 30.7427 37.631V38.1965C30.7427 38.5336 31.0226 38.8069 31.3677 38.8069C31.7129 38.8069 31.9927 38.5336 31.9927 38.1965V37.631C31.9927 37.2939 31.7129 37.0206 31.3677 37.0206Z" fill="white"/>
<path d="M12.625 34.826C12.4606 34.826 12.2994 34.8913 12.1831 35.0048C12.0669 35.1184 12 35.2758 12 35.4364C12 35.5975 12.0668 35.7544 12.1831 35.8679C12.2994 35.9815 12.4606 36.0468 12.625 36.0468C12.7894 36.0468 12.9506 35.9815 13.0668 35.8679C13.1831 35.7544 13.25 35.5969 13.25 35.4364C13.25 35.2758 13.1831 35.1184 13.0668 35.0048C12.9506 34.8913 12.7894 34.826 12.625 34.826Z" fill="white"/>
</svg>
