<svg width="80" height="81" viewBox="0 0 80 81" fill="none" xmlns="http://www.w3.org/2000/svg">
<path fill-rule="evenodd" clip-rule="evenodd" d="M40 0.120605C62.09 0.120605 80 18.0306 80 40.1206C80 62.2106 62.09 80.1206 40 80.1206C17.91 80.1206 0 62.2106 0 40.1206C0 18.0306 17.91 0.120605 40 0.120605Z" fill="#8C52FF" fill-opacity="0.2"/>
<path d="M40.0004 74.6805C59.0874 74.6805 74.5604 59.2075 74.5604 40.1205C74.5604 21.0336 59.0874 5.56055 40.0004 5.56055C20.9135 5.56055 5.44043 21.0336 5.44043 40.1205C5.44043 59.2075 20.9135 74.6805 40.0004 74.6805Z" fill="#5271FF"/>
<path d="M58.2548 38.5522L43.9309 23.522C42.5525 22.1417 40.1624 22.1341 38.763 23.5334C38.3201 23.9783 38.0146 24.5109 37.8485 25.0741L37.3331 24.5586C35.9127 23.1401 33.6008 23.1364 32.1652 24.5701C31.6745 25.0626 31.3519 25.6621 31.1992 26.2959C29.8208 25.5761 28.0778 25.7957 26.9152 26.9583C25.6112 28.2623 25.5044 30.3145 26.5906 31.7425C26.0083 31.9086 25.4585 32.2197 25.0003 32.6799C23.578 34.1003 23.578 36.4141 25.0003 37.8363L37.9974 50.8334L30.2923 52.0437C28.2076 52.3415 26.6364 54.1513 26.6364 56.2571C26.6364 57.836 27.9212 59.1207 29.5 59.1207H47.5009C50.3034 59.1207 52.9399 58.0287 54.9273 56.0452L57.9284 53.0422C59.91 51.0625 61.0001 48.4279 61.0001 45.6273C61.0001 43.0119 60.0303 40.5052 58.2548 38.5522ZM56.5786 51.6925L53.5775 54.6954C51.9529 56.3182 49.7938 57.2117 47.5009 57.2117H29.5C28.975 57.2117 28.5455 56.784 28.5455 56.2571C28.5455 55.0963 29.4122 54.0979 30.5729 53.93L40.1471 52.4256C40.5021 52.3702 40.7942 52.1201 40.9069 51.7784C41.0176 51.4386 40.9279 51.0625 40.674 50.8086L26.35 36.4847C25.6742 35.807 25.6742 34.7054 26.3615 34.0162C26.7013 33.6783 27.1461 33.5084 27.591 33.5084C28.0358 33.5084 28.4806 33.6783 28.8205 34.0181L38.3717 43.5693C38.744 43.9416 39.3492 43.9416 39.7214 43.5693C39.9066 43.3822 40.0002 43.1379 40.0002 42.8935C40.0002 42.6491 39.9067 42.4048 39.7214 42.2196L28.2669 30.765C27.591 30.0873 27.591 28.9858 28.2782 28.2966C28.9559 27.6207 30.0576 27.6207 30.7353 28.2966L42.1898 39.7511C42.5621 40.1234 43.1673 40.1234 43.5396 39.7511C43.7247 39.564 43.8183 39.3197 43.8183 39.0753C43.8183 38.8309 43.7248 38.5866 43.5377 38.4013L33.5149 28.3786C32.8391 27.7009 32.8391 26.5993 33.5264 25.9102C34.2041 25.2343 35.3057 25.2343 35.9834 25.9102L38.7192 28.6439C38.7325 28.6593 38.7497 28.6745 38.765 28.6898L46.01 35.9329C46.3823 36.3052 46.9875 36.3052 47.3598 35.9329C47.732 35.5606 47.732 34.9554 47.3598 34.5831L40.0842 27.3076C39.4409 26.6279 39.4523 25.5493 40.1282 24.8716C40.783 24.2206 41.9437 24.234 42.5661 24.8563L56.8574 39.8542C58.2988 41.4388 59.091 43.4872 59.091 45.6273C59.091 47.9163 58.1976 50.0716 56.5786 51.6925Z" fill="white" fill-opacity="0.8"/>
<path d="M40.9545 17.1206C39.0054 17.1206 37.1096 17.8022 35.5728 19.0507C35.4582 19.0374 35.3456 19.0297 35.2272 19.0297C33.2781 19.0297 31.3824 19.7112 29.8455 20.9598C29.7309 20.9464 29.6183 20.9387 29.5 20.9387C24.7635 20.9387 20.9091 24.7932 20.9091 29.5296C20.9091 29.648 20.9186 29.7626 20.932 29.8752C19.6815 31.412 19 33.3078 19 35.257C19 39.9935 22.8545 43.8479 27.5909 43.8479C28.1178 43.8479 28.5455 43.4202 28.5455 42.8933C28.5455 42.3664 28.1178 41.9388 27.5909 41.9388C23.9064 41.9388 20.9091 38.9415 20.9091 35.2569C20.9091 33.6342 21.5238 32.0554 22.6387 30.8125C22.8144 30.6178 22.9022 30.3562 22.8811 30.0948L22.8468 29.8045C22.8334 29.7129 22.8181 29.6232 22.8181 29.5296C22.8182 25.8451 25.8155 22.8479 29.5 22.8479C29.5955 22.8479 29.6851 22.8632 29.7749 22.8765L30.0631 22.909C30.3266 22.9319 30.5862 22.846 30.7829 22.6685C32.0257 21.5535 33.6045 20.9388 35.2272 20.9388C35.3227 20.9388 35.4124 20.9541 35.5022 20.9675L35.7904 20.9999C36.0481 21.021 36.3135 20.9369 36.5102 20.7594C37.753 19.6445 39.3318 19.0298 40.9545 19.0298C44.6391 19.0297 47.6364 22.027 47.6364 25.7115C47.6364 26.2384 48.064 26.6661 48.5909 26.6661C49.1179 26.6661 49.5455 26.2384 49.5455 25.7115C49.5454 20.9751 45.691 17.1206 40.9545 17.1206Z" fill="white" fill-opacity="0.8"/>
<path d="M15.8116 63.3082C15.2259 62.7224 15.2259 61.7727 15.8116 61.1869L61.0665 15.9321C61.6523 15.3463 62.602 15.3463 63.1878 15.9321C63.7736 16.5179 63.7736 17.4676 63.1878 18.0534L17.933 63.3082C17.3472 63.894 16.3974 63.894 15.8116 63.3082Z" fill="white"/>
</svg>
