<svg width="80" height="81" viewBox="0 0 80 81" fill="none" xmlns="http://www.w3.org/2000/svg">
<path fill-rule="evenodd" clip-rule="evenodd" d="M40 0.120605C62.09 0.120605 80 18.0306 80 40.1206C80 62.2106 62.09 80.1206 40 80.1206C17.91 80.1206 0 62.2106 0 40.1206C0 18.0306 17.91 0.120605 40 0.120605Z" fill="#8C52FF" fill-opacity="0.2"/>
<path d="M40.0004 74.6805C59.0874 74.6805 74.5604 59.2075 74.5604 40.1205C74.5604 21.0336 59.0874 5.56055 40.0004 5.56055C20.9135 5.56055 5.44043 21.0336 5.44043 40.1205C5.44043 59.2075 20.9135 74.6805 40.0004 74.6805Z" fill="#CB6CE6"/>
<path d="M31.7573 45.378C31.0497 45.378 30.3425 45.2183 29.6975 44.8987L29.6823 44.8912C28.2104 44.1592 27.1657 42.9093 26.8156 41.4616C25.8301 37.3853 29.6892 33.2661 30.8956 32.1007C31.3707 31.6416 32.1441 31.6415 32.6192 32.1007C33.8254 33.266 37.6846 37.3851 36.6991 41.4615C36.3491 42.9091 35.3045 44.159 33.8327 44.8909L33.8178 44.8983C33.1727 45.2182 32.4648 45.378 31.7573 45.378ZM31.7575 33.3094C31.1407 33.9245 30.147 35.0135 29.3463 36.3512C28.2857 38.1232 27.9192 39.73 28.2569 41.1269C28.5061 42.158 29.2698 43.0582 30.352 43.5963L30.3662 43.6033C31.237 44.0349 32.2775 44.0349 33.1489 43.603L33.1629 43.5961C34.2448 43.0582 35.0085 42.158 35.2578 41.127C35.5956 39.73 35.229 38.1232 34.1684 36.3512C33.368 35.0136 32.3741 33.9244 31.7575 33.3094Z" fill="white"/>
<path d="M60.6012 51.1306C60.6012 51.1306 60.6022 47.6994 60.5885 47.3537C60.5269 45.7988 59.4023 44.9604 58.1964 44.166C56.8051 43.2495 55.4033 42.4026 54.8253 40.7908C54.7072 40.4615 54.4484 40.1996 54.1151 40.0724C53.7775 39.9435 53.4 39.9655 53.0797 40.1329C52.8079 40.275 52.5386 40.4234 52.2781 40.5669C51.6901 40.8909 51.1347 41.197 50.5526 41.4368C48.8468 42.1394 46.9748 42.2982 45.1645 42.5281C44.3745 42.6284 43.5851 42.7397 42.8074 42.9105C42.3886 43.0024 41.9108 43.156 41.4363 43.3601L42.606 30.4141C42.6421 30.0148 42.341 29.6624 41.9336 29.627C41.527 29.5915 41.1667 29.8868 41.1306 30.2861C41.1306 30.2861 39.8655 44.2888 39.8653 44.2889C38.9607 45.0397 38.5191 46.1416 38.5312 47.302C38.534 47.5667 38.544 51.1305 38.544 51.1305C37.7704 51.1449 37.1453 51.7651 37.1453 52.5269V56.7573H24.78L21.7834 20.4519H41.79L41.3554 26.933C41.3285 27.333 41.6377 27.6786 42.0458 27.7049C42.4532 27.7303 42.8065 27.4282 42.8333 27.0282C42.8333 27.0282 43.5293 16.6061 43.5273 16.5519C43.5213 16.1952 43.3816 15.849 43.1325 15.5857C42.86 15.2979 42.4767 15.1309 42.0768 15.1222C42.0663 15.1221 42.0557 15.1206 42.0448 15.1206C42.0448 15.1206 21.4691 15.1206 21.4688 15.1206C21.4571 15.1206 21.4457 15.1222 21.4341 15.1224C21.0353 15.1318 20.6532 15.2987 20.3813 15.5858C19.9313 16.0613 19.984 16.5999 20.0286 17.195L23.3564 57.5126V62.6868C23.3564 63.7481 24.2372 64.6115 25.3199 64.6115H38.194C38.5026 64.6115 38.7941 64.5403 39.054 64.415C39.387 64.5414 39.7484 64.6115 40.1264 64.6115H59.0191C60.6628 64.6115 62 63.3006 62 61.6896V52.527C62.0001 51.7652 61.375 51.145 60.6012 51.1306ZM21.5335 17.4239L21.4699 16.5846C21.4721 16.579 21.4749 16.5748 21.4769 16.5725L42.0374 16.5736C42.0405 16.5776 42.0438 16.5867 42.0456 16.599L41.8618 19.0001H21.6635L21.5335 17.4239ZM34.0659 63.1596H29.448V61.8403C29.448 61.6032 29.6448 61.4102 29.8867 61.4102H33.6273C33.8692 61.4102 34.066 61.6032 34.066 61.8403V63.1596H34.0659ZM35.547 63.1596V61.8403C35.547 60.8026 34.6857 59.9585 33.6272 59.9585H29.8866C28.828 59.9585 27.9668 60.8027 27.9668 61.8403V63.1596H25.3199C25.0539 63.1596 24.8375 62.9475 24.8375 62.6868V58.2092H37.1454V61.6895C37.1454 62.2253 37.2939 62.7274 37.5518 63.1596H35.547ZM40.6175 45.5864C41.1792 44.9988 42.3073 44.5081 43.1312 44.3272C44.0638 44.1224 45.002 44.0083 45.9955 43.8876C46.5294 43.8227 47.0814 43.7555 47.6269 43.6734C49.045 43.4599 50.157 43.1746 51.1264 42.7752C51.7866 42.5033 52.4055 42.1622 53.0038 41.8325C53.1781 41.7365 53.3566 41.6382 53.5348 41.5425C53.8894 42.3537 54.4053 43.1247 55.0812 43.7117C56.0285 44.5345 57.171 45.2165 58.2054 45.9289C58.7742 46.3206 59.0693 46.7903 59.1061 47.3635H40.0133C40.013 47.338 40.0127 47.3125 40.0124 47.2871C40.0047 46.5568 40.1913 46.0323 40.6175 45.5864ZM59.1201 48.8153V51.1293H40.0253V48.8153H59.1201ZM60.5189 61.6896C60.5189 62.5002 59.8461 63.1597 59.0191 63.1597H40.1264C39.2994 63.1597 38.6266 62.5002 38.6266 61.6896V52.5811H60.5189V61.6896Z" fill="white"/>
<path d="M43.0767 61.1378H45.8231C46.232 61.1378 46.5637 60.8128 46.5637 60.4118C46.5637 60.011 46.2321 59.6859 45.8231 59.6859H43.0767C43.0526 59.6859 43.0329 59.6667 43.0329 59.643V56.0988C43.0329 56.0751 43.0525 56.0558 43.0767 56.0558H56.0694C56.0935 56.0558 56.1132 56.075 56.1132 56.0988V59.643C56.1132 59.6667 56.0936 59.6859 56.0694 59.6859H49.2462C48.8372 59.6859 48.5056 60.0109 48.5056 60.4118C48.5056 60.8127 48.8371 61.1378 49.2462 61.1378H56.0694C56.9102 61.1378 57.5943 60.4672 57.5943 59.643V56.0988C57.5943 55.2745 56.9102 54.604 56.0694 54.604H43.0767C42.2358 54.604 41.5518 55.2745 41.5518 56.0988V59.643C41.5517 60.4672 42.2358 61.1378 43.0767 61.1378Z" fill="white"/>
</svg>
