<svg width="80" height="81" viewBox="0 0 80 81" fill="none" xmlns="http://www.w3.org/2000/svg">
<path fill-rule="evenodd" clip-rule="evenodd" d="M40 0.120605C62.09 0.120605 80 18.0306 80 40.1206C80 62.2106 62.09 80.1206 40 80.1206C17.91 80.1206 0 62.2106 0 40.1206C0 18.0306 17.91 0.120605 40 0.120605Z" fill="#8C52FF" fill-opacity="0.2"/>
<path d="M40.0004 74.6805C59.0874 74.6805 74.5604 59.2075 74.5604 40.1205C74.5604 21.0336 59.0874 5.56055 40.0004 5.56055C20.9135 5.56055 5.44043 21.0336 5.44043 40.1205C5.44043 59.2075 20.9135 74.6805 40.0004 74.6805Z" fill="#5271FF"/>
<path d="M43.3646 20.3223C43.4338 20.3379 43.503 20.3454 43.5712 20.3454C43.9992 20.3454 44.3857 20.0496 44.4837 19.6137L45.3891 15.5892C45.5027 15.0841 45.1859 14.5823 44.6815 14.4685C44.177 14.3544 43.676 14.672 43.5623 15.1771L42.6568 19.2016C42.5433 19.7067 42.8602 20.2085 43.3646 20.3223Z" fill="white" fill-opacity="0.8"/>
<path d="M38.9523 19.045C39.1304 19.3273 39.4342 19.4818 39.7447 19.4818C39.9157 19.4818 40.0888 19.4348 40.244 19.3366C40.681 19.06 40.8115 18.4809 40.5353 18.0432L38.3353 14.5574C38.0591 14.1196 37.4808 13.9892 37.0436 14.2656C36.6066 14.5423 36.4761 15.1214 36.7524 15.5591L38.9523 19.045Z" fill="white" fill-opacity="0.8"/>
<path d="M47.3982 21.209C47.5693 21.209 47.7423 21.162 47.8977 21.0637L51.3815 18.858C51.8186 18.5812 51.9489 18.0022 51.6725 17.5645C51.3962 17.127 50.8179 16.9964 50.3808 17.2732L46.897 19.4788C46.4599 19.7556 46.3296 20.3347 46.606 20.7723C46.7841 21.0545 47.0878 21.209 47.3982 21.209Z" fill="white" fill-opacity="0.8"/>
<path d="M59.0195 54.8018L53.0902 52.2453L51.1893 45.1393C53.6426 44.2216 55.7261 42.3245 56.8697 39.9229C57.988 37.5743 58.0631 35.0092 57.0881 32.6746C57.081 32.6573 57.0236 32.5227 57.0012 32.4728L52.9255 23.3437C52.7377 22.9232 52.2725 22.7016 51.8284 22.8208L42.8698 25.2241L43.0073 23.8961C43.0544 23.4404 42.7658 23.0173 42.3247 22.8956L39.3922 22.0864C38.8937 21.9487 38.3782 22.2419 38.2408 22.7411C38.1035 23.2403 38.3963 23.7565 38.8947 23.8941L41.0629 24.4924L40.6627 28.3593C38.0035 27.1384 34.5125 27.2688 32.1053 28.8157C30.155 30.0691 27.0551 30.0895 24.9592 28.95L28.4586 21.1148L30.8226 21.7494C31.3218 21.8836 31.8355 21.5869 31.9693 21.0866C32.1032 20.5865 31.8069 20.0724 31.3075 19.9383L28.1723 19.0966C27.7282 18.9772 27.2629 19.1989 27.0751 19.6193L22.9964 28.7514C21.932 31.138 21.979 33.7827 23.129 36.1984C24.2726 38.6008 26.3573 40.4992 28.8111 41.4175L26.9103 48.5234L20.9804 51.0777C19.9242 51.5339 19.2623 52.5878 19.3333 53.7004C19.4042 54.8114 20.1965 55.7168 21.401 56.0631C21.4064 56.0647 21.4119 56.0662 21.4173 56.0676L29.7066 58.2897C29.7115 58.291 29.7164 58.2923 29.7214 58.2936C29.9969 58.3626 30.2683 58.3963 30.5306 58.3963C31.4275 58.3963 32.2175 58.0029 32.6946 57.2861C33.3121 56.3584 33.2652 55.1144 32.5777 54.1902L28.7192 49.009L30.6199 41.9035C31.1687 41.9957 31.725 42.0416 32.2821 42.0416C34.3481 42.0415 36.4225 41.4163 38.1471 40.2284C38.2985 40.1241 38.4455 40.016 38.5888 39.9048C39.2817 41.6507 40.5365 43.141 42.2257 44.1944C43.8719 45.2211 45.8169 45.7587 47.7389 45.7587C48.2906 45.7587 48.8402 45.714 49.3804 45.6243L51.2813 52.7304L47.4227 57.9119C46.7348 58.8358 46.6869 60.0799 47.3036 61.0076C47.7809 61.7258 48.5717 62.12 49.4696 62.12C49.7308 62.12 50.0013 62.0866 50.2755 62.0182C50.2809 62.0168 50.2861 62.0154 50.2915 62.014L58.5807 59.7893C58.586 59.7879 58.5912 59.7864 58.5964 59.785C59.8032 59.4385 60.5966 58.5322 60.6669 57.42C60.7372 56.3078 60.0747 55.2556 59.0195 54.8018ZM42.6632 27.2208L51.5418 24.839L55.0394 32.6731C52.9444 33.8128 49.8446 33.7918 47.8929 32.5375C46.3588 31.5507 44.2793 31.1162 42.2391 31.3178L42.6632 27.2208ZM31.1366 56.2463C30.9057 56.5932 30.4429 56.5405 30.1827 56.4764L21.9106 54.259C21.654 54.1841 21.2288 53.9975 21.2021 53.5811C21.1855 53.3202 21.3411 52.9644 21.7213 52.8001L27.3885 50.3589L31.0763 55.311C31.324 55.6437 31.2811 56.0291 31.1366 56.2463ZM37.086 38.6835C35.1112 40.0437 32.4689 40.5074 30.1886 39.8933C30.1885 39.8933 30.1885 39.8933 30.1884 39.8932C30.1883 39.8932 30.1882 39.8932 30.188 39.8932C30.1879 39.8932 30.1878 39.8932 30.1877 39.8931C27.9079 39.2831 25.8508 37.5583 24.8194 35.3916C24.1 33.8802 23.9264 32.26 24.2979 30.7204C25.5476 31.3511 27.0033 31.6713 28.4545 31.6712C30.1238 31.6711 31.7861 31.2489 33.1167 30.3938C35.1273 29.1016 38.3594 29.1188 40.4551 30.3658L40.115 33.6521C39.904 35.6967 38.8283 37.4835 37.086 38.6835ZM43.2157 42.6027C41.6311 41.6146 40.5316 40.1517 40.0801 38.4507C41.1429 37.1422 41.7999 35.5668 41.9776 33.8451L42.0412 33.231C43.7904 32.9682 45.5964 33.2887 46.8812 34.1153C48.2134 34.9715 49.8763 35.394 51.5465 35.394C52.997 35.394 54.452 35.0739 55.7008 34.4436C56.0726 35.9839 55.8992 37.6043 55.1795 39.1158C54.1482 41.2817 52.0926 43.0052 49.8124 43.6146C49.8124 43.6146 49.8123 43.6146 49.8122 43.6146C49.8122 43.6146 49.812 43.6147 49.8119 43.6147C49.8116 43.6148 49.8114 43.6149 49.8111 43.615C47.6373 44.201 45.1717 43.8226 43.2157 42.6027ZM58.0872 57.9804L49.8155 60.2004C49.5554 60.2642 49.0931 60.316 48.8624 59.9688C48.7181 59.7516 48.6758 59.3661 48.9239 59.0328L52.6118 54.0806L58.2796 56.5245C58.6592 56.6877 58.8144 57.0417 58.798 57.3016C58.7718 57.7185 58.3448 57.9053 58.0872 57.9804Z" fill="white" fill-opacity="0.8"/>
<path d="M35.0025 22.8381C35.5196 22.8381 35.9388 22.4184 35.9388 21.9005C35.9388 21.3827 35.5196 20.9629 35.0025 20.9629H34.997C34.4799 20.9629 34.0635 21.3826 34.0635 21.9005C34.0636 22.4184 34.4854 22.8381 35.0025 22.8381Z" fill="white" fill-opacity="0.8"/>
<path d="M16.0607 63.5572C15.4749 62.9715 15.4749 62.0217 16.0607 61.4359L61.3155 16.1811C61.9013 15.5953 62.851 15.5953 63.4368 16.1811C64.0226 16.7669 64.0226 17.7166 63.4368 18.3024L18.182 63.5572C17.5962 64.143 16.6464 64.143 16.0607 63.5572Z" fill="white"/>
</svg>
