<svg width="80" height="81" viewBox="0 0 80 81" fill="none" xmlns="http://www.w3.org/2000/svg">
<path fill-rule="evenodd" clip-rule="evenodd" d="M40 0.120605C62.09 0.120605 80 18.0306 80 40.1206C80 62.2106 62.09 80.1206 40 80.1206C17.91 80.1206 0 62.2106 0 40.1206C0 18.0306 17.91 0.120605 40 0.120605Z" fill="#8C52FF" fill-opacity="0.2"/>
<path d="M39.9995 74.6805C59.0864 74.6805 74.5594 59.2075 74.5594 40.1205C74.5594 21.0336 59.0864 5.56055 39.9995 5.56055C20.9125 5.56055 5.43945 21.0336 5.43945 40.1205C5.43945 59.2075 20.9125 74.6805 39.9995 74.6805Z" fill="#5271FF"/>
<g opacity="0.8">
<path d="M36.1685 40.7927C36.1684 40.7927 36.1682 40.7927 36.1681 40.7927H34.9388C34.4995 38.5415 32.3183 37.0725 30.067 37.5119C28.7691 37.7652 27.6694 38.6214 27.1056 39.8176C26.1277 37.7428 23.653 36.8535 21.5781 37.8314C20.382 38.3951 19.5258 39.4949 19.2725 40.7927H17.839C17.379 40.7926 17.006 41.1654 17.0059 41.6254C17.0059 41.6255 17.0059 41.6258 17.0059 41.6259V63.2876C17.0058 63.7476 17.3786 64.1206 17.8386 64.1207C17.8387 64.1207 17.8389 64.1207 17.839 64.1207H36.1681C36.6281 64.1208 37.0012 63.748 37.0013 63.288C37.0013 63.2879 37.0013 63.2877 37.0013 63.2876V41.6259C37.0014 41.1659 36.6285 40.7928 36.1685 40.7927ZM30.8548 39.1011C31.92 39.1046 32.8656 39.7841 33.2086 40.7926H28.501C28.844 39.7841 29.7895 39.1047 30.8548 39.1011ZM23.3565 39.1011C24.4218 39.1046 25.3673 39.7841 25.7103 40.7926H21.0028C21.3457 39.7841 22.2912 39.1047 23.3565 39.1011ZM22.8379 62.4544H18.6721V42.459H22.8379V62.4544ZM29.503 62.4544H24.5041V42.459H29.503V62.4544ZM35.335 62.4544H31.1693V42.459H35.335V62.4544Z" fill="white"/>
<path d="M21.8038 28.5849C21.0298 27.9021 20.9557 26.7212 21.6385 25.9472C21.69 25.8887 21.7453 25.8335 21.8038 25.782C22.4687 25.1263 22.8414 24.2302 22.8375 23.2964H21.1712C21.1695 23.832 20.9394 24.3414 20.5386 24.6966C19.1656 26.0621 19.1596 28.2821 20.5252 29.6551C20.5297 29.6596 20.5342 29.6641 20.5386 29.6686C21.3134 30.3528 21.3867 31.5354 20.7025 32.3101C20.6513 32.368 20.5965 32.4227 20.5386 32.4739C19.8735 33.1298 19.5009 34.0261 19.5049 34.9603H21.1712C21.1732 34.424 21.4032 33.9141 21.8038 33.5576C23.177 32.1915 23.1827 29.9709 21.8167 28.5977C21.8124 28.5934 21.808 28.5891 21.8038 28.5849Z" fill="white"/>
<path d="M27.6358 28.5849C26.8618 27.9021 26.7878 26.7212 27.4705 25.9472C27.5221 25.8887 27.5774 25.8335 27.6358 25.782C28.3007 25.1263 28.6735 24.2302 28.6695 23.2964H27.0032C27.0016 23.832 26.7714 24.3414 26.3707 24.6966C24.9977 26.0621 24.9916 28.2821 26.3572 29.6551C26.3617 29.6596 26.3662 29.6641 26.3707 29.6686C27.1454 30.3528 27.2187 31.5354 26.5345 32.3101C26.4834 32.368 26.4286 32.4227 26.3707 32.4739C25.7055 33.1298 25.3329 34.0261 25.3369 34.9603H27.0032C27.0052 34.424 27.2353 33.9141 27.6358 33.5576C29.009 32.1915 29.0147 29.9709 27.6487 28.5977C27.6444 28.5934 27.6401 28.5891 27.6358 28.5849Z" fill="white"/>
<path d="M33.4678 28.5849C32.6938 27.9021 32.6198 26.7212 33.3026 25.9472C33.3541 25.8887 33.4094 25.8335 33.4678 25.782C34.1328 25.1263 34.5055 24.2302 34.5016 23.2964H32.8353C32.8336 23.832 32.6034 24.3414 32.2027 24.6966C30.8297 26.0621 30.8236 28.2821 32.1893 29.6551C32.1937 29.6596 32.1982 29.6641 32.2027 29.6686C32.9774 30.3528 33.0507 31.5354 32.3665 32.3101C32.3154 32.368 32.2606 32.4227 32.2027 32.4739C31.5375 33.1298 31.1649 34.0261 31.169 34.9603H32.8353C32.8372 34.424 33.0673 33.9141 33.4678 33.5576C34.8411 32.1915 34.8468 29.9709 33.4807 28.5977C33.4765 28.5934 33.4721 28.5891 33.4678 28.5849Z" fill="white"/>
<path d="M58.6625 37.46V29.9617L62.7452 33.0233C63.7654 33.7892 65.2133 33.583 65.9792 32.5628C66.388 32.0181 66.5357 31.3207 66.3827 30.6571C66.2454 30.0767 65.8928 29.5699 65.3963 29.2395L56.2195 22.7951C58.2494 20.9237 58.3778 17.761 56.5063 15.7311C54.6349 13.7013 51.4722 13.5729 49.4423 15.4443C47.4125 17.3158 47.2841 20.4785 49.1555 22.5083C49.1638 22.5173 49.1721 22.5262 49.1804 22.5351C49.13 22.5532 49.0816 22.576 49.0356 22.6034L39.3956 29.0359C39.0415 29.2588 38.7515 29.5699 38.554 29.9388C38.1163 30.7729 38.1918 31.7835 38.7485 32.5433C39.5212 33.6013 40.9912 33.8609 42.0794 33.1315L46.9986 29.8519V37.46H40.3335V39.1263H46.9986V48.3201C47.0104 50.1563 48.5085 51.6351 50.3445 51.6233C51.2986 51.6172 52.2041 51.2014 52.8306 50.4819C54.0363 51.8667 56.1363 52.0119 57.5212 50.8062C58.2408 50.1797 58.6566 49.2743 58.6626 48.3201V39.1263H66.994V37.46H58.6625ZM49.6175 18.227C49.9231 17.1033 50.8004 16.2252 51.9237 15.9186C53.7029 15.4229 55.5471 16.4634 56.0427 18.2425C56.206 18.8288 56.2063 19.4483 56.0435 20.0346C55.738 21.1583 54.8607 22.0365 53.7373 22.3431C51.9581 22.8388 50.114 21.7983 49.6183 20.0191C49.4549 19.433 49.4546 18.8133 49.6175 18.227ZM51.9974 48.3201C51.9881 49.2318 51.2428 49.964 50.3311 49.9571C49.4194 49.9641 48.6741 49.2318 48.6648 48.3201V38.2631C48.6816 37.3427 49.4411 36.6103 50.3614 36.6271C51.2581 36.6433 51.9811 37.3664 51.9974 38.2631V48.3201ZM56.9962 48.3201C56.98 49.2404 56.2209 49.9733 55.3006 49.957C54.4032 49.9412 53.6794 49.2175 53.6637 48.3201V38.2631C53.6804 37.3427 54.4399 36.6103 55.3602 36.6271C56.2569 36.6433 56.98 37.3664 56.9962 38.2631V48.3201ZM58.3294 27.629C57.9614 27.3528 57.4394 27.4271 57.1631 27.795C57.0548 27.9394 56.9961 28.115 56.9962 28.2953V35.42C55.6259 34.6075 53.8703 34.895 52.8305 36.1019C51.7908 34.895 50.0351 34.6075 48.6648 35.42V28.2954C48.6648 27.8353 48.2919 27.4623 47.8318 27.4623C47.6672 27.4623 47.5064 27.511 47.3695 27.6023L41.1551 31.7452C40.7959 31.9846 40.3105 31.8875 40.071 31.5282C39.9594 31.3607 39.9166 31.1566 39.9518 30.9584C39.988 30.748 40.1097 30.5619 40.2879 30.4441L49.7506 24.1296H55.2205L64.5014 30.6475C64.786 30.8498 64.8595 31.2409 64.6678 31.5327C64.4701 31.8288 64.0699 31.9086 63.7738 31.7108C63.7642 31.7043 63.7546 31.6976 63.7452 31.6905L58.3294 27.629Z" fill="white"/>
</g>
<path d="M18.0607 64.5572C17.4749 63.9715 17.4749 63.0217 18.0607 62.4359L63.3155 17.1811C63.9013 16.5953 64.851 16.5953 65.4368 17.1811C66.0226 17.7669 66.0226 18.7166 65.4368 19.3024L20.182 64.5572C19.5962 65.143 18.6464 65.143 18.0607 64.5572Z" fill="white"/>
</svg>
