<svg width="80" height="81" viewBox="0 0 80 81" fill="none" xmlns="http://www.w3.org/2000/svg">
<path fill-rule="evenodd" clip-rule="evenodd" d="M40 0.120605C62.09 0.120605 80 18.0306 80 40.1206C80 62.2106 62.09 80.1206 40 80.1206C17.91 80.1206 0 62.2106 0 40.1206C0 18.0306 17.91 0.120605 40 0.120605Z" fill="#8C52FF" fill-opacity="0.2"/>
<path d="M40.0004 74.6805C59.0874 74.6805 74.5604 59.2075 74.5604 40.1205C74.5604 21.0336 59.0874 5.56055 40.0004 5.56055C20.9135 5.56055 5.44043 21.0336 5.44043 40.1205C5.44043 59.2075 20.9135 74.6805 40.0004 74.6805Z" fill="#CB6CE6"/>
<path d="M28.6268 55.9404C25.9782 55.4029 23.2301 55.4801 20.6793 56.1636L17.5608 56.9992C17.1205 57.1171 16.8236 56.8803 16.7162 56.7729C16.6089 56.6656 16.372 56.3685 16.49 55.9284L17.4173 52.4676C18.0864 49.9704 18.1972 47.3687 17.7375 44.9437C17.5549 43.9807 17.4623 42.9552 17.4623 41.8958C17.4623 40.8364 17.5549 39.8109 17.7375 38.8478C18.1972 36.4229 18.0864 33.8212 17.4173 31.3239L16.49 27.8631C16.372 27.423 16.6089 27.1259 16.7162 27.0186C16.8236 26.9113 17.1205 26.6743 17.5607 26.7923L20.6793 27.6279C22.4727 28.1084 24.3358 28.2914 26.2168 28.1715C26.6187 28.1459 26.9236 27.7994 26.8981 27.3976C26.8725 26.9957 26.5255 26.6902 26.1241 26.7163C24.4016 26.8261 22.6966 26.6588 21.0568 26.2194L17.9381 25.3838C17.1238 25.1656 16.2815 25.3913 15.6853 25.9874C15.089 26.5837 14.8634 27.4259 15.0816 28.2404L16.0089 31.7013C16.6217 33.9881 16.724 36.3653 16.305 38.5762C16.1055 39.6286 16.0043 40.7454 16.0043 41.8957C16.0043 43.046 16.1055 44.1628 16.305 45.2152C16.724 47.4262 16.6216 49.8035 16.0089 52.0901L15.0816 55.551C14.8634 56.3654 15.089 57.2077 15.6853 57.8039C16.1319 58.2505 16.7163 58.4891 17.3238 58.4891C17.5275 58.4891 17.7337 58.4623 17.9381 58.4076L21.0567 57.572C23.3907 56.9466 25.9082 56.8765 28.3367 57.3693C28.7313 57.4493 29.1161 57.1944 29.1962 56.7999C29.2764 56.4054 29.0214 56.0205 28.6268 55.9404Z" fill="white"/>
<path d="M63.9912 52.0906C63.3784 49.8039 63.2761 47.4266 63.6951 45.2157C63.8946 44.1633 63.9958 43.0464 63.9958 41.8962C63.9958 40.746 63.8946 39.6292 63.6951 38.5767C63.2761 36.3658 63.3784 33.9886 63.9912 31.7018L64.9186 28.2409C65.1367 27.4265 64.9111 26.5842 64.3149 25.988C63.7187 25.3918 62.8765 25.1662 62.0619 25.3843L58.9434 26.2199C56.2757 26.9349 53.4141 26.9238 50.6679 26.1885C47.5825 25.3623 43.9934 24.9434 40 24.9434C36.0067 24.9434 32.4175 25.3623 29.3322 26.1885C28.9432 26.2926 28.7123 26.6924 28.8165 27.0812C28.9206 27.4702 29.3203 27.7012 29.7093 27.5969C32.6716 26.8036 36.1339 26.4015 40 26.4015C43.8661 26.4015 47.3283 26.8037 50.2907 27.5969C53.2836 28.3984 56.4062 28.4092 59.3207 27.6283L62.4393 26.7927C62.8792 26.6746 63.1764 26.9116 63.2838 27.0189C63.3911 27.1263 63.628 27.4233 63.5101 27.8635L62.5827 31.3243C61.9136 33.8216 61.8028 36.4232 62.2625 38.8481C62.445 39.8113 62.5376 40.8368 62.5376 41.8962C62.5376 42.9556 62.445 43.981 62.2625 44.9441C61.8028 47.369 61.9136 49.9708 62.5827 52.468L63.5101 55.9288C63.628 56.3689 63.3911 56.666 63.2838 56.7733C63.1765 56.8806 62.8795 57.1177 62.4394 56.9996L59.3208 56.164C56.4064 55.3831 53.2839 55.3939 50.2907 56.1954C49.7924 56.3289 49.2762 56.4517 48.7468 56.5637C49.259 55.6446 49.6319 54.6349 49.8303 53.5599C51.3982 53.0566 52.5686 51.0518 52.6981 49.2934C52.7961 47.9634 52.278 47.1602 51.8262 46.7208C51.6803 46.5789 51.5166 46.4536 51.3402 46.3418V41.7644C51.3402 37.2289 47.6502 32.6211 43.1147 32.6211H36.9496C32.4141 32.6211 28.7242 37.2289 28.7242 41.7644V46.3024C28.5226 46.4234 28.3374 46.562 28.1741 46.7209C27.7222 47.1603 27.2041 47.9635 27.3021 49.2935C27.4384 51.1442 28.6999 53.173 30.3051 53.5984C31.1812 58.2427 35.2812 61.6786 40.0642 61.6786C43.0167 61.6786 45.7073 60.3683 47.5414 58.2741C48.6284 58.0937 49.6802 57.8685 50.668 57.6039C53.4142 56.8684 56.2757 56.8576 58.9434 57.5724L62.062 58.4081C62.2664 58.4629 62.4726 58.4896 62.6762 58.4896C63.2837 58.4896 63.8683 58.251 64.3149 57.8044C64.9111 57.2081 65.1367 56.3659 64.9186 55.5515L63.9912 52.0906ZM40.0642 60.2204C35.8229 60.2204 32.2111 57.0543 31.6626 52.8556C31.6147 52.4887 31.3042 52.2169 30.9294 52.2211C29.9828 52.2349 28.8659 50.6745 28.7562 49.1863C28.7107 48.5684 28.8569 48.0905 29.1907 47.7659C29.5071 47.4582 29.9989 47.2716 30.613 47.2264C30.6794 47.2215 30.7442 47.2214 30.811 47.226C31.012 47.24 31.211 47.1696 31.3587 47.0317C31.5065 46.8938 31.5904 46.7008 31.5904 46.4987V43.3833C31.5904 42.1143 32.6228 41.082 33.8917 41.082H41.6527C42.0553 41.082 42.3817 40.7557 42.3817 40.353C42.3817 39.9504 42.0553 39.624 41.6527 39.624H33.8917C32.0258 39.624 30.4738 40.9907 30.1822 42.7755V41.7647C30.1822 38.0332 33.218 34.0795 36.9495 34.0795H43.1146C46.8461 34.0795 49.882 38.0332 49.882 41.7647V42.4651C49.471 40.8347 47.9927 39.6241 46.2364 39.6241H45.2169C44.8143 39.6241 44.4879 39.9505 44.4879 40.3531C44.4879 40.7558 44.8143 41.0821 45.2169 41.0821H46.2365C47.5055 41.0821 48.5378 42.1144 48.5378 43.3834V46.4943C48.5378 46.6884 48.6153 46.8745 48.7529 47.0113C48.8895 47.1472 49.0742 47.2233 49.2668 47.2233H49.2711C49.3166 47.2232 49.3533 47.2241 49.3872 47.2267C50.0013 47.2719 50.4932 47.4584 50.8096 47.7662C51.1434 48.0908 51.2895 48.5687 51.2441 49.1866C51.1379 50.6274 50.0767 52.158 49.1413 52.2194C48.794 52.2423 48.5112 52.5075 48.4662 52.8528C47.9191 57.0529 44.3071 60.2204 40.0642 60.2204Z" fill="white"/>
<path d="M41.6952 53.0072C41.2488 53.3938 40.6469 53.6068 40.0001 53.6068C39.3533 53.6068 38.7514 53.3938 38.305 53.0072C38.0008 52.7435 37.5404 52.7766 37.2767 53.0809C37.013 53.3851 37.046 53.8456 37.3503 54.1092C38.0616 54.7255 39.0028 55.0648 40.0001 55.0648C40.9975 55.0648 41.9386 54.7254 42.6499 54.1092C42.9542 53.8456 42.9872 53.3851 42.7236 53.0809C42.46 52.7765 41.9994 52.7435 41.6952 53.0072Z" fill="white"/>
<path d="M45.924 47.7486C45.5399 47.6286 45.1309 47.8433 45.011 48.2277C44.9027 48.5756 44.5846 48.8092 44.2196 48.8092C43.8547 48.8092 43.5366 48.5755 43.4282 48.2277C43.3084 47.8434 42.8997 47.6289 42.5152 47.7486C42.1309 47.8685 41.9163 48.2772 42.0361 48.6616C42.3355 49.622 43.2129 50.2673 44.2195 50.2673C45.2262 50.2673 46.1036 49.622 46.4029 48.6616C46.523 48.2771 46.3085 47.8685 45.924 47.7486Z" fill="white"/>
<path d="M38.0915 48.6616C38.2113 48.2772 37.9969 47.8685 37.6124 47.7486C37.2282 47.6286 36.8193 47.8433 36.6994 48.2277C36.591 48.5756 36.273 48.8092 35.9081 48.8092C35.5433 48.8092 35.2251 48.5755 35.1167 48.2277C34.9969 47.8434 34.5881 47.6289 34.2037 47.7486C33.8194 47.8685 33.6048 48.2772 33.7246 48.6616C34.0239 49.622 34.9015 50.2673 35.908 50.2673C36.9148 50.2673 37.7922 49.622 38.0915 48.6616Z" fill="white"/>
<path d="M55.6244 24.8927H59.0419C59.2899 24.8927 59.5839 24.7549 59.5839 24.369C59.5839 23.9832 59.2899 23.8454 59.0419 23.8454H56.8371L59.3175 21.1261C59.4461 20.9883 59.5288 20.8229 59.5288 20.6759C59.5288 20.3268 59.3358 20.0879 58.9775 20.0879H55.7897C55.5417 20.0879 55.2478 20.2258 55.2478 20.6116C55.2478 20.9975 55.5417 21.1353 55.7897 21.1353H57.7282L55.2019 23.882C55.0824 24.0106 55.0273 24.176 55.0273 24.3689C55.0273 24.6354 55.2294 24.8927 55.6244 24.8927Z" fill="white"/>
<path d="M50.2446 20.7157H52.8019C52.9875 20.7157 53.2074 20.6126 53.2074 20.3239C53.2074 20.0352 52.9874 19.9321 52.8019 19.9321H51.152L53.0081 17.8974C53.1044 17.7942 53.1662 17.6705 53.1662 17.5605C53.1662 17.2993 53.0219 17.1206 52.7537 17.1206H50.3684C50.1827 17.1206 49.9628 17.2237 49.9628 17.5125C49.9628 17.8013 50.1828 17.9043 50.3684 17.9043H51.8188L49.9284 19.9597C49.8391 20.056 49.7979 20.1797 49.7979 20.324C49.7979 20.5232 49.9491 20.7157 50.2446 20.7157Z" fill="white"/>
</svg>
