<svg width="80" height="81" viewBox="0 0 80 81" fill="none" xmlns="http://www.w3.org/2000/svg">
<path fill-rule="evenodd" clip-rule="evenodd" d="M40 0.120605C62.09 0.120605 80 18.0306 80 40.1206C80 62.2106 62.09 80.1206 40 80.1206C17.91 80.1206 0 62.2106 0 40.1206C0 18.0306 17.91 0.120605 40 0.120605Z" fill="#8C52FF" fill-opacity="0.2"/>
<path d="M39.9995 74.6805C59.0864 74.6805 74.5594 59.2075 74.5594 40.1205C74.5594 21.0336 59.0864 5.56055 39.9995 5.56055C20.9125 5.56055 5.43945 21.0336 5.43945 40.1205C5.43945 59.2075 20.9125 74.6805 39.9995 74.6805Z" fill="#5271FF"/>
<path d="M36.6636 45.3519L36.4658 45.4309L37.0223 46.8235L37.22 46.7441C39.2378 45.9372 41.7478 45.9369 43.7656 46.7441L43.9633 46.8232L44.5198 45.4305L44.322 45.3518C41.9542 44.404 39.0314 44.4044 36.6636 45.3519Z" fill="white" fill-opacity="0.8"/>
<path d="M39.7422 34.1313H41.2417V42.3785H39.7422V34.1313Z" fill="white" fill-opacity="0.8"/>
<path d="M61.4852 19.136V32.8946C61.4852 33.1363 61.4464 33.3763 61.3702 33.6056L57.8046 44.3018L52.2415 53.0092C52.0691 53.2815 51.7902 53.4686 51.473 53.5247C50.8037 53.6291 50.1765 53.1712 50.0721 52.5019C50.032 52.2447 50.0747 51.9813 50.1943 51.7499C51.4984 49.382 53.8961 44.9864 53.8961 44.9864C53.9242 44.9352 53.9462 44.8809 53.9618 44.8246L54.5682 42.6014L56.9519 35.108L55.5227 34.6533L53.1337 42.1635L53.1391 42.1652C53.1358 42.1756 53.1278 42.1829 53.1249 42.1933C52.9337 42.8951 52.2099 43.309 51.5081 43.1179C51.4595 43.1047 51.4116 43.0885 51.3647 43.0698C50.7754 42.8339 50.4381 42.2115 50.5622 41.5891L51.7243 35.7778C51.7338 35.7292 51.7385 35.6799 51.7385 35.6304V33.4342C51.7299 30.2369 53.0007 27.169 55.2675 24.9143C55.4081 24.7737 55.4872 24.5831 55.4872 24.3842V19.136H53.9877V24.0785C53.4683 24.627 52.9954 25.2177 52.5739 25.8445C48.4331 19.1717 39.6671 17.119 32.9943 21.2597C31.1337 22.4144 29.5649 23.983 28.4101 25.8436C27.9887 25.2172 27.516 24.6268 26.9969 24.0785V19.136H25.4974V24.3842C25.4974 24.5831 25.5765 24.7737 25.7171 24.9143C27.9841 27.1691 29.2548 30.2372 29.2462 33.4346V35.6304C29.2463 35.6798 29.2512 35.7291 29.2608 35.7775L30.4229 41.5888C30.5473 42.2115 30.21 42.8344 29.6204 43.0704C28.9448 43.3405 28.1782 43.0118 27.9081 42.3362C27.8894 42.2896 27.8735 42.2419 27.8603 42.1935C27.8574 42.1829 27.8493 42.1756 27.846 42.1654L27.8514 42.1637L25.4623 34.6533L24.0331 35.108L26.4168 42.6014L27.0233 44.8246C27.0388 44.8809 27.0608 44.9352 27.0889 44.9864C27.0889 44.9864 29.4866 49.3818 30.7907 51.7499C31.0798 52.2741 30.9364 52.9192 30.4129 53.3123C30.1552 53.5052 29.829 53.5822 29.5123 53.525C29.195 53.469 28.916 53.2819 28.7438 53.0095L23.1807 44.3021L19.6151 33.6061C19.5385 33.3767 19.4994 33.1364 19.4995 32.8946V19.136H18V32.8946C17.9998 33.2975 18.0649 33.6979 18.1926 34.08L21.7875 44.8645C21.8069 44.9231 21.8334 44.9791 21.8666 45.0311L27.4794 53.8168C27.8783 54.4389 28.5176 54.8676 29.2447 55.0004C29.3985 55.0284 29.5547 55.0425 29.7111 55.0425C30.3036 55.0392 30.8788 54.8427 31.3497 54.4831C31.3795 54.4608 31.4024 54.4332 31.4311 54.4099C31.4851 54.4711 31.5349 54.5374 31.5899 54.5973C32.022 55.0714 32.4919 55.5096 32.9949 55.9078V58.7524C32.994 60.2418 32.7537 61.7215 32.2832 63.1347C32.1527 63.5277 32.3656 63.952 32.7586 64.0825C32.8348 64.1078 32.9146 64.1206 32.9949 64.1206H47.9898C48.4038 64.1207 48.7396 63.7851 48.7396 63.371C48.7396 63.2907 48.7268 63.2109 48.7015 63.1347C48.2309 61.7215 47.9906 60.2418 47.9898 58.7524V55.9083C48.4909 55.5118 48.9591 55.0753 49.3897 54.6031C49.4478 54.5397 49.4991 54.4719 49.5558 54.4071C49.5962 54.4408 49.6296 54.4792 49.6723 54.5113C50.8459 55.3918 52.5112 55.1543 53.3918 53.9806C53.4317 53.9275 53.4695 53.8729 53.5053 53.8168L59.1181 45.0311C59.1513 44.9791 59.1778 44.9231 59.1972 44.8645L62.7929 34.0796C62.9201 33.6975 62.9848 33.2974 62.9846 32.8946V19.136H61.4852ZM51.5278 27.6846C51.3336 27.4458 51.1312 27.2235 50.9273 27.005L51.2988 26.6334C51.4376 26.8565 51.5691 27.0853 51.6953 27.3186C51.6345 27.4384 51.5849 27.5631 51.5278 27.6846ZM50.4246 25.387L49.8534 25.9587C49.2936 25.4655 48.695 25.0182 48.0634 24.6209L48.8919 23.7926C49.4483 24.2783 49.9612 24.8118 50.4246 25.387ZM34.2915 23.8706L33.2907 22.87C34.0246 22.3629 34.8099 21.9347 35.6337 21.5926L36.3647 23.0537C35.6524 23.269 34.9591 23.5422 34.2915 23.8706ZM37.8621 22.6945L37.0696 21.1106C37.9425 20.8698 38.8386 20.7228 39.7426 20.672V22.4658C39.1112 22.4993 38.4829 22.5756 37.8619 22.6945H37.8621ZM41.2421 20.6615C42.1486 20.7128 43.0471 20.8605 43.9224 21.1019L43.1235 22.6951C42.5023 22.5764 41.8737 22.4997 41.2421 22.4659V20.6615ZM45.3518 21.5954C46.1773 21.934 46.9646 22.359 47.7005 22.8635L46.693 23.8707C46.0256 23.5423 45.3326 23.2689 44.6206 23.0534L45.3518 21.5954ZM32.1026 23.8023L32.9211 24.6207C32.2892 25.0174 31.6906 25.4648 31.1311 25.9585L30.5678 25.3952C30.852 25.0367 31.1555 24.6938 31.4768 24.3681C31.6777 24.1682 31.8915 23.9871 32.1026 23.8023ZM29.6847 26.6326L30.0575 27.0053C29.853 27.2248 29.65 27.4472 29.4569 27.6846C29.4001 27.5637 29.3507 27.4395 29.2902 27.3202C29.416 27.0874 29.5449 26.8567 29.6846 26.6328L29.6847 26.6326ZM46.987 62.6211H33.9977C34.327 61.3579 34.4939 60.0579 34.4944 58.7524V56.9544C34.8625 57.167 35.2416 57.3603 35.6299 57.5333C38.726 58.9091 42.26 58.9091 45.3561 57.5333C45.7439 57.3604 46.1224 57.1674 46.4901 56.9551V58.7528C46.4906 60.0581 46.6576 61.358 46.987 62.6211ZM48.2793 53.5961C47.2967 54.6919 46.0928 55.5667 44.7471 56.1627C42.0375 57.3601 38.9489 57.3601 36.2393 56.1627C34.8908 55.5654 33.6846 54.6882 32.7007 53.5895C32.5624 53.4388 32.4372 53.2808 32.3077 53.1255C32.5321 52.4276 32.4584 51.668 32.104 51.0263C31.0212 49.0593 29.1819 45.691 28.5925 44.6114C30.119 44.9092 31.5979 43.9133 31.8958 42.3867C31.9662 42.0259 31.9654 41.6548 31.8931 41.2943L31.3854 38.7546C32.0482 38.8194 32.7154 38.864 33.3853 38.864C34.5542 38.865 35.7209 38.7651 36.8727 38.5656L36.6149 37.0888C34.7845 37.3997 32.9185 37.4407 31.0762 37.2106L30.7456 35.5561V34.2627C32.4382 33.359 34.4826 33.1399 36.5591 33.6654L36.9281 32.212C34.7488 31.6591 32.586 31.8147 30.7071 32.6197C30.6431 31.5009 30.4403 30.3944 30.1034 29.3257C30.4775 28.789 30.893 28.2822 31.346 27.8103C31.3863 27.7652 31.4317 27.7202 31.4778 27.6733C31.5167 27.6349 31.554 27.596 31.6294 27.5298C32.4809 26.7001 33.447 25.9966 34.498 25.4409C35.4808 24.9106 36.5318 24.5179 37.6215 24.2738C39.5129 23.8318 41.4809 23.8325 43.372 24.2757C44.4602 24.5203 45.5097 24.9133 46.491 25.4435C47.5453 26.0018 48.5139 26.7083 49.3674 27.5417C49.4677 27.6354 49.56 27.7281 49.6639 27.8389C50.1079 28.3019 50.5148 28.799 50.881 29.3256C50.5439 30.3944 50.3411 31.501 50.2772 32.6199C48.3987 31.8152 46.2368 31.6601 44.0562 32.2122L44.4253 33.6656C46.5018 33.1394 48.5467 33.3585 50.2387 34.2627V35.5561L49.8937 37.2815C48.3005 37.4204 46.6962 37.3555 45.1194 37.0885L44.8616 38.566C45.9999 38.7621 47.1529 38.8602 48.3079 38.8592C48.7357 38.8592 49.1623 38.8427 49.5869 38.8161L49.0914 41.2945C48.7864 42.8199 49.7757 44.3038 51.3011 44.6088C51.6611 44.6808 52.0317 44.6817 52.3921 44.6116C51.8027 45.6912 49.9641 49.0595 48.8806 51.0265C48.5265 51.6668 48.454 52.4255 48.6807 53.1213C48.5492 53.2796 48.4225 53.4393 48.279 53.5961H48.2793Z" fill="white" fill-opacity="0.8"/>
<path d="M16.0607 63.5572C15.4749 62.9715 15.4749 62.0217 16.0607 61.4359L61.3155 16.1811C61.9013 15.5953 62.851 15.5953 63.4368 16.1811C64.0226 16.7669 64.0226 17.7166 63.4368 18.3024L18.182 63.5572C17.5962 64.143 16.6464 64.143 16.0607 63.5572Z" fill="white"/>
</svg>
