<svg width="80" height="81" viewBox="0 0 80 81" fill="none" xmlns="http://www.w3.org/2000/svg">
<path fill-rule="evenodd" clip-rule="evenodd" d="M40 0.120605C62.09 0.120605 80 18.0306 80 40.1206C80 62.2106 62.09 80.1206 40 80.1206C17.91 80.1206 0 62.2106 0 40.1206C0 18.0306 17.91 0.120605 40 0.120605Z" fill="#8C52FF" fill-opacity="0.2"/>
<path d="M40.0004 74.6805C59.0874 74.6805 74.5604 59.2075 74.5604 40.1205C74.5604 21.0336 59.0874 5.56055 40.0004 5.56055C20.9135 5.56055 5.44043 21.0336 5.44043 40.1205C5.44043 59.2075 20.9135 74.6805 40.0004 74.6805Z" fill="#CB6CE6"/>
<path d="M46.15 26.4508H39.26C38.82 26.4508 38.46 26.8208 38.46 27.2608C38.46 27.7108 38.82 28.0708 39.26 28.0708H46.15C49.71 28.0708 52.6 30.9608 52.6 34.5208V57.9108C52.6 59.2408 51.52 60.3208 50.18 60.3208H29.82C28.49 60.3208 27.4 59.2408 27.4 57.9108V34.5208C27.4 30.9608 30.29 28.0708 33.85 28.0708H34.76C35.2 28.0708 35.57 27.7108 35.57 27.2608C35.57 26.8208 35.2 26.4508 34.76 26.4508V23.0308C34.76 22.5808 35.12 22.2208 35.57 22.2208H44.44C44.88 22.2208 45.24 22.5808 45.24 23.0308V24.1408C45.24 24.5808 45.6 24.9408 46.05 24.9408C46.49 24.9408 46.86 24.5808 46.86 24.1408V23.0308C46.86 21.6908 45.77 20.6108 44.44 20.6108H43.93V15.9708C43.93 14.6408 42.85 13.5508 41.51 13.5508H38.49C37.16 13.5508 36.07 14.6408 36.07 15.9708V20.6108H35.57C34.23 20.6108 33.15 21.6908 33.15 23.0308V26.4908C29.03 26.8508 25.79 30.3108 25.79 34.5208V57.9108C25.79 60.1308 27.6 61.9408 29.82 61.9408H50.18C52.4 61.9408 54.21 60.1308 54.21 57.9108V34.5208C54.21 30.0708 50.6 26.4508 46.15 26.4508ZM37.68 15.9708C37.68 15.5308 38.04 15.1608 38.49 15.1608H41.51C41.96 15.1608 42.32 15.5308 42.32 15.9708V20.6108H37.68V15.9708ZM56.23 15.3708C56.23 15.8108 55.87 16.1708 55.42 16.1708H55.19C54.74 16.1708 54.38 15.8108 54.38 15.3708C54.38 14.9208 54.74 14.5608 55.19 14.5608H55.42C55.87 14.5608 56.23 14.9208 56.23 15.3708ZM48.47 15.3708C48.47 14.9208 48.83 14.5608 49.27 14.5608H52.5C52.95 14.5608 53.31 14.9208 53.31 15.3708C53.31 15.8108 52.95 16.1708 52.5 16.1708H49.27C48.83 16.1708 48.47 15.8108 48.47 15.3708ZM55.48 20.9608C55.37 21.3008 55.06 21.5208 54.72 21.5208C54.53 21.5208 54.92 21.6308 49.02 19.6608C48.6 19.5208 48.37 19.0608 48.51 18.6408C48.65 18.2208 49.11 17.9908 49.53 18.1308L54.97 19.9408C55.4 20.0908 55.62 20.5408 55.48 20.9608ZM40 37.2408C36.17 37.2408 33.05 40.3608 33.05 44.2008C33.05 48.0308 36.17 51.1508 40 51.1508C42.39 51.1508 44.59 49.9508 45.87 47.9308C46.11 47.5508 46.61 47.4408 46.98 47.6808C47.36 47.9208 47.47 48.4208 47.23 48.8008C45.65 51.2808 42.94 52.7608 40 52.7608C35.28 52.7608 31.43 48.9208 31.43 44.2008C31.43 39.4708 35.28 35.6308 40 35.6308C44.72 35.6308 48.57 39.4708 48.57 44.2008C48.57 44.6408 48.21 45.0008 47.76 45.0008C47.32 45.0008 46.96 44.6408 46.96 44.2008C46.96 40.3608 43.84 37.2408 40 37.2408ZM39.19 46.7208V45.0008H37.48C37.04 45.0008 36.67 44.6408 36.67 44.2008C36.67 43.7508 37.04 43.3908 37.48 43.3908H39.19V41.6808C39.19 41.2308 39.56 40.8708 40 40.8708C40.45 40.8708 40.81 41.2308 40.81 41.6808V43.3908H42.52C42.97 43.3908 43.33 43.7508 43.33 44.2008C43.33 44.6408 42.97 45.0008 42.52 45.0008H40.81V46.7208C40.81 47.1608 40.45 47.5208 40 47.5208C39.56 47.5208 39.19 47.1608 39.19 46.7208Z" fill="white"/>
</svg>
