<svg width="80" height="81" viewBox="0 0 80 81" fill="none" xmlns="http://www.w3.org/2000/svg">
<path fill-rule="evenodd" clip-rule="evenodd" d="M40 0.120605C62.09 0.120605 80 18.0306 80 40.1206C80 62.2106 62.09 80.1206 40 80.1206C17.91 80.1206 0 62.2106 0 40.1206C0 18.0306 17.91 0.120605 40 0.120605Z" fill="#8C52FF" fill-opacity="0.2"/>
<path d="M40.0004 74.6805C59.0874 74.6805 74.5604 59.2075 74.5604 40.1205C74.5604 21.0336 59.0874 5.56055 40.0004 5.56055C20.9135 5.56055 5.44043 21.0336 5.44043 40.1205C5.44043 59.2075 20.9135 74.6805 40.0004 74.6805Z" fill="#5271FF"/>
<path d="M22.0406 59.9867C22.078 59.8638 22.1401 59.7496 22.2231 59.6514C22.3062 59.5532 22.4085 59.4729 22.5237 59.4154L25.9234 57.7198L26.4751 55.5184C26.8753 53.9311 27.6277 52.4537 28.677 51.1953C29.7262 49.9369 31.0454 48.9297 32.5372 48.248L32.5559 48.1543C33.1034 45.4243 34.0002 42.7757 35.2242 40.2736C35.0072 38.8204 35.2722 37.3364 35.9788 36.0473C36.6855 34.7583 37.795 33.7349 39.1386 33.1329L39.4688 30.8272L35.5406 26.9089C35.4433 26.8118 35.3684 26.6948 35.3211 26.5659C35.2737 26.4371 35.255 26.2995 35.2664 26.1627C35.2777 26.0259 35.3188 25.8932 35.3868 25.7739C35.4547 25.6546 35.5479 25.5514 35.6599 25.4716L41.138 21.5685C41.3474 21.0145 41.7162 20.5345 42.1981 20.1887L42.5604 18.7432C42.5565 18.7459 42.5528 18.7488 42.5488 18.7514L42.24 18.9568C41.6309 19.3627 40.9476 19.645 40.2292 19.7876L36.3963 20.5523C36.1969 20.592 35.99 20.5667 35.8061 20.4802C35.6223 20.3936 35.4712 20.2503 35.3753 20.0715C35.2793 19.8926 35.2436 19.6878 35.2734 19.4871C35.3032 19.2865 35.3969 19.1008 35.5406 18.9573L36.5503 17.9503C37.614 16.8912 38.3385 15.5409 38.6319 14.0705C38.7318 13.5704 38.955 13.103 39.2812 12.7104C39.6074 12.3178 40.0264 12.0123 40.5005 11.8215C40.9746 11.6308 41.4888 11.5607 41.9969 11.6176C42.5049 11.6745 42.9907 11.8566 43.4105 12.1475C44.1134 11.487 45.0429 11.1196 46.0085 11.1206H46.6316C47.6078 11.1218 48.546 11.4982 49.2511 12.1717C49.9563 12.8452 50.374 13.7639 50.4175 14.7367L51.3198 17.4367C51.3673 17.5788 51.3802 17.73 51.3576 17.8781C51.3349 18.0261 51.2774 18.1666 51.1896 18.2881C51.1018 18.4096 50.9864 18.5085 50.8528 18.5768C50.7191 18.645 50.5712 18.6806 50.421 18.6806H50.0592L49.3736 20.0483C49.295 20.2052 49.174 20.3372 49.0244 20.4295C48.8747 20.5217 48.7022 20.5706 48.5263 20.5706H47.5266C47.8737 20.8481 48.1759 21.1773 48.4225 21.5466L49.7179 23.485C50.0781 24.0252 50.2931 24.6487 50.3423 25.2956H51.3684C51.3684 25.0849 51.439 24.8802 51.5691 24.7141C51.6991 24.548 51.881 24.43 52.086 24.3789L55.8755 23.4339C55.9962 23.4038 56.1216 23.3977 56.2447 23.4159C56.3677 23.4342 56.486 23.4764 56.5927 23.5403C56.6994 23.6041 56.7924 23.6883 56.8665 23.788C56.9405 23.8877 56.9942 24.001 57.0244 24.1214L57.9717 27.9014C58.0296 28.1324 57.9979 28.3766 57.8831 28.5854C57.7682 28.7941 57.5786 28.9518 57.3522 29.0272L54.5101 29.9722C54.4135 30.0042 54.3123 30.0206 54.2105 30.0206H53.3959L47.0453 31.8305L46.6316 33.8943V36.193L47.7312 37.1071C50.623 39.5089 53.0881 42.3799 55.0229 45.5994C55.1134 45.7499 55.1601 45.9225 55.1578 46.098C55.1555 46.2735 55.1042 46.4449 55.0098 46.593L48.7095 56.4687L50.9816 59.8683C51.4302 60.5414 51.693 61.3206 51.7434 62.1274C51.7937 62.9341 51.6299 63.7398 51.2684 64.4633C51.2112 64.5774 51.1314 64.6787 51.0339 64.7612C50.9364 64.8437 50.8232 64.9057 50.701 64.9434C50.5788 64.9811 50.4503 64.9937 50.3231 64.9805C50.1959 64.9674 50.0727 64.9286 49.961 64.8667L41.4346 60.1417C41.3064 60.0706 41.1965 59.9709 41.1136 59.8503C41.0306 59.7297 40.9768 59.5915 40.9565 59.4466C40.9362 59.3018 40.9498 59.1542 40.9964 59.0155C41.0429 58.8768 41.1212 58.7508 41.2249 58.6473L44.791 55.0901L45.6937 48.7869C45.7227 48.5845 45.8168 48.3969 45.9617 48.2523L47.8744 46.3445L42.5802 43.704L37.992 52.2037C37.9395 52.301 37.8702 52.3885 37.7873 52.4619L29.6671 59.6618L30.4189 63.4111C31.0295 63.7609 31.5363 64.2657 31.888 64.8742C32.2396 65.4827 32.4236 66.1732 32.421 66.8756C32.421 67.1262 32.3212 67.3666 32.1436 67.5438C31.9659 67.721 31.7249 67.8206 31.4737 67.8206H26.7368C26.5698 67.8206 26.4058 67.7766 26.2613 67.6929C26.1169 67.6093 25.9971 67.4891 25.9143 67.3444L22.1248 60.7294C22.0609 60.6178 22.0205 60.4944 22.006 60.3667C21.9915 60.239 22.0033 60.1097 22.0406 59.9867ZM44.9075 32.8556L45.097 31.9106H43.7895C43.5782 31.9106 43.373 31.8402 43.2064 31.7105C43.0399 31.5808 42.9216 31.3993 42.8704 31.1948L41.8902 27.2841L41.0923 32.8556L44.9075 32.8556ZM39.8038 28.4884L40.3854 24.4273L37.6712 26.3612L39.8038 28.4884ZM41.0194 13.6723C40.8831 13.7576 40.7659 13.8698 40.6748 14.002C40.5837 14.1343 40.5208 14.2837 40.4899 14.4411C40.2243 15.7717 39.6748 17.0297 38.8785 18.1296L39.8576 17.9343C40.3333 17.8399 40.7858 17.653 41.189 17.3841L41.4979 17.1788C41.8027 16.9755 42.068 16.7187 42.281 16.421C42.1149 15.615 42.1324 14.7821 42.3322 13.9838C42.3518 13.9053 42.3746 13.8283 42.3989 13.7521C42.2064 13.5962 41.9696 13.5046 41.722 13.4903C41.4745 13.476 41.2287 13.5396 41.0194 13.6723V13.6723ZM46.0085 13.0106C45.5859 13.0101 45.1752 13.1508 44.842 13.4103C44.5089 13.6698 44.2724 14.033 44.1703 14.4422C44.0205 15.0417 44.0276 15.6695 44.191 16.2655C45.2972 15.3635 46.2321 14.271 46.9515 13.0397C46.8459 13.021 46.7389 13.0112 46.6316 13.0106H46.0085ZM45.7026 19.4403C45.7455 19.2261 45.8616 19.0333 46.0309 18.8948C46.2003 18.7563 46.4126 18.6806 46.6316 18.6806H47.9408L48.6263 17.3129C48.7312 17.1038 48.91 16.9408 49.1284 16.8556L48.5749 15.1995C48.5427 15.1031 48.5263 15.0022 48.5263 14.9006C48.5259 14.6872 48.489 14.4754 48.4171 14.2744C47.4382 15.8615 46.1472 17.2344 44.6219 18.3104L44.287 19.6468C44.3067 19.6491 44.3262 19.6522 44.3459 19.6548C44.7804 19.6031 45.2203 19.6201 45.6495 19.7051L45.7026 19.4403ZM48.1414 24.5333L47.0285 22.8681L47.4341 25.2956H48.4377C48.3961 25.0229 48.295 24.7627 48.1414 24.5333ZM53.2632 28.1306H54.0568L55.9207 27.5108L55.416 25.4966L53.2632 26.0334V26.2406C53.2631 26.4912 53.1633 26.7316 52.9857 26.9088C52.808 27.086 52.567 27.1856 52.3158 27.1856H47.024L46.3541 27.8539L45.0143 26.5173L45.617 25.9162L45.0354 22.436C44.9899 22.1634 44.8433 21.9178 44.6246 21.748C44.406 21.5782 44.1314 21.4966 43.8552 21.5194C43.5791 21.5421 43.3216 21.6677 43.134 21.871C42.9463 22.0743 42.8421 22.3406 42.8421 22.617V23.1537C42.8421 23.2437 42.8532 23.3335 42.8751 23.4208L44.5291 30.0206H46.4989L53.0029 28.1669C53.0875 28.1428 53.1751 28.1306 53.2632 28.1306ZM49.8484 62.6423C49.9006 62.0336 49.7443 61.4253 49.4051 60.9166L46.9303 57.2136L45.8713 56.6854L43.4527 59.0979L49.8484 62.6423ZM42.9553 39.0226L44.6236 39.9186L43.4789 42.0392L49.8973 45.2404C50.0316 45.3074 50.148 45.4052 50.2369 45.5258C50.3258 45.6465 50.3847 45.7865 50.4088 45.9343C50.4328 46.0821 50.4213 46.2335 50.3752 46.376C50.3291 46.5185 50.2497 46.648 50.1435 46.7539L47.5248 49.3661L46.7186 54.9949L47.2384 55.2542L53.0937 46.076C51.3161 43.2378 49.0965 40.7003 46.5182 38.5589L45.0777 37.3615C44.971 37.2729 44.8852 37.1619 44.8263 37.0364C44.7674 36.911 44.7368 36.7741 44.7368 36.6356V34.7456H40.1825L40.1001 34.7785C39.046 35.1992 38.1727 35.9747 37.6319 36.9705C37.0911 37.9664 36.9169 39.1196 37.1395 40.2302C37.1808 40.4363 37.1521 40.6503 37.0579 40.8383C35.8381 43.2719 34.9489 45.8569 34.4138 48.5249L34.2974 49.1059C34.2665 49.26 34.1975 49.404 34.0968 49.5249C33.996 49.6458 33.8666 49.7396 33.7203 49.798C32.3941 50.3292 31.2128 51.166 30.2731 52.2399C29.3333 53.3138 28.6618 54.5944 28.3133 55.9768L27.8402 57.8644L28.4816 58.1842L36.4032 51.1604L42.9553 39.0226ZM27.2866 65.9306H30.3048C30.0998 65.5209 29.7664 65.1892 29.3552 64.9856L29.1552 64.8858C29.0262 64.8214 28.9136 64.7285 28.826 64.6142C28.7385 64.4998 28.6783 64.3671 28.65 64.226L27.7934 59.9541L26.7368 59.4271L24.2668 60.659L27.2866 65.9306Z" fill="white" fill-opacity="0.7"/>
<path d="M17.0607 64.5572C16.4749 63.9715 16.4749 63.0217 17.0607 62.4359L62.3155 17.1811C62.9013 16.5953 63.851 16.5953 64.4368 17.1811C65.0226 17.7669 65.0226 18.7166 64.4368 19.3024L19.182 64.5572C18.5962 65.143 17.6464 65.143 17.0607 64.5572Z" fill="white"/>
</svg>
