<svg width="17" height="17" viewBox="0 0 17 17" fill="none" xmlns="http://www.w3.org/2000/svg">
<path d="M8.36065 0.0585938C3.84529 0.0585938 0.171875 3.732 0.171875 8.24737C0.171875 12.7628 3.84529 16.4361 8.36065 16.4361C12.876 16.4361 16.5494 12.7627 16.5494 8.24737C16.5494 3.732 12.876 0.0585938 8.36065 0.0585938ZM8.36065 14.6462C4.83221 14.6462 1.96177 11.7758 1.96177 8.24737C1.96177 4.71911 4.83221 1.84849 8.36065 1.84849C11.8891 1.84849 14.7595 4.71911 14.7595 8.24737C14.7595 11.7758 11.8891 14.6462 8.36065 14.6462Z" fill="#B3B3B3"/>
<path d="M9.06947 8.25644V4.82435C9.06947 4.44113 8.75893 4.13059 8.37586 4.13059C7.99267 4.13059 7.6821 4.44113 7.6821 4.82435V8.47808C7.6821 8.48898 7.68479 8.49922 7.68532 8.51013C7.67619 8.69877 7.74118 8.89031 7.88525 9.0344L10.469 11.6179C10.74 11.8889 11.1792 11.8889 11.45 11.6179C11.7208 11.3469 11.721 10.9077 11.45 10.6369L9.06947 8.25644Z" fill="#B3B3B3"/>
</svg>
