<svg width="32" height="32" viewBox="0 0 32 32" fill="none" xmlns="http://www.w3.org/2000/svg">
<path d="M21.1024 18.4085L16.7638 15.1545V8.52616C16.7638 7.85969 16.2251 7.32097 15.5586 7.32097C14.8921 7.32097 14.3534 7.85969 14.3534 8.52616V15.7572C14.3534 16.1368 14.5318 16.4948 14.8355 16.7213L19.6561 20.3368C19.873 20.4995 20.1262 20.5779 20.378 20.5779C20.7456 20.5779 21.1072 20.4127 21.3434 20.0946C21.7436 19.563 21.6351 18.8074 21.1024 18.4085Z" fill="#8C52FF"/>
<path d="M15.5587 0.102051C6.9791 0.102051 0 7.08115 0 15.6607C0 24.2403 6.9791 31.2194 15.5587 31.2194C24.1383 31.2194 31.1173 24.2403 31.1173 15.6607C31.1173 7.08115 24.1383 0.102051 15.5587 0.102051ZM15.5587 28.8091C8.30961 28.8091 2.41032 22.9098 2.41032 15.6607C2.41032 8.41166 8.30961 2.51237 15.5587 2.51237C22.809 2.51237 28.707 8.41166 28.707 15.6607C28.707 22.9098 22.8077 28.8091 15.5587 28.8091Z" fill="#8C52FF"/>
</svg>
