<svg width="16" height="16" viewBox="0 0 16 16" fill="none" xmlns="http://www.w3.org/2000/svg">
<path fill-rule="evenodd" clip-rule="evenodd" d="M4.46512 0H11.5349C13.9907 0 16 2.0093 16 4.46512V11.5349C16 13.9907 13.9907 16 11.5349 16H8.78139H8.93023C8.93023 16 8.93023 11.014 8.93023 10.5674C8.93023 10.4186 9.00465 10.3442 9.15349 10.3442H10.6419H10.8651H11.014C11.1628 10.3442 11.2372 10.1953 11.2372 10.0465V9.67442V8.55814V8.4093C11.2372 8.26046 11.1628 8.18605 11.014 8.18605H10.6419H9.15349C9.00465 8.18605 8.93023 8.03721 8.93023 7.88837V6.62326C8.93023 5.80465 9.30233 5.50698 10.1209 5.50698H10.7163H11.0884C11.2372 5.50698 11.3116 5.35814 11.3116 5.2093V5.13488V4.83721V4.09302V3.86977V3.72093C11.3116 3.57209 11.2372 3.49767 11.0884 3.49767H10.7163H9.6C7.73953 3.49767 6.62326 4.68837 6.62326 6.4V7.88837C6.62326 8.03721 6.47442 8.18605 6.32558 8.18605H5.2093H4.98605H4.83721C4.68837 8.18605 4.53954 8.26046 4.53954 8.4093V8.55814V9.89767V10.0465C4.53954 10.1953 4.68837 10.3442 4.83721 10.3442H4.98605H6.32558C6.47442 10.3442 6.62326 10.4186 6.62326 10.5674C6.62326 11.014 6.62326 16 6.62326 16H6.84651H4.46512C2.0093 16 0 13.9907 0 11.5349V4.46512C0 2.0093 2.0093 0 4.46512 0V0Z" fill="#FFC0BF"/>
</svg>
