<svg width="16" height="16" viewBox="0 0 16 16" fill="none" xmlns="http://www.w3.org/2000/svg">
<path fill-rule="evenodd" clip-rule="evenodd" d="M4.48408 0H11.5159C13.9618 0 16 2.03822 16 4.48408V11.5159C16 13.9618 13.9618 16 11.5159 16H4.48408C2.03822 16 0 13.9618 0 11.5159V4.48408C0 2.03822 2.03822 0 4.48408 0V0ZM4.89172 1.93631C3.26115 1.93631 1.93631 3.26115 1.93631 4.89172V11.1083C1.93631 12.7389 3.26115 13.9618 4.89172 13.9618H11.1083C12.7389 13.9618 13.9618 12.7389 13.9618 11.1083V4.89172C13.9618 3.26115 12.7389 1.93631 11.1083 1.93631H4.89172ZM10.5987 4.58599C10.5987 4.07643 11.0064 3.7707 11.414 3.7707C11.8217 3.7707 12.2293 4.07643 12.2293 4.58599C12.2293 4.99363 11.8217 5.29936 11.414 5.29936C11.0064 5.29936 10.5987 4.99363 10.5987 4.58599ZM5.09554 7.94904C5.09554 6.42038 6.42038 5.09554 7.94904 5.09554C9.57962 5.09554 10.8025 6.42038 10.8025 7.94904C10.8025 9.57962 9.57962 10.8025 7.94904 10.8025C6.42038 10.8025 5.09554 9.57962 5.09554 7.94904Z" fill="#FFC0BF"/>
</svg>
