<svg width="30" height="30" viewBox="0 0 30 30" fill="none" xmlns="http://www.w3.org/2000/svg">
<path fill-rule="evenodd" clip-rule="evenodd" d="M30 23.4288V6.57119C30 2.94237 27.078 0 23.4729 0H6.52712C2.92203 0 0 2.94237 0 6.57119V23.4288C0 27.0576 2.92203 30 6.52712 30H23.4729C27.078 30 30 27.0576 30 23.4288Z" fill="url(#paint0_radial_418_12)"/>
<path d="M19.5152 26.2982H10.3948C6.90502 26.2982 4.05078 23.4372 4.05078 19.9406V10.2016C4.05078 6.70501 6.90502 3.84399 10.3948 3.84399H19.5152C23.005 3.84399 25.861 6.70501 25.861 10.2016V19.9406C25.861 23.4372 23.005 26.2982 19.5152 26.2982V26.2982ZM19.5152 24.6186C20.7559 24.6186 21.9254 24.1287 22.8101 23.2423C23.6965 22.3559 24.183 21.183 24.183 19.9406V10.2016C24.183 8.95925 23.6965 7.78637 22.8101 6.89993C21.9254 6.01179 20.7559 5.52366 19.5152 5.52366H10.3948C9.15587 5.52366 7.98468 6.01179 7.09993 6.89993C6.21349 7.78637 5.72705 8.95925 5.72705 10.2016V19.9406C5.72705 21.183 6.21349 22.3559 7.09993 23.2423C7.98468 24.1287 9.15587 24.6186 10.3948 24.6186H19.5152V24.6186Z" fill="#FEFEFE"/>
<path d="M20.9943 14.9847C20.9943 18.3084 18.3045 21.0017 14.9892 21.0017C11.6706 21.0017 8.98242 18.3084 8.98242 14.9847C8.98242 11.661 11.6706 8.96606 14.9892 8.96606C18.3045 8.96606 20.9943 11.661 20.9943 14.9847ZM14.9587 11.0474C12.7875 11.0474 11.0265 12.8118 11.0265 14.9898C11.0265 17.1661 12.7875 18.9305 14.9587 18.9305C17.1316 18.9305 18.8926 17.1661 18.8926 14.9898C18.8926 12.8118 17.1316 11.0474 14.9587 11.0474V11.0474Z" fill="#FEFEFE"/>
<path d="M22.514 8.87293C22.514 9.65937 21.8767 10.2967 21.092 10.2967C20.3055 10.2967 19.6699 9.65937 19.6699 8.87293C19.6699 8.0848 20.3055 7.44751 21.092 7.44751C21.8767 7.44751 22.514 8.0848 22.514 8.87293V8.87293Z" fill="#FEFEFE"/>
<defs>
<radialGradient id="paint0_radial_418_12" cx="0" cy="0" r="1" gradientUnits="userSpaceOnUse" gradientTransform="translate(9.30819 30.8411) rotate(-77.7963) scale(38.7998)">
<stop stop-color="#ECCE73"/>
<stop offset="0.219608" stop-color="#EF832F"/>
<stop offset="0.411765" stop-color="#F33355"/>
<stop offset="0.568627" stop-color="#ED3188"/>
<stop offset="0.74902" stop-color="#9939DF"/>
<stop offset="1" stop-color="#2A4FF2"/>
</radialGradient>
</defs>
</svg>
