<svg width="12" height="15" viewBox="0 0 12 15" fill="none" xmlns="http://www.w3.org/2000/svg">
<path d="M10.2427 1.75729C9.10983 0.624407 7.60271 0 6 0C4.39729 0 2.89017 0.624407 1.75729 1.75729C0.624407 2.89017 0 4.39729 0 6C0 7.40136 0.494237 8.76407 1.38915 9.84C1.61898 10.1125 1.87322 10.3688 2.14576 10.5966L5.70305 14.1559C5.78644 14.2373 5.8922 14.278 6 14.278C6.1078 14.278 6.21356 14.2373 6.29695 14.1559L9.85424 10.5966C10.1268 10.3688 10.381 10.1125 10.6088 9.84C11.5058 8.76407 12 7.40136 12 6C12 4.39729 11.3756 2.89017 10.2427 1.75729ZM6 9.73831C4.01288 9.73831 2.40407 8.12746 2.40407 6.14034C2.40407 4.15525 4.01288 2.54441 6 2.54441C7.98712 2.54441 9.59593 4.15525 9.59593 6.14034C9.59593 8.12746 7.98712 9.73831 6 9.73831Z" fill="#CFCFD0"/>
</svg>
