<svg width="17" height="21" viewBox="0 0 17 21" fill="none" xmlns="http://www.w3.org/2000/svg">
<path d="M14.1511 3.00186C12.6049 1.4557 10.548 0.603516 8.36065 0.603516C6.17328 0.603516 4.11637 1.4557 2.57021 3.00186C1.02406 4.54801 0.171875 6.60492 0.171875 8.79229C0.171875 10.7049 0.846408 12.5647 2.06778 14.0331C2.38146 14.4051 2.72844 14.7548 3.1004 15.0657L7.95538 19.9235C8.06919 20.0345 8.21353 20.09 8.36065 20.09C8.50777 20.09 8.65212 20.0345 8.76593 19.9235L13.6209 15.0657C13.9929 14.7548 14.3398 14.4051 14.6507 14.0331C15.8749 12.5647 16.5494 10.7049 16.5494 8.79229C16.5494 6.60492 15.6972 4.54801 14.1511 3.00186ZM8.36065 13.8943C5.64864 13.8943 3.45294 11.6958 3.45294 8.98383C3.45294 6.27459 5.64864 4.07611 8.36065 4.07611C11.0727 4.07611 13.2684 6.27459 13.2684 8.98383C13.2684 11.6958 11.0727 13.8943 8.36065 13.8943Z" fill="#B3B3B3"/>
</svg>
