<svg width="17" height="18" viewBox="0 0 17 18" fill="none" xmlns="http://www.w3.org/2000/svg">
<path d="M15.2353 11.4726C14.2326 11.4726 13.248 11.3158 12.3151 11.0075C11.8579 10.8515 11.2959 10.9946 11.0169 11.2812L9.17541 12.6713C7.03981 11.5313 5.72432 10.2162 4.5999 8.09667L5.94913 6.30316C6.29966 5.95309 6.4254 5.44172 6.27476 4.96191C5.96512 4.02405 5.80783 3.03999 5.80783 2.03687C5.80787 1.3122 5.21832 0.722656 4.4937 0.722656H1.48604C0.761423 0.722656 0.171875 1.3122 0.171875 2.03682C0.171875 10.3429 6.92922 17.1002 15.2353 17.1002C15.9599 17.1002 16.5494 16.5106 16.5494 15.786V12.7867C16.5494 12.0622 15.9598 11.4726 15.2353 11.4726Z" fill="#B3B3B3"/>
</svg>
