<svg width="240" height="240" viewBox="0 0 240 240" fill="none" xmlns="http://www.w3.org/2000/svg">
<path fill-rule="evenodd" clip-rule="evenodd" d="M120 0C186.27 0 240 53.73 240 120C240 186.27 186.27 240 120 240C53.73 240 0 186.27 0 120C0 53.73 53.73 0 120 0Z" fill="#8C52FF" fill-opacity="0.2"/>
<path fill-rule="evenodd" clip-rule="evenodd" d="M120 36.5C166.12 36.5 203.5 73.88 203.5 120C203.5 166.11 166.12 203.5 120 203.5C73.88 203.5 36.5 166.11 36.5 120C36.5 73.88 73.88 36.5 120 36.5Z" fill="#8C52FF" fill-opacity="0.2"/>
<path fill-rule="evenodd" clip-rule="evenodd" d="M120.001 63.72C151.081 63.72 176.281 88.92 176.281 120C176.281 151.08 151.081 176.28 120.001 176.28C88.9207 176.28 63.7207 151.08 63.7207 120C63.7207 88.92 88.9207 63.72 120.001 63.72Z" fill="#8C52FF"/>
<path fill-rule="evenodd" clip-rule="evenodd" d="M149.33 120L103.17 147.17V92.83L149.33 120Z" fill="white"/>
</svg>
