<svg width="27" height="30" viewBox="0 0 27 30" fill="none" xmlns="http://www.w3.org/2000/svg">
<path d="M24.8823 2.55056H17.2262C16.8741 2.55056 16.5882 2.8364 16.5882 3.18858C16.5882 3.54076 16.8741 3.82661 17.2262 3.82661H24.8823C25.2345 3.82661 25.5203 3.54076 25.5203 3.18858C25.5203 2.8364 25.2345 2.55056 24.8823 2.55056Z" fill="#DDDDDD"/>
<path d="M25.3345 2.73866L22.7824 0.186617C22.5336 -0.0622056 22.1291 -0.0622056 21.8802 0.186617C21.6314 0.435439 21.6314 0.839955 21.8802 1.08878L23.9806 3.18911L21.879 5.2907C21.6302 5.53953 21.6302 5.94404 21.879 6.19286C22.0041 6.31662 22.1673 6.37918 22.3307 6.37918C22.494 6.37918 22.6573 6.31668 22.7824 6.19286L25.3345 3.64082C25.5833 3.39194 25.5833 2.98748 25.3345 2.73866Z" fill="#DDDDDD"/>
<path d="M8.29562 2.55056H0.639553C0.287373 2.55056 0.00152649 2.8364 0.00152649 3.18858C0.00152649 3.54076 0.287373 3.82661 0.639553 3.82661H8.29562C8.6478 3.82661 8.93365 3.54076 8.93365 3.18858C8.93365 2.8364 8.6478 2.55056 8.29562 2.55056Z" fill="#DDDDDD"/>
<path d="M1.54043 3.18911L3.64076 1.08878C3.88958 0.839954 3.88958 0.435439 3.64076 0.186617C3.39194 -0.0622055 2.98742 -0.0622055 2.7386 0.186617L0.186617 2.73872C-0.0622056 2.98754 -0.0622056 3.39206 0.186617 3.64088L2.73866 6.19292C2.86373 6.31668 3.02702 6.37924 3.19037 6.37924C3.35372 6.37924 3.51701 6.31673 3.64082 6.19167C3.88964 5.94284 3.88964 5.53833 3.64082 5.28951L1.54043 3.18911Z" fill="#DDDDDD"/>
<path d="M24.2445 12.7596C23.7201 12.7596 23.2313 12.9192 22.8256 13.191C22.4759 12.1982 21.5278 11.4836 20.4165 11.4836C19.892 11.4836 19.4033 11.6432 18.9975 11.915C18.6479 10.9222 17.6998 10.2077 16.5884 10.2077C16.124 10.2077 15.6876 10.3327 15.3124 10.5509V6.37962C15.3124 4.97216 14.1679 3.82758 12.7604 3.82758C11.3529 3.82758 10.2083 4.97216 10.2083 6.37962V17.2257L7.99066 15.5631C6.67639 14.5767 4.80573 14.7082 3.64075 15.8719C2.89429 16.6184 2.89429 17.8318 3.64075 18.5783L12.7273 27.6661C13.8118 28.7507 15.255 29.3478 16.7888 29.3478H19.7785C23.6474 29.3478 26.7965 26.1999 26.7965 22.3298V15.3117C26.7965 13.9042 25.652 12.7596 24.2445 12.7596ZM25.5206 22.3297C25.5206 25.4955 22.9443 28.0718 19.7785 28.0718H16.7888C15.5945 28.0718 14.4728 27.6073 13.6294 26.7638L4.54291 17.6762C4.29409 17.4273 4.29409 17.0228 4.54291 16.774C4.93846 16.3797 5.46673 16.1768 5.99757 16.1768C6.42888 16.1768 6.8627 16.3108 7.22637 16.5838L10.4636 19.0121C10.6576 19.1575 10.9179 19.1793 11.1323 19.0721C11.3479 18.9636 11.4845 18.7429 11.4845 18.5017V6.37962C11.4845 5.67652 12.0561 5.10363 12.7605 5.10363C13.4648 5.10363 14.0364 5.67658 14.0364 6.37962V15.9497C14.0364 16.3019 14.3223 16.5877 14.6745 16.5877C15.0266 16.5877 15.3125 16.3019 15.3125 15.9497V12.7597C15.3125 12.0566 15.8841 11.4837 16.5885 11.4837C17.2928 11.4837 17.8645 12.0567 17.8645 12.7597V15.9497C17.8645 16.3019 18.1503 16.5877 18.5025 16.5877C18.8547 16.5877 19.1405 16.3019 19.1405 15.9497V14.0357C19.1405 13.3326 19.7122 12.7597 20.4165 12.7597C21.1209 12.7597 21.6925 13.3326 21.6925 14.0357V15.9497C21.6925 16.3019 21.9784 16.5877 22.3305 16.5877C22.6827 16.5877 22.9686 16.3019 22.9686 15.9497V15.3117C22.9686 14.6086 23.5402 14.0357 24.2446 14.0357C24.9489 14.0357 25.5206 14.6086 25.5206 15.3117V22.3297Z" fill="#DDDDDD"/>
</svg>
