<svg width="16" height="16" viewBox="0 0 16 16" fill="none" xmlns="http://www.w3.org/2000/svg">
<path fill-rule="evenodd" clip-rule="evenodd" d="M4.51613 0H11.4839C14.0645 0 16 2.06452 16 4.51613V11.4839C16 14.0645 14.0645 16 11.4839 16H4.51613C2.06452 16 0 14.0645 0 11.4839V4.51613C0 2.06452 2.06452 0 4.51613 0ZM11.6129 8.77419C11.3548 8.51613 11.4839 8.3871 11.6129 8.12903C11.6129 8.12903 13.0323 6.06452 13.1613 5.29032C13.2903 5.03226 13.1613 4.90323 12.7742 4.90323H11.6129C11.3548 4.90323 11.2258 5.03226 11.0968 5.29032C11.0968 5.29032 10.5806 6.70968 9.67742 7.74194C9.41935 8 9.29032 8.12903 9.16129 8.12903C9.03226 8.12903 8.90323 8 8.90323 7.74194V5.29032C8.90323 5.03226 8.90323 4.90323 8.64516 4.90323H6.70968C6.58065 4.90323 6.45161 5.03226 6.45161 5.16129C6.45161 5.41935 6.83871 5.54839 6.96774 6.32258V8.12903C6.96774 8.64516 6.83871 8.64516 6.70968 8.64516C6.32258 8.64516 5.29032 7.09677 4.77419 5.41935C4.64516 5.03226 4.51613 4.90323 4.25806 4.90323H2.96774C2.70968 4.90323 2.58065 5.03226 2.58065 5.29032C2.58065 5.54839 2.96774 7.22581 4.51613 9.29032C5.41935 10.8387 6.83871 11.6129 8.12903 11.6129C8.77419 11.6129 8.90323 11.3548 8.90323 11.0968C8.90323 9.67742 8.90323 9.54839 9.29032 9.54839C9.41936 9.54839 9.67742 9.67742 10.4516 10.3226C11.2258 11.2258 11.3548 11.6129 11.7419 11.6129H13.0323C13.2903 11.6129 13.5484 11.3548 13.4194 11.0968C13.1613 10.3226 11.6129 8.77419 11.6129 8.77419Z" fill="#FFC0BF"/>
</svg>
