<svg width="252" height="272" viewBox="0 0 252 272" fill="none" xmlns="http://www.w3.org/2000/svg">
<path d="M216.888 249.626C187.584 265.146 148.507 263.979 121.21 247.616C93.6045 231.437 78.1194 199.918 58.0726 165.84C38.0297 131.726 13.3815 95.1196 19.7139 64.3253C25.7055 33.6745 62.4723 9.39169 95.7545 8.37001C129.1 7.10218 158.861 29.3378 187.814 44.1101C217.143 58.7429 245.178 65.7148 261.426 85.6402C277.768 105.359 282.18 137.69 274.402 170.134C266.481 202.237 246.43 234.241 216.888 249.626V249.626Z" fill="white"/>
<path fill-rule="evenodd" clip-rule="evenodd" d="M239.314 26.5398C237.792 26.5398 236.628 25.359 236.628 23.8148C236.628 22.2707 237.792 20.999 239.314 20.999C240.836 20.999 242 22.2707 242 23.8148C242 25.359 240.836 26.5398 239.314 26.5398ZM239.314 127.999C237.792 127.999 236.628 126.727 236.628 125.274C236.628 123.73 237.792 122.458 239.314 122.458C240.836 122.458 242 123.73 242 125.274C242 126.727 240.836 127.999 239.314 127.999ZM210.929 127.999C209.407 127.999 208.153 126.727 208.153 125.274C208.153 123.73 209.407 122.458 210.929 122.458C212.451 122.458 213.615 123.73 213.615 125.274C213.615 126.727 212.451 127.999 210.929 127.999ZM182.545 127.999C181.023 127.999 179.769 126.727 179.769 125.274C179.769 123.73 181.023 122.458 182.545 122.458C184.067 122.458 185.231 123.73 185.231 125.274C185.231 126.727 184.067 127.999 182.545 127.999ZM154.16 127.999C152.638 127.999 151.384 126.727 151.384 125.274C151.384 123.73 152.638 122.458 154.16 122.458C155.593 122.458 156.847 123.73 156.847 125.274C156.847 126.727 155.593 127.999 154.16 127.999ZM125.686 127.999C124.254 127.999 123 126.727 123 125.274C123 123.73 124.254 122.458 125.686 122.458C127.208 122.458 128.462 123.73 128.462 125.274C128.462 126.727 127.208 127.999 125.686 127.999V127.999ZM239.314 102.657C237.792 102.657 236.628 101.385 236.628 99.8411C236.628 98.3878 237.792 97.1162 239.314 97.1162C240.836 97.1162 242 98.3878 242 99.8411C242 101.385 240.836 102.657 239.314 102.657ZM210.929 102.657C209.407 102.657 208.153 101.385 208.153 99.8411C208.153 98.3878 209.407 97.1162 210.929 97.1162C212.451 97.1162 213.615 98.3878 213.615 99.8411C213.615 101.385 212.451 102.657 210.929 102.657ZM182.545 102.657C181.023 102.657 179.769 101.385 179.769 99.8411C179.769 98.3878 181.023 97.1162 182.545 97.1162C184.067 97.1162 185.231 98.3878 185.231 99.8411C185.231 101.385 184.067 102.657 182.545 102.657ZM154.16 102.657C152.638 102.657 151.384 101.385 151.384 99.8411C151.384 98.3878 152.638 97.1162 154.16 97.1162C155.593 97.1162 156.847 98.3878 156.847 99.8411C156.847 101.385 155.593 102.657 154.16 102.657ZM125.686 102.657C124.254 102.657 123 101.385 123 99.8411C123 98.3878 124.254 97.1162 125.686 97.1162C127.208 97.1162 128.462 98.3878 128.462 99.8411C128.462 101.385 127.208 102.657 125.686 102.657V102.657ZM239.314 77.3148C237.792 77.3148 236.628 76.0432 236.628 74.499C236.628 72.9549 237.792 71.7741 239.314 71.7741C240.836 71.7741 242 72.9549 242 74.499C242 76.0432 240.836 77.3148 239.314 77.3148ZM210.929 77.3148C209.407 77.3148 208.153 76.0432 208.153 74.499C208.153 72.9549 209.407 71.7741 210.929 71.7741C212.451 71.7741 213.615 72.9549 213.615 74.499C213.615 76.0432 212.451 77.3148 210.929 77.3148ZM182.545 77.3148C181.023 77.3148 179.769 76.0432 179.769 74.499C179.769 72.9549 181.023 71.7741 182.545 71.7741C184.067 71.7741 185.231 72.9549 185.231 74.499C185.231 76.0432 184.067 77.3148 182.545 77.3148ZM154.16 77.3148C152.638 77.3148 151.384 76.0432 151.384 74.499C151.384 72.9549 152.638 71.7741 154.16 71.7741C155.593 71.7741 156.847 72.9549 156.847 74.499C156.847 76.0432 155.593 77.3148 154.16 77.3148ZM125.686 77.3148C124.254 77.3148 123 76.0432 123 74.499C123 72.9549 124.254 71.7741 125.686 71.7741C127.208 71.7741 128.462 72.9549 128.462 74.499C128.462 76.0432 127.208 77.3148 125.686 77.3148V77.3148ZM239.314 51.8819C237.792 51.8819 236.628 50.7011 236.628 49.1569C236.628 47.6128 237.792 46.432 239.314 46.432C240.836 46.432 242 47.6128 242 49.1569C242 50.7011 240.836 51.8819 239.314 51.8819ZM210.929 51.8819C209.407 51.8819 208.153 50.7011 208.153 49.1569C208.153 47.6128 209.407 46.432 210.929 46.432C212.451 46.432 213.615 47.6128 213.615 49.1569C213.615 50.7011 212.451 51.8819 210.929 51.8819ZM182.545 51.8819C181.023 51.8819 179.769 50.7011 179.769 49.1569C179.769 47.6128 181.023 46.432 182.545 46.432C184.067 46.432 185.231 47.6128 185.231 49.1569C185.231 50.7011 184.067 51.8819 182.545 51.8819ZM154.16 51.8819C152.638 51.8819 151.384 50.7011 151.384 49.1569C151.384 47.6128 152.638 46.432 154.16 46.432C155.593 46.432 156.847 47.6128 156.847 49.1569C156.847 50.7011 155.593 51.8819 154.16 51.8819ZM210.929 26.5398C209.407 26.5398 208.153 25.359 208.153 23.8148C208.153 22.2707 209.407 20.999 210.929 20.999C212.451 20.999 213.615 22.2707 213.615 23.8148C213.615 25.359 212.451 26.5398 210.929 26.5398ZM182.545 26.5398C181.023 26.5398 179.769 25.359 179.769 23.8148C179.769 22.2707 181.023 20.999 182.545 20.999C184.067 20.999 185.231 22.2707 185.231 23.8148C185.231 25.359 184.067 26.5398 182.545 26.5398ZM154.16 26.5398C152.638 26.5398 151.384 25.359 151.384 23.8148C151.384 22.2707 152.638 20.999 154.16 20.999C155.593 20.999 156.847 22.2707 156.847 23.8148C156.847 25.359 155.593 26.5398 154.16 26.5398ZM125.686 26.5398C124.254 26.5398 123 25.359 123 23.8148C123 22.2707 124.254 20.999 125.686 20.999C127.208 20.999 128.462 22.2707 128.462 23.8148C128.462 25.359 127.208 26.5398 125.686 26.5398V26.5398ZM125.686 51.8819C124.254 51.8819 123 50.7011 123 49.1569C123 47.6128 124.254 46.432 125.686 46.432C127.208 46.432 128.462 47.6128 128.462 49.1569C128.462 50.7011 127.208 51.8819 125.686 51.8819V51.8819Z" fill="#8C52FF"/>
</svg>
