<svg width="197" height="245" viewBox="0 0 197 245" fill="none" xmlns="http://www.w3.org/2000/svg">
<path d="M181.434 225.82C156.92 238.802 124.231 237.826 101.396 224.138C78.3032 210.604 65.3495 184.237 48.5797 155.73C31.8132 127.192 11.1942 96.5701 16.4915 70.8097C21.5036 45.1694 52.2602 24.856 80.1018 24.0014C107.996 22.9408 132.893 41.5415 157.112 53.8991C181.647 66.1398 205.099 71.972 218.691 88.6403C232.362 105.136 236.052 132.182 229.546 159.322C222.92 186.177 206.147 212.95 181.434 225.82Z" fill="white"/>
<path fill-rule="evenodd" clip-rule="evenodd" d="M184.72 4.66044C183.428 4.66044 182.44 3.66723 182.44 2.36842C182.44 1.0696 183.428 0 184.72 0C186.012 0 187 1.0696 187 2.36842C187 3.66723 186.012 4.66044 184.72 4.66044ZM184.72 90C183.428 90 182.44 88.9304 182.44 87.708C182.44 86.4092 183.428 85.3396 184.72 85.3396C186.012 85.3396 187 86.4092 187 87.708C187 88.9304 186.012 90 184.72 90ZM160.629 90C159.337 90 158.273 88.9304 158.273 87.708C158.273 86.4092 159.337 85.3396 160.629 85.3396C161.921 85.3396 162.909 86.4092 162.909 87.708C162.909 88.9304 161.921 90 160.629 90ZM136.538 90C135.246 90 134.182 88.9304 134.182 87.708C134.182 86.4092 135.246 85.3396 136.538 85.3396C137.83 85.3396 138.818 86.4092 138.818 87.708C138.818 88.9304 137.83 90 136.538 90ZM112.447 90C111.155 90 110.091 88.9304 110.091 87.708C110.091 86.4092 111.155 85.3396 112.447 85.3396C113.663 85.3396 114.727 86.4092 114.727 87.708C114.727 88.9304 113.663 90 112.447 90ZM88.2799 90C87.064 90 86 88.9304 86 87.708C86 86.4092 87.064 85.3396 88.2799 85.3396C89.5719 85.3396 90.6358 86.4092 90.6358 87.708C90.6358 88.9304 89.5719 90 88.2799 90ZM184.72 68.6842C183.428 68.6842 182.44 67.6146 182.44 66.3158C182.44 65.0934 183.428 64.0238 184.72 64.0238C186.012 64.0238 187 65.0934 187 66.3158C187 67.6146 186.012 68.6842 184.72 68.6842ZM160.629 68.6842C159.337 68.6842 158.273 67.6146 158.273 66.3158C158.273 65.0934 159.337 64.0238 160.629 64.0238C161.921 64.0238 162.909 65.0934 162.909 66.3158C162.909 67.6146 161.921 68.6842 160.629 68.6842ZM136.538 68.6842C135.246 68.6842 134.182 67.6146 134.182 66.3158C134.182 65.0934 135.246 64.0238 136.538 64.0238C137.83 64.0238 138.818 65.0934 138.818 66.3158C138.818 67.6146 137.83 68.6842 136.538 68.6842ZM112.447 68.6842C111.155 68.6842 110.091 67.6146 110.091 66.3158C110.091 65.0934 111.155 64.0238 112.447 64.0238C113.663 64.0238 114.727 65.0934 114.727 66.3158C114.727 67.6146 113.663 68.6842 112.447 68.6842ZM88.2799 68.6842C87.064 68.6842 86 67.6146 86 66.3158C86 65.0934 87.064 64.0238 88.2799 64.0238C89.5719 64.0238 90.6358 65.0934 90.6358 66.3158C90.6358 67.6146 89.5719 68.6842 88.2799 68.6842ZM184.72 47.3684C183.428 47.3684 182.44 46.2988 182.44 45C182.44 43.7012 183.428 42.708 184.72 42.708C186.012 42.708 187 43.7012 187 45C187 46.2988 186.012 47.3684 184.72 47.3684ZM160.629 47.3684C159.337 47.3684 158.273 46.2988 158.273 45C158.273 43.7012 159.337 42.708 160.629 42.708C161.921 42.708 162.909 43.7012 162.909 45C162.909 46.2988 161.921 47.3684 160.629 47.3684ZM136.538 47.3684C135.246 47.3684 134.182 46.2988 134.182 45C134.182 43.7012 135.246 42.708 136.538 42.708C137.83 42.708 138.818 43.7012 138.818 45C138.818 46.2988 137.83 47.3684 136.538 47.3684ZM112.447 47.3684C111.155 47.3684 110.091 46.2988 110.091 45C110.091 43.7012 111.155 42.708 112.447 42.708C113.663 42.708 114.727 43.7012 114.727 45C114.727 46.2988 113.663 47.3684 112.447 47.3684ZM88.2799 47.3684C87.064 47.3684 86 46.2988 86 45C86 43.7012 87.064 42.708 88.2799 42.708C89.5719 42.708 90.6358 43.7012 90.6358 45C90.6358 46.2988 89.5719 47.3684 88.2799 47.3684ZM184.72 25.9762C183.428 25.9762 182.44 24.983 182.44 23.6842C182.44 22.3854 183.428 21.3922 184.72 21.3922C186.012 21.3922 187 22.3854 187 23.6842C187 24.983 186.012 25.9762 184.72 25.9762ZM160.629 25.9762C159.337 25.9762 158.273 24.983 158.273 23.6842C158.273 22.3854 159.337 21.3922 160.629 21.3922C161.921 21.3922 162.909 22.3854 162.909 23.6842C162.909 24.983 161.921 25.9762 160.629 25.9762ZM136.538 25.9762C135.246 25.9762 134.182 24.983 134.182 23.6842C134.182 22.3854 135.246 21.3922 136.538 21.3922C137.83 21.3922 138.818 22.3854 138.818 23.6842C138.818 24.983 137.83 25.9762 136.538 25.9762ZM112.447 25.9762C111.155 25.9762 110.091 24.983 110.091 23.6842C110.091 22.3854 111.155 21.3922 112.447 21.3922C113.663 21.3922 114.727 22.3854 114.727 23.6842C114.727 24.983 113.663 25.9762 112.447 25.9762ZM160.629 4.66044C159.337 4.66044 158.273 3.66723 158.273 2.36842C158.273 1.0696 159.337 0 160.629 0C161.921 0 162.909 1.0696 162.909 2.36842C162.909 3.66723 161.921 4.66044 160.629 4.66044ZM136.538 4.66044C135.246 4.66044 134.182 3.66723 134.182 2.36842C134.182 1.0696 135.246 0 136.538 0C137.83 0 138.818 1.0696 138.818 2.36842C138.818 3.66723 137.83 4.66044 136.538 4.66044ZM112.447 4.66044C111.155 4.66044 110.091 3.66723 110.091 2.36842C110.091 1.0696 111.155 0 112.447 0C113.663 0 114.727 1.0696 114.727 2.36842C114.727 3.66723 113.663 4.66044 112.447 4.66044ZM88.2799 4.66044C87.064 4.66044 86 3.66723 86 2.36842C86 1.0696 87.064 0 88.2799 0C89.5719 0 90.6358 1.0696 90.6358 2.36842C90.6358 3.66723 89.5719 4.66044 88.2799 4.66044ZM88.2799 25.9762C87.064 25.9762 86 24.983 86 23.6842C86 22.3854 87.064 21.3922 88.2799 21.3922C89.5719 21.3922 90.6358 22.3854 90.6358 23.6842C90.6358 24.983 89.5719 25.9762 88.2799 25.9762Z" fill="#8C52FF"/>
</svg>
