<svg width="375" height="368" viewBox="0 0 375 368" fill="none" xmlns="http://www.w3.org/2000/svg">
<path d="M313.817 268.472C331.926 231.788 329.179 183.604 308.138 150.47C287.259 116.925 247.922 98.8402 205.272 75.191C162.624 51.5656 116.687 22.3722 78.9851 31.1822C41.4733 39.6009 12.7715 85.774 12.6284 126.873C12.1848 168.085 40.5971 204.085 59.766 239.351C78.7519 275.056 88.2695 309.449 113.366 328.847C138.165 348.384 178.135 352.786 217.841 342.094C257.114 331.266 295.823 305.457 313.817 268.472Z" fill="white"/>
<path fill-rule="evenodd" clip-rule="evenodd" d="M225.506 201.011C227.427 201.011 229.013 199.425 229.013 197.505C229.013 195.584 227.427 193.998 225.506 193.998C223.586 193.998 222 195.584 222 197.505C222 199.425 223.586 201.011 225.506 201.011ZM225.506 328.998C227.427 328.998 229.013 327.412 229.013 325.492C229.013 323.571 227.427 321.985 225.506 321.985C223.586 321.985 222 323.571 222 325.492C222 327.412 223.586 328.998 225.506 328.998ZM261.824 328.998C263.744 328.998 265.33 327.412 265.33 325.492C265.33 323.571 263.744 321.985 261.824 321.985C259.904 321.985 258.317 323.571 258.317 325.492C258.317 327.412 259.904 328.998 261.824 328.998ZM298.224 328.998C300.145 328.998 301.647 327.412 301.647 325.492C301.647 323.571 300.145 321.985 298.224 321.985C296.304 321.985 294.718 323.571 294.718 325.492C294.718 327.412 296.304 328.998 298.224 328.998ZM334.542 328.998C336.462 328.998 338.048 327.412 338.048 325.492C338.048 323.571 336.462 321.985 334.542 321.985C332.622 321.985 331.035 323.571 331.035 325.492C331.035 327.412 332.622 328.998 334.542 328.998ZM370.859 328.998C372.779 328.998 374.365 327.412 374.365 325.492C374.365 323.571 372.779 321.985 370.859 321.985C368.939 321.985 367.436 323.571 367.436 325.492C367.436 327.412 368.939 328.998 370.859 328.998ZM225.506 296.939C227.427 296.939 229.013 295.436 229.013 293.516C229.013 291.595 227.427 290.009 225.506 290.009C223.586 290.009 222 291.595 222 293.516C222 295.436 223.586 296.939 225.506 296.939ZM261.824 296.939C263.744 296.939 265.33 295.436 265.33 293.516C265.33 291.595 263.744 290.009 261.824 290.009C259.904 290.009 258.317 291.595 258.317 293.516C258.317 295.436 259.904 296.939 261.824 296.939ZM298.224 296.939C300.145 296.939 301.647 295.436 301.647 293.516C301.647 291.595 300.145 290.009 298.224 290.009C296.304 290.009 294.718 291.595 294.718 293.516C294.718 295.436 296.304 296.939 298.224 296.939ZM334.542 296.939C336.462 296.939 338.048 295.436 338.048 293.516C338.048 291.595 336.462 290.009 334.542 290.009C332.622 290.009 331.035 291.595 331.035 293.516C331.035 295.436 332.622 296.939 334.542 296.939ZM370.859 296.939C372.779 296.939 374.365 295.436 374.365 293.516C374.365 291.595 372.779 290.009 370.859 290.009C368.939 290.009 367.436 291.595 367.436 293.516C367.436 295.436 368.939 296.939 370.859 296.939ZM225.506 264.963C227.427 264.963 229.013 263.377 229.013 261.456C229.013 259.536 227.427 258.033 225.506 258.033C223.586 258.033 222 259.536 222 261.456C222 263.377 223.586 264.963 225.506 264.963ZM261.824 264.963C263.744 264.963 265.33 263.377 265.33 261.456C265.33 259.536 263.744 258.033 261.824 258.033C259.904 258.033 258.317 259.536 258.317 261.456C258.317 263.377 259.904 264.963 261.824 264.963ZM298.224 264.963C300.145 264.963 301.647 263.377 301.647 261.456C301.647 259.536 300.145 258.033 298.224 258.033C296.304 258.033 294.718 259.536 294.718 261.456C294.718 263.377 296.304 264.963 298.224 264.963ZM334.542 264.963C336.462 264.963 338.048 263.377 338.048 261.456C338.048 259.536 336.462 258.033 334.542 258.033C332.622 258.033 331.035 259.536 331.035 261.456C331.035 263.377 332.622 264.963 334.542 264.963ZM370.859 264.963C372.779 264.963 374.365 263.377 374.365 261.456C374.365 259.536 372.779 258.033 370.859 258.033C368.939 258.033 367.436 259.536 367.436 261.456C367.436 263.377 368.939 264.963 370.859 264.963ZM225.506 232.987C227.427 232.987 229.013 231.401 229.013 229.48C229.013 227.56 227.427 225.974 225.506 225.974C223.586 225.974 222 227.56 222 229.48C222 231.401 223.586 232.987 225.506 232.987ZM261.824 232.987C263.744 232.987 265.33 231.401 265.33 229.48C265.33 227.56 263.744 225.974 261.824 225.974C259.904 225.974 258.317 227.56 258.317 229.48C258.317 231.401 259.904 232.987 261.824 232.987ZM298.224 232.987C300.145 232.987 301.647 231.401 301.647 229.48C301.647 227.56 300.145 225.974 298.224 225.974C296.304 225.974 294.718 227.56 294.718 229.48C294.718 231.401 296.304 232.987 298.224 232.987ZM334.542 232.987C336.462 232.987 338.048 231.401 338.048 229.48C338.048 227.56 336.462 225.974 334.542 225.974C332.622 225.974 331.035 227.56 331.035 229.48C331.035 231.401 332.622 232.987 334.542 232.987ZM261.824 201.011C263.744 201.011 265.33 199.425 265.33 197.505C265.33 195.584 263.744 193.998 261.824 193.998C259.904 193.998 258.317 195.584 258.317 197.505C258.317 199.425 259.904 201.011 261.824 201.011ZM298.224 201.011C300.145 201.011 301.647 199.425 301.647 197.505C301.647 195.584 300.145 193.998 298.224 193.998C296.304 193.998 294.718 195.584 294.718 197.505C294.718 199.425 296.304 201.011 298.224 201.011ZM334.542 201.011C336.462 201.011 338.048 199.425 338.048 197.505C338.048 195.584 336.462 193.998 334.542 193.998C332.622 193.998 331.035 195.584 331.035 197.505C331.035 199.425 332.622 201.011 334.542 201.011ZM370.859 201.011C372.779 201.011 374.365 199.425 374.365 197.505C374.365 195.584 372.779 193.998 370.859 193.998C368.939 193.998 367.436 195.584 367.436 197.505C367.436 199.425 368.939 201.011 370.859 201.011ZM370.859 232.987C372.779 232.987 374.365 231.401 374.365 229.48C374.365 227.56 372.779 225.974 370.859 225.974C368.939 225.974 367.436 227.56 367.436 229.48C367.436 231.401 368.939 232.987 370.859 232.987Z" fill="#8C52FF"/>
</svg>
