<svg width="170" height="195" viewBox="0 0 170 195" fill="none" xmlns="http://www.w3.org/2000/svg">
<path d="M145.153 180.411C125.653 190.738 99.6502 189.962 81.486 179.074C63.1162 168.308 52.812 147.334 39.4722 124.657C26.1351 101.957 9.73344 77.598 13.9472 57.1066C17.9342 36.7106 42.3999 20.5521 64.5469 19.8722C86.7358 19.0286 106.54 33.8248 125.806 43.6547C145.322 53.3918 163.978 58.0312 174.789 71.2901C185.664 84.4117 188.6 105.926 183.424 127.515C178.154 148.877 164.811 170.174 145.153 180.411Z" fill="white"/>
<path fill-rule="evenodd" clip-rule="evenodd" d="M148.172 3.78014C147.135 3.78014 146.343 2.97453 146.343 1.92105C146.343 0.867569 147.135 0 148.172 0C149.208 0 150 0.867569 150 1.92105C150 2.97453 149.208 3.78014 148.172 3.78014ZM148.172 73C147.135 73 146.343 72.1324 146.343 71.1409C146.343 70.0874 147.135 69.2199 148.172 69.2199C149.208 69.2199 150 70.0874 150 71.1409C150 72.1324 149.208 73 148.172 73ZM128.851 73C127.815 73 126.962 72.1324 126.962 71.1409C126.962 70.0874 127.815 69.2199 128.851 69.2199C129.887 69.2199 130.679 70.0874 130.679 71.1409C130.679 72.1324 129.887 73 128.851 73ZM109.53 73C108.494 73 107.641 72.1324 107.641 71.1409C107.641 70.0874 108.494 69.2199 109.53 69.2199C110.567 69.2199 111.359 70.0874 111.359 71.1409C111.359 72.1324 110.567 73 109.53 73ZM90.2099 73C89.1738 73 88.3205 72.1324 88.3205 71.1409C88.3205 70.0874 89.1738 69.2199 90.2099 69.2199C91.1851 69.2199 92.0384 70.0874 92.0384 71.1409C92.0384 72.1324 91.1851 73 90.2099 73ZM70.8284 73C69.8533 73 69 72.1324 69 71.1409C69 70.0874 69.8533 69.2199 70.8284 69.2199C71.8646 69.2199 72.7178 70.0874 72.7178 71.1409C72.7178 72.1324 71.8646 73 70.8284 73ZM148.172 55.7105C147.135 55.7105 146.343 54.843 146.343 53.7895C146.343 52.798 147.135 51.9304 148.172 51.9304C149.208 51.9304 150 52.798 150 53.7895C150 54.843 149.208 55.7105 148.172 55.7105ZM128.851 55.7105C127.815 55.7105 126.962 54.843 126.962 53.7895C126.962 52.798 127.815 51.9304 128.851 51.9304C129.887 51.9304 130.679 52.798 130.679 53.7895C130.679 54.843 129.887 55.7105 128.851 55.7105ZM109.53 55.7105C108.494 55.7105 107.641 54.843 107.641 53.7895C107.641 52.798 108.494 51.9304 109.53 51.9304C110.567 51.9304 111.359 52.798 111.359 53.7895C111.359 54.843 110.567 55.7105 109.53 55.7105ZM90.2099 55.7105C89.1738 55.7105 88.3205 54.843 88.3205 53.7895C88.3205 52.798 89.1738 51.9304 90.2099 51.9304C91.1851 51.9304 92.0384 52.798 92.0384 53.7895C92.0384 54.843 91.1851 55.7105 90.2099 55.7105ZM70.8284 55.7105C69.8533 55.7105 69 54.843 69 53.7895C69 52.798 69.8533 51.9304 70.8284 51.9304C71.8646 51.9304 72.7178 52.798 72.7178 53.7895C72.7178 54.843 71.8646 55.7105 70.8284 55.7105ZM148.172 38.4211C147.135 38.4211 146.343 37.5535 146.343 36.5C146.343 35.4465 147.135 34.6409 148.172 34.6409C149.208 34.6409 150 35.4465 150 36.5C150 37.5535 149.208 38.4211 148.172 38.4211ZM128.851 38.4211C127.815 38.4211 126.962 37.5535 126.962 36.5C126.962 35.4465 127.815 34.6409 128.851 34.6409C129.887 34.6409 130.679 35.4465 130.679 36.5C130.679 37.5535 129.887 38.4211 128.851 38.4211ZM109.53 38.4211C108.494 38.4211 107.641 37.5535 107.641 36.5C107.641 35.4465 108.494 34.6409 109.53 34.6409C110.567 34.6409 111.359 35.4465 111.359 36.5C111.359 37.5535 110.567 38.4211 109.53 38.4211ZM90.2099 38.4211C89.1738 38.4211 88.3205 37.5535 88.3205 36.5C88.3205 35.4465 89.1738 34.6409 90.2099 34.6409C91.1851 34.6409 92.0384 35.4465 92.0384 36.5C92.0384 37.5535 91.1851 38.4211 90.2099 38.4211ZM70.8284 38.4211C69.8533 38.4211 69 37.5535 69 36.5C69 35.4465 69.8533 34.6409 70.8284 34.6409C71.8646 34.6409 72.7178 35.4465 72.7178 36.5C72.7178 37.5535 71.8646 38.4211 70.8284 38.4211ZM148.172 21.0696C147.135 21.0696 146.343 20.264 146.343 19.2105C146.343 18.157 147.135 17.3514 148.172 17.3514C149.208 17.3514 150 18.157 150 19.2105C150 20.264 149.208 21.0696 148.172 21.0696ZM128.851 21.0696C127.815 21.0696 126.962 20.264 126.962 19.2105C126.962 18.157 127.815 17.3514 128.851 17.3514C129.887 17.3514 130.679 18.157 130.679 19.2105C130.679 20.264 129.887 21.0696 128.851 21.0696ZM109.53 21.0696C108.494 21.0696 107.641 20.264 107.641 19.2105C107.641 18.157 108.494 17.3514 109.53 17.3514C110.567 17.3514 111.359 18.157 111.359 19.2105C111.359 20.264 110.567 21.0696 109.53 21.0696ZM90.2099 21.0696C89.1738 21.0696 88.3205 20.264 88.3205 19.2105C88.3205 18.157 89.1738 17.3514 90.2099 17.3514C91.1851 17.3514 92.0384 18.157 92.0384 19.2105C92.0384 20.264 91.1851 21.0696 90.2099 21.0696ZM128.851 3.78014C127.815 3.78014 126.962 2.97453 126.962 1.92105C126.962 0.867569 127.815 0 128.851 0C129.887 0 130.679 0.867569 130.679 1.92105C130.679 2.97453 129.887 3.78014 128.851 3.78014ZM109.53 3.78014C108.494 3.78014 107.641 2.97453 107.641 1.92105C107.641 0.867569 108.494 0 109.53 0C110.567 0 111.359 0.867569 111.359 1.92105C111.359 2.97453 110.567 3.78014 109.53 3.78014ZM90.2099 3.78014C89.1738 3.78014 88.3205 2.97453 88.3205 1.92105C88.3205 0.867569 89.1738 0 90.2099 0C91.1851 0 92.0384 0.867569 92.0384 1.92105C92.0384 2.97453 91.1851 3.78014 90.2099 3.78014ZM70.8284 3.78014C69.8533 3.78014 69 2.97453 69 1.92105C69 0.867569 69.8533 0 70.8284 0C71.8646 0 72.7178 0.867569 72.7178 1.92105C72.7178 2.97453 71.8646 3.78014 70.8284 3.78014ZM70.8284 21.0696C69.8533 21.0696 69 20.264 69 19.2105C69 18.157 69.8533 17.3514 70.8284 17.3514C71.8646 17.3514 72.7178 18.157 72.7178 19.2105C72.7178 20.264 71.8646 21.0696 70.8284 21.0696Z" fill="#8C52FF"/>
</svg>
