<svg width="387" height="374" viewBox="0 0 387 374" fill="none" xmlns="http://www.w3.org/2000/svg">
<path d="M279.114 144.046C230.994 100.211 219.252 7.08783 168.698 1.81159C118.543 -3.43756 64.1705 61.4343 35.2613 129.308C6.35217 197.182 2.48979 268.061 36.0959 310.236C70.0211 352.812 141.431 366.668 197.813 364.539C254.578 362.392 296.446 343.976 330.239 318.398C364.231 292.67 389.966 259.752 385.645 231.766C381.377 204.062 314.45 176.204 279.114 144.046Z" fill="white"/>
<path fill-rule="evenodd" clip-rule="evenodd" d="M128.009 369.867C128.009 367.919 129.499 366.429 131.447 366.429C133.396 366.429 135 367.919 135 369.867C135 371.815 133.396 373.305 131.447 373.305C129.499 373.305 128.009 371.815 128.009 369.867ZM0 369.867C0 367.919 1.60441 366.429 3.43803 366.429C5.38625 366.429 6.99066 367.919 6.99066 369.867C6.99066 371.815 5.38625 373.305 3.43803 373.305C1.60441 373.305 0 371.815 0 369.867ZM0 333.539C0 331.59 1.60441 329.986 3.43803 329.986C5.38625 329.986 6.99066 331.59 6.99066 333.539C6.99066 335.487 5.38625 336.977 3.43803 336.977C1.60441 336.977 0 335.487 0 333.539ZM0 297.21C0 295.262 1.60441 293.658 3.43803 293.658C5.38625 293.658 6.99066 295.262 6.99066 297.21C6.99066 299.158 5.38625 300.648 3.43803 300.648C1.60441 300.648 0 299.158 0 297.21ZM0 260.882C0 258.933 1.60441 257.329 3.43803 257.329C5.38625 257.329 6.99066 258.933 6.99066 260.882C6.99066 262.715 5.38625 264.32 3.43803 264.32C1.60441 264.32 0 262.715 0 260.882ZM0 224.439C0 222.605 1.60441 221 3.43803 221C5.38625 221 6.99066 222.605 6.99066 224.439C6.99066 226.387 5.38625 227.991 3.43803 227.991C1.60441 227.991 0 226.387 0 224.439ZM31.9737 369.867C31.9737 367.919 33.5781 366.429 35.5263 366.429C37.3599 366.429 38.9643 367.919 38.9643 369.867C38.9643 371.815 37.3599 373.305 35.5263 373.305C33.5781 373.305 31.9737 371.815 31.9737 369.867ZM31.9737 333.539C31.9737 331.59 33.5781 329.986 35.5263 329.986C37.3599 329.986 38.9643 331.59 38.9643 333.539C38.9643 335.487 37.3599 336.977 35.5263 336.977C33.5781 336.977 31.9737 335.487 31.9737 333.539ZM31.9737 297.21C31.9737 295.262 33.5781 293.658 35.5263 293.658C37.3599 293.658 38.9643 295.262 38.9643 297.21C38.9643 299.158 37.3599 300.648 35.5263 300.648C33.5781 300.648 31.9737 299.158 31.9737 297.21ZM31.9737 260.882C31.9737 258.933 33.5781 257.329 35.5263 257.329C37.3599 257.329 38.9643 258.933 38.9643 260.882C38.9643 262.715 37.3599 264.32 35.5263 264.32C33.5781 264.32 31.9737 262.715 31.9737 260.882ZM31.9737 224.439C31.9737 222.605 33.5781 221 35.5263 221C37.3599 221 38.9643 222.605 38.9643 224.439C38.9643 226.387 37.3599 227.991 35.5263 227.991C33.5781 227.991 31.9737 226.387 31.9737 224.439ZM63.9474 369.867C63.9474 367.919 65.5518 366.429 67.5 366.429C69.4482 366.429 70.938 367.919 70.938 369.867C70.938 371.815 69.4482 373.305 67.5 373.305C65.5518 373.305 63.9474 371.815 63.9474 369.867ZM63.9474 333.539C63.9474 331.59 65.5518 329.986 67.5 329.986C69.4482 329.986 70.938 331.59 70.938 333.539C70.938 335.487 69.4482 336.977 67.5 336.977C65.5518 336.977 63.9474 335.487 63.9474 333.539ZM63.9474 297.21C63.9474 295.262 65.5518 293.658 67.5 293.658C69.4482 293.658 70.938 295.262 70.938 297.21C70.938 299.158 69.4482 300.648 67.5 300.648C65.5518 300.648 63.9474 299.158 63.9474 297.21ZM63.9474 260.882C63.9474 258.933 65.5518 257.329 67.5 257.329C69.4482 257.329 70.938 258.933 70.938 260.882C70.938 262.715 69.4482 264.32 67.5 264.32C65.5518 264.32 63.9474 262.715 63.9474 260.882ZM63.9474 224.439C63.9474 222.605 65.5518 221 67.5 221C69.4482 221 70.938 222.605 70.938 224.439C70.938 226.387 69.4482 227.991 67.5 227.991C65.5518 227.991 63.9474 226.387 63.9474 224.439ZM96.0357 369.867C96.0357 367.919 97.5255 366.429 99.4737 366.429C101.422 366.429 102.912 367.919 102.912 369.867C102.912 371.815 101.422 373.305 99.4737 373.305C97.5255 373.305 96.0357 371.815 96.0357 369.867ZM96.0357 333.539C96.0357 331.59 97.5255 329.986 99.4737 329.986C101.422 329.986 102.912 331.59 102.912 333.539C102.912 335.487 101.422 336.977 99.4737 336.977C97.5255 336.977 96.0357 335.487 96.0357 333.539ZM96.0357 297.21C96.0357 295.262 97.5255 293.658 99.4737 293.658C101.422 293.658 102.912 295.262 102.912 297.21C102.912 299.158 101.422 300.648 99.4737 300.648C97.5255 300.648 96.0357 299.158 96.0357 297.21ZM96.0357 260.882C96.0357 258.933 97.5255 257.329 99.4737 257.329C101.422 257.329 102.912 258.933 102.912 260.882C102.912 262.715 101.422 264.32 99.4737 264.32C97.5255 264.32 96.0357 262.715 96.0357 260.882ZM128.009 333.539C128.009 331.59 129.499 329.986 131.447 329.986C133.396 329.986 135 331.59 135 333.539C135 335.487 133.396 336.977 131.447 336.977C129.499 336.977 128.009 335.487 128.009 333.539ZM128.009 297.21C128.009 295.262 129.499 293.658 131.447 293.658C133.396 293.658 135 295.262 135 297.21C135 299.158 133.396 300.648 131.447 300.648C129.499 300.648 128.009 299.158 128.009 297.21ZM128.009 260.882C128.009 258.933 129.499 257.329 131.447 257.329C133.396 257.329 135 258.933 135 260.882C135 262.715 133.396 264.32 131.447 264.32C129.499 264.32 128.009 262.715 128.009 260.882ZM128.009 224.439C128.009 222.605 129.499 221 131.447 221C133.396 221 135 222.605 135 224.439C135 226.387 133.396 227.991 131.447 227.991C129.499 227.991 128.009 226.387 128.009 224.439ZM96.0357 224.439C96.0357 222.605 97.5255 221 99.4737 221C101.422 221 102.912 222.605 102.912 224.439C102.912 226.387 101.422 227.991 99.4737 227.991C97.5255 227.991 96.0357 226.387 96.0357 224.439Z" fill="#8C52FF"/>
</svg>
