<svg width="180" height="196" viewBox="0 0 180 196" fill="none" xmlns="http://www.w3.org/2000/svg">
<path d="M103.061 62.0082C122.276 86.9111 167.498 97.2001 167.633 121.279C167.773 145.168 133.226 167.459 98.4416 177.605C63.6571 187.751 28.6138 185.948 9.50933 167.965C-9.77648 149.812 -13.1153 115.473 -9.32444 89.0281C-5.50634 62.4041 5.5875 43.6275 19.8101 29.0196C34.1163 14.3257 51.5564 3.88846 65.1088 7.3535C78.5245 10.7796 88.9668 43.7229 103.061 62.0082Z" fill="white"/>
<path fill-rule="evenodd" clip-rule="evenodd" d="M76.3752 148.172C76.3752 147.135 77.1477 146.343 78.1579 146.343C79.1681 146.343 80 147.135 80 148.172C80 149.208 79.1681 150 78.1579 150C77.1477 150 76.3752 149.208 76.3752 148.172ZM10 148.172C10 147.135 10.8319 146.343 11.7827 146.343C12.7929 146.343 13.6248 147.135 13.6248 148.172C13.6248 149.208 12.7929 150 11.7827 150C10.8319 150 10 149.208 10 148.172ZM10 128.851C10 127.815 10.8319 126.962 11.7827 126.962C12.7929 126.962 13.6248 127.815 13.6248 128.851C13.6248 129.887 12.7929 130.679 11.7827 130.679C10.8319 130.679 10 129.887 10 128.851ZM10 109.53C10 108.494 10.8319 107.641 11.7827 107.641C12.7929 107.641 13.6248 108.494 13.6248 109.53C13.6248 110.567 12.7929 111.359 11.7827 111.359C10.8319 111.359 10 110.567 10 109.53ZM10 90.2099C10 89.1738 10.8319 88.3205 11.7827 88.3205C12.7929 88.3205 13.6248 89.1738 13.6248 90.2099C13.6248 91.1851 12.7929 92.0384 11.7827 92.0384C10.8319 92.0384 10 91.1851 10 90.2099ZM10 70.8284C10 69.8533 10.8319 69 11.7827 69C12.7929 69 13.6248 69.8533 13.6248 70.8284C13.6248 71.8646 12.7929 72.7178 11.7827 72.7178C10.8319 72.7178 10 71.8646 10 70.8284ZM26.5789 148.172C26.5789 147.135 27.4109 146.343 28.4211 146.343C29.3718 146.343 30.2037 147.135 30.2037 148.172C30.2037 149.208 29.3718 150 28.4211 150C27.4109 150 26.5789 149.208 26.5789 148.172ZM26.5789 128.851C26.5789 127.815 27.4109 126.962 28.4211 126.962C29.3718 126.962 30.2037 127.815 30.2037 128.851C30.2037 129.887 29.3718 130.679 28.4211 130.679C27.4109 130.679 26.5789 129.887 26.5789 128.851ZM26.5789 109.53C26.5789 108.494 27.4109 107.641 28.4211 107.641C29.3718 107.641 30.2037 108.494 30.2037 109.53C30.2037 110.567 29.3718 111.359 28.4211 111.359C27.4109 111.359 26.5789 110.567 26.5789 109.53ZM26.5789 90.2099C26.5789 89.1738 27.4109 88.3205 28.4211 88.3205C29.3718 88.3205 30.2037 89.1738 30.2037 90.2099C30.2037 91.1851 29.3718 92.0384 28.4211 92.0384C27.4109 92.0384 26.5789 91.1851 26.5789 90.2099ZM26.5789 70.8284C26.5789 69.8533 27.4109 69 28.4211 69C29.3718 69 30.2037 69.8533 30.2037 70.8284C30.2037 71.8646 29.3718 72.7178 28.4211 72.7178C27.4109 72.7178 26.5789 71.8646 26.5789 70.8284ZM43.1579 148.172C43.1579 147.135 43.9898 146.343 45 146.343C46.0102 146.343 46.7827 147.135 46.7827 148.172C46.7827 149.208 46.0102 150 45 150C43.9898 150 43.1579 149.208 43.1579 148.172ZM43.1579 128.851C43.1579 127.815 43.9898 126.962 45 126.962C46.0102 126.962 46.7827 127.815 46.7827 128.851C46.7827 129.887 46.0102 130.679 45 130.679C43.9898 130.679 43.1579 129.887 43.1579 128.851ZM43.1579 109.53C43.1579 108.494 43.9898 107.641 45 107.641C46.0102 107.641 46.7827 108.494 46.7827 109.53C46.7827 110.567 46.0102 111.359 45 111.359C43.9898 111.359 43.1579 110.567 43.1579 109.53ZM43.1579 90.2099C43.1579 89.1738 43.9898 88.3205 45 88.3205C46.0102 88.3205 46.7827 89.1738 46.7827 90.2099C46.7827 91.1851 46.0102 92.0384 45 92.0384C43.9898 92.0384 43.1579 91.1851 43.1579 90.2099ZM43.1579 70.8284C43.1579 69.8533 43.9898 69 45 69C46.0102 69 46.7827 69.8533 46.7827 70.8284C46.7827 71.8646 46.0102 72.7178 45 72.7178C43.9898 72.7178 43.1579 71.8646 43.1579 70.8284ZM59.7963 148.172C59.7963 147.135 60.5688 146.343 61.5789 146.343C62.5891 146.343 63.3616 147.135 63.3616 148.172C63.3616 149.208 62.5891 150 61.5789 150C60.5688 150 59.7963 149.208 59.7963 148.172ZM59.7963 128.851C59.7963 127.815 60.5688 126.962 61.5789 126.962C62.5891 126.962 63.3616 127.815 63.3616 128.851C63.3616 129.887 62.5891 130.679 61.5789 130.679C60.5688 130.679 59.7963 129.887 59.7963 128.851ZM59.7963 109.53C59.7963 108.494 60.5688 107.641 61.5789 107.641C62.5891 107.641 63.3616 108.494 63.3616 109.53C63.3616 110.567 62.5891 111.359 61.5789 111.359C60.5688 111.359 59.7963 110.567 59.7963 109.53ZM59.7963 90.2099C59.7963 89.1738 60.5688 88.3205 61.5789 88.3205C62.5891 88.3205 63.3616 89.1738 63.3616 90.2099C63.3616 91.1851 62.5891 92.0384 61.5789 92.0384C60.5688 92.0384 59.7963 91.1851 59.7963 90.2099ZM76.3752 128.851C76.3752 127.815 77.1477 126.962 78.1579 126.962C79.1681 126.962 80 127.815 80 128.851C80 129.887 79.1681 130.679 78.1579 130.679C77.1477 130.679 76.3752 129.887 76.3752 128.851ZM76.3752 109.53C76.3752 108.494 77.1477 107.641 78.1579 107.641C79.1681 107.641 80 108.494 80 109.53C80 110.567 79.1681 111.359 78.1579 111.359C77.1477 111.359 76.3752 110.567 76.3752 109.53ZM76.3752 90.2099C76.3752 89.1738 77.1477 88.3205 78.1579 88.3205C79.1681 88.3205 80 89.1738 80 90.2099C80 91.1851 79.1681 92.0384 78.1579 92.0384C77.1477 92.0384 76.3752 91.1851 76.3752 90.2099ZM76.3752 70.8284C76.3752 69.8533 77.1477 69 78.1579 69C79.1681 69 80 69.8533 80 70.8284C80 71.8646 79.1681 72.7178 78.1579 72.7178C77.1477 72.7178 76.3752 71.8646 76.3752 70.8284ZM59.7963 70.8284C59.7963 69.8533 60.5688 69 61.5789 69C62.5891 69 63.3616 69.8533 63.3616 70.8284C63.3616 71.8646 62.5891 72.7178 61.5789 72.7178C60.5688 72.7178 59.7963 71.8646 59.7963 70.8284Z" fill="#8C52FF"/>
</svg>
