<svg width="294" height="327" viewBox="0 0 294 327" fill="none" xmlns="http://www.w3.org/2000/svg">
<path d="M179.433 93.1853C208.308 130.609 276.268 146.071 276.47 182.256C276.681 218.157 224.764 251.656 172.49 266.903C120.216 282.15 67.5536 279.44 38.8437 252.416C9.86118 225.136 4.84368 173.531 10.5405 133.791C16.2783 93.7803 32.95 65.5629 54.3235 43.6103C75.8227 21.5286 102.032 5.84362 122.398 11.0508C142.559 16.1996 158.251 65.7064 179.433 93.1853Z" fill="white"/>
<path fill-rule="evenodd" clip-rule="evenodd" d="M111.074 324.291C111.074 322.756 112.243 321.582 113.773 321.582C115.303 321.582 116.562 322.756 116.562 324.291C116.562 325.826 115.303 327 113.773 327C112.243 327 111.074 325.826 111.074 324.291ZM10.5625 324.291C10.5625 322.756 11.8223 321.582 13.262 321.582C14.7917 321.582 16.0515 322.756 16.0515 324.291C16.0515 325.826 14.7917 327 13.262 327C11.8223 327 10.5625 325.826 10.5625 324.291ZM10.5625 295.668C10.5625 294.133 11.8223 292.869 13.262 292.869C14.7917 292.869 16.0515 294.133 16.0515 295.668C16.0515 297.203 14.7917 298.377 13.262 298.377C11.8223 298.377 10.5625 297.203 10.5625 295.668ZM10.5625 267.045C10.5625 265.51 11.8223 264.246 13.262 264.246C14.7917 264.246 16.0515 265.51 16.0515 267.045C16.0515 268.58 14.7917 269.754 13.262 269.754C11.8223 269.754 10.5625 268.58 10.5625 267.045ZM10.5625 238.422C10.5625 236.887 11.8223 235.623 13.262 235.623C14.7917 235.623 16.0515 236.887 16.0515 238.422C16.0515 239.867 14.7917 241.131 13.262 241.131C11.8223 241.131 10.5625 239.867 10.5625 238.422ZM10.5625 209.709C10.5625 208.264 11.8223 207 13.262 207C14.7917 207 16.0515 208.264 16.0515 209.709C16.0515 211.244 14.7917 212.508 13.262 212.508C11.8223 212.508 10.5625 211.244 10.5625 209.709ZM35.6678 324.291C35.6678 322.756 36.9275 321.582 38.4572 321.582C39.897 321.582 41.1567 322.756 41.1567 324.291C41.1567 325.826 39.897 327 38.4572 327C36.9275 327 35.6678 325.826 35.6678 324.291ZM35.6678 295.668C35.6678 294.133 36.9275 292.869 38.4572 292.869C39.897 292.869 41.1567 294.133 41.1567 295.668C41.1567 297.203 39.897 298.377 38.4572 298.377C36.9275 298.377 35.6678 297.203 35.6678 295.668ZM35.6678 267.045C35.6678 265.51 36.9275 264.246 38.4572 264.246C39.897 264.246 41.1567 265.51 41.1567 267.045C41.1567 268.58 39.897 269.754 38.4572 269.754C36.9275 269.754 35.6678 268.58 35.6678 267.045ZM35.6678 238.422C35.6678 236.887 36.9275 235.623 38.4572 235.623C39.897 235.623 41.1567 236.887 41.1567 238.422C41.1567 239.867 39.897 241.131 38.4572 241.131C36.9275 241.131 35.6678 239.867 35.6678 238.422ZM35.6678 209.709C35.6678 208.264 36.9275 207 38.4572 207C39.897 207 41.1567 208.264 41.1567 209.709C41.1567 211.244 39.897 212.508 38.4572 212.508C36.9275 212.508 35.6678 211.244 35.6678 209.709ZM60.773 324.291C60.773 322.756 62.0328 321.582 63.5625 321.582C65.0922 321.582 66.262 322.756 66.262 324.291C66.262 325.826 65.0922 327 63.5625 327C62.0328 327 60.773 325.826 60.773 324.291ZM60.773 295.668C60.773 294.133 62.0328 292.869 63.5625 292.869C65.0922 292.869 66.262 294.133 66.262 295.668C66.262 297.203 65.0922 298.377 63.5625 298.377C62.0328 298.377 60.773 297.203 60.773 295.668ZM60.773 267.045C60.773 265.51 62.0328 264.246 63.5625 264.246C65.0922 264.246 66.262 265.51 66.262 267.045C66.262 268.58 65.0922 269.754 63.5625 269.754C62.0328 269.754 60.773 268.58 60.773 267.045ZM60.773 238.422C60.773 236.887 62.0328 235.623 63.5625 235.623C65.0922 235.623 66.262 236.887 66.262 238.422C66.262 239.867 65.0922 241.131 63.5625 241.131C62.0328 241.131 60.773 239.867 60.773 238.422ZM60.773 209.709C60.773 208.264 62.0328 207 63.5625 207C65.0922 207 66.262 208.264 66.262 209.709C66.262 211.244 65.0922 212.508 63.5625 212.508C62.0328 212.508 60.773 211.244 60.773 209.709ZM85.9683 324.291C85.9683 322.756 87.1381 321.582 88.6678 321.582C90.1975 321.582 91.3672 322.756 91.3672 324.291C91.3672 325.826 90.1975 327 88.6678 327C87.1381 327 85.9683 325.826 85.9683 324.291ZM85.9683 295.668C85.9683 294.133 87.1381 292.869 88.6678 292.869C90.1975 292.869 91.3672 294.133 91.3672 295.668C91.3672 297.203 90.1975 298.377 88.6678 298.377C87.1381 298.377 85.9683 297.203 85.9683 295.668ZM85.9683 267.045C85.9683 265.51 87.1381 264.246 88.6678 264.246C90.1975 264.246 91.3672 265.51 91.3672 267.045C91.3672 268.58 90.1975 269.754 88.6678 269.754C87.1381 269.754 85.9683 268.58 85.9683 267.045ZM85.9683 238.422C85.9683 236.887 87.1381 235.623 88.6678 235.623C90.1975 235.623 91.3672 236.887 91.3672 238.422C91.3672 239.867 90.1975 241.131 88.6678 241.131C87.1381 241.131 85.9683 239.867 85.9683 238.422ZM111.074 295.668C111.074 294.133 112.243 292.869 113.773 292.869C115.303 292.869 116.562 294.133 116.562 295.668C116.562 297.203 115.303 298.377 113.773 298.377C112.243 298.377 111.074 297.203 111.074 295.668ZM111.074 267.045C111.074 265.51 112.243 264.246 113.773 264.246C115.303 264.246 116.562 265.51 116.562 267.045C116.562 268.58 115.303 269.754 113.773 269.754C112.243 269.754 111.074 268.58 111.074 267.045ZM111.074 238.422C111.074 236.887 112.243 235.623 113.773 235.623C115.303 235.623 116.562 236.887 116.562 238.422C116.562 239.867 115.303 241.131 113.773 241.131C112.243 241.131 111.074 239.867 111.074 238.422ZM111.074 209.709C111.074 208.264 112.243 207 113.773 207C115.303 207 116.562 208.264 116.562 209.709C116.562 211.244 115.303 212.508 113.773 212.508C112.243 212.508 111.074 211.244 111.074 209.709ZM85.9683 209.709C85.9683 208.264 87.1381 207 88.6678 207C90.1975 207 91.3672 208.264 91.3672 209.709C91.3672 211.244 90.1975 212.508 88.6678 212.508C87.1381 212.508 85.9683 211.244 85.9683 209.709Z" fill="#8C52FF"/>
</svg>
