<svg width="404" height="351" viewBox="0 0 404 351" fill="none" xmlns="http://www.w3.org/2000/svg">
<path d="M301.937 132.906C258.62 95.4255 241.8 9.82469 199.375 8.27381C157.234 6.71075 116.883 70.5042 97.9833 135.408C79.041 200.274 81.1858 266.306 112.312 303.213C143.739 340.473 204.186 348.565 250.938 342.858C298.013 337.097 331.462 317.249 357.649 291.252C383.952 265.127 402.912 232.896 397.17 207.213C391.522 181.811 333.758 160.395 301.937 132.906Z" fill="white"/>
<path fill-rule="evenodd" clip-rule="evenodd" d="M125.165 281.637C125.165 279.731 126.621 278.273 128.526 278.273C130.431 278.273 132 279.731 132 281.637C132 283.543 130.431 285 128.526 285C126.621 285 125.165 283.543 125.165 281.637ZM0 281.637C0 279.731 1.56876 278.273 3.36163 278.273C5.26655 278.273 6.83531 279.731 6.83531 281.637C6.83531 283.543 5.26655 285 3.36163 285C1.56876 285 0 283.543 0 281.637ZM0 246.096C0 244.19 1.56876 242.621 3.36163 242.621C5.26655 242.621 6.83531 244.19 6.83531 246.096C6.83531 248.002 5.26655 249.46 3.36163 249.46C1.56876 249.46 0 248.002 0 246.096ZM0 210.556C0 208.65 1.56876 207.081 3.36163 207.081C5.26655 207.081 6.83531 208.65 6.83531 210.556C6.83531 212.462 5.26655 213.919 3.36163 213.919C1.56876 213.919 0 212.462 0 210.556ZM0 175.016C0 173.11 1.56876 171.54 3.36163 171.54C5.26655 171.54 6.83531 173.11 6.83531 175.016C6.83531 176.81 5.26655 178.379 3.36163 178.379C1.56876 178.379 0 176.81 0 175.016ZM0 139.363C0 137.57 1.56876 136 3.36163 136C5.26655 136 6.83531 137.57 6.83531 139.363C6.83531 141.269 5.26655 142.839 3.36163 142.839C1.56876 142.839 0 141.269 0 139.363ZM31.2632 281.637C31.2632 279.731 32.8319 278.273 34.7368 278.273C36.5297 278.273 38.0985 279.731 38.0985 281.637C38.0985 283.543 36.5297 285 34.7368 285C32.8319 285 31.2632 283.543 31.2632 281.637ZM31.2632 246.096C31.2632 244.19 32.8319 242.621 34.7368 242.621C36.5297 242.621 38.0985 244.19 38.0985 246.096C38.0985 248.002 36.5297 249.46 34.7368 249.46C32.8319 249.46 31.2632 248.002 31.2632 246.096ZM31.2632 210.556C31.2632 208.65 32.8319 207.081 34.7368 207.081C36.5297 207.081 38.0985 208.65 38.0985 210.556C38.0985 212.462 36.5297 213.919 34.7368 213.919C32.8319 213.919 31.2632 212.462 31.2632 210.556ZM31.2632 175.016C31.2632 173.11 32.8319 171.54 34.7368 171.54C36.5297 171.54 38.0985 173.11 38.0985 175.016C38.0985 176.81 36.5297 178.379 34.7368 178.379C32.8319 178.379 31.2632 176.81 31.2632 175.016ZM31.2632 139.363C31.2632 137.57 32.8319 136 34.7368 136C36.5297 136 38.0985 137.57 38.0985 139.363C38.0985 141.269 36.5297 142.839 34.7368 142.839C32.8319 142.839 31.2632 141.269 31.2632 139.363ZM62.5263 281.637C62.5263 279.731 64.0951 278.273 66 278.273C67.9049 278.273 69.3616 279.731 69.3616 281.637C69.3616 283.543 67.9049 285 66 285C64.0951 285 62.5263 283.543 62.5263 281.637ZM62.5263 246.096C62.5263 244.19 64.0951 242.621 66 242.621C67.9049 242.621 69.3616 244.19 69.3616 246.096C69.3616 248.002 67.9049 249.46 66 249.46C64.0951 249.46 62.5263 248.002 62.5263 246.096ZM62.5263 210.556C62.5263 208.65 64.0951 207.081 66 207.081C67.9049 207.081 69.3616 208.65 69.3616 210.556C69.3616 212.462 67.9049 213.919 66 213.919C64.0951 213.919 62.5263 212.462 62.5263 210.556ZM62.5263 175.016C62.5263 173.11 64.0951 171.54 66 171.54C67.9049 171.54 69.3616 173.11 69.3616 175.016C69.3616 176.81 67.9049 178.379 66 178.379C64.0951 178.379 62.5263 176.81 62.5263 175.016ZM62.5263 139.363C62.5263 137.57 64.0951 136 66 136C67.9049 136 69.3616 137.57 69.3616 139.363C69.3616 141.269 67.9049 142.839 66 142.839C64.0951 142.839 62.5263 141.269 62.5263 139.363ZM93.9015 281.637C93.9015 279.731 95.3582 278.273 97.2632 278.273C99.1681 278.273 100.625 279.731 100.625 281.637C100.625 283.543 99.1681 285 97.2632 285C95.3582 285 93.9015 283.543 93.9015 281.637ZM93.9015 246.096C93.9015 244.19 95.3582 242.621 97.2632 242.621C99.1681 242.621 100.625 244.19 100.625 246.096C100.625 248.002 99.1681 249.46 97.2632 249.46C95.3582 249.46 93.9015 248.002 93.9015 246.096ZM93.9015 210.556C93.9015 208.65 95.3582 207.081 97.2632 207.081C99.1681 207.081 100.625 208.65 100.625 210.556C100.625 212.462 99.1681 213.919 97.2632 213.919C95.3582 213.919 93.9015 212.462 93.9015 210.556ZM93.9015 175.016C93.9015 173.11 95.3582 171.54 97.2632 171.54C99.1681 171.54 100.625 173.11 100.625 175.016C100.625 176.81 99.1681 178.379 97.2632 178.379C95.3582 178.379 93.9015 176.81 93.9015 175.016ZM125.165 246.096C125.165 244.19 126.621 242.621 128.526 242.621C130.431 242.621 132 244.19 132 246.096C132 248.002 130.431 249.46 128.526 249.46C126.621 249.46 125.165 248.002 125.165 246.096ZM125.165 210.556C125.165 208.65 126.621 207.081 128.526 207.081C130.431 207.081 132 208.65 132 210.556C132 212.462 130.431 213.919 128.526 213.919C126.621 213.919 125.165 212.462 125.165 210.556ZM125.165 175.016C125.165 173.11 126.621 171.54 128.526 171.54C130.431 171.54 132 173.11 132 175.016C132 176.81 130.431 178.379 128.526 178.379C126.621 178.379 125.165 176.81 125.165 175.016ZM125.165 139.363C125.165 137.57 126.621 136 128.526 136C130.431 136 132 137.57 132 139.363C132 141.269 130.431 142.839 128.526 142.839C126.621 142.839 125.165 141.269 125.165 139.363ZM93.9015 139.363C93.9015 137.57 95.3582 136 97.2632 136C99.1681 136 100.625 137.57 100.625 139.363C100.625 141.269 99.1681 142.839 97.2632 142.839C95.3582 142.839 93.9015 141.269 93.9015 139.363Z" fill="#8C52FF"/>
</svg>
