<svg width="174" height="213" viewBox="0 0 174 213" fill="none" xmlns="http://www.w3.org/2000/svg">
<path d="M104.126 132.267C77.9118 150.136 64.2221 195.521 40.2903 193.999C16.5464 192.496 -2.95023 155.746 -10.3626 119.592C-17.775 83.4371 -13.296 47.8423 6.03403 29.6086C25.5476 11.2018 59.9187 10.1651 85.9 15.8514C112.057 21.5778 129.861 34.1796 143.283 49.6831C156.784 65.2778 165.815 83.7735 161.334 97.3485C156.901 110.787 123.372 119.16 104.126 132.267Z" fill="white"/>
<path fill-rule="evenodd" clip-rule="evenodd" d="M76.3733 184.194C76.3733 183.171 77.1458 182.388 78.1559 182.388C79.1661 182.388 79.998 183.171 79.998 184.194C79.998 185.217 79.1661 186 78.1559 186C77.1458 186 76.3733 185.217 76.3733 184.194ZM9.99805 184.194C9.99805 183.171 10.83 182.388 11.7807 182.388C12.7909 182.388 13.6228 183.171 13.6228 184.194C13.6228 185.217 12.7909 186 11.7807 186C10.83 186 9.99805 185.217 9.99805 184.194ZM9.99805 165.112C9.99805 164.089 10.83 163.246 11.7807 163.246C12.7909 163.246 13.6228 164.089 13.6228 165.112C13.6228 166.135 12.7909 166.918 11.7807 166.918C10.83 166.918 9.99805 166.135 9.99805 165.112ZM9.99805 146.03C9.99805 145.007 10.83 144.164 11.7807 144.164C12.7909 144.164 13.6228 145.007 13.6228 146.03C13.6228 147.053 12.7909 147.836 11.7807 147.836C10.83 147.836 9.99805 147.053 9.99805 146.03ZM9.99805 126.948C9.99805 125.925 10.83 125.082 11.7807 125.082C12.7909 125.082 13.6228 125.925 13.6228 126.948C13.6228 127.911 12.7909 128.754 11.7807 128.754C10.83 128.754 9.99805 127.911 9.99805 126.948ZM9.99805 107.806C9.99805 106.843 10.83 106 11.7807 106C12.7909 106 13.6228 106.843 13.6228 107.806C13.6228 108.829 12.7909 109.672 11.7807 109.672C10.83 109.672 9.99805 108.829 9.99805 107.806ZM26.577 184.194C26.577 183.171 27.4089 182.388 28.4191 182.388C29.3699 182.388 30.2018 183.171 30.2018 184.194C30.2018 185.217 29.3699 186 28.4191 186C27.4089 186 26.577 185.217 26.577 184.194ZM26.577 165.112C26.577 164.089 27.4089 163.246 28.4191 163.246C29.3699 163.246 30.2018 164.089 30.2018 165.112C30.2018 166.135 29.3699 166.918 28.4191 166.918C27.4089 166.918 26.577 166.135 26.577 165.112ZM26.577 146.03C26.577 145.007 27.4089 144.164 28.4191 144.164C29.3699 144.164 30.2018 145.007 30.2018 146.03C30.2018 147.053 29.3699 147.836 28.4191 147.836C27.4089 147.836 26.577 147.053 26.577 146.03ZM26.577 126.948C26.577 125.925 27.4089 125.082 28.4191 125.082C29.3699 125.082 30.2018 125.925 30.2018 126.948C30.2018 127.911 29.3699 128.754 28.4191 128.754C27.4089 128.754 26.577 127.911 26.577 126.948ZM26.577 107.806C26.577 106.843 27.4089 106 28.4191 106C29.3699 106 30.2018 106.843 30.2018 107.806C30.2018 108.829 29.3699 109.672 28.4191 109.672C27.4089 109.672 26.577 108.829 26.577 107.806ZM43.1559 184.194C43.1559 183.171 43.9879 182.388 44.998 182.388C46.0082 182.388 46.7807 183.171 46.7807 184.194C46.7807 185.217 46.0082 186 44.998 186C43.9879 186 43.1559 185.217 43.1559 184.194ZM43.1559 165.112C43.1559 164.089 43.9879 163.246 44.998 163.246C46.0082 163.246 46.7807 164.089 46.7807 165.112C46.7807 166.135 46.0082 166.918 44.998 166.918C43.9879 166.918 43.1559 166.135 43.1559 165.112ZM43.1559 146.03C43.1559 145.007 43.9879 144.164 44.998 144.164C46.0082 144.164 46.7807 145.007 46.7807 146.03C46.7807 147.053 46.0082 147.836 44.998 147.836C43.9879 147.836 43.1559 147.053 43.1559 146.03ZM43.1559 126.948C43.1559 125.925 43.9879 125.082 44.998 125.082C46.0082 125.082 46.7807 125.925 46.7807 126.948C46.7807 127.911 46.0082 128.754 44.998 128.754C43.9879 128.754 43.1559 127.911 43.1559 126.948ZM43.1559 107.806C43.1559 106.843 43.9879 106 44.998 106C46.0082 106 46.7807 106.843 46.7807 107.806C46.7807 108.829 46.0082 109.672 44.998 109.672C43.9879 109.672 43.1559 108.829 43.1559 107.806ZM59.7943 184.194C59.7943 183.171 60.5668 182.388 61.577 182.388C62.5872 182.388 63.3597 183.171 63.3597 184.194C63.3597 185.217 62.5872 186 61.577 186C60.5668 186 59.7943 185.217 59.7943 184.194ZM59.7943 165.112C59.7943 164.089 60.5668 163.246 61.577 163.246C62.5872 163.246 63.3597 164.089 63.3597 165.112C63.3597 166.135 62.5872 166.918 61.577 166.918C60.5668 166.918 59.7943 166.135 59.7943 165.112ZM59.7943 146.03C59.7943 145.007 60.5668 144.164 61.577 144.164C62.5872 144.164 63.3597 145.007 63.3597 146.03C63.3597 147.053 62.5872 147.836 61.577 147.836C60.5668 147.836 59.7943 147.053 59.7943 146.03ZM59.7943 126.948C59.7943 125.925 60.5668 125.082 61.577 125.082C62.5872 125.082 63.3597 125.925 63.3597 126.948C63.3597 127.911 62.5872 128.754 61.577 128.754C60.5668 128.754 59.7943 127.911 59.7943 126.948ZM76.3733 165.112C76.3733 164.089 77.1458 163.246 78.1559 163.246C79.1661 163.246 79.998 164.089 79.998 165.112C79.998 166.135 79.1661 166.918 78.1559 166.918C77.1458 166.918 76.3733 166.135 76.3733 165.112ZM76.3733 146.03C76.3733 145.007 77.1458 144.164 78.1559 144.164C79.1661 144.164 79.998 145.007 79.998 146.03C79.998 147.053 79.1661 147.836 78.1559 147.836C77.1458 147.836 76.3733 147.053 76.3733 146.03ZM76.3733 126.948C76.3733 125.925 77.1458 125.082 78.1559 125.082C79.1661 125.082 79.998 125.925 79.998 126.948C79.998 127.911 79.1661 128.754 78.1559 128.754C77.1458 128.754 76.3733 127.911 76.3733 126.948ZM76.3733 107.806C76.3733 106.843 77.1458 106 78.1559 106C79.1661 106 79.998 106.843 79.998 107.806C79.998 108.829 79.1661 109.672 78.1559 109.672C77.1458 109.672 76.3733 108.829 76.3733 107.806ZM59.7943 107.806C59.7943 106.843 60.5668 106 61.577 106C62.5872 106 63.3597 106.843 63.3597 107.806C63.3597 108.829 62.5872 109.672 61.577 109.672C60.5668 109.672 59.7943 108.829 59.7943 107.806Z" fill="#8C52FF"/>
</svg>
