<svg width="490" height="368" viewBox="0 0 490 368" fill="none" xmlns="http://www.w3.org/2000/svg">
<path d="M345.708 239.91C377.052 191.964 459.63 163.835 455.487 121.584C451.393 79.6136 382.772 48.1673 315.922 38.1274C249.104 28.0402 183.954 39.0064 151.547 74.794C118.83 110.926 118.903 171.912 130.818 217.479C142.83 263.36 166.978 293.85 196.247 316.32C225.658 338.889 260.137 353.363 284.82 344.235C309.238 335.236 322.727 275.125 345.708 239.91Z" fill="white"/>
<path fill-rule="evenodd" clip-rule="evenodd" d="M125.165 180.635C125.165 178.729 126.621 177.271 128.526 177.271C130.431 177.271 132 178.729 132 180.635C132 182.541 130.431 183.998 128.526 183.998C126.621 183.998 125.165 182.541 125.165 180.635ZM0 180.635C0 178.729 1.56876 177.271 3.36163 177.271C5.26655 177.271 6.83531 178.729 6.83531 180.635C6.83531 182.541 5.26655 183.998 3.36163 183.998C1.56876 183.998 0 182.541 0 180.635ZM0 145.094C0 143.188 1.56876 141.619 3.36163 141.619C5.26655 141.619 6.83531 143.188 6.83531 145.094C6.83531 147 5.26655 148.458 3.36163 148.458C1.56876 148.458 0 147 0 145.094ZM0 109.554C0 107.648 1.56876 106.079 3.36163 106.079C5.26655 106.079 6.83531 107.648 6.83531 109.554C6.83531 111.46 5.26655 112.918 3.36163 112.918C1.56876 112.918 0 111.46 0 109.554ZM0 74.0138C0 72.1079 1.56876 70.5383 3.36163 70.5383C5.26655 70.5383 6.83531 72.1079 6.83531 74.0138C6.83531 75.8077 5.26655 77.3773 3.36163 77.3773C1.56876 77.3773 0 75.8077 0 74.0138ZM0 38.3615C0 36.5676 1.56876 34.998 3.36163 34.998C5.26655 34.998 6.83531 36.5676 6.83531 38.3615C6.83531 40.2674 5.26655 41.837 3.36163 41.837C1.56876 41.837 0 40.2674 0 38.3615ZM31.2632 180.635C31.2632 178.729 32.8319 177.271 34.7368 177.271C36.5297 177.271 38.0985 178.729 38.0985 180.635C38.0985 182.541 36.5297 183.998 34.7368 183.998C32.8319 183.998 31.2632 182.541 31.2632 180.635ZM31.2632 145.094C31.2632 143.188 32.8319 141.619 34.7368 141.619C36.5297 141.619 38.0985 143.188 38.0985 145.094C38.0985 147 36.5297 148.458 34.7368 148.458C32.8319 148.458 31.2632 147 31.2632 145.094ZM31.2632 109.554C31.2632 107.648 32.8319 106.079 34.7368 106.079C36.5297 106.079 38.0985 107.648 38.0985 109.554C38.0985 111.46 36.5297 112.918 34.7368 112.918C32.8319 112.918 31.2632 111.46 31.2632 109.554ZM31.2632 74.0138C31.2632 72.1079 32.8319 70.5383 34.7368 70.5383C36.5297 70.5383 38.0985 72.1079 38.0985 74.0138C38.0985 75.8077 36.5297 77.3773 34.7368 77.3773C32.8319 77.3773 31.2632 75.8077 31.2632 74.0138ZM31.2632 38.3615C31.2632 36.5676 32.8319 34.998 34.7368 34.998C36.5297 34.998 38.0985 36.5676 38.0985 38.3615C38.0985 40.2674 36.5297 41.837 34.7368 41.837C32.8319 41.837 31.2632 40.2674 31.2632 38.3615ZM62.5263 180.635C62.5263 178.729 64.0951 177.271 66 177.271C67.9049 177.271 69.3616 178.729 69.3616 180.635C69.3616 182.541 67.9049 183.998 66 183.998C64.0951 183.998 62.5263 182.541 62.5263 180.635ZM62.5263 145.094C62.5263 143.188 64.0951 141.619 66 141.619C67.9049 141.619 69.3616 143.188 69.3616 145.094C69.3616 147 67.9049 148.458 66 148.458C64.0951 148.458 62.5263 147 62.5263 145.094ZM62.5263 109.554C62.5263 107.648 64.0951 106.079 66 106.079C67.9049 106.079 69.3616 107.648 69.3616 109.554C69.3616 111.46 67.9049 112.918 66 112.918C64.0951 112.918 62.5263 111.46 62.5263 109.554ZM62.5263 74.0138C62.5263 72.1079 64.0951 70.5383 66 70.5383C67.9049 70.5383 69.3616 72.1079 69.3616 74.0138C69.3616 75.8077 67.9049 77.3773 66 77.3773C64.0951 77.3773 62.5263 75.8077 62.5263 74.0138ZM62.5263 38.3615C62.5263 36.5676 64.0951 34.998 66 34.998C67.9049 34.998 69.3616 36.5676 69.3616 38.3615C69.3616 40.2674 67.9049 41.837 66 41.837C64.0951 41.837 62.5263 40.2674 62.5263 38.3615ZM93.9015 180.635C93.9015 178.729 95.3582 177.271 97.2632 177.271C99.1681 177.271 100.625 178.729 100.625 180.635C100.625 182.541 99.1681 183.998 97.2632 183.998C95.3582 183.998 93.9015 182.541 93.9015 180.635ZM93.9015 145.094C93.9015 143.188 95.3582 141.619 97.2632 141.619C99.1681 141.619 100.625 143.188 100.625 145.094C100.625 147 99.1681 148.458 97.2632 148.458C95.3582 148.458 93.9015 147 93.9015 145.094ZM93.9015 109.554C93.9015 107.648 95.3582 106.079 97.2632 106.079C99.1681 106.079 100.625 107.648 100.625 109.554C100.625 111.46 99.1681 112.918 97.2632 112.918C95.3582 112.918 93.9015 111.46 93.9015 109.554ZM93.9015 74.0138C93.9015 72.1079 95.3582 70.5383 97.2632 70.5383C99.1681 70.5383 100.625 72.1079 100.625 74.0138C100.625 75.8077 99.1681 77.3773 97.2632 77.3773C95.3582 77.3773 93.9015 75.8077 93.9015 74.0138ZM125.165 145.094C125.165 143.188 126.621 141.619 128.526 141.619C130.431 141.619 132 143.188 132 145.094C132 147 130.431 148.458 128.526 148.458C126.621 148.458 125.165 147 125.165 145.094ZM125.165 109.554C125.165 107.648 126.621 106.079 128.526 106.079C130.431 106.079 132 107.648 132 109.554C132 111.46 130.431 112.918 128.526 112.918C126.621 112.918 125.165 111.46 125.165 109.554ZM125.165 74.0138C125.165 72.1079 126.621 70.5383 128.526 70.5383C130.431 70.5383 132 72.1079 132 74.0138C132 75.8077 130.431 77.3773 128.526 77.3773C126.621 77.3773 125.165 75.8077 125.165 74.0138ZM125.165 38.3615C125.165 36.5676 126.621 34.998 128.526 34.998C130.431 34.998 132 36.5676 132 38.3615C132 40.2674 130.431 41.837 128.526 41.837C126.621 41.837 125.165 40.2674 125.165 38.3615ZM93.9015 38.3615C93.9015 36.5676 95.3582 34.998 97.2632 34.998C99.1681 34.998 100.625 36.5676 100.625 38.3615C100.625 40.2674 99.1681 41.837 97.2632 41.837C95.3582 41.837 93.9015 40.2674 93.9015 38.3615Z" fill="#8C52FF"/>
</svg>
