<svg width="308" height="280" viewBox="0 0 308 280" fill="none" xmlns="http://www.w3.org/2000/svg">
<path d="M90.9011 23.5414C120.74 9.07738 159.751 11.6379 186.446 28.9641C213.457 46.1183 227.808 78.1694 246.626 112.941C265.439 147.749 288.765 185.211 281.338 215.76C274.256 246.178 236.646 269.133 203.349 268.966C169.98 269.044 141.03 245.76 112.624 229.964C83.8354 214.294 56.0667 206.326 40.5403 185.834C24.9118 165.544 21.6567 133.076 30.5871 100.931C39.6485 69.131 60.8288 37.8624 90.9011 23.5414Z" fill="white"/>
<path fill-rule="evenodd" clip-rule="evenodd" d="M116.314 111.541C114.792 111.541 113.628 110.36 113.628 108.816C113.628 107.272 114.792 106 116.314 106C117.836 106 119 107.272 119 108.816C119 110.36 117.836 111.541 116.314 111.541ZM116.314 213C114.792 213 113.628 211.728 113.628 210.275C113.628 208.731 114.792 207.459 116.314 207.459C117.836 207.459 119 208.731 119 210.275C119 211.728 117.836 213 116.314 213ZM87.9293 213C86.4071 213 85.1535 211.728 85.1535 210.275C85.1535 208.731 86.4071 207.459 87.9293 207.459C89.4515 207.459 90.6155 208.731 90.6155 210.275C90.6155 211.728 89.4515 213 87.9293 213ZM59.5448 213C58.0226 213 56.769 211.728 56.769 210.275C56.769 208.731 58.0226 207.459 59.5448 207.459C61.067 207.459 62.231 208.731 62.231 210.275C62.231 211.728 61.067 213 59.5448 213ZM31.1603 213C29.6381 213 28.3845 211.728 28.3845 210.275C28.3845 208.731 29.6381 207.459 31.1603 207.459C32.5929 207.459 33.8465 208.731 33.8465 210.275C33.8465 211.728 32.5929 213 31.1603 213ZM2.68623 213C1.25357 213 0 211.728 0 210.275C0 208.731 1.25357 207.459 2.68623 207.459C4.20843 207.459 5.462 208.731 5.462 210.275C5.462 211.728 4.20843 213 2.68623 213ZM116.314 187.658C114.792 187.658 113.628 186.386 113.628 184.842C113.628 183.389 114.792 182.117 116.314 182.117C117.836 182.117 119 183.389 119 184.842C119 186.386 117.836 187.658 116.314 187.658ZM87.9293 187.658C86.4071 187.658 85.1535 186.386 85.1535 184.842C85.1535 183.389 86.4071 182.117 87.9293 182.117C89.4515 182.117 90.6155 183.389 90.6155 184.842C90.6155 186.386 89.4515 187.658 87.9293 187.658ZM59.5448 187.658C58.0226 187.658 56.769 186.386 56.769 184.842C56.769 183.389 58.0226 182.117 59.5448 182.117C61.067 182.117 62.231 183.389 62.231 184.842C62.231 186.386 61.067 187.658 59.5448 187.658ZM31.1603 187.658C29.6381 187.658 28.3845 186.386 28.3845 184.842C28.3845 183.389 29.6381 182.117 31.1603 182.117C32.5929 182.117 33.8465 183.389 33.8465 184.842C33.8465 186.386 32.5929 187.658 31.1603 187.658ZM2.68623 187.658C1.25357 187.658 0 186.386 0 184.842C0 183.389 1.25357 182.117 2.68623 182.117C4.20843 182.117 5.462 183.389 5.462 184.842C5.462 186.386 4.20843 187.658 2.68623 187.658ZM116.314 162.316C114.792 162.316 113.628 161.044 113.628 159.5C113.628 157.956 114.792 156.775 116.314 156.775C117.836 156.775 119 157.956 119 159.5C119 161.044 117.836 162.316 116.314 162.316ZM87.9293 162.316C86.4071 162.316 85.1535 161.044 85.1535 159.5C85.1535 157.956 86.4071 156.775 87.9293 156.775C89.4515 156.775 90.6155 157.956 90.6155 159.5C90.6155 161.044 89.4515 162.316 87.9293 162.316ZM59.5448 162.316C58.0226 162.316 56.769 161.044 56.769 159.5C56.769 157.956 58.0226 156.775 59.5448 156.775C61.067 156.775 62.231 157.956 62.231 159.5C62.231 161.044 61.067 162.316 59.5448 162.316ZM31.1603 162.316C29.6381 162.316 28.3845 161.044 28.3845 159.5C28.3845 157.956 29.6381 156.775 31.1603 156.775C32.5929 156.775 33.8465 157.956 33.8465 159.5C33.8465 161.044 32.5929 162.316 31.1603 162.316ZM2.68623 162.316C1.25357 162.316 0 161.044 0 159.5C0 157.956 1.25357 156.775 2.68623 156.775C4.20843 156.775 5.462 157.956 5.462 159.5C5.462 161.044 4.20843 162.316 2.68623 162.316ZM116.314 136.883C114.792 136.883 113.628 135.702 113.628 134.158C113.628 132.614 114.792 131.433 116.314 131.433C117.836 131.433 119 132.614 119 134.158C119 135.702 117.836 136.883 116.314 136.883ZM87.9293 136.883C86.4071 136.883 85.1535 135.702 85.1535 134.158C85.1535 132.614 86.4071 131.433 87.9293 131.433C89.4515 131.433 90.6155 132.614 90.6155 134.158C90.6155 135.702 89.4515 136.883 87.9293 136.883ZM59.5448 136.883C58.0226 136.883 56.769 135.702 56.769 134.158C56.769 132.614 58.0226 131.433 59.5448 131.433C61.067 131.433 62.231 132.614 62.231 134.158C62.231 135.702 61.067 136.883 59.5448 136.883ZM31.1603 136.883C29.6381 136.883 28.3845 135.702 28.3845 134.158C28.3845 132.614 29.6381 131.433 31.1603 131.433C32.5929 131.433 33.8465 132.614 33.8465 134.158C33.8465 135.702 32.5929 136.883 31.1603 136.883ZM87.9293 111.541C86.4071 111.541 85.1535 110.36 85.1535 108.816C85.1535 107.272 86.4071 106 87.9293 106C89.4515 106 90.6155 107.272 90.6155 108.816C90.6155 110.36 89.4515 111.541 87.9293 111.541ZM59.5448 111.541C58.0226 111.541 56.769 110.36 56.769 108.816C56.769 107.272 58.0226 106 59.5448 106C61.067 106 62.231 107.272 62.231 108.816C62.231 110.36 61.067 111.541 59.5448 111.541ZM31.1603 111.541C29.6381 111.541 28.3845 110.36 28.3845 108.816C28.3845 107.272 29.6381 106 31.1603 106C32.5929 106 33.8465 107.272 33.8465 108.816C33.8465 110.36 32.5929 111.541 31.1603 111.541ZM2.68623 111.541C1.25357 111.541 0 110.36 0 108.816C0 107.272 1.25357 106 2.68623 106C4.20843 106 5.462 107.272 5.462 108.816C5.462 110.36 4.20843 111.541 2.68623 111.541ZM2.68623 136.883C1.25357 136.883 0 135.702 0 134.158C0 132.614 1.25357 131.433 2.68623 131.433C4.20843 131.433 5.462 132.614 5.462 134.158C5.462 135.702 4.20843 136.883 2.68623 136.883Z" fill="#8C52FF"/>
</svg>
