<svg width="149" height="153" viewBox="0 0 149 153" fill="none" xmlns="http://www.w3.org/2000/svg">
<path d="M18.4103 11.159C35.3142 0.693141 58.7373 -0.184989 75.7264 8.50217C92.8931 17.0674 103.428 35.2974 116.794 54.8747C130.16 74.4735 146.381 95.3774 143.835 114.054C141.487 132.631 120.473 148.64 100.604 150.594C80.7081 152.697 62.0076 140.596 44.0923 132.927C25.9573 125.357 8.90523 122.317 -1.61793 111.053C-12.1895 99.916 -16.1326 80.7531 -12.7886 61.0314C-9.34513 41.508 1.35859 21.554 18.4103 11.159Z" fill="white"/>
<path fill-rule="evenodd" clip-rule="evenodd" d="M91.0623 47.9088C90.2632 47.9088 89.6521 47.2889 89.6521 46.4783C89.6521 45.6677 90.2632 45.0001 91.0623 45.0001C91.8614 45.0001 92.4725 45.6677 92.4725 46.4783C92.4725 47.2889 91.8614 47.9088 91.0623 47.9088ZM91.0623 101.173C90.2632 101.173 89.6521 100.505 89.6521 99.7423C89.6521 98.9317 90.2632 98.2641 91.0623 98.2641C91.8614 98.2641 92.4725 98.9317 92.4725 99.7423C92.4725 100.505 91.8614 101.173 91.0623 101.173ZM76.161 101.173C75.3619 101.173 74.7038 100.505 74.7038 99.7423C74.7038 98.9317 75.3619 98.2641 76.161 98.2641C76.9602 98.2641 77.5713 98.9317 77.5713 99.7423C77.5713 100.505 76.9602 101.173 76.161 101.173ZM61.2598 101.173C60.4607 101.173 59.8026 100.505 59.8026 99.7423C59.8026 98.9317 60.4607 98.2641 61.2598 98.2641C62.0589 98.2641 62.67 98.9317 62.67 99.7423C62.67 100.505 62.0589 101.173 61.2598 101.173ZM46.3585 101.173C45.5594 101.173 44.9013 100.505 44.9013 99.7423C44.9013 98.9317 45.5594 98.2641 46.3585 98.2641C47.1106 98.2641 47.7687 98.9317 47.7687 99.7423C47.7687 100.505 47.1106 101.173 46.3585 101.173ZM31.4102 101.173C30.6581 101.173 30 100.505 30 99.7423C30 98.9317 30.6581 98.2641 31.4102 98.2641C32.2093 98.2641 32.8674 98.9317 32.8674 99.7423C32.8674 100.505 32.2093 101.173 31.4102 101.173ZM91.0623 87.8688C90.2632 87.8688 89.6521 87.2012 89.6521 86.3905C89.6521 85.6276 90.2632 84.96 91.0623 84.96C91.8614 84.96 92.4725 85.6276 92.4725 86.3905C92.4725 87.2012 91.8614 87.8688 91.0623 87.8688ZM76.161 87.8688C75.3619 87.8688 74.7038 87.2012 74.7038 86.3905C74.7038 85.6276 75.3619 84.96 76.161 84.96C76.9602 84.96 77.5713 85.6276 77.5713 86.3905C77.5713 87.2012 76.9602 87.8688 76.161 87.8688ZM61.2598 87.8688C60.4607 87.8688 59.8026 87.2012 59.8026 86.3905C59.8026 85.6276 60.4607 84.96 61.2598 84.96C62.0589 84.96 62.67 85.6276 62.67 86.3905C62.67 87.2012 62.0589 87.8688 61.2598 87.8688ZM46.3585 87.8688C45.5594 87.8688 44.9013 87.2012 44.9013 86.3905C44.9013 85.6276 45.5594 84.96 46.3585 84.96C47.1106 84.96 47.7687 85.6276 47.7687 86.3905C47.7687 87.2012 47.1106 87.8688 46.3585 87.8688ZM31.4102 87.8688C30.6581 87.8688 30 87.2012 30 86.3905C30 85.6276 30.6581 84.96 31.4102 84.96C32.2093 84.96 32.8674 85.6276 32.8674 86.3905C32.8674 87.2012 32.2093 87.8688 31.4102 87.8688ZM91.0623 74.5647C90.2632 74.5647 89.6521 73.8971 89.6521 73.0865C89.6521 72.2758 90.2632 71.6559 91.0623 71.6559C91.8614 71.6559 92.4725 72.2758 92.4725 73.0865C92.4725 73.8971 91.8614 74.5647 91.0623 74.5647ZM76.161 74.5647C75.3619 74.5647 74.7038 73.8971 74.7038 73.0865C74.7038 72.2758 75.3619 71.6559 76.161 71.6559C76.9602 71.6559 77.5713 72.2758 77.5713 73.0865C77.5713 73.8971 76.9602 74.5647 76.161 74.5647ZM61.2598 74.5647C60.4607 74.5647 59.8026 73.8971 59.8026 73.0865C59.8026 72.2758 60.4607 71.6559 61.2598 71.6559C62.0589 71.6559 62.67 72.2758 62.67 73.0865C62.67 73.8971 62.0589 74.5647 61.2598 74.5647ZM46.3585 74.5647C45.5594 74.5647 44.9013 73.8971 44.9013 73.0865C44.9013 72.2758 45.5594 71.6559 46.3585 71.6559C47.1106 71.6559 47.7687 72.2758 47.7687 73.0865C47.7687 73.8971 47.1106 74.5647 46.3585 74.5647ZM31.4102 74.5647C30.6581 74.5647 30 73.8971 30 73.0865C30 72.2758 30.6581 71.6559 31.4102 71.6559C32.2093 71.6559 32.8674 72.2758 32.8674 73.0865C32.8674 73.8971 32.2093 74.5647 31.4102 74.5647ZM91.0623 61.2129C90.2632 61.2129 89.6521 60.593 89.6521 59.7824C89.6521 58.9717 90.2632 58.3518 91.0623 58.3518C91.8614 58.3518 92.4725 58.9717 92.4725 59.7824C92.4725 60.593 91.8614 61.2129 91.0623 61.2129ZM76.161 61.2129C75.3619 61.2129 74.7038 60.593 74.7038 59.7824C74.7038 58.9717 75.3619 58.3518 76.161 58.3518C76.9602 58.3518 77.5713 58.9717 77.5713 59.7824C77.5713 60.593 76.9602 61.2129 76.161 61.2129ZM61.2598 61.2129C60.4607 61.2129 59.8026 60.593 59.8026 59.7824C59.8026 58.9717 60.4607 58.3518 61.2598 58.3518C62.0589 58.3518 62.67 58.9717 62.67 59.7824C62.67 60.593 62.0589 61.2129 61.2598 61.2129ZM46.3585 61.2129C45.5594 61.2129 44.9013 60.593 44.9013 59.7824C44.9013 58.9717 45.5594 58.3518 46.3585 58.3518C47.1106 58.3518 47.7687 58.9717 47.7687 59.7824C47.7687 60.593 47.1106 61.2129 46.3585 61.2129ZM76.161 47.9088C75.3619 47.9088 74.7038 47.2889 74.7038 46.4783C74.7038 45.6677 75.3619 45.0001 76.161 45.0001C76.9602 45.0001 77.5713 45.6677 77.5713 46.4783C77.5713 47.2889 76.9602 47.9088 76.161 47.9088ZM61.2598 47.9088C60.4607 47.9088 59.8026 47.2889 59.8026 46.4783C59.8026 45.6677 60.4607 45.0001 61.2598 45.0001C62.0589 45.0001 62.67 45.6677 62.67 46.4783C62.67 47.2889 62.0589 47.9088 61.2598 47.9088ZM46.3585 47.9088C45.5594 47.9088 44.9013 47.2889 44.9013 46.4783C44.9013 45.6677 45.5594 45.0001 46.3585 45.0001C47.1106 45.0001 47.7687 45.6677 47.7687 46.4783C47.7687 47.2889 47.1106 47.9088 46.3585 47.9088ZM31.4102 47.9088C30.6581 47.9088 30 47.2889 30 46.4783C30 45.6677 30.6581 45.0001 31.4102 45.0001C32.2093 45.0001 32.8674 45.6677 32.8674 46.4783C32.8674 47.2889 32.2093 47.9088 31.4102 47.9088ZM31.4102 61.2129C30.6581 61.2129 30 60.593 30 59.7824C30 58.9717 30.6581 58.3518 31.4102 58.3518C32.2093 58.3518 32.8674 58.9717 32.8674 59.7824C32.8674 60.593 32.2093 61.2129 31.4102 61.2129Z" fill="#8C52FF"/>
</svg>
