<svg width="378" height="328" viewBox="0 0 378 328" fill="none" xmlns="http://www.w3.org/2000/svg">
<path d="M95.192 23.4239C131.67 0.197193 182.603 -2.37499 219.812 16.0255C257.403 34.1558 280.841 73.4809 310.479 115.654C340.115 157.874 376.001 202.85 370.993 243.516C366.414 283.961 321.151 319.352 277.981 324.161C234.756 329.297 193.727 303.524 154.532 287.363C114.863 271.422 77.6779 265.298 54.4632 241.113C31.1468 217.207 22.0226 175.667 28.7362 132.707C35.6719 90.1745 58.3906 46.5007 95.192 23.4239Z" fill="white"/>
<path fill-rule="evenodd" clip-rule="evenodd" d="M148.867 58.9907C146.919 58.9907 145.429 57.5008 145.429 55.5526C145.429 53.6044 146.919 52 148.867 52C150.815 52 152.305 53.6044 152.305 55.5526C152.305 57.5008 150.815 58.9907 148.867 58.9907ZM148.867 187C146.919 187 145.429 185.396 145.429 183.562C145.429 181.614 146.919 180.009 148.867 180.009C150.815 180.009 152.305 181.614 152.305 183.562C152.305 185.396 150.815 187 148.867 187ZM112.538 187C110.59 187 108.986 185.396 108.986 183.562C108.986 181.614 110.59 180.009 112.538 180.009C114.486 180.009 115.976 181.614 115.976 183.562C115.976 185.396 114.486 187 112.538 187ZM76.2097 187C74.2615 187 72.6571 185.396 72.6571 183.562C72.6571 181.614 74.2615 180.009 76.2097 180.009C78.1579 180.009 79.6477 181.614 79.6477 183.562C79.6477 185.396 78.1579 187 76.2097 187ZM39.8812 187C37.9329 187 36.3285 185.396 36.3285 183.562C36.3285 181.614 37.9329 180.009 39.8812 180.009C41.7148 180.009 43.3192 181.614 43.3192 183.562C43.3192 185.396 41.7148 187 39.8812 187ZM3.43803 187C1.60441 187 0 185.396 0 183.562C0 181.614 1.60441 180.009 3.43803 180.009C5.38625 180.009 6.99066 181.614 6.99066 183.562C6.99066 185.396 5.38625 187 3.43803 187ZM148.867 155.026C146.919 155.026 145.429 153.422 145.429 151.474C145.429 149.64 146.919 148.036 148.867 148.036C150.815 148.036 152.305 149.64 152.305 151.474C152.305 153.422 150.815 155.026 148.867 155.026ZM112.538 155.026C110.59 155.026 108.986 153.422 108.986 151.474C108.986 149.64 110.59 148.036 112.538 148.036C114.486 148.036 115.976 149.64 115.976 151.474C115.976 153.422 114.486 155.026 112.538 155.026ZM76.2097 155.026C74.2615 155.026 72.6571 153.422 72.6571 151.474C72.6571 149.64 74.2615 148.036 76.2097 148.036C78.1579 148.036 79.6477 149.64 79.6477 151.474C79.6477 153.422 78.1579 155.026 76.2097 155.026ZM39.8812 155.026C37.9329 155.026 36.3285 153.422 36.3285 151.474C36.3285 149.64 37.9329 148.036 39.8812 148.036C41.7148 148.036 43.3192 149.64 43.3192 151.474C43.3192 153.422 41.7148 155.026 39.8812 155.026ZM3.43803 155.026C1.60441 155.026 0 153.422 0 151.474C0 149.64 1.60441 148.036 3.43803 148.036C5.38625 148.036 6.99066 149.64 6.99066 151.474C6.99066 153.422 5.38625 155.026 3.43803 155.026ZM148.867 123.053C146.919 123.053 145.429 121.448 145.429 119.5C145.429 117.552 146.919 116.062 148.867 116.062C150.815 116.062 152.305 117.552 152.305 119.5C152.305 121.448 150.815 123.053 148.867 123.053ZM112.538 123.053C110.59 123.053 108.986 121.448 108.986 119.5C108.986 117.552 110.59 116.062 112.538 116.062C114.486 116.062 115.976 117.552 115.976 119.5C115.976 121.448 114.486 123.053 112.538 123.053ZM76.2097 123.053C74.2615 123.053 72.6571 121.448 72.6571 119.5C72.6571 117.552 74.2615 116.062 76.2097 116.062C78.1579 116.062 79.6477 117.552 79.6477 119.5C79.6477 121.448 78.1579 123.053 76.2097 123.053ZM39.8812 123.053C37.9329 123.053 36.3285 121.448 36.3285 119.5C36.3285 117.552 37.9329 116.062 39.8812 116.062C41.7148 116.062 43.3192 117.552 43.3192 119.5C43.3192 121.448 41.7148 123.053 39.8812 123.053ZM3.43803 123.053C1.60441 123.053 0 121.448 0 119.5C0 117.552 1.60441 116.062 3.43803 116.062C5.38625 116.062 6.99066 117.552 6.99066 119.5C6.99066 121.448 5.38625 123.053 3.43803 123.053ZM148.867 90.9643C146.919 90.9643 145.429 89.4745 145.429 87.5263C145.429 85.5781 146.919 84.0883 148.867 84.0883C150.815 84.0883 152.305 85.5781 152.305 87.5263C152.305 89.4745 150.815 90.9643 148.867 90.9643ZM112.538 90.9643C110.59 90.9643 108.986 89.4745 108.986 87.5263C108.986 85.5781 110.59 84.0883 112.538 84.0883C114.486 84.0883 115.976 85.5781 115.976 87.5263C115.976 89.4745 114.486 90.9643 112.538 90.9643ZM76.2097 90.9643C74.2615 90.9643 72.6571 89.4745 72.6571 87.5263C72.6571 85.5781 74.2615 84.0883 76.2097 84.0883C78.1579 84.0883 79.6477 85.5781 79.6477 87.5263C79.6477 89.4745 78.1579 90.9643 76.2097 90.9643ZM39.8812 90.9643C37.9329 90.9643 36.3285 89.4745 36.3285 87.5263C36.3285 85.5781 37.9329 84.0883 39.8812 84.0883C41.7148 84.0883 43.3192 85.5781 43.3192 87.5263C43.3192 89.4745 41.7148 90.9643 39.8812 90.9643ZM112.538 58.9907C110.59 58.9907 108.986 57.5008 108.986 55.5526C108.986 53.6044 110.59 52 112.538 52C114.486 52 115.976 53.6044 115.976 55.5526C115.976 57.5008 114.486 58.9907 112.538 58.9907ZM76.2097 58.9907C74.2615 58.9907 72.6571 57.5008 72.6571 55.5526C72.6571 53.6044 74.2615 52 76.2097 52C78.1579 52 79.6477 53.6044 79.6477 55.5526C79.6477 57.5008 78.1579 58.9907 76.2097 58.9907ZM39.8812 58.9907C37.9329 58.9907 36.3285 57.5008 36.3285 55.5526C36.3285 53.6044 37.9329 52 39.8812 52C41.7148 52 43.3192 53.6044 43.3192 55.5526C43.3192 57.5008 41.7148 58.9907 39.8812 58.9907ZM3.43803 58.9907C1.60441 58.9907 0 57.5008 0 55.5526C0 53.6044 1.60441 52 3.43803 52C5.38625 52 6.99066 53.6044 6.99066 55.5526C6.99066 57.5008 5.38625 58.9907 3.43803 58.9907ZM3.43803 90.9643C1.60441 90.9643 0 89.4745 0 87.5263C0 85.5781 1.60441 84.0883 3.43803 84.0883C5.38625 84.0883 6.99066 85.5781 6.99066 87.5263C6.99066 89.4745 5.38625 90.9643 3.43803 90.9643Z" fill="#8C52FF"/>
</svg>
