<svg width="148" height="186" viewBox="0 0 148 186" fill="none" xmlns="http://www.w3.org/2000/svg">
<path d="M65.5838 121.719C86.1556 132.412 94.1655 179.804 114.758 180.228C135.162 180.615 158.203 142.369 162.383 114.466C166.56 86.5159 160.484 58.2577 142.668 42.6027C124.708 26.8606 100.519 26.7303 78.4425 29.4815C56.2259 32.2393 27.5162 48.5764 16.8846 59.9036C6.20633 71.233 -0.465224 85.1924 4.22164 96.1618C8.90401 107.037 45.012 111.026 65.5838 121.719Z" fill="white"/>
<path fill-rule="evenodd" clip-rule="evenodd" d="M117.064 2.90879C116.265 2.90879 115.654 2.28888 115.654 1.47824C115.654 0.667595 116.265 1.14441e-05 117.064 1.14441e-05C117.863 1.14441e-05 118.474 0.667595 118.474 1.47824C118.474 2.28888 117.863 2.90879 117.064 2.90879ZM117.064 56.1728C116.265 56.1728 115.654 55.5052 115.654 54.7422C115.654 53.9316 116.265 53.264 117.064 53.264C117.863 53.264 118.474 53.9316 118.474 54.7422C118.474 55.5052 117.863 56.1728 117.064 56.1728ZM102.163 56.1728C101.364 56.1728 100.706 55.5052 100.706 54.7422C100.706 53.9316 101.364 53.264 102.163 53.264C102.962 53.264 103.573 53.9316 103.573 54.7422C103.573 55.5052 102.962 56.1728 102.163 56.1728ZM87.2617 56.1728C86.4626 56.1728 85.8045 55.5052 85.8045 54.7422C85.8045 53.9316 86.4626 53.264 87.2617 53.264C88.0608 53.264 88.6719 53.9316 88.6719 54.7422C88.6719 55.5052 88.0608 56.1728 87.2617 56.1728ZM72.3605 56.1728C71.5613 56.1728 70.9032 55.5052 70.9032 54.7422C70.9032 53.9316 71.5613 53.264 72.3605 53.264C73.1126 53.264 73.7707 53.9316 73.7707 54.7422C73.7707 55.5052 73.1126 56.1728 72.3605 56.1728ZM57.4122 56.1728C56.6601 56.1728 56.002 55.5052 56.002 54.7422C56.002 53.9316 56.6601 53.264 57.4122 53.264C58.2113 53.264 58.8694 53.9316 58.8694 54.7422C58.8694 55.5052 58.2113 56.1728 57.4122 56.1728ZM117.064 42.8687C116.265 42.8687 115.654 42.2011 115.654 41.3905C115.654 40.6275 116.265 39.9599 117.064 39.9599C117.863 39.9599 118.474 40.6275 118.474 41.3905C118.474 42.2011 117.863 42.8687 117.064 42.8687ZM102.163 42.8687C101.364 42.8687 100.706 42.2011 100.706 41.3905C100.706 40.6275 101.364 39.9599 102.163 39.9599C102.962 39.9599 103.573 40.6275 103.573 41.3905C103.573 42.2011 102.962 42.8687 102.163 42.8687ZM87.2617 42.8687C86.4626 42.8687 85.8045 42.2011 85.8045 41.3905C85.8045 40.6275 86.4626 39.9599 87.2617 39.9599C88.0608 39.9599 88.6719 40.6275 88.6719 41.3905C88.6719 42.2011 88.0608 42.8687 87.2617 42.8687ZM72.3605 42.8687C71.5613 42.8687 70.9032 42.2011 70.9032 41.3905C70.9032 40.6275 71.5613 39.9599 72.3605 39.9599C73.1126 39.9599 73.7707 40.6275 73.7707 41.3905C73.7707 42.2011 73.1126 42.8687 72.3605 42.8687ZM57.4122 42.8687C56.6601 42.8687 56.002 42.2011 56.002 41.3905C56.002 40.6275 56.6601 39.9599 57.4122 39.9599C58.2113 39.9599 58.8694 40.6275 58.8694 41.3905C58.8694 42.2011 58.2113 42.8687 57.4122 42.8687ZM117.064 29.5646C116.265 29.5646 115.654 28.897 115.654 28.0864C115.654 27.2758 116.265 26.6559 117.064 26.6559C117.863 26.6559 118.474 27.2758 118.474 28.0864C118.474 28.897 117.863 29.5646 117.064 29.5646ZM102.163 29.5646C101.364 29.5646 100.706 28.897 100.706 28.0864C100.706 27.2758 101.364 26.6559 102.163 26.6559C102.962 26.6559 103.573 27.2758 103.573 28.0864C103.573 28.897 102.962 29.5646 102.163 29.5646ZM87.2617 29.5646C86.4626 29.5646 85.8045 28.897 85.8045 28.0864C85.8045 27.2758 86.4626 26.6559 87.2617 26.6559C88.0608 26.6559 88.6719 27.2758 88.6719 28.0864C88.6719 28.897 88.0608 29.5646 87.2617 29.5646ZM72.3605 29.5646C71.5613 29.5646 70.9032 28.897 70.9032 28.0864C70.9032 27.2758 71.5613 26.6559 72.3605 26.6559C73.1126 26.6559 73.7707 27.2758 73.7707 28.0864C73.7707 28.897 73.1126 29.5646 72.3605 29.5646ZM57.4122 29.5646C56.6601 29.5646 56.002 28.897 56.002 28.0864C56.002 27.2758 56.6601 26.6559 57.4122 26.6559C58.2113 26.6559 58.8694 27.2758 58.8694 28.0864C58.8694 28.897 58.2113 29.5646 57.4122 29.5646ZM117.064 16.2129C116.265 16.2129 115.654 15.593 115.654 14.7823C115.654 13.9717 116.265 13.3518 117.064 13.3518C117.863 13.3518 118.474 13.9717 118.474 14.7823C118.474 15.593 117.863 16.2129 117.064 16.2129ZM102.163 16.2129C101.364 16.2129 100.706 15.593 100.706 14.7823C100.706 13.9717 101.364 13.3518 102.163 13.3518C102.962 13.3518 103.573 13.9717 103.573 14.7823C103.573 15.593 102.962 16.2129 102.163 16.2129ZM87.2617 16.2129C86.4626 16.2129 85.8045 15.593 85.8045 14.7823C85.8045 13.9717 86.4626 13.3518 87.2617 13.3518C88.0608 13.3518 88.6719 13.9717 88.6719 14.7823C88.6719 15.593 88.0608 16.2129 87.2617 16.2129ZM72.3605 16.2129C71.5613 16.2129 70.9032 15.593 70.9032 14.7823C70.9032 13.9717 71.5613 13.3518 72.3605 13.3518C73.1126 13.3518 73.7707 13.9717 73.7707 14.7823C73.7707 15.593 73.1126 16.2129 72.3605 16.2129ZM102.163 2.90879C101.364 2.90879 100.706 2.28888 100.706 1.47824C100.706 0.667595 101.364 1.14441e-05 102.163 1.14441e-05C102.962 1.14441e-05 103.573 0.667595 103.573 1.47824C103.573 2.28888 102.962 2.90879 102.163 2.90879ZM87.2617 2.90879C86.4626 2.90879 85.8045 2.28888 85.8045 1.47824C85.8045 0.667595 86.4626 1.14441e-05 87.2617 1.14441e-05C88.0608 1.14441e-05 88.6719 0.667595 88.6719 1.47824C88.6719 2.28888 88.0608 2.90879 87.2617 2.90879ZM72.3605 2.90879C71.5613 2.90879 70.9032 2.28888 70.9032 1.47824C70.9032 0.667595 71.5613 1.14441e-05 72.3605 1.14441e-05C73.1126 1.14441e-05 73.7707 0.667595 73.7707 1.47824C73.7707 2.28888 73.1126 2.90879 72.3605 2.90879ZM57.4122 2.90879C56.6601 2.90879 56.002 2.28888 56.002 1.47824C56.002 0.667595 56.6601 1.14441e-05 57.4122 1.14441e-05C58.2113 1.14441e-05 58.8694 0.667595 58.8694 1.47824C58.8694 2.28888 58.2113 2.90879 57.4122 2.90879ZM57.4122 16.2129C56.6601 16.2129 56.002 15.593 56.002 14.7823C56.002 13.9717 56.6601 13.3518 57.4122 13.3518C58.2113 13.3518 58.8694 13.9717 58.8694 14.7823C58.8694 15.593 58.2113 16.2129 57.4122 16.2129Z" fill="#8C52FF"/>
</svg>
