<svg width="436" height="411" viewBox="0 0 436 411" fill="none" xmlns="http://www.w3.org/2000/svg">
<path d="M166.573 275.864C126.381 223.858 29.3255 199.161 30.2629 150.465C31.1775 102.151 106.859 60.0537 182.434 42.5341C258.009 25.0145 333.533 31.6782 373.839 69.6822C414.529 108.047 419.983 177.766 410.455 230.908C400.859 284.411 375.964 321.421 344.53 349.733C312.911 378.211 274.747 397.812 245.68 389.64C216.907 381.557 196.054 314.049 166.573 275.864Z" fill="white"/>
<path fill-rule="evenodd" clip-rule="evenodd" d="M421.009 260.867C421.009 258.919 422.499 257.429 424.447 257.429C426.396 257.429 428 258.919 428 260.867C428 262.815 426.396 264.305 424.447 264.305C422.499 264.305 421.009 262.815 421.009 260.867ZM293 260.867C293 258.919 294.604 257.429 296.438 257.429C298.386 257.429 299.991 258.919 299.991 260.867C299.991 262.815 298.386 264.305 296.438 264.305C294.604 264.305 293 262.815 293 260.867ZM293 224.539C293 222.59 294.604 220.986 296.438 220.986C298.386 220.986 299.991 222.59 299.991 224.539C299.991 226.487 298.386 227.977 296.438 227.977C294.604 227.977 293 226.487 293 224.539ZM293 188.21C293 186.262 294.604 184.657 296.438 184.657C298.386 184.657 299.991 186.262 299.991 188.21C299.991 190.158 298.386 191.648 296.438 191.648C294.604 191.648 293 190.158 293 188.21ZM293 151.881C293 149.933 294.604 148.329 296.438 148.329C298.386 148.329 299.991 149.933 299.991 151.881C299.991 153.715 298.386 155.319 296.438 155.319C294.604 155.319 293 153.715 293 151.881ZM293 115.438C293 113.605 294.604 112 296.438 112C298.386 112 299.991 113.605 299.991 115.438C299.991 117.387 298.386 118.991 296.438 118.991C294.604 118.991 293 117.387 293 115.438ZM324.974 260.867C324.974 258.919 326.578 257.429 328.526 257.429C330.36 257.429 331.964 258.919 331.964 260.867C331.964 262.815 330.36 264.305 328.526 264.305C326.578 264.305 324.974 262.815 324.974 260.867ZM324.974 224.539C324.974 222.59 326.578 220.986 328.526 220.986C330.36 220.986 331.964 222.59 331.964 224.539C331.964 226.487 330.36 227.977 328.526 227.977C326.578 227.977 324.974 226.487 324.974 224.539ZM324.974 188.21C324.974 186.262 326.578 184.657 328.526 184.657C330.36 184.657 331.964 186.262 331.964 188.21C331.964 190.158 330.36 191.648 328.526 191.648C326.578 191.648 324.974 190.158 324.974 188.21ZM324.974 151.881C324.974 149.933 326.578 148.329 328.526 148.329C330.36 148.329 331.964 149.933 331.964 151.881C331.964 153.715 330.36 155.319 328.526 155.319C326.578 155.319 324.974 153.715 324.974 151.881ZM324.974 115.438C324.974 113.605 326.578 112 328.526 112C330.36 112 331.964 113.605 331.964 115.438C331.964 117.387 330.36 118.991 328.526 118.991C326.578 118.991 324.974 117.387 324.974 115.438ZM356.947 260.867C356.947 258.919 358.552 257.429 360.5 257.429C362.448 257.429 363.938 258.919 363.938 260.867C363.938 262.815 362.448 264.305 360.5 264.305C358.552 264.305 356.947 262.815 356.947 260.867ZM356.947 224.539C356.947 222.59 358.552 220.986 360.5 220.986C362.448 220.986 363.938 222.59 363.938 224.539C363.938 226.487 362.448 227.977 360.5 227.977C358.552 227.977 356.947 226.487 356.947 224.539ZM356.947 188.21C356.947 186.262 358.552 184.657 360.5 184.657C362.448 184.657 363.938 186.262 363.938 188.21C363.938 190.158 362.448 191.648 360.5 191.648C358.552 191.648 356.947 190.158 356.947 188.21ZM356.947 151.881C356.947 149.933 358.552 148.329 360.5 148.329C362.448 148.329 363.938 149.933 363.938 151.881C363.938 153.715 362.448 155.319 360.5 155.319C358.552 155.319 356.947 153.715 356.947 151.881ZM356.947 115.438C356.947 113.605 358.552 112 360.5 112C362.448 112 363.938 113.605 363.938 115.438C363.938 117.387 362.448 118.991 360.5 118.991C358.552 118.991 356.947 117.387 356.947 115.438ZM389.036 260.867C389.036 258.919 390.525 257.429 392.474 257.429C394.422 257.429 395.912 258.919 395.912 260.867C395.912 262.815 394.422 264.305 392.474 264.305C390.525 264.305 389.036 262.815 389.036 260.867ZM389.036 224.539C389.036 222.59 390.525 220.986 392.474 220.986C394.422 220.986 395.912 222.59 395.912 224.539C395.912 226.487 394.422 227.977 392.474 227.977C390.525 227.977 389.036 226.487 389.036 224.539ZM389.036 188.21C389.036 186.262 390.525 184.657 392.474 184.657C394.422 184.657 395.912 186.262 395.912 188.21C395.912 190.158 394.422 191.648 392.474 191.648C390.525 191.648 389.036 190.158 389.036 188.21ZM389.036 151.881C389.036 149.933 390.525 148.329 392.474 148.329C394.422 148.329 395.912 149.933 395.912 151.881C395.912 153.715 394.422 155.319 392.474 155.319C390.525 155.319 389.036 153.715 389.036 151.881ZM421.009 224.539C421.009 222.59 422.499 220.986 424.447 220.986C426.396 220.986 428 222.59 428 224.539C428 226.487 426.396 227.977 424.447 227.977C422.499 227.977 421.009 226.487 421.009 224.539ZM421.009 188.21C421.009 186.262 422.499 184.657 424.447 184.657C426.396 184.657 428 186.262 428 188.21C428 190.158 426.396 191.648 424.447 191.648C422.499 191.648 421.009 190.158 421.009 188.21ZM421.009 151.881C421.009 149.933 422.499 148.329 424.447 148.329C426.396 148.329 428 149.933 428 151.881C428 153.715 426.396 155.319 424.447 155.319C422.499 155.319 421.009 153.715 421.009 151.881ZM421.009 115.438C421.009 113.605 422.499 112 424.447 112C426.396 112 428 113.605 428 115.438C428 117.387 426.396 118.991 424.447 118.991C422.499 118.991 421.009 117.387 421.009 115.438ZM389.036 115.438C389.036 113.605 390.525 112 392.474 112C394.422 112 395.912 113.605 395.912 115.438C395.912 117.387 394.422 118.991 392.474 118.991C390.525 118.991 389.036 117.387 389.036 115.438Z" fill="#8C52FF"/>
</svg>
