<svg width="175" height="196" viewBox="0 0 175 196" fill="none" xmlns="http://www.w3.org/2000/svg">
<path d="M155.09 179.926C134.017 190.817 106.074 189.701 86.666 177.801C67.0357 166.029 56.1857 143.373 42.0911 118.852C27.9995 94.3066 10.6317 67.945 15.3826 45.9634C19.8886 24.0819 46.3624 6.97657 70.1764 6.48492C94.0374 5.81765 115.166 21.9366 135.77 32.7113C156.643 43.3889 176.647 48.5773 188.126 62.9467C199.674 77.1691 202.597 100.327 196.801 123.479C190.904 146.385 176.332 169.133 155.09 179.926Z" fill="white"/>
<path fill-rule="evenodd" clip-rule="evenodd" d="M143.217 44.7284C142.206 44.7284 141.433 43.9338 141.433 42.8947C141.433 41.8557 142.206 41 143.217 41C144.227 41 145 41.8557 145 42.8947C145 43.9338 144.227 44.7284 143.217 44.7284ZM143.217 113C142.206 113 141.433 112.144 141.433 111.166C141.433 110.127 142.206 109.272 143.217 109.272C144.227 109.272 145 110.127 145 111.166C145 112.144 144.227 113 143.217 113ZM124.373 113C123.363 113 122.53 112.144 122.53 111.166C122.53 110.127 123.363 109.272 124.373 109.272C125.384 109.272 126.157 110.127 126.157 111.166C126.157 112.144 125.384 113 124.373 113ZM105.53 113C104.519 113 103.687 112.144 103.687 111.166C103.687 110.127 104.519 109.272 105.53 109.272C106.54 109.272 107.313 110.127 107.313 111.166C107.313 112.144 106.54 113 105.53 113ZM86.6862 113C85.6757 113 84.8435 112.144 84.8435 111.166C84.8435 110.127 85.6757 109.272 86.6862 109.272C87.6373 109.272 88.4695 110.127 88.4695 111.166C88.4695 112.144 87.6373 113 86.6862 113ZM67.7833 113C66.8322 113 66 112.144 66 111.166C66 110.127 66.8322 109.272 67.7833 109.272C68.7938 109.272 69.626 110.127 69.626 111.166C69.626 112.144 68.7938 113 67.7833 113ZM143.217 95.9474C142.206 95.9474 141.433 95.0917 141.433 94.0526C141.433 93.0747 142.206 92.219 143.217 92.219C144.227 92.219 145 93.0747 145 94.0526C145 95.0917 144.227 95.9474 143.217 95.9474ZM124.373 95.9474C123.363 95.9474 122.53 95.0917 122.53 94.0526C122.53 93.0747 123.363 92.219 124.373 92.219C125.384 92.219 126.157 93.0747 126.157 94.0526C126.157 95.0917 125.384 95.9474 124.373 95.9474ZM105.53 95.9474C104.519 95.9474 103.687 95.0917 103.687 94.0526C103.687 93.0747 104.519 92.219 105.53 92.219C106.54 92.219 107.313 93.0747 107.313 94.0526C107.313 95.0917 106.54 95.9474 105.53 95.9474ZM86.6862 95.9474C85.6757 95.9474 84.8435 95.0917 84.8435 94.0526C84.8435 93.0747 85.6757 92.219 86.6862 92.219C87.6373 92.219 88.4695 93.0747 88.4695 94.0526C88.4695 95.0917 87.6373 95.9474 86.6862 95.9474ZM67.7833 95.9474C66.8322 95.9474 66 95.0917 66 94.0526C66 93.0747 66.8322 92.219 67.7833 92.219C68.7938 92.219 69.626 93.0747 69.626 94.0526C69.626 95.0917 68.7938 95.9474 67.7833 95.9474ZM143.217 78.8947C142.206 78.8947 141.433 78.0391 141.433 77C141.433 75.961 142.206 75.1664 143.217 75.1664C144.227 75.1664 145 75.961 145 77C145 78.0391 144.227 78.8947 143.217 78.8947ZM124.373 78.8947C123.363 78.8947 122.53 78.0391 122.53 77C122.53 75.961 123.363 75.1664 124.373 75.1664C125.384 75.1664 126.157 75.961 126.157 77C126.157 78.0391 125.384 78.8947 124.373 78.8947ZM105.53 78.8947C104.519 78.8947 103.687 78.0391 103.687 77C103.687 75.961 104.519 75.1664 105.53 75.1664C106.54 75.1664 107.313 75.961 107.313 77C107.313 78.0391 106.54 78.8947 105.53 78.8947ZM86.6862 78.8947C85.6757 78.8947 84.8435 78.0391 84.8435 77C84.8435 75.961 85.6757 75.1664 86.6862 75.1664C87.6373 75.1664 88.4695 75.961 88.4695 77C88.4695 78.0391 87.6373 78.8947 86.6862 78.8947ZM67.7833 78.8947C66.8322 78.8947 66 78.0391 66 77C66 75.961 66.8322 75.1664 67.7833 75.1664C68.7938 75.1664 69.626 75.961 69.626 77C69.626 78.0391 68.7938 78.8947 67.7833 78.8947ZM143.217 61.781C142.206 61.781 141.433 60.9864 141.433 59.9474C141.433 58.9083 142.206 58.1138 143.217 58.1138C144.227 58.1138 145 58.9083 145 59.9474C145 60.9864 144.227 61.781 143.217 61.781ZM124.373 61.781C123.363 61.781 122.53 60.9864 122.53 59.9474C122.53 58.9083 123.363 58.1138 124.373 58.1138C125.384 58.1138 126.157 58.9083 126.157 59.9474C126.157 60.9864 125.384 61.781 124.373 61.781ZM105.53 61.781C104.519 61.781 103.687 60.9864 103.687 59.9474C103.687 58.9083 104.519 58.1138 105.53 58.1138C106.54 58.1138 107.313 58.9083 107.313 59.9474C107.313 60.9864 106.54 61.781 105.53 61.781ZM86.6862 61.781C85.6757 61.781 84.8435 60.9864 84.8435 59.9474C84.8435 58.9083 85.6757 58.1138 86.6862 58.1138C87.6373 58.1138 88.4695 58.9083 88.4695 59.9474C88.4695 60.9864 87.6373 61.781 86.6862 61.781ZM124.373 44.7284C123.363 44.7284 122.53 43.9338 122.53 42.8947C122.53 41.8557 123.363 41 124.373 41C125.384 41 126.157 41.8557 126.157 42.8947C126.157 43.9338 125.384 44.7284 124.373 44.7284ZM105.53 44.7284C104.519 44.7284 103.687 43.9338 103.687 42.8947C103.687 41.8557 104.519 41 105.53 41C106.54 41 107.313 41.8557 107.313 42.8947C107.313 43.9338 106.54 44.7284 105.53 44.7284ZM86.6862 44.7284C85.6757 44.7284 84.8435 43.9338 84.8435 42.8947C84.8435 41.8557 85.6757 41 86.6862 41C87.6373 41 88.4695 41.8557 88.4695 42.8947C88.4695 43.9338 87.6373 44.7284 86.6862 44.7284ZM67.7833 44.7284C66.8322 44.7284 66 43.9338 66 42.8947C66 41.8557 66.8322 41 67.7833 41C68.7938 41 69.626 41.8557 69.626 42.8947C69.626 43.9338 68.7938 44.7284 67.7833 44.7284ZM67.7833 61.781C66.8322 61.781 66 60.9864 66 59.9474C66 58.9083 66.8322 58.1138 67.7833 58.1138C68.7938 58.1138 69.626 58.9083 69.626 59.9474C69.626 60.9864 68.7938 61.781 67.7833 61.781Z" fill="#8C52FF"/>
</svg>
