<svg width="403" height="393" viewBox="0 0 403 393" fill="none" xmlns="http://www.w3.org/2000/svg">
<path d="M313.817 268.472C331.926 231.788 329.179 183.604 308.138 150.47C287.259 116.925 247.922 98.8402 205.272 75.191C162.624 51.5656 116.687 22.3722 78.9851 31.1822C41.4733 39.6009 12.7715 85.774 12.6284 126.873C12.1848 168.085 40.5971 204.085 59.766 239.351C78.7519 275.056 88.2695 309.449 113.366 328.847C138.165 348.384 178.135 352.786 217.841 342.094C257.114 331.266 295.823 305.457 313.817 268.472Z" fill="white"/>
<path fill-rule="evenodd" clip-rule="evenodd" d="M253.506 265.011C255.427 265.011 257.013 263.425 257.013 261.505C257.013 259.584 255.427 257.998 253.506 257.998C251.586 257.998 250 259.584 250 261.505C250 263.425 251.586 265.011 253.506 265.011ZM253.506 392.998C255.427 392.998 257.013 391.412 257.013 389.492C257.013 387.571 255.427 385.985 253.506 385.985C251.586 385.985 250 387.571 250 389.492C250 391.412 251.586 392.998 253.506 392.998ZM289.824 392.998C291.744 392.998 293.33 391.412 293.33 389.492C293.33 387.571 291.744 385.985 289.824 385.985C287.904 385.985 286.317 387.571 286.317 389.492C286.317 391.412 287.904 392.998 289.824 392.998ZM326.224 392.998C328.145 392.998 329.647 391.412 329.647 389.492C329.647 387.571 328.145 385.985 326.224 385.985C324.304 385.985 322.718 387.571 322.718 389.492C322.718 391.412 324.304 392.998 326.224 392.998ZM362.542 392.998C364.462 392.998 366.048 391.412 366.048 389.492C366.048 387.571 364.462 385.985 362.542 385.985C360.622 385.985 359.035 387.571 359.035 389.492C359.035 391.412 360.622 392.998 362.542 392.998ZM398.859 392.998C400.779 392.998 402.365 391.412 402.365 389.492C402.365 387.571 400.779 385.985 398.859 385.985C396.939 385.985 395.436 387.571 395.436 389.492C395.436 391.412 396.939 392.998 398.859 392.998ZM253.506 360.939C255.427 360.939 257.013 359.436 257.013 357.516C257.013 355.595 255.427 354.009 253.506 354.009C251.586 354.009 250 355.595 250 357.516C250 359.436 251.586 360.939 253.506 360.939ZM289.824 360.939C291.744 360.939 293.33 359.436 293.33 357.516C293.33 355.595 291.744 354.009 289.824 354.009C287.904 354.009 286.317 355.595 286.317 357.516C286.317 359.436 287.904 360.939 289.824 360.939ZM326.224 360.939C328.145 360.939 329.647 359.436 329.647 357.516C329.647 355.595 328.145 354.009 326.224 354.009C324.304 354.009 322.718 355.595 322.718 357.516C322.718 359.436 324.304 360.939 326.224 360.939ZM362.542 360.939C364.462 360.939 366.048 359.436 366.048 357.516C366.048 355.595 364.462 354.009 362.542 354.009C360.622 354.009 359.035 355.595 359.035 357.516C359.035 359.436 360.622 360.939 362.542 360.939ZM398.859 360.939C400.779 360.939 402.365 359.436 402.365 357.516C402.365 355.595 400.779 354.009 398.859 354.009C396.939 354.009 395.436 355.595 395.436 357.516C395.436 359.436 396.939 360.939 398.859 360.939ZM253.506 328.963C255.427 328.963 257.013 327.377 257.013 325.456C257.013 323.536 255.427 322.033 253.506 322.033C251.586 322.033 250 323.536 250 325.456C250 327.377 251.586 328.963 253.506 328.963ZM289.824 328.963C291.744 328.963 293.33 327.377 293.33 325.456C293.33 323.536 291.744 322.033 289.824 322.033C287.904 322.033 286.317 323.536 286.317 325.456C286.317 327.377 287.904 328.963 289.824 328.963ZM326.224 328.963C328.145 328.963 329.647 327.377 329.647 325.456C329.647 323.536 328.145 322.033 326.224 322.033C324.304 322.033 322.718 323.536 322.718 325.456C322.718 327.377 324.304 328.963 326.224 328.963ZM362.542 328.963C364.462 328.963 366.048 327.377 366.048 325.456C366.048 323.536 364.462 322.033 362.542 322.033C360.622 322.033 359.035 323.536 359.035 325.456C359.035 327.377 360.622 328.963 362.542 328.963ZM398.859 328.963C400.779 328.963 402.365 327.377 402.365 325.456C402.365 323.536 400.779 322.033 398.859 322.033C396.939 322.033 395.436 323.536 395.436 325.456C395.436 327.377 396.939 328.963 398.859 328.963ZM253.506 296.987C255.427 296.987 257.013 295.401 257.013 293.48C257.013 291.56 255.427 289.974 253.506 289.974C251.586 289.974 250 291.56 250 293.48C250 295.401 251.586 296.987 253.506 296.987ZM289.824 296.987C291.744 296.987 293.33 295.401 293.33 293.48C293.33 291.56 291.744 289.974 289.824 289.974C287.904 289.974 286.317 291.56 286.317 293.48C286.317 295.401 287.904 296.987 289.824 296.987ZM326.224 296.987C328.145 296.987 329.647 295.401 329.647 293.48C329.647 291.56 328.145 289.974 326.224 289.974C324.304 289.974 322.718 291.56 322.718 293.48C322.718 295.401 324.304 296.987 326.224 296.987ZM362.542 296.987C364.462 296.987 366.048 295.401 366.048 293.48C366.048 291.56 364.462 289.974 362.542 289.974C360.622 289.974 359.035 291.56 359.035 293.48C359.035 295.401 360.622 296.987 362.542 296.987ZM289.824 265.011C291.744 265.011 293.33 263.425 293.33 261.505C293.33 259.584 291.744 257.998 289.824 257.998C287.904 257.998 286.317 259.584 286.317 261.505C286.317 263.425 287.904 265.011 289.824 265.011ZM326.224 265.011C328.145 265.011 329.647 263.425 329.647 261.505C329.647 259.584 328.145 257.998 326.224 257.998C324.304 257.998 322.718 259.584 322.718 261.505C322.718 263.425 324.304 265.011 326.224 265.011ZM362.542 265.011C364.462 265.011 366.048 263.425 366.048 261.505C366.048 259.584 364.462 257.998 362.542 257.998C360.622 257.998 359.035 259.584 359.035 261.505C359.035 263.425 360.622 265.011 362.542 265.011ZM398.859 265.011C400.779 265.011 402.365 263.425 402.365 261.505C402.365 259.584 400.779 257.998 398.859 257.998C396.939 257.998 395.436 259.584 395.436 261.505C395.436 263.425 396.939 265.011 398.859 265.011ZM398.859 296.987C400.779 296.987 402.365 295.401 402.365 293.48C402.365 291.56 400.779 289.974 398.859 289.974C396.939 289.974 395.436 291.56 395.436 293.48C395.436 295.401 396.939 296.987 398.859 296.987Z" fill="#8C52FF"/>
</svg>
