<svg width="267" height="284" viewBox="0 0 267 284" fill="none" xmlns="http://www.w3.org/2000/svg">
<path d="M250.888 247.904C223.031 270.146 181.521 276.713 149.422 264.877C117.032 253.296 94.3843 223.093 66.4071 191.097C38.4269 159.063 5.08464 125.315 5.62751 91.5225C5.83894 57.95 39.8295 24.9616 74.7818 17.2398C109.752 9.24525 145.627 26.7928 179.158 36.6185C213.059 46.2215 244.064 47.9905 265.204 65.7951C286.402 83.3625 297.515 116.634 295.775 152.457C293.815 187.948 279.023 225.756 250.888 247.904Z" fill="white"/>
<path fill-rule="evenodd" clip-rule="evenodd" d="M163.314 18.5407C161.792 18.5407 160.628 17.3599 160.628 15.8158C160.628 14.2716 161.792 13 163.314 13C164.836 13 166 14.2716 166 15.8158C166 17.3599 164.836 18.5407 163.314 18.5407ZM163.314 120C161.792 120 160.628 118.728 160.628 117.275C160.628 115.731 161.792 114.459 163.314 114.459C164.836 114.459 166 115.731 166 117.275C166 118.728 164.836 120 163.314 120ZM134.929 120C133.407 120 132.153 118.728 132.153 117.275C132.153 115.731 133.407 114.459 134.929 114.459C136.451 114.459 137.615 115.731 137.615 117.275C137.615 118.728 136.451 120 134.929 120ZM106.545 120C105.023 120 103.769 118.728 103.769 117.275C103.769 115.731 105.023 114.459 106.545 114.459C108.067 114.459 109.231 115.731 109.231 117.275C109.231 118.728 108.067 120 106.545 120ZM78.1603 120C76.6381 120 75.3845 118.728 75.3845 117.275C75.3845 115.731 76.6381 114.459 78.1603 114.459C79.5929 114.459 80.8465 115.731 80.8465 117.275C80.8465 118.728 79.5929 120 78.1603 120ZM49.6862 120C48.2536 120 47 118.728 47 117.275C47 115.731 48.2536 114.459 49.6862 114.459C51.2084 114.459 52.462 115.731 52.462 117.275C52.462 118.728 51.2084 120 49.6862 120ZM163.314 94.6579C161.792 94.6579 160.628 93.3862 160.628 91.8421C160.628 90.3888 161.792 89.1171 163.314 89.1171C164.836 89.1171 166 90.3888 166 91.8421C166 93.3862 164.836 94.6579 163.314 94.6579ZM134.929 94.6579C133.407 94.6579 132.153 93.3862 132.153 91.8421C132.153 90.3888 133.407 89.1171 134.929 89.1171C136.451 89.1171 137.615 90.3888 137.615 91.8421C137.615 93.3862 136.451 94.6579 134.929 94.6579ZM106.545 94.6579C105.023 94.6579 103.769 93.3862 103.769 91.8421C103.769 90.3888 105.023 89.1171 106.545 89.1171C108.067 89.1171 109.231 90.3888 109.231 91.8421C109.231 93.3862 108.067 94.6579 106.545 94.6579ZM78.1603 94.6579C76.6381 94.6579 75.3845 93.3862 75.3845 91.8421C75.3845 90.3888 76.6381 89.1171 78.1603 89.1171C79.5929 89.1171 80.8465 90.3888 80.8465 91.8421C80.8465 93.3862 79.5929 94.6579 78.1603 94.6579ZM49.6862 94.6579C48.2536 94.6579 47 93.3862 47 91.8421C47 90.3888 48.2536 89.1171 49.6862 89.1171C51.2084 89.1171 52.462 90.3888 52.462 91.8421C52.462 93.3862 51.2084 94.6579 49.6862 94.6579ZM163.314 69.3158C161.792 69.3158 160.628 68.0441 160.628 66.5C160.628 64.9559 161.792 63.775 163.314 63.775C164.836 63.775 166 64.9559 166 66.5C166 68.0441 164.836 69.3158 163.314 69.3158ZM134.929 69.3158C133.407 69.3158 132.153 68.0441 132.153 66.5C132.153 64.9559 133.407 63.775 134.929 63.775C136.451 63.775 137.615 64.9559 137.615 66.5C137.615 68.0441 136.451 69.3158 134.929 69.3158ZM106.545 69.3158C105.023 69.3158 103.769 68.0441 103.769 66.5C103.769 64.9559 105.023 63.775 106.545 63.775C108.067 63.775 109.231 64.9559 109.231 66.5C109.231 68.0441 108.067 69.3158 106.545 69.3158ZM78.1603 69.3158C76.6381 69.3158 75.3845 68.0441 75.3845 66.5C75.3845 64.9559 76.6381 63.775 78.1603 63.775C79.5929 63.775 80.8465 64.9559 80.8465 66.5C80.8465 68.0441 79.5929 69.3158 78.1603 69.3158ZM49.6862 69.3158C48.2536 69.3158 47 68.0441 47 66.5C47 64.9559 48.2536 63.775 49.6862 63.775C51.2084 63.775 52.462 64.9559 52.462 66.5C52.462 68.0441 51.2084 69.3158 49.6862 69.3158ZM163.314 43.8829C161.792 43.8829 160.628 42.702 160.628 41.1579C160.628 39.6137 161.792 38.4329 163.314 38.4329C164.836 38.4329 166 39.6137 166 41.1579C166 42.702 164.836 43.8829 163.314 43.8829ZM134.929 43.8829C133.407 43.8829 132.153 42.702 132.153 41.1579C132.153 39.6137 133.407 38.4329 134.929 38.4329C136.451 38.4329 137.615 39.6137 137.615 41.1579C137.615 42.702 136.451 43.8829 134.929 43.8829ZM106.545 43.8829C105.023 43.8829 103.769 42.702 103.769 41.1579C103.769 39.6137 105.023 38.4329 106.545 38.4329C108.067 38.4329 109.231 39.6137 109.231 41.1579C109.231 42.702 108.067 43.8829 106.545 43.8829ZM78.1603 43.8829C76.6381 43.8829 75.3845 42.702 75.3845 41.1579C75.3845 39.6137 76.6381 38.4329 78.1603 38.4329C79.5929 38.4329 80.8465 39.6137 80.8465 41.1579C80.8465 42.702 79.5929 43.8829 78.1603 43.8829ZM134.929 18.5407C133.407 18.5407 132.153 17.3599 132.153 15.8158C132.153 14.2716 133.407 13 134.929 13C136.451 13 137.615 14.2716 137.615 15.8158C137.615 17.3599 136.451 18.5407 134.929 18.5407ZM106.545 18.5407C105.023 18.5407 103.769 17.3599 103.769 15.8158C103.769 14.2716 105.023 13 106.545 13C108.067 13 109.231 14.2716 109.231 15.8158C109.231 17.3599 108.067 18.5407 106.545 18.5407ZM78.1603 18.5407C76.6381 18.5407 75.3845 17.3599 75.3845 15.8158C75.3845 14.2716 76.6381 13 78.1603 13C79.5929 13 80.8465 14.2716 80.8465 15.8158C80.8465 17.3599 79.5929 18.5407 78.1603 18.5407ZM49.6862 18.5407C48.2536 18.5407 47 17.3599 47 15.8158C47 14.2716 48.2536 13 49.6862 13C51.2084 13 52.462 14.2716 52.462 15.8158C52.462 17.3599 51.2084 18.5407 49.6862 18.5407ZM49.6862 43.8829C48.2536 43.8829 47 42.702 47 41.1579C47 39.6137 48.2536 38.4329 49.6862 38.4329C51.2084 38.4329 52.462 39.6137 52.462 41.1579C52.462 42.702 51.2084 43.8829 49.6862 43.8829Z" fill="#8C52FF"/>
</svg>
