<svg width="423" height="360" viewBox="0 0 423 360" fill="none" xmlns="http://www.w3.org/2000/svg">
<path d="M149.153 246.349C110.37 200.546 20.8678 182.023 19.7184 137.537C18.5638 93.4006 85.8304 51.8428 154.011 32.7224C222.191 13.6019 291.32 16.5565 329.632 49.5751C368.307 82.9073 376.149 146.317 369.65 195.216C363.103 244.448 341.929 279.26 314.436 306.402C286.781 333.705 252.794 353.177 225.958 346.921C199.392 340.735 177.602 279.981 149.153 246.349Z" fill="white"/>
<path fill-rule="evenodd" clip-rule="evenodd" d="M418.867 106.991C416.919 106.991 415.429 105.501 415.429 103.553C415.429 101.604 416.919 100 418.867 100C420.815 100 422.305 101.604 422.305 103.553C422.305 105.501 420.815 106.991 418.867 106.991ZM418.867 235C416.919 235 415.429 233.396 415.429 231.562C415.429 229.614 416.919 228.009 418.867 228.009C420.815 228.009 422.305 229.614 422.305 231.562C422.305 233.396 420.815 235 418.867 235ZM382.538 235C380.59 235 378.986 233.396 378.986 231.562C378.986 229.614 380.59 228.009 382.538 228.009C384.486 228.009 385.976 229.614 385.976 231.562C385.976 233.396 384.486 235 382.538 235ZM346.21 235C344.261 235 342.657 233.396 342.657 231.562C342.657 229.614 344.261 228.009 346.21 228.009C348.158 228.009 349.648 229.614 349.648 231.562C349.648 233.396 348.158 235 346.21 235ZM309.881 235C307.933 235 306.329 233.396 306.329 231.562C306.329 229.614 307.933 228.009 309.881 228.009C311.715 228.009 313.319 229.614 313.319 231.562C313.319 233.396 311.715 235 309.881 235ZM273.438 235C271.604 235 270 233.396 270 231.562C270 229.614 271.604 228.009 273.438 228.009C275.386 228.009 276.991 229.614 276.991 231.562C276.991 233.396 275.386 235 273.438 235ZM418.867 203.026C416.919 203.026 415.429 201.422 415.429 199.474C415.429 197.64 416.919 196.036 418.867 196.036C420.815 196.036 422.305 197.64 422.305 199.474C422.305 201.422 420.815 203.026 418.867 203.026ZM382.538 203.026C380.59 203.026 378.986 201.422 378.986 199.474C378.986 197.64 380.59 196.036 382.538 196.036C384.486 196.036 385.976 197.64 385.976 199.474C385.976 201.422 384.486 203.026 382.538 203.026ZM346.21 203.026C344.261 203.026 342.657 201.422 342.657 199.474C342.657 197.64 344.261 196.036 346.21 196.036C348.158 196.036 349.648 197.64 349.648 199.474C349.648 201.422 348.158 203.026 346.21 203.026ZM309.881 203.026C307.933 203.026 306.329 201.422 306.329 199.474C306.329 197.64 307.933 196.036 309.881 196.036C311.715 196.036 313.319 197.64 313.319 199.474C313.319 201.422 311.715 203.026 309.881 203.026ZM273.438 203.026C271.604 203.026 270 201.422 270 199.474C270 197.64 271.604 196.036 273.438 196.036C275.386 196.036 276.991 197.64 276.991 199.474C276.991 201.422 275.386 203.026 273.438 203.026ZM418.867 171.053C416.919 171.053 415.429 169.448 415.429 167.5C415.429 165.552 416.919 164.062 418.867 164.062C420.815 164.062 422.305 165.552 422.305 167.5C422.305 169.448 420.815 171.053 418.867 171.053ZM382.538 171.053C380.59 171.053 378.986 169.448 378.986 167.5C378.986 165.552 380.59 164.062 382.538 164.062C384.486 164.062 385.976 165.552 385.976 167.5C385.976 169.448 384.486 171.053 382.538 171.053ZM346.21 171.053C344.261 171.053 342.657 169.448 342.657 167.5C342.657 165.552 344.261 164.062 346.21 164.062C348.158 164.062 349.648 165.552 349.648 167.5C349.648 169.448 348.158 171.053 346.21 171.053ZM309.881 171.053C307.933 171.053 306.329 169.448 306.329 167.5C306.329 165.552 307.933 164.062 309.881 164.062C311.715 164.062 313.319 165.552 313.319 167.5C313.319 169.448 311.715 171.053 309.881 171.053ZM273.438 171.053C271.604 171.053 270 169.448 270 167.5C270 165.552 271.604 164.062 273.438 164.062C275.386 164.062 276.991 165.552 276.991 167.5C276.991 169.448 275.386 171.053 273.438 171.053ZM418.867 138.964C416.919 138.964 415.429 137.475 415.429 135.526C415.429 133.578 416.919 132.088 418.867 132.088C420.815 132.088 422.305 133.578 422.305 135.526C422.305 137.475 420.815 138.964 418.867 138.964ZM382.538 138.964C380.59 138.964 378.986 137.475 378.986 135.526C378.986 133.578 380.59 132.088 382.538 132.088C384.486 132.088 385.976 133.578 385.976 135.526C385.976 137.475 384.486 138.964 382.538 138.964ZM346.21 138.964C344.261 138.964 342.657 137.475 342.657 135.526C342.657 133.578 344.261 132.088 346.21 132.088C348.158 132.088 349.648 133.578 349.648 135.526C349.648 137.475 348.158 138.964 346.21 138.964ZM309.881 138.964C307.933 138.964 306.329 137.475 306.329 135.526C306.329 133.578 307.933 132.088 309.881 132.088C311.715 132.088 313.319 133.578 313.319 135.526C313.319 137.475 311.715 138.964 309.881 138.964ZM382.538 106.991C380.59 106.991 378.986 105.501 378.986 103.553C378.986 101.604 380.59 100 382.538 100C384.486 100 385.976 101.604 385.976 103.553C385.976 105.501 384.486 106.991 382.538 106.991ZM346.21 106.991C344.261 106.991 342.657 105.501 342.657 103.553C342.657 101.604 344.261 100 346.21 100C348.158 100 349.648 101.604 349.648 103.553C349.648 105.501 348.158 106.991 346.21 106.991ZM309.881 106.991C307.933 106.991 306.329 105.501 306.329 103.553C306.329 101.604 307.933 100 309.881 100C311.715 100 313.319 101.604 313.319 103.553C313.319 105.501 311.715 106.991 309.881 106.991ZM273.438 106.991C271.604 106.991 270 105.501 270 103.553C270 101.604 271.604 100 273.438 100C275.386 100 276.991 101.604 276.991 103.553C276.991 105.501 275.386 106.991 273.438 106.991ZM273.438 138.964C271.604 138.964 270 137.475 270 135.526C270 133.578 271.604 132.088 273.438 132.088C275.386 132.088 276.991 133.578 276.991 135.526C276.991 137.475 275.386 138.964 273.438 138.964Z" fill="#8C52FF"/>
</svg>
