<svg width="416" height="351" viewBox="0 0 416 351" fill="none" xmlns="http://www.w3.org/2000/svg">
<path d="M313.937 132.906C270.62 95.4255 253.8 9.82469 211.375 8.27381C169.234 6.71075 128.883 70.5042 109.983 135.408C91.041 200.274 93.1858 266.306 124.312 303.213C155.739 340.473 216.186 348.565 262.938 342.858C310.013 337.097 343.462 317.249 369.649 291.252C395.952 265.127 414.912 232.896 409.17 207.213C403.522 181.811 345.758 160.395 313.937 132.906Z" fill="white"/>
<path fill-rule="evenodd" clip-rule="evenodd" d="M125.165 284.637C125.165 282.731 126.621 281.273 128.526 281.273C130.431 281.273 132 282.731 132 284.637C132 286.543 130.431 288 128.526 288C126.621 288 125.165 286.543 125.165 284.637ZM0 284.637C0 282.731 1.56876 281.273 3.36163 281.273C5.26655 281.273 6.83531 282.731 6.83531 284.637C6.83531 286.543 5.26655 288 3.36163 288C1.56876 288 0 286.543 0 284.637ZM0 249.096C0 247.19 1.56876 245.621 3.36163 245.621C5.26655 245.621 6.83531 247.19 6.83531 249.096C6.83531 251.002 5.26655 252.46 3.36163 252.46C1.56876 252.46 0 251.002 0 249.096ZM0 213.556C0 211.65 1.56876 210.081 3.36163 210.081C5.26655 210.081 6.83531 211.65 6.83531 213.556C6.83531 215.462 5.26655 216.919 3.36163 216.919C1.56876 216.919 0 215.462 0 213.556ZM0 178.016C0 176.11 1.56876 174.54 3.36163 174.54C5.26655 174.54 6.83531 176.11 6.83531 178.016C6.83531 179.81 5.26655 181.379 3.36163 181.379C1.56876 181.379 0 179.81 0 178.016ZM0 142.363C0 140.57 1.56876 139 3.36163 139C5.26655 139 6.83531 140.57 6.83531 142.363C6.83531 144.269 5.26655 145.839 3.36163 145.839C1.56876 145.839 0 144.269 0 142.363ZM31.2632 284.637C31.2632 282.731 32.8319 281.273 34.7368 281.273C36.5297 281.273 38.0985 282.731 38.0985 284.637C38.0985 286.543 36.5297 288 34.7368 288C32.8319 288 31.2632 286.543 31.2632 284.637ZM31.2632 249.096C31.2632 247.19 32.8319 245.621 34.7368 245.621C36.5297 245.621 38.0985 247.19 38.0985 249.096C38.0985 251.002 36.5297 252.46 34.7368 252.46C32.8319 252.46 31.2632 251.002 31.2632 249.096ZM31.2632 213.556C31.2632 211.65 32.8319 210.081 34.7368 210.081C36.5297 210.081 38.0985 211.65 38.0985 213.556C38.0985 215.462 36.5297 216.919 34.7368 216.919C32.8319 216.919 31.2632 215.462 31.2632 213.556ZM31.2632 178.016C31.2632 176.11 32.8319 174.54 34.7368 174.54C36.5297 174.54 38.0985 176.11 38.0985 178.016C38.0985 179.81 36.5297 181.379 34.7368 181.379C32.8319 181.379 31.2632 179.81 31.2632 178.016ZM31.2632 142.363C31.2632 140.57 32.8319 139 34.7368 139C36.5297 139 38.0985 140.57 38.0985 142.363C38.0985 144.269 36.5297 145.839 34.7368 145.839C32.8319 145.839 31.2632 144.269 31.2632 142.363ZM62.5263 284.637C62.5263 282.731 64.0951 281.273 66 281.273C67.9049 281.273 69.3616 282.731 69.3616 284.637C69.3616 286.543 67.9049 288 66 288C64.0951 288 62.5263 286.543 62.5263 284.637ZM62.5263 249.096C62.5263 247.19 64.0951 245.621 66 245.621C67.9049 245.621 69.3616 247.19 69.3616 249.096C69.3616 251.002 67.9049 252.46 66 252.46C64.0951 252.46 62.5263 251.002 62.5263 249.096ZM62.5263 213.556C62.5263 211.65 64.0951 210.081 66 210.081C67.9049 210.081 69.3616 211.65 69.3616 213.556C69.3616 215.462 67.9049 216.919 66 216.919C64.0951 216.919 62.5263 215.462 62.5263 213.556ZM62.5263 178.016C62.5263 176.11 64.0951 174.54 66 174.54C67.9049 174.54 69.3616 176.11 69.3616 178.016C69.3616 179.81 67.9049 181.379 66 181.379C64.0951 181.379 62.5263 179.81 62.5263 178.016ZM62.5263 142.363C62.5263 140.57 64.0951 139 66 139C67.9049 139 69.3616 140.57 69.3616 142.363C69.3616 144.269 67.9049 145.839 66 145.839C64.0951 145.839 62.5263 144.269 62.5263 142.363ZM93.9015 284.637C93.9015 282.731 95.3582 281.273 97.2632 281.273C99.1681 281.273 100.625 282.731 100.625 284.637C100.625 286.543 99.1681 288 97.2632 288C95.3582 288 93.9015 286.543 93.9015 284.637ZM93.9015 249.096C93.9015 247.19 95.3582 245.621 97.2632 245.621C99.1681 245.621 100.625 247.19 100.625 249.096C100.625 251.002 99.1681 252.46 97.2632 252.46C95.3582 252.46 93.9015 251.002 93.9015 249.096ZM93.9015 213.556C93.9015 211.65 95.3582 210.081 97.2632 210.081C99.1681 210.081 100.625 211.65 100.625 213.556C100.625 215.462 99.1681 216.919 97.2632 216.919C95.3582 216.919 93.9015 215.462 93.9015 213.556ZM93.9015 178.016C93.9015 176.11 95.3582 174.54 97.2632 174.54C99.1681 174.54 100.625 176.11 100.625 178.016C100.625 179.81 99.1681 181.379 97.2632 181.379C95.3582 181.379 93.9015 179.81 93.9015 178.016ZM125.165 249.096C125.165 247.19 126.621 245.621 128.526 245.621C130.431 245.621 132 247.19 132 249.096C132 251.002 130.431 252.46 128.526 252.46C126.621 252.46 125.165 251.002 125.165 249.096ZM125.165 213.556C125.165 211.65 126.621 210.081 128.526 210.081C130.431 210.081 132 211.65 132 213.556C132 215.462 130.431 216.919 128.526 216.919C126.621 216.919 125.165 215.462 125.165 213.556ZM125.165 178.016C125.165 176.11 126.621 174.54 128.526 174.54C130.431 174.54 132 176.11 132 178.016C132 179.81 130.431 181.379 128.526 181.379C126.621 181.379 125.165 179.81 125.165 178.016ZM125.165 142.363C125.165 140.57 126.621 139 128.526 139C130.431 139 132 140.57 132 142.363C132 144.269 130.431 145.839 128.526 145.839C126.621 145.839 125.165 144.269 125.165 142.363ZM93.9015 142.363C93.9015 140.57 95.3582 139 97.2632 139C99.1681 139 100.625 140.57 100.625 142.363C100.625 144.269 99.1681 145.839 97.2632 145.839C95.3582 145.839 93.9015 144.269 93.9015 142.363Z" fill="#8C52FF"/>
</svg>
