<svg width="305" height="362" viewBox="0 0 305 362" fill="none" xmlns="http://www.w3.org/2000/svg">
<path d="M172.657 145.255C186.513 190.592 245.518 231.355 232.558 264.292C219.711 296.974 158.166 306.979 102.916 300.269C47.666 293.56 -1.42714 270.391 -18.9061 234.563C-36.5509 198.395 -22.5661 149.562 -2.70485 115.716C17.2934 81.6404 43.4027 62.5731 71.7061 51.0434C100.176 39.4458 130.799 35.5087 148.274 48.2454C165.574 60.8483 162.503 111.974 172.657 145.255Z" fill="white"/>
<path fill-rule="evenodd" clip-rule="evenodd" d="M159.291 150.489C157.756 150.489 156.582 149.319 156.582 147.789C156.582 146.26 157.756 145 159.291 145C160.826 145 162 146.26 162 147.789C162 149.319 160.826 150.489 159.291 150.489ZM159.291 251C157.756 251 156.582 249.74 156.582 248.301C156.582 246.771 157.756 245.511 159.291 245.511C160.826 245.511 162 246.771 162 248.301C162 249.74 160.826 251 159.291 251ZM130.668 251C129.133 251 127.869 249.74 127.869 248.301C127.869 246.771 129.133 245.511 130.668 245.511C132.203 245.511 133.377 246.771 133.377 248.301C133.377 249.74 132.203 251 130.668 251ZM102.045 251C100.51 251 99.2461 249.74 99.2461 248.301C99.2461 246.771 100.51 245.511 102.045 245.511C103.58 245.511 104.754 246.771 104.754 248.301C104.754 249.74 103.58 251 102.045 251ZM73.4221 251C71.8871 251 70.623 249.74 70.623 248.301C70.623 246.771 71.8871 245.511 73.4221 245.511C74.8668 245.511 76.1309 246.771 76.1309 248.301C76.1309 249.74 74.8668 251 73.4221 251ZM44.7088 251C43.2641 251 42 249.74 42 248.301C42 246.771 43.2641 245.511 44.7088 245.511C46.2438 245.511 47.5079 246.771 47.5079 248.301C47.5079 249.74 46.2438 251 44.7088 251ZM159.291 225.895C157.756 225.895 156.582 224.635 156.582 223.105C156.582 221.666 157.756 220.406 159.291 220.406C160.826 220.406 162 221.666 162 223.105C162 224.635 160.826 225.895 159.291 225.895ZM130.668 225.895C129.133 225.895 127.869 224.635 127.869 223.105C127.869 221.666 129.133 220.406 130.668 220.406C132.203 220.406 133.377 221.666 133.377 223.105C133.377 224.635 132.203 225.895 130.668 225.895ZM102.045 225.895C100.51 225.895 99.2461 224.635 99.2461 223.105C99.2461 221.666 100.51 220.406 102.045 220.406C103.58 220.406 104.754 221.666 104.754 223.105C104.754 224.635 103.58 225.895 102.045 225.895ZM73.4221 225.895C71.8871 225.895 70.623 224.635 70.623 223.105C70.623 221.666 71.8871 220.406 73.4221 220.406C74.8668 220.406 76.1309 221.666 76.1309 223.105C76.1309 224.635 74.8668 225.895 73.4221 225.895ZM44.7088 225.895C43.2641 225.895 42 224.635 42 223.105C42 221.666 43.2641 220.406 44.7088 220.406C46.2438 220.406 47.5079 221.666 47.5079 223.105C47.5079 224.635 46.2438 225.895 44.7088 225.895ZM159.291 200.789C157.756 200.789 156.582 199.53 156.582 198C156.582 196.47 157.756 195.301 159.291 195.301C160.826 195.301 162 196.47 162 198C162 199.53 160.826 200.789 159.291 200.789ZM130.668 200.789C129.133 200.789 127.869 199.53 127.869 198C127.869 196.47 129.133 195.301 130.668 195.301C132.203 195.301 133.377 196.47 133.377 198C133.377 199.53 132.203 200.789 130.668 200.789ZM102.045 200.789C100.51 200.789 99.2461 199.53 99.2461 198C99.2461 196.47 100.51 195.301 102.045 195.301C103.58 195.301 104.754 196.47 104.754 198C104.754 199.53 103.58 200.789 102.045 200.789ZM73.4221 200.789C71.8871 200.789 70.623 199.53 70.623 198C70.623 196.47 71.8871 195.301 73.4221 195.301C74.8668 195.301 76.1309 196.47 76.1309 198C76.1309 199.53 74.8668 200.789 73.4221 200.789ZM44.7088 200.789C43.2641 200.789 42 199.53 42 198C42 196.47 43.2641 195.301 44.7088 195.301C46.2438 195.301 47.5079 196.47 47.5079 198C47.5079 199.53 46.2438 200.789 44.7088 200.789ZM159.291 175.594C157.756 175.594 156.582 174.424 156.582 172.895C156.582 171.365 157.756 170.195 159.291 170.195C160.826 170.195 162 171.365 162 172.895C162 174.424 160.826 175.594 159.291 175.594ZM130.668 175.594C129.133 175.594 127.869 174.424 127.869 172.895C127.869 171.365 129.133 170.195 130.668 170.195C132.203 170.195 133.377 171.365 133.377 172.895C133.377 174.424 132.203 175.594 130.668 175.594ZM102.045 175.594C100.51 175.594 99.2461 174.424 99.2461 172.895C99.2461 171.365 100.51 170.195 102.045 170.195C103.58 170.195 104.754 171.365 104.754 172.895C104.754 174.424 103.58 175.594 102.045 175.594ZM73.4221 175.594C71.8871 175.594 70.623 174.424 70.623 172.895C70.623 171.365 71.8871 170.195 73.4221 170.195C74.8668 170.195 76.1309 171.365 76.1309 172.895C76.1309 174.424 74.8668 175.594 73.4221 175.594ZM130.668 150.489C129.133 150.489 127.869 149.319 127.869 147.789C127.869 146.26 129.133 145 130.668 145C132.203 145 133.377 146.26 133.377 147.789C133.377 149.319 132.203 150.489 130.668 150.489ZM102.045 150.489C100.51 150.489 99.2461 149.319 99.2461 147.789C99.2461 146.26 100.51 145 102.045 145C103.58 145 104.754 146.26 104.754 147.789C104.754 149.319 103.58 150.489 102.045 150.489ZM73.4221 150.489C71.8871 150.489 70.623 149.319 70.623 147.789C70.623 146.26 71.8871 145 73.4221 145C74.8668 145 76.1309 146.26 76.1309 147.789C76.1309 149.319 74.8668 150.489 73.4221 150.489ZM44.7088 150.489C43.2641 150.489 42 149.319 42 147.789C42 146.26 43.2641 145 44.7088 145C46.2438 145 47.5079 146.26 47.5079 147.789C47.5079 149.319 46.2438 150.489 44.7088 150.489ZM44.7088 175.594C43.2641 175.594 42 174.424 42 172.895C42 171.365 43.2641 170.195 44.7088 170.195C46.2438 170.195 47.5079 171.365 47.5079 172.895C47.5079 174.424 46.2438 175.594 44.7088 175.594Z" fill="#8C52FF"/>
</svg>
