<svg width="180" height="193" viewBox="0 0 180 193" fill="none" xmlns="http://www.w3.org/2000/svg">
<path d="M101.204 61.4745C121.062 85.9863 167.631 96.4136 167.852 119.966C168.08 143.332 132.609 164.857 96.8511 174.501C61.0936 184.145 25.0283 182.099 5.30779 164.357C-14.6 146.446 -18.1546 112.833 -14.3456 86.9981C-10.5092 60.9883 0.841078 42.7124 15.4252 28.539C30.0952 14.2823 48.0045 4.21413 61.9617 7.71227C75.7782 11.1713 86.6373 43.4766 101.204 61.4745Z" fill="white"/>
<path fill-rule="evenodd" clip-rule="evenodd" d="M88.1941 35.7284C87.1708 35.7284 86.3883 34.9338 86.3883 33.8947C86.3883 32.8557 87.1708 32 88.1941 32C89.2175 32 90 32.8557 90 33.8947C90 34.9338 89.2175 35.7284 88.1941 35.7284ZM88.1941 104C87.1708 104 86.3883 103.144 86.3883 102.166C86.3883 101.127 87.1708 100.272 88.1941 100.272C89.2175 100.272 90 101.127 90 102.166C90 103.144 89.2175 104 88.1941 104ZM69.1121 104C68.0888 104 67.2461 103.144 67.2461 102.166C67.2461 101.127 68.0888 100.272 69.1121 100.272C70.1354 100.272 70.918 101.127 70.918 102.166C70.918 103.144 70.1354 104 69.1121 104ZM50.0301 104C49.0068 104 48.164 103.144 48.164 102.166C48.164 101.127 49.0068 100.272 50.0301 100.272C51.0534 100.272 51.836 101.127 51.836 102.166C51.836 103.144 51.0534 104 50.0301 104ZM30.9481 104C29.9248 104 29.082 103.144 29.082 102.166C29.082 101.127 29.9248 100.272 30.9481 100.272C31.9112 100.272 32.754 101.127 32.754 102.166C32.754 103.144 31.9112 104 30.9481 104ZM11.8059 104C10.8427 104 10 103.144 10 102.166C10 101.127 10.8427 100.272 11.8059 100.272C12.8292 100.272 13.6719 101.127 13.6719 102.166C13.6719 103.144 12.8292 104 11.8059 104ZM88.1941 86.9474C87.1708 86.9474 86.3883 86.0917 86.3883 85.0526C86.3883 84.0747 87.1708 83.219 88.1941 83.219C89.2175 83.219 90 84.0747 90 85.0526C90 86.0917 89.2175 86.9474 88.1941 86.9474ZM69.1121 86.9474C68.0888 86.9474 67.2461 86.0917 67.2461 85.0526C67.2461 84.0747 68.0888 83.219 69.1121 83.219C70.1354 83.219 70.918 84.0747 70.918 85.0526C70.918 86.0917 70.1354 86.9474 69.1121 86.9474ZM50.0301 86.9474C49.0068 86.9474 48.164 86.0917 48.164 85.0526C48.164 84.0747 49.0068 83.219 50.0301 83.219C51.0534 83.219 51.836 84.0747 51.836 85.0526C51.836 86.0917 51.0534 86.9474 50.0301 86.9474ZM30.9481 86.9474C29.9248 86.9474 29.082 86.0917 29.082 85.0526C29.082 84.0747 29.9248 83.219 30.9481 83.219C31.9112 83.219 32.754 84.0747 32.754 85.0526C32.754 86.0917 31.9112 86.9474 30.9481 86.9474ZM11.8059 86.9474C10.8427 86.9474 10 86.0917 10 85.0526C10 84.0747 10.8427 83.219 11.8059 83.219C12.8292 83.219 13.6719 84.0747 13.6719 85.0526C13.6719 86.0917 12.8292 86.9474 11.8059 86.9474ZM88.1941 69.8947C87.1708 69.8947 86.3883 69.0391 86.3883 68C86.3883 66.961 87.1708 66.1664 88.1941 66.1664C89.2175 66.1664 90 66.961 90 68C90 69.0391 89.2175 69.8947 88.1941 69.8947ZM69.1121 69.8947C68.0888 69.8947 67.2461 69.0391 67.2461 68C67.2461 66.961 68.0888 66.1664 69.1121 66.1664C70.1354 66.1664 70.918 66.961 70.918 68C70.918 69.0391 70.1354 69.8947 69.1121 69.8947ZM50.0301 69.8947C49.0068 69.8947 48.164 69.0391 48.164 68C48.164 66.961 49.0068 66.1664 50.0301 66.1664C51.0534 66.1664 51.836 66.961 51.836 68C51.836 69.0391 51.0534 69.8947 50.0301 69.8947ZM30.9481 69.8947C29.9248 69.8947 29.082 69.0391 29.082 68C29.082 66.961 29.9248 66.1664 30.9481 66.1664C31.9112 66.1664 32.754 66.961 32.754 68C32.754 69.0391 31.9112 69.8947 30.9481 69.8947ZM11.8059 69.8947C10.8427 69.8947 10 69.0391 10 68C10 66.961 10.8427 66.1664 11.8059 66.1664C12.8292 66.1664 13.6719 66.961 13.6719 68C13.6719 69.0391 12.8292 69.8947 11.8059 69.8947ZM88.1941 52.781C87.1708 52.781 86.3883 51.9864 86.3883 50.9474C86.3883 49.9083 87.1708 49.1138 88.1941 49.1138C89.2175 49.1138 90 49.9083 90 50.9474C90 51.9864 89.2175 52.781 88.1941 52.781ZM69.1121 52.781C68.0888 52.781 67.2461 51.9864 67.2461 50.9474C67.2461 49.9083 68.0888 49.1138 69.1121 49.1138C70.1354 49.1138 70.918 49.9083 70.918 50.9474C70.918 51.9864 70.1354 52.781 69.1121 52.781ZM50.0301 52.781C49.0068 52.781 48.164 51.9864 48.164 50.9474C48.164 49.9083 49.0068 49.1138 50.0301 49.1138C51.0534 49.1138 51.836 49.9083 51.836 50.9474C51.836 51.9864 51.0534 52.781 50.0301 52.781ZM30.9481 52.781C29.9248 52.781 29.082 51.9864 29.082 50.9474C29.082 49.9083 29.9248 49.1138 30.9481 49.1138C31.9112 49.1138 32.754 49.9083 32.754 50.9474C32.754 51.9864 31.9112 52.781 30.9481 52.781ZM69.1121 35.7284C68.0888 35.7284 67.2461 34.9338 67.2461 33.8947C67.2461 32.8557 68.0888 32 69.1121 32C70.1354 32 70.918 32.8557 70.918 33.8947C70.918 34.9338 70.1354 35.7284 69.1121 35.7284ZM50.0301 35.7284C49.0068 35.7284 48.164 34.9338 48.164 33.8947C48.164 32.8557 49.0068 32 50.0301 32C51.0534 32 51.836 32.8557 51.836 33.8947C51.836 34.9338 51.0534 35.7284 50.0301 35.7284ZM30.9481 35.7284C29.9248 35.7284 29.082 34.9338 29.082 33.8947C29.082 32.8557 29.9248 32 30.9481 32C31.9112 32 32.754 32.8557 32.754 33.8947C32.754 34.9338 31.9112 35.7284 30.9481 35.7284ZM11.8059 35.7284C10.8427 35.7284 10 34.9338 10 33.8947C10 32.8557 10.8427 32 11.8059 32C12.8292 32 13.6719 32.8557 13.6719 33.8947C13.6719 34.9338 12.8292 35.7284 11.8059 35.7284ZM11.8059 52.781C10.8427 52.781 10 51.9864 10 50.9474C10 49.9083 10.8427 49.1138 11.8059 49.1138C12.8292 49.1138 13.6719 49.9083 13.6719 50.9474C13.6719 51.9864 12.8292 52.781 11.8059 52.781Z" fill="#8C52FF"/>
</svg>
