<svg width="131" height="186" viewBox="0 0 131 186" fill="none" xmlns="http://www.w3.org/2000/svg">
<path d="M15.7972 69.6807C38.1979 55.3195 51.5507 17.0885 71.1831 19.1801C90.6615 21.249 105.026 53.2201 109.469 84.2829C113.913 115.346 108.592 145.537 91.8414 160.437C74.932 175.479 46.588 175.223 25.4595 169.514C4.18785 163.765 -9.89076 152.433 -20.2291 138.773C-30.6283 125.033 -37.215 108.968 -32.9026 97.5457C-28.6368 86.2383 -0.649374 80.2135 15.7972 69.6807Z" fill="white"/>
<path fill-rule="evenodd" clip-rule="evenodd" d="M89.5755 52.8817C88.7696 52.8817 88.1534 52.2676 88.1534 51.4646C88.1534 50.6615 88.7696 50.0001 89.5755 50.0001C90.3813 50.0001 90.9975 50.6615 90.9975 51.4646C90.9975 52.2676 90.3813 52.8817 89.5755 52.8817ZM89.5755 105.648C88.7696 105.648 88.1534 104.987 88.1534 104.231C88.1534 103.428 88.7696 102.766 89.5755 102.766C90.3813 102.766 90.9975 103.428 90.9975 104.231C90.9975 104.987 90.3813 105.648 89.5755 105.648ZM74.549 105.648C73.7431 105.648 73.0795 104.987 73.0795 104.231C73.0795 103.428 73.7431 102.766 74.549 102.766C75.3548 102.766 75.971 103.428 75.971 104.231C75.971 104.987 75.3548 105.648 74.549 105.648ZM59.5225 105.648C58.7166 105.648 58.053 104.987 58.053 104.231C58.053 103.428 58.7166 102.766 59.5225 102.766C60.3283 102.766 60.9445 103.428 60.9445 104.231C60.9445 104.987 60.3283 105.648 59.5225 105.648ZM44.496 105.648C43.6901 105.648 43.0265 104.987 43.0265 104.231C43.0265 103.428 43.6901 102.766 44.496 102.766C45.2544 102.766 45.918 103.428 45.918 104.231C45.918 104.987 45.2544 105.648 44.496 105.648ZM29.4221 105.648C28.6636 105.648 28 104.987 28 104.231C28 103.428 28.6636 102.766 29.4221 102.766C30.2279 102.766 30.8915 103.428 30.8915 104.231C30.8915 104.987 30.2279 105.648 29.4221 105.648ZM89.5755 92.4682C88.7696 92.4682 88.1534 91.8069 88.1534 91.0038C88.1534 90.248 88.7696 89.5866 89.5755 89.5866C90.3813 89.5866 90.9975 90.248 90.9975 91.0038C90.9975 91.8069 90.3813 92.4682 89.5755 92.4682ZM74.549 92.4682C73.7431 92.4682 73.0795 91.8069 73.0795 91.0038C73.0795 90.248 73.7431 89.5866 74.549 89.5866C75.3548 89.5866 75.971 90.248 75.971 91.0038C75.971 91.8069 75.3548 92.4682 74.549 92.4682ZM59.5225 92.4682C58.7166 92.4682 58.053 91.8069 58.053 91.0038C58.053 90.248 58.7166 89.5866 59.5225 89.5866C60.3283 89.5866 60.9445 90.248 60.9445 91.0038C60.9445 91.8069 60.3283 92.4682 59.5225 92.4682ZM44.496 92.4682C43.6901 92.4682 43.0265 91.8069 43.0265 91.0038C43.0265 90.248 43.6901 89.5866 44.496 89.5866C45.2544 89.5866 45.918 90.248 45.918 91.0038C45.918 91.8069 45.2544 92.4682 44.496 92.4682ZM29.4221 92.4682C28.6636 92.4682 28 91.8069 28 91.0038C28 90.248 28.6636 89.5866 29.4221 89.5866C30.2279 89.5866 30.8915 90.248 30.8915 91.0038C30.8915 91.8069 30.2279 92.4682 29.4221 92.4682ZM89.5755 79.2885C88.7696 79.2885 88.1534 78.6271 88.1534 77.824C88.1534 77.021 88.7696 76.4069 89.5755 76.4069C90.3813 76.4069 90.9975 77.021 90.9975 77.824C90.9975 78.6271 90.3813 79.2885 89.5755 79.2885ZM74.549 79.2885C73.7431 79.2885 73.0795 78.6271 73.0795 77.824C73.0795 77.021 73.7431 76.4069 74.549 76.4069C75.3548 76.4069 75.971 77.021 75.971 77.824C75.971 78.6271 75.3548 79.2885 74.549 79.2885ZM59.5225 79.2885C58.7166 79.2885 58.053 78.6271 58.053 77.824C58.053 77.021 58.7166 76.4069 59.5225 76.4069C60.3283 76.4069 60.9445 77.021 60.9445 77.824C60.9445 78.6271 60.3283 79.2885 59.5225 79.2885ZM44.496 79.2885C43.6901 79.2885 43.0265 78.6271 43.0265 77.824C43.0265 77.021 43.6901 76.4069 44.496 76.4069C45.2544 76.4069 45.918 77.021 45.918 77.824C45.918 78.6271 45.2544 79.2885 44.496 79.2885ZM29.4221 79.2885C28.6636 79.2885 28 78.6271 28 77.824C28 77.021 28.6636 76.4069 29.4221 76.4069C30.2279 76.4069 30.8915 77.021 30.8915 77.824C30.8915 78.6271 30.2279 79.2885 29.4221 79.2885ZM89.5755 66.0615C88.7696 66.0615 88.1534 65.4474 88.1534 64.6443C88.1534 63.8412 88.7696 63.2271 89.5755 63.2271C90.3813 63.2271 90.9975 63.8412 90.9975 64.6443C90.9975 65.4474 90.3813 66.0615 89.5755 66.0615ZM74.549 66.0615C73.7431 66.0615 73.0795 65.4474 73.0795 64.6443C73.0795 63.8412 73.7431 63.2271 74.549 63.2271C75.3548 63.2271 75.971 63.8412 75.971 64.6443C75.971 65.4474 75.3548 66.0615 74.549 66.0615ZM59.5225 66.0615C58.7166 66.0615 58.053 65.4474 58.053 64.6443C58.053 63.8412 58.7166 63.2271 59.5225 63.2271C60.3283 63.2271 60.9445 63.8412 60.9445 64.6443C60.9445 65.4474 60.3283 66.0615 59.5225 66.0615ZM44.496 66.0615C43.6901 66.0615 43.0265 65.4474 43.0265 64.6443C43.0265 63.8412 43.6901 63.2271 44.496 63.2271C45.2544 63.2271 45.918 63.8412 45.918 64.6443C45.918 65.4474 45.2544 66.0615 44.496 66.0615ZM74.549 52.8817C73.7431 52.8817 73.0795 52.2676 73.0795 51.4646C73.0795 50.6615 73.7431 50.0001 74.549 50.0001C75.3548 50.0001 75.971 50.6615 75.971 51.4646C75.971 52.2676 75.3548 52.8817 74.549 52.8817ZM59.5225 52.8817C58.7166 52.8817 58.053 52.2676 58.053 51.4646C58.053 50.6615 58.7166 50.0001 59.5225 50.0001C60.3283 50.0001 60.9445 50.6615 60.9445 51.4646C60.9445 52.2676 60.3283 52.8817 59.5225 52.8817ZM44.496 52.8817C43.6901 52.8817 43.0265 52.2676 43.0265 51.4646C43.0265 50.6615 43.6901 50.0001 44.496 50.0001C45.2544 50.0001 45.918 50.6615 45.918 51.4646C45.918 52.2676 45.2544 52.8817 44.496 52.8817ZM29.4221 52.8817C28.6636 52.8817 28 52.2676 28 51.4646C28 50.6615 28.6636 50.0001 29.4221 50.0001C30.2279 50.0001 30.8915 50.6615 30.8915 51.4646C30.8915 52.2676 30.2279 52.8817 29.4221 52.8817ZM29.4221 66.0615C28.6636 66.0615 28 65.4474 28 64.6443C28 63.8412 28.6636 63.2271 29.4221 63.2271C30.2279 63.2271 30.8915 63.8412 30.8915 64.6443C30.8915 65.4474 30.2279 66.0615 29.4221 66.0615Z" fill="#8C52FF"/>
</svg>
