<svg width="369" height="431" viewBox="0 0 369 431" fill="none" xmlns="http://www.w3.org/2000/svg">
<path d="M123.213 148.76C169.95 114.527 193.915 29.57 236.802 31.502C279.351 33.4051 314.725 101.046 328.445 168.034C342.166 235.023 334.579 301.417 300.177 336.069C265.449 371.05 203.895 374.272 157.286 364.67C110.362 355 78.317 332.223 54.085 303.883C29.7105 275.376 13.3057 241.304 21.1671 215.879C28.9422 190.709 88.8983 173.869 123.213 148.76Z" fill="white"/>
<path fill-rule="evenodd" clip-rule="evenodd" d="M326.009 426.865C326.009 424.917 327.499 423.427 329.447 423.427C331.396 423.427 333 424.917 333 426.865C333 428.813 331.396 430.303 329.447 430.303C327.499 430.303 326.009 428.813 326.009 426.865ZM198 426.865C198 424.917 199.604 423.427 201.438 423.427C203.386 423.427 204.991 424.917 204.991 426.865C204.991 428.813 203.386 430.303 201.438 430.303C199.604 430.303 198 428.813 198 426.865ZM198 390.537C198 388.589 199.604 386.984 201.438 386.984C203.386 386.984 204.991 388.589 204.991 390.537C204.991 392.485 203.386 393.975 201.438 393.975C199.604 393.975 198 392.485 198 390.537ZM198 354.208C198 352.26 199.604 350.656 201.438 350.656C203.386 350.656 204.991 352.26 204.991 354.208C204.991 356.156 203.386 357.646 201.438 357.646C199.604 357.646 198 356.156 198 354.208ZM198 317.88C198 315.931 199.604 314.327 201.438 314.327C203.386 314.327 204.991 315.931 204.991 317.88C204.991 319.713 203.386 321.318 201.438 321.318C199.604 321.318 198 319.713 198 317.88ZM198 281.437C198 279.603 199.604 277.999 201.438 277.999C203.386 277.999 204.991 279.603 204.991 281.437C204.991 283.385 203.386 284.989 201.438 284.989C199.604 284.989 198 283.385 198 281.437ZM229.974 426.865C229.974 424.917 231.578 423.427 233.526 423.427C235.36 423.427 236.964 424.917 236.964 426.865C236.964 428.813 235.36 430.303 233.526 430.303C231.578 430.303 229.974 428.813 229.974 426.865ZM229.974 390.537C229.974 388.589 231.578 386.984 233.526 386.984C235.36 386.984 236.964 388.589 236.964 390.537C236.964 392.485 235.36 393.975 233.526 393.975C231.578 393.975 229.974 392.485 229.974 390.537ZM229.974 354.208C229.974 352.26 231.578 350.656 233.526 350.656C235.36 350.656 236.964 352.26 236.964 354.208C236.964 356.156 235.36 357.646 233.526 357.646C231.578 357.646 229.974 356.156 229.974 354.208ZM229.974 317.88C229.974 315.931 231.578 314.327 233.526 314.327C235.36 314.327 236.964 315.931 236.964 317.88C236.964 319.713 235.36 321.318 233.526 321.318C231.578 321.318 229.974 319.713 229.974 317.88ZM229.974 281.437C229.974 279.603 231.578 277.999 233.526 277.999C235.36 277.999 236.964 279.603 236.964 281.437C236.964 283.385 235.36 284.989 233.526 284.989C231.578 284.989 229.974 283.385 229.974 281.437ZM261.947 426.865C261.947 424.917 263.552 423.427 265.5 423.427C267.448 423.427 268.938 424.917 268.938 426.865C268.938 428.813 267.448 430.303 265.5 430.303C263.552 430.303 261.947 428.813 261.947 426.865ZM261.947 390.537C261.947 388.589 263.552 386.984 265.5 386.984C267.448 386.984 268.938 388.589 268.938 390.537C268.938 392.485 267.448 393.975 265.5 393.975C263.552 393.975 261.947 392.485 261.947 390.537ZM261.947 354.208C261.947 352.26 263.552 350.656 265.5 350.656C267.448 350.656 268.938 352.26 268.938 354.208C268.938 356.156 267.448 357.646 265.5 357.646C263.552 357.646 261.947 356.156 261.947 354.208ZM261.947 317.88C261.947 315.931 263.552 314.327 265.5 314.327C267.448 314.327 268.938 315.931 268.938 317.88C268.938 319.713 267.448 321.318 265.5 321.318C263.552 321.318 261.947 319.713 261.947 317.88ZM261.947 281.437C261.947 279.603 263.552 277.999 265.5 277.999C267.448 277.999 268.938 279.603 268.938 281.437C268.938 283.385 267.448 284.989 265.5 284.989C263.552 284.989 261.947 283.385 261.947 281.437ZM294.036 426.865C294.036 424.917 295.525 423.427 297.474 423.427C299.422 423.427 300.912 424.917 300.912 426.865C300.912 428.813 299.422 430.303 297.474 430.303C295.525 430.303 294.036 428.813 294.036 426.865ZM294.036 390.537C294.036 388.589 295.525 386.984 297.474 386.984C299.422 386.984 300.912 388.589 300.912 390.537C300.912 392.485 299.422 393.975 297.474 393.975C295.525 393.975 294.036 392.485 294.036 390.537ZM294.036 354.208C294.036 352.26 295.525 350.656 297.474 350.656C299.422 350.656 300.912 352.26 300.912 354.208C300.912 356.156 299.422 357.646 297.474 357.646C295.525 357.646 294.036 356.156 294.036 354.208ZM294.036 317.88C294.036 315.931 295.525 314.327 297.474 314.327C299.422 314.327 300.912 315.931 300.912 317.88C300.912 319.713 299.422 321.318 297.474 321.318C295.525 321.318 294.036 319.713 294.036 317.88ZM326.009 390.537C326.009 388.589 327.499 386.984 329.447 386.984C331.396 386.984 333 388.589 333 390.537C333 392.485 331.396 393.975 329.447 393.975C327.499 393.975 326.009 392.485 326.009 390.537ZM326.009 354.208C326.009 352.26 327.499 350.656 329.447 350.656C331.396 350.656 333 352.26 333 354.208C333 356.156 331.396 357.646 329.447 357.646C327.499 357.646 326.009 356.156 326.009 354.208ZM326.009 317.88C326.009 315.931 327.499 314.327 329.447 314.327C331.396 314.327 333 315.931 333 317.88C333 319.713 331.396 321.318 329.447 321.318C327.499 321.318 326.009 319.713 326.009 317.88ZM326.009 281.437C326.009 279.603 327.499 277.999 329.447 277.999C331.396 277.999 333 279.603 333 281.437C333 283.385 331.396 284.989 329.447 284.989C327.499 284.989 326.009 283.385 326.009 281.437ZM294.036 281.437C294.036 279.603 295.525 277.999 297.474 277.999C299.422 277.999 300.912 279.603 300.912 281.437C300.912 283.385 299.422 284.989 297.474 284.989C295.525 284.989 294.036 283.385 294.036 281.437Z" fill="#8C52FF"/>
</svg>
