<svg width="250" height="312" viewBox="0 0 250 312" fill="none" xmlns="http://www.w3.org/2000/svg">
<path d="M106.61 115.777C144.193 93.7495 168.589 32.0537 200.541 36.7735C232.243 41.4459 253.575 94.7253 258.751 145.863C263.927 197.001 253.201 246.067 224.818 269.351C196.166 292.855 149.85 290.564 115.696 279.825C81.3101 269.01 59.0578 249.532 43.0761 226.491C27.0003 203.314 17.3127 176.584 25.1297 158.172C32.8627 139.946 79.0176 131.932 106.61 115.777Z" fill="white"/>
<path fill-rule="evenodd" clip-rule="evenodd" d="M234.327 196.291C234.327 194.756 235.497 193.582 237.027 193.582C238.557 193.582 239.816 194.756 239.816 196.291C239.816 197.826 238.557 199 237.027 199C235.497 199 234.327 197.826 234.327 196.291ZM133.816 196.291C133.816 194.756 135.076 193.582 136.516 193.582C138.046 193.582 139.305 194.756 139.305 196.291C139.305 197.826 138.046 199 136.516 199C135.076 199 133.816 197.826 133.816 196.291ZM133.816 167.668C133.816 166.133 135.076 164.869 136.516 164.869C138.046 164.869 139.305 166.133 139.305 167.668C139.305 169.203 138.046 170.377 136.516 170.377C135.076 170.377 133.816 169.203 133.816 167.668ZM133.816 139.045C133.816 137.51 135.076 136.246 136.516 136.246C138.046 136.246 139.305 137.51 139.305 139.045C139.305 140.58 138.046 141.754 136.516 141.754C135.076 141.754 133.816 140.58 133.816 139.045ZM133.816 110.422C133.816 108.887 135.076 107.623 136.516 107.623C138.046 107.623 139.305 108.887 139.305 110.422C139.305 111.867 138.046 113.131 136.516 113.131C135.076 113.131 133.816 111.867 133.816 110.422ZM133.816 81.7088C133.816 80.2641 135.076 79 136.516 79C138.046 79 139.305 80.2641 139.305 81.7088C139.305 83.2438 138.046 84.5079 136.516 84.5079C135.076 84.5079 133.816 83.2438 133.816 81.7088ZM158.922 196.291C158.922 194.756 160.181 193.582 161.711 193.582C163.151 193.582 164.411 194.756 164.411 196.291C164.411 197.826 163.151 199 161.711 199C160.181 199 158.922 197.826 158.922 196.291ZM158.922 167.668C158.922 166.133 160.181 164.869 161.711 164.869C163.151 164.869 164.411 166.133 164.411 167.668C164.411 169.203 163.151 170.377 161.711 170.377C160.181 170.377 158.922 169.203 158.922 167.668ZM158.922 139.045C158.922 137.51 160.181 136.246 161.711 136.246C163.151 136.246 164.411 137.51 164.411 139.045C164.411 140.58 163.151 141.754 161.711 141.754C160.181 141.754 158.922 140.58 158.922 139.045ZM158.922 110.422C158.922 108.887 160.181 107.623 161.711 107.623C163.151 107.623 164.411 108.887 164.411 110.422C164.411 111.867 163.151 113.131 161.711 113.131C160.181 113.131 158.922 111.867 158.922 110.422ZM158.922 81.7088C158.922 80.2641 160.181 79 161.711 79C163.151 79 164.411 80.2641 164.411 81.7088C164.411 83.2438 163.151 84.5079 161.711 84.5079C160.181 84.5079 158.922 83.2438 158.922 81.7088ZM184.027 196.291C184.027 194.756 185.287 193.582 186.816 193.582C188.346 193.582 189.516 194.756 189.516 196.291C189.516 197.826 188.346 199 186.816 199C185.287 199 184.027 197.826 184.027 196.291ZM184.027 167.668C184.027 166.133 185.287 164.869 186.816 164.869C188.346 164.869 189.516 166.133 189.516 167.668C189.516 169.203 188.346 170.377 186.816 170.377C185.287 170.377 184.027 169.203 184.027 167.668ZM184.027 139.045C184.027 137.51 185.287 136.246 186.816 136.246C188.346 136.246 189.516 137.51 189.516 139.045C189.516 140.58 188.346 141.754 186.816 141.754C185.287 141.754 184.027 140.58 184.027 139.045ZM184.027 110.422C184.027 108.887 185.287 107.623 186.816 107.623C188.346 107.623 189.516 108.887 189.516 110.422C189.516 111.867 188.346 113.131 186.816 113.131C185.287 113.131 184.027 111.867 184.027 110.422ZM184.027 81.7088C184.027 80.2641 185.287 79 186.816 79C188.346 79 189.516 80.2641 189.516 81.7088C189.516 83.2438 188.346 84.5079 186.816 84.5079C185.287 84.5079 184.027 83.2438 184.027 81.7088ZM209.222 196.291C209.222 194.756 210.392 193.582 211.922 193.582C213.451 193.582 214.621 194.756 214.621 196.291C214.621 197.826 213.451 199 211.922 199C210.392 199 209.222 197.826 209.222 196.291ZM209.222 167.668C209.222 166.133 210.392 164.869 211.922 164.869C213.451 164.869 214.621 166.133 214.621 167.668C214.621 169.203 213.451 170.377 211.922 170.377C210.392 170.377 209.222 169.203 209.222 167.668ZM209.222 139.045C209.222 137.51 210.392 136.246 211.922 136.246C213.451 136.246 214.621 137.51 214.621 139.045C214.621 140.58 213.451 141.754 211.922 141.754C210.392 141.754 209.222 140.58 209.222 139.045ZM209.222 110.422C209.222 108.887 210.392 107.623 211.922 107.623C213.451 107.623 214.621 108.887 214.621 110.422C214.621 111.867 213.451 113.131 211.922 113.131C210.392 113.131 209.222 111.867 209.222 110.422ZM234.327 167.668C234.327 166.133 235.497 164.869 237.027 164.869C238.557 164.869 239.816 166.133 239.816 167.668C239.816 169.203 238.557 170.377 237.027 170.377C235.497 170.377 234.327 169.203 234.327 167.668ZM234.327 139.045C234.327 137.51 235.497 136.246 237.027 136.246C238.557 136.246 239.816 137.51 239.816 139.045C239.816 140.58 238.557 141.754 237.027 141.754C235.497 141.754 234.327 140.58 234.327 139.045ZM234.327 110.422C234.327 108.887 235.497 107.623 237.027 107.623C238.557 107.623 239.816 108.887 239.816 110.422C239.816 111.867 238.557 113.131 237.027 113.131C235.497 113.131 234.327 111.867 234.327 110.422ZM234.327 81.7088C234.327 80.2641 235.497 79 237.027 79C238.557 79 239.816 80.2641 239.816 81.7088C239.816 83.2438 238.557 84.5079 237.027 84.5079C235.497 84.5079 234.327 83.2438 234.327 81.7088ZM209.222 81.7088C209.222 80.2641 210.392 79 211.922 79C213.451 79 214.621 80.2641 214.621 81.7088C214.621 83.2438 213.451 84.5079 211.922 84.5079C210.392 84.5079 209.222 83.2438 209.222 81.7088Z" fill="#8C52FF"/>
</svg>
