<svg width="375" height="367" viewBox="0 0 375 367" fill="none" xmlns="http://www.w3.org/2000/svg">
<path d="M313.817 267.474C331.926 230.79 329.179 182.606 308.138 149.472C287.259 115.927 247.922 97.8422 205.272 74.1929C162.624 50.5676 116.687 21.3741 78.9851 30.1841C41.4733 38.6028 12.7715 84.776 12.6284 125.875C12.1848 167.087 40.5971 203.087 59.766 238.353C78.7519 274.058 88.2695 308.451 113.366 327.849C138.165 347.385 178.135 351.788 217.841 341.095C257.114 330.267 295.823 304.459 313.817 267.474Z" fill="white"/>
<path fill-rule="evenodd" clip-rule="evenodd" d="M225.506 200.014C227.427 200.014 229.013 198.428 229.013 196.507C229.013 194.587 227.427 193.001 225.506 193.001C223.586 193.001 222 194.587 222 196.507C222 198.428 223.586 200.014 225.506 200.014ZM225.506 328.001C227.427 328.001 229.013 326.415 229.013 324.494C229.013 322.574 227.427 320.988 225.506 320.988C223.586 320.988 222 322.574 222 324.494C222 326.415 223.586 328.001 225.506 328.001ZM261.824 328.001C263.744 328.001 265.33 326.415 265.33 324.494C265.33 322.574 263.744 320.988 261.824 320.988C259.904 320.988 258.317 322.574 258.317 324.494C258.317 326.415 259.904 328.001 261.824 328.001ZM298.224 328.001C300.145 328.001 301.647 326.415 301.647 324.494C301.647 322.574 300.145 320.988 298.224 320.988C296.304 320.988 294.718 322.574 294.718 324.494C294.718 326.415 296.304 328.001 298.224 328.001ZM334.542 328.001C336.462 328.001 338.048 326.415 338.048 324.494C338.048 322.574 336.462 320.988 334.542 320.988C332.622 320.988 331.035 322.574 331.035 324.494C331.035 326.415 332.622 328.001 334.542 328.001ZM370.859 328.001C372.779 328.001 374.365 326.415 374.365 324.494C374.365 322.574 372.779 320.988 370.859 320.988C368.939 320.988 367.436 322.574 367.436 324.494C367.436 326.415 368.939 328.001 370.859 328.001ZM225.506 295.942C227.427 295.942 229.013 294.439 229.013 292.519C229.013 290.598 227.427 289.012 225.506 289.012C223.586 289.012 222 290.598 222 292.519C222 294.439 223.586 295.942 225.506 295.942ZM261.824 295.942C263.744 295.942 265.33 294.439 265.33 292.519C265.33 290.598 263.744 289.012 261.824 289.012C259.904 289.012 258.317 290.598 258.317 292.519C258.317 294.439 259.904 295.942 261.824 295.942ZM298.224 295.942C300.145 295.942 301.647 294.439 301.647 292.519C301.647 290.598 300.145 289.012 298.224 289.012C296.304 289.012 294.718 290.598 294.718 292.519C294.718 294.439 296.304 295.942 298.224 295.942ZM334.542 295.942C336.462 295.942 338.048 294.439 338.048 292.519C338.048 290.598 336.462 289.012 334.542 289.012C332.622 289.012 331.035 290.598 331.035 292.519C331.035 294.439 332.622 295.942 334.542 295.942ZM370.859 295.942C372.779 295.942 374.365 294.439 374.365 292.519C374.365 290.598 372.779 289.012 370.859 289.012C368.939 289.012 367.436 290.598 367.436 292.519C367.436 294.439 368.939 295.942 370.859 295.942ZM225.506 263.966C227.427 263.966 229.013 262.379 229.013 260.459C229.013 258.539 227.427 257.036 225.506 257.036C223.586 257.036 222 258.539 222 260.459C222 262.379 223.586 263.966 225.506 263.966ZM261.824 263.966C263.744 263.966 265.33 262.379 265.33 260.459C265.33 258.539 263.744 257.036 261.824 257.036C259.904 257.036 258.317 258.539 258.317 260.459C258.317 262.379 259.904 263.966 261.824 263.966ZM298.224 263.966C300.145 263.966 301.647 262.379 301.647 260.459C301.647 258.539 300.145 257.036 298.224 257.036C296.304 257.036 294.718 258.539 294.718 260.459C294.718 262.379 296.304 263.966 298.224 263.966ZM334.542 263.966C336.462 263.966 338.048 262.379 338.048 260.459C338.048 258.539 336.462 257.036 334.542 257.036C332.622 257.036 331.035 258.539 331.035 260.459C331.035 262.379 332.622 263.966 334.542 263.966ZM370.859 263.966C372.779 263.966 374.365 262.379 374.365 260.459C374.365 258.539 372.779 257.036 370.859 257.036C368.939 257.036 367.436 258.539 367.436 260.459C367.436 262.379 368.939 263.966 370.859 263.966ZM225.506 231.99C227.427 231.99 229.013 230.404 229.013 228.483C229.013 226.563 227.427 224.977 225.506 224.977C223.586 224.977 222 226.563 222 228.483C222 230.404 223.586 231.99 225.506 231.99ZM261.824 231.99C263.744 231.99 265.33 230.404 265.33 228.483C265.33 226.563 263.744 224.977 261.824 224.977C259.904 224.977 258.317 226.563 258.317 228.483C258.317 230.404 259.904 231.99 261.824 231.99ZM298.224 231.99C300.145 231.99 301.647 230.404 301.647 228.483C301.647 226.563 300.145 224.977 298.224 224.977C296.304 224.977 294.718 226.563 294.718 228.483C294.718 230.404 296.304 231.99 298.224 231.99ZM334.542 231.99C336.462 231.99 338.048 230.404 338.048 228.483C338.048 226.563 336.462 224.977 334.542 224.977C332.622 224.977 331.035 226.563 331.035 228.483C331.035 230.404 332.622 231.99 334.542 231.99ZM261.824 200.014C263.744 200.014 265.33 198.428 265.33 196.507C265.33 194.587 263.744 193.001 261.824 193.001C259.904 193.001 258.317 194.587 258.317 196.507C258.317 198.428 259.904 200.014 261.824 200.014ZM298.224 200.014C300.145 200.014 301.647 198.428 301.647 196.507C301.647 194.587 300.145 193.001 298.224 193.001C296.304 193.001 294.718 194.587 294.718 196.507C294.718 198.428 296.304 200.014 298.224 200.014ZM334.542 200.014C336.462 200.014 338.048 198.428 338.048 196.507C338.048 194.587 336.462 193.001 334.542 193.001C332.622 193.001 331.035 194.587 331.035 196.507C331.035 198.428 332.622 200.014 334.542 200.014ZM370.859 200.014C372.779 200.014 374.365 198.428 374.365 196.507C374.365 194.587 372.779 193.001 370.859 193.001C368.939 193.001 367.436 194.587 367.436 196.507C367.436 198.428 368.939 200.014 370.859 200.014ZM370.859 231.99C372.779 231.99 374.365 230.404 374.365 228.483C374.365 226.563 372.779 224.977 370.859 224.977C368.939 224.977 367.436 226.563 367.436 228.483C367.436 230.404 368.939 231.99 370.859 231.99Z" fill="#8C52FF"/>
</svg>
