<svg width="365" height="402" viewBox="0 0 365 402" fill="none" xmlns="http://www.w3.org/2000/svg">
<path d="M134.737 221.45C110.977 177.304 41.0469 146.667 47.8123 110.115C54.5129 73.8483 116.679 51.5386 175.705 47.7222C234.731 43.9059 290.71 58.293 316.299 91.9102C342.13 125.846 337.556 179.021 323.776 217.855C309.9 256.951 286.568 281.731 259.4 299.15C232.073 316.671 200.927 326.696 180.081 316.936C159.444 307.281 152.16 253.861 134.737 221.45Z" fill="white"/>
<path fill-rule="evenodd" clip-rule="evenodd" d="M326.009 397.867C326.009 395.919 327.499 394.429 329.447 394.429C331.396 394.429 333 395.919 333 397.867C333 399.815 331.396 401.305 329.447 401.305C327.499 401.305 326.009 399.815 326.009 397.867ZM198 397.867C198 395.919 199.604 394.429 201.438 394.429C203.386 394.429 204.991 395.919 204.991 397.867C204.991 399.815 203.386 401.305 201.438 401.305C199.604 401.305 198 399.815 198 397.867ZM198 361.538C198 359.59 199.604 357.986 201.438 357.986C203.386 357.986 204.991 359.59 204.991 361.538C204.991 363.486 203.386 364.976 201.438 364.976C199.604 364.976 198 363.486 198 361.538ZM198 325.21C198 323.261 199.604 321.657 201.438 321.657C203.386 321.657 204.991 323.261 204.991 325.21C204.991 327.158 203.386 328.648 201.438 328.648C199.604 328.648 198 327.158 198 325.21ZM198 288.881C198 286.933 199.604 285.329 201.438 285.329C203.386 285.329 204.991 286.933 204.991 288.881C204.991 290.715 203.386 292.319 201.438 292.319C199.604 292.319 198 290.715 198 288.881ZM198 252.438C198 250.604 199.604 249 201.438 249C203.386 249 204.991 250.604 204.991 252.438C204.991 254.386 203.386 255.991 201.438 255.991C199.604 255.991 198 254.386 198 252.438ZM229.974 397.867C229.974 395.919 231.578 394.429 233.526 394.429C235.36 394.429 236.964 395.919 236.964 397.867C236.964 399.815 235.36 401.305 233.526 401.305C231.578 401.305 229.974 399.815 229.974 397.867ZM229.974 361.538C229.974 359.59 231.578 357.986 233.526 357.986C235.36 357.986 236.964 359.59 236.964 361.538C236.964 363.486 235.36 364.976 233.526 364.976C231.578 364.976 229.974 363.486 229.974 361.538ZM229.974 325.21C229.974 323.261 231.578 321.657 233.526 321.657C235.36 321.657 236.964 323.261 236.964 325.21C236.964 327.158 235.36 328.648 233.526 328.648C231.578 328.648 229.974 327.158 229.974 325.21ZM229.974 288.881C229.974 286.933 231.578 285.329 233.526 285.329C235.36 285.329 236.964 286.933 236.964 288.881C236.964 290.715 235.36 292.319 233.526 292.319C231.578 292.319 229.974 290.715 229.974 288.881ZM229.974 252.438C229.974 250.604 231.578 249 233.526 249C235.36 249 236.964 250.604 236.964 252.438C236.964 254.386 235.36 255.991 233.526 255.991C231.578 255.991 229.974 254.386 229.974 252.438ZM261.947 397.867C261.947 395.919 263.552 394.429 265.5 394.429C267.448 394.429 268.938 395.919 268.938 397.867C268.938 399.815 267.448 401.305 265.5 401.305C263.552 401.305 261.947 399.815 261.947 397.867ZM261.947 361.538C261.947 359.59 263.552 357.986 265.5 357.986C267.448 357.986 268.938 359.59 268.938 361.538C268.938 363.486 267.448 364.976 265.5 364.976C263.552 364.976 261.947 363.486 261.947 361.538ZM261.947 325.21C261.947 323.261 263.552 321.657 265.5 321.657C267.448 321.657 268.938 323.261 268.938 325.21C268.938 327.158 267.448 328.648 265.5 328.648C263.552 328.648 261.947 327.158 261.947 325.21ZM261.947 288.881C261.947 286.933 263.552 285.329 265.5 285.329C267.448 285.329 268.938 286.933 268.938 288.881C268.938 290.715 267.448 292.319 265.5 292.319C263.552 292.319 261.947 290.715 261.947 288.881ZM261.947 252.438C261.947 250.604 263.552 249 265.5 249C267.448 249 268.938 250.604 268.938 252.438C268.938 254.386 267.448 255.991 265.5 255.991C263.552 255.991 261.947 254.386 261.947 252.438ZM294.036 397.867C294.036 395.919 295.525 394.429 297.474 394.429C299.422 394.429 300.912 395.919 300.912 397.867C300.912 399.815 299.422 401.305 297.474 401.305C295.525 401.305 294.036 399.815 294.036 397.867ZM294.036 361.538C294.036 359.59 295.525 357.986 297.474 357.986C299.422 357.986 300.912 359.59 300.912 361.538C300.912 363.486 299.422 364.976 297.474 364.976C295.525 364.976 294.036 363.486 294.036 361.538ZM294.036 325.21C294.036 323.261 295.525 321.657 297.474 321.657C299.422 321.657 300.912 323.261 300.912 325.21C300.912 327.158 299.422 328.648 297.474 328.648C295.525 328.648 294.036 327.158 294.036 325.21ZM294.036 288.881C294.036 286.933 295.525 285.329 297.474 285.329C299.422 285.329 300.912 286.933 300.912 288.881C300.912 290.715 299.422 292.319 297.474 292.319C295.525 292.319 294.036 290.715 294.036 288.881ZM326.009 361.538C326.009 359.59 327.499 357.986 329.447 357.986C331.396 357.986 333 359.59 333 361.538C333 363.486 331.396 364.976 329.447 364.976C327.499 364.976 326.009 363.486 326.009 361.538ZM326.009 325.21C326.009 323.261 327.499 321.657 329.447 321.657C331.396 321.657 333 323.261 333 325.21C333 327.158 331.396 328.648 329.447 328.648C327.499 328.648 326.009 327.158 326.009 325.21ZM326.009 288.881C326.009 286.933 327.499 285.329 329.447 285.329C331.396 285.329 333 286.933 333 288.881C333 290.715 331.396 292.319 329.447 292.319C327.499 292.319 326.009 290.715 326.009 288.881ZM326.009 252.438C326.009 250.604 327.499 249 329.447 249C331.396 249 333 250.604 333 252.438C333 254.386 331.396 255.991 329.447 255.991C327.499 255.991 326.009 254.386 326.009 252.438ZM294.036 252.438C294.036 250.604 295.525 249 297.474 249C299.422 249 300.912 250.604 300.912 252.438C300.912 254.386 299.422 255.991 297.474 255.991C295.525 255.991 294.036 254.386 294.036 252.438Z" fill="#8C52FF"/>
</svg>
