<svg width="150" height="185" viewBox="0 0 150 185" fill="none" xmlns="http://www.w3.org/2000/svg">
<path d="M71.0911 116.846C58.5547 93.5525 21.6567 77.387 25.2264 58.1008C28.7619 38.9652 61.5629 27.1937 92.7075 25.1801C123.852 23.1664 153.389 30.7576 166.89 48.4953C180.52 66.4014 178.106 94.4582 170.835 114.948C163.514 135.577 151.203 148.652 136.868 157.843C122.45 167.088 106.016 172.378 95.0165 167.228C84.1275 162.133 80.2842 133.947 71.0911 116.846Z" fill="white"/>
<path fill-rule="evenodd" clip-rule="evenodd" d="M128.194 50.6248C127.171 50.6248 126.388 49.8523 126.388 48.8421C126.388 47.8319 127.171 47 128.194 47C129.217 47 130 47.8319 130 48.8421C130 49.8523 129.217 50.6248 128.194 50.6248ZM128.194 117C127.171 117 126.388 116.168 126.388 115.217C126.388 114.207 127.171 113.375 128.194 113.375C129.217 113.375 130 114.207 130 115.217C130 116.168 129.217 117 128.194 117ZM109.112 117C108.089 117 107.246 116.168 107.246 115.217C107.246 114.207 108.089 113.375 109.112 113.375C110.135 113.375 110.918 114.207 110.918 115.217C110.918 116.168 110.135 117 109.112 117ZM90.0301 117C89.0068 117 88.164 116.168 88.164 115.217C88.164 114.207 89.0068 113.375 90.0301 113.375C91.0534 113.375 91.836 114.207 91.836 115.217C91.836 116.168 91.0534 117 90.0301 117ZM70.9481 117C69.9248 117 69.082 116.168 69.082 115.217C69.082 114.207 69.9248 113.375 70.9481 113.375C71.9112 113.375 72.754 114.207 72.754 115.217C72.754 116.168 71.9112 117 70.9481 117ZM51.8059 117C50.8427 117 50 116.168 50 115.217C50 114.207 50.8427 113.375 51.8059 113.375C52.8292 113.375 53.6719 114.207 53.6719 115.217C53.6719 116.168 52.8292 117 51.8059 117ZM128.194 100.421C127.171 100.421 126.388 99.5891 126.388 98.5789C126.388 97.6282 127.171 96.7963 128.194 96.7963C129.217 96.7963 130 97.6282 130 98.5789C130 99.5891 129.217 100.421 128.194 100.421ZM109.112 100.421C108.089 100.421 107.246 99.5891 107.246 98.5789C107.246 97.6282 108.089 96.7963 109.112 96.7963C110.135 96.7963 110.918 97.6282 110.918 98.5789C110.918 99.5891 110.135 100.421 109.112 100.421ZM90.0301 100.421C89.0068 100.421 88.164 99.5891 88.164 98.5789C88.164 97.6282 89.0068 96.7963 90.0301 96.7963C91.0534 96.7963 91.836 97.6282 91.836 98.5789C91.836 99.5891 91.0534 100.421 90.0301 100.421ZM70.9481 100.421C69.9248 100.421 69.082 99.5891 69.082 98.5789C69.082 97.6282 69.9248 96.7963 70.9481 96.7963C71.9112 96.7963 72.754 97.6282 72.754 98.5789C72.754 99.5891 71.9112 100.421 70.9481 100.421ZM51.8059 100.421C50.8427 100.421 50 99.5891 50 98.5789C50 97.6282 50.8427 96.7963 51.8059 96.7963C52.8292 96.7963 53.6719 97.6282 53.6719 98.5789C53.6719 99.5891 52.8292 100.421 51.8059 100.421ZM128.194 83.8421C127.171 83.8421 126.388 83.0102 126.388 82C126.388 80.9898 127.171 80.2173 128.194 80.2173C129.217 80.2173 130 80.9898 130 82C130 83.0102 129.217 83.8421 128.194 83.8421ZM109.112 83.8421C108.089 83.8421 107.246 83.0102 107.246 82C107.246 80.9898 108.089 80.2173 109.112 80.2173C110.135 80.2173 110.918 80.9898 110.918 82C110.918 83.0102 110.135 83.8421 109.112 83.8421ZM90.0301 83.8421C89.0068 83.8421 88.164 83.0102 88.164 82C88.164 80.9898 89.0068 80.2173 90.0301 80.2173C91.0534 80.2173 91.836 80.9898 91.836 82C91.836 83.0102 91.0534 83.8421 90.0301 83.8421ZM70.9481 83.8421C69.9248 83.8421 69.082 83.0102 69.082 82C69.082 80.9898 69.9248 80.2173 70.9481 80.2173C71.9112 80.2173 72.754 80.9898 72.754 82C72.754 83.0102 71.9112 83.8421 70.9481 83.8421ZM51.8059 83.8421C50.8427 83.8421 50 83.0102 50 82C50 80.9898 50.8427 80.2173 51.8059 80.2173C52.8292 80.2173 53.6719 80.9898 53.6719 82C53.6719 83.0102 52.8292 83.8421 51.8059 83.8421ZM128.194 67.2037C127.171 67.2037 126.388 66.4312 126.388 65.4211C126.388 64.4109 127.171 63.6384 128.194 63.6384C129.217 63.6384 130 64.4109 130 65.4211C130 66.4312 129.217 67.2037 128.194 67.2037ZM109.112 67.2037C108.089 67.2037 107.246 66.4312 107.246 65.4211C107.246 64.4109 108.089 63.6384 109.112 63.6384C110.135 63.6384 110.918 64.4109 110.918 65.4211C110.918 66.4312 110.135 67.2037 109.112 67.2037ZM90.0301 67.2037C89.0068 67.2037 88.164 66.4312 88.164 65.4211C88.164 64.4109 89.0068 63.6384 90.0301 63.6384C91.0534 63.6384 91.836 64.4109 91.836 65.4211C91.836 66.4312 91.0534 67.2037 90.0301 67.2037ZM70.9481 67.2037C69.9248 67.2037 69.082 66.4312 69.082 65.4211C69.082 64.4109 69.9248 63.6384 70.9481 63.6384C71.9112 63.6384 72.754 64.4109 72.754 65.4211C72.754 66.4312 71.9112 67.2037 70.9481 67.2037ZM109.112 50.6248C108.089 50.6248 107.246 49.8523 107.246 48.8421C107.246 47.8319 108.089 47 109.112 47C110.135 47 110.918 47.8319 110.918 48.8421C110.918 49.8523 110.135 50.6248 109.112 50.6248ZM90.0301 50.6248C89.0068 50.6248 88.164 49.8523 88.164 48.8421C88.164 47.8319 89.0068 47 90.0301 47C91.0534 47 91.836 47.8319 91.836 48.8421C91.836 49.8523 91.0534 50.6248 90.0301 50.6248ZM70.9481 50.6248C69.9248 50.6248 69.082 49.8523 69.082 48.8421C69.082 47.8319 69.9248 47 70.9481 47C71.9112 47 72.754 47.8319 72.754 48.8421C72.754 49.8523 71.9112 50.6248 70.9481 50.6248ZM51.8059 50.6248C50.8427 50.6248 50 49.8523 50 48.8421C50 47.8319 50.8427 47 51.8059 47C52.8292 47 53.6719 47.8319 53.6719 48.8421C53.6719 49.8523 52.8292 50.6248 51.8059 50.6248ZM51.8059 67.2037C50.8427 67.2037 50 66.4312 50 65.4211C50 64.4109 50.8427 63.6384 51.8059 63.6384C52.8292 63.6384 53.6719 64.4109 53.6719 65.4211C53.6719 66.4312 52.8292 67.2037 51.8059 67.2037Z" fill="#8C52FF"/>
</svg>
