<svg width="244" height="278" viewBox="0 0 244 278" fill="none" xmlns="http://www.w3.org/2000/svg">
<path d="M106.837 175.594C87.9972 140.59 32.5473 116.296 37.9118 87.3131C43.2249 58.5564 92.5179 40.8664 139.322 37.8403C186.125 34.8142 230.512 46.2222 250.802 72.8782C271.285 99.7873 267.658 141.951 256.731 172.743C245.728 203.744 227.228 223.393 205.686 237.204C184.018 251.097 159.321 259.047 142.792 251.308C126.428 243.652 120.652 201.294 106.837 175.594Z" fill="white"/>
<path fill-rule="evenodd" clip-rule="evenodd" d="M221.314 42.5407C219.792 42.5407 218.628 41.3599 218.628 39.8158C218.628 38.2716 219.792 37 221.314 37C222.836 37 224 38.2716 224 39.8158C224 41.3599 222.836 42.5407 221.314 42.5407ZM221.314 144C219.792 144 218.628 142.728 218.628 141.275C218.628 139.731 219.792 138.459 221.314 138.459C222.836 138.459 224 139.731 224 141.275C224 142.728 222.836 144 221.314 144ZM192.929 144C191.407 144 190.153 142.728 190.153 141.275C190.153 139.731 191.407 138.459 192.929 138.459C194.451 138.459 195.615 139.731 195.615 141.275C195.615 142.728 194.451 144 192.929 144ZM164.545 144C163.023 144 161.769 142.728 161.769 141.275C161.769 139.731 163.023 138.459 164.545 138.459C166.067 138.459 167.231 139.731 167.231 141.275C167.231 142.728 166.067 144 164.545 144ZM136.16 144C134.638 144 133.385 142.728 133.385 141.275C133.385 139.731 134.638 138.459 136.16 138.459C137.593 138.459 138.847 139.731 138.847 141.275C138.847 142.728 137.593 144 136.16 144ZM107.686 144C106.254 144 105 142.728 105 141.275C105 139.731 106.254 138.459 107.686 138.459C109.208 138.459 110.462 139.731 110.462 141.275C110.462 142.728 109.208 144 107.686 144ZM221.314 118.658C219.792 118.658 218.628 117.386 218.628 115.842C218.628 114.389 219.792 113.117 221.314 113.117C222.836 113.117 224 114.389 224 115.842C224 117.386 222.836 118.658 221.314 118.658ZM192.929 118.658C191.407 118.658 190.153 117.386 190.153 115.842C190.153 114.389 191.407 113.117 192.929 113.117C194.451 113.117 195.615 114.389 195.615 115.842C195.615 117.386 194.451 118.658 192.929 118.658ZM164.545 118.658C163.023 118.658 161.769 117.386 161.769 115.842C161.769 114.389 163.023 113.117 164.545 113.117C166.067 113.117 167.231 114.389 167.231 115.842C167.231 117.386 166.067 118.658 164.545 118.658ZM136.16 118.658C134.638 118.658 133.385 117.386 133.385 115.842C133.385 114.389 134.638 113.117 136.16 113.117C137.593 113.117 138.847 114.389 138.847 115.842C138.847 117.386 137.593 118.658 136.16 118.658ZM107.686 118.658C106.254 118.658 105 117.386 105 115.842C105 114.389 106.254 113.117 107.686 113.117C109.208 113.117 110.462 114.389 110.462 115.842C110.462 117.386 109.208 118.658 107.686 118.658ZM221.314 93.3158C219.792 93.3158 218.628 92.0441 218.628 90.5C218.628 88.9559 219.792 87.775 221.314 87.775C222.836 87.775 224 88.9559 224 90.5C224 92.0441 222.836 93.3158 221.314 93.3158ZM192.929 93.3158C191.407 93.3158 190.153 92.0441 190.153 90.5C190.153 88.9559 191.407 87.775 192.929 87.775C194.451 87.775 195.615 88.9559 195.615 90.5C195.615 92.0441 194.451 93.3158 192.929 93.3158ZM164.545 93.3158C163.023 93.3158 161.769 92.0441 161.769 90.5C161.769 88.9559 163.023 87.775 164.545 87.775C166.067 87.775 167.231 88.9559 167.231 90.5C167.231 92.0441 166.067 93.3158 164.545 93.3158ZM136.16 93.3158C134.638 93.3158 133.385 92.0441 133.385 90.5C133.385 88.9559 134.638 87.775 136.16 87.775C137.593 87.775 138.847 88.9559 138.847 90.5C138.847 92.0441 137.593 93.3158 136.16 93.3158ZM107.686 93.3158C106.254 93.3158 105 92.0441 105 90.5C105 88.9559 106.254 87.775 107.686 87.775C109.208 87.775 110.462 88.9559 110.462 90.5C110.462 92.0441 109.208 93.3158 107.686 93.3158ZM221.314 67.8829C219.792 67.8829 218.628 66.702 218.628 65.1579C218.628 63.6137 219.792 62.4329 221.314 62.4329C222.836 62.4329 224 63.6137 224 65.1579C224 66.702 222.836 67.8829 221.314 67.8829ZM192.929 67.8829C191.407 67.8829 190.153 66.702 190.153 65.1579C190.153 63.6137 191.407 62.4329 192.929 62.4329C194.451 62.4329 195.615 63.6137 195.615 65.1579C195.615 66.702 194.451 67.8829 192.929 67.8829ZM164.545 67.8829C163.023 67.8829 161.769 66.702 161.769 65.1579C161.769 63.6137 163.023 62.4329 164.545 62.4329C166.067 62.4329 167.231 63.6137 167.231 65.1579C167.231 66.702 166.067 67.8829 164.545 67.8829ZM136.16 67.8829C134.638 67.8829 133.385 66.702 133.385 65.1579C133.385 63.6137 134.638 62.4329 136.16 62.4329C137.593 62.4329 138.847 63.6137 138.847 65.1579C138.847 66.702 137.593 67.8829 136.16 67.8829ZM192.929 42.5407C191.407 42.5407 190.153 41.3599 190.153 39.8158C190.153 38.2716 191.407 37 192.929 37C194.451 37 195.615 38.2716 195.615 39.8158C195.615 41.3599 194.451 42.5407 192.929 42.5407ZM164.545 42.5407C163.023 42.5407 161.769 41.3599 161.769 39.8158C161.769 38.2716 163.023 37 164.545 37C166.067 37 167.231 38.2716 167.231 39.8158C167.231 41.3599 166.067 42.5407 164.545 42.5407ZM136.16 42.5407C134.638 42.5407 133.385 41.3599 133.385 39.8158C133.385 38.2716 134.638 37 136.16 37C137.593 37 138.847 38.2716 138.847 39.8158C138.847 41.3599 137.593 42.5407 136.16 42.5407ZM107.686 42.5407C106.254 42.5407 105 41.3599 105 39.8158C105 38.2716 106.254 37 107.686 37C109.208 37 110.462 38.2716 110.462 39.8158C110.462 41.3599 109.208 42.5407 107.686 42.5407ZM107.686 67.8829C106.254 67.8829 105 66.702 105 65.1579C105 63.6137 106.254 62.4329 107.686 62.4329C109.208 62.4329 110.462 63.6137 110.462 65.1579C110.462 66.702 109.208 67.8829 107.686 67.8829Z" fill="#8C52FF"/>
</svg>
