<svg width="403" height="392" viewBox="0 0 403 392" fill="none" xmlns="http://www.w3.org/2000/svg">
<path d="M313.817 267.473C331.926 230.789 329.179 182.605 308.138 149.471C287.259 115.926 247.922 97.8412 205.272 74.192C162.624 50.5666 116.687 21.3731 78.9851 30.1832C41.4733 38.6018 12.7715 84.775 12.6284 125.874C12.1848 167.086 40.5971 203.086 59.766 238.352C78.7519 274.057 88.2695 308.45 113.366 327.848C138.165 347.385 178.135 351.787 217.841 341.094C257.114 330.266 295.823 304.458 313.817 267.473Z" fill="white"/>
<path fill-rule="evenodd" clip-rule="evenodd" d="M253.506 264.013C255.427 264.013 257.013 262.427 257.013 260.506C257.013 258.586 255.427 257 253.506 257C251.586 257 250 258.586 250 260.506C250 262.427 251.586 264.013 253.506 264.013ZM253.506 392C255.427 392 257.013 390.414 257.013 388.493C257.013 386.573 255.427 384.987 253.506 384.987C251.586 384.987 250 386.573 250 388.493C250 390.414 251.586 392 253.506 392ZM289.824 392C291.744 392 293.33 390.414 293.33 388.493C293.33 386.573 291.744 384.987 289.824 384.987C287.904 384.987 286.317 386.573 286.317 388.493C286.317 390.414 287.904 392 289.824 392ZM326.224 392C328.145 392 329.647 390.414 329.647 388.493C329.647 386.573 328.145 384.987 326.224 384.987C324.304 384.987 322.718 386.573 322.718 388.493C322.718 390.414 324.304 392 326.224 392ZM362.542 392C364.462 392 366.048 390.414 366.048 388.493C366.048 386.573 364.462 384.987 362.542 384.987C360.622 384.987 359.035 386.573 359.035 388.493C359.035 390.414 360.622 392 362.542 392ZM398.859 392C400.779 392 402.365 390.414 402.365 388.493C402.365 386.573 400.779 384.987 398.859 384.987C396.939 384.987 395.436 386.573 395.436 388.493C395.436 390.414 396.939 392 398.859 392ZM253.506 359.941C255.427 359.941 257.013 358.438 257.013 356.518C257.013 354.597 255.427 353.011 253.506 353.011C251.586 353.011 250 354.597 250 356.518C250 358.438 251.586 359.941 253.506 359.941ZM289.824 359.941C291.744 359.941 293.33 358.438 293.33 356.518C293.33 354.597 291.744 353.011 289.824 353.011C287.904 353.011 286.317 354.597 286.317 356.518C286.317 358.438 287.904 359.941 289.824 359.941ZM326.224 359.941C328.145 359.941 329.647 358.438 329.647 356.518C329.647 354.597 328.145 353.011 326.224 353.011C324.304 353.011 322.718 354.597 322.718 356.518C322.718 358.438 324.304 359.941 326.224 359.941ZM362.542 359.941C364.462 359.941 366.048 358.438 366.048 356.518C366.048 354.597 364.462 353.011 362.542 353.011C360.622 353.011 359.035 354.597 359.035 356.518C359.035 358.438 360.622 359.941 362.542 359.941ZM398.859 359.941C400.779 359.941 402.365 358.438 402.365 356.518C402.365 354.597 400.779 353.011 398.859 353.011C396.939 353.011 395.436 354.597 395.436 356.518C395.436 358.438 396.939 359.941 398.859 359.941ZM253.506 327.965C255.427 327.965 257.013 326.378 257.013 324.458C257.013 322.538 255.427 321.035 253.506 321.035C251.586 321.035 250 322.538 250 324.458C250 326.378 251.586 327.965 253.506 327.965ZM289.824 327.965C291.744 327.965 293.33 326.378 293.33 324.458C293.33 322.538 291.744 321.035 289.824 321.035C287.904 321.035 286.317 322.538 286.317 324.458C286.317 326.378 287.904 327.965 289.824 327.965ZM326.224 327.965C328.145 327.965 329.647 326.378 329.647 324.458C329.647 322.538 328.145 321.035 326.224 321.035C324.304 321.035 322.718 322.538 322.718 324.458C322.718 326.378 324.304 327.965 326.224 327.965ZM362.542 327.965C364.462 327.965 366.048 326.378 366.048 324.458C366.048 322.538 364.462 321.035 362.542 321.035C360.622 321.035 359.035 322.538 359.035 324.458C359.035 326.378 360.622 327.965 362.542 327.965ZM398.859 327.965C400.779 327.965 402.365 326.378 402.365 324.458C402.365 322.538 400.779 321.035 398.859 321.035C396.939 321.035 395.436 322.538 395.436 324.458C395.436 326.378 396.939 327.965 398.859 327.965ZM253.506 295.989C255.427 295.989 257.013 294.403 257.013 292.482C257.013 290.562 255.427 288.976 253.506 288.976C251.586 288.976 250 290.562 250 292.482C250 294.403 251.586 295.989 253.506 295.989ZM289.824 295.989C291.744 295.989 293.33 294.403 293.33 292.482C293.33 290.562 291.744 288.976 289.824 288.976C287.904 288.976 286.317 290.562 286.317 292.482C286.317 294.403 287.904 295.989 289.824 295.989ZM326.224 295.989C328.145 295.989 329.647 294.403 329.647 292.482C329.647 290.562 328.145 288.976 326.224 288.976C324.304 288.976 322.718 290.562 322.718 292.482C322.718 294.403 324.304 295.989 326.224 295.989ZM362.542 295.989C364.462 295.989 366.048 294.403 366.048 292.482C366.048 290.562 364.462 288.976 362.542 288.976C360.622 288.976 359.035 290.562 359.035 292.482C359.035 294.403 360.622 295.989 362.542 295.989ZM289.824 264.013C291.744 264.013 293.33 262.427 293.33 260.506C293.33 258.586 291.744 257 289.824 257C287.904 257 286.317 258.586 286.317 260.506C286.317 262.427 287.904 264.013 289.824 264.013ZM326.224 264.013C328.145 264.013 329.647 262.427 329.647 260.506C329.647 258.586 328.145 257 326.224 257C324.304 257 322.718 258.586 322.718 260.506C322.718 262.427 324.304 264.013 326.224 264.013ZM362.542 264.013C364.462 264.013 366.048 262.427 366.048 260.506C366.048 258.586 364.462 257 362.542 257C360.622 257 359.035 258.586 359.035 260.506C359.035 262.427 360.622 264.013 362.542 264.013ZM398.859 264.013C400.779 264.013 402.365 262.427 402.365 260.506C402.365 258.586 400.779 257 398.859 257C396.939 257 395.436 258.586 395.436 260.506C395.436 262.427 396.939 264.013 398.859 264.013ZM398.859 295.989C400.779 295.989 402.365 294.403 402.365 292.482C402.365 290.562 400.779 288.976 398.859 288.976C396.939 288.976 395.436 290.562 395.436 292.482C395.436 294.403 396.939 295.989 398.859 295.989Z" fill="#8C52FF"/>
</svg>
