<svg width="135" height="335" viewBox="0 0 135 335" fill="none" xmlns="http://www.w3.org/2000/svg">
<path fill-rule="evenodd" clip-rule="evenodd" d="M0 148.867C0 146.919 1.60441 145.429 3.43803 145.429C5.38625 145.429 6.99066 146.919 6.99066 148.867C6.99066 150.815 5.38625 152.305 3.43803 152.305C1.60441 152.305 0 150.815 0 148.867ZM128.009 330.624C128.009 328.676 129.499 327.071 131.447 327.071C133.396 327.071 135 328.676 135 330.624C135 332.572 133.396 334.062 131.447 334.062C129.499 334.062 128.009 332.572 128.009 330.624ZM128.009 294.295C128.009 292.347 129.499 290.743 131.447 290.743C133.396 290.743 135 292.347 135 294.295C135 296.129 133.396 297.733 131.447 297.733C129.499 297.733 128.009 296.129 128.009 294.295ZM128.009 257.852C128.009 256.019 129.499 254.414 131.447 254.414C133.396 254.414 135 256.019 135 257.852C135 259.801 133.396 261.405 131.447 261.405C129.499 261.405 128.009 259.801 128.009 257.852ZM128.009 221.524C128.009 219.69 129.499 218.086 131.447 218.086C133.396 218.086 135 219.69 135 221.524C135 223.472 133.396 225.076 131.447 225.076C129.499 225.076 128.009 223.472 128.009 221.524ZM128.009 185.195C128.009 183.247 129.499 181.757 131.447 181.757C133.396 181.757 135 183.247 135 185.195C135 187.143 133.396 188.748 131.447 188.748C129.499 188.748 128.009 187.143 128.009 185.195ZM31.9737 330.624C31.9737 328.676 33.5781 327.071 35.5263 327.071C37.3599 327.071 38.9643 328.676 38.9643 330.624C38.9643 332.572 37.3599 334.062 35.5263 334.062C33.5781 334.062 31.9737 332.572 31.9737 330.624ZM31.9737 294.295C31.9737 292.347 33.5781 290.743 35.5263 290.743C37.3599 290.743 38.9643 292.347 38.9643 294.295C38.9643 296.129 37.3599 297.733 35.5263 297.733C33.5781 297.733 31.9737 296.129 31.9737 294.295ZM31.9737 257.852C31.9737 256.019 33.5781 254.414 35.5263 254.414C37.3599 254.414 38.9643 256.019 38.9643 257.852C38.9643 259.801 37.3599 261.405 35.5263 261.405C33.5781 261.405 31.9737 259.801 31.9737 257.852ZM31.9737 221.524C31.9737 219.69 33.5781 218.086 35.5263 218.086C37.3599 218.086 38.9643 219.69 38.9643 221.524C38.9643 223.472 37.3599 225.076 35.5263 225.076C33.5781 225.076 31.9737 223.472 31.9737 221.524ZM31.9737 185.195C31.9737 183.247 33.5781 181.757 35.5263 181.757C37.3599 181.757 38.9643 183.247 38.9643 185.195C38.9643 187.143 37.3599 188.748 35.5263 188.748C33.5781 188.748 31.9737 187.143 31.9737 185.195ZM63.9474 330.624C63.9474 328.676 65.5518 327.071 67.5 327.071C69.4482 327.071 70.938 328.676 70.938 330.624C70.938 332.572 69.4482 334.062 67.5 334.062C65.5518 334.062 63.9474 332.572 63.9474 330.624ZM63.9474 294.295C63.9474 292.347 65.5518 290.743 67.5 290.743C69.4482 290.743 70.938 292.347 70.938 294.295C70.938 296.129 69.4482 297.733 67.5 297.733C65.5518 297.733 63.9474 296.129 63.9474 294.295ZM63.9474 257.852C63.9474 256.019 65.5518 254.414 67.5 254.414C69.4482 254.414 70.938 256.019 70.938 257.852C70.938 259.801 69.4482 261.405 67.5 261.405C65.5518 261.405 63.9474 259.801 63.9474 257.852ZM63.9474 221.524C63.9474 219.69 65.5518 218.086 67.5 218.086C69.4482 218.086 70.938 219.69 70.938 221.524C70.938 223.472 69.4482 225.076 67.5 225.076C65.5518 225.076 63.9474 223.472 63.9474 221.524ZM63.9474 185.195C63.9474 183.247 65.5518 181.757 67.5 181.757C69.4482 181.757 70.938 183.247 70.938 185.195C70.938 187.143 69.4482 188.748 67.5 188.748C65.5518 188.748 63.9474 187.143 63.9474 185.195ZM96.0357 330.624C96.0357 328.676 97.5255 327.071 99.4737 327.071C101.422 327.071 102.912 328.676 102.912 330.624C102.912 332.572 101.422 334.062 99.4737 334.062C97.5255 334.062 96.0357 332.572 96.0357 330.624ZM96.0357 294.295C96.0357 292.347 97.5255 290.743 99.4737 290.743C101.422 290.743 102.912 292.347 102.912 294.295C102.912 296.129 101.422 297.733 99.4737 297.733C97.5255 297.733 96.0357 296.129 96.0357 294.295ZM96.0357 257.852C96.0357 256.019 97.5255 254.414 99.4737 254.414C101.422 254.414 102.912 256.019 102.912 257.852C102.912 259.801 101.422 261.405 99.4737 261.405C97.5255 261.405 96.0357 259.801 96.0357 257.852ZM96.0357 221.524C96.0357 219.69 97.5255 218.086 99.4737 218.086C101.422 218.086 102.912 219.69 102.912 221.524C102.912 223.472 101.422 225.076 99.4737 225.076C97.5255 225.076 96.0357 223.472 96.0357 221.524ZM96.0357 185.195C96.0357 183.247 97.5255 181.757 99.4737 181.757C101.422 181.757 102.912 183.247 102.912 185.195C102.912 187.143 101.422 188.748 99.4737 188.748C97.5255 188.748 96.0357 187.143 96.0357 185.195ZM0 330.624C0 328.676 1.60441 327.071 3.43803 327.071C5.38625 327.071 6.99066 328.676 6.99066 330.624C6.99066 332.572 5.38625 334.062 3.43803 334.062C1.60441 334.062 0 332.572 0 330.624ZM0 294.295C0 292.347 1.60441 290.743 3.43803 290.743C5.38625 290.743 6.99066 292.347 6.99066 294.295C6.99066 296.129 5.38625 297.733 3.43803 297.733C1.60441 297.733 0 296.129 0 294.295ZM0 257.852C0 256.019 1.60441 254.414 3.43803 254.414C5.38625 254.414 6.99066 256.019 6.99066 257.852C6.99066 259.801 5.38625 261.405 3.43803 261.405C1.60441 261.405 0 259.801 0 257.852ZM0 221.524C0 219.69 1.60441 218.086 3.43803 218.086C5.38625 218.086 6.99066 219.69 6.99066 221.524C6.99066 223.472 5.38625 225.076 3.43803 225.076C1.60441 225.076 0 223.472 0 221.524ZM0 185.195C0 183.247 1.60441 181.757 3.43803 181.757C5.38625 181.757 6.99066 183.247 6.99066 185.195C6.99066 187.143 5.38625 188.748 3.43803 188.748C1.60441 188.748 0 187.143 0 185.195ZM128.009 148.867C128.009 146.919 129.499 145.429 131.447 145.429C133.396 145.429 135 146.919 135 148.867C135 150.815 133.396 152.305 131.447 152.305C129.499 152.305 128.009 150.815 128.009 148.867ZM128.009 112.538C128.009 110.59 129.499 108.986 131.447 108.986C133.396 108.986 135 110.59 135 112.538C135 114.486 133.396 115.976 131.447 115.976C129.499 115.976 128.009 114.486 128.009 112.538ZM128.009 76.2097C128.009 74.2615 129.499 72.6571 131.447 72.6571C133.396 72.6571 135 74.2615 135 76.2097C135 78.1579 133.396 79.6477 131.447 79.6477C129.499 79.6477 128.009 78.1579 128.009 76.2097ZM128.009 39.8812C128.009 37.9329 129.499 36.3285 131.447 36.3285C133.396 36.3285 135 37.9329 135 39.8812C135 41.7148 133.396 43.3192 131.447 43.3192C129.499 43.3192 128.009 41.7148 128.009 39.8812ZM128.009 3.43803C128.009 1.60441 129.499 0 131.447 0C133.396 0 135 1.60441 135 3.43803C135 5.38625 133.396 6.99066 131.447 6.99066C129.499 6.99066 128.009 5.38625 128.009 3.43803ZM31.9737 148.867C31.9737 146.919 33.5781 145.429 35.5263 145.429C37.3599 145.429 38.9643 146.919 38.9643 148.867C38.9643 150.815 37.3599 152.305 35.5263 152.305C33.5781 152.305 31.9737 150.815 31.9737 148.867ZM31.9737 112.538C31.9737 110.59 33.5781 108.986 35.5263 108.986C37.3599 108.986 38.9643 110.59 38.9643 112.538C38.9643 114.486 37.3599 115.976 35.5263 115.976C33.5781 115.976 31.9737 114.486 31.9737 112.538ZM31.9737 76.2097C31.9737 74.2615 33.5781 72.6571 35.5263 72.6571C37.3599 72.6571 38.9643 74.2615 38.9643 76.2097C38.9643 78.1579 37.3599 79.6477 35.5263 79.6477C33.5781 79.6477 31.9737 78.1579 31.9737 76.2097ZM31.9737 39.8812C31.9737 37.9329 33.5781 36.3285 35.5263 36.3285C37.3599 36.3285 38.9643 37.9329 38.9643 39.8812C38.9643 41.7148 37.3599 43.3192 35.5263 43.3192C33.5781 43.3192 31.9737 41.7148 31.9737 39.8812ZM31.9737 3.43803C31.9737 1.60441 33.5781 0 35.5263 0C37.3599 0 38.9643 1.60441 38.9643 3.43803C38.9643 5.38625 37.3599 6.99066 35.5263 6.99066C33.5781 6.99066 31.9737 5.38625 31.9737 3.43803ZM63.9474 148.867C63.9474 146.919 65.5518 145.429 67.5 145.429C69.4482 145.429 70.938 146.919 70.938 148.867C70.938 150.815 69.4482 152.305 67.5 152.305C65.5518 152.305 63.9474 150.815 63.9474 148.867ZM63.9474 112.538C63.9474 110.59 65.5518 108.986 67.5 108.986C69.4482 108.986 70.938 110.59 70.938 112.538C70.938 114.486 69.4482 115.976 67.5 115.976C65.5518 115.976 63.9474 114.486 63.9474 112.538ZM63.9474 76.2097C63.9474 74.2615 65.5518 72.6571 67.5 72.6571C69.4482 72.6571 70.938 74.2615 70.938 76.2097C70.938 78.1579 69.4482 79.6477 67.5 79.6477C65.5518 79.6477 63.9474 78.1579 63.9474 76.2097ZM63.9474 39.8812C63.9474 37.9329 65.5518 36.3285 67.5 36.3285C69.4482 36.3285 70.938 37.9329 70.938 39.8812C70.938 41.7148 69.4482 43.3192 67.5 43.3192C65.5518 43.3192 63.9474 41.7148 63.9474 39.8812ZM63.9474 3.43803C63.9474 1.60441 65.5518 0 67.5 0C69.4482 0 70.938 1.60441 70.938 3.43803C70.938 5.38625 69.4482 6.99066 67.5 6.99066C65.5518 6.99066 63.9474 5.38625 63.9474 3.43803ZM96.0357 148.867C96.0357 146.919 97.5255 145.429 99.4737 145.429C101.422 145.429 102.912 146.919 102.912 148.867C102.912 150.815 101.422 152.305 99.4737 152.305C97.5255 152.305 96.0357 150.815 96.0357 148.867ZM96.0357 112.538C96.0357 110.59 97.5255 108.986 99.4737 108.986C101.422 108.986 102.912 110.59 102.912 112.538C102.912 114.486 101.422 115.976 99.4737 115.976C97.5255 115.976 96.0357 114.486 96.0357 112.538ZM96.0357 76.2097C96.0357 74.2615 97.5255 72.6571 99.4737 72.6571C101.422 72.6571 102.912 74.2615 102.912 76.2097C102.912 78.1579 101.422 79.6477 99.4737 79.6477C97.5255 79.6477 96.0357 78.1579 96.0357 76.2097ZM96.0357 39.8812C96.0357 37.9329 97.5255 36.3285 99.4737 36.3285C101.422 36.3285 102.912 37.9329 102.912 39.8812C102.912 41.7148 101.422 43.3192 99.4737 43.3192C97.5255 43.3192 96.0357 41.7148 96.0357 39.8812ZM0 112.538C0 110.59 1.60441 108.986 3.43803 108.986C5.38625 108.986 6.99066 110.59 6.99066 112.538C6.99066 114.486 5.38625 115.976 3.43803 115.976C1.60441 115.976 0 114.486 0 112.538ZM0 76.2097C0 74.2615 1.60441 72.6571 3.43803 72.6571C5.38625 72.6571 6.99066 74.2615 6.99066 76.2097C6.99066 78.1579 5.38625 79.6477 3.43803 79.6477C1.60441 79.6477 0 78.1579 0 76.2097ZM0 39.8812C0 37.9329 1.60441 36.3285 3.43803 36.3285C5.38625 36.3285 6.99066 37.9329 6.99066 39.8812C6.99066 41.7148 5.38625 43.3192 3.43803 43.3192C1.60441 43.3192 0 41.7148 0 39.8812ZM0 3.43803C0 1.60441 1.60441 0 3.43803 0C5.38625 0 6.99066 1.60441 6.99066 3.43803C6.99066 5.38625 5.38625 6.99066 3.43803 6.99066C1.60441 6.99066 0 5.38625 0 3.43803ZM96.0357 3.43803C96.0357 1.60441 97.5255 0 99.4737 0C101.422 0 102.912 1.60441 102.912 3.43803C102.912 5.38625 101.422 6.99066 99.4737 6.99066C97.5255 6.99066 96.0357 5.38625 96.0357 3.43803Z" fill="#8C52FF"/>
</svg>
