<svg width="262" height="347" viewBox="0 0 262 347" fill="none" xmlns="http://www.w3.org/2000/svg">
<path d="M156.633 225.769C117.239 252.622 96.6668 320.827 60.7023 318.539C25.0203 316.281 -4.27906 261.054 -15.4183 206.721C-26.5576 152.388 -19.8266 98.897 9.22237 71.4957C38.5472 43.8342 90.1997 42.2762 129.244 50.8215C168.553 59.4271 195.308 78.3649 215.478 101.663C235.767 125.099 249.34 152.894 242.605 173.294C235.944 193.489 185.557 206.073 156.633 225.769Z" fill="white"/>
<path fill-rule="evenodd" clip-rule="evenodd" d="M111.074 117.291C111.074 115.756 112.243 114.582 113.773 114.582C115.303 114.582 116.562 115.756 116.562 117.291C116.562 118.826 115.303 120 113.773 120C112.243 120 111.074 118.826 111.074 117.291ZM10.5625 117.291C10.5625 115.756 11.8223 114.582 13.262 114.582C14.7917 114.582 16.0515 115.756 16.0515 117.291C16.0515 118.826 14.7917 120 13.262 120C11.8223 120 10.5625 118.826 10.5625 117.291ZM10.5625 88.6682C10.5625 87.1332 11.8223 85.8691 13.262 85.8691C14.7917 85.8691 16.0515 87.1332 16.0515 88.6682C16.0515 90.2032 14.7917 91.377 13.262 91.377C11.8223 91.377 10.5625 90.2032 10.5625 88.6682ZM10.5625 60.0451C10.5625 58.5102 11.8223 57.2461 13.262 57.2461C14.7917 57.2461 16.0515 58.5102 16.0515 60.0451C16.0515 61.5801 14.7917 62.7539 13.262 62.7539C11.8223 62.7539 10.5625 61.5801 10.5625 60.0451ZM10.5625 31.4221C10.5625 29.8871 11.8223 28.623 13.262 28.623C14.7917 28.623 16.0515 29.8871 16.0515 31.4221C16.0515 32.8668 14.7917 34.1309 13.262 34.1309C11.8223 34.1309 10.5625 32.8668 10.5625 31.4221ZM10.5625 2.7088C10.5625 1.26411 11.8223 0 13.262 0C14.7917 0 16.0515 1.26411 16.0515 2.7088C16.0515 4.24379 14.7917 5.5079 13.262 5.5079C11.8223 5.5079 10.5625 4.24379 10.5625 2.7088ZM35.6678 117.291C35.6678 115.756 36.9275 114.582 38.4572 114.582C39.897 114.582 41.1567 115.756 41.1567 117.291C41.1567 118.826 39.897 120 38.4572 120C36.9275 120 35.6678 118.826 35.6678 117.291ZM35.6678 88.6682C35.6678 87.1332 36.9275 85.8691 38.4572 85.8691C39.897 85.8691 41.1567 87.1332 41.1567 88.6682C41.1567 90.2032 39.897 91.377 38.4572 91.377C36.9275 91.377 35.6678 90.2032 35.6678 88.6682ZM35.6678 60.0451C35.6678 58.5102 36.9275 57.2461 38.4572 57.2461C39.897 57.2461 41.1567 58.5102 41.1567 60.0451C41.1567 61.5801 39.897 62.7539 38.4572 62.7539C36.9275 62.7539 35.6678 61.5801 35.6678 60.0451ZM35.6678 31.4221C35.6678 29.8871 36.9275 28.623 38.4572 28.623C39.897 28.623 41.1567 29.8871 41.1567 31.4221C41.1567 32.8668 39.897 34.1309 38.4572 34.1309C36.9275 34.1309 35.6678 32.8668 35.6678 31.4221ZM35.6678 2.7088C35.6678 1.26411 36.9275 0 38.4572 0C39.897 0 41.1567 1.26411 41.1567 2.7088C41.1567 4.24379 39.897 5.5079 38.4572 5.5079C36.9275 5.5079 35.6678 4.24379 35.6678 2.7088ZM60.773 117.291C60.773 115.756 62.0328 114.582 63.5625 114.582C65.0922 114.582 66.262 115.756 66.262 117.291C66.262 118.826 65.0922 120 63.5625 120C62.0328 120 60.773 118.826 60.773 117.291ZM60.773 88.6682C60.773 87.1332 62.0328 85.8691 63.5625 85.8691C65.0922 85.8691 66.262 87.1332 66.262 88.6682C66.262 90.2032 65.0922 91.377 63.5625 91.377C62.0328 91.377 60.773 90.2032 60.773 88.6682ZM60.773 60.0451C60.773 58.5102 62.0328 57.2461 63.5625 57.2461C65.0922 57.2461 66.262 58.5102 66.262 60.0451C66.262 61.5801 65.0922 62.7539 63.5625 62.7539C62.0328 62.7539 60.773 61.5801 60.773 60.0451ZM60.773 31.4221C60.773 29.8871 62.0328 28.623 63.5625 28.623C65.0922 28.623 66.262 29.8871 66.262 31.4221C66.262 32.8668 65.0922 34.1309 63.5625 34.1309C62.0328 34.1309 60.773 32.8668 60.773 31.4221ZM60.773 2.7088C60.773 1.26411 62.0328 0 63.5625 0C65.0922 0 66.262 1.26411 66.262 2.7088C66.262 4.24379 65.0922 5.5079 63.5625 5.5079C62.0328 5.5079 60.773 4.24379 60.773 2.7088ZM85.9683 117.291C85.9683 115.756 87.1381 114.582 88.6678 114.582C90.1975 114.582 91.3672 115.756 91.3672 117.291C91.3672 118.826 90.1975 120 88.6678 120C87.1381 120 85.9683 118.826 85.9683 117.291ZM85.9683 88.6682C85.9683 87.1332 87.1381 85.8691 88.6678 85.8691C90.1975 85.8691 91.3672 87.1332 91.3672 88.6682C91.3672 90.2032 90.1975 91.377 88.6678 91.377C87.1381 91.377 85.9683 90.2032 85.9683 88.6682ZM85.9683 60.0451C85.9683 58.5102 87.1381 57.2461 88.6678 57.2461C90.1975 57.2461 91.3672 58.5102 91.3672 60.0451C91.3672 61.5801 90.1975 62.7539 88.6678 62.7539C87.1381 62.7539 85.9683 61.5801 85.9683 60.0451ZM85.9683 31.4221C85.9683 29.8871 87.1381 28.623 88.6678 28.623C90.1975 28.623 91.3672 29.8871 91.3672 31.4221C91.3672 32.8668 90.1975 34.1309 88.6678 34.1309C87.1381 34.1309 85.9683 32.8668 85.9683 31.4221ZM111.074 88.6682C111.074 87.1332 112.243 85.8691 113.773 85.8691C115.303 85.8691 116.562 87.1332 116.562 88.6682C116.562 90.2032 115.303 91.377 113.773 91.377C112.243 91.377 111.074 90.2032 111.074 88.6682ZM111.074 60.0451C111.074 58.5102 112.243 57.2461 113.773 57.2461C115.303 57.2461 116.562 58.5102 116.562 60.0451C116.562 61.5801 115.303 62.7539 113.773 62.7539C112.243 62.7539 111.074 61.5801 111.074 60.0451ZM111.074 31.4221C111.074 29.8871 112.243 28.623 113.773 28.623C115.303 28.623 116.562 29.8871 116.562 31.4221C116.562 32.8668 115.303 34.1309 113.773 34.1309C112.243 34.1309 111.074 32.8668 111.074 31.4221ZM111.074 2.7088C111.074 1.26411 112.243 0 113.773 0C115.303 0 116.562 1.26411 116.562 2.7088C116.562 4.24379 115.303 5.5079 113.773 5.5079C112.243 5.5079 111.074 4.24379 111.074 2.7088ZM85.9683 2.7088C85.9683 1.26411 87.1381 0 88.6678 0C90.1975 0 91.3672 1.26411 91.3672 2.7088C91.3672 4.24379 90.1975 5.5079 88.6678 5.5079C87.1381 5.5079 85.9683 4.24379 85.9683 2.7088Z" fill="#8C52FF"/>
</svg>
