<svg width="163" height="213" viewBox="0 0 163 213" fill="none" xmlns="http://www.w3.org/2000/svg">
<path d="M93.1236 132.267C66.9098 150.136 53.2202 195.521 29.2883 193.999C5.54449 192.496 -13.9522 155.746 -21.3646 119.592C-28.777 83.4371 -24.298 47.8423 -4.96792 29.6086C14.5457 11.2018 48.9168 10.1651 74.8981 15.8514C101.055 21.5778 118.859 34.1796 132.281 49.6831C145.782 65.2778 154.813 83.7735 150.332 97.3485C145.899 110.787 112.37 119.16 93.1236 132.267Z" fill="white"/>
<path fill-rule="evenodd" clip-rule="evenodd" d="M66.3733 98.1941C66.3733 97.1708 67.1458 96.3883 68.1559 96.3883C69.1661 96.3883 69.998 97.1708 69.998 98.1941C69.998 99.2175 69.1661 100 68.1559 100C67.1458 100 66.3733 99.2175 66.3733 98.1941ZM-0.00195312 98.1941C-0.00195312 97.1708 0.829965 96.3883 1.78073 96.3883C2.79092 96.3883 3.62283 97.1708 3.62283 98.1941C3.62283 99.2175 2.79092 100 1.78073 100C0.829965 100 -0.00195312 99.2175 -0.00195312 98.1941ZM-0.00195312 79.1121C-0.00195312 78.0888 0.829965 77.2461 1.78073 77.2461C2.79092 77.2461 3.62283 78.0888 3.62283 79.1121C3.62283 80.1354 2.79092 80.918 1.78073 80.918C0.829965 80.918 -0.00195312 80.1354 -0.00195312 79.1121ZM-0.00195312 60.0301C-0.00195312 59.0068 0.829965 58.164 1.78073 58.164C2.79092 58.164 3.62283 59.0068 3.62283 60.0301C3.62283 61.0534 2.79092 61.836 1.78073 61.836C0.829965 61.836 -0.00195312 61.0534 -0.00195312 60.0301ZM-0.00195312 40.9481C-0.00195312 39.9248 0.829965 39.082 1.78073 39.082C2.79092 39.082 3.62283 39.9248 3.62283 40.9481C3.62283 41.9112 2.79092 42.754 1.78073 42.754C0.829965 42.754 -0.00195312 41.9112 -0.00195312 40.9481ZM-0.00195312 21.8059C-0.00195312 20.8427 0.829965 20 1.78073 20C2.79092 20 3.62283 20.8427 3.62283 21.8059C3.62283 22.8292 2.79092 23.6719 1.78073 23.6719C0.829965 23.6719 -0.00195312 22.8292 -0.00195312 21.8059V21.8059ZM16.577 98.1941C16.577 97.1708 17.4089 96.3883 18.4191 96.3883C19.3699 96.3883 20.2018 97.1708 20.2018 98.1941C20.2018 99.2175 19.3699 100 18.4191 100C17.4089 100 16.577 99.2175 16.577 98.1941ZM16.577 79.1121C16.577 78.0888 17.4089 77.2461 18.4191 77.2461C19.3699 77.2461 20.2018 78.0888 20.2018 79.1121C20.2018 80.1354 19.3699 80.918 18.4191 80.918C17.4089 80.918 16.577 80.1354 16.577 79.1121ZM16.577 60.0301C16.577 59.0068 17.4089 58.164 18.4191 58.164C19.3699 58.164 20.2018 59.0068 20.2018 60.0301C20.2018 61.0534 19.3699 61.836 18.4191 61.836C17.4089 61.836 16.577 61.0534 16.577 60.0301ZM16.577 40.9481C16.577 39.9248 17.4089 39.082 18.4191 39.082C19.3699 39.082 20.2018 39.9248 20.2018 40.9481C20.2018 41.9112 19.3699 42.754 18.4191 42.754C17.4089 42.754 16.577 41.9112 16.577 40.9481ZM16.577 21.8059C16.577 20.8427 17.4089 20 18.4191 20C19.3699 20 20.2018 20.8427 20.2018 21.8059C20.2018 22.8292 19.3699 23.6719 18.4191 23.6719C17.4089 23.6719 16.577 22.8292 16.577 21.8059V21.8059ZM33.1559 98.1941C33.1559 97.1708 33.9879 96.3883 34.998 96.3883C36.0082 96.3883 36.7807 97.1708 36.7807 98.1941C36.7807 99.2175 36.0082 100 34.998 100C33.9879 100 33.1559 99.2175 33.1559 98.1941ZM33.1559 79.1121C33.1559 78.0888 33.9879 77.2461 34.998 77.2461C36.0082 77.2461 36.7807 78.0888 36.7807 79.1121C36.7807 80.1354 36.0082 80.918 34.998 80.918C33.9879 80.918 33.1559 80.1354 33.1559 79.1121ZM33.1559 60.0301C33.1559 59.0068 33.9879 58.164 34.998 58.164C36.0082 58.164 36.7807 59.0068 36.7807 60.0301C36.7807 61.0534 36.0082 61.836 34.998 61.836C33.9879 61.836 33.1559 61.0534 33.1559 60.0301ZM33.1559 40.9481C33.1559 39.9248 33.9879 39.082 34.998 39.082C36.0082 39.082 36.7807 39.9248 36.7807 40.9481C36.7807 41.9112 36.0082 42.754 34.998 42.754C33.9879 42.754 33.1559 41.9112 33.1559 40.9481ZM33.1559 21.8059C33.1559 20.8427 33.9879 20 34.998 20C36.0082 20 36.7807 20.8427 36.7807 21.8059C36.7807 22.8292 36.0082 23.6719 34.998 23.6719C33.9879 23.6719 33.1559 22.8292 33.1559 21.8059V21.8059ZM49.7943 98.1941C49.7943 97.1708 50.5668 96.3883 51.577 96.3883C52.5872 96.3883 53.3597 97.1708 53.3597 98.1941C53.3597 99.2175 52.5872 100 51.577 100C50.5668 100 49.7943 99.2175 49.7943 98.1941ZM49.7943 79.1121C49.7943 78.0888 50.5668 77.2461 51.577 77.2461C52.5872 77.2461 53.3597 78.0888 53.3597 79.1121C53.3597 80.1354 52.5872 80.918 51.577 80.918C50.5668 80.918 49.7943 80.1354 49.7943 79.1121ZM49.7943 60.0301C49.7943 59.0068 50.5668 58.164 51.577 58.164C52.5872 58.164 53.3597 59.0068 53.3597 60.0301C53.3597 61.0534 52.5872 61.836 51.577 61.836C50.5668 61.836 49.7943 61.0534 49.7943 60.0301ZM49.7943 40.9481C49.7943 39.9248 50.5668 39.082 51.577 39.082C52.5872 39.082 53.3597 39.9248 53.3597 40.9481C53.3597 41.9112 52.5872 42.754 51.577 42.754C50.5668 42.754 49.7943 41.9112 49.7943 40.9481ZM66.3733 79.1121C66.3733 78.0888 67.1458 77.2461 68.1559 77.2461C69.1661 77.2461 69.998 78.0888 69.998 79.1121C69.998 80.1354 69.1661 80.918 68.1559 80.918C67.1458 80.918 66.3733 80.1354 66.3733 79.1121ZM66.3733 60.0301C66.3733 59.0068 67.1458 58.164 68.1559 58.164C69.1661 58.164 69.998 59.0068 69.998 60.0301C69.998 61.0534 69.1661 61.836 68.1559 61.836C67.1458 61.836 66.3733 61.0534 66.3733 60.0301ZM66.3733 40.9481C66.3733 39.9248 67.1458 39.082 68.1559 39.082C69.1661 39.082 69.998 39.9248 69.998 40.9481C69.998 41.9112 69.1661 42.754 68.1559 42.754C67.1458 42.754 66.3733 41.9112 66.3733 40.9481ZM66.3733 21.8059C66.3733 20.8427 67.1458 20 68.1559 20C69.1661 20 69.998 20.8427 69.998 21.8059C69.998 22.8292 69.1661 23.6719 68.1559 23.6719C67.1458 23.6719 66.3733 22.8292 66.3733 21.8059V21.8059ZM49.7943 21.8059C49.7943 20.8427 50.5668 20 51.577 20C52.5872 20 53.3597 20.8427 53.3597 21.8059C53.3597 22.8292 52.5872 23.6719 51.577 23.6719C50.5668 23.6719 49.7943 22.8292 49.7943 21.8059V21.8059Z" fill="#8C52FF"/>
</svg>
