<svg width="453" height="373" viewBox="0 0 453 373" fill="none" xmlns="http://www.w3.org/2000/svg">
<path d="M308.708 244.91C340.052 196.964 422.63 168.835 418.487 126.584C414.393 84.6136 345.772 53.1673 278.922 43.1274C212.104 33.0402 146.954 44.0064 114.547 79.794C81.8298 115.926 81.9034 176.912 93.8182 222.479C105.83 268.36 129.978 298.85 159.247 321.32C188.658 343.889 223.137 358.363 247.82 349.235C272.238 340.236 285.727 280.125 308.708 244.91Z" fill="white"/>
<path fill-rule="evenodd" clip-rule="evenodd" d="M125.165 146.635C125.165 144.729 126.621 143.271 128.526 143.271C130.431 143.271 132 144.729 132 146.635C132 148.541 130.431 149.998 128.526 149.998C126.621 149.998 125.165 148.541 125.165 146.635ZM0 146.635C0 144.729 1.56876 143.271 3.36163 143.271C5.26655 143.271 6.83531 144.729 6.83531 146.635C6.83531 148.541 5.26655 149.998 3.36163 149.998C1.56876 149.998 0 148.541 0 146.635ZM0 111.094C0 109.188 1.56876 107.619 3.36163 107.619C5.26655 107.619 6.83531 109.188 6.83531 111.094C6.83531 113 5.26655 114.458 3.36163 114.458C1.56876 114.458 0 113 0 111.094ZM0 75.5541C0 73.6482 1.56876 72.0786 3.36163 72.0786C5.26655 72.0786 6.83531 73.6482 6.83531 75.5541C6.83531 77.4601 5.26655 78.9175 3.36163 78.9175C1.56876 78.9175 0 77.4601 0 75.5541ZM0 40.0138C0 38.1079 1.56876 36.5383 3.36163 36.5383C5.26655 36.5383 6.83531 38.1079 6.83531 40.0138C6.83531 41.8077 5.26655 43.3773 3.36163 43.3773C1.56876 43.3773 0 41.8077 0 40.0138ZM0 4.36148C0 2.56765 1.56876 0.998047 3.36163 0.998047C5.26655 0.998047 6.83531 2.56765 6.83531 4.36148C6.83531 6.26742 5.26655 7.83702 3.36163 7.83702C1.56876 7.83702 0 6.26742 0 4.36148ZM31.2632 146.635C31.2632 144.729 32.8319 143.271 34.7368 143.271C36.5297 143.271 38.0985 144.729 38.0985 146.635C38.0985 148.541 36.5297 149.998 34.7368 149.998C32.8319 149.998 31.2632 148.541 31.2632 146.635ZM31.2632 111.094C31.2632 109.188 32.8319 107.619 34.7368 107.619C36.5297 107.619 38.0985 109.188 38.0985 111.094C38.0985 113 36.5297 114.458 34.7368 114.458C32.8319 114.458 31.2632 113 31.2632 111.094ZM31.2632 75.5541C31.2632 73.6482 32.8319 72.0786 34.7368 72.0786C36.5297 72.0786 38.0985 73.6482 38.0985 75.5541C38.0985 77.4601 36.5297 78.9175 34.7368 78.9175C32.8319 78.9175 31.2632 77.4601 31.2632 75.5541ZM31.2632 40.0138C31.2632 38.1079 32.8319 36.5383 34.7368 36.5383C36.5297 36.5383 38.0985 38.1079 38.0985 40.0138C38.0985 41.8077 36.5297 43.3773 34.7368 43.3773C32.8319 43.3773 31.2632 41.8077 31.2632 40.0138ZM31.2632 4.36148C31.2632 2.56765 32.8319 0.998047 34.7368 0.998047C36.5297 0.998047 38.0985 2.56765 38.0985 4.36148C38.0985 6.26742 36.5297 7.83702 34.7368 7.83702C32.8319 7.83702 31.2632 6.26742 31.2632 4.36148ZM62.5263 146.635C62.5263 144.729 64.0951 143.271 66 143.271C67.9049 143.271 69.3616 144.729 69.3616 146.635C69.3616 148.541 67.9049 149.998 66 149.998C64.0951 149.998 62.5263 148.541 62.5263 146.635ZM62.5263 111.094C62.5263 109.188 64.0951 107.619 66 107.619C67.9049 107.619 69.3616 109.188 69.3616 111.094C69.3616 113 67.9049 114.458 66 114.458C64.0951 114.458 62.5263 113 62.5263 111.094ZM62.5263 75.5541C62.5263 73.6482 64.0951 72.0786 66 72.0786C67.9049 72.0786 69.3616 73.6482 69.3616 75.5541C69.3616 77.4601 67.9049 78.9175 66 78.9175C64.0951 78.9175 62.5263 77.4601 62.5263 75.5541ZM62.5263 40.0138C62.5263 38.1079 64.0951 36.5383 66 36.5383C67.9049 36.5383 69.3616 38.1079 69.3616 40.0138C69.3616 41.8077 67.9049 43.3773 66 43.3773C64.0951 43.3773 62.5263 41.8077 62.5263 40.0138ZM62.5263 4.36148C62.5263 2.56765 64.0951 0.998047 66 0.998047C67.9049 0.998047 69.3616 2.56765 69.3616 4.36148C69.3616 6.26742 67.9049 7.83702 66 7.83702C64.0951 7.83702 62.5263 6.26742 62.5263 4.36148ZM93.9015 146.635C93.9015 144.729 95.3582 143.271 97.2632 143.271C99.1681 143.271 100.625 144.729 100.625 146.635C100.625 148.541 99.1681 149.998 97.2632 149.998C95.3582 149.998 93.9015 148.541 93.9015 146.635ZM93.9015 111.094C93.9015 109.188 95.3582 107.619 97.2632 107.619C99.1681 107.619 100.625 109.188 100.625 111.094C100.625 113 99.1681 114.458 97.2632 114.458C95.3582 114.458 93.9015 113 93.9015 111.094ZM93.9015 75.5541C93.9015 73.6482 95.3582 72.0786 97.2632 72.0786C99.1681 72.0786 100.625 73.6482 100.625 75.5541C100.625 77.4601 99.1681 78.9175 97.2632 78.9175C95.3582 78.9175 93.9015 77.4601 93.9015 75.5541ZM93.9015 40.0138C93.9015 38.1079 95.3582 36.5383 97.2632 36.5383C99.1681 36.5383 100.625 38.1079 100.625 40.0138C100.625 41.8077 99.1681 43.3773 97.2632 43.3773C95.3582 43.3773 93.9015 41.8077 93.9015 40.0138ZM125.165 111.094C125.165 109.188 126.621 107.619 128.526 107.619C130.431 107.619 132 109.188 132 111.094C132 113 130.431 114.458 128.526 114.458C126.621 114.458 125.165 113 125.165 111.094ZM125.165 75.5541C125.165 73.6482 126.621 72.0786 128.526 72.0786C130.431 72.0786 132 73.6482 132 75.5541C132 77.4601 130.431 78.9175 128.526 78.9175C126.621 78.9175 125.165 77.4601 125.165 75.5541ZM125.165 40.0138C125.165 38.1079 126.621 36.5383 128.526 36.5383C130.431 36.5383 132 38.1079 132 40.0138C132 41.8077 130.431 43.3773 128.526 43.3773C126.621 43.3773 125.165 41.8077 125.165 40.0138ZM125.165 4.36148C125.165 2.56765 126.621 0.998047 128.526 0.998047C130.431 0.998047 132 2.56765 132 4.36148C132 6.26742 130.431 7.83702 128.526 7.83702C126.621 7.83702 125.165 6.26742 125.165 4.36148ZM93.9015 4.36148C93.9015 2.56765 95.3582 0.998047 97.2632 0.998047C99.1681 0.998047 100.625 2.56765 100.625 4.36148C100.625 6.26742 99.1681 7.83702 97.2632 7.83702C95.3582 7.83702 93.9015 6.26742 93.9015 4.36148Z" fill="#8C52FF"/>
</svg>
