<svg width="195" height="229" viewBox="0 0 195 229" fill="none" xmlns="http://www.w3.org/2000/svg">
<path d="M136.705 174.03C121.666 188.538 107.349 202.004 89.3563 207.808C71.364 213.611 49.5872 211.739 34.8434 201.032C20.0972 190.199 12.3925 170.643 5.0499 150.394C-2.29028 130.268 -9.25907 109.446 -6.01832 88.3816C-2.6626 67.4326 10.8022 46.2249 29.8022 37.5323C48.8091 28.7118 73.2406 32.5087 95.6086 38.83C117.861 45.1509 138.048 54.1115 152.327 69.3742C166.603 84.6277 174.84 106.292 171.194 125.015C167.422 143.74 151.754 159.403 136.705 174.03Z" fill="white"/>
<path fill-rule="evenodd" clip-rule="evenodd" d="M107.759 100.208C106.859 100.208 106.171 99.5239 106.171 98.6299C106.171 97.7359 106.859 96.9997 107.759 96.9997C108.659 96.9997 109.347 97.7359 109.347 98.6299C109.347 99.5239 108.659 100.208 107.759 100.208ZM107.759 158.947C106.859 158.947 106.171 158.211 106.171 157.37C106.171 156.476 106.859 155.739 107.759 155.739C108.659 155.739 109.347 156.476 109.347 157.37C109.347 158.211 108.659 158.947 107.759 158.947ZM90.9797 158.947C90.0798 158.947 89.3388 158.211 89.3388 157.37C89.3388 156.476 90.0798 155.739 90.9797 155.739C91.8795 155.739 92.5676 156.476 92.5676 157.37C92.5676 158.211 91.8795 158.947 90.9797 158.947ZM74.2001 158.947C73.3002 158.947 72.5592 158.211 72.5592 157.37C72.5592 156.476 73.3002 155.739 74.2001 155.739C75.0999 155.739 75.7881 156.476 75.7881 157.37C75.7881 158.211 75.0999 158.947 74.2001 158.947ZM57.4205 158.947C56.5206 158.947 55.7796 158.211 55.7796 157.37C55.7796 156.476 56.5206 155.739 57.4205 155.739C58.2674 155.739 59.0085 156.476 59.0085 157.37C59.0085 158.211 58.2674 158.947 57.4205 158.947ZM40.588 158.947C39.7411 158.947 39 158.211 39 157.37C39 156.476 39.7411 155.739 40.588 155.739C41.4878 155.739 42.2289 156.476 42.2289 157.37C42.2289 158.211 41.4878 158.947 40.588 158.947ZM107.759 144.275C106.859 144.275 106.171 143.539 106.171 142.645C106.171 141.804 106.859 141.068 107.759 141.068C108.659 141.068 109.347 141.804 109.347 142.645C109.347 143.539 108.659 144.275 107.759 144.275ZM90.9797 144.275C90.0798 144.275 89.3388 143.539 89.3388 142.645C89.3388 141.804 90.0798 141.068 90.9797 141.068C91.8795 141.068 92.5676 141.804 92.5676 142.645C92.5676 143.539 91.8795 144.275 90.9797 144.275ZM74.2001 144.275C73.3002 144.275 72.5592 143.539 72.5592 142.645C72.5592 141.804 73.3002 141.068 74.2001 141.068C75.0999 141.068 75.7881 141.804 75.7881 142.645C75.7881 143.539 75.0999 144.275 74.2001 144.275ZM57.4205 144.275C56.5206 144.275 55.7796 143.539 55.7796 142.645C55.7796 141.804 56.5206 141.068 57.4205 141.068C58.2674 141.068 59.0085 141.804 59.0085 142.645C59.0085 143.539 58.2674 144.275 57.4205 144.275ZM40.588 144.275C39.7411 144.275 39 143.539 39 142.645C39 141.804 39.7411 141.068 40.588 141.068C41.4878 141.068 42.2289 141.804 42.2289 142.645C42.2289 143.539 41.4878 144.275 40.588 144.275ZM107.759 129.604C106.859 129.604 106.171 128.867 106.171 127.973C106.171 127.08 106.859 126.396 107.759 126.396C108.659 126.396 109.347 127.08 109.347 127.973C109.347 128.867 108.659 129.604 107.759 129.604ZM90.9797 129.604C90.0798 129.604 89.3388 128.867 89.3388 127.973C89.3388 127.08 90.0798 126.396 90.9797 126.396C91.8795 126.396 92.5676 127.08 92.5676 127.973C92.5676 128.867 91.8795 129.604 90.9797 129.604ZM74.2001 129.604C73.3002 129.604 72.5592 128.867 72.5592 127.973C72.5592 127.08 73.3002 126.396 74.2001 126.396C75.0999 126.396 75.7881 127.08 75.7881 127.973C75.7881 128.867 75.0999 129.604 74.2001 129.604ZM57.4205 129.604C56.5206 129.604 55.7796 128.867 55.7796 127.973C55.7796 127.08 56.5206 126.396 57.4205 126.396C58.2674 126.396 59.0085 127.08 59.0085 127.973C59.0085 128.867 58.2674 129.604 57.4205 129.604ZM40.588 129.604C39.7411 129.604 39 128.867 39 127.973C39 127.08 39.7411 126.396 40.588 126.396C41.4878 126.396 42.2289 127.08 42.2289 127.973C42.2289 128.867 41.4878 129.604 40.588 129.604ZM107.759 114.879C106.859 114.879 106.171 114.196 106.171 113.302C106.171 112.408 106.859 111.724 107.759 111.724C108.659 111.724 109.347 112.408 109.347 113.302C109.347 114.196 108.659 114.879 107.759 114.879ZM90.9797 114.879C90.0798 114.879 89.3388 114.196 89.3388 113.302C89.3388 112.408 90.0798 111.724 90.9797 111.724C91.8795 111.724 92.5676 112.408 92.5676 113.302C92.5676 114.196 91.8795 114.879 90.9797 114.879ZM74.2001 114.879C73.3002 114.879 72.5592 114.196 72.5592 113.302C72.5592 112.408 73.3002 111.724 74.2001 111.724C75.0999 111.724 75.7881 112.408 75.7881 113.302C75.7881 114.196 75.0999 114.879 74.2001 114.879ZM57.4205 114.879C56.5206 114.879 55.7796 114.196 55.7796 113.302C55.7796 112.408 56.5206 111.724 57.4205 111.724C58.2674 111.724 59.0085 112.408 59.0085 113.302C59.0085 114.196 58.2674 114.879 57.4205 114.879ZM90.9797 100.208C90.0798 100.208 89.3388 99.5239 89.3388 98.6299C89.3388 97.7359 90.0798 96.9997 90.9797 96.9997C91.8795 96.9997 92.5676 97.7359 92.5676 98.6299C92.5676 99.5239 91.8795 100.208 90.9797 100.208ZM74.2001 100.208C73.3002 100.208 72.5592 99.5239 72.5592 98.6299C72.5592 97.7359 73.3002 96.9997 74.2001 96.9997C75.0999 96.9997 75.7881 97.7359 75.7881 98.6299C75.7881 99.5239 75.0999 100.208 74.2001 100.208ZM57.4205 100.208C56.5206 100.208 55.7796 99.5239 55.7796 98.6299C55.7796 97.7359 56.5206 96.9997 57.4205 96.9997C58.2674 96.9997 59.0085 97.7359 59.0085 98.6299C59.0085 99.5239 58.2674 100.208 57.4205 100.208ZM40.588 100.208C39.7411 100.208 39 99.5239 39 98.6299C39 97.7359 39.7411 96.9997 40.588 96.9997C41.4878 96.9997 42.2289 97.7359 42.2289 98.6299C42.2289 99.5239 41.4878 100.208 40.588 100.208ZM40.588 114.879C39.7411 114.879 39 114.196 39 113.302C39 112.408 39.7411 111.724 40.588 111.724C41.4878 111.724 42.2289 112.408 42.2289 113.302C42.2289 114.196 41.4878 114.879 40.588 114.879Z" fill="#CB6CE6"/>
</svg>
