<svg width="508" height="480" viewBox="0 0 508 480" fill="none" xmlns="http://www.w3.org/2000/svg">
<path d="M360.274 394.015C315.695 421.445 273.424 446.78 225.72 453.499C178.016 460.217 124.611 448.253 93.0533 418.827C61.55 389.119 51.8598 342.205 43.4107 293.854C34.9069 245.784 27.6691 196.272 46.0142 149.839C64.5898 103.708 108.506 60.5831 160.131 47.696C211.836 34.5227 270.923 51.7786 323.635 74.004C376.057 96.1873 422.044 123.6 450.224 163.151C478.399 202.679 488.391 254.544 470.174 295.543C451.644 336.504 404.936 366.32 360.274 394.015Z" fill="white"/>
<path fill-rule="evenodd" clip-rule="evenodd" d="M165.407 222.767C163.243 222.767 161.587 221.112 161.587 218.947C161.587 216.783 163.243 215 165.407 215C167.572 215 169.228 216.783 169.228 218.947C169.228 221.112 167.572 222.767 165.407 222.767ZM165.407 365C163.243 365 161.587 363.217 161.587 361.18C161.587 359.015 163.243 357.233 165.407 357.233C167.572 357.233 169.228 359.015 169.228 361.18C169.228 363.217 167.572 365 165.407 365ZM125.042 365C122.878 365 121.095 363.217 121.095 361.18C121.095 359.015 122.878 357.233 125.042 357.233C127.207 357.233 128.862 359.015 128.862 361.18C128.862 363.217 127.207 365 125.042 365ZM84.6774 365C82.5127 365 80.7301 363.217 80.7301 361.18C80.7301 359.015 82.5127 357.233 84.6774 357.233C86.8421 357.233 88.4975 359.015 88.4975 361.18C88.4975 363.217 86.8421 365 84.6774 365ZM44.3124 365C42.1477 365 40.365 363.217 40.365 361.18C40.365 359.015 42.1477 357.233 44.3124 357.233C46.3497 357.233 48.1324 359.015 48.1324 361.18C48.1324 363.217 46.3497 365 44.3124 365ZM3.82003 365C1.78268 365 0 363.217 0 361.18C0 359.015 1.78268 357.233 3.82003 357.233C5.98472 357.233 7.7674 359.015 7.7674 361.18C7.7674 363.217 5.98472 365 3.82003 365ZM165.407 329.474C163.243 329.474 161.587 327.691 161.587 325.526C161.587 323.489 163.243 321.706 165.407 321.706C167.572 321.706 169.228 323.489 169.228 325.526C169.228 327.691 167.572 329.474 165.407 329.474ZM125.042 329.474C122.878 329.474 121.095 327.691 121.095 325.526C121.095 323.489 122.878 321.706 125.042 321.706C127.207 321.706 128.862 323.489 128.862 325.526C128.862 327.691 127.207 329.474 125.042 329.474ZM84.6774 329.474C82.5127 329.474 80.7301 327.691 80.7301 325.526C80.7301 323.489 82.5127 321.706 84.6774 321.706C86.8421 321.706 88.4975 323.489 88.4975 325.526C88.4975 327.691 86.8421 329.474 84.6774 329.474ZM44.3124 329.474C42.1477 329.474 40.365 327.691 40.365 325.526C40.365 323.489 42.1477 321.706 44.3124 321.706C46.3497 321.706 48.1324 323.489 48.1324 325.526C48.1324 327.691 46.3497 329.474 44.3124 329.474ZM3.82003 329.474C1.78268 329.474 0 327.691 0 325.526C0 323.489 1.78268 321.706 3.82003 321.706C5.98472 321.706 7.7674 323.489 7.7674 325.526C7.7674 327.691 5.98472 329.474 3.82003 329.474ZM165.407 293.947C163.243 293.947 161.587 292.165 161.587 290C161.587 287.835 163.243 286.18 165.407 286.18C167.572 286.18 169.228 287.835 169.228 290C169.228 292.165 167.572 293.947 165.407 293.947ZM125.042 293.947C122.878 293.947 121.095 292.165 121.095 290C121.095 287.835 122.878 286.18 125.042 286.18C127.207 286.18 128.862 287.835 128.862 290C128.862 292.165 127.207 293.947 125.042 293.947ZM84.6774 293.947C82.5127 293.947 80.7301 292.165 80.7301 290C80.7301 287.835 82.5127 286.18 84.6774 286.18C86.8421 286.18 88.4975 287.835 88.4975 290C88.4975 292.165 86.8421 293.947 84.6774 293.947ZM44.3124 293.947C42.1477 293.947 40.365 292.165 40.365 290C40.365 287.835 42.1477 286.18 44.3124 286.18C46.3497 286.18 48.1324 287.835 48.1324 290C48.1324 292.165 46.3497 293.947 44.3124 293.947ZM3.82003 293.947C1.78268 293.947 0 292.165 0 290C0 287.835 1.78268 286.18 3.82003 286.18C5.98472 286.18 7.7674 287.835 7.7674 290C7.7674 292.165 5.98472 293.947 3.82003 293.947ZM165.407 258.294C163.243 258.294 161.587 256.638 161.587 254.474C161.587 252.309 163.243 250.654 165.407 250.654C167.572 250.654 169.228 252.309 169.228 254.474C169.228 256.638 167.572 258.294 165.407 258.294ZM125.042 258.294C122.878 258.294 121.095 256.638 121.095 254.474C121.095 252.309 122.878 250.654 125.042 250.654C127.207 250.654 128.862 252.309 128.862 254.474C128.862 256.638 127.207 258.294 125.042 258.294ZM84.6774 258.294C82.5127 258.294 80.7301 256.638 80.7301 254.474C80.7301 252.309 82.5127 250.654 84.6774 250.654C86.8421 250.654 88.4975 252.309 88.4975 254.474C88.4975 256.638 86.8421 258.294 84.6774 258.294ZM44.3124 258.294C42.1477 258.294 40.365 256.638 40.365 254.474C40.365 252.309 42.1477 250.654 44.3124 250.654C46.3497 250.654 48.1324 252.309 48.1324 254.474C48.1324 256.638 46.3497 258.294 44.3124 258.294ZM125.042 222.767C122.878 222.767 121.095 221.112 121.095 218.947C121.095 216.783 122.878 215 125.042 215C127.207 215 128.862 216.783 128.862 218.947C128.862 221.112 127.207 222.767 125.042 222.767ZM84.6774 222.767C82.5127 222.767 80.7301 221.112 80.7301 218.947C80.7301 216.783 82.5127 215 84.6774 215C86.8421 215 88.4975 216.783 88.4975 218.947C88.4975 221.112 86.8421 222.767 84.6774 222.767ZM44.3124 222.767C42.1477 222.767 40.365 221.112 40.365 218.947C40.365 216.783 42.1477 215 44.3124 215C46.3497 215 48.1324 216.783 48.1324 218.947C48.1324 221.112 46.3497 222.767 44.3124 222.767ZM3.82003 222.767C1.78268 222.767 0 221.112 0 218.947C0 216.783 1.78268 215 3.82003 215C5.98472 215 7.7674 216.783 7.7674 218.947C7.7674 221.112 5.98472 222.767 3.82003 222.767ZM3.82003 258.294C1.78268 258.294 0 256.638 0 254.474C0 252.309 1.78268 250.654 3.82003 250.654C5.98472 250.654 7.7674 252.309 7.7674 254.474C7.7674 256.638 5.98472 258.294 3.82003 258.294Z" fill="#CB6CE6"/>
</svg>
