<svg width="153" height="135" viewBox="0 0 153 135" fill="none" xmlns="http://www.w3.org/2000/svg">
<path fill-rule="evenodd" clip-rule="evenodd" d="M148.867 6.99066C146.919 6.99066 145.429 5.50084 145.429 3.55263C145.429 1.60442 146.919 0 148.867 0C150.815 0 152.305 1.60442 152.305 3.55263C152.305 5.50084 150.815 6.99066 148.867 6.99066ZM148.867 135C146.919 135 145.429 133.396 145.429 131.562C145.429 129.614 146.919 128.009 148.867 128.009C150.815 128.009 152.305 129.614 152.305 131.562C152.305 133.396 150.815 135 148.867 135ZM112.538 135C110.59 135 108.986 133.396 108.986 131.562C108.986 129.614 110.59 128.009 112.538 128.009C114.486 128.009 115.976 129.614 115.976 131.562C115.976 133.396 114.486 135 112.538 135ZM76.2097 135C74.2615 135 72.6571 133.396 72.6571 131.562C72.6571 129.614 74.2615 128.009 76.2097 128.009C78.1579 128.009 79.6477 129.614 79.6477 131.562C79.6477 133.396 78.1579 135 76.2097 135ZM39.8812 135C37.9329 135 36.3285 133.396 36.3285 131.562C36.3285 129.614 37.9329 128.009 39.8812 128.009C41.7148 128.009 43.3192 129.614 43.3192 131.562C43.3192 133.396 41.7148 135 39.8812 135ZM3.43803 135C1.60441 135 0 133.396 0 131.562C0 129.614 1.60441 128.009 3.43803 128.009C5.38625 128.009 6.99066 129.614 6.99066 131.562C6.99066 133.396 5.38625 135 3.43803 135ZM148.867 103.026C146.919 103.026 145.429 101.422 145.429 99.4737C145.429 97.6401 146.919 96.0357 148.867 96.0357C150.815 96.0357 152.305 97.6401 152.305 99.4737C152.305 101.422 150.815 103.026 148.867 103.026ZM112.538 103.026C110.59 103.026 108.986 101.422 108.986 99.4737C108.986 97.6401 110.59 96.0357 112.538 96.0357C114.486 96.0357 115.976 97.6401 115.976 99.4737C115.976 101.422 114.486 103.026 112.538 103.026ZM76.2097 103.026C74.2615 103.026 72.6571 101.422 72.6571 99.4737C72.6571 97.6401 74.2615 96.0357 76.2097 96.0357C78.1579 96.0357 79.6477 97.6401 79.6477 99.4737C79.6477 101.422 78.1579 103.026 76.2097 103.026ZM39.8812 103.026C37.9329 103.026 36.3285 101.422 36.3285 99.4737C36.3285 97.6401 37.9329 96.0357 39.8812 96.0357C41.7148 96.0357 43.3192 97.6401 43.3192 99.4737C43.3192 101.422 41.7148 103.026 39.8812 103.026ZM3.43803 103.026C1.60441 103.026 0 101.422 0 99.4737C0 97.6401 1.60441 96.0357 3.43803 96.0357C5.38625 96.0357 6.99066 97.6401 6.99066 99.4737C6.99066 101.422 5.38625 103.026 3.43803 103.026ZM148.867 71.0526C146.919 71.0526 145.429 69.4482 145.429 67.5C145.429 65.5518 146.919 64.062 148.867 64.062C150.815 64.062 152.305 65.5518 152.305 67.5C152.305 69.4482 150.815 71.0526 148.867 71.0526ZM112.538 71.0526C110.59 71.0526 108.986 69.4482 108.986 67.5C108.986 65.5518 110.59 64.062 112.538 64.062C114.486 64.062 115.976 65.5518 115.976 67.5C115.976 69.4482 114.486 71.0526 112.538 71.0526ZM76.2097 71.0526C74.2615 71.0526 72.6571 69.4482 72.6571 67.5C72.6571 65.5518 74.2615 64.062 76.2097 64.062C78.1579 64.062 79.6477 65.5518 79.6477 67.5C79.6477 69.4482 78.1579 71.0526 76.2097 71.0526ZM39.8812 71.0526C37.9329 71.0526 36.3285 69.4482 36.3285 67.5C36.3285 65.5518 37.9329 64.062 39.8812 64.062C41.7148 64.062 43.3192 65.5518 43.3192 67.5C43.3192 69.4482 41.7148 71.0526 39.8812 71.0526ZM3.43803 71.0526C1.60441 71.0526 0 69.4482 0 67.5C0 65.5518 1.60441 64.062 3.43803 64.062C5.38625 64.062 6.99066 65.5518 6.99066 67.5C6.99066 69.4482 5.38625 71.0526 3.43803 71.0526ZM148.867 38.9643C146.919 38.9643 145.429 37.4745 145.429 35.5263C145.429 33.5781 146.919 32.0883 148.867 32.0883C150.815 32.0883 152.305 33.5781 152.305 35.5263C152.305 37.4745 150.815 38.9643 148.867 38.9643ZM112.538 38.9643C110.59 38.9643 108.986 37.4745 108.986 35.5263C108.986 33.5781 110.59 32.0883 112.538 32.0883C114.486 32.0883 115.976 33.5781 115.976 35.5263C115.976 37.4745 114.486 38.9643 112.538 38.9643ZM76.2097 38.9643C74.2615 38.9643 72.6571 37.4745 72.6571 35.5263C72.6571 33.5781 74.2615 32.0883 76.2097 32.0883C78.1579 32.0883 79.6477 33.5781 79.6477 35.5263C79.6477 37.4745 78.1579 38.9643 76.2097 38.9643ZM39.8812 38.9643C37.9329 38.9643 36.3285 37.4745 36.3285 35.5263C36.3285 33.5781 37.9329 32.0883 39.8812 32.0883C41.7148 32.0883 43.3192 33.5781 43.3192 35.5263C43.3192 37.4745 41.7148 38.9643 39.8812 38.9643ZM112.538 6.99066C110.59 6.99066 108.986 5.50084 108.986 3.55263C108.986 1.60442 110.59 0 112.538 0C114.486 0 115.976 1.60442 115.976 3.55263C115.976 5.50084 114.486 6.99066 112.538 6.99066ZM76.2097 6.99066C74.2615 6.99066 72.6571 5.50084 72.6571 3.55263C72.6571 1.60442 74.2615 0 76.2097 0C78.1579 0 79.6477 1.60442 79.6477 3.55263C79.6477 5.50084 78.1579 6.99066 76.2097 6.99066ZM39.8812 6.99066C37.9329 6.99066 36.3285 5.50084 36.3285 3.55263C36.3285 1.60442 37.9329 0 39.8812 0C41.7148 0 43.3192 1.60442 43.3192 3.55263C43.3192 5.50084 41.7148 6.99066 39.8812 6.99066ZM3.43803 6.99066C1.60441 6.99066 0 5.50084 0 3.55263C0 1.60442 1.60441 0 3.43803 0C5.38625 0 6.99066 1.60442 6.99066 3.55263C6.99066 5.50084 5.38625 6.99066 3.43803 6.99066ZM3.43803 38.9643C1.60441 38.9643 0 37.4745 0 35.5263C0 33.5781 1.60441 32.0883 3.43803 32.0883C5.38625 32.0883 6.99066 33.5781 6.99066 35.5263C6.99066 37.4745 5.38625 38.9643 3.43803 38.9643Z" fill="#8C52FF"/>
</svg>
