<svg width="205" height="229" viewBox="0 0 205 229" fill="none" xmlns="http://www.w3.org/2000/svg">
<path d="M164.705 174.03C149.666 188.538 135.349 202.004 117.356 207.808C99.364 213.612 77.5872 211.739 62.8434 201.032C48.0972 190.199 40.3925 170.643 33.0499 150.394C25.7097 130.269 18.7409 109.446 21.9817 88.3817C25.3374 67.4328 38.8022 46.225 57.8022 37.5324C76.8091 28.7119 101.241 32.5088 123.609 38.8301C145.861 45.151 166.048 54.1116 180.327 69.3743C194.603 84.6278 202.84 106.292 199.194 125.015C195.422 143.741 179.754 159.403 164.705 174.03Z" fill="white"/>
<path fill-rule="evenodd" clip-rule="evenodd" d="M173.761 86.2078C172.861 86.2078 172.173 85.5241 172.173 84.6301C172.173 83.7362 172.861 83 173.761 83C174.661 83 175.349 83.7362 175.349 84.6301C175.349 85.5241 174.661 86.2078 173.761 86.2078ZM173.761 144.948C172.861 144.948 172.173 144.211 172.173 143.37C172.173 142.476 172.861 141.74 173.761 141.74C174.661 141.74 175.349 142.476 175.349 143.37C175.349 144.211 174.661 144.948 173.761 144.948ZM156.982 144.948C156.082 144.948 155.341 144.211 155.341 143.37C155.341 142.476 156.082 141.74 156.982 141.74C157.881 141.74 158.57 142.476 158.57 143.37C158.57 144.211 157.881 144.948 156.982 144.948ZM140.202 144.948C139.302 144.948 138.561 144.211 138.561 143.37C138.561 142.476 139.302 141.74 140.202 141.74C141.102 141.74 141.79 142.476 141.79 143.37C141.79 144.211 141.102 144.948 140.202 144.948ZM123.422 144.948C122.523 144.948 121.782 144.211 121.782 143.37C121.782 142.476 122.523 141.74 123.422 141.74C124.269 141.74 125.01 142.476 125.01 143.37C125.01 144.211 124.269 144.948 123.422 144.948ZM106.59 144.948C105.743 144.948 105.002 144.211 105.002 143.37C105.002 142.476 105.743 141.74 106.59 141.74C107.49 141.74 108.231 142.476 108.231 143.37C108.231 144.211 107.49 144.948 106.59 144.948ZM173.761 130.276C172.861 130.276 172.173 129.54 172.173 128.646C172.173 127.804 172.861 127.068 173.761 127.068C174.661 127.068 175.349 127.804 175.349 128.646C175.349 129.54 174.661 130.276 173.761 130.276ZM156.982 130.276C156.082 130.276 155.341 129.54 155.341 128.646C155.341 127.804 156.082 127.068 156.982 127.068C157.881 127.068 158.57 127.804 158.57 128.646C158.57 129.54 157.881 130.276 156.982 130.276ZM140.202 130.276C139.302 130.276 138.561 129.54 138.561 128.646C138.561 127.804 139.302 127.068 140.202 127.068C141.102 127.068 141.79 127.804 141.79 128.646C141.79 129.54 141.102 130.276 140.202 130.276ZM123.422 130.276C122.523 130.276 121.782 129.54 121.782 128.646C121.782 127.804 122.523 127.068 123.422 127.068C124.269 127.068 125.01 127.804 125.01 128.646C125.01 129.54 124.269 130.276 123.422 130.276ZM106.59 130.276C105.743 130.276 105.002 129.54 105.002 128.646C105.002 127.804 105.743 127.068 106.59 127.068C107.49 127.068 108.231 127.804 108.231 128.646C108.231 129.54 107.49 130.276 106.59 130.276ZM173.761 115.604C172.861 115.604 172.173 114.868 172.173 113.974C172.173 113.08 172.861 112.396 173.761 112.396C174.661 112.396 175.349 113.08 175.349 113.974C175.349 114.868 174.661 115.604 173.761 115.604ZM156.982 115.604C156.082 115.604 155.341 114.868 155.341 113.974C155.341 113.08 156.082 112.396 156.982 112.396C157.881 112.396 158.57 113.08 158.57 113.974C158.57 114.868 157.881 115.604 156.982 115.604ZM140.202 115.604C139.302 115.604 138.561 114.868 138.561 113.974C138.561 113.08 139.302 112.396 140.202 112.396C141.102 112.396 141.79 113.08 141.79 113.974C141.79 114.868 141.102 115.604 140.202 115.604ZM123.422 115.604C122.523 115.604 121.782 114.868 121.782 113.974C121.782 113.08 122.523 112.396 123.422 112.396C124.269 112.396 125.01 113.08 125.01 113.974C125.01 114.868 124.269 115.604 123.422 115.604ZM106.59 115.604C105.743 115.604 105.002 114.868 105.002 113.974C105.002 113.08 105.743 112.396 106.59 112.396C107.49 112.396 108.231 113.08 108.231 113.974C108.231 114.868 107.49 115.604 106.59 115.604ZM173.761 100.88C172.861 100.88 172.173 100.196 172.173 99.3019C172.173 98.408 172.861 97.7243 173.761 97.7243C174.661 97.7243 175.349 98.408 175.349 99.3019C175.349 100.196 174.661 100.88 173.761 100.88ZM156.982 100.88C156.082 100.88 155.341 100.196 155.341 99.3019C155.341 98.408 156.082 97.7243 156.982 97.7243C157.881 97.7243 158.57 98.408 158.57 99.3019C158.57 100.196 157.881 100.88 156.982 100.88ZM140.202 100.88C139.302 100.88 138.561 100.196 138.561 99.3019C138.561 98.408 139.302 97.7243 140.202 97.7243C141.102 97.7243 141.79 98.408 141.79 99.3019C141.79 100.196 141.102 100.88 140.202 100.88ZM123.422 100.88C122.523 100.88 121.782 100.196 121.782 99.3019C121.782 98.408 122.523 97.7243 123.422 97.7243C124.269 97.7243 125.01 98.408 125.01 99.3019C125.01 100.196 124.269 100.88 123.422 100.88ZM156.982 86.2078C156.082 86.2078 155.341 85.5241 155.341 84.6301C155.341 83.7362 156.082 83 156.982 83C157.881 83 158.57 83.7362 158.57 84.6301C158.57 85.5241 157.881 86.2078 156.982 86.2078ZM140.202 86.2078C139.302 86.2078 138.561 85.5241 138.561 84.6301C138.561 83.7362 139.302 83 140.202 83C141.102 83 141.79 83.7362 141.79 84.6301C141.79 85.5241 141.102 86.2078 140.202 86.2078ZM123.422 86.2078C122.523 86.2078 121.782 85.5241 121.782 84.6301C121.782 83.7362 122.523 83 123.422 83C124.269 83 125.01 83.7362 125.01 84.6301C125.01 85.5241 124.269 86.2078 123.422 86.2078ZM106.59 86.2078C105.743 86.2078 105.002 85.5241 105.002 84.6301C105.002 83.7362 105.743 83 106.59 83C107.49 83 108.231 83.7362 108.231 84.6301C108.231 85.5241 107.49 86.2078 106.59 86.2078ZM106.59 100.88C105.743 100.88 105.002 100.196 105.002 99.3019C105.002 98.408 105.743 97.7243 106.59 97.7243C107.49 97.7243 108.231 98.408 108.231 99.3019C108.231 100.196 107.49 100.88 106.59 100.88Z" fill="#CB6CE6"/>
</svg>
