<svg width="304" height="319" viewBox="0 0 304 319" fill="none" xmlns="http://www.w3.org/2000/svg">
<path d="M205.455 290.913C171.735 306.102 139.839 319.988 106.382 318.945C72.9245 317.902 37.7315 301.844 19.53 275.272C1.39871 248.492 0.206323 211.388 0.0309715 173.347C-0.21452 135.513 0.574561 96.7416 18.5305 63.6353C36.6093 30.7897 71.6971 3.52258 108.556 0.359672C145.502 -3.01178 183.975 17.8252 217.502 41.6339C250.836 65.3731 279.155 92.2753 293.867 126.146C308.579 160 309.403 200.926 292.166 229.897C274.719 258.797 239.263 275.533 205.455 290.913Z" fill="white"/>
<path fill-rule="evenodd" clip-rule="evenodd" d="M290.794 178.11C289.079 178.11 287.769 176.808 287.769 175.105C287.769 173.402 289.079 172 290.794 172C292.508 172 293.818 173.402 293.818 175.105C293.818 176.808 292.508 178.11 290.794 178.11ZM290.794 290C289.079 290 287.769 288.598 287.769 286.995C287.769 285.292 289.079 283.89 290.794 283.89C292.508 283.89 293.818 285.292 293.818 286.995C293.818 288.598 292.508 290 290.794 290ZM258.831 290C257.117 290 255.705 288.598 255.705 286.995C255.705 285.292 257.117 283.89 258.831 283.89C260.545 283.89 261.856 285.292 261.856 286.995C261.856 288.598 260.545 290 258.831 290ZM226.869 290C225.155 290 223.743 288.598 223.743 286.995C223.743 285.292 225.155 283.89 226.869 283.89C228.583 283.89 229.894 285.292 229.894 286.995C229.894 288.598 228.583 290 226.869 290ZM194.906 290C193.192 290 191.781 288.598 191.781 286.995C191.781 285.292 193.192 283.89 194.906 283.89C196.52 283.89 197.931 285.292 197.931 286.995C197.931 288.598 196.52 290 194.906 290ZM162.843 290C161.23 290 159.818 288.598 159.818 286.995C159.818 285.292 161.23 283.89 162.843 283.89C164.557 283.89 165.969 285.292 165.969 286.995C165.969 288.598 164.557 290 162.843 290ZM290.794 262.053C289.079 262.053 287.769 260.65 287.769 258.947C287.769 257.345 289.079 255.942 290.794 255.942C292.508 255.942 293.818 257.345 293.818 258.947C293.818 260.65 292.508 262.053 290.794 262.053ZM258.831 262.053C257.117 262.053 255.705 260.65 255.705 258.947C255.705 257.345 257.117 255.942 258.831 255.942C260.545 255.942 261.856 257.345 261.856 258.947C261.856 260.65 260.545 262.053 258.831 262.053ZM226.869 262.053C225.155 262.053 223.743 260.65 223.743 258.947C223.743 257.345 225.155 255.942 226.869 255.942C228.583 255.942 229.894 257.345 229.894 258.947C229.894 260.65 228.583 262.053 226.869 262.053ZM194.906 262.053C193.192 262.053 191.781 260.65 191.781 258.947C191.781 257.345 193.192 255.942 194.906 255.942C196.52 255.942 197.931 257.345 197.931 258.947C197.931 260.65 196.52 262.053 194.906 262.053ZM162.843 262.053C161.23 262.053 159.818 260.65 159.818 258.947C159.818 257.345 161.23 255.942 162.843 255.942C164.557 255.942 165.969 257.345 165.969 258.947C165.969 260.65 164.557 262.053 162.843 262.053ZM290.794 234.105C289.079 234.105 287.769 232.703 287.769 231C287.769 229.297 289.079 227.995 290.794 227.995C292.508 227.995 293.818 229.297 293.818 231C293.818 232.703 292.508 234.105 290.794 234.105ZM258.831 234.105C257.117 234.105 255.705 232.703 255.705 231C255.705 229.297 257.117 227.995 258.831 227.995C260.545 227.995 261.856 229.297 261.856 231C261.856 232.703 260.545 234.105 258.831 234.105ZM226.869 234.105C225.155 234.105 223.743 232.703 223.743 231C223.743 229.297 225.155 227.995 226.869 227.995C228.583 227.995 229.894 229.297 229.894 231C229.894 232.703 228.583 234.105 226.869 234.105ZM194.906 234.105C193.192 234.105 191.781 232.703 191.781 231C191.781 229.297 193.192 227.995 194.906 227.995C196.52 227.995 197.931 229.297 197.931 231C197.931 232.703 196.52 234.105 194.906 234.105ZM162.843 234.105C161.23 234.105 159.818 232.703 159.818 231C159.818 229.297 161.23 227.995 162.843 227.995C164.557 227.995 165.969 229.297 165.969 231C165.969 232.703 164.557 234.105 162.843 234.105ZM290.794 206.058C289.079 206.058 287.769 204.756 287.769 203.053C287.769 201.35 289.079 200.048 290.794 200.048C292.508 200.048 293.818 201.35 293.818 203.053C293.818 204.756 292.508 206.058 290.794 206.058ZM258.831 206.058C257.117 206.058 255.705 204.756 255.705 203.053C255.705 201.35 257.117 200.048 258.831 200.048C260.545 200.048 261.856 201.35 261.856 203.053C261.856 204.756 260.545 206.058 258.831 206.058ZM226.869 206.058C225.155 206.058 223.743 204.756 223.743 203.053C223.743 201.35 225.155 200.048 226.869 200.048C228.583 200.048 229.894 201.35 229.894 203.053C229.894 204.756 228.583 206.058 226.869 206.058ZM194.906 206.058C193.192 206.058 191.781 204.756 191.781 203.053C191.781 201.35 193.192 200.048 194.906 200.048C196.52 200.048 197.931 201.35 197.931 203.053C197.931 204.756 196.52 206.058 194.906 206.058ZM258.831 178.11C257.117 178.11 255.705 176.808 255.705 175.105C255.705 173.402 257.117 172 258.831 172C260.545 172 261.856 173.402 261.856 175.105C261.856 176.808 260.545 178.11 258.831 178.11ZM226.869 178.11C225.155 178.11 223.743 176.808 223.743 175.105C223.743 173.402 225.155 172 226.869 172C228.583 172 229.894 173.402 229.894 175.105C229.894 176.808 228.583 178.11 226.869 178.11ZM194.906 178.11C193.192 178.11 191.781 176.808 191.781 175.105C191.781 173.402 193.192 172 194.906 172C196.52 172 197.931 173.402 197.931 175.105C197.931 176.808 196.52 178.11 194.906 178.11ZM162.843 178.11C161.23 178.11 159.818 176.808 159.818 175.105C159.818 173.402 161.23 172 162.843 172C164.557 172 165.969 173.402 165.969 175.105C165.969 176.808 164.557 178.11 162.843 178.11ZM162.843 206.058C161.23 206.058 159.818 204.756 159.818 203.053C159.818 201.35 161.23 200.048 162.843 200.048C164.557 200.048 165.969 201.35 165.969 203.053C165.969 204.756 164.557 206.058 162.843 206.058Z" fill="#CB6CE6"/>
</svg>
