<svg width="203" height="206" viewBox="0 0 203 206" fill="none" xmlns="http://www.w3.org/2000/svg">
<path d="M83.5787 137.863C63.5695 111.776 15.0851 99.2709 15.6337 74.901C16.1702 50.7228 54.0778 29.7673 91.8914 21.112C129.705 12.4566 167.454 15.9042 187.543 34.9841C207.824 54.2452 210.436 89.1454 205.586 115.727C200.7 142.49 188.193 160.975 172.43 175.097C156.575 189.302 137.462 199.056 122.943 194.922C108.571 190.834 98.2556 157.017 83.5787 137.863Z" fill="white"/>
<path fill-rule="evenodd" clip-rule="evenodd" d="M113.375 110.194C113.375 109.171 114.148 108.388 115.158 108.388C116.168 108.388 117 109.171 117 110.194C117 111.217 116.168 112 115.158 112C114.148 112 113.375 111.217 113.375 110.194ZM47 110.194C47 109.171 47.8319 108.388 48.7827 108.388C49.7929 108.388 50.6248 109.171 50.6248 110.194C50.6248 111.217 49.7929 112 48.7827 112C47.8319 112 47 111.217 47 110.194ZM47 91.1121C47 90.0888 47.8319 89.2461 48.7827 89.2461C49.7929 89.2461 50.6248 90.0888 50.6248 91.1121C50.6248 92.1354 49.7929 92.918 48.7827 92.918C47.8319 92.918 47 92.1354 47 91.1121ZM47 72.0301C47 71.0068 47.8319 70.164 48.7827 70.164C49.7929 70.164 50.6248 71.0068 50.6248 72.0301C50.6248 73.0534 49.7929 73.836 48.7827 73.836C47.8319 73.836 47 73.0534 47 72.0301ZM47 52.9481C47 51.9248 47.8319 51.082 48.7827 51.082C49.7929 51.082 50.6248 51.9248 50.6248 52.9481C50.6248 53.9112 49.7929 54.754 48.7827 54.754C47.8319 54.754 47 53.9112 47 52.9481ZM47 33.8059C47 32.8427 47.8319 32 48.7827 32C49.7929 32 50.6248 32.8427 50.6248 33.8059C50.6248 34.8292 49.7929 35.6719 48.7827 35.6719C47.8319 35.6719 47 34.8292 47 33.8059ZM63.5789 110.194C63.5789 109.171 64.4109 108.388 65.4211 108.388C66.3718 108.388 67.2037 109.171 67.2037 110.194C67.2037 111.217 66.3718 112 65.4211 112C64.4109 112 63.5789 111.217 63.5789 110.194ZM63.5789 91.1121C63.5789 90.0888 64.4109 89.2461 65.4211 89.2461C66.3718 89.2461 67.2037 90.0888 67.2037 91.1121C67.2037 92.1354 66.3718 92.918 65.4211 92.918C64.4109 92.918 63.5789 92.1354 63.5789 91.1121ZM63.5789 72.0301C63.5789 71.0068 64.4109 70.164 65.4211 70.164C66.3718 70.164 67.2037 71.0068 67.2037 72.0301C67.2037 73.0534 66.3718 73.836 65.4211 73.836C64.4109 73.836 63.5789 73.0534 63.5789 72.0301ZM63.5789 52.9481C63.5789 51.9248 64.4109 51.082 65.4211 51.082C66.3718 51.082 67.2037 51.9248 67.2037 52.9481C67.2037 53.9112 66.3718 54.754 65.4211 54.754C64.4109 54.754 63.5789 53.9112 63.5789 52.9481ZM63.5789 33.8059C63.5789 32.8427 64.4109 32 65.4211 32C66.3718 32 67.2037 32.8427 67.2037 33.8059C67.2037 34.8292 66.3718 35.6719 65.4211 35.6719C64.4109 35.6719 63.5789 34.8292 63.5789 33.8059ZM80.1579 110.194C80.1579 109.171 80.9898 108.388 82 108.388C83.0102 108.388 83.7827 109.171 83.7827 110.194C83.7827 111.217 83.0102 112 82 112C80.9898 112 80.1579 111.217 80.1579 110.194ZM80.1579 91.1121C80.1579 90.0888 80.9898 89.2461 82 89.2461C83.0102 89.2461 83.7827 90.0888 83.7827 91.1121C83.7827 92.1354 83.0102 92.918 82 92.918C80.9898 92.918 80.1579 92.1354 80.1579 91.1121ZM80.1579 72.0301C80.1579 71.0068 80.9898 70.164 82 70.164C83.0102 70.164 83.7827 71.0068 83.7827 72.0301C83.7827 73.0534 83.0102 73.836 82 73.836C80.9898 73.836 80.1579 73.0534 80.1579 72.0301ZM80.1579 52.9481C80.1579 51.9248 80.9898 51.082 82 51.082C83.0102 51.082 83.7827 51.9248 83.7827 52.9481C83.7827 53.9112 83.0102 54.754 82 54.754C80.9898 54.754 80.1579 53.9112 80.1579 52.9481ZM80.1579 33.8059C80.1579 32.8427 80.9898 32 82 32C83.0102 32 83.7827 32.8427 83.7827 33.8059C83.7827 34.8292 83.0102 35.6719 82 35.6719C80.9898 35.6719 80.1579 34.8292 80.1579 33.8059ZM96.7963 110.194C96.7963 109.171 97.5688 108.388 98.5789 108.388C99.5891 108.388 100.362 109.171 100.362 110.194C100.362 111.217 99.5891 112 98.5789 112C97.5688 112 96.7963 111.217 96.7963 110.194ZM96.7963 91.1121C96.7963 90.0888 97.5688 89.2461 98.5789 89.2461C99.5891 89.2461 100.362 90.0888 100.362 91.1121C100.362 92.1354 99.5891 92.918 98.5789 92.918C97.5688 92.918 96.7963 92.1354 96.7963 91.1121ZM96.7963 72.0301C96.7963 71.0068 97.5688 70.164 98.5789 70.164C99.5891 70.164 100.362 71.0068 100.362 72.0301C100.362 73.0534 99.5891 73.836 98.5789 73.836C97.5688 73.836 96.7963 73.0534 96.7963 72.0301ZM96.7963 52.9481C96.7963 51.9248 97.5688 51.082 98.5789 51.082C99.5891 51.082 100.362 51.9248 100.362 52.9481C100.362 53.9112 99.5891 54.754 98.5789 54.754C97.5688 54.754 96.7963 53.9112 96.7963 52.9481ZM113.375 91.1121C113.375 90.0888 114.148 89.2461 115.158 89.2461C116.168 89.2461 117 90.0888 117 91.1121C117 92.1354 116.168 92.918 115.158 92.918C114.148 92.918 113.375 92.1354 113.375 91.1121ZM113.375 72.0301C113.375 71.0068 114.148 70.164 115.158 70.164C116.168 70.164 117 71.0068 117 72.0301C117 73.0534 116.168 73.836 115.158 73.836C114.148 73.836 113.375 73.0534 113.375 72.0301ZM113.375 52.9481C113.375 51.9248 114.148 51.082 115.158 51.082C116.168 51.082 117 51.9248 117 52.9481C117 53.9112 116.168 54.754 115.158 54.754C114.148 54.754 113.375 53.9112 113.375 52.9481ZM113.375 33.8059C113.375 32.8427 114.148 32 115.158 32C116.168 32 117 32.8427 117 33.8059C117 34.8292 116.168 35.6719 115.158 35.6719C114.148 35.6719 113.375 34.8292 113.375 33.8059ZM96.7963 33.8059C96.7963 32.8427 97.5688 32 98.5789 32C99.5891 32 100.362 32.8427 100.362 33.8059C100.362 34.8292 99.5891 35.6719 98.5789 35.6719C97.5688 35.6719 96.7963 34.8292 96.7963 33.8059Z" fill="#8C52FF"/>
</svg>
