<svg width="307" height="309" viewBox="0 0 307 309" fill="none" xmlns="http://www.w3.org/2000/svg">
<path d="M124.969 207.179C94.8991 167.975 22.0374 149.183 22.8617 112.56C23.668 76.2256 80.635 44.734 137.461 31.7268C194.287 18.7197 251.015 23.9006 281.206 52.5737C311.683 81.519 315.609 133.967 308.319 173.914C300.977 214.132 282.181 241.911 258.494 263.134C234.667 284.481 205.944 299.138 184.125 292.927C162.526 286.783 147.025 235.964 124.969 207.179Z" fill="white"/>
<path fill-rule="evenodd" clip-rule="evenodd" d="M187.511 156.291C187.511 154.756 188.681 153.582 190.211 153.582C191.74 153.582 193 154.756 193 156.291C193 157.826 191.74 159 190.211 159C188.681 159 187.511 157.826 187.511 156.291ZM87 156.291C87 154.756 88.2598 153.582 89.6995 153.582C91.2292 153.582 92.489 154.756 92.489 156.291C92.489 157.826 91.2292 159 89.6995 159C88.2598 159 87 157.826 87 156.291ZM87 127.668C87 126.133 88.2598 124.869 89.6995 124.869C91.2292 124.869 92.489 126.133 92.489 127.668C92.489 129.203 91.2292 130.377 89.6995 130.377C88.2598 130.377 87 129.203 87 127.668ZM87 99.0451C87 97.5102 88.2598 96.2461 89.6995 96.2461C91.2292 96.2461 92.489 97.5102 92.489 99.0451C92.489 100.58 91.2292 101.754 89.6995 101.754C88.2598 101.754 87 100.58 87 99.0451ZM87 70.4221C87 68.8871 88.2598 67.623 89.6995 67.623C91.2292 67.623 92.489 68.8871 92.489 70.4221C92.489 71.8668 91.2292 73.1309 89.6995 73.1309C88.2598 73.1309 87 71.8668 87 70.4221ZM87 41.7088C87 40.2641 88.2598 39 89.6995 39C91.2292 39 92.489 40.2641 92.489 41.7088C92.489 43.2438 91.2292 44.5079 89.6995 44.5079C88.2598 44.5079 87 43.2438 87 41.7088ZM112.105 156.291C112.105 154.756 113.365 153.582 114.895 153.582C116.334 153.582 117.594 154.756 117.594 156.291C117.594 157.826 116.334 159 114.895 159C113.365 159 112.105 157.826 112.105 156.291ZM112.105 127.668C112.105 126.133 113.365 124.869 114.895 124.869C116.334 124.869 117.594 126.133 117.594 127.668C117.594 129.203 116.334 130.377 114.895 130.377C113.365 130.377 112.105 129.203 112.105 127.668ZM112.105 99.0451C112.105 97.5102 113.365 96.2461 114.895 96.2461C116.334 96.2461 117.594 97.5102 117.594 99.0451C117.594 100.58 116.334 101.754 114.895 101.754C113.365 101.754 112.105 100.58 112.105 99.0451ZM112.105 70.4221C112.105 68.8871 113.365 67.623 114.895 67.623C116.334 67.623 117.594 68.8871 117.594 70.4221C117.594 71.8668 116.334 73.1309 114.895 73.1309C113.365 73.1309 112.105 71.8668 112.105 70.4221ZM112.105 41.7088C112.105 40.2641 113.365 39 114.895 39C116.334 39 117.594 40.2641 117.594 41.7088C117.594 43.2438 116.334 44.5079 114.895 44.5079C113.365 44.5079 112.105 43.2438 112.105 41.7088ZM137.211 156.291C137.211 154.756 138.47 153.582 140 153.582C141.53 153.582 142.699 154.756 142.699 156.291C142.699 157.826 141.53 159 140 159C138.47 159 137.211 157.826 137.211 156.291ZM137.211 127.668C137.211 126.133 138.47 124.869 140 124.869C141.53 124.869 142.699 126.133 142.699 127.668C142.699 129.203 141.53 130.377 140 130.377C138.47 130.377 137.211 129.203 137.211 127.668ZM137.211 99.0451C137.211 97.5102 138.47 96.2461 140 96.2461C141.53 96.2461 142.699 97.5102 142.699 99.0451C142.699 100.58 141.53 101.754 140 101.754C138.47 101.754 137.211 100.58 137.211 99.0451ZM137.211 70.4221C137.211 68.8871 138.47 67.623 140 67.623C141.53 67.623 142.699 68.8871 142.699 70.4221C142.699 71.8668 141.53 73.1309 140 73.1309C138.47 73.1309 137.211 71.8668 137.211 70.4221ZM137.211 41.7088C137.211 40.2641 138.47 39 140 39C141.53 39 142.699 40.2641 142.699 41.7088C142.699 43.2438 141.53 44.5079 140 44.5079C138.47 44.5079 137.211 43.2438 137.211 41.7088ZM162.406 156.291C162.406 154.756 163.576 153.582 165.105 153.582C166.635 153.582 167.805 154.756 167.805 156.291C167.805 157.826 166.635 159 165.105 159C163.576 159 162.406 157.826 162.406 156.291ZM162.406 127.668C162.406 126.133 163.576 124.869 165.105 124.869C166.635 124.869 167.805 126.133 167.805 127.668C167.805 129.203 166.635 130.377 165.105 130.377C163.576 130.377 162.406 129.203 162.406 127.668ZM162.406 99.0451C162.406 97.5102 163.576 96.2461 165.105 96.2461C166.635 96.2461 167.805 97.5102 167.805 99.0451C167.805 100.58 166.635 101.754 165.105 101.754C163.576 101.754 162.406 100.58 162.406 99.0451ZM162.406 70.4221C162.406 68.8871 163.576 67.623 165.105 67.623C166.635 67.623 167.805 68.8871 167.805 70.4221C167.805 71.8668 166.635 73.1309 165.105 73.1309C163.576 73.1309 162.406 71.8668 162.406 70.4221ZM187.511 127.668C187.511 126.133 188.681 124.869 190.211 124.869C191.74 124.869 193 126.133 193 127.668C193 129.203 191.74 130.377 190.211 130.377C188.681 130.377 187.511 129.203 187.511 127.668ZM187.511 99.0451C187.511 97.5102 188.681 96.2461 190.211 96.2461C191.74 96.2461 193 97.5102 193 99.0451C193 100.58 191.74 101.754 190.211 101.754C188.681 101.754 187.511 100.58 187.511 99.0451ZM187.511 70.4221C187.511 68.8871 188.681 67.623 190.211 67.623C191.74 67.623 193 68.8871 193 70.4221C193 71.8668 191.74 73.1309 190.211 73.1309C188.681 73.1309 187.511 71.8668 187.511 70.4221ZM187.511 41.7088C187.511 40.2641 188.681 39 190.211 39C191.74 39 193 40.2641 193 41.7088C193 43.2438 191.74 44.5079 190.211 44.5079C188.681 44.5079 187.511 43.2438 187.511 41.7088ZM162.406 41.7088C162.406 40.2641 163.576 39 165.105 39C166.635 39 167.805 40.2641 167.805 41.7088C167.805 43.2438 166.635 44.5079 165.105 44.5079C163.576 44.5079 162.406 43.2438 162.406 41.7088Z" fill="#8C52FF"/>
</svg>
