<svg width="409" height="367" viewBox="0 0 409 367" fill="none" xmlns="http://www.w3.org/2000/svg">
<path d="M264.708 238.912C296.052 190.966 378.63 162.837 374.487 120.586C370.393 78.6156 301.772 47.1693 234.922 37.1293C168.104 27.0422 102.954 38.0084 70.5466 73.7959C37.8298 109.928 37.9034 170.914 49.8182 216.481C61.8302 262.361 85.9776 292.852 115.247 315.322C144.658 337.891 179.137 352.365 203.82 343.237C228.238 334.238 241.727 274.126 264.708 238.912Z" fill="white"/>
<path fill-rule="evenodd" clip-rule="evenodd" d="M125.165 304.635C125.165 302.729 126.621 301.271 128.526 301.271C130.431 301.271 132 302.729 132 304.635C132 306.541 130.431 307.998 128.526 307.998C126.621 307.998 125.165 306.541 125.165 304.635ZM0 304.635C0 302.729 1.56876 301.271 3.36163 301.271C5.26655 301.271 6.83531 302.729 6.83531 304.635C6.83531 306.541 5.26655 307.998 3.36163 307.998C1.56876 307.998 0 306.541 0 304.635ZM0 269.094C0 267.188 1.56876 265.619 3.36163 265.619C5.26655 265.619 6.83531 267.188 6.83531 269.094C6.83531 271 5.26655 272.458 3.36163 272.458C1.56876 272.458 0 271 0 269.094ZM0 233.554C0 231.648 1.56876 230.079 3.36163 230.079C5.26655 230.079 6.83531 231.648 6.83531 233.554C6.83531 235.46 5.26655 236.918 3.36163 236.918C1.56876 236.918 0 235.46 0 233.554ZM0 198.014C0 196.108 1.56876 194.538 3.36163 194.538C5.26655 194.538 6.83531 196.108 6.83531 198.014C6.83531 199.808 5.26655 201.377 3.36163 201.377C1.56876 201.377 0 199.808 0 198.014ZM0 162.361C0 160.568 1.56876 158.998 3.36163 158.998C5.26655 158.998 6.83531 160.568 6.83531 162.361C6.83531 164.267 5.26655 165.837 3.36163 165.837C1.56876 165.837 0 164.267 0 162.361ZM31.2632 304.635C31.2632 302.729 32.8319 301.271 34.7368 301.271C36.5297 301.271 38.0985 302.729 38.0985 304.635C38.0985 306.541 36.5297 307.998 34.7368 307.998C32.8319 307.998 31.2632 306.541 31.2632 304.635ZM31.2632 269.094C31.2632 267.188 32.8319 265.619 34.7368 265.619C36.5297 265.619 38.0985 267.188 38.0985 269.094C38.0985 271 36.5297 272.458 34.7368 272.458C32.8319 272.458 31.2632 271 31.2632 269.094ZM31.2632 233.554C31.2632 231.648 32.8319 230.079 34.7368 230.079C36.5297 230.079 38.0985 231.648 38.0985 233.554C38.0985 235.46 36.5297 236.918 34.7368 236.918C32.8319 236.918 31.2632 235.46 31.2632 233.554ZM31.2632 198.014C31.2632 196.108 32.8319 194.538 34.7368 194.538C36.5297 194.538 38.0985 196.108 38.0985 198.014C38.0985 199.808 36.5297 201.377 34.7368 201.377C32.8319 201.377 31.2632 199.808 31.2632 198.014ZM31.2632 162.361C31.2632 160.568 32.8319 158.998 34.7368 158.998C36.5297 158.998 38.0985 160.568 38.0985 162.361C38.0985 164.267 36.5297 165.837 34.7368 165.837C32.8319 165.837 31.2632 164.267 31.2632 162.361ZM62.5263 304.635C62.5263 302.729 64.0951 301.271 66 301.271C67.9049 301.271 69.3616 302.729 69.3616 304.635C69.3616 306.541 67.9049 307.998 66 307.998C64.0951 307.998 62.5263 306.541 62.5263 304.635ZM62.5263 269.094C62.5263 267.188 64.0951 265.619 66 265.619C67.9049 265.619 69.3616 267.188 69.3616 269.094C69.3616 271 67.9049 272.458 66 272.458C64.0951 272.458 62.5263 271 62.5263 269.094ZM62.5263 233.554C62.5263 231.648 64.0951 230.079 66 230.079C67.9049 230.079 69.3616 231.648 69.3616 233.554C69.3616 235.46 67.9049 236.918 66 236.918C64.0951 236.918 62.5263 235.46 62.5263 233.554ZM62.5263 198.014C62.5263 196.108 64.0951 194.538 66 194.538C67.9049 194.538 69.3616 196.108 69.3616 198.014C69.3616 199.808 67.9049 201.377 66 201.377C64.0951 201.377 62.5263 199.808 62.5263 198.014ZM62.5263 162.361C62.5263 160.568 64.0951 158.998 66 158.998C67.9049 158.998 69.3616 160.568 69.3616 162.361C69.3616 164.267 67.9049 165.837 66 165.837C64.0951 165.837 62.5263 164.267 62.5263 162.361ZM93.9015 304.635C93.9015 302.729 95.3582 301.271 97.2632 301.271C99.1681 301.271 100.625 302.729 100.625 304.635C100.625 306.541 99.1681 307.998 97.2632 307.998C95.3582 307.998 93.9015 306.541 93.9015 304.635ZM93.9015 269.094C93.9015 267.188 95.3582 265.619 97.2632 265.619C99.1681 265.619 100.625 267.188 100.625 269.094C100.625 271 99.1681 272.458 97.2632 272.458C95.3582 272.458 93.9015 271 93.9015 269.094ZM93.9015 233.554C93.9015 231.648 95.3582 230.079 97.2632 230.079C99.1681 230.079 100.625 231.648 100.625 233.554C100.625 235.46 99.1681 236.918 97.2632 236.918C95.3582 236.918 93.9015 235.46 93.9015 233.554ZM93.9015 198.014C93.9015 196.108 95.3582 194.538 97.2632 194.538C99.1681 194.538 100.625 196.108 100.625 198.014C100.625 199.808 99.1681 201.377 97.2632 201.377C95.3582 201.377 93.9015 199.808 93.9015 198.014ZM125.165 269.094C125.165 267.188 126.621 265.619 128.526 265.619C130.431 265.619 132 267.188 132 269.094C132 271 130.431 272.458 128.526 272.458C126.621 272.458 125.165 271 125.165 269.094ZM125.165 233.554C125.165 231.648 126.621 230.079 128.526 230.079C130.431 230.079 132 231.648 132 233.554C132 235.46 130.431 236.918 128.526 236.918C126.621 236.918 125.165 235.46 125.165 233.554ZM125.165 198.014C125.165 196.108 126.621 194.538 128.526 194.538C130.431 194.538 132 196.108 132 198.014C132 199.808 130.431 201.377 128.526 201.377C126.621 201.377 125.165 199.808 125.165 198.014ZM125.165 162.361C125.165 160.568 126.621 158.998 128.526 158.998C130.431 158.998 132 160.568 132 162.361C132 164.267 130.431 165.837 128.526 165.837C126.621 165.837 125.165 164.267 125.165 162.361ZM93.9015 162.361C93.9015 160.568 95.3582 158.998 97.2632 158.998C99.1681 158.998 100.625 160.568 100.625 162.361C100.625 164.267 99.1681 165.837 97.2632 165.837C95.3582 165.837 93.9015 164.267 93.9015 162.361Z" fill="#8C52FF"/>
</svg>
