<svg width="372" height="350" viewBox="0 0 372 350" fill="none" xmlns="http://www.w3.org/2000/svg">
<path d="M92.4418 119.457C131.131 86.6849 144.465 13.024 183.185 11.0779C221.6 9.13548 259.912 63.2424 278.705 118.604C297.498 173.966 297.089 230.603 269.523 262.701C241.695 295.103 186.699 302.954 143.894 298.74C100.799 294.496 69.808 277.956 45.3003 256.071C20.6484 234.057 2.6203 206.684 7.23001 184.582C11.7869 162.703 64.0327 143.498 92.4418 119.457Z" fill="white"/>
<path fill-rule="evenodd" clip-rule="evenodd" d="M365.009 345.867C365.009 343.919 366.499 342.429 368.447 342.429C370.396 342.429 372 343.919 372 345.867C372 347.815 370.396 349.305 368.447 349.305C366.499 349.305 365.009 347.815 365.009 345.867ZM237 345.867C237 343.919 238.604 342.429 240.438 342.429C242.386 342.429 243.991 343.919 243.991 345.867C243.991 347.815 242.386 349.305 240.438 349.305C238.604 349.305 237 347.815 237 345.867ZM237 309.538C237 307.59 238.604 305.986 240.438 305.986C242.386 305.986 243.991 307.59 243.991 309.538C243.991 311.487 242.386 312.976 240.438 312.976C238.604 312.976 237 311.487 237 309.538ZM237 273.21C237 271.262 238.604 269.657 240.438 269.657C242.386 269.657 243.991 271.262 243.991 273.21C243.991 275.158 242.386 276.648 240.438 276.648C238.604 276.648 237 275.158 237 273.21ZM237 236.881C237 234.933 238.604 233.329 240.438 233.329C242.386 233.329 243.991 234.933 243.991 236.881C243.991 238.715 242.386 240.319 240.438 240.319C238.604 240.319 237 238.715 237 236.881ZM237 200.438C237 198.605 238.604 197 240.438 197C242.386 197 243.991 198.605 243.991 200.438C243.991 202.386 242.386 203.991 240.438 203.991C238.604 203.991 237 202.386 237 200.438ZM268.974 345.867C268.974 343.919 270.578 342.429 272.526 342.429C274.36 342.429 275.964 343.919 275.964 345.867C275.964 347.815 274.36 349.305 272.526 349.305C270.578 349.305 268.974 347.815 268.974 345.867ZM268.974 309.538C268.974 307.59 270.578 305.986 272.526 305.986C274.36 305.986 275.964 307.59 275.964 309.538C275.964 311.487 274.36 312.976 272.526 312.976C270.578 312.976 268.974 311.487 268.974 309.538ZM268.974 273.21C268.974 271.262 270.578 269.657 272.526 269.657C274.36 269.657 275.964 271.262 275.964 273.21C275.964 275.158 274.36 276.648 272.526 276.648C270.578 276.648 268.974 275.158 268.974 273.21ZM268.974 236.881C268.974 234.933 270.578 233.329 272.526 233.329C274.36 233.329 275.964 234.933 275.964 236.881C275.964 238.715 274.36 240.319 272.526 240.319C270.578 240.319 268.974 238.715 268.974 236.881ZM268.974 200.438C268.974 198.605 270.578 197 272.526 197C274.36 197 275.964 198.605 275.964 200.438C275.964 202.386 274.36 203.991 272.526 203.991C270.578 203.991 268.974 202.386 268.974 200.438ZM300.947 345.867C300.947 343.919 302.552 342.429 304.5 342.429C306.448 342.429 307.938 343.919 307.938 345.867C307.938 347.815 306.448 349.305 304.5 349.305C302.552 349.305 300.947 347.815 300.947 345.867ZM300.947 309.538C300.947 307.59 302.552 305.986 304.5 305.986C306.448 305.986 307.938 307.59 307.938 309.538C307.938 311.487 306.448 312.976 304.5 312.976C302.552 312.976 300.947 311.487 300.947 309.538ZM300.947 273.21C300.947 271.262 302.552 269.657 304.5 269.657C306.448 269.657 307.938 271.262 307.938 273.21C307.938 275.158 306.448 276.648 304.5 276.648C302.552 276.648 300.947 275.158 300.947 273.21ZM300.947 236.881C300.947 234.933 302.552 233.329 304.5 233.329C306.448 233.329 307.938 234.933 307.938 236.881C307.938 238.715 306.448 240.319 304.5 240.319C302.552 240.319 300.947 238.715 300.947 236.881ZM300.947 200.438C300.947 198.605 302.552 197 304.5 197C306.448 197 307.938 198.605 307.938 200.438C307.938 202.386 306.448 203.991 304.5 203.991C302.552 203.991 300.947 202.386 300.947 200.438ZM333.036 345.867C333.036 343.919 334.525 342.429 336.474 342.429C338.422 342.429 339.912 343.919 339.912 345.867C339.912 347.815 338.422 349.305 336.474 349.305C334.525 349.305 333.036 347.815 333.036 345.867ZM333.036 309.538C333.036 307.59 334.525 305.986 336.474 305.986C338.422 305.986 339.912 307.59 339.912 309.538C339.912 311.487 338.422 312.976 336.474 312.976C334.525 312.976 333.036 311.487 333.036 309.538ZM333.036 273.21C333.036 271.262 334.525 269.657 336.474 269.657C338.422 269.657 339.912 271.262 339.912 273.21C339.912 275.158 338.422 276.648 336.474 276.648C334.525 276.648 333.036 275.158 333.036 273.21ZM333.036 236.881C333.036 234.933 334.525 233.329 336.474 233.329C338.422 233.329 339.912 234.933 339.912 236.881C339.912 238.715 338.422 240.319 336.474 240.319C334.525 240.319 333.036 238.715 333.036 236.881ZM365.009 309.538C365.009 307.59 366.499 305.986 368.447 305.986C370.396 305.986 372 307.59 372 309.538C372 311.487 370.396 312.976 368.447 312.976C366.499 312.976 365.009 311.487 365.009 309.538ZM365.009 273.21C365.009 271.262 366.499 269.657 368.447 269.657C370.396 269.657 372 271.262 372 273.21C372 275.158 370.396 276.648 368.447 276.648C366.499 276.648 365.009 275.158 365.009 273.21ZM365.009 236.881C365.009 234.933 366.499 233.329 368.447 233.329C370.396 233.329 372 234.933 372 236.881C372 238.715 370.396 240.319 368.447 240.319C366.499 240.319 365.009 238.715 365.009 236.881ZM365.009 200.438C365.009 198.605 366.499 197 368.447 197C370.396 197 372 198.605 372 200.438C372 202.386 370.396 203.991 368.447 203.991C366.499 203.991 365.009 202.386 365.009 200.438ZM333.036 200.438C333.036 198.605 334.525 197 336.474 197C338.422 197 339.912 198.605 339.912 200.438C339.912 202.386 338.422 203.991 336.474 203.991C334.525 203.991 333.036 202.386 333.036 200.438Z" fill="#8C52FF"/>
</svg>
