<svg width="180" height="183" viewBox="0 0 180 183" fill="none" xmlns="http://www.w3.org/2000/svg">
<path d="M51.6016 73.0847C73.8537 50.8541 78.2977 4.68927 102.163 1.48843C125.839 -1.69432 152.35 29.7316 166.845 62.9401C181.34 96.1486 184.016 131.136 168.613 152.376C153.065 173.817 119.431 181.503 92.719 181.112C65.8255 180.717 45.7885 172.106 29.4877 159.86C13.091 147.543 0.517008 131.574 2.22727 117.691C3.91637 103.948 35.2609 89.3939 51.6016 73.0847Z" fill="white"/>
<path fill-rule="evenodd" clip-rule="evenodd" d="M166.323 101.172C166.323 100.135 167.107 99.3431 168.132 99.3431C169.156 99.3431 170 100.135 170 101.172C170 102.208 169.156 103 168.132 103C167.107 103 166.323 102.208 166.323 101.172ZM99 101.172C99 100.135 99.8438 99.3431 100.808 99.3431C101.833 99.3431 102.677 100.135 102.677 101.172C102.677 102.208 101.833 103 100.808 103C99.8438 103 99 102.208 99 101.172ZM99 81.851C99 80.8149 99.8438 79.9616 100.808 79.9616C101.833 79.9616 102.677 80.8149 102.677 81.851C102.677 82.8871 101.833 83.6795 100.808 83.6795C99.8438 83.6795 99 82.8871 99 81.851ZM99 62.5305C99 61.4944 99.8438 60.6411 100.808 60.6411C101.833 60.6411 102.677 61.4944 102.677 62.5305C102.677 63.5666 101.833 64.3589 100.808 64.3589C99.8438 64.3589 99 63.5666 99 62.5305ZM99 43.2099C99 42.1738 99.8438 41.3205 100.808 41.3205C101.833 41.3205 102.677 42.1738 102.677 43.2099C102.677 44.1851 101.833 45.0384 100.808 45.0384C99.8438 45.0384 99 44.1851 99 43.2099ZM99 23.8284C99 22.8533 99.8438 22 100.808 22C101.833 22 102.677 22.8533 102.677 23.8284C102.677 24.8646 101.833 25.7178 100.808 25.7178C99.8438 25.7178 99 24.8646 99 23.8284ZM115.816 101.172C115.816 100.135 116.66 99.3431 117.684 99.3431C118.649 99.3431 119.492 100.135 119.492 101.172C119.492 102.208 118.649 103 117.684 103C116.66 103 115.816 102.208 115.816 101.172ZM115.816 81.851C115.816 80.8149 116.66 79.9616 117.684 79.9616C118.649 79.9616 119.492 80.8149 119.492 81.851C119.492 82.8871 118.649 83.6795 117.684 83.6795C116.66 83.6795 115.816 82.8871 115.816 81.851ZM115.816 62.5305C115.816 61.4944 116.66 60.6411 117.684 60.6411C118.649 60.6411 119.492 61.4944 119.492 62.5305C119.492 63.5666 118.649 64.3589 117.684 64.3589C116.66 64.3589 115.816 63.5666 115.816 62.5305ZM115.816 43.2099C115.816 42.1738 116.66 41.3205 117.684 41.3205C118.649 41.3205 119.492 42.1738 119.492 43.2099C119.492 44.1851 118.649 45.0384 117.684 45.0384C116.66 45.0384 115.816 44.1851 115.816 43.2099ZM115.816 23.8284C115.816 22.8533 116.66 22 117.684 22C118.649 22 119.492 22.8533 119.492 23.8284C119.492 24.8646 118.649 25.7178 117.684 25.7178C116.66 25.7178 115.816 24.8646 115.816 23.8284ZM132.632 101.172C132.632 100.135 133.475 99.3431 134.5 99.3431C135.525 99.3431 136.308 100.135 136.308 101.172C136.308 102.208 135.525 103 134.5 103C133.475 103 132.632 102.208 132.632 101.172ZM132.632 81.851C132.632 80.8149 133.475 79.9616 134.5 79.9616C135.525 79.9616 136.308 80.8149 136.308 81.851C136.308 82.8871 135.525 83.6795 134.5 83.6795C133.475 83.6795 132.632 82.8871 132.632 81.851ZM132.632 62.5305C132.632 61.4944 133.475 60.6411 134.5 60.6411C135.525 60.6411 136.308 61.4944 136.308 62.5305C136.308 63.5666 135.525 64.3589 134.5 64.3589C133.475 64.3589 132.632 63.5666 132.632 62.5305ZM132.632 43.2099C132.632 42.1738 133.475 41.3205 134.5 41.3205C135.525 41.3205 136.308 42.1738 136.308 43.2099C136.308 44.1851 135.525 45.0384 134.5 45.0384C133.475 45.0384 132.632 44.1851 132.632 43.2099ZM132.632 23.8284C132.632 22.8533 133.475 22 134.5 22C135.525 22 136.308 22.8533 136.308 23.8284C136.308 24.8646 135.525 25.7178 134.5 25.7178C133.475 25.7178 132.632 24.8646 132.632 23.8284ZM149.508 101.172C149.508 100.135 150.291 99.3431 151.316 99.3431C152.34 99.3431 153.124 100.135 153.124 101.172C153.124 102.208 152.34 103 151.316 103C150.291 103 149.508 102.208 149.508 101.172ZM149.508 81.851C149.508 80.8149 150.291 79.9616 151.316 79.9616C152.34 79.9616 153.124 80.8149 153.124 81.851C153.124 82.8871 152.34 83.6795 151.316 83.6795C150.291 83.6795 149.508 82.8871 149.508 81.851ZM149.508 62.5305C149.508 61.4944 150.291 60.6411 151.316 60.6411C152.34 60.6411 153.124 61.4944 153.124 62.5305C153.124 63.5666 152.34 64.3589 151.316 64.3589C150.291 64.3589 149.508 63.5666 149.508 62.5305ZM149.508 43.2099C149.508 42.1738 150.291 41.3205 151.316 41.3205C152.34 41.3205 153.124 42.1738 153.124 43.2099C153.124 44.1851 152.34 45.0384 151.316 45.0384C150.291 45.0384 149.508 44.1851 149.508 43.2099ZM166.323 81.851C166.323 80.8149 167.107 79.9616 168.132 79.9616C169.156 79.9616 170 80.8149 170 81.851C170 82.8871 169.156 83.6795 168.132 83.6795C167.107 83.6795 166.323 82.8871 166.323 81.851ZM166.323 62.5305C166.323 61.4944 167.107 60.6411 168.132 60.6411C169.156 60.6411 170 61.4944 170 62.5305C170 63.5666 169.156 64.3589 168.132 64.3589C167.107 64.3589 166.323 63.5666 166.323 62.5305ZM166.323 43.2099C166.323 42.1738 167.107 41.3205 168.132 41.3205C169.156 41.3205 170 42.1738 170 43.2099C170 44.1851 169.156 45.0384 168.132 45.0384C167.107 45.0384 166.323 44.1851 166.323 43.2099ZM166.323 23.8284C166.323 22.8533 167.107 22 168.132 22C169.156 22 170 22.8533 170 23.8284C170 24.8646 169.156 25.7178 168.132 25.7178C167.107 25.7178 166.323 24.8646 166.323 23.8284ZM149.508 23.8284C149.508 22.8533 150.291 22 151.316 22C152.34 22 153.124 22.8533 153.124 23.8284C153.124 24.8646 152.34 25.7178 151.316 25.7178C150.291 25.7178 149.508 24.8646 149.508 23.8284Z" fill="#8C52FF"/>
</svg>
