<svg width="255" height="287" viewBox="0 0 255 287" fill="none" xmlns="http://www.w3.org/2000/svg">
<path d="M78.1837 109.831C111.624 76.4229 118.302 7.04698 154.167 2.2368C189.748 -2.54621 229.588 44.6803 251.37 94.5856C273.153 144.491 277.174 197.07 254.028 228.989C230.662 261.21 180.117 272.761 139.974 272.174C99.5592 271.58 69.4478 258.639 44.9512 240.236C20.3105 221.725 1.41436 197.728 3.98454 176.864C6.52288 156.212 53.6271 134.34 78.1837 109.831Z" fill="white"/>
<path fill-rule="evenodd" clip-rule="evenodd" d="M239.511 284.291C239.511 282.756 240.681 281.582 242.211 281.582C243.74 281.582 245 282.756 245 284.291C245 285.826 243.74 287 242.211 287C240.681 287 239.511 285.826 239.511 284.291ZM139 284.291C139 282.756 140.26 281.582 141.699 281.582C143.229 281.582 144.489 282.756 144.489 284.291C144.489 285.826 143.229 287 141.699 287C140.26 287 139 285.826 139 284.291ZM139 255.668C139 254.133 140.26 252.869 141.699 252.869C143.229 252.869 144.489 254.133 144.489 255.668C144.489 257.203 143.229 258.377 141.699 258.377C140.26 258.377 139 257.203 139 255.668ZM139 227.045C139 225.51 140.26 224.246 141.699 224.246C143.229 224.246 144.489 225.51 144.489 227.045C144.489 228.58 143.229 229.754 141.699 229.754C140.26 229.754 139 228.58 139 227.045ZM139 198.422C139 196.887 140.26 195.623 141.699 195.623C143.229 195.623 144.489 196.887 144.489 198.422C144.489 199.867 143.229 201.131 141.699 201.131C140.26 201.131 139 199.867 139 198.422ZM139 169.709C139 168.264 140.26 167 141.699 167C143.229 167 144.489 168.264 144.489 169.709C144.489 171.244 143.229 172.508 141.699 172.508C140.26 172.508 139 171.244 139 169.709ZM164.105 284.291C164.105 282.756 165.365 281.582 166.895 281.582C168.334 281.582 169.594 282.756 169.594 284.291C169.594 285.826 168.334 287 166.895 287C165.365 287 164.105 285.826 164.105 284.291ZM164.105 255.668C164.105 254.133 165.365 252.869 166.895 252.869C168.334 252.869 169.594 254.133 169.594 255.668C169.594 257.203 168.334 258.377 166.895 258.377C165.365 258.377 164.105 257.203 164.105 255.668ZM164.105 227.045C164.105 225.51 165.365 224.246 166.895 224.246C168.334 224.246 169.594 225.51 169.594 227.045C169.594 228.58 168.334 229.754 166.895 229.754C165.365 229.754 164.105 228.58 164.105 227.045ZM164.105 198.422C164.105 196.887 165.365 195.623 166.895 195.623C168.334 195.623 169.594 196.887 169.594 198.422C169.594 199.867 168.334 201.131 166.895 201.131C165.365 201.131 164.105 199.867 164.105 198.422ZM164.105 169.709C164.105 168.264 165.365 167 166.895 167C168.334 167 169.594 168.264 169.594 169.709C169.594 171.244 168.334 172.508 166.895 172.508C165.365 172.508 164.105 171.244 164.105 169.709ZM189.211 284.291C189.211 282.756 190.47 281.582 192 281.582C193.53 281.582 194.699 282.756 194.699 284.291C194.699 285.826 193.53 287 192 287C190.47 287 189.211 285.826 189.211 284.291ZM189.211 255.668C189.211 254.133 190.47 252.869 192 252.869C193.53 252.869 194.699 254.133 194.699 255.668C194.699 257.203 193.53 258.377 192 258.377C190.47 258.377 189.211 257.203 189.211 255.668ZM189.211 227.045C189.211 225.51 190.47 224.246 192 224.246C193.53 224.246 194.699 225.51 194.699 227.045C194.699 228.58 193.53 229.754 192 229.754C190.47 229.754 189.211 228.58 189.211 227.045ZM189.211 198.422C189.211 196.887 190.47 195.623 192 195.623C193.53 195.623 194.699 196.887 194.699 198.422C194.699 199.867 193.53 201.131 192 201.131C190.47 201.131 189.211 199.867 189.211 198.422ZM189.211 169.709C189.211 168.264 190.47 167 192 167C193.53 167 194.699 168.264 194.699 169.709C194.699 171.244 193.53 172.508 192 172.508C190.47 172.508 189.211 171.244 189.211 169.709ZM214.406 284.291C214.406 282.756 215.576 281.582 217.105 281.582C218.635 281.582 219.805 282.756 219.805 284.291C219.805 285.826 218.635 287 217.105 287C215.576 287 214.406 285.826 214.406 284.291ZM214.406 255.668C214.406 254.133 215.576 252.869 217.105 252.869C218.635 252.869 219.805 254.133 219.805 255.668C219.805 257.203 218.635 258.377 217.105 258.377C215.576 258.377 214.406 257.203 214.406 255.668ZM214.406 227.045C214.406 225.51 215.576 224.246 217.105 224.246C218.635 224.246 219.805 225.51 219.805 227.045C219.805 228.58 218.635 229.754 217.105 229.754C215.576 229.754 214.406 228.58 214.406 227.045ZM214.406 198.422C214.406 196.887 215.576 195.623 217.105 195.623C218.635 195.623 219.805 196.887 219.805 198.422C219.805 199.867 218.635 201.131 217.105 201.131C215.576 201.131 214.406 199.867 214.406 198.422ZM239.511 255.668C239.511 254.133 240.681 252.869 242.211 252.869C243.74 252.869 245 254.133 245 255.668C245 257.203 243.74 258.377 242.211 258.377C240.681 258.377 239.511 257.203 239.511 255.668ZM239.511 227.045C239.511 225.51 240.681 224.246 242.211 224.246C243.74 224.246 245 225.51 245 227.045C245 228.58 243.74 229.754 242.211 229.754C240.681 229.754 239.511 228.58 239.511 227.045ZM239.511 198.422C239.511 196.887 240.681 195.623 242.211 195.623C243.74 195.623 245 196.887 245 198.422C245 199.867 243.74 201.131 242.211 201.131C240.681 201.131 239.511 199.867 239.511 198.422ZM239.511 169.709C239.511 168.264 240.681 167 242.211 167C243.74 167 245 168.264 245 169.709C245 171.244 243.74 172.508 242.211 172.508C240.681 172.508 239.511 171.244 239.511 169.709ZM214.406 169.709C214.406 168.264 215.576 167 217.105 167C218.635 167 219.805 168.264 219.805 169.709C219.805 171.244 218.635 172.508 217.105 172.508C215.576 172.508 214.406 171.244 214.406 169.709Z" fill="#8C52FF"/>
</svg>
