<svg width="438" height="457" viewBox="0 0 438 457" fill="none" xmlns="http://www.w3.org/2000/svg">
<path d="M393.457 287.017C404.666 242.963 390.551 191.228 360.028 160.075C329.586 128.438 282.655 117.868 230.836 102.016C179.026 86.1889 122.354 65.0699 83.4118 83.3539C44.5854 101.169 24.0553 157.983 33.3928 202.685C42.4302 247.581 81.6264 280.146 110.607 314.049C139.49 348.47 157.778 383.653 189.536 398.94C221.002 414.445 265.462 409.997 306.148 389.205C346.332 368.364 382.442 331.373 393.457 287.017Z" fill="white"/>
<path fill-rule="evenodd" clip-rule="evenodd" d="M396.009 227.867C396.009 225.919 397.499 224.429 399.447 224.429C401.396 224.429 403 225.919 403 227.867C403 229.815 401.396 231.305 399.447 231.305C397.499 231.305 396.009 229.815 396.009 227.867ZM268 227.867C268 225.919 269.604 224.429 271.438 224.429C273.386 224.429 274.991 225.919 274.991 227.867C274.991 229.815 273.386 231.305 271.438 231.305C269.604 231.305 268 229.815 268 227.867ZM268 191.539C268 189.59 269.604 187.986 271.438 187.986C273.386 187.986 274.991 189.59 274.991 191.539C274.991 193.487 273.386 194.977 271.438 194.977C269.604 194.977 268 193.487 268 191.539ZM268 155.21C268 153.262 269.604 151.658 271.438 151.658C273.386 151.658 274.991 153.262 274.991 155.21C274.991 157.158 273.386 158.648 271.438 158.648C269.604 158.648 268 157.158 268 155.21ZM268 118.882C268 116.933 269.604 115.329 271.438 115.329C273.386 115.329 274.991 116.933 274.991 118.882C274.991 120.715 273.386 122.32 271.438 122.32C269.604 122.32 268 120.715 268 118.882ZM268 82.4385C268 80.6049 269.604 79.0005 271.438 79.0005C273.386 79.0005 274.991 80.6049 274.991 82.4385C274.991 84.3867 273.386 85.9912 271.438 85.9912C269.604 85.9912 268 84.3867 268 82.4385ZM299.974 227.867C299.974 225.919 301.578 224.429 303.526 224.429C305.36 224.429 306.964 225.919 306.964 227.867C306.964 229.815 305.36 231.305 303.526 231.305C301.578 231.305 299.974 229.815 299.974 227.867ZM299.974 191.539C299.974 189.59 301.578 187.986 303.526 187.986C305.36 187.986 306.964 189.59 306.964 191.539C306.964 193.487 305.36 194.977 303.526 194.977C301.578 194.977 299.974 193.487 299.974 191.539ZM299.974 155.21C299.974 153.262 301.578 151.658 303.526 151.658C305.36 151.658 306.964 153.262 306.964 155.21C306.964 157.158 305.36 158.648 303.526 158.648C301.578 158.648 299.974 157.158 299.974 155.21ZM299.974 118.882C299.974 116.933 301.578 115.329 303.526 115.329C305.36 115.329 306.964 116.933 306.964 118.882C306.964 120.715 305.36 122.32 303.526 122.32C301.578 122.32 299.974 120.715 299.974 118.882ZM299.974 82.4385C299.974 80.6049 301.578 79.0005 303.526 79.0005C305.36 79.0005 306.964 80.6049 306.964 82.4385C306.964 84.3867 305.36 85.9912 303.526 85.9912C301.578 85.9912 299.974 84.3867 299.974 82.4385ZM331.947 227.867C331.947 225.919 333.552 224.429 335.5 224.429C337.448 224.429 338.938 225.919 338.938 227.867C338.938 229.815 337.448 231.305 335.5 231.305C333.552 231.305 331.947 229.815 331.947 227.867ZM331.947 191.539C331.947 189.59 333.552 187.986 335.5 187.986C337.448 187.986 338.938 189.59 338.938 191.539C338.938 193.487 337.448 194.977 335.5 194.977C333.552 194.977 331.947 193.487 331.947 191.539ZM331.947 155.21C331.947 153.262 333.552 151.658 335.5 151.658C337.448 151.658 338.938 153.262 338.938 155.21C338.938 157.158 337.448 158.648 335.5 158.648C333.552 158.648 331.947 157.158 331.947 155.21ZM331.947 118.882C331.947 116.933 333.552 115.329 335.5 115.329C337.448 115.329 338.938 116.933 338.938 118.882C338.938 120.715 337.448 122.32 335.5 122.32C333.552 122.32 331.947 120.715 331.947 118.882ZM331.947 82.4385C331.947 80.6049 333.552 79.0005 335.5 79.0005C337.448 79.0005 338.938 80.6049 338.938 82.4385C338.938 84.3867 337.448 85.9912 335.5 85.9912C333.552 85.9912 331.947 84.3867 331.947 82.4385ZM364.036 227.867C364.036 225.919 365.525 224.429 367.474 224.429C369.422 224.429 370.912 225.919 370.912 227.867C370.912 229.815 369.422 231.305 367.474 231.305C365.525 231.305 364.036 229.815 364.036 227.867ZM364.036 191.539C364.036 189.59 365.525 187.986 367.474 187.986C369.422 187.986 370.912 189.59 370.912 191.539C370.912 193.487 369.422 194.977 367.474 194.977C365.525 194.977 364.036 193.487 364.036 191.539ZM364.036 155.21C364.036 153.262 365.525 151.658 367.474 151.658C369.422 151.658 370.912 153.262 370.912 155.21C370.912 157.158 369.422 158.648 367.474 158.648C365.525 158.648 364.036 157.158 364.036 155.21ZM364.036 118.882C364.036 116.933 365.525 115.329 367.474 115.329C369.422 115.329 370.912 116.933 370.912 118.882C370.912 120.715 369.422 122.32 367.474 122.32C365.525 122.32 364.036 120.715 364.036 118.882ZM396.009 191.539C396.009 189.59 397.499 187.986 399.447 187.986C401.396 187.986 403 189.59 403 191.539C403 193.487 401.396 194.977 399.447 194.977C397.499 194.977 396.009 193.487 396.009 191.539ZM396.009 155.21C396.009 153.262 397.499 151.658 399.447 151.658C401.396 151.658 403 153.262 403 155.21C403 157.158 401.396 158.648 399.447 158.648C397.499 158.648 396.009 157.158 396.009 155.21ZM396.009 118.882C396.009 116.933 397.499 115.329 399.447 115.329C401.396 115.329 403 116.933 403 118.882C403 120.715 401.396 122.32 399.447 122.32C397.499 122.32 396.009 120.715 396.009 118.882ZM396.009 82.4385C396.009 80.6049 397.499 79.0005 399.447 79.0005C401.396 79.0005 403 80.6049 403 82.4385C403 84.3867 401.396 85.9912 399.447 85.9912C397.499 85.9912 396.009 84.3867 396.009 82.4385ZM364.036 82.4385C364.036 80.6049 365.525 79.0005 367.474 79.0005C369.422 79.0005 370.912 80.6049 370.912 82.4385C370.912 84.3867 369.422 85.9912 367.474 85.9912C365.525 85.9912 364.036 84.3867 364.036 82.4385Z" fill="#8C52FF"/>
</svg>
