<svg width="310" height="305" viewBox="0 0 310 305" fill="none" xmlns="http://www.w3.org/2000/svg">
<path d="M269.118 259.837C240.761 283.948 197.649 292.139 163.765 280.82C129.588 269.776 104.978 238.983 74.7474 206.49C44.5129 173.957 8.62691 139.809 8.10511 104.523C7.24443 69.4763 41.6576 33.9519 77.8883 24.7668C114.128 15.2967 152.137 32.4555 187.449 41.6304C223.14 50.5611 255.557 51.4087 278.194 69.3103C300.884 86.9626 313.555 121.33 312.892 158.774C311.99 195.879 297.769 235.815 269.118 259.837Z" fill="white"/>
<path fill-rule="evenodd" clip-rule="evenodd" d="M206.314 24.5407C204.792 24.5407 203.628 23.3599 203.628 21.8158C203.628 20.2716 204.792 19 206.314 19C207.836 19 209 20.2716 209 21.8158C209 23.3599 207.836 24.5407 206.314 24.5407ZM206.314 126C204.792 126 203.628 124.728 203.628 123.275C203.628 121.731 204.792 120.459 206.314 120.459C207.836 120.459 209 121.731 209 123.275C209 124.728 207.836 126 206.314 126ZM177.929 126C176.407 126 175.153 124.728 175.153 123.275C175.153 121.731 176.407 120.459 177.929 120.459C179.451 120.459 180.615 121.731 180.615 123.275C180.615 124.728 179.451 126 177.929 126ZM149.545 126C148.023 126 146.769 124.728 146.769 123.275C146.769 121.731 148.023 120.459 149.545 120.459C151.067 120.459 152.231 121.731 152.231 123.275C152.231 124.728 151.067 126 149.545 126ZM121.16 126C119.638 126 118.385 124.728 118.385 123.275C118.385 121.731 119.638 120.459 121.16 120.459C122.593 120.459 123.847 121.731 123.847 123.275C123.847 124.728 122.593 126 121.16 126ZM92.6862 126C91.2536 126 90 124.728 90 123.275C90 121.731 91.2536 120.459 92.6862 120.459C94.2084 120.459 95.462 121.731 95.462 123.275C95.462 124.728 94.2084 126 92.6862 126ZM206.314 100.658C204.792 100.658 203.628 99.3862 203.628 97.8421C203.628 96.3888 204.792 95.1171 206.314 95.1171C207.836 95.1171 209 96.3888 209 97.8421C209 99.3862 207.836 100.658 206.314 100.658ZM177.929 100.658C176.407 100.658 175.153 99.3862 175.153 97.8421C175.153 96.3888 176.407 95.1171 177.929 95.1171C179.451 95.1171 180.615 96.3888 180.615 97.8421C180.615 99.3862 179.451 100.658 177.929 100.658ZM149.545 100.658C148.023 100.658 146.769 99.3862 146.769 97.8421C146.769 96.3888 148.023 95.1171 149.545 95.1171C151.067 95.1171 152.231 96.3888 152.231 97.8421C152.231 99.3862 151.067 100.658 149.545 100.658ZM121.16 100.658C119.638 100.658 118.385 99.3862 118.385 97.8421C118.385 96.3888 119.638 95.1171 121.16 95.1171C122.593 95.1171 123.847 96.3888 123.847 97.8421C123.847 99.3862 122.593 100.658 121.16 100.658ZM92.6862 100.658C91.2536 100.658 90 99.3862 90 97.8421C90 96.3888 91.2536 95.1171 92.6862 95.1171C94.2084 95.1171 95.462 96.3888 95.462 97.8421C95.462 99.3862 94.2084 100.658 92.6862 100.658ZM206.314 75.3158C204.792 75.3158 203.628 74.0441 203.628 72.5C203.628 70.9559 204.792 69.775 206.314 69.775C207.836 69.775 209 70.9559 209 72.5C209 74.0441 207.836 75.3158 206.314 75.3158ZM177.929 75.3158C176.407 75.3158 175.153 74.0441 175.153 72.5C175.153 70.9559 176.407 69.775 177.929 69.775C179.451 69.775 180.615 70.9559 180.615 72.5C180.615 74.0441 179.451 75.3158 177.929 75.3158ZM149.545 75.3158C148.023 75.3158 146.769 74.0441 146.769 72.5C146.769 70.9559 148.023 69.775 149.545 69.775C151.067 69.775 152.231 70.9559 152.231 72.5C152.231 74.0441 151.067 75.3158 149.545 75.3158ZM121.16 75.3158C119.638 75.3158 118.385 74.0441 118.385 72.5C118.385 70.9559 119.638 69.775 121.16 69.775C122.593 69.775 123.847 70.9559 123.847 72.5C123.847 74.0441 122.593 75.3158 121.16 75.3158ZM92.6862 75.3158C91.2536 75.3158 90 74.0441 90 72.5C90 70.9559 91.2536 69.775 92.6862 69.775C94.2084 69.775 95.462 70.9559 95.462 72.5C95.462 74.0441 94.2084 75.3158 92.6862 75.3158ZM206.314 49.8829C204.792 49.8829 203.628 48.702 203.628 47.1579C203.628 45.6137 204.792 44.4329 206.314 44.4329C207.836 44.4329 209 45.6137 209 47.1579C209 48.702 207.836 49.8829 206.314 49.8829ZM177.929 49.8829C176.407 49.8829 175.153 48.702 175.153 47.1579C175.153 45.6137 176.407 44.4329 177.929 44.4329C179.451 44.4329 180.615 45.6137 180.615 47.1579C180.615 48.702 179.451 49.8829 177.929 49.8829ZM149.545 49.8829C148.023 49.8829 146.769 48.702 146.769 47.1579C146.769 45.6137 148.023 44.4329 149.545 44.4329C151.067 44.4329 152.231 45.6137 152.231 47.1579C152.231 48.702 151.067 49.8829 149.545 49.8829ZM121.16 49.8829C119.638 49.8829 118.385 48.702 118.385 47.1579C118.385 45.6137 119.638 44.4329 121.16 44.4329C122.593 44.4329 123.847 45.6137 123.847 47.1579C123.847 48.702 122.593 49.8829 121.16 49.8829ZM177.929 24.5407C176.407 24.5407 175.153 23.3599 175.153 21.8158C175.153 20.2716 176.407 19 177.929 19C179.451 19 180.615 20.2716 180.615 21.8158C180.615 23.3599 179.451 24.5407 177.929 24.5407ZM149.545 24.5407C148.023 24.5407 146.769 23.3599 146.769 21.8158C146.769 20.2716 148.023 19 149.545 19C151.067 19 152.231 20.2716 152.231 21.8158C152.231 23.3599 151.067 24.5407 149.545 24.5407ZM121.16 24.5407C119.638 24.5407 118.385 23.3599 118.385 21.8158C118.385 20.2716 119.638 19 121.16 19C122.593 19 123.847 20.2716 123.847 21.8158C123.847 23.3599 122.593 24.5407 121.16 24.5407ZM92.6862 24.5407C91.2536 24.5407 90 23.3599 90 21.8158C90 20.2716 91.2536 19 92.6862 19C94.2084 19 95.462 20.2716 95.462 21.8158C95.462 23.3599 94.2084 24.5407 92.6862 24.5407ZM92.6862 49.8829C91.2536 49.8829 90 48.702 90 47.1579C90 45.6137 91.2536 44.4329 92.6862 44.4329C94.2084 44.4329 95.462 45.6137 95.462 47.1579C95.462 48.702 94.2084 49.8829 92.6862 49.8829Z" fill="#8C52FF"/>
</svg>
