<svg width="163" height="203" viewBox="0 0 163 203" fill="none" xmlns="http://www.w3.org/2000/svg">
<path d="M180.069 172.903C161.199 188.947 132.511 194.398 109.964 186.866C87.2212 179.517 70.845 159.026 50.7289 137.405C30.61 115.756 6.73038 93.0326 6.38316 69.5522C5.81046 46.2315 28.71 22.5924 52.819 16.4804C76.9342 10.1787 102.226 21.5967 125.724 27.7019C149.474 33.6447 171.045 34.2088 186.108 46.121C201.207 57.8673 209.638 80.7363 209.198 105.653C208.597 130.343 199.134 156.919 180.069 172.903Z" fill="white"/>
<path fill-rule="evenodd" clip-rule="evenodd" d="M140.217 26.6248C139.206 26.6248 138.433 25.8523 138.433 24.8421C138.433 23.8319 139.206 23 140.217 23C141.227 23 142 23.8319 142 24.8421C142 25.8523 141.227 26.6248 140.217 26.6248ZM140.217 93C139.206 93 138.433 92.1681 138.433 91.2173C138.433 90.2071 139.206 89.3752 140.217 89.3752C141.227 89.3752 142 90.2071 142 91.2173C142 92.1681 141.227 93 140.217 93ZM121.373 93C120.363 93 119.53 92.1681 119.53 91.2173C119.53 90.2071 120.363 89.3752 121.373 89.3752C122.384 89.3752 123.157 90.2071 123.157 91.2173C123.157 92.1681 122.384 93 121.373 93ZM102.53 93C101.519 93 100.687 92.1681 100.687 91.2173C100.687 90.2071 101.519 89.3752 102.53 89.3752C103.54 89.3752 104.313 90.2071 104.313 91.2173C104.313 92.1681 103.54 93 102.53 93ZM83.6862 93C82.6757 93 81.8435 92.1681 81.8435 91.2173C81.8435 90.2071 82.6757 89.3752 83.6862 89.3752C84.6373 89.3752 85.4695 90.2071 85.4695 91.2173C85.4695 92.1681 84.6373 93 83.6862 93ZM64.7833 93C63.8322 93 63 92.1681 63 91.2173C63 90.2071 63.8322 89.3752 64.7833 89.3752C65.7938 89.3752 66.626 90.2071 66.626 91.2173C66.626 92.1681 65.7938 93 64.7833 93ZM140.217 76.4211C139.206 76.4211 138.433 75.5891 138.433 74.5789C138.433 73.6282 139.206 72.7963 140.217 72.7963C141.227 72.7963 142 73.6282 142 74.5789C142 75.5891 141.227 76.4211 140.217 76.4211ZM121.373 76.4211C120.363 76.4211 119.53 75.5891 119.53 74.5789C119.53 73.6282 120.363 72.7963 121.373 72.7963C122.384 72.7963 123.157 73.6282 123.157 74.5789C123.157 75.5891 122.384 76.4211 121.373 76.4211ZM102.53 76.4211C101.519 76.4211 100.687 75.5891 100.687 74.5789C100.687 73.6282 101.519 72.7963 102.53 72.7963C103.54 72.7963 104.313 73.6282 104.313 74.5789C104.313 75.5891 103.54 76.4211 102.53 76.4211ZM83.6862 76.4211C82.6757 76.4211 81.8435 75.5891 81.8435 74.5789C81.8435 73.6282 82.6757 72.7963 83.6862 72.7963C84.6373 72.7963 85.4695 73.6282 85.4695 74.5789C85.4695 75.5891 84.6373 76.4211 83.6862 76.4211ZM64.7833 76.4211C63.8322 76.4211 63 75.5891 63 74.5789C63 73.6282 63.8322 72.7963 64.7833 72.7963C65.7938 72.7963 66.626 73.6282 66.626 74.5789C66.626 75.5891 65.7938 76.4211 64.7833 76.4211ZM140.217 59.8421C139.206 59.8421 138.433 59.0102 138.433 58C138.433 56.9898 139.206 56.2173 140.217 56.2173C141.227 56.2173 142 56.9898 142 58C142 59.0102 141.227 59.8421 140.217 59.8421ZM121.373 59.8421C120.363 59.8421 119.53 59.0102 119.53 58C119.53 56.9898 120.363 56.2173 121.373 56.2173C122.384 56.2173 123.157 56.9898 123.157 58C123.157 59.0102 122.384 59.8421 121.373 59.8421ZM102.53 59.8421C101.519 59.8421 100.687 59.0102 100.687 58C100.687 56.9898 101.519 56.2173 102.53 56.2173C103.54 56.2173 104.313 56.9898 104.313 58C104.313 59.0102 103.54 59.8421 102.53 59.8421ZM83.6862 59.8421C82.6757 59.8421 81.8435 59.0102 81.8435 58C81.8435 56.9898 82.6757 56.2173 83.6862 56.2173C84.6373 56.2173 85.4695 56.9898 85.4695 58C85.4695 59.0102 84.6373 59.8421 83.6862 59.8421ZM64.7833 59.8421C63.8322 59.8421 63 59.0102 63 58C63 56.9898 63.8322 56.2173 64.7833 56.2173C65.7938 56.2173 66.626 56.9898 66.626 58C66.626 59.0102 65.7938 59.8421 64.7833 59.8421ZM140.217 43.2037C139.206 43.2037 138.433 42.4312 138.433 41.4211C138.433 40.4109 139.206 39.6384 140.217 39.6384C141.227 39.6384 142 40.4109 142 41.4211C142 42.4312 141.227 43.2037 140.217 43.2037ZM121.373 43.2037C120.363 43.2037 119.53 42.4312 119.53 41.4211C119.53 40.4109 120.363 39.6384 121.373 39.6384C122.384 39.6384 123.157 40.4109 123.157 41.4211C123.157 42.4312 122.384 43.2037 121.373 43.2037ZM102.53 43.2037C101.519 43.2037 100.687 42.4312 100.687 41.4211C100.687 40.4109 101.519 39.6384 102.53 39.6384C103.54 39.6384 104.313 40.4109 104.313 41.4211C104.313 42.4312 103.54 43.2037 102.53 43.2037ZM83.6862 43.2037C82.6757 43.2037 81.8435 42.4312 81.8435 41.4211C81.8435 40.4109 82.6757 39.6384 83.6862 39.6384C84.6373 39.6384 85.4695 40.4109 85.4695 41.4211C85.4695 42.4312 84.6373 43.2037 83.6862 43.2037ZM121.373 26.6248C120.363 26.6248 119.53 25.8523 119.53 24.8421C119.53 23.8319 120.363 23 121.373 23C122.384 23 123.157 23.8319 123.157 24.8421C123.157 25.8523 122.384 26.6248 121.373 26.6248ZM102.53 26.6248C101.519 26.6248 100.687 25.8523 100.687 24.8421C100.687 23.8319 101.519 23 102.53 23C103.54 23 104.313 23.8319 104.313 24.8421C104.313 25.8523 103.54 26.6248 102.53 26.6248ZM83.6862 26.6248C82.6757 26.6248 81.8435 25.8523 81.8435 24.8421C81.8435 23.8319 82.6757 23 83.6862 23C84.6373 23 85.4695 23.8319 85.4695 24.8421C85.4695 25.8523 84.6373 26.6248 83.6862 26.6248ZM64.7833 26.6248C63.8322 26.6248 63 25.8523 63 24.8421C63 23.8319 63.8322 23 64.7833 23C65.7938 23 66.626 23.8319 66.626 24.8421C66.626 25.8523 65.7938 26.6248 64.7833 26.6248ZM64.7833 43.2037C63.8322 43.2037 63 42.4312 63 41.4211C63 40.4109 63.8322 39.6384 64.7833 39.6384C65.7938 39.6384 66.626 40.4109 66.626 41.4211C66.626 42.4312 65.7938 43.2037 64.7833 43.2037Z" fill="#8C52FF"/>
</svg>
