<svg width="150" height="230" viewBox="0 0 150 230" fill="none" xmlns="http://www.w3.org/2000/svg">
<path d="M130.536 68.7202C140.285 91.4892 137.012 120.507 123.152 139.82C109.41 159.374 84.9943 168.962 58.3927 181.788C31.7647 194.609 2.99814 210.705 -19.5357 204.097C-41.9837 197.751 -57.7978 168.887 -56.5105 144.049C-55.4026 119.148 -37.019 98.3616 -24.241 77.7182C-11.5436 56.7858 -4.6287 36.3451 11.2036 25.4762C26.8881 14.5239 51.2272 13.2293 74.9 21.0152C98.31 28.8869 120.901 45.7822 130.536 68.7202V68.7202Z" fill="white"/>
<path fill-rule="evenodd" clip-rule="evenodd" d="M98.1922 75.6766C97.1689 75.6766 96.3863 74.893 96.3863 73.8684C96.3863 72.8438 97.1689 72 98.1922 72C99.2155 72 99.998 72.8438 99.998 73.8684C99.998 74.893 99.2155 75.6766 98.1922 75.6766ZM98.1922 143C97.1689 143 96.3863 142.156 96.3863 141.192C96.3863 140.167 97.1689 139.323 98.1922 139.323C99.2155 139.323 99.998 140.167 99.998 141.192C99.998 142.156 99.2155 143 98.1922 143ZM79.1102 143C78.0868 143 77.2441 142.156 77.2441 141.192C77.2441 140.167 78.0868 139.323 79.1102 139.323C80.1335 139.323 80.916 140.167 80.916 141.192C80.916 142.156 80.1335 143 79.1102 143ZM60.0281 143C59.0048 143 58.1621 142.156 58.1621 141.192C58.1621 140.167 59.0048 139.323 60.0281 139.323C61.0515 139.323 61.834 140.167 61.834 141.192C61.834 142.156 61.0515 143 60.0281 143ZM40.9461 143C39.9228 143 39.0801 142.156 39.0801 141.192C39.0801 140.167 39.9228 139.323 40.9461 139.323C41.9093 139.323 42.752 140.167 42.752 141.192C42.752 142.156 41.9093 143 40.9461 143ZM21.8039 143C20.8408 143 19.998 142.156 19.998 141.192C19.998 140.167 20.8408 139.323 21.8039 139.323C22.8272 139.323 23.67 140.167 23.67 141.192C23.67 142.156 22.8272 143 21.8039 143V143ZM98.1922 126.184C97.1689 126.184 96.3863 125.34 96.3863 124.316C96.3863 123.351 97.1689 122.508 98.1922 122.508C99.2155 122.508 99.998 123.351 99.998 124.316C99.998 125.34 99.2155 126.184 98.1922 126.184ZM79.1102 126.184C78.0868 126.184 77.2441 125.34 77.2441 124.316C77.2441 123.351 78.0868 122.508 79.1102 122.508C80.1335 122.508 80.916 123.351 80.916 124.316C80.916 125.34 80.1335 126.184 79.1102 126.184ZM60.0281 126.184C59.0048 126.184 58.1621 125.34 58.1621 124.316C58.1621 123.351 59.0048 122.508 60.0281 122.508C61.0515 122.508 61.834 123.351 61.834 124.316C61.834 125.34 61.0515 126.184 60.0281 126.184ZM40.9461 126.184C39.9228 126.184 39.0801 125.34 39.0801 124.316C39.0801 123.351 39.9228 122.508 40.9461 122.508C41.9093 122.508 42.752 123.351 42.752 124.316C42.752 125.34 41.9093 126.184 40.9461 126.184ZM21.8039 126.184C20.8408 126.184 19.998 125.34 19.998 124.316C19.998 123.351 20.8408 122.508 21.8039 122.508C22.8272 122.508 23.67 123.351 23.67 124.316C23.67 125.34 22.8272 126.184 21.8039 126.184V126.184ZM98.1922 109.368C97.1689 109.368 96.3863 108.525 96.3863 107.5C96.3863 106.475 97.1689 105.692 98.1922 105.692C99.2155 105.692 99.998 106.475 99.998 107.5C99.998 108.525 99.2155 109.368 98.1922 109.368ZM79.1102 109.368C78.0868 109.368 77.2441 108.525 77.2441 107.5C77.2441 106.475 78.0868 105.692 79.1102 105.692C80.1335 105.692 80.916 106.475 80.916 107.5C80.916 108.525 80.1335 109.368 79.1102 109.368ZM60.0281 109.368C59.0048 109.368 58.1621 108.525 58.1621 107.5C58.1621 106.475 59.0048 105.692 60.0281 105.692C61.0515 105.692 61.834 106.475 61.834 107.5C61.834 108.525 61.0515 109.368 60.0281 109.368ZM40.9461 109.368C39.9228 109.368 39.0801 108.525 39.0801 107.5C39.0801 106.475 39.9228 105.692 40.9461 105.692C41.9093 105.692 42.752 106.475 42.752 107.5C42.752 108.525 41.9093 109.368 40.9461 109.368ZM21.8039 109.368C20.8408 109.368 19.998 108.525 19.998 107.5C19.998 106.475 20.8408 105.692 21.8039 105.692C22.8272 105.692 23.67 106.475 23.67 107.5C23.67 108.525 22.8272 109.368 21.8039 109.368V109.368ZM98.1922 92.4924C97.1689 92.4924 96.3863 91.7088 96.3863 90.6842C96.3863 89.6596 97.1689 88.8761 98.1922 88.8761C99.2155 88.8761 99.998 89.6596 99.998 90.6842C99.998 91.7088 99.2155 92.4924 98.1922 92.4924ZM79.1102 92.4924C78.0868 92.4924 77.2441 91.7088 77.2441 90.6842C77.2441 89.6596 78.0868 88.8761 79.1102 88.8761C80.1335 88.8761 80.916 89.6596 80.916 90.6842C80.916 91.7088 80.1335 92.4924 79.1102 92.4924ZM60.0281 92.4924C59.0048 92.4924 58.1621 91.7088 58.1621 90.6842C58.1621 89.6596 59.0048 88.8761 60.0281 88.8761C61.0515 88.8761 61.834 89.6596 61.834 90.6842C61.834 91.7088 61.0515 92.4924 60.0281 92.4924ZM40.9461 92.4924C39.9228 92.4924 39.0801 91.7088 39.0801 90.6842C39.0801 89.6596 39.9228 88.8761 40.9461 88.8761C41.9093 88.8761 42.752 89.6596 42.752 90.6842C42.752 91.7088 41.9093 92.4924 40.9461 92.4924ZM79.1102 75.6766C78.0868 75.6766 77.2441 74.893 77.2441 73.8684C77.2441 72.8438 78.0868 72 79.1102 72C80.1335 72 80.916 72.8438 80.916 73.8684C80.916 74.893 80.1335 75.6766 79.1102 75.6766ZM60.0281 75.6766C59.0048 75.6766 58.1621 74.893 58.1621 73.8684C58.1621 72.8438 59.0048 72 60.0281 72C61.0515 72 61.834 72.8438 61.834 73.8684C61.834 74.893 61.0515 75.6766 60.0281 75.6766ZM40.9461 75.6766C39.9228 75.6766 39.0801 74.893 39.0801 73.8684C39.0801 72.8438 39.9228 72 40.9461 72C41.9093 72 42.752 72.8438 42.752 73.8684C42.752 74.893 41.9093 75.6766 40.9461 75.6766ZM21.8039 75.6766C20.8408 75.6766 19.998 74.893 19.998 73.8684C19.998 72.8438 20.8408 72 21.8039 72C22.8272 72 23.67 72.8438 23.67 73.8684C23.67 74.893 22.8272 75.6766 21.8039 75.6766V75.6766ZM21.8039 92.4924C20.8408 92.4924 19.998 91.7088 19.998 90.6842C19.998 89.6596 20.8408 88.8761 21.8039 88.8761C22.8272 88.8761 23.67 89.6596 23.67 90.6842C23.67 91.7088 22.8272 92.4924 21.8039 92.4924V92.4924Z" fill="#8C52FF"/>
</svg>
