<svg width="440" height="418" viewBox="0 0 440 418" fill="none" xmlns="http://www.w3.org/2000/svg">
<path d="M293.097 40.2492C250.137 25.3888 197.401 35.119 163.8 62.9245C129.723 90.6081 115.258 136.489 95.1196 186.797C75.007 237.098 49.2135 291.802 64.1701 332.139C78.6689 372.321 133.563 397.54 178.891 391.981C224.386 386.737 260.121 350.408 296.332 324.37C333.053 298.473 369.645 283.197 387.538 252.832C405.626 222.775 404.919 178.099 387.609 135.814C370.209 94.0248 336.373 54.9419 293.097 40.2492Z" fill="white"/>
<path fill-rule="evenodd" clip-rule="evenodd" d="M19.5065 172.013C21.4267 172.013 23.013 170.427 23.013 168.506C23.013 166.586 21.4267 165 19.5065 165C17.5863 165 16 166.586 16 168.506C16 170.427 17.5863 172.013 19.5065 172.013ZM19.5065 300C21.4267 300 23.013 298.414 23.013 296.493C23.013 294.573 21.4267 292.987 19.5065 292.987C17.5863 292.987 16 294.573 16 296.493C16 298.414 17.5863 300 19.5065 300ZM55.8237 300C57.744 300 59.3302 298.414 59.3302 296.493C59.3302 294.573 57.744 292.987 55.8237 292.987C53.9035 292.987 52.3173 294.573 52.3173 296.493C52.3173 298.414 53.9035 300 55.8237 300ZM92.2245 300C94.1447 300 95.6475 298.414 95.6475 296.493C95.6475 294.573 94.1447 292.987 92.2245 292.987C90.3043 292.987 88.718 294.573 88.718 296.493C88.718 298.414 90.3043 300 92.2245 300ZM128.542 300C130.462 300 132.048 298.414 132.048 296.493C132.048 294.573 130.462 292.987 128.542 292.987C126.622 292.987 125.035 294.573 125.035 296.493C125.035 298.414 126.622 300 128.542 300ZM164.859 300C166.779 300 168.365 298.414 168.365 296.493C168.365 294.573 166.779 292.987 164.859 292.987C162.939 292.987 161.436 294.573 161.436 296.493C161.436 298.414 162.939 300 164.859 300ZM19.5065 267.941C21.4267 267.941 23.013 266.438 23.013 264.518C23.013 262.597 21.4267 261.011 19.5065 261.011C17.5863 261.011 16 262.597 16 264.518C16 266.438 17.5863 267.941 19.5065 267.941ZM55.8237 267.941C57.744 267.941 59.3302 266.438 59.3302 264.518C59.3302 262.597 57.744 261.011 55.8237 261.011C53.9035 261.011 52.3173 262.597 52.3173 264.518C52.3173 266.438 53.9035 267.941 55.8237 267.941ZM92.2245 267.941C94.1447 267.941 95.6475 266.438 95.6475 264.518C95.6475 262.597 94.1447 261.011 92.2245 261.011C90.3043 261.011 88.718 262.597 88.718 264.518C88.718 266.438 90.3043 267.941 92.2245 267.941ZM128.542 267.941C130.462 267.941 132.048 266.438 132.048 264.518C132.048 262.597 130.462 261.011 128.542 261.011C126.622 261.011 125.035 262.597 125.035 264.518C125.035 266.438 126.622 267.941 128.542 267.941ZM164.859 267.941C166.779 267.941 168.365 266.438 168.365 264.518C168.365 262.597 166.779 261.011 164.859 261.011C162.939 261.011 161.436 262.597 161.436 264.518C161.436 266.438 162.939 267.941 164.859 267.941ZM19.5065 235.965C21.4267 235.965 23.013 234.378 23.013 232.458C23.013 230.538 21.4267 229.035 19.5065 229.035C17.5863 229.035 16 230.538 16 232.458C16 234.378 17.5863 235.965 19.5065 235.965ZM55.8237 235.965C57.744 235.965 59.3302 234.378 59.3302 232.458C59.3302 230.538 57.744 229.035 55.8237 229.035C53.9035 229.035 52.3173 230.538 52.3173 232.458C52.3173 234.378 53.9035 235.965 55.8237 235.965ZM92.2245 235.965C94.1447 235.965 95.6475 234.378 95.6475 232.458C95.6475 230.538 94.1447 229.035 92.2245 229.035C90.3043 229.035 88.718 230.538 88.718 232.458C88.718 234.378 90.3043 235.965 92.2245 235.965ZM128.542 235.965C130.462 235.965 132.048 234.378 132.048 232.458C132.048 230.538 130.462 229.035 128.542 229.035C126.622 229.035 125.035 230.538 125.035 232.458C125.035 234.378 126.622 235.965 128.542 235.965ZM164.859 235.965C166.779 235.965 168.365 234.378 168.365 232.458C168.365 230.538 166.779 229.035 164.859 229.035C162.939 229.035 161.436 230.538 161.436 232.458C161.436 234.378 162.939 235.965 164.859 235.965ZM19.5065 203.989C21.4267 203.989 23.013 202.403 23.013 200.482C23.013 198.562 21.4267 196.976 19.5065 196.976C17.5863 196.976 16 198.562 16 200.482C16 202.403 17.5863 203.989 19.5065 203.989ZM55.8237 203.989C57.744 203.989 59.3302 202.403 59.3302 200.482C59.3302 198.562 57.744 196.976 55.8237 196.976C53.9035 196.976 52.3173 198.562 52.3173 200.482C52.3173 202.403 53.9035 203.989 55.8237 203.989ZM92.2245 203.989C94.1447 203.989 95.6475 202.403 95.6475 200.482C95.6475 198.562 94.1447 196.976 92.2245 196.976C90.3043 196.976 88.718 198.562 88.718 200.482C88.718 202.403 90.3043 203.989 92.2245 203.989ZM128.542 203.989C130.462 203.989 132.048 202.403 132.048 200.482C132.048 198.562 130.462 196.976 128.542 196.976C126.622 196.976 125.035 198.562 125.035 200.482C125.035 202.403 126.622 203.989 128.542 203.989ZM55.8237 172.013C57.744 172.013 59.3302 170.427 59.3302 168.506C59.3302 166.586 57.744 165 55.8237 165C53.9035 165 52.3173 166.586 52.3173 168.506C52.3173 170.427 53.9035 172.013 55.8237 172.013ZM92.2245 172.013C94.1447 172.013 95.6475 170.427 95.6475 168.506C95.6475 166.586 94.1447 165 92.2245 165C90.3043 165 88.718 166.586 88.718 168.506C88.718 170.427 90.3043 172.013 92.2245 172.013ZM128.542 172.013C130.462 172.013 132.048 170.427 132.048 168.506C132.048 166.586 130.462 165 128.542 165C126.622 165 125.035 166.586 125.035 168.506C125.035 170.427 126.622 172.013 128.542 172.013ZM164.859 172.013C166.779 172.013 168.365 170.427 168.365 168.506C168.365 166.586 166.779 165 164.859 165C162.939 165 161.436 166.586 161.436 168.506C161.436 170.427 162.939 172.013 164.859 172.013ZM164.859 203.989C166.779 203.989 168.365 202.403 168.365 200.482C168.365 198.562 166.779 196.976 164.859 196.976C162.939 196.976 161.436 198.562 161.436 200.482C161.436 202.403 162.939 203.989 164.859 203.989Z" fill="#8C52FF"/>
</svg>
