<svg width="259" height="346" viewBox="0 0 259 346" fill="none" xmlns="http://www.w3.org/2000/svg">
<path d="M229.854 103.272C244.506 137.489 239.588 181.096 218.759 210.119C198.107 239.506 161.415 253.914 121.439 273.189C81.4226 292.457 38.1926 316.645 4.32902 306.714C-29.4056 297.177 -53.1708 253.801 -51.2363 216.475C-49.5713 179.055 -21.9447 147.817 -2.74202 116.794C16.3394 85.3371 26.7311 54.619 50.5237 38.2854C74.0941 21.8265 110.671 19.8808 146.246 31.5814C181.426 43.4109 215.375 68.8009 229.854 103.272Z" fill="white"/>
<path fill-rule="evenodd" clip-rule="evenodd" d="M126.876 167.851C125.354 167.851 124.19 166.67 124.19 165.126C124.19 163.582 125.354 162.311 126.876 162.311C128.398 162.311 129.562 163.582 129.562 165.126C129.562 166.67 128.398 167.851 126.876 167.851ZM126.876 269.311C125.354 269.311 124.19 268.039 124.19 266.586C124.19 265.041 125.354 263.77 126.876 263.77C128.398 263.77 129.562 265.041 129.562 266.586C129.562 268.039 128.398 269.311 126.876 269.311ZM98.4918 269.311C96.9696 269.311 95.716 268.039 95.716 266.586C95.716 265.041 96.9696 263.77 98.4918 263.77C100.014 263.77 101.178 265.041 101.178 266.586C101.178 268.039 100.014 269.311 98.4918 269.311ZM70.1073 269.311C68.5851 269.311 67.3315 268.039 67.3315 266.586C67.3315 265.041 68.5851 263.77 70.1073 263.77C71.6295 263.77 72.7935 265.041 72.7935 266.586C72.7935 268.039 71.6295 269.311 70.1073 269.311ZM41.7228 269.311C40.2006 269.311 38.947 268.039 38.947 266.586C38.947 265.041 40.2006 263.77 41.7228 263.77C43.1554 263.77 44.409 265.041 44.409 266.586C44.409 268.039 43.1554 269.311 41.7228 269.311ZM13.2487 269.311C11.8161 269.311 10.5625 268.039 10.5625 266.586C10.5625 265.041 11.8161 263.77 13.2487 263.77C14.7709 263.77 16.0245 265.041 16.0245 266.586C16.0245 268.039 14.7709 269.311 13.2487 269.311ZM126.876 243.968C125.354 243.968 124.19 242.697 124.19 241.153C124.19 239.699 125.354 238.428 126.876 238.428C128.398 238.428 129.562 239.699 129.562 241.153C129.562 242.697 128.398 243.968 126.876 243.968ZM98.4918 243.968C96.9696 243.968 95.716 242.697 95.716 241.153C95.716 239.699 96.9696 238.428 98.4918 238.428C100.014 238.428 101.178 239.699 101.178 241.153C101.178 242.697 100.014 243.968 98.4918 243.968ZM70.1073 243.968C68.5851 243.968 67.3315 242.697 67.3315 241.153C67.3315 239.699 68.5851 238.428 70.1073 238.428C71.6295 238.428 72.7935 239.699 72.7935 241.153C72.7935 242.697 71.6295 243.968 70.1073 243.968ZM41.7228 243.968C40.2006 243.968 38.947 242.697 38.947 241.153C38.947 239.699 40.2006 238.428 41.7228 238.428C43.1554 238.428 44.409 239.699 44.409 241.153C44.409 242.697 43.1554 243.968 41.7228 243.968ZM13.2487 243.968C11.8161 243.968 10.5625 242.697 10.5625 241.153C10.5625 239.699 11.8161 238.428 13.2487 238.428C14.7709 238.428 16.0245 239.699 16.0245 241.153C16.0245 242.697 14.7709 243.968 13.2487 243.968ZM126.876 218.626C125.354 218.626 124.19 217.355 124.19 215.811C124.19 214.266 125.354 213.086 126.876 213.086C128.398 213.086 129.562 214.266 129.562 215.811C129.562 217.355 128.398 218.626 126.876 218.626ZM98.4918 218.626C96.9696 218.626 95.716 217.355 95.716 215.811C95.716 214.266 96.9696 213.086 98.4918 213.086C100.014 213.086 101.178 214.266 101.178 215.811C101.178 217.355 100.014 218.626 98.4918 218.626ZM70.1073 218.626C68.5851 218.626 67.3315 217.355 67.3315 215.811C67.3315 214.266 68.5851 213.086 70.1073 213.086C71.6295 213.086 72.7935 214.266 72.7935 215.811C72.7935 217.355 71.6295 218.626 70.1073 218.626ZM41.7228 218.626C40.2006 218.626 38.947 217.355 38.947 215.811C38.947 214.266 40.2006 213.086 41.7228 213.086C43.1554 213.086 44.409 214.266 44.409 215.811C44.409 217.355 43.1554 218.626 41.7228 218.626ZM13.2487 218.626C11.8161 218.626 10.5625 217.355 10.5625 215.811C10.5625 214.266 11.8161 213.086 13.2487 213.086C14.7709 213.086 16.0245 214.266 16.0245 215.811C16.0245 217.355 14.7709 218.626 13.2487 218.626ZM126.876 193.193C125.354 193.193 124.19 192.013 124.19 190.468C124.19 188.924 125.354 187.743 126.876 187.743C128.398 187.743 129.562 188.924 129.562 190.468C129.562 192.013 128.398 193.193 126.876 193.193ZM98.4918 193.193C96.9696 193.193 95.716 192.013 95.716 190.468C95.716 188.924 96.9696 187.743 98.4918 187.743C100.014 187.743 101.178 188.924 101.178 190.468C101.178 192.013 100.014 193.193 98.4918 193.193ZM70.1073 193.193C68.5851 193.193 67.3315 192.013 67.3315 190.468C67.3315 188.924 68.5851 187.743 70.1073 187.743C71.6295 187.743 72.7935 188.924 72.7935 190.468C72.7935 192.013 71.6295 193.193 70.1073 193.193ZM41.7228 193.193C40.2006 193.193 38.947 192.013 38.947 190.468C38.947 188.924 40.2006 187.743 41.7228 187.743C43.1554 187.743 44.409 188.924 44.409 190.468C44.409 192.013 43.1554 193.193 41.7228 193.193ZM98.4918 167.851C96.9696 167.851 95.716 166.67 95.716 165.126C95.716 163.582 96.9696 162.311 98.4918 162.311C100.014 162.311 101.178 163.582 101.178 165.126C101.178 166.67 100.014 167.851 98.4918 167.851ZM70.1073 167.851C68.5851 167.851 67.3315 166.67 67.3315 165.126C67.3315 163.582 68.5851 162.311 70.1073 162.311C71.6295 162.311 72.7935 163.582 72.7935 165.126C72.7935 166.67 71.6295 167.851 70.1073 167.851ZM41.7228 167.851C40.2006 167.851 38.947 166.67 38.947 165.126C38.947 163.582 40.2006 162.311 41.7228 162.311C43.1554 162.311 44.409 163.582 44.409 165.126C44.409 166.67 43.1554 167.851 41.7228 167.851ZM13.2487 167.851C11.8161 167.851 10.5625 166.67 10.5625 165.126C10.5625 163.582 11.8161 162.311 13.2487 162.311C14.7709 162.311 16.0245 163.582 16.0245 165.126C16.0245 166.67 14.7709 167.851 13.2487 167.851ZM13.2487 193.193C11.8161 193.193 10.5625 192.013 10.5625 190.468C10.5625 188.924 11.8161 187.743 13.2487 187.743C14.7709 187.743 16.0245 188.924 16.0245 190.468C16.0245 192.013 14.7709 193.193 13.2487 193.193Z" fill="#8C52FF"/>
</svg>
