<svg width="85" height="85" viewBox="0 0 85 85" fill="none" xmlns="http://www.w3.org/2000/svg">
<path fill-rule="evenodd" clip-rule="evenodd" d="M42.5 0C65.97 0 85 19.03 85 42.5C85 65.97 65.97 85 42.5 85C19.03 85 0 65.97 0 42.5C0 19.03 19.03 0 42.5 0Z" fill="#8C52FF" fill-opacity="0.2"/>
<path fill-rule="evenodd" clip-rule="evenodd" d="M42.5003 7.53003C61.8103 7.53003 77.4703 23.19 77.4703 42.5C77.4703 61.81 61.8103 77.47 42.5003 77.47C23.1903 77.47 7.53027 61.81 7.53027 42.5C7.53027 23.19 23.1903 7.53003 42.5003 7.53003Z" fill="#8C52FF" fill-opacity="0.2"/>
<path d="M42.4997 71.5699C58.5546 71.5699 71.5697 58.5548 71.5697 42.4999C71.5697 26.445 58.5546 13.4299 42.4997 13.4299C26.4448 13.4299 13.4297 26.445 13.4297 42.4999C13.4297 58.5548 26.4448 71.5699 42.4997 71.5699Z" fill="#8C52FF"/>
<path d="M24.6664 21.6664H22V24.3327H24.6664V21.6664Z" fill="white"/>
<path d="M29.9984 21.6666H27.332V24.333H29.9984V21.6666Z" fill="white"/>
<path d="M27.3324 19H24.666V21.6664H27.3324V19Z" fill="white"/>
<path d="M27.3324 24.3334H24.666V26.9997H27.3324V24.3334Z" fill="white"/>
<path d="M61.1633 55.8103C60.8303 54.8738 59.9428 54.249 58.9488 54.2514H57.0541L54.2493 49.3435V40.9361C54.2493 39.2058 52.8466 37.8031 51.1163 37.8031V27.6208C51.2752 23.0213 47.6755 19.1639 43.076 19.005C42.8842 18.9983 42.6923 18.9983 42.5005 19.005C37.1149 19.005 34.0414 23.4288 33.8847 27.591C33.8847 27.6012 33.8902 27.6106 33.8902 27.6208H33.8847V37.8031C32.1544 37.8031 30.7517 39.2058 30.7517 40.9361V49.3435L27.9469 54.2514H26.0523C24.7576 54.2488 23.7059 55.2961 23.7031 56.5908C23.7011 57.5844 24.3257 58.4715 25.262 58.8044C24.1307 60.0832 24.2502 62.037 25.5291 63.1683C25.9912 63.5772 26.5652 63.8384 27.1771 63.9183L42.3949 65.9931C42.4654 66.0023 42.5367 66.0023 42.6071 65.9931L57.825 63.9183C59.518 63.6971 60.7112 62.1454 60.49 60.4524C60.4101 59.8406 60.1489 59.2666 59.74 58.8044C60.9598 58.3707 61.5971 57.0302 61.1633 55.8103ZM42.5006 20.5716C46.2211 20.3989 49.3772 23.2749 49.5499 26.9955C49.5596 27.2038 49.5596 27.4125 49.5499 27.6209H47.9834C45.8216 27.6183 44.0697 25.8664 44.0671 23.7046C44.067 23.2721 43.7163 22.9215 43.2837 22.9216C43.076 22.9216 42.877 23.0041 42.7301 23.1509C40.7883 25.1001 38.2635 26.3624 35.5391 26.746C35.9698 23.2264 38.9547 20.5789 42.5006 20.5716ZM40.9341 38.5864V35.2365C41.4447 35.3765 41.9712 35.4494 42.5006 35.4534C43.0303 35.4489 43.557 35.3743 44.0671 35.2318V38.5864C44.0671 39.019 44.4178 39.3697 44.8504 39.3697H46.4169V40.3715L42.5006 41.6771L38.5844 40.3715V39.3697H40.1509C40.5834 39.3697 40.9341 39.019 40.9341 38.5864ZM36.385 28.184C38.7106 27.7538 40.8915 26.7487 42.7293 25.2602C43.421 27.586 45.5569 29.1825 47.9834 29.1874H48.3249C47.3458 31.8152 44.8629 33.8869 42.5006 33.8869C39.7804 33.8869 37.0327 31.2505 36.385 28.184ZM45.6336 37.8032V34.6036C47.3629 33.6304 48.7352 32.1293 49.5499 30.32V37.8032H47.2001H45.6336ZM35.4513 30.3223C36.2611 32.1355 37.6347 33.6386 39.3676 34.6083V37.8032H35.4513V30.3223ZM37.0178 39.3697V40.9362C37.0181 41.2732 37.2338 41.5722 37.5536 41.6787V41.6795L42.2531 43.246C42.414 43.3 42.5881 43.3 42.7489 43.246L47.4484 41.6795C47.7681 41.5727 47.9836 41.2733 47.9834 40.9362V39.3697H50.1131L46.5884 53.4682H38.4128L34.8882 39.3697H37.0178ZM38.1614 55.0347H46.8398L49.987 58.7059L42.5006 59.7272L35.0143 58.709L38.1614 55.0347ZM33.1705 58.4544L31.7254 58.2578L36.6325 52.8048L36.9458 54.0494L33.1705 58.4544ZM48.0617 54.0494L48.375 52.8048L53.2821 58.2578L51.8339 58.4544L48.0617 54.0494ZM25.269 56.6013C25.269 56.1687 25.6198 55.818 26.0523 55.818H28.4021C28.6825 55.8186 28.9417 55.6692 29.0819 55.4264L32.2149 49.9436C32.2832 49.8243 32.3188 49.6893 32.3183 49.552V40.9362C32.3183 40.2964 32.7075 39.7208 33.3013 39.4825L34.7378 45.2276L36.1735 50.9728L30.4033 57.3845H26.0523C25.6197 57.3845 25.269 57.0338 25.269 56.6013ZM42.5006 64.4267L27.3885 62.3652C26.5428 62.2535 25.9478 61.4774 26.0595 60.6317C26.1614 59.8609 26.8202 59.2859 27.5977 59.2894C27.6674 59.2894 27.737 59.2944 27.806 59.3043L33.3757 60.064L42.2265 61.271L46.4192 63.8918L42.5006 64.4267ZM57.6127 62.3652L48.845 63.5612L44.7493 61.0016L51.62 60.0617L57.189 59.3019C58.0342 59.1833 58.8154 59.7724 58.934 60.6177C58.944 60.6895 58.949 60.7621 58.9489 60.8347C58.9462 61.6062 58.3768 62.2584 57.6127 62.3652ZM58.9489 57.3845H54.598L48.827 50.972L50.2627 45.2268L51.6991 39.4817C52.2935 39.7199 52.6831 40.2959 52.6829 40.9362V49.552C52.6824 49.6893 52.7181 49.8243 52.7863 49.9436L55.9193 55.4264C56.0595 55.6692 56.3188 55.8186 56.5992 55.818H58.9489C59.3815 55.818 59.7322 56.1687 59.7322 56.6013C59.7322 57.0338 59.3815 57.3845 58.9489 57.3845Z" fill="white"/>
</svg>
