<svg width="85" height="85" viewBox="0 0 85 85" fill="none" xmlns="http://www.w3.org/2000/svg">
<path fill-rule="evenodd" clip-rule="evenodd" d="M42.5 0C65.97 0 85 19.03 85 42.5C85 65.97 65.97 85 42.5 85C19.03 85 0 65.97 0 42.5C0 19.03 19.03 0 42.5 0Z" fill="#8C52FF" fill-opacity="0.2"/>
<path fill-rule="evenodd" clip-rule="evenodd" d="M42.5003 7.53003C61.8103 7.53003 77.4703 23.19 77.4703 42.5C77.4703 61.81 61.8103 77.47 42.5003 77.47C23.1903 77.47 7.53027 61.81 7.53027 42.5C7.53027 23.19 23.1903 7.53003 42.5003 7.53003Z" fill="#8C52FF" fill-opacity="0.2"/>
<path d="M42.4997 71.5699C58.5546 71.5699 71.5697 58.5548 71.5697 42.4999C71.5697 26.445 58.5546 13.4299 42.4997 13.4299C26.4448 13.4299 13.4297 26.445 13.4297 42.4999C13.4297 58.5548 26.4448 71.5699 42.4997 71.5699Z" fill="#8C52FF"/>
<path d="M43.9469 38.4433C43.5947 38.2749 43.1724 38.4239 43.004 38.7764C42.8136 39.1748 42.2245 39.1754 42.0338 38.7764C41.8653 38.424 41.4428 38.2749 41.0908 38.4433C40.7384 38.6118 40.5894 39.034 40.7578 39.3863C41.4585 40.8524 43.5771 40.8566 44.28 39.3863C44.4484 39.034 44.2993 38.6117 43.9469 38.4433Z" fill="white"/>
<path d="M48.9258 37.2473C48.6313 36.9906 48.1847 37.0214 47.928 37.3157C47.7107 37.5649 47.3256 37.5649 47.1086 37.3158C46.8518 37.0213 46.4052 36.9905 46.1108 37.2472C45.8163 37.5037 45.7856 37.9504 46.0421 38.245C46.8215 39.1395 48.2126 39.1418 48.9943 38.2451C49.2509 37.9506 49.2202 37.5039 48.9258 37.2473Z" fill="white"/>
<path d="M61.97 29.9555C62.1261 29.1993 61.6691 28.4275 60.9185 28.2078C60.3035 28.0278 59.6653 28.0502 59.0779 28.2663C59.0238 27.5382 58.7072 26.8669 58.1731 26.3566C57.637 25.8445 56.8038 25.8096 56.2271 26.2442C54.3887 23.9916 51.7454 22.5054 48.838 22.0913C48.3668 20.6665 47.1677 19.5961 45.6631 19.3027C44.633 19.1018 43.5751 19 42.5183 19C37.8201 19.0169 33.7052 20.9296 30.7036 24.0908C30.4345 24.3741 30.4462 24.8217 30.7294 25.0906C31.0128 25.3596 31.4604 25.3478 31.7292 25.0646C34.4676 22.1807 38.2203 20.4312 42.5183 20.4144C43.4843 20.4144 44.4512 20.5074 45.3923 20.6909C46.5041 20.9078 47.3645 21.7639 47.5844 22.872C47.5937 22.9194 47.6078 22.9655 47.6263 23.0092C47.6263 23.0092 47.6498 23.0679 47.691 23.1288C47.8047 23.2978 47.9909 23.4165 48.2074 23.4383C48.2076 23.4383 48.2078 23.4384 48.2079 23.4384C50.5054 23.6679 52.6384 24.6567 54.2727 26.2128C53.7766 26.558 53.2659 27.3325 53.1911 28.2434C52.6215 28.0488 52.0075 28.0344 51.4151 28.2079C50.6645 28.4276 50.2074 29.1995 50.3636 29.9556C50.1049 30.0414 49.8838 30.1952 49.7126 30.3906C49.1014 30.0433 48.5359 29.627 48.0236 29.1444C48.4278 28.061 48.7203 26.9256 48.8872 25.7528C48.9423 25.3661 48.6735 25.0081 48.2868 24.953C47.9011 24.8984 47.5421 25.1668 47.4871 25.5534C46.4521 32.8227 40.2053 38.3742 32.691 38.3742H29.6233C29.2326 38.3742 28.9161 38.6908 28.9161 39.0813C28.9161 39.4719 29.2326 39.7885 29.6233 39.7885H29.8564C30.5282 41.7074 31.6401 43.4676 33.0952 44.9045C34.6536 46.4433 36.5775 47.5838 38.6638 48.2092C37.6653 49.221 37.0828 50.5999 37.0828 52.0684V53.8873H33.2939C31.1038 53.8873 29.0449 53.0345 27.4964 51.486C26.6539 50.6436 26.6535 49.2799 27.4964 48.4373C28.8916 47.042 28.8918 44.7838 27.4964 43.3884L26.7863 42.6783C26.2907 42.1829 26.2906 41.3803 26.7862 40.8845C27.3224 40.3484 27.5721 39.7826 27.5721 39.1039V35.4818C27.6104 32.4752 28.3875 29.7134 30.0528 27.1792C30.2673 26.8528 30.1765 26.4143 29.8501 26.1998C29.5239 25.9854 29.0854 26.0761 28.8708 26.4024C27.1003 29.0969 26.1578 32.2418 26.1578 35.4818V39.1039C26.1578 39.402 26.0571 39.6136 25.7862 39.8844C24.7381 40.9327 24.7377 42.6298 25.7862 43.6784L26.4963 44.3885C27.3388 45.2307 27.3391 46.5945 26.4963 47.4371C25.1011 48.8323 25.1009 51.0906 26.4963 52.486C28.3119 54.3018 30.726 55.3017 33.2938 55.3017H36.8132L36.3301 57.4571C36.0271 58.8092 36.5165 59.9422 37.577 60.3434C38.0393 60.5183 38.5086 60.6671 38.9825 60.7912V65.155C38.9825 66.3248 39.9343 67.2765 41.104 67.2765C41.647 67.2765 42.1427 67.0713 42.5184 66.7345C42.894 67.0713 43.3898 67.2765 43.9327 67.2765C45.1025 67.2765 46.0543 66.3248 46.0543 65.155V60.7912C46.5282 60.6671 46.9974 60.5184 47.4598 60.3435C48.5202 59.9422 49.0097 58.8093 48.7066 57.4571L48.2236 55.3017H51.743C52.5685 55.3017 53.3916 55.1952 54.1896 54.9851C54.5673 54.8857 54.7929 54.4989 54.6935 54.1213C54.5941 53.7436 54.2071 53.5179 53.8296 53.6174C53.149 53.7965 52.447 53.8873 51.743 53.8873H47.954V52.0683C47.954 50.5997 47.3715 49.2207 46.3728 48.2089C51.2098 46.7595 54.8565 42.6537 55.7273 37.6899C55.8726 37.5194 56.0127 37.3244 56.1423 37.11C56.4821 37.6725 56.8824 38.1155 57.4648 38.4161V39.1039C57.4648 39.7826 57.7144 40.3484 58.2505 40.8845C58.7463 41.3803 58.7463 42.1826 58.2505 42.6784L57.5405 43.3885C56.1453 44.7837 56.1451 47.042 57.5405 48.4373C58.3828 49.2798 58.383 50.6435 57.5405 51.486C57.134 51.8924 56.6835 52.2569 56.2014 52.5692C55.8735 52.7816 55.78 53.2195 55.9923 53.5472C56.205 53.8754 56.643 53.9684 56.9704 53.7563C57.5357 53.39 58.0641 52.9626 58.5406 52.4861C59.9356 51.0912 59.9358 48.8327 58.5406 47.4372C57.6981 46.5948 57.6979 45.2313 58.5406 44.3885L59.2505 43.6785C60.2991 42.6302 60.299 40.933 59.2506 39.8846C58.8302 39.4642 58.8791 39.2346 58.8791 38.7454C59.7304 38.7286 60.3151 38.0789 60.3566 37.3303C61.1281 37.2875 61.7422 36.677 61.7711 35.9056C61.7996 35.1509 61.5344 34.4104 61.0387 33.8455C62.1019 33.4407 62.7321 32.666 62.9577 31.7402C63.1428 30.9803 62.703 30.1986 61.97 29.9555ZM38.2055 55.5571L38.48 54.3321C38.4912 54.2823 38.4966 54.2282 38.4969 54.1815C38.4969 54.1801 38.4971 54.1788 38.4971 54.1775V52.0683C38.4971 51.5865 38.5824 51.118 38.7405 50.68L39.9115 51.328V54.4123L39.5857 55.8661C39.5008 56.245 39.1225 56.4851 38.7441 56.4022C38.3615 56.3182 38.1199 55.9399 38.2055 55.5571ZM39.445 49.4534C39.7183 49.1261 40.0436 48.8395 40.4146 48.6086C41.8076 48.8285 43.2282 48.8286 44.6221 48.6086C44.9932 48.8395 45.3185 49.1261 45.5918 49.4535L44.1039 50.2769C43.1112 50.8262 41.9255 50.8263 40.9328 50.2769L39.445 49.4534ZM41.8112 65.155C41.8112 65.545 41.494 65.8622 41.104 65.8622C40.7141 65.8622 40.3969 65.545 40.3969 65.155V61.0847C40.8662 61.1569 41.3383 61.205 41.8112 61.2289V65.155ZM44.6399 65.155C44.6399 65.545 44.3227 65.8622 43.9327 65.8622C43.5428 65.8622 43.2256 65.545 43.2256 65.155V61.229C43.6985 61.205 44.1705 61.157 44.6399 61.0848V65.155ZM47.3266 57.7664C47.3958 58.0755 47.4988 58.8164 46.9593 59.0206C44.0956 60.1042 40.9413 60.1042 38.0776 59.0206C37.523 58.8108 37.6562 58.0075 37.7103 57.7664L37.7683 57.507C37.9727 57.6351 38.1984 57.7304 38.4411 57.7837C39.5787 58.0333 40.7111 57.3114 40.9657 56.1754L41.3086 54.6452C41.3201 54.5944 41.3258 54.5426 41.3258 54.4906V51.9476C42.0845 52.1489 42.8958 52.1639 43.7111 51.9476V54.4906C43.7111 54.5426 43.7168 54.5945 43.7282 54.6452L44.0712 56.1754C44.3257 57.3116 45.4582 58.0333 46.5959 57.7837C46.8385 57.7304 47.0642 57.6352 47.2685 57.507L47.3266 57.7664ZM46.5398 52.0683V54.1775C46.5398 54.2255 46.5454 54.2811 46.5569 54.3321L46.8315 55.5571C46.917 55.9396 46.6758 56.3181 46.2928 56.4021C45.9131 56.4851 45.5361 56.2448 45.4512 55.866L45.1254 54.4122V51.3279L46.2964 50.6799C46.4544 51.118 46.5398 51.5865 46.5398 52.0683ZM44.5724 47.1814C38.9839 48.1419 33.4684 45.1063 31.3647 39.7884H32.6909C39.0368 39.7884 44.7291 36.1444 47.4385 30.5173C48.0388 31.0285 48.6949 31.4672 49.3998 31.8289C49.6435 32.7126 50.2576 33.4397 51.2582 33.8312C50.7546 34.3976 50.4848 35.1442 50.5133 35.9055C50.5425 36.6769 51.1565 37.2873 51.928 37.3301C51.971 38.1043 52.6101 38.9787 54.0469 38.6879C52.8058 42.9791 49.186 46.3885 44.5724 47.1814ZM61.5836 31.4054C61.4832 31.8177 61.2256 32.1615 60.8585 32.3735C60.6638 32.4859 60.3924 32.587 60.0943 32.6581C59.2299 32.8642 58.9909 33.9837 59.6972 34.5236C60.1753 34.8892 60.3767 35.3544 60.3579 35.8524C60.3567 35.8861 60.3138 35.9182 60.2699 35.9182H59.6519C59.2613 35.9182 58.9448 36.2348 58.9448 36.6254V37.2433C58.9448 37.2873 58.9127 37.3301 58.8789 37.3314C57.9886 37.3647 57.4665 36.7194 57.1084 35.9063C56.739 35.068 55.5448 35.07 55.1765 35.9063C55.0009 36.305 54.7731 36.6606 54.5515 36.8822C54.2456 37.1882 53.8405 37.347 53.406 37.3315C53.3721 37.3302 53.3401 37.2875 53.3401 37.2434V36.6255C53.3401 36.2349 53.0235 35.9183 52.6329 35.9183H52.0149C51.9709 35.9183 51.9281 35.8862 51.9268 35.8524C51.9081 35.3542 52.1083 34.8865 52.597 34.5166C53.3041 33.9808 53.0701 32.863 52.209 32.6507C51.4938 32.4744 50.9294 32.1417 50.75 31.4055C50.7394 31.362 50.7705 31.3082 50.8127 31.2968L51.4097 31.1369C51.7869 31.0358 52.0108 30.648 51.9097 30.2708L51.7498 29.6737C51.7384 29.6316 51.7696 29.5778 51.8126 29.5652C52.2218 29.4455 52.6479 29.4982 53.0186 29.7122C53.3667 29.9149 53.7925 29.9059 54.1298 29.6883C55.0592 29.0889 54.1412 28.2678 55.0711 27.3793C55.1035 27.3484 55.1656 27.3483 55.1966 27.3794L55.6337 27.8163C55.9099 28.0925 56.3575 28.0924 56.6337 27.8163L57.0706 27.3794C57.1015 27.3484 57.1635 27.3483 57.196 27.3794C57.5029 27.6724 57.6718 28.0674 57.6718 28.4914C57.6718 28.7035 57.5192 29.3457 58.1479 29.7414C58.4924 29.9583 58.9206 29.9588 59.2656 29.7422C59.6558 29.4968 60.104 29.4432 60.5212 29.5652C60.5642 29.5778 60.5953 29.6316 60.584 29.6738L60.4241 30.2708C60.323 30.648 60.5468 31.0358 60.9241 31.1369L61.521 31.2968C61.5632 31.3082 61.5942 31.3619 61.5836 31.4054Z" fill="white"/>
<path d="M56.1674 30.032C54.9977 30.032 54.0459 30.9837 54.0459 32.1535C54.0459 33.3234 54.9977 34.275 56.1674 34.275C57.3372 34.275 58.289 33.3234 58.289 32.1535C58.289 30.9837 57.3373 30.032 56.1674 30.032ZM56.1674 32.8607C55.7774 32.8607 55.4602 32.5435 55.4602 32.1535C55.4602 31.7635 55.7774 31.4463 56.1674 31.4463C56.5574 31.4463 56.8746 31.7635 56.8746 32.1535C56.8746 32.5435 56.5574 32.8607 56.1674 32.8607Z" fill="white"/>
</svg>
