<svg width="85" height="85" viewBox="0 0 85 85" fill="none" xmlns="http://www.w3.org/2000/svg">
<path fill-rule="evenodd" clip-rule="evenodd" d="M42.5 0C65.97 0 85 19.03 85 42.5C85 65.97 65.97 85 42.5 85C19.03 85 0 65.97 0 42.5C0 19.03 19.03 0 42.5 0Z" fill="#8C52FF" fill-opacity="0.2"/>
<path fill-rule="evenodd" clip-rule="evenodd" d="M42.5003 7.53003C61.8103 7.53003 77.4703 23.19 77.4703 42.5C77.4703 61.81 61.8103 77.47 42.5003 77.47C23.1903 77.47 7.53027 61.81 7.53027 42.5C7.53027 23.19 23.1903 7.53003 42.5003 7.53003Z" fill="#8C52FF" fill-opacity="0.2"/>
<path fill-rule="evenodd" clip-rule="evenodd" d="M42.4997 13.4299C58.5597 13.4299 71.5797 26.4399 71.5797 42.4999C71.5797 58.5599 58.5597 71.5699 42.4997 71.5699C26.4397 71.5699 13.4297 58.5599 13.4297 42.4999C13.4297 26.4399 26.4397 13.4299 42.4997 13.4299Z" fill="#8C52FF"/>
<path d="M33.2204 55.8302C33.3187 56.1445 33.6606 56.32 33.9791 56.2365C34.9588 55.98 36.6004 55.9812 37.5737 56.2402C37.6267 56.2543 37.6799 56.261 37.7324 56.261C38.0266 56.261 38.2937 56.0483 38.3409 55.7346C38.3879 55.4223 38.1775 55.1263 37.8719 55.0463C36.682 54.7346 34.8321 54.7362 33.649 55.0511C33.3119 55.1408 33.1151 55.4938 33.2204 55.8302Z" fill="white"/>
<path d="M29.1091 46.6001C28.9373 46.8514 28.9941 47.1913 29.212 47.4039C29.6625 47.8431 30.2543 48.0845 30.8831 48.0845C31.512 48.0845 32.104 47.843 32.5544 47.4036C32.7723 47.1911 32.8289 46.8511 32.657 46.5998C32.4309 46.2696 31.9765 46.2398 31.7091 46.509C31.4881 46.7315 31.1948 46.854 30.8831 46.854C30.5714 46.854 30.278 46.7315 30.0571 46.509C29.7896 46.2399 29.3349 46.2696 29.1091 46.6001Z" fill="white"/>
<path d="M28.4332 50.9566C28.3003 51.1598 28.3036 51.4307 28.4406 51.631C28.5649 51.8126 28.7586 51.9035 28.9522 51.9035C29.1096 51.9035 29.2671 51.8435 29.3873 51.7233L29.3919 51.7186C29.5652 51.5454 29.6265 51.2826 29.5288 51.058C29.3201 50.5774 28.7009 50.5476 28.4332 50.9566Z" fill="white"/>
<path d="M29.8604 54.2825C29.6869 54.5037 29.6897 54.8258 29.8664 55.0445C29.9905 55.1981 30.1686 55.275 30.3467 55.275C30.5041 55.275 30.6616 55.2149 30.7818 55.0947L30.784 55.0924C30.9583 54.9182 31.0206 54.6535 30.9213 54.4281C30.7189 53.9692 30.1426 53.9225 29.8604 54.2825Z" fill="white"/>
<path d="M33.2755 50.8556C33.0352 51.0959 33.0352 51.4855 33.2755 51.7256C33.3957 51.8457 33.5532 51.9059 33.7106 51.9059C33.868 51.9059 34.0255 51.8458 34.1457 51.7256L34.1493 51.722C34.3217 51.5497 34.3842 51.2883 34.2877 51.0646C34.0989 50.6268 33.5725 50.5589 33.2755 50.8556Z" fill="white"/>
<path d="M33.5622 43.8492C33.7197 43.8492 33.8772 43.7892 33.9973 43.669L34.002 43.6643C34.1753 43.4911 34.2365 43.2283 34.1389 43.0036C33.9302 42.5231 33.3111 42.4932 33.0434 42.9022C32.9105 43.1054 32.9138 43.3763 33.0508 43.5766C33.175 43.7583 33.3686 43.8492 33.5622 43.8492Z" fill="white"/>
<path d="M38.3285 52.5523C38.4209 52.5523 38.5148 52.5314 38.6032 52.4873L38.6067 52.4855C38.8272 52.3752 38.97 52.1438 38.9472 51.8985C38.9007 51.3983 38.3663 51.1726 37.985 51.4261C37.7576 51.5774 37.6566 51.8721 37.744 52.1309C37.8337 52.3962 38.0759 52.5523 38.3285 52.5523Z" fill="white"/>
<path d="M50.5308 27.8291C43.9715 27.6839 38.605 33.0511 38.7492 39.6116C38.8841 45.7496 43.8744 50.7402 50.0125 50.8753C56.573 51.0196 61.9403 45.6526 61.7948 39.093C61.6586 32.955 56.6686 27.965 50.5308 27.8291ZM50.2709 49.6477C45.1022 49.6477 40.8115 45.8182 40.0856 40.8475H44.6558C46.1903 40.8475 46.9686 39.7198 47.6552 38.7249C48.3373 37.7366 48.9264 36.8832 50.1639 36.8832C51.4001 36.8832 51.9892 37.7365 52.6714 38.7244C53.3586 39.7196 54.1374 40.8475 55.672 40.8475H60.4584C59.7323 45.8181 55.4408 49.6477 50.2709 49.6477ZM55.672 39.6171C54.826 39.6171 54.3654 39.0122 53.6839 38.0252C52.9541 36.9683 52.0457 35.6527 50.1639 35.6527C48.2805 35.6527 47.3722 36.9686 46.6426 38.026C45.9616 39.0125 45.5014 39.6171 44.6558 39.6171H39.9802C39.9779 39.5295 39.9768 39.4416 39.9768 39.3534C39.9768 33.6759 44.5947 29.0568 50.2709 29.0568C55.9484 29.0568 60.5672 33.6758 60.5672 39.3534C60.5672 39.4416 60.5661 39.5294 60.5639 39.6171L55.672 39.6171Z" fill="white"/>
<path d="M50.1948 31.6697C49.8825 31.7076 49.6565 31.9889 49.6565 32.3035V33.3892C49.6565 33.7038 49.8825 33.9853 50.1948 34.0231C50.569 34.0684 50.887 33.7776 50.887 33.4125V32.2802C50.887 31.9151 50.5689 31.6243 50.1948 31.6697Z" fill="white"/>
<path d="M47.0477 33.3613C46.7895 33.1031 46.3591 33.1224 46.1265 33.4189C45.9324 33.6664 45.9717 34.0252 46.194 34.2477L46.9775 35.0312C47.0977 35.1513 47.2552 35.2114 47.4126 35.2114C47.6001 35.2114 47.7877 35.1262 47.9122 34.9559C48.083 34.7222 48.0373 34.3508 47.8326 34.1461L47.0477 33.3613Z" fill="white"/>
<path d="M53.4948 33.3613L52.7104 34.1458C52.5057 34.3504 52.4599 34.7218 52.6304 34.9556C52.7548 35.1261 52.9425 35.2114 53.1301 35.2114C53.2875 35.2114 53.445 35.1514 53.5652 35.0312L54.3519 34.2444C54.5578 34.0384 54.6089 33.7129 54.4509 33.4682C54.2294 33.1251 53.7666 33.0895 53.4948 33.3613Z" fill="white"/>
<path d="M50.2721 38.6289C48.9918 38.6289 47.9503 39.878 47.9503 41.4134C47.9503 42.9475 48.9918 44.1957 50.2721 44.1957C51.5536 44.1957 52.5962 42.9475 52.5962 41.4134C52.5962 39.878 51.5536 38.6289 50.2721 38.6289ZM50.2721 42.9653C49.6805 42.9653 49.1807 42.2546 49.1807 41.4134C49.1807 40.571 49.6805 39.8593 50.2721 39.8593C50.8649 39.8593 51.3658 40.571 51.3658 41.4134C51.3658 42.2546 50.8649 42.9653 50.2721 42.9653Z" fill="white"/>
<path d="M50.2716 24.6246C47.243 24.6246 44.4254 25.5441 42.0822 27.1181C41.5701 25.7261 40.5138 24.5914 39.0349 23.869C37.4086 23.0747 35.3747 22.8133 33.3068 23.1328C30.593 23.5523 28.1851 24.8928 26.527 26.9074C24.6087 29.2381 23.8058 32.3512 24.1986 35.9189C23.5709 37.3087 23.1787 38.7953 23.0495 40.3063C22.8517 42.6193 23.2472 44.9113 24.2223 47.1213L24.2221 48.0416C24.2217 48.8818 24.2365 48.9973 24.2387 49.0299C24.2429 50.8566 24.8132 53.0221 25.805 54.9755C26.6863 56.7108 28.302 58.5323 30.2379 59.973C32.1598 61.4031 34.0951 62.2086 35.5924 62.2086C35.653 62.2086 35.7133 62.2073 35.7724 62.2045C37.2912 62.2731 39.3067 61.461 41.3061 59.9729C43.2411 58.5327 44.8571 56.7113 45.7404 54.9744C45.9769 54.5063 46.1887 54.0309 46.3734 53.555C47.6156 53.8964 48.9225 54.0798 50.2716 54.0798C53.3703 54.0798 56.3363 53.1275 58.8509 51.3254C59.0901 51.154 59.1966 50.839 59.0779 50.5696C58.9138 50.1971 58.4638 50.0881 58.1524 50.3121C55.9001 51.9318 53.2507 52.8064 50.4782 52.8477C43.015 52.9591 36.8301 46.9158 36.7763 39.452C36.7224 31.9639 42.7972 25.8549 50.2716 25.8549C57.7144 25.855 63.7695 31.9103 63.7695 39.3533C63.7695 42.8031 62.468 46.086 60.1043 48.5995C59.8905 48.8268 59.864 49.1844 60.0628 49.4249C60.3035 49.7163 60.7358 49.7234 60.9867 49.4573C63.5747 46.7127 65 43.1244 65 39.3533C65 31.2319 58.3929 24.6246 50.2716 24.6246ZM37.1419 32.6899C34.4259 32.4434 32.4204 32.7861 30.8538 33.7661C30.5862 33.9335 30.4739 34.2795 30.6122 34.5634C30.7214 34.7875 30.9414 34.9115 31.167 34.9115C31.279 34.9115 31.3924 34.8809 31.4941 34.8169C32.744 34.0304 34.3799 33.7298 36.6004 33.8808C35.9792 35.4281 35.6131 37.1043 35.5548 38.8572C34.0649 38.8837 32.5708 39.1766 31.1966 39.715C30.9026 39.8302 30.7211 40.1431 30.8002 40.4488C30.8741 40.7346 31.1273 40.9128 31.3968 40.9128C31.4719 40.9128 31.5483 40.8989 31.6224 40.8697C32.8638 40.38 34.2154 40.1121 35.5639 40.0872C35.8608 46.1072 39.7893 51.1881 45.1991 53.1793C45.0354 53.5945 44.8496 54.0095 44.643 54.4181C42.9519 57.7439 38.4106 61.1152 35.8055 60.9744C35.7835 60.9732 35.7616 60.9732 35.7396 60.9744C33.1336 61.1138 28.591 57.7441 26.9022 54.4185C25.9914 52.6248 25.4691 50.6534 25.4691 49.0097C25.4691 48.9969 25.4523 48.5454 25.4526 48.0423L25.4529 47.1108C26.2815 45.0367 27.5791 43.3597 29.3115 42.1244C29.5657 41.9431 29.6629 41.5983 29.5154 41.323C29.3367 40.9895 28.9138 40.8973 28.6154 41.1096C27.0633 42.2121 25.7916 43.6849 24.8811 45.4185C23.8619 42.3514 24.0358 39.1607 25.367 36.3129C25.38 36.2894 25.3918 36.2652 25.4016 36.24C25.6555 35.7061 25.9487 35.1839 26.2841 34.6776C28.9076 30.7172 33.6526 28.4282 38.9794 28.5543C39.3717 28.5629 39.7499 28.6127 40.1121 28.7008C38.9104 29.8476 37.9028 31.1957 37.1419 32.6899ZM39.0072 27.3242C36.031 27.2537 33.2826 27.8454 30.835 29.0829C28.5947 30.2156 26.6971 31.8745 25.3366 33.884C25.4768 28.1662 29.3499 24.9894 33.4948 24.3488C36.6191 23.8658 40.0613 24.8702 40.9748 27.6732C40.3566 27.4566 39.6972 27.3392 39.0072 27.3242Z" fill="white"/>
</svg>
