<?xml version="1.0" encoding="utf-8"?><svg width="31" height="27" fill="none" xmlns="http://www.w3.org/2000/svg" viewBox="0 0 31 27"><path d="M29.94 0H1.06C.475 0 0 .48 0 1.069V4.83c0 .592.908.592.908 0V1.07c0-.084.068-.153.152-.153h28.88c.084 0 .152.069.152.153v22.335a.152.152 0 01-.152.152h-5.819v-.953h4.567c.251 0 .454-.205.454-.458V17.35c0-.592-.908-.592-.908 0v4.338h-4.113v-2.032l.044.004c.377.034.846.075 1.17-.253.325-.328.284-.801.25-1.182-.035-.408.004-.52.315-.78.8-.672.816-1.392 0-2.076-.311-.26-.35-.372-.314-.78.089-1.025-.386-1.527-1.421-1.436-.404.036-.514-.002-.772-.316-.665-.81-1.378-.825-2.056 0-.257.313-.367.352-.771.316-1.017-.09-1.512.392-1.421 1.435.035.409-.003.52-.314.781-.801.672-.816 1.391 0 2.075.311.261.35.373.314.781-.096 1.098.424 1.522 1.464 1.431v2.032H2.766V2.785h25.468v12.121c0 .593.908.593.908 0V2.327a.456.456 0 00-.454-.458H2.312a.456.456 0 00-.454.458v19.818c0 .253.203.458.454.458h18.297v.953H1.06a.152.152 0 01-.15-.152V7.15c0-.592-.909-.592-.909 0v16.253c0 .589.475 1.069 1.06 1.069h19.55v2.073c.064.376.28.515.645.415l1.11-.52 1.11.52c.275.129.646-.075.646-.415v-2.073h5.82c.584 0 1.059-.48 1.059-1.07V1.07C31 .479 30.525 0 29.94 0zm-9.454 18.746c-.454.04-.476.016-.437-.442.061-.703-.099-1.114-.637-1.565-.369-.31-.369-.358 0-.667.538-.451.698-.861.637-1.565-.04-.458-.017-.482.437-.442.698.062 1.104-.101 1.55-.645.306-.372.353-.372.658 0 .447.544.853.707 1.55.645.455-.04.477-.016.437.442-.06.704.1 1.114.638 1.565.368.31.369.358 0 .667-.539.451-.7.862-.638 1.565.04.458.018.483-.437.442-.285-.025-.609-.053-.893.066-.276.115-.47.351-.657.58-.088.107-.25.303-.329.338-.079-.035-.24-.231-.328-.339-.188-.228-.381-.464-.657-.58a1.973 1.973 0 00-.894-.065zm2.07 6.774a.45.45 0 00-.382 0l-.656.308v-5.64c.215.239.481.46.847.46.367 0 .633-.221.848-.46v5.64l-.656-.308z" fill="#8C52FF"/><path d="M5.889 6.619h15.654c.587 0 .587-.916 0-.916H5.89c-.587 0-.587.916 0 .916zM25.565 8.947a.456.456 0 00-.454-.458H5.89c-.587 0-.587.916 0 .916h19.222c.25 0 .454-.205.454-.458zM17.264 11.732a.456.456 0 00-.454-.458H5.89c-.587 0-.587.917 0 .917H16.81c.25 0 .454-.206.454-.459zM11.301 18.117h-.743c-.476.001-.738-.127-.836-.637-.088-.465-.753-.405-.875 0-.054.18-.327.695-.565.653-.126-.023-.18-.219-.228-.32a3.928 3.928 0 01-.213-.618c-.239-.887-.287-1.814-.436-2.719-.087-.524-.88-.376-.892.122-.041 1.586-.298 3.15-.858 4.637-.208.552.67.79.876.244.216-.574.387-1.16.52-1.756.071.217.156.43.26.637.265.529.806.841 1.385.606a1.55 1.55 0 00.555-.409c.43.5 1.07.477 1.665.476.9 0 1.798-.003 2.697-.006.585-.001.586-.917 0-.916-.77.003-1.541.005-2.312.006zM22.365 18.195c.978 0 1.774-.803 1.774-1.79 0-.986-.796-1.788-1.774-1.788s-1.773.802-1.773 1.789c0 .986.795 1.789 1.773 1.789zm0-2.662a.87.87 0 01.866.873.87.87 0 01-.866.873.87.87 0 01-.865-.873.87.87 0 01.865-.873z" fill="#8C52FF"/></svg>