<?xml version="1.0" encoding="utf-8"?><svg width="31" height="27" fill="none" xmlns="http://www.w3.org/2000/svg" viewBox="0 0 31 27"><path d="M29.59 14.921c-.422 0-.704.284-.704.71v9.237c0 .427-.281.71-.704.71H2.818c-.423 0-.704-.283-.704-.71v-9.236c0-.427-.282-.71-.705-.71s-.704.283-.704.71v9.236C.705 26.076 1.62 27 2.818 27h25.364c1.198 0 2.114-.924 2.114-2.132v-9.236c0-.427-.282-.71-.705-.71z" fill="#8C52FF"/><path d="M28.886 4.974H2.114C.916 4.974 0 5.897 0 7.105v4.548a2.13 2.13 0 001.62 2.06L12.682 16.2v2.274c0 .426.282.71.704.71h4.228c.422 0 .704-.284.704-.71V16.2l11.061-2.487A2.13 2.13 0 0031 11.653V7.105c0-1.208-.916-2.131-2.114-2.131zM16.91 17.764h-2.818V14.92h2.818v2.842zm12.682-6.111c0 .355-.212.64-.564.71L18.318 14.78v-.569c0-.426-.282-.71-.704-.71h-4.228c-.422 0-.704.284-.704.71v.569l-10.71-2.416c-.352-.07-.563-.355-.563-.71V7.105c0-.426.282-.71.705-.71h26.772c.423 0 .705.284.705.71v4.548zM19.021 0h-7.045c-1.198 0-2.114.924-2.114 2.132v.71c0 .426.282.71.705.71s.704-.284.704-.71v-.71c0-.427.282-.71.705-.71h7.045c.423 0 .705.283.705.71v.71c0 .426.282.71.704.71.423 0 .705-.284.705-.71v-.71C21.135.924 20.219 0 19.021 0z" fill="#8C52FF"/></svg>