<?xml version="1.0" encoding="utf-8"?><svg width="34" height="24" fill="none" xmlns="http://www.w3.org/2000/svg" viewBox="0 0 34 24"><path d="M33.344 5.388l-7.177-2.442a.502.502 0 00-.319.95l7.108 2.42-3.346 1.642a1.506 1.506 0 00-.464-.211L19.11 5.106c-.319-1.653-2.34-2.347-3.58-1.17-.43.407-.677.98-.677 1.574v.011a1.28 1.28 0 001.282 1.268h1.732c.448 0 .896-.235 1.128-.677l9.36 2.463L17.91 13.7a2.055 2.055 0 01-1.82 0L1.042 6.315l15.292-5.203a2.075 2.075 0 011.33 0l5.97 2.032a.502.502 0 00.319-.95L17.984.161a3.072 3.072 0 00-1.968 0L.656 5.388c-.816.278-.89 1.416-.114 1.797l7.883 3.87c-.434 2.075-1.096 4.31-1.816 6.294a1.991 1.991 0 00.632 2.245c2.275 1.8 4.963 3.191 7.717 4.085a6.65 6.65 0 004.083 0c2.756-.894 5.444-2.286 7.718-4.085a1.99 1.99 0 00.631-2.245c-.704-1.94-1.375-4.19-1.815-6.294l3.708-1.82v7.547a1.235 1.235 0 00-1.135 1.233v1.461c0 .218.094.413.242.549l-.185 2.816a.953.953 0 00.946 1.018h1.26a.953.953 0 00.946-1.018l-.185-2.817a.742.742 0 00.242-.548v-1.461c0-.65-.501-1.184-1.135-1.233V9.224c0-.155-.024-.304-.067-.446l3.246-1.593c.775-.38.703-1.518-.114-1.797zm-15.478.398h-1.732c-.154 0-.285-.123-.286-.267V5.51c0-.323.13-.622.363-.844.717-.68 1.893-.19 1.94.787.01.234-.14.333-.285.333zm8.028 10.273c-2.691 2.121-6.51 3.638-7.825 3.89a.501.501 0 00.186.986c1.376-.265 5.146-1.74 7.976-3.872.07.2.15.427.224.63a.986.986 0 01-.312 1.113c-2.682 2.122-5.508 3.302-7.407 3.918a5.662 5.662 0 01-3.472 0c-1.899-.616-4.725-1.796-7.408-3.918a.986.986 0 01-.311-1.113l.009-.024.215-.606c2.763 2.081 6.522 3.593 7.975 3.872a.501.501 0 00.187-.985c-1.242-.239-5.074-1.724-7.825-3.89a47.38 47.38 0 001.241-4.553l6.306 3.095c.84.413 1.822.429 2.694 0l6.305-3.095a47.373 47.373 0 001.242 4.553zm3.308 6.797l.173-2.637h.812l.173 2.637h-1.158zm1.216-4.841v1.2h-1.274v-1.2c0-.127.107-.235.233-.235h.808c.126 0 .233.108.233.235z" fill="#8C52FF"/></svg>