<?xml version="1.0" encoding="utf-8"?><svg width="31" height="31" fill="none" xmlns="http://www.w3.org/2000/svg" viewBox="0 0 31 31"><path d="M6.333 24.375a1.938 1.938 0 00-1.935 1.936c0 1.067.868 1.935 1.935 1.935a1.938 1.938 0 001.935-1.935 1.938 1.938 0 00-1.935-1.936zm0 2.66a.725.725 0 11.002-1.45.725.725 0 01-.002 1.45zM24.96 24.375a1.938 1.938 0 00-1.936 1.936c0 1.067.869 1.935 1.936 1.935a1.938 1.938 0 001.935-1.935 1.938 1.938 0 00-1.935-1.936zm0 2.66a.725.725 0 11.002-1.45.725.725 0 01-.002 1.45zM16.249 25.134a.611.611 0 00-.791-.327.61.61 0 00-.328.79.61.61 0 00.791.328.611.611 0 00.328-.79z" fill="#8C52FF"/><path d="M31 17.205a.606.606 0 00-.605-.606h-7.33a.606.606 0 000 1.211h6.724v2.853a5.218 5.218 0 00-2.673.605c-1.347.71-2.825.891-4.19.097-1.568-.927-3.576-.936-5.163-.047-1.268.71-2.828.785-4.103.045-1.61-.936-3.668-.934-5.24 0-1.207.702-2.762.705-3.978.024-.99-.557-2.096-.827-3.23-.7v-2.862c.81.067 1.6.356 2.304.846a5.205 5.205 0 005.893 0c.762-.53 1.847-.86 2.832-.86h5.432a.606.606 0 000-1.212h-5.432c-1.238 0-2.555.403-3.524 1.078a3.984 3.984 0 01-4.51 0A5.865 5.865 0 00.848 16.6H.607a.606.606 0 00-.606.606V29.299c0 .388.383.685.76.586a3.974 3.974 0 013.03.41 5.228 5.228 0 005.244-.003c1.205-.716 2.782-.715 4.018.003 1.616.94 3.623.94 5.24 0 1.231-.716 2.808-.717 4.021 0a5.26 5.26 0 005.24 0 4.175 4.175 0 012.732-.476.614.614 0 00.715-.596V21.34v-4.135zm-4.055 12.043a4.006 4.006 0 01-4.02.003c-1.585-.938-3.653-.927-5.242-.003-1.222.71-2.801.71-4.023 0-1.61-.935-3.668-.934-5.24 0-1.22.71-2.8.71-4.022 0a5.169 5.169 0 00-3.187-.676V21.91c.928-.135 1.824.078 2.634.532 1.592.899 3.606.898 5.184-.03 1.207-.703 2.787-.702 4.026 0 1.607.934 3.615.912 5.23.003 1.234-.695 2.798-.728 4.028-.004 1.611.937 3.63.923 5.242 0 .646-.376 1.466-.566 2.234-.531v6.672a5.382 5.382 0 00-2.845.697z" fill="#8C52FF"/><path d="M6.788 17.135c.155 0 .31-.06.428-.178l5.103-5.104 1.215 1.216a.611.611 0 00.857 0l2.222-2.223c.389.308.86.462 1.33.462.55 0 1.1-.21 1.519-.628l9.543-9.545a.606.606 0 00-.03-.884.62.62 0 00-.84.042l-9.53 9.53a.937.937 0 01-1.323 0l-3.79-3.79a.936.936 0 010-1.324l3.618-3.618a.606.606 0 00-.857-.856l-3.617 3.618a2.167 2.167 0 00-.166 2.85l-2.222 2.222a.606.606 0 000 .857l1.215 1.215-5.09 5.09a.618.618 0 00-.043.839c.122.14.29.209.458.209zm6.528-9.566L15.746 10l-1.783 1.784-1.215-1.215h-.001l-1.215-1.216 1.784-1.784z" fill="#8C52FF"/><path d="M17.358 6.248c.218.29.657.324.914.067l5.28-5.281a.606.606 0 00-.856-.857l-.918.92-.716-.717a.62.62 0 00-.841-.042.606.606 0 00-.03.884l.73.73-1.412 1.413-.715-.716a.62.62 0 00-.842-.042.606.606 0 00-.03.884l.73.73-1.224 1.225a.617.617 0 00-.07.802zM20.918 16.87a.61.61 0 00-.84-.168.612.612 0 00-.167.84c.182.275.566.349.84.167a.611.611 0 00.167-.84z" fill="#8C52FF"/></svg>