<?xml version="1.0" encoding="utf-8"?><svg width="32" height="32" fill="none" xmlns="http://www.w3.org/2000/svg" viewBox="0 0 32 32"><path d="M21.102 18.409l-4.338-3.254V8.526a1.204 1.204 0 10-2.41 0v7.231c0 .38.178.738.482.964l4.82 3.616c.217.163.47.24.722.24a1.203 1.203 0 00.724-2.17z" fill="#8C52FF"/><path d="M15.559.102C6.979.102 0 7.082 0 15.661c0 8.58 6.98 15.558 15.559 15.558 8.58 0 15.558-6.979 15.558-15.558C31.117 7.08 24.138.102 15.56.102zm0 28.707c-7.25 0-13.149-5.9-13.149-13.148 0-7.25 5.9-13.149 13.149-13.149 7.25 0 13.148 5.9 13.148 13.149 0 7.249-5.9 13.148-13.148 13.148z" fill="#8C52FF"/></svg>