<?xml version="1.0" encoding="utf-8"?><svg width="17" height="17" fill="none" xmlns="http://www.w3.org/2000/svg" viewBox="0 0 17 17"><path d="M8.36.059C3.846.059.173 3.732.173 8.247c0 4.516 3.673 8.19 8.189 8.19 4.515 0 8.188-3.674 8.188-8.19C16.55 3.732 12.876.06 8.361.06zm0 14.587a6.406 6.406 0 01-6.398-6.399A6.406 6.406 0 018.36 1.848a6.406 6.406 0 016.398 6.4 6.406 6.406 0 01-6.398 6.398z" fill="#B3B3B3"/><path d="M9.07 8.256V4.824a.694.694 0 10-1.388 0v3.654c0 .011.003.021.003.032a.69.69 0 00.2.524l2.584 2.584a.693.693 0 10.981-.981l-2.38-2.38z" fill="#B3B3B3"/></svg>