<?xml version="1.0" encoding="utf-8"?><svg width="16" height="16" fill="none" xmlns="http://www.w3.org/2000/svg" viewBox="0 0 16 16"><path fill-rule="evenodd" clip-rule="evenodd" d="M4.465 0h7.07A4.478 4.478 0 0116 4.465v7.07A4.478 4.478 0 0111.535 16H8.78h.15v-5.433c0-.148.074-.223.222-.223H11.014c.149 0 .223-.149.223-.297V8.409c0-.149-.074-.223-.223-.223H9.153c-.148 0-.223-.149-.223-.298V6.623c0-.818.372-1.116 1.19-1.116h.968c.15 0 .224-.149.224-.298V3.72c0-.148-.075-.222-.224-.222H9.6c-1.86 0-2.977 1.19-2.977 2.902v1.488a.32.32 0 01-.297.298H4.837c-.149 0-.297.074-.297.223v1.638a.32.32 0 00.297.297h1.489c.148 0 .297.075.297.223V16h.224-2.382A4.478 4.478 0 010 11.535v-7.07A4.478 4.478 0 014.465 0z" fill="#FFC0BF"/></svg>