<?xml version="1.0" encoding="utf-8"?><svg width="30" height="30" fill="none" xmlns="http://www.w3.org/2000/svg" viewBox="0 0 30 30"><path fill-rule="evenodd" clip-rule="evenodd" d="M30 23.429V6.57C30 2.942 27.078 0 23.473 0H6.527C2.922 0 0 2.942 0 6.571V23.43C0 27.058 2.922 30 6.527 30h16.946C27.078 30 30 27.058 30 23.429z" fill="url(#alpaint0_radial_418_12)"/><path d="M19.515 26.298h-9.12c-3.49 0-6.344-2.86-6.344-6.357V10.2c0-3.496 2.854-6.357 6.344-6.357h9.12c3.49 0 6.346 2.861 6.346 6.358v9.739c0 3.496-2.856 6.357-6.346 6.357zm0-1.68c1.24 0 2.41-.49 3.295-1.376a4.641 4.641 0 001.373-3.301V10.2A4.641 4.641 0 0022.81 6.9a4.622 4.622 0 00-3.295-1.376h-9.12c-1.24 0-2.41.488-3.295 1.376a4.641 4.641 0 00-1.373 3.302v9.739c0 1.242.486 2.415 1.373 3.301a4.632 4.632 0 003.295 1.377h9.12z" fill="#FEFEFE"/><path d="M20.994 14.985c0 3.323-2.69 6.017-6.005 6.017a6.01 6.01 0 01-6.007-6.017c0-3.324 2.689-6.019 6.007-6.019 3.316 0 6.005 2.695 6.005 6.019zm-6.035-3.938a3.937 3.937 0 00-3.932 3.943 3.937 3.937 0 003.932 3.94 3.937 3.937 0 003.934-3.94 3.938 3.938 0 00-3.934-3.943zM22.514 8.873a1.423 1.423 0 11-2.844 0 1.422 1.422 0 112.844 0z" fill="#FEFEFE"/><defs><radialGradient id="alpaint0_radial_418_12" cx="0" cy="0" r="1" gradientUnits="userSpaceOnUse" gradientTransform="rotate(-77.796 23.766 9.652) scale(38.7998)"><stop stop-color="#ECCE73"/><stop offset=".22" stop-color="#EF832F"/><stop offset=".412" stop-color="#F33355"/><stop offset=".569" stop-color="#ED3188"/><stop offset=".749" stop-color="#9939DF"/><stop offset="1" stop-color="#2A4FF2"/></radialGradient></defs></svg>