<?xml version="1.0" encoding="utf-8"?><svg width="16" height="16" fill="none" xmlns="http://www.w3.org/2000/svg" viewBox="0 0 16 16"><path fill-rule="evenodd" clip-rule="evenodd" d="M4.484 0h7.032C13.962 0 16 2.038 16 4.484v7.032C16 13.962 13.962 16 11.516 16H4.484C2.038 16 0 13.962 0 11.516V4.484C0 2.038 2.038 0 4.484 0zm.408 1.936a2.958 2.958 0 00-2.956 2.956v6.216c0 1.63 1.325 2.854 2.956 2.854h6.216c1.63 0 2.854-1.223 2.854-2.854V4.892c0-1.63-1.223-2.956-2.854-2.956H4.892zm5.707 2.65c0-.51.407-.815.815-.815s.815.305.815.815c0 .408-.407.713-.815.713s-.815-.305-.815-.713zM5.096 7.949c0-1.529 1.324-2.853 2.853-2.853a2.848 2.848 0 012.854 2.853c0 1.63-1.223 2.854-2.854 2.854a2.848 2.848 0 01-2.853-2.854z" fill="#FFC0BF"/></svg>