<?xml version="1.0" encoding="utf-8"?><svg width="26" height="32" fill="none" xmlns="http://www.w3.org/2000/svg" viewBox="0 0 26 32"><path d="M21.668 4.197C19.27 1.728 16.083.367 12.693.367c-3.39 0-6.579 1.361-8.976 3.83C1.321 6.666 0 9.951 0 13.444c0 3.054 1.046 6.024 2.939 8.368a13.286 13.286 0 001.6 1.65l7.525 7.757a.88.88 0 00.629.265.88.88 0 00.628-.265l7.525-7.758a12.949 12.949 0 001.596-1.649 13.332 13.332 0 002.943-8.368c0-3.493-1.32-6.778-3.717-9.247zm-8.975 17.394c-4.204 0-7.607-3.51-7.607-7.842 0-4.326 3.403-7.837 7.607-7.837 4.203 0 7.607 3.511 7.607 7.837 0 4.331-3.404 7.842-7.607 7.842z" fill="#8C52FF"/></svg>