<?xml version="1.0" encoding="utf-8"?><svg width="17" height="21" fill="none" xmlns="http://www.w3.org/2000/svg" viewBox="0 0 17 21"><path d="M14.151 3.002A8.137 8.137 0 008.361.604a8.136 8.136 0 00-5.79 2.398 8.136 8.136 0 00-2.4 5.79 8.21 8.21 0 001.897 5.241c.313.372.66.722 1.032 1.033l4.855 4.857a.576.576 0 00.81 0l4.856-4.857a8.197 8.197 0 002.928-6.273 8.137 8.137 0 00-2.398-5.791zm-5.79 10.892a4.908 4.908 0 01-4.908-4.91 4.907 4.907 0 119.815 0 4.908 4.908 0 01-4.907 4.91z" fill="#B3B3B3"/></svg>