<?xml version="1.0" encoding="utf-8"?><svg width="20" height="20" fill="none" xmlns="http://www.w3.org/2000/svg" viewBox="0 0 20 20"><path fill-rule="evenodd" clip-rule="evenodd" d="M10.092 20A9.867 9.867 0 0020 10.092C20 4.404 15.596 0 10.092 0 4.404 0 0 4.404 0 10.092 0 15.596 4.404 20 10.092 20z" fill="#8C52FF" fill-opacity=".2"/><path fill-rule="evenodd" clip-rule="evenodd" d="M10.091 17.798c4.22 0 7.707-3.486 7.707-7.706 0-4.404-3.487-7.89-7.707-7.89-4.404 0-7.89 3.486-7.89 7.89 0 4.22 3.486 7.706 7.89 7.706z" fill="#8C52FF" fill-opacity=".2"/><path fill-rule="evenodd" clip-rule="evenodd" d="M10.09 14.312c2.385 0 4.22-1.835 4.22-4.22 0-2.57-1.835-4.404-4.22-4.404-2.57 0-4.404 1.835-4.404 4.404 0 2.385 1.834 4.22 4.403 4.22z" fill="#8C52FF"/></svg>