<?xml version="1.0" encoding="utf-8"?><svg width="240" height="240" fill="none" xmlns="http://www.w3.org/2000/svg" viewBox="0 0 240 240"><path fill-rule="evenodd" clip-rule="evenodd" d="M120 0c66.27 0 120 53.73 120 120 0 66.27-53.73 120-120 120C53.73 240 0 186.27 0 120 0 53.73 53.73 0 120 0z" fill="#8C52FF" fill-opacity=".2"/><path fill-rule="evenodd" clip-rule="evenodd" d="M120 36.5c46.12 0 83.5 37.38 83.5 83.5 0 46.11-37.38 83.5-83.5 83.5S36.5 166.11 36.5 120c0-46.12 37.38-83.5 83.5-83.5z" fill="#8C52FF" fill-opacity=".2"/><path fill-rule="evenodd" clip-rule="evenodd" d="M120.001 63.72c31.08 0 56.28 25.2 56.28 56.28 0 31.08-25.2 56.28-56.28 56.28-31.08 0-56.28-25.2-56.28-56.28 0-31.08 25.2-56.28 56.28-56.28z" fill="#8C52FF"/><path fill-rule="evenodd" clip-rule="evenodd" d="M149.33 120l-46.16 27.17V92.83L149.33 120z" fill="#fff"/></svg>