<?xml version="1.0" encoding="utf-8"?><svg width="32" height="32" fill="none" xmlns="http://www.w3.org/2000/svg" viewBox="0 0 32 32"><path d="M5.747.102h19.625a5.75 5.75 0 014.061 1.686 5.75 5.75 0 011.686 4.06v19.626a5.75 5.75 0 01-1.686 4.061 5.75 5.75 0 01-4.06 1.686H5.746a5.75 5.75 0 01-4.061-1.686A5.75 5.75 0 010 25.475V5.848a5.75 5.75 0 011.686-4.061A5.75 5.75 0 015.746.102zM8.874 6.86c0-.788.638-1.426 1.426-1.426h4.575c2.23 0 4.253.907 5.72 2.37l.006.005a8.085 8.085 0 012.37 5.72 8.088 8.088 0 01-2.37 5.727 8.079 8.079 0 01-5.726 2.37c-.005-.005-1.805-.01-3.154-.01v2.847a1.424 1.424 0 11-2.847 0V6.86zm2.847 1.421v10.503h3.154a5.258 5.258 0 003.713-1.54 5.241 5.241 0 001.535-3.714 5.232 5.232 0 00-1.535-3.714 5.232 5.232 0 00-3.713-1.535H11.72zm13.651-5.85H5.747a3.39 3.39 0 00-2.412 1.006 3.39 3.39 0 00-1.006 2.412v19.625a3.39 3.39 0 001.006 2.412 3.39 3.39 0 002.412 1.006h19.625a3.39 3.39 0 002.412-1.006 3.39 3.39 0 001.006-2.412V5.85a3.39 3.39 0 00-1.006-2.412 3.39 3.39 0 00-2.412-1.006z" fill="#8C52FF"/></svg>