<?xml version="1.0" encoding="utf-8"?><svg width="17" height="18" fill="none" xmlns="http://www.w3.org/2000/svg" viewBox="0 0 17 18"><path d="M15.235 11.473a9.299 9.299 0 01-2.92-.466c-.457-.155-1.02-.012-1.298.274l-1.842 1.39c-2.135-1.14-3.45-2.455-4.575-4.574l1.35-1.794c.35-.35.475-.861.325-1.341a9.313 9.313 0 01-.467-2.925c0-.725-.59-1.314-1.314-1.314H1.486c-.725 0-1.314.59-1.314 1.314 0 8.306 6.757 15.063 15.063 15.063.725 0 1.314-.59 1.314-1.314v-3c0-.724-.59-1.313-1.314-1.313z" fill="#B3B3B3"/></svg>