<?xml version="1.0" encoding="utf-8"?><svg width="27" height="30" fill="none" xmlns="http://www.w3.org/2000/svg" viewBox="0 0 27 30"><path d="M24.882 2.55h-7.656a.638.638 0 000 1.277h7.656a.638.638 0 000-1.276z" fill="#DDD"/><path d="M25.334 2.739L22.782.187a.639.639 0 00-.902.902l2.1 2.1-2.101 2.102a.639.639 0 00.903.902l2.552-2.552a.639.639 0 000-.902zM8.296 2.55H.64a.638.638 0 000 1.277h7.656a.638.638 0 000-1.276z" fill="#DDD"/><path d="M1.54 3.19l2.1-2.101A.638.638 0 002.74.187L.187 2.739a.638.638 0 000 .902l2.552 2.552a.64.64 0 00.902-.001.638.638 0 000-.902l-2.1-2.1zM24.244 12.76c-.524 0-1.013.16-1.418.431a2.559 2.559 0 00-2.41-1.707c-.524 0-1.013.16-1.419.431a2.558 2.558 0 00-2.409-1.707c-.464 0-.9.125-1.276.343V6.38a2.555 2.555 0 00-2.552-2.552 2.555 2.555 0 00-2.552 2.552v10.846l-2.217-1.663a3.345 3.345 0 00-4.35.309 1.915 1.915 0 000 2.706l9.086 9.088a5.707 5.707 0 004.062 1.682h2.99c3.868 0 7.018-3.148 7.018-7.018v-7.018a2.555 2.555 0 00-2.553-2.552zm1.277 9.57a5.75 5.75 0 01-5.742 5.742h-2.99a4.438 4.438 0 01-3.16-1.308l-9.086-9.088a.639.639 0 010-.902 2.058 2.058 0 011.455-.597c.43 0 .865.134 1.228.407l3.238 2.428a.64.64 0 001.02-.51V6.38a1.277 1.277 0 012.552 0v9.57a.638.638 0 001.277 0v-3.19a1.277 1.277 0 012.551 0v3.19a.638.638 0 001.276 0v-1.914a1.277 1.277 0 012.552 0v1.914a.638.638 0 001.277 0v-.638a1.277 1.277 0 012.552 0v7.018z" fill="#DDD"/></svg>