<?xml version="1.0" encoding="utf-8"?><svg width="16" height="16" fill="none" xmlns="http://www.w3.org/2000/svg" viewBox="0 0 16 16"><path fill-rule="evenodd" clip-rule="evenodd" d="M4.516 0h6.968C14.064 0 16 2.065 16 4.516v6.968C16 14.064 14.065 16 11.484 16H4.516C2.065 16 0 14.065 0 11.484V4.516C0 2.065 2.065 0 4.516 0zm7.097 8.774c-.258-.258-.13-.387 0-.645 0 0 1.42-2.064 1.548-2.839.13-.258 0-.387-.387-.387h-1.161c-.258 0-.387.13-.516.387 0 0-.516 1.42-1.42 2.452-.258.258-.387.387-.516.387S8.903 8 8.903 7.742V5.29c0-.258 0-.387-.258-.387H6.71a.278.278 0 00-.258.258c0 .258.387.387.516 1.162v1.806c0 .516-.13.516-.258.516-.387 0-1.42-1.548-1.936-3.226-.129-.387-.258-.516-.516-.516h-1.29c-.258 0-.387.13-.387.387 0 .258.387 1.936 1.935 4 .903 1.549 2.323 2.323 3.613 2.323.645 0 .774-.258.774-.516 0-1.42 0-1.549.387-1.549.13 0 .387.13 1.162.775.774.903.903 1.29 1.29 1.29h1.29c.258 0 .516-.258.387-.516-.258-.774-1.806-2.323-1.806-2.323z" fill="#FFC0BF"/></svg>