<?xml version="1.0" encoding="utf-8"?><svg viewBox="0 0 240 240" xmlns="http://www.w3.org/2000/svg" xmlns:xlink="http://www.w3.org/1999/xlink"><style>:root>svg{display:none}:root>svg:target{display:block}</style><svg fill="none" viewBox="0 0 34 24" id="doctor-1" xmlns="http://www.w3.org/2000/svg"><path d="M33.344 5.388l-7.177-2.442a.502.502 0 00-.319.95l7.108 2.42-3.346 1.642a1.506 1.506 0 00-.464-.211L19.11 5.106c-.319-1.653-2.34-2.347-3.58-1.17-.43.407-.677.98-.677 1.574v.011a1.28 1.28 0 001.282 1.268h1.732c.448 0 .896-.235 1.128-.677l9.36 2.463L17.91 13.7a2.055 2.055 0 01-1.82 0L1.042 6.315l15.292-5.203a2.075 2.075 0 011.33 0l5.97 2.032a.502.502 0 00.319-.95L17.984.161a3.072 3.072 0 00-1.968 0L.656 5.388c-.816.278-.89 1.416-.114 1.797l7.883 3.87c-.434 2.075-1.096 4.31-1.816 6.294a1.991 1.991 0 00.632 2.245c2.275 1.8 4.963 3.191 7.717 4.085a6.65 6.65 0 004.083 0c2.756-.894 5.444-2.286 7.718-4.085a1.99 1.99 0 00.631-2.245c-.704-1.94-1.375-4.19-1.815-6.294l3.708-1.82v7.547a1.235 1.235 0 00-1.135 1.233v1.461c0 .218.094.413.242.549l-.185 2.816a.953.953 0 00.946 1.018h1.26a.953.953 0 00.946-1.018l-.185-2.817a.742.742 0 00.242-.548v-1.461c0-.65-.501-1.184-1.135-1.233V9.224c0-.155-.024-.304-.067-.446l3.246-1.593c.775-.38.703-1.518-.114-1.797zm-15.478.398h-1.732c-.154 0-.285-.123-.286-.267V5.51c0-.323.13-.622.363-.844.717-.68 1.893-.19 1.94.787.01.234-.14.333-.285.333zm8.028 10.273c-2.691 2.121-6.51 3.638-7.825 3.89a.501.501 0 00.186.986c1.376-.265 5.146-1.74 7.976-3.872.07.2.15.427.224.63a.986.986 0 01-.312 1.113c-2.682 2.122-5.508 3.302-7.407 3.918a5.662 5.662 0 01-3.472 0c-1.899-.616-4.725-1.796-7.408-3.918a.986.986 0 01-.311-1.113l.009-.024.215-.606c2.763 2.081 6.522 3.593 7.975 3.872a.501.501 0 00.187-.985c-1.242-.239-5.074-1.724-7.825-3.89a47.38 47.38 0 001.241-4.553l6.306 3.095c.84.413 1.822.429 2.694 0l6.305-3.095a47.373 47.373 0 001.242 4.553zm3.308 6.797l.173-2.637h.812l.173 2.637h-1.158zm1.216-4.841v1.2h-1.274v-1.2c0-.127.107-.235.233-.235h.808c.126 0 .233.108.233.235z" fill="#8C52FF"/></svg><svg fill="none" viewBox="0 0 31 27" id="doctor-2" xmlns="http://www.w3.org/2000/svg"><path d="M29.94 0H1.06C.475 0 0 .48 0 1.069V4.83c0 .592.908.592.908 0V1.07c0-.084.068-.153.152-.153h28.88c.084 0 .152.069.152.153v22.335a.152.152 0 01-.152.152h-5.819v-.953h4.567c.251 0 .454-.205.454-.458V17.35c0-.592-.908-.592-.908 0v4.338h-4.113v-2.032l.044.004c.377.034.846.075 1.17-.253.325-.328.284-.801.25-1.182-.035-.408.004-.52.315-.78.8-.672.816-1.392 0-2.076-.311-.26-.35-.372-.314-.78.089-1.025-.386-1.527-1.421-1.436-.404.036-.514-.002-.772-.316-.665-.81-1.378-.825-2.056 0-.257.313-.367.352-.771.316-1.017-.09-1.512.392-1.421 1.435.035.409-.003.52-.314.781-.801.672-.816 1.391 0 2.075.311.261.35.373.314.781-.096 1.098.424 1.522 1.464 1.431v2.032H2.766V2.785h25.468v12.121c0 .593.908.593.908 0V2.327a.456.456 0 00-.454-.458H2.312a.456.456 0 00-.454.458v19.818c0 .253.203.458.454.458h18.297v.953H1.06a.152.152 0 01-.15-.152V7.15c0-.592-.909-.592-.909 0v16.253c0 .589.475 1.069 1.06 1.069h19.55v2.073c.064.376.28.515.645.415l1.11-.52 1.11.52c.275.129.646-.075.646-.415v-2.073h5.82c.584 0 1.059-.48 1.059-1.07V1.07C31 .479 30.525 0 29.94 0zm-9.454 18.746c-.454.04-.476.016-.437-.442.061-.703-.099-1.114-.637-1.565-.369-.31-.369-.358 0-.667.538-.451.698-.861.637-1.565-.04-.458-.017-.482.437-.442.698.062 1.104-.101 1.55-.645.306-.372.353-.372.658 0 .447.544.853.707 1.55.645.455-.04.477-.016.437.442-.06.704.1 1.114.638 1.565.368.31.369.358 0 .667-.539.451-.7.862-.638 1.565.04.458.018.483-.437.442-.285-.025-.609-.053-.893.066-.276.115-.47.351-.657.58-.088.107-.25.303-.329.338-.079-.035-.24-.231-.328-.339-.188-.228-.381-.464-.657-.58a1.973 1.973 0 00-.894-.065zm2.07 6.774a.45.45 0 00-.382 0l-.656.308v-5.64c.215.239.481.46.847.46.367 0 .633-.221.848-.46v5.64l-.656-.308z" fill="#8C52FF"/><path d="M5.889 6.619h15.654c.587 0 .587-.916 0-.916H5.89c-.587 0-.587.916 0 .916zM25.565 8.947a.456.456 0 00-.454-.458H5.89c-.587 0-.587.916 0 .916h19.222c.25 0 .454-.205.454-.458zM17.264 11.732a.456.456 0 00-.454-.458H5.89c-.587 0-.587.917 0 .917H16.81c.25 0 .454-.206.454-.459zM11.301 18.117h-.743c-.476.001-.738-.127-.836-.637-.088-.465-.753-.405-.875 0-.054.18-.327.695-.565.653-.126-.023-.18-.219-.228-.32a3.928 3.928 0 01-.213-.618c-.239-.887-.287-1.814-.436-2.719-.087-.524-.88-.376-.892.122-.041 1.586-.298 3.15-.858 4.637-.208.552.67.79.876.244.216-.574.387-1.16.52-1.756.071.217.156.43.26.637.265.529.806.841 1.385.606a1.55 1.55 0 00.555-.409c.43.5 1.07.477 1.665.476.9 0 1.798-.003 2.697-.006.585-.001.586-.917 0-.916-.77.003-1.541.005-2.312.006zM22.365 18.195c.978 0 1.774-.803 1.774-1.79 0-.986-.796-1.788-1.774-1.788s-1.773.802-1.773 1.789c0 .986.795 1.789 1.773 1.789zm0-2.662a.87.87 0 01.866.873.87.87 0 01-.866.873.87.87 0 01-.865-.873.87.87 0 01.865-.873z" fill="#8C52FF"/></svg><svg fill="none" viewBox="0 0 31 27" id="doctor-3" xmlns="http://www.w3.org/2000/svg"><path d="M29.59 14.921c-.422 0-.704.284-.704.71v9.237c0 .427-.281.71-.704.71H2.818c-.423 0-.704-.283-.704-.71v-9.236c0-.427-.282-.71-.705-.71s-.704.283-.704.71v9.236C.705 26.076 1.62 27 2.818 27h25.364c1.198 0 2.114-.924 2.114-2.132v-9.236c0-.427-.282-.71-.705-.71z" fill="#8C52FF"/><path d="M28.886 4.974H2.114C.916 4.974 0 5.897 0 7.105v4.548a2.13 2.13 0 001.62 2.06L12.682 16.2v2.274c0 .426.282.71.704.71h4.228c.422 0 .704-.284.704-.71V16.2l11.061-2.487A2.13 2.13 0 0031 11.653V7.105c0-1.208-.916-2.131-2.114-2.131zM16.91 17.764h-2.818V14.92h2.818v2.842zm12.682-6.111c0 .355-.212.64-.564.71L18.318 14.78v-.569c0-.426-.282-.71-.704-.71h-4.228c-.422 0-.704.284-.704.71v.569l-10.71-2.416c-.352-.07-.563-.355-.563-.71V7.105c0-.426.282-.71.705-.71h26.772c.423 0 .705.284.705.71v4.548zM19.021 0h-7.045c-1.198 0-2.114.924-2.114 2.132v.71c0 .426.282.71.705.71s.704-.284.704-.71v-.71c0-.427.282-.71.705-.71h7.045c.423 0 .705.283.705.71v.71c0 .426.282.71.704.71.423 0 .705-.284.705-.71v-.71C21.135.924 20.219 0 19.021 0z" fill="#8C52FF"/></svg><svg fill="none" viewBox="0 0 31 31" id="doctor-4" xmlns="http://www.w3.org/2000/svg"><path d="M6.333 24.375a1.938 1.938 0 00-1.935 1.936c0 1.067.868 1.935 1.935 1.935a1.938 1.938 0 001.935-1.935 1.938 1.938 0 00-1.935-1.936zm0 2.66a.725.725 0 11.002-1.45.725.725 0 01-.002 1.45zM24.96 24.375a1.938 1.938 0 00-1.936 1.936c0 1.067.869 1.935 1.936 1.935a1.938 1.938 0 001.935-1.935 1.938 1.938 0 00-1.935-1.936zm0 2.66a.725.725 0 11.002-1.45.725.725 0 01-.002 1.45zM16.249 25.134a.611.611 0 00-.791-.327.61.61 0 00-.328.79.61.61 0 00.791.328.611.611 0 00.328-.79z" fill="#8C52FF"/><path d="M31 17.205a.606.606 0 00-.605-.606h-7.33a.606.606 0 000 1.211h6.724v2.853a5.218 5.218 0 00-2.673.605c-1.347.71-2.825.891-4.19.097-1.568-.927-3.576-.936-5.163-.047-1.268.71-2.828.785-4.103.045-1.61-.936-3.668-.934-5.24 0-1.207.702-2.762.705-3.978.024-.99-.557-2.096-.827-3.23-.7v-2.862c.81.067 1.6.356 2.304.846a5.205 5.205 0 005.893 0c.762-.53 1.847-.86 2.832-.86h5.432a.606.606 0 000-1.212h-5.432c-1.238 0-2.555.403-3.524 1.078a3.984 3.984 0 01-4.51 0A5.865 5.865 0 00.848 16.6H.607a.606.606 0 00-.606.606V29.299c0 .388.383.685.76.586a3.974 3.974 0 013.03.41 5.228 5.228 0 005.244-.003c1.205-.716 2.782-.715 4.018.003 1.616.94 3.623.94 5.24 0 1.231-.716 2.808-.717 4.021 0a5.26 5.26 0 005.24 0 4.175 4.175 0 012.732-.476.614.614 0 00.715-.596V21.34v-4.135zm-4.055 12.043a4.006 4.006 0 01-4.02.003c-1.585-.938-3.653-.927-5.242-.003-1.222.71-2.801.71-4.023 0-1.61-.935-3.668-.934-5.24 0-1.22.71-2.8.71-4.022 0a5.169 5.169 0 00-3.187-.676V21.91c.928-.135 1.824.078 2.634.532 1.592.899 3.606.898 5.184-.03 1.207-.703 2.787-.702 4.026 0 1.607.934 3.615.912 5.23.003 1.234-.695 2.798-.728 4.028-.004 1.611.937 3.63.923 5.242 0 .646-.376 1.466-.566 2.234-.531v6.672a5.382 5.382 0 00-2.845.697z" fill="#8C52FF"/><path d="M6.788 17.135c.155 0 .31-.06.428-.178l5.103-5.104 1.215 1.216a.611.611 0 00.857 0l2.222-2.223c.389.308.86.462 1.33.462.55 0 1.1-.21 1.519-.628l9.543-9.545a.606.606 0 00-.03-.884.62.62 0 00-.84.042l-9.53 9.53a.937.937 0 01-1.323 0l-3.79-3.79a.936.936 0 010-1.324l3.618-3.618a.606.606 0 00-.857-.856l-3.617 3.618a2.167 2.167 0 00-.166 2.85l-2.222 2.222a.606.606 0 000 .857l1.215 1.215-5.09 5.09a.618.618 0 00-.043.839c.122.14.29.209.458.209zm6.528-9.566L15.746 10l-1.783 1.784-1.215-1.215h-.001l-1.215-1.216 1.784-1.784z" fill="#8C52FF"/><path d="M17.358 6.248c.218.29.657.324.914.067l5.28-5.281a.606.606 0 00-.856-.857l-.918.92-.716-.717a.62.62 0 00-.841-.042.606.606 0 00-.03.884l.73.73-1.412 1.413-.715-.716a.62.62 0 00-.842-.042.606.606 0 00-.03.884l.73.73-1.224 1.225a.617.617 0 00-.07.802zM20.918 16.87a.61.61 0 00-.84-.168.612.612 0 00-.167.84c.182.275.566.349.84.167a.611.611 0 00.167-.84z" fill="#8C52FF"/></svg><svg fill="none" viewBox="0 0 32 32" id="ic_clock-31" xmlns="http://www.w3.org/2000/svg"><path d="M21.102 18.409l-4.338-3.254V8.526a1.204 1.204 0 10-2.41 0v7.231c0 .38.178.738.482.964l4.82 3.616c.217.163.47.24.722.24a1.203 1.203 0 00.724-2.17z" fill="#8C52FF"/><path d="M15.559.102C6.979.102 0 7.082 0 15.661c0 8.58 6.98 15.558 15.559 15.558 8.58 0 15.558-6.979 15.558-15.558C31.117 7.08 24.138.102 15.56.102zm0 28.707c-7.25 0-13.149-5.9-13.149-13.148 0-7.25 5.9-13.149 13.149-13.149 7.25 0 13.148 5.9 13.148 13.149 0 7.249-5.9 13.148-13.148 13.148z" fill="#8C52FF"/></svg><svg fill="none" viewBox="0 0 17 17" id="ic_clock-gr" xmlns="http://www.w3.org/2000/svg"><path d="M8.36.059C3.846.059.173 3.732.173 8.247c0 4.516 3.673 8.19 8.189 8.19 4.515 0 8.188-3.674 8.188-8.19C16.55 3.732 12.876.06 8.361.06zm0 14.587a6.406 6.406 0 01-6.398-6.399A6.406 6.406 0 018.36 1.848a6.406 6.406 0 016.398 6.4 6.406 6.406 0 01-6.398 6.398z" fill="#B3B3B3"/><path d="M9.07 8.256V4.824a.694.694 0 10-1.388 0v3.654c0 .011.003.021.003.032a.69.69 0 00.2.524l2.584 2.584a.693.693 0 10.981-.981l-2.38-2.38z" fill="#B3B3B3"/></svg><svg viewBox="0 0 24 24" id="ic_close" xmlns="http://www.w3.org/2000/svg"><path d="M0 0h24v24H0V0z" fill="none"/><path d="M19 6.41L17.59 5 12 10.59 6.41 5 5 6.41 10.59 12 5 17.59 6.41 19 12 13.41 17.59 19 19 17.59 13.41 12 19 6.41z"/></svg><svg viewBox="0 0 24 24" id="ic_expand" xmlns="http://www.w3.org/2000/svg"><path d="M24 24H0V0h24v24z" fill="none" opacity=".87"/><path d="M16.59 8.59L12 13.17 7.41 8.59 6 10l6 6 6-6-1.41-1.41z"/></svg><svg fill="none" viewBox="0 0 16 16" id="ic_fb" xmlns="http://www.w3.org/2000/svg"><path fill-rule="evenodd" clip-rule="evenodd" d="M4.465 0h7.07A4.478 4.478 0 0116 4.465v7.07A4.478 4.478 0 0111.535 16H8.78h.15v-5.433c0-.148.074-.223.222-.223H11.014c.149 0 .223-.149.223-.297V8.409c0-.149-.074-.223-.223-.223H9.153c-.148 0-.223-.149-.223-.298V6.623c0-.818.372-1.116 1.19-1.116h.968c.15 0 .224-.149.224-.298V3.72c0-.148-.075-.222-.224-.222H9.6c-1.86 0-2.977 1.19-2.977 2.902v1.488a.32.32 0 01-.297.298H4.837c-.149 0-.297.074-.297.223v1.638a.32.32 0 00.297.297h1.489c.148 0 .297.075.297.223V16h.224-2.382A4.478 4.478 0 010 11.535v-7.07A4.478 4.478 0 014.465 0z" fill="#FFC0BF"/></svg><svg fill="none" viewBox="0 0 16 16" id="ic_inst" xmlns="http://www.w3.org/2000/svg"><path fill-rule="evenodd" clip-rule="evenodd" d="M4.484 0h7.032C13.962 0 16 2.038 16 4.484v7.032C16 13.962 13.962 16 11.516 16H4.484C2.038 16 0 13.962 0 11.516V4.484C0 2.038 2.038 0 4.484 0zm.408 1.936a2.958 2.958 0 00-2.956 2.956v6.216c0 1.63 1.325 2.854 2.956 2.854h6.216c1.63 0 2.854-1.223 2.854-2.854V4.892c0-1.63-1.223-2.956-2.854-2.956H4.892zm5.707 2.65c0-.51.407-.815.815-.815s.815.305.815.815c0 .408-.407.713-.815.713s-.815-.305-.815-.713zM5.096 7.949c0-1.529 1.324-2.853 2.853-2.853a2.848 2.848 0 012.854 2.853c0 1.63-1.223 2.854-2.854 2.854a2.848 2.848 0 01-2.853-2.854z" fill="#FFC0BF"/></svg><svg fill="none" viewBox="0 0 30 30" id="ic_insta-21" xmlns="http://www.w3.org/2000/svg"><path fill-rule="evenodd" clip-rule="evenodd" d="M30 23.429V6.57C30 2.942 27.078 0 23.473 0H6.527C2.922 0 0 2.942 0 6.571V23.43C0 27.058 2.922 30 6.527 30h16.946C27.078 30 30 27.058 30 23.429z" fill="url(#akpaint0_radial_418_12)"/><path d="M19.515 26.298h-9.12c-3.49 0-6.344-2.86-6.344-6.357V10.2c0-3.496 2.854-6.357 6.344-6.357h9.12c3.49 0 6.346 2.861 6.346 6.358v9.739c0 3.496-2.856 6.357-6.346 6.357zm0-1.68c1.24 0 2.41-.49 3.295-1.376a4.641 4.641 0 001.373-3.301V10.2A4.641 4.641 0 0022.81 6.9a4.622 4.622 0 00-3.295-1.376h-9.12c-1.24 0-2.41.488-3.295 1.376a4.641 4.641 0 00-1.373 3.302v9.739c0 1.242.486 2.415 1.373 3.301a4.632 4.632 0 003.295 1.377h9.12z" fill="#FEFEFE"/><path d="M20.994 14.985c0 3.323-2.69 6.017-6.005 6.017a6.01 6.01 0 01-6.007-6.017c0-3.324 2.689-6.019 6.007-6.019 3.316 0 6.005 2.695 6.005 6.019zm-6.035-3.938a3.937 3.937 0 00-3.932 3.943 3.937 3.937 0 003.932 3.94 3.937 3.937 0 003.934-3.94 3.938 3.938 0 00-3.934-3.943zM22.514 8.873a1.423 1.423 0 11-2.844 0 1.422 1.422 0 112.844 0z" fill="#FEFEFE"/><defs><radialGradient id="akpaint0_radial_418_12" cx="0" cy="0" r="1" gradientUnits="userSpaceOnUse" gradientTransform="rotate(-77.796 23.766 9.652) scale(38.7998)"><stop stop-color="#ECCE73"/><stop offset=".22" stop-color="#EF832F"/><stop offset=".412" stop-color="#F33355"/><stop offset=".569" stop-color="#ED3188"/><stop offset=".749" stop-color="#9939DF"/><stop offset="1" stop-color="#2A4FF2"/></radialGradient></defs></svg><svg fill="none" viewBox="0 0 30 30" id="ic_instagram" xmlns="http://www.w3.org/2000/svg"><path fill-rule="evenodd" clip-rule="evenodd" d="M30 23.429V6.57C30 2.942 27.078 0 23.473 0H6.527C2.922 0 0 2.942 0 6.571V23.43C0 27.058 2.922 30 6.527 30h16.946C27.078 30 30 27.058 30 23.429z" fill="url(#alpaint0_radial_418_12)"/><path d="M19.515 26.298h-9.12c-3.49 0-6.344-2.86-6.344-6.357V10.2c0-3.496 2.854-6.357 6.344-6.357h9.12c3.49 0 6.346 2.861 6.346 6.358v9.739c0 3.496-2.856 6.357-6.346 6.357zm0-1.68c1.24 0 2.41-.49 3.295-1.376a4.641 4.641 0 001.373-3.301V10.2A4.641 4.641 0 0022.81 6.9a4.622 4.622 0 00-3.295-1.376h-9.12c-1.24 0-2.41.488-3.295 1.376a4.641 4.641 0 00-1.373 3.302v9.739c0 1.242.486 2.415 1.373 3.301a4.632 4.632 0 003.295 1.377h9.12z" fill="#FEFEFE"/><path d="M20.994 14.985c0 3.323-2.69 6.017-6.005 6.017a6.01 6.01 0 01-6.007-6.017c0-3.324 2.689-6.019 6.007-6.019 3.316 0 6.005 2.695 6.005 6.019zm-6.035-3.938a3.937 3.937 0 00-3.932 3.943 3.937 3.937 0 003.932 3.94 3.937 3.937 0 003.934-3.94 3.938 3.938 0 00-3.934-3.943zM22.514 8.873a1.423 1.423 0 11-2.844 0 1.422 1.422 0 112.844 0z" fill="#FEFEFE"/><defs><radialGradient id="alpaint0_radial_418_12" cx="0" cy="0" r="1" gradientUnits="userSpaceOnUse" gradientTransform="rotate(-77.796 23.766 9.652) scale(38.7998)"><stop stop-color="#ECCE73"/><stop offset=".22" stop-color="#EF832F"/><stop offset=".412" stop-color="#F33355"/><stop offset=".569" stop-color="#ED3188"/><stop offset=".749" stop-color="#9939DF"/><stop offset="1" stop-color="#2A4FF2"/></radialGradient></defs></svg><svg fill="none" viewBox="0 0 12 25" id="ic_left" xmlns="http://www.w3.org/2000/svg"><path d="M11.127.939a.514.514 0 01.72-.01c.2.194.205.52.01.72L1.22 12.547l10.637 10.898c.195.199.19.52-.01.72a.514.514 0 01-.72-.01L.142 12.905a.522.522 0 010-.716L11.127.939z" fill="#8C52FF"/></svg><svg fill="none" viewBox="0 0 17 14" id="ic_mail-gr" xmlns="http://www.w3.org/2000/svg"><path d="M8.834 9.043a.918.918 0 01-.483.135.918.918 0 01-.483-.135L.172 4.344v6.246a2.418 2.418 0 002.417 2.417h11.543a2.418 2.418 0 002.417-2.417V4.344L8.834 9.043z" fill="#B3B3B3"/><path d="M14.132.94H2.59C1.448.94.48 1.754.249 2.837l8.121 4.95 8.102-4.95A2.403 2.403 0 0014.132.94z" fill="#B3B3B3"/></svg><svg fill="none" viewBox="0 0 20 20" id="ic_mark-20" xmlns="http://www.w3.org/2000/svg"><path fill-rule="evenodd" clip-rule="evenodd" d="M10.092 20A9.867 9.867 0 0020 10.092C20 4.404 15.596 0 10.092 0 4.404 0 0 4.404 0 10.092 0 15.596 4.404 20 10.092 20z" fill="#8C52FF" fill-opacity=".2"/><path fill-rule="evenodd" clip-rule="evenodd" d="M10.091 17.798c4.22 0 7.707-3.486 7.707-7.706 0-4.404-3.487-7.89-7.707-7.89-4.404 0-7.89 3.486-7.89 7.89 0 4.22 3.486 7.706 7.89 7.706z" fill="#8C52FF" fill-opacity=".2"/><path fill-rule="evenodd" clip-rule="evenodd" d="M10.09 14.312c2.385 0 4.22-1.835 4.22-4.22 0-2.57-1.835-4.404-4.22-4.404-2.57 0-4.404 1.835-4.404 4.404 0 2.385 1.834 4.22 4.403 4.22z" fill="#8C52FF"/></svg><svg fill="none" viewBox="0 0 26 32" id="ic_marker-31" xmlns="http://www.w3.org/2000/svg"><path d="M21.668 4.197C19.27 1.728 16.083.367 12.693.367c-3.39 0-6.579 1.361-8.976 3.83C1.321 6.666 0 9.951 0 13.444c0 3.054 1.046 6.024 2.939 8.368a13.286 13.286 0 001.6 1.65l7.525 7.757a.88.88 0 00.629.265.88.88 0 00.628-.265l7.525-7.758a12.949 12.949 0 001.596-1.649 13.332 13.332 0 002.943-8.368c0-3.493-1.32-6.778-3.717-9.247zm-8.975 17.394c-4.204 0-7.607-3.51-7.607-7.842 0-4.326 3.403-7.837 7.607-7.837 4.203 0 7.607 3.511 7.607 7.837 0 4.331-3.404 7.842-7.607 7.842z" fill="#8C52FF"/></svg><svg fill="none" viewBox="0 0 17 21" id="ic_marker-gr" xmlns="http://www.w3.org/2000/svg"><path d="M14.151 3.002A8.137 8.137 0 008.361.604a8.136 8.136 0 00-5.79 2.398 8.136 8.136 0 00-2.4 5.79 8.21 8.21 0 001.897 5.241c.313.372.66.722 1.032 1.033l4.855 4.857a.576.576 0 00.81 0l4.856-4.857a8.197 8.197 0 002.928-6.273 8.137 8.137 0 00-2.398-5.791zm-5.79 10.892a4.908 4.908 0 01-4.908-4.91 4.907 4.907 0 119.815 0 4.908 4.908 0 01-4.907 4.91z" fill="#B3B3B3"/></svg><svg fill="none" viewBox="0 0 12 15" id="ic_marker-wh" xmlns="http://www.w3.org/2000/svg"><path d="M10.243 1.757A5.962 5.962 0 006 0C4.397 0 2.89.624 1.757 1.757A5.962 5.962 0 000 6c0 1.401.494 2.764 1.39 3.84.229.273.483.529.756.757l3.557 3.559a.422.422 0 00.594 0l3.557-3.56A6.006 6.006 0 0012 6c0-1.602-.624-3.109-1.757-4.242zM6 9.738a3.596 3.596 0 110-7.192 3.596 3.596 0 010 7.192z" fill="#CFCFD0"/></svg><svg fill="none" viewBox="0 0 26 19" id="ic_menu-26" xmlns="http://www.w3.org/2000/svg"><rect y="16" width="20" height="2.5" rx="1.25" fill="#8C52FF"/><rect y="8" width="20" height="2.5" rx="1.25" fill="#8C52FF"/><rect width="26" height="2.5" rx="1.25" fill="#8C52FF"/></svg><svg fill="none" viewBox="0 0 32 32" id="ic_parking-31" xmlns="http://www.w3.org/2000/svg"><path d="M5.747.102h19.625a5.75 5.75 0 014.061 1.686 5.75 5.75 0 011.686 4.06v19.626a5.75 5.75 0 01-1.686 4.061 5.75 5.75 0 01-4.06 1.686H5.746a5.75 5.75 0 01-4.061-1.686A5.75 5.75 0 010 25.475V5.848a5.75 5.75 0 011.686-4.061A5.75 5.75 0 015.746.102zM8.874 6.86c0-.788.638-1.426 1.426-1.426h4.575c2.23 0 4.253.907 5.72 2.37l.006.005a8.085 8.085 0 012.37 5.72 8.088 8.088 0 01-2.37 5.727 8.079 8.079 0 01-5.726 2.37c-.005-.005-1.805-.01-3.154-.01v2.847a1.424 1.424 0 11-2.847 0V6.86zm2.847 1.421v10.503h3.154a5.258 5.258 0 003.713-1.54 5.241 5.241 0 001.535-3.714 5.232 5.232 0 00-1.535-3.714 5.232 5.232 0 00-3.713-1.535H11.72zm13.651-5.85H5.747a3.39 3.39 0 00-2.412 1.006 3.39 3.39 0 00-1.006 2.412v19.625a3.39 3.39 0 001.006 2.412 3.39 3.39 0 002.412 1.006h19.625a3.39 3.39 0 002.412-1.006 3.39 3.39 0 001.006-2.412V5.85a3.39 3.39 0 00-1.006-2.412 3.39 3.39 0 00-2.412-1.006z" fill="#8C52FF"/></svg><svg viewBox="0 0 24 24" id="ic_person" xmlns="http://www.w3.org/2000/svg"><path d="M0 0h24v24H0V0z" fill="none"/><path d="M12 2C6.48 2 2 6.48 2 12s4.48 10 10 10 10-4.48 10-10S17.52 2 12 2zM7.07 18.28c.43-.9 3.05-1.78 4.93-1.78s4.51.88 4.93 1.78C15.57 19.36 13.86 20 12 20s-3.57-.64-4.93-1.72zm11.29-1.45c-1.43-1.74-4.9-2.33-6.36-2.33s-4.93.59-6.36 2.33A7.95 7.95 0 014 12c0-4.41 3.59-8 8-8s8 3.59 8 8c0 1.82-.62 3.49-1.64 4.83zM12 6c-1.94 0-3.5 1.56-3.5 3.5S10.06 13 12 13s3.5-1.56 3.5-3.5S13.94 6 12 6zm0 5c-.83 0-1.5-.67-1.5-1.5S11.17 8 12 8s1.5.67 1.5 1.5S12.83 11 12 11z"/></svg><svg fill="none" viewBox="0 0 19 19" id="ic_phone-19" xmlns="http://www.w3.org/2000/svg"><path d="M17.475 12.471c-1.163 0-2.305-.182-3.387-.54-.53-.18-1.183-.014-1.506.318l-2.137 1.613c-2.477-1.323-4.003-2.848-5.308-5.307l1.565-2.08c.407-.407.553-1 .378-1.557a10.804 10.804 0 01-.542-3.393C6.538.684 5.855 0 5.014 0h-3.49C.685 0 0 .684 0 1.525 0 11.16 7.84 19 17.475 19c.841 0 1.525-.684 1.525-1.525v-3.48c0-.84-.684-1.524-1.525-1.524z" fill="#8C52FF"/></svg><svg fill="none" viewBox="0 0 17 18" id="ic_phone-gr" xmlns="http://www.w3.org/2000/svg"><path d="M15.235 11.473a9.299 9.299 0 01-2.92-.466c-.457-.155-1.02-.012-1.298.274l-1.842 1.39c-2.135-1.14-3.45-2.455-4.575-4.574l1.35-1.794c.35-.35.475-.861.325-1.341a9.313 9.313 0 01-.467-2.925c0-.725-.59-1.314-1.314-1.314H1.486c-.725 0-1.314.59-1.314 1.314 0 8.306 6.757 15.063 15.063 15.063.725 0 1.314-.59 1.314-1.314v-3c0-.724-.59-1.313-1.314-1.313z" fill="#B3B3B3"/></svg><svg fill="none" viewBox="0 0 12 12" id="ic_phone-wh" xmlns="http://www.w3.org/2000/svg"><path d="M11.037 7.877a6.813 6.813 0 01-2.14-.341c-.335-.114-.746-.01-.95.2l-1.35 1.019C5.032 7.92 4.068 6.956 3.244 5.403l.99-1.314a.97.97 0 00.238-.983A6.824 6.824 0 014.13.963.964.964 0 003.167 0H.963A.964.964 0 000 .963C0 7.049 4.951 12 11.037 12c.531 0 .963-.432.963-.963V8.84a.964.964 0 00-.963-.962z" fill="#F6F9FC"/></svg><svg fill="none" viewBox="0 0 240 240" id="ic_play" xmlns="http://www.w3.org/2000/svg"><path fill-rule="evenodd" clip-rule="evenodd" d="M120 0c66.27 0 120 53.73 120 120 0 66.27-53.73 120-120 120C53.73 240 0 186.27 0 120 0 53.73 53.73 0 120 0z" fill="#8C52FF" fill-opacity=".2"/><path fill-rule="evenodd" clip-rule="evenodd" d="M120 36.5c46.12 0 83.5 37.38 83.5 83.5 0 46.11-37.38 83.5-83.5 83.5S36.5 166.11 36.5 120c0-46.12 37.38-83.5 83.5-83.5z" fill="#8C52FF" fill-opacity=".2"/><path fill-rule="evenodd" clip-rule="evenodd" d="M120.001 63.72c31.08 0 56.28 25.2 56.28 56.28 0 31.08-25.2 56.28-56.28 56.28-31.08 0-56.28-25.2-56.28-56.28 0-31.08 25.2-56.28 56.28-56.28z" fill="#8C52FF"/><path fill-rule="evenodd" clip-rule="evenodd" d="M149.33 120l-46.16 27.17V92.83L149.33 120z" fill="#fff"/></svg><svg fill="none" viewBox="0 0 12 25" id="ic_right" xmlns="http://www.w3.org/2000/svg"><path d="M.873 24.155a.514.514 0 01-.72.01.514.514 0 01-.01-.72L10.78 12.547.143 1.649a.514.514 0 01.01-.72.514.514 0 01.72.01l10.985 11.25c.19.2.19.516 0 .716L.873 24.155z" fill="#8C52FF"/></svg><svg fill="none" viewBox="0 0 27 30" id="ic_swipe" xmlns="http://www.w3.org/2000/svg"><path d="M24.882 2.55h-7.656a.638.638 0 000 1.277h7.656a.638.638 0 000-1.276z" fill="#DDD"/><path d="M25.334 2.739L22.782.187a.639.639 0 00-.902.902l2.1 2.1-2.101 2.102a.639.639 0 00.903.902l2.552-2.552a.639.639 0 000-.902zM8.296 2.55H.64a.638.638 0 000 1.277h7.656a.638.638 0 000-1.276z" fill="#DDD"/><path d="M1.54 3.19l2.1-2.101A.638.638 0 002.74.187L.187 2.739a.638.638 0 000 .902l2.552 2.552a.64.64 0 00.902-.001.638.638 0 000-.902l-2.1-2.1zM24.244 12.76c-.524 0-1.013.16-1.418.431a2.559 2.559 0 00-2.41-1.707c-.524 0-1.013.16-1.419.431a2.558 2.558 0 00-2.409-1.707c-.464 0-.9.125-1.276.343V6.38a2.555 2.555 0 00-2.552-2.552 2.555 2.555 0 00-2.552 2.552v10.846l-2.217-1.663a3.345 3.345 0 00-4.35.309 1.915 1.915 0 000 2.706l9.086 9.088a5.707 5.707 0 004.062 1.682h2.99c3.868 0 7.018-3.148 7.018-7.018v-7.018a2.555 2.555 0 00-2.553-2.552zm1.277 9.57a5.75 5.75 0 01-5.742 5.742h-2.99a4.438 4.438 0 01-3.16-1.308l-9.086-9.088a.639.639 0 010-.902 2.058 2.058 0 011.455-.597c.43 0 .865.134 1.228.407l3.238 2.428a.64.64 0 001.02-.51V6.38a1.277 1.277 0 012.552 0v9.57a.638.638 0 001.277 0v-3.19a1.277 1.277 0 012.551 0v3.19a.638.638 0 001.276 0v-1.914a1.277 1.277 0 012.552 0v1.914a.638.638 0 001.277 0v-.638a1.277 1.277 0 012.552 0v7.018z" fill="#DDD"/></svg><svg viewBox="0 0 24 24" id="ic_up" xmlns="http://www.w3.org/2000/svg"><path d="M0 0h24v24H0V0z" fill="none"/><path d="M4 12l1.41 1.41L11 7.83V20h2V7.83l5.58 5.59L20 12l-8-8-8 8z"/></svg><svg fill="none" viewBox="0 0 16 16" id="ic_vk" xmlns="http://www.w3.org/2000/svg"><path fill-rule="evenodd" clip-rule="evenodd" d="M4.516 0h6.968C14.064 0 16 2.065 16 4.516v6.968C16 14.064 14.065 16 11.484 16H4.516C2.065 16 0 14.065 0 11.484V4.516C0 2.065 2.065 0 4.516 0zm7.097 8.774c-.258-.258-.13-.387 0-.645 0 0 1.42-2.064 1.548-2.839.13-.258 0-.387-.387-.387h-1.161c-.258 0-.387.13-.516.387 0 0-.516 1.42-1.42 2.452-.258.258-.387.387-.516.387S8.903 8 8.903 7.742V5.29c0-.258 0-.387-.258-.387H6.71a.278.278 0 00-.258.258c0 .258.387.387.516 1.162v1.806c0 .516-.13.516-.258.516-.387 0-1.42-1.548-1.936-3.226-.129-.387-.258-.516-.516-.516h-1.29c-.258 0-.387.13-.387.387 0 .258.387 1.936 1.935 4 .903 1.549 2.323 2.323 3.613 2.323.645 0 .774-.258.774-.516 0-1.42 0-1.549.387-1.549.13 0 .387.13 1.162.775.774.903.903 1.29 1.29 1.29h1.29c.258 0 .516-.258.387-.516-.258-.774-1.806-2.323-1.806-2.323z" fill="#FFC0BF"/></svg></svg>