<svg width="31" height="27" viewBox="0 0 31 27" fill="none" xmlns="http://www.w3.org/2000/svg">
<path d="M29.5909 14.9211C29.1682 14.9211 28.8864 15.2053 28.8864 15.6316V24.8684C28.8864 25.2948 28.6046 25.5789 28.1819 25.5789H2.81818C2.39545 25.5789 2.11366 25.2947 2.11366 24.8684V15.6316C2.11366 15.2053 1.83182 14.9211 1.40914 14.9211C0.98646 14.9211 0.704614 15.2053 0.704614 15.6316V24.8684C0.704614 26.0763 1.62051 27 2.81825 27H28.1819C29.3796 27 30.2955 26.0763 30.2955 24.8684V15.6316C30.2955 15.2053 30.0137 14.9211 29.5909 14.9211Z" fill="#8C52FF"/>
<path d="M28.8864 4.9737H2.11363C0.915893 4.9737 0 5.89736 0 7.10527V11.6526C0 12.6473 0.704523 13.5 1.62048 13.7131L12.6818 16.1999V18.4736C12.6818 18.8999 12.9637 19.1841 13.3864 19.1841H17.6136C18.0364 19.1841 18.3182 18.8999 18.3182 18.4736V16.1999L29.3795 13.7131C30.2955 13.5 31 12.6473 31 11.6526V7.1052C31 5.89736 30.0841 4.9737 28.8864 4.9737ZM16.9091 17.7631H14.091V14.921H16.9091V17.7631ZM29.5909 11.6526C29.5909 12.0078 29.3795 12.2921 29.0273 12.3631L18.3182 14.7789V14.2105C18.3182 13.7841 18.0363 13.5 17.6136 13.5H13.3864C12.9636 13.5 12.6818 13.7842 12.6818 14.2105V14.7789L1.97274 12.3631C1.62048 12.2921 1.40911 12.0079 1.40911 11.6526V7.10527C1.40911 6.67894 1.69095 6.39476 2.11363 6.39476H28.8864C29.3091 6.39476 29.5909 6.679 29.5909 7.10527V11.6526Z" fill="#8C52FF"/>
<path d="M19.0215 0H11.976C10.7783 0 9.86241 0.923665 9.86241 2.13157V2.84207C9.86241 3.26839 10.1443 3.55257 10.5669 3.55257C10.9896 3.55257 11.2715 3.26833 11.2715 2.84207V2.13157C11.2715 1.70524 11.5533 1.42106 11.976 1.42106H19.0215C19.4442 1.42106 19.726 1.7053 19.726 2.13157V2.84207C19.726 3.26839 20.0078 3.55257 20.4305 3.55257C20.8532 3.55257 21.135 3.26833 21.135 2.84207V2.13157C21.1352 0.923665 20.2193 0 19.0215 0Z" fill="#8C52FF"/>
</svg>
