<svg width="31" height="27" viewBox="0 0 31 27" fill="none" xmlns="http://www.w3.org/2000/svg">
<path d="M29.9404 0H1.05957C0.475354 0 0 0.479447 0 1.0687V4.8302C0 5.42238 0.908203 5.42238 0.908203 4.8302V1.0687C0.908203 0.984543 0.976076 0.916025 1.05957 0.916025H29.9404C30.0239 0.916025 30.0918 0.984543 30.0918 1.0687V23.4038C30.0918 23.4879 30.0239 23.5564 29.9404 23.5564H24.1212V22.6034H28.6884C28.9393 22.6034 29.1425 22.3983 29.1425 22.1454V17.3491C29.1425 16.757 28.2343 16.757 28.2343 17.3491V21.6874H24.1212V19.6552C24.1359 19.6565 24.1508 19.6578 24.1648 19.6591C24.5418 19.6925 25.0106 19.734 25.3355 19.4058C25.6599 19.0779 25.6189 18.6045 25.5859 18.2241C25.5504 17.8159 25.5886 17.7041 25.8997 17.4433C26.7007 16.7716 26.7156 16.0523 25.8997 15.3682C25.5886 15.1072 25.5505 14.9956 25.5859 14.5873C25.6748 13.5627 25.2003 13.0606 24.1648 13.1524C23.7607 13.1882 23.651 13.1495 23.3933 12.8356C22.7283 12.0259 22.0147 12.0109 21.3374 12.8356C21.0797 13.1494 20.9701 13.1883 20.566 13.1524C19.5494 13.0623 19.0541 13.5435 19.1448 14.5873C19.1802 14.9956 19.1421 15.1072 18.831 15.3682C18.03 16.0399 18.0152 16.7593 18.831 17.4433C19.1421 17.7043 19.1802 17.8159 19.1448 18.2243C19.0494 19.3216 19.5691 19.7459 20.6094 19.6553V21.6875H2.76572V2.78502H28.2343V14.9064C28.2343 15.4986 29.1425 15.4986 29.1425 14.9064V2.32701C29.1425 2.07406 28.9393 1.869 28.6884 1.869H2.31162C2.06077 1.869 1.85752 2.07406 1.85752 2.32701V22.1454C1.85752 22.3983 2.06077 22.6034 2.31162 22.6034H20.6094V23.5564H1.05957C0.976076 23.5564 0.908203 23.4879 0.908203 23.4038V7.15073C0.908203 6.55855 0 6.55855 0 7.15073V23.4038C0 23.993 0.475354 24.4725 1.05957 24.4725H20.6094V26.5457C20.6741 26.9222 20.8893 27.0606 21.255 26.961L22.3653 26.4401L23.4755 26.961C23.7502 27.0898 24.1212 26.8862 24.1212 26.5457V24.4725H29.9404C30.5246 24.4725 31 23.993 31 23.4038V1.0687C31 0.479386 30.5246 0 29.9404 0ZM20.4863 18.7464C20.0318 18.7868 20.0097 18.7623 20.0494 18.304C20.1105 17.6007 19.9501 17.1903 19.4115 16.7388C19.043 16.4297 19.0431 16.3815 19.4115 16.0724C19.9501 15.6209 20.1105 15.2105 20.0494 14.5073C20.0097 14.0489 20.0318 14.0246 20.4863 14.0648C21.1837 14.1267 21.59 13.9638 22.0367 13.4198C22.3419 13.0483 22.3886 13.0483 22.6938 13.4198C23.1406 13.9638 23.5468 14.1265 24.2442 14.0648C24.6988 14.0244 24.7208 14.049 24.6811 14.5072C24.6201 15.2105 24.7804 15.6208 25.319 16.0724C25.6874 16.3815 25.6876 16.4298 25.3189 16.7388C24.7804 17.1904 24.6199 17.6006 24.681 18.3039C24.7209 18.7621 24.6988 18.7868 24.2442 18.7464C23.959 18.7212 23.6354 18.6925 23.3506 18.8118C23.075 18.9273 22.8811 19.1632 22.6938 19.3914C22.6055 19.4989 22.4444 19.6951 22.3652 19.7302C22.286 19.6951 22.1249 19.4989 22.0366 19.3914C21.8492 19.1632 21.6555 18.9273 21.3798 18.8118C21.0859 18.7214 20.788 18.6996 20.4863 18.7464ZM22.5568 25.5198C22.4353 25.4628 22.2952 25.4628 22.1738 25.5198L21.5176 25.8276V20.188C21.7331 20.427 21.999 20.6488 22.3653 20.6488C22.7316 20.6488 22.9975 20.427 23.2129 20.1881V25.8276L22.5568 25.5198Z" fill="#8C52FF"/>
<path d="M5.889 6.61889H21.5432C22.1303 6.61889 22.1303 5.70287 21.5432 5.70287H5.889C5.30182 5.70287 5.30182 6.61889 5.889 6.61889Z" fill="#8C52FF"/>
<path d="M25.5652 8.94681C25.5652 8.69387 25.3619 8.4888 25.1111 8.4888H5.88899C5.30187 8.4888 5.30187 9.40483 5.88899 9.40483H25.1111C25.3619 9.40483 25.5652 9.19976 25.5652 8.94681Z" fill="#8C52FF"/>
<path d="M17.2642 11.7324C17.2642 11.4795 17.0609 11.2744 16.8101 11.2744H5.88899C5.30187 11.2744 5.30187 12.1905 5.88899 12.1905H16.8101C17.0609 12.1905 17.2642 11.9854 17.2642 11.7324Z" fill="#8C52FF"/>
<path d="M11.3011 18.1167C11.0535 18.1172 10.8059 18.1175 10.5583 18.1177C10.082 18.118 9.81979 17.99 9.72249 17.4805C9.63367 17.0155 8.96862 17.0747 8.84674 17.4805C8.79279 17.6603 8.52033 18.1748 8.28232 18.1327C8.1562 18.1104 8.1011 17.9142 8.05448 17.8126C7.96372 17.6148 7.8976 17.4051 7.84099 17.195C7.60195 16.3075 7.55424 15.3808 7.40469 14.4765C7.31799 13.9521 6.52549 14.1003 6.51272 14.5982C6.47203 16.1842 6.21495 17.7485 5.65513 19.2351C5.44739 19.7867 6.32502 20.0253 6.53088 19.4786C6.74673 18.9054 6.91808 18.3185 7.05104 17.7229C7.12236 17.9399 7.20743 18.1528 7.31127 18.3599C7.57646 18.8885 8.11733 19.2012 8.69604 18.9661C8.90256 18.8822 9.09098 18.7355 9.25137 18.557C9.68101 19.0567 10.3202 19.0341 10.9165 19.0333C11.8155 19.0322 12.7144 19.03 13.6134 19.0275C14.1977 19.0259 14.1988 18.1098 13.6134 18.1115C12.8426 18.1137 12.0719 18.1155 11.3011 18.1167Z" fill="#8C52FF"/>
<path d="M22.3653 18.1946C23.3433 18.1946 24.139 17.3921 24.139 16.4056C24.139 15.4192 23.3433 14.6167 22.3653 14.6167C21.3873 14.6167 20.5916 15.4193 20.5916 16.4056C20.5916 17.392 21.3873 18.1946 22.3653 18.1946ZM22.3653 15.5327C22.8425 15.5327 23.2308 15.9244 23.2308 16.4056C23.2308 16.8869 22.8425 17.2785 22.3653 17.2785C21.888 17.2785 21.4998 16.887 21.4998 16.4056C21.4998 15.9243 21.888 15.5327 22.3653 15.5327Z" fill="#8C52FF"/>
</svg>
