<svg width="80" height="28" viewBox="0 0 80 28" fill="none" xmlns="http://www.w3.org/2000/svg">
<path d="M9.53516 11.7254L68.6155 4.10059L69.9298 14.2919L10.8494 21.9229L9.53516 11.7254Z" fill="#FFC0BF"/>
<path d="M5.84704 24.0015C5.87195 23.9703 5.87195 23.9703 5.86572 23.9143L6.56958 23.4533C7.71568 22.7246 8.79949 21.8961 9.88954 20.9182C10.5498 20.2953 11.1228 19.6288 11.6834 18.9001C12.0572 18.4765 12.3998 17.9969 12.7112 17.5173C13.1784 16.9131 13.5023 16.2715 13.8511 15.6237C14.0068 15.2749 14.1687 14.9821 14.3369 14.6582C14.667 13.8734 14.8664 13.0761 15.1467 12.2975C15.3211 11.5812 15.5328 10.896 15.5453 10.1984C15.5951 9.33261 15.5391 8.50417 15.1155 7.93735C14.7605 7.41413 14.2746 7.04663 13.6455 6.83485C12.7548 6.53587 11.8018 6.49849 10.8052 6.51718C9.7525 6.56701 8.65623 6.71027 7.52882 7.07777C6.91216 7.33316 6.25814 7.42659 5.64148 7.65705L4.75076 7.91866C4.37703 8.06193 3.90987 8.39205 3.51746 8.34845C3.40534 8.36091 3.27453 8.45434 3.23716 8.62875C3.15619 8.88413 3.04407 9.14574 3.01915 9.45095C3.01292 9.93057 2.95686 10.4912 3.08767 10.9459L3.14373 11.5002C3.18733 11.8802 3.35551 12.1979 3.69186 12.2228C3.89119 12.2539 4.05314 12.2415 4.22131 12.2228C4.62619 12.1231 5.04975 11.9425 5.52937 11.6996C5.63526 11.6871 5.71623 11.6497 5.85326 11.6061C5.77229 11.9487 5.69131 12.2103 5.6664 12.5155C5.49822 13.3128 5.30513 14.1101 5.13695 14.9323C5.03106 15.5303 4.90648 16.2092 4.75076 16.8321L3.96593 20.3078L3.71055 21.3605C3.6358 21.6719 3.61089 21.703 3.31191 21.8152C2.73263 22.1017 3.64203 21.7529 3.00669 22.0394C2.52085 22.2325 2.04123 22.3944 1.56161 22.6374C1.26885 22.7183 0.982329 22.9177 0.670888 23.1419C0.508939 23.1855 0.359447 23.3724 0.297159 23.5405C0.222413 23.8831 0.116523 24.2319 0.0168621 24.5994C-0.00805314 24.6555 -0.0205108 24.7988 0.0916079 24.7863C0.191269 24.9732 0.216184 25.1912 0.209955 25.4154C0.259786 25.6023 0.297159 25.7082 0.465337 25.7518C0.783007 25.8577 1.07576 26.0196 1.53046 25.8078C1.55538 25.7767 1.63635 25.7705 1.72356 25.8141C2.12843 25.6895 2.53953 25.621 2.96932 25.5213C3.7853 25.322 3.07521 25.4528 3.87873 25.1476C4.06559 25.104 4.27737 24.9981 4.42686 25.0666C4.60127 25.1289 4.67602 25.0417 4.79436 24.886C5.04975 24.3877 5.16187 24.4063 5.48576 24.288C5.76606 24.3191 6.21454 24.0762 6.4886 23.771L5.84704 24.0015ZM8.58771 19.0496C6.43254 21.3044 4.80682 21.7217 5.98407 18.3208C6.09619 17.81 6.10865 17.3616 6.17093 16.9131C6.34534 16.1718 6.52598 15.4555 6.66924 14.7205C6.86856 13.9232 7.06165 13.126 7.19869 12.3038C7.26098 12.0733 7.3731 11.7868 7.49144 11.5812C7.45407 11.5252 7.52882 11.4068 7.58488 11.4068C7.70945 11.3071 7.8714 11.2635 7.97729 11.2262C9.48466 10.7092 10.8301 10.5721 12.1444 10.6593C12.5368 10.7029 12.9354 10.7715 13.3029 10.8462C13.415 10.8587 13.5147 11.0144 13.4773 11.1888C13.4773 12.0235 13.2033 12.8581 12.8233 13.7551C12.3188 14.8077 11.6398 15.767 10.9048 16.7013C10.2134 17.5796 9.43483 18.3519 8.58771 19.0496Z" fill="white"/>
<path d="M23.3998 17.4495C23.3998 17.4495 23.4309 17.4432 23.4247 17.4183C23.5867 17.6488 23.7798 17.8793 23.8358 18.1534C23.8857 18.3402 23.9853 18.5271 24.0601 18.714C24.3154 19.0192 24.4898 19.3618 24.6643 19.7044C24.8511 19.9411 25.0318 20.0844 24.957 20.4519C24.9383 20.5391 24.9944 20.5329 25.0006 20.5641C25.1003 20.7198 25.1937 20.8444 25.3183 20.944C25.5051 21.1745 25.6982 21.4362 25.8664 21.6978C25.9598 21.8224 26.0034 21.9594 26.1031 22.0902L26.8506 22.8751C27.0001 23.0246 27.162 22.981 27.4174 22.7318L27.8596 22.1837C28.0839 21.9407 28.1026 21.8535 28.0029 21.6729C27.8659 21.187 27.76 20.6949 27.6603 20.2028C27.6292 20.1779 27.6541 20.1779 27.6541 20.1529C27.6541 19.8975 27.7101 19.6172 27.4984 19.474C27.4984 19.4428 27.5171 19.3556 27.5357 19.2995C27.5108 18.7763 27.5108 18.2468 27.5171 17.7173C27.4984 17.5803 27.4797 17.4183 27.4423 17.2813C27.4174 17.0321 27.3177 16.8764 27.2368 16.6646C27.1869 16.4216 27.081 16.2098 27.0312 15.9918C26.9253 15.78 26.8506 15.562 26.7696 15.3502C26.6886 15.1073 26.6076 14.8643 26.5578 14.6214C26.3087 13.5624 26.0346 13.6185 26.9689 12.9395C27.9406 12.1173 28.7379 11.2016 29.4978 10.236C29.8342 9.73147 30.1456 9.25183 30.3449 8.75972C30.7685 7.74436 30.9491 6.80998 30.8121 5.9628C30.6813 5.25267 30.4197 4.61107 29.9899 4.18125C29.4729 3.73275 28.7815 3.52719 27.978 3.55833C27.6416 3.53341 27.2554 3.54587 26.8942 3.55833C26.0844 3.52719 25.1003 3.658 24.2033 3.83242C22.9264 4.13142 21.6184 4.39927 20.3352 4.89761L18.4043 5.59528C18.2237 5.69495 17.987 5.80085 17.8935 6.00641L17.3579 7.00931C17.2831 7.09652 17.2893 7.15258 17.2707 7.23979C17.1834 7.49519 17.0713 7.7319 17.0153 7.9873C16.9218 8.46695 17.0215 8.90299 17.0651 9.31412C17.1025 9.3951 17.1398 9.47608 17.2021 9.55083C17.2644 9.65672 17.3392 9.78754 17.4264 9.86229C17.5883 10.0928 17.8998 10.1488 18.2984 9.93704C19.077 9.41379 20.3788 9.36395 19.6002 10.7531C19.0396 12.2792 18.5787 13.7742 18.205 15.2817L17.962 16.1413C17.8686 16.322 17.7939 16.4092 17.607 16.4839L16.8907 16.8079C16.7848 16.8764 16.6789 16.9137 16.5979 16.9511C16.6353 17.0321 16.7163 17.0508 16.7786 17.0695C16.8097 17.1193 16.9218 17.138 16.9281 17.1941C16.9468 17.3872 17.034 17.4059 17.1772 17.4183C17.5385 17.437 17.5385 17.437 17.4139 17.8357C17.4139 17.8917 17.3703 18.0101 17.3516 18.0662C17.1398 18.7264 16.9592 19.4117 16.8097 20.0657C16.7163 20.3024 16.7101 20.4955 16.7599 20.6824C16.7973 20.7634 16.7786 20.8755 16.735 20.9939C16.6229 21.5607 16.5107 22.0715 16.3737 22.6135C16.274 23.0121 16.2242 23.3485 16.2865 23.6787C16.274 23.7908 16.2803 23.9029 16.2367 24.015C16.1619 24.3327 16.2242 24.4324 16.4734 24.4075C16.5855 24.395 16.6665 24.3639 16.7474 24.3826C16.8845 24.3701 16.9966 24.3577 17.1149 24.1459C17.1398 24.1209 17.2706 24.0773 17.2956 24.0462C17.4326 24.0337 17.6195 23.9029 17.744 23.8095C18.0929 23.6351 18.3856 23.5167 18.6348 23.2426C18.6597 23.2426 18.6597 23.2426 18.6846 23.2115L19.4009 22.8876C19.7746 22.7069 19.8992 22.5574 19.9926 22.1587C20.0985 21.8161 20.1484 21.5047 20.2543 21.1621C20.4598 20.4706 20.6404 19.7854 20.8709 19.0691C21.0702 18.5458 21.2384 18.0039 21.3256 17.518C21.4502 17.0882 21.5187 16.6957 21.6433 16.2908C21.6557 16.1538 21.7305 16.0603 21.8862 15.9607C22.3035 15.6679 22.4717 15.7115 22.615 15.9981C22.8268 16.4777 23.0198 16.9574 23.2067 17.437C23.2503 17.599 23.35 17.7547 23.4683 17.8294C23.4932 17.8294 23.4932 17.7983 23.5182 17.7983C23.4808 17.6613 23.4683 17.5491 23.3998 17.4495ZM26.3896 11.6688C24.8823 12.653 22.2101 15.8735 21.7118 12.871C21.7056 12.5907 21.6246 12.3228 21.4938 12.111C21.4004 12.0114 21.3256 11.8494 21.282 11.7186L21.145 11.1455C20.9643 9.41378 21.0204 9.38264 23.7985 8.29253C24.6144 8.12434 25.3993 7.96238 26.1529 7.93746C26.4021 7.94369 26.645 7.88763 26.8942 7.86271C27.4921 7.7755 27.9531 7.91878 28.3891 8.12434C28.769 8.28007 28.7566 8.69743 28.3891 9.20822C27.9344 9.89343 27.4548 10.6409 26.8755 11.2265L26.3896 11.6688Z" fill="white"/>
<path d="M44.9198 15.2639C44.9198 15.2639 44.9509 15.2577 44.9447 15.2328C45.1129 15.4632 45.2998 15.6937 45.3558 15.9678C45.4056 16.1547 45.5053 16.3416 45.58 16.5284C45.8354 16.8337 46.0098 17.1763 46.1842 17.5189C46.3711 17.7556 46.5517 17.8989 46.4832 18.2664C46.4645 18.3536 46.5144 18.3474 46.5206 18.3785C46.6203 18.5342 46.7137 18.6651 46.8383 18.7585C47.0251 18.989 47.2182 19.2506 47.3864 19.5122C47.4861 19.6368 47.5234 19.7739 47.6231 19.9047L48.3706 20.6896C48.5263 20.8391 48.6882 20.7955 48.9374 20.5463L49.3859 19.9981C49.6039 19.7552 49.6288 19.668 49.5229 19.4873C49.3921 19.0014 49.2862 18.5093 49.1803 18.0235C49.1492 17.9985 49.1741 17.9923 49.1741 17.9674C49.1741 17.7182 49.2301 17.4317 49.0184 17.2884C49.0184 17.2573 49.037 17.1763 49.0557 17.114C49.0308 16.5907 49.037 16.0613 49.037 15.5318C49.0246 15.3947 49.0059 15.2328 48.9623 15.0957C48.9374 14.8466 48.8377 14.6908 48.763 14.479C48.7069 14.2361 48.601 14.0243 48.5512 13.8063C48.4515 13.5945 48.3706 13.3765 48.2896 13.1647C48.2148 12.9217 48.1339 12.6788 48.0778 12.4359C47.8287 11.3769 47.5608 11.433 48.4889 10.754C49.4606 9.93171 50.2579 9.01602 51.0178 8.05049C51.3542 7.54593 51.6656 7.06628 51.8649 6.57417C52.2947 5.55881 52.4754 4.62443 52.3321 3.77726C52.2013 3.06713 51.9397 2.42552 51.5099 1.9957C50.9929 1.5472 50.3015 1.34164 49.498 1.37278C49.1616 1.34787 48.7754 1.36033 48.4142 1.37278C47.6106 1.34164 46.6203 1.47245 45.7233 1.64687C44.4464 1.94587 43.1384 2.21996 41.8552 2.71206L39.9305 3.40973C39.7436 3.5094 39.507 3.6153 39.4135 3.82086L38.8778 4.82376C38.8031 4.91097 38.8093 4.96704 38.7906 5.05424C38.7097 5.30964 38.5913 5.54635 38.5353 5.80175C38.4481 6.2814 38.5415 6.71744 38.5851 7.12857C38.6225 7.20955 38.6598 7.29053 38.7221 7.36528C38.7906 7.47118 38.8592 7.60199 38.9464 7.67674C39.1145 7.91345 39.426 7.96328 39.8184 7.75772C40.597 7.22824 41.8988 7.1784 41.1264 8.56752C40.5596 10.0937 40.0987 11.5887 39.7312 13.0962L39.482 13.9558C39.3886 14.1364 39.3139 14.2236 39.127 14.2984L38.4107 14.6223C38.3048 14.6908 38.1989 14.7282 38.1179 14.7656C38.1553 14.8466 38.2425 14.8652 38.2986 14.8839C38.3297 14.94 38.4481 14.9525 38.4481 15.0085C38.473 15.2016 38.5539 15.2203 38.6972 15.2328C39.0585 15.2515 39.0585 15.2515 38.9339 15.6564C38.9401 15.7062 38.8965 15.8245 38.8716 15.8806C38.6661 16.5409 38.4854 17.2261 38.3297 17.8802C38.2425 18.1169 38.23 18.31 38.2799 18.4969C38.3173 18.5779 38.2986 18.69 38.255 18.8083C38.1491 19.3752 38.037 19.886 37.8937 20.4279C37.794 20.8266 37.7504 21.1692 37.8127 21.4931C37.794 21.6052 37.8065 21.7174 37.7629 21.8295C37.6819 22.1472 37.7504 22.2469 37.9934 22.2219C38.1055 22.2157 38.1864 22.1783 38.2736 22.197C38.4107 22.1846 38.5166 22.1721 38.6349 21.9665C38.6598 21.9354 38.7969 21.8918 38.8218 21.8606C38.9588 21.8482 39.1395 21.7174 39.264 21.6239C39.6128 21.4495 39.9056 21.3374 40.1548 21.0571C40.1797 21.0571 40.1797 21.0571 40.2046 21.0259L40.9209 20.702C41.2946 20.5276 41.4192 20.3719 41.5189 19.9732C41.6185 19.6306 41.6684 19.3191 41.7742 18.9765C41.9798 18.2851 42.1604 17.5999 42.3909 16.8835C42.5902 16.3603 42.7584 15.8183 42.8456 15.3324C42.9702 14.9088 43.0387 14.5102 43.1633 14.1115C43.1757 13.9682 43.2505 13.8748 43.4062 13.7751C43.8235 13.4824 43.9917 13.526 44.135 13.8125C44.353 14.2922 44.5398 14.7718 44.7267 15.2515C44.7703 15.4196 44.87 15.5691 44.9883 15.6439C45.0195 15.6439 45.0132 15.6127 45.0444 15.6127C45.0008 15.4757 44.9883 15.3698 44.9198 15.2639ZM47.9159 9.48321C46.4023 10.4674 43.7363 13.6879 43.2318 10.6854C43.2318 10.4051 43.1508 10.1373 43.0138 9.92548C42.9203 9.82582 42.8518 9.66386 42.8082 9.53304L42.665 8.96619C42.4906 7.22824 42.5404 7.19709 45.3184 6.10698C46.1344 5.93879 46.9255 5.77683 47.6729 5.75192C47.9221 5.75815 48.165 5.70208 48.4142 5.67717C49.0184 5.58996 49.4731 5.73323 49.9153 5.94502C50.289 6.09452 50.2766 6.51811 49.9153 7.02268C49.4544 7.70789 48.9748 8.45539 48.3955 9.04094L47.9159 9.48321Z" fill="white"/>
<path d="M52.3073 14.0045C52.3447 14.0855 52.326 14.1664 52.3634 14.2474C52.4568 15.2129 52.6997 16.1597 53.1669 16.9445C53.7088 17.9162 54.4438 18.5951 55.4466 19.0997C55.8266 19.3114 56.2813 19.4298 56.7547 19.4111C56.9478 19.3924 57.1409 19.4236 57.3402 19.436C57.5956 19.4921 57.8696 19.4609 58.1562 19.2678C58.3181 19.1931 58.4738 19.1495 58.6358 19.0498C59.3334 18.8131 59.894 18.3647 60.3176 17.8539C60.791 17.2995 61.1522 16.795 61.5696 16.278C61.6381 16.1285 61.7876 15.9479 61.8 15.8108C62.0741 15.2253 62.4354 14.6585 62.5101 14.0419C62.6285 13.556 62.8278 13.0888 62.8651 12.6155C62.9835 11.8805 63.1828 11.1081 63.1579 10.3606C63.1268 9.75643 63.2825 9.10241 63.3012 8.46084C63.27 8.15562 63.2638 7.85041 63.2326 7.55143C63.2825 7.46423 63.2326 7.29605 63.2825 7.20884C63.4818 6.69185 63.5815 6.06897 63.5752 5.48346C63.5316 4.74223 63.4257 4.001 63.1392 3.36566C62.8776 2.69295 62.616 2.05761 62.18 1.60291C61.8062 1.22295 61.445 0.923968 61.0463 0.606299C60.8096 0.406976 60.4359 0.332231 60.0248 0.350917C59.1154 0.469265 58.1686 0.730875 57.4149 1.44719C57.1346 1.72749 56.8793 1.94549 56.599 2.20088C56.5304 2.34414 56.4059 2.4438 56.2003 2.38151C55.8702 2.38774 55.5401 2.4438 55.2722 2.78016C54.9296 3.25977 54.6182 3.76431 54.45 4.2813L53.9268 5.67033C53.7835 5.90702 53.6839 6.27452 53.6029 6.56728L52.5689 10.3357C52.2575 11.5939 52.0768 12.8086 52.3073 14.0045ZM54.5933 10.5163C55.1539 10.5724 55.5961 10.5537 56.001 10.7344C56.1816 10.8278 56.3934 10.753 56.6114 10.7281C56.7484 10.7157 56.9042 10.616 56.8917 10.4478C57.0723 9.7938 57.3153 9.18338 57.5208 8.49198C57.5146 8.41101 57.5395 8.35495 57.6143 8.29266C57.7451 7.91893 57.8447 7.57635 57.9195 7.20262C58.0191 6.80397 58.2371 6.50499 58.3929 6.15617C58.6482 5.65787 58.8476 5.16579 59.1029 4.66749C59.1964 4.48685 59.321 4.36228 59.4268 4.3249C59.6075 4.16918 59.7943 4.12558 59.9563 4.02592C60.33 3.87643 60.6415 3.95117 60.8844 4.17541C61.2207 4.44948 61.364 4.76715 61.3827 5.20939C61.4325 6.26206 61.4138 7.42685 61.3515 8.46707C61.2207 10.1177 60.8595 11.7372 60.2366 13.2446C59.676 14.6087 58.8289 15.7797 57.8759 16.8199C57.6018 17.1313 57.2343 17.3058 56.8917 17.5051C56.736 17.6359 56.5118 17.5985 56.3373 17.5113C55.8951 17.2746 55.7207 16.9071 55.5837 16.4213C55.403 15.7174 55.1663 15.0198 54.8923 14.2661C54.8175 13.8301 54.6369 13.4314 54.5061 12.9705C54.4812 12.6715 54.531 12.385 54.5248 12.0549C54.5248 11.7497 54.5123 11.3884 54.587 11.0209C54.5746 10.8838 54.5559 10.7157 54.5933 10.5163Z" fill="white"/>
<path d="M65.7925 8.56026C65.7738 8.64123 65.8111 8.72221 65.7925 8.77827C66.0105 8.23013 66.1164 7.63839 66.4714 7.04043C66.4652 7.23975 66.434 7.43907 66.3967 7.63217L65.5807 10.5535C65.0388 12.5778 64.7149 14.5337 64.8208 16.3837C64.8644 17.0751 64.9391 17.7851 64.8457 18.5451C64.8145 18.7444 65.0948 19.0496 65.2319 19.062C65.5682 19.087 65.9482 19.0184 66.3593 18.9188C66.7081 18.8004 67.0507 18.6011 67.3808 18.3395C67.5614 18.1838 67.7047 17.9782 67.9539 17.9222C68.0037 17.9159 68.0784 17.8287 68.1283 17.7415C68.4273 17.4052 68.502 17.0626 68.5456 16.6951C68.6141 16.2466 68.7013 15.7608 68.9006 15.2687C69.075 14.8078 69.1934 14.3468 69.3429 13.8921C69.4675 13.4873 69.6232 13.0824 69.891 12.7211C70.3021 12.1543 70.6073 11.5688 70.8191 10.9584C70.9998 10.5223 71.2053 10.1175 71.4981 9.72505C71.797 9.33263 72.0275 8.92153 72.1832 8.51666C72.3576 8.08064 72.5943 7.69445 72.9245 7.32695C73.1238 7.14009 73.267 6.90339 73.3854 6.69784L75.3288 3.19102C76.4064 2.85466 74.9924 6.14348 74.9052 7.45776C74.8056 8.08064 74.6997 8.70352 74.5689 9.29526L74.6249 9.28903C74.7184 8.89039 74.818 8.46683 74.8865 8.06818C74.9426 8.06195 74.9675 8.06195 74.9924 8.03081C74.8429 8.46683 75.0111 8.75335 74.8367 9.18937C74.6561 9.59424 74.7744 9.96797 74.4817 10.3604C74.5502 10.4663 74.6623 10.5099 74.6436 10.5971C74.6374 10.7902 74.6062 11.0144 74.5439 11.22C74.4381 11.5314 74.463 11.8055 74.5626 11.9674C74.7557 12.2228 74.4567 13.0886 74.4381 13.4499C74.4256 13.5931 74.4131 13.7302 74.4256 13.8423C74.5564 14.3281 74.6934 14.8389 74.8492 15.2998C75.1357 16.2155 76.1634 16.1656 77.0355 15.7421C77.4279 15.5365 77.8203 15.2687 78.2127 15.0071C78.4183 14.8763 78.5927 14.6894 78.7359 14.4527C78.9228 14.1039 79.1159 13.8049 79.3028 13.481C79.446 13.2132 79.5831 12.9516 79.6952 12.69C79.7201 12.6339 79.7326 12.5218 79.6765 12.4969C79.5519 12.3723 79.5021 12.1792 79.4772 11.9363C78.9726 12.4284 78.7297 13.0388 78.138 13.4873L77.9324 13.1198C77.9262 13.0637 77.8951 13.0139 77.8639 12.9578C77.702 12.7834 77.9075 12.0422 77.9823 11.6996C78.0632 11.3819 78.0321 11.1078 77.9262 10.8462C77.8888 10.7653 77.9013 10.6531 77.92 10.5348C77.9511 10.2856 78.0383 10.0552 78.0383 9.79979C78.1006 9.35132 78.138 8.87793 78.2563 8.39208C78.3124 8.16162 78.2376 7.94984 78.3248 7.71937C78.4868 7.37056 78.5304 7.02797 78.6114 6.71653C78.7795 5.91924 79.6827 3.88242 79.8509 3.11627C80.0128 2.23801 80.0689 1.39712 79.882 0.668348C79.7575 0.263475 79.4834 0.0392378 79.0349 0.00186492C78.4743 -0.0230503 77.8577 0.207416 77.2659 0.350679C77.1538 0.388052 76.9981 0.462797 76.886 0.475255C76.6617 0.469026 76.4562 0.599831 76.2818 0.786696L76.0015 1.03585C74.9737 1.83937 73.5037 4.06928 72.8622 5.10949C72.3389 5.96907 71.9029 6.84733 71.4358 7.70068C70.1713 9.49458 70.5575 8.37339 70.8316 6.14971C70.8876 5.64517 70.8378 5.17801 71.087 4.62365C71.1617 4.5053 71.1181 4.37449 71.0807 4.29352C70.9686 4.02568 70.8627 3.75784 70.7008 3.55229C70.3395 2.97924 69.6294 2.85466 68.882 2.87958C68.4397 2.89826 67.9601 3.08513 67.5365 3.04153C67.2874 3.04153 67.1815 3.13496 67.1005 3.42149C66.9822 3.85127 66.8576 4.28106 66.7642 4.70462L65.7925 8.56026Z" fill="white"/>
<path d="M21.9489 24.9113C21.6686 24.9113 21.4444 25.0047 21.2762 25.1978C21.1142 25.3847 21.027 25.6463 21.027 25.9702C21.027 26.3128 21.108 26.5806 21.2637 26.7612C21.4257 26.9481 21.6561 27.0415 21.9489 27.0415C22.1295 27.0415 22.3351 27.0104 22.5718 26.9419V27.2035C22.3849 27.272 22.1669 27.3094 21.9053 27.3094C21.5191 27.3094 21.2263 27.191 21.0146 26.9606C20.809 26.7301 20.7031 26.4 20.7031 25.9702C20.7031 25.7023 20.753 25.4719 20.8588 25.2725C20.9585 25.067 21.1018 24.9113 21.2886 24.8054C21.4817 24.6933 21.6997 24.6372 21.9551 24.6372C22.2292 24.6372 22.4659 24.687 22.6714 24.7867L22.5406 25.0483C22.3413 24.9549 22.1482 24.9113 21.9489 24.9113Z" fill="white"/>
<path d="M27.0868 25.9702C27.0868 26.3875 26.9809 26.7176 26.7754 26.9543C26.5636 27.191 26.2708 27.3094 25.8971 27.3094C25.5171 27.3094 25.2182 27.191 25.0064 26.9543C24.8008 26.7239 24.7012 26.3937 24.7012 25.9702C24.7012 25.5466 24.8071 25.2165 25.0126 24.986C25.2244 24.7556 25.5171 24.6372 25.8971 24.6372C26.2708 24.6372 26.5636 24.7556 26.7754 24.9922C26.9809 25.2289 27.0868 25.5528 27.0868 25.9702ZM25.0188 25.9702C25.0188 26.3252 25.0936 26.5868 25.2431 26.7675C25.3926 26.9481 25.6106 27.0415 25.8971 27.0415C26.1836 27.0415 26.4016 26.9543 26.5511 26.7737C26.6944 26.5931 26.7691 26.3252 26.7691 25.9702C26.7691 25.6276 26.6944 25.3597 26.5511 25.1791C26.4016 24.9985 26.1836 24.905 25.8971 24.905C25.6106 24.905 25.3926 24.9985 25.2431 25.1791C25.0936 25.3597 25.0188 25.6276 25.0188 25.9702Z" fill="white"/>
<path d="M30.837 26.5806C30.837 26.8111 30.7498 26.9917 30.5879 27.1225C30.4197 27.2471 30.1955 27.3094 29.9089 27.3094C29.6037 27.3094 29.367 27.272 29.2051 27.1848V26.892C29.3047 26.9419 29.4231 26.9792 29.5477 27.0042C29.6722 27.0291 29.803 27.0415 29.9276 27.0415C30.1269 27.0415 30.2764 27.0042 30.3761 26.9294C30.4758 26.8547 30.5256 26.7488 30.5256 26.6117C30.5256 26.5183 30.5069 26.4498 30.4758 26.3937C30.4384 26.3314 30.3761 26.2816 30.2951 26.2318C30.2079 26.182 30.0833 26.1259 29.9089 26.0698C29.666 25.9826 29.4978 25.8767 29.3919 25.7584C29.2861 25.64 29.2362 25.4843 29.2362 25.2975C29.2362 25.0981 29.311 24.9362 29.4605 24.8178C29.61 24.6995 29.8093 24.6372 30.0584 24.6372C30.3138 24.6372 30.5505 24.687 30.7685 24.7867L30.6751 25.0483C30.4633 24.9549 30.2515 24.9113 30.0522 24.9113C29.8902 24.9113 29.7657 24.9424 29.6722 25.0172C29.585 25.0795 29.5414 25.1729 29.5414 25.2975C29.5414 25.3909 29.5601 25.4656 29.5913 25.5217C29.6224 25.5778 29.6785 25.6338 29.7594 25.6774C29.8404 25.7272 29.9588 25.7771 30.1207 25.8394C30.3886 25.9328 30.5754 26.0387 30.6813 26.1508C30.7872 26.2567 30.837 26.4 30.837 26.5806Z" fill="white"/>
<path d="M34.2187 27.2714L33.3342 24.9729H33.328C33.3405 25.1536 33.3467 25.3716 33.3467 25.6207V27.2714H33.0664V24.6802H33.5273L34.3495 26.8167H34.3558L35.1904 24.6802H35.6389V27.2714H35.3337V25.602C35.3337 25.4089 35.3462 25.2034 35.3648 24.9792H35.3462L34.4617 27.2714H34.2187Z" fill="white"/>
<path d="M39.4959 27.2714H38.0508V24.6802H39.4959V24.948H38.356V25.7764H39.4274V26.0443H38.356V26.9973H39.4959V27.2714Z" fill="white"/>
<path d="M42.5786 27.2714H42.2734V24.948H41.4512V24.6802H43.3946V24.948H42.5786V27.2714Z" fill="white"/>
<path d="M46.8879 27.2715C46.7883 27.2964 46.6761 27.3089 46.5516 27.3089C46.4332 27.3089 46.3149 27.2964 46.209 27.2715H46.8879Z" fill="white"/>
<path d="M50.0273 27.2714V24.6802H50.3263V26.9973H51.4724V27.2714H50.0273Z" fill="white"/>
<path d="M59.2906 25.9079H60.1688V27.1723C60.038 27.2159 59.8948 27.2533 59.7515 27.272C59.6145 27.2969 59.4463 27.3094 59.2594 27.3094C58.867 27.3094 58.5618 27.191 58.3438 26.9543C58.1258 26.7239 58.0137 26.3937 58.0137 25.9702C58.0137 25.7023 58.0697 25.4719 58.1756 25.2663C58.2815 25.067 58.4372 24.9113 58.6428 24.7992C58.8483 24.6933 59.085 24.6372 59.3591 24.6372C59.6394 24.6372 59.8948 24.687 60.1315 24.7929L60.0194 25.0545C59.7827 24.9611 59.5584 24.9113 59.3404 24.9113C59.0227 24.9113 58.7798 25.0047 58.5992 25.1916C58.4248 25.3784 58.3313 25.64 58.3313 25.9702C58.3313 26.3252 58.4185 26.5931 58.5867 26.7737C58.7611 26.9543 59.0103 27.0415 59.3404 27.0415C59.5273 27.0415 59.7017 27.0166 59.8699 26.9792V26.182H59.2906V25.9079Z" fill="white"/>
<path d="M63.1579 25.9695L63.8493 24.6802H64.1794L63.3074 26.2685V27.2714H63.0084V26.281L62.1426 24.6802H62.4727L63.1579 25.9695Z" fill="white"/>
<path d="M47.7411 25.9702C47.7411 26.3875 47.6414 26.7176 47.4297 26.9543C47.2179 27.191 46.9251 27.3094 46.5514 27.3094C46.1714 27.3094 45.8725 27.191 45.6669 26.9543C45.4551 26.7239 45.3555 26.3937 45.3555 25.9702C45.3555 25.5466 45.4614 25.2165 45.6669 24.986C45.8787 24.7556 46.1714 24.6372 46.5514 24.6372C46.9251 24.6372 47.2179 24.7556 47.4297 24.9922C47.6414 25.2289 47.7411 25.5528 47.7411 25.9702ZM45.6731 25.9702C45.6731 26.3252 45.7479 26.5868 45.8974 26.7675C46.0469 26.9481 46.2711 27.0415 46.5514 27.0415C46.8379 27.0415 47.0559 26.9543 47.2054 26.7737C47.3487 26.5931 47.4234 26.3252 47.4234 25.9702C47.4234 25.6276 47.3487 25.3597 47.2054 25.1791C47.0559 24.9985 46.8379 24.905 46.5514 24.905C46.2711 24.905 46.0469 24.9985 45.8974 25.1791C45.7479 25.3597 45.6731 25.6276 45.6731 25.9702Z" fill="white"/>
<path d="M55.8704 25.9702C55.8704 26.3875 55.7645 26.7176 55.5527 26.9543C55.3472 27.191 55.0544 27.3094 54.6807 27.3094C54.2945 27.3094 53.9955 27.191 53.79 26.9543C53.5844 26.7239 53.4785 26.3937 53.4785 25.9702C53.4785 25.5466 53.5844 25.2165 53.7962 24.986C54.0017 24.7556 54.3007 24.6372 54.6807 24.6372C55.0544 24.6372 55.3472 24.7556 55.5527 24.9922C55.7645 25.2289 55.8704 25.5528 55.8704 25.9702ZM53.8024 25.9702C53.8024 26.3252 53.8709 26.5868 54.0266 26.7675C54.1761 26.9481 54.3942 27.0415 54.6807 27.0415C54.9672 27.0415 55.179 26.9543 55.3285 26.7737C55.478 26.5931 55.5465 26.3252 55.5465 25.9702C55.5465 25.6276 55.478 25.3597 55.3285 25.1791C55.179 24.9985 54.9672 24.905 54.6807 24.905C54.3942 24.905 54.1761 24.9985 54.0266 25.1791C53.8709 25.3597 53.8024 25.6276 53.8024 25.9702Z" fill="white"/>
</svg>
