<svg width="90" height="31" viewBox="0 0 90 31" fill="none" xmlns="http://www.w3.org/2000/svg">
<path d="M10.7266 13.1901L77.1919 4.61304L78.6704 16.0772L12.2051 24.6612L10.7266 13.1901Z" fill="#FFC0BF"/>
<path d="M6.57791 27.0017C6.60594 26.9667 6.60594 26.9667 6.59893 26.9036L7.39077 26.385C8.68013 25.5652 9.89942 24.6332 11.1257 23.533C11.8685 22.8323 12.5132 22.0825 13.1439 21.2626C13.5643 20.7861 13.9497 20.2466 14.3001 19.707C14.8256 19.0273 15.19 18.3055 15.5824 17.5767C15.7576 17.1843 15.9398 16.855 16.129 16.4906C16.5004 15.6076 16.7246 14.7107 17.04 13.8348C17.2362 13.0289 17.4744 12.2581 17.4885 11.4733C17.5445 10.4992 17.4814 9.56725 17.0049 8.92958C16.6055 8.34096 16.0589 7.92752 15.3512 7.68927C14.3491 7.35291 13.277 7.31087 12.1558 7.33189C10.9716 7.38795 9.73825 7.54912 8.46991 7.96256C7.77618 8.24986 7.0404 8.35497 6.34666 8.61425L5.3446 8.90856C4.92416 9.06973 4.3986 9.44112 3.95714 9.39207C3.831 9.40608 3.68385 9.5112 3.6418 9.7074C3.55071 9.99471 3.42457 10.289 3.39654 10.6324C3.38954 11.172 3.32647 11.8026 3.47362 12.3142L3.53669 12.9378C3.58574 13.3653 3.77494 13.7227 4.15334 13.7507C4.37758 13.7857 4.55977 13.7717 4.74897 13.7507C5.20446 13.6386 5.68096 13.4353 6.22053 13.1621C6.33966 13.148 6.43075 13.106 6.58492 13.0569C6.49382 13.4424 6.40272 13.7367 6.37469 14.08C6.18549 14.977 5.96826 15.8739 5.77906 16.7989C5.65994 17.4716 5.51979 18.2354 5.3446 18.9362L4.46167 22.8463L4.17437 24.0306C4.09028 24.3809 4.06225 24.416 3.72589 24.5421C3.0742 24.8644 4.09728 24.472 3.38253 24.7944C2.83595 25.0116 2.29638 25.1938 1.75681 25.4671C1.42746 25.5582 1.10512 25.7824 0.754748 26.0347C0.572556 26.0837 0.404378 26.2939 0.334303 26.4831C0.250214 26.8686 0.131088 27.261 0.0189699 27.6744C-0.00905978 27.7375 -0.0230746 27.8986 0.103059 27.8846C0.215177 28.0949 0.243207 28.3401 0.2362 28.5924C0.292259 28.8026 0.334303 28.9217 0.523504 28.9708C0.880882 29.0899 1.21023 29.2721 1.72177 29.0338C1.7498 28.9988 1.8409 28.9918 1.939 29.0409C2.39448 28.9007 2.85697 28.8236 3.34048 28.7115C4.25845 28.4873 3.45961 28.6344 4.36357 28.2911C4.57379 28.242 4.81204 28.1229 4.98022 28.2C5.17643 28.27 5.26051 28.1719 5.39366 27.9967C5.68096 27.4362 5.80709 27.4572 6.17148 27.324C6.48681 27.3591 6.99135 27.0858 7.29967 26.7424L6.57791 27.0017ZM9.66117 21.4308C7.23661 23.9675 5.40767 24.437 6.73207 20.6109C6.85821 20.0363 6.87222 19.5318 6.94229 19.0273C7.1385 18.1934 7.34172 17.3875 7.50289 16.5607C7.72712 15.6637 7.94435 14.7668 8.09852 13.8418C8.16859 13.5825 8.29473 13.2602 8.42787 13.0289C8.38582 12.9659 8.46991 12.8327 8.53298 12.8327C8.67313 12.7206 8.85532 12.6715 8.97444 12.6295C10.6702 12.0479 12.1838 11.8937 13.6624 11.9918C14.1039 12.0409 14.5523 12.118 14.9658 12.202C15.0919 12.2161 15.204 12.3912 15.162 12.5875C15.162 13.5264 14.8537 14.4654 14.4262 15.4745C13.8586 16.6588 13.0948 17.7379 12.2679 18.789C11.4901 19.7771 10.6142 20.646 9.66117 21.4308Z" fill="#1A1A1A"/>
<path d="M26.3243 19.6298C26.3243 19.6298 26.3593 19.6228 26.3523 19.5947C26.5345 19.854 26.7517 20.1133 26.8148 20.4216C26.8709 20.6318 26.983 20.8421 27.0671 21.0523C27.3544 21.3956 27.5506 21.781 27.7468 22.1665C27.957 22.4327 28.1602 22.5939 28.0761 23.0073C28.0551 23.1055 28.1182 23.0984 28.1252 23.1335C28.2373 23.3087 28.3424 23.4488 28.4826 23.5609C28.6928 23.8202 28.91 24.1145 29.0992 24.4088C29.2043 24.549 29.2534 24.7031 29.3655 24.8503L30.2064 25.7332C30.3746 25.9014 30.5568 25.8524 30.8441 25.5721L31.3416 24.9554C31.5939 24.6821 31.6149 24.584 31.5028 24.3808C31.3486 23.8342 31.2295 23.2806 31.1174 22.7271C31.0823 22.699 31.1103 22.699 31.1103 22.671C31.1103 22.3837 31.1734 22.0684 30.9352 21.9072C30.9352 21.8721 30.9562 21.774 30.9772 21.711C30.9492 21.1224 30.9492 20.5267 30.9562 19.9311C30.9352 19.7769 30.9141 19.5947 30.8721 19.4406C30.8441 19.1603 30.7319 18.9851 30.6409 18.7468C30.5848 18.4736 30.4657 18.2353 30.4096 17.99C30.2905 17.7518 30.2064 17.5065 30.1153 17.2683C30.0242 16.995 29.9331 16.7217 29.877 16.4484C29.5967 15.2571 29.2884 15.3202 30.3395 14.5564C31.4327 13.6314 32.3296 12.6013 33.1845 11.5152C33.5629 10.9476 33.9133 10.408 34.1376 9.85443C34.6141 8.71223 34.8173 7.66111 34.6631 6.7081C34.516 5.90926 34.2216 5.1875 33.7381 4.70398C33.1565 4.19945 32.3787 3.96821 31.4747 4.00324C31.0963 3.97521 30.6619 3.98923 30.2554 4.00324C29.3445 3.96821 28.2373 4.11536 27.2282 4.31157C25.7917 4.64793 24.3202 4.94924 22.8766 5.50984L20.7043 6.29467C20.5011 6.40679 20.2348 6.52591 20.1297 6.75716L19.5271 7.88535C19.443 7.98345 19.45 8.04652 19.429 8.14462C19.3309 8.43193 19.2048 8.69821 19.1417 8.98551C19.0366 9.52508 19.1487 10.0156 19.1977 10.4781C19.2398 10.5692 19.2818 10.6603 19.3519 10.7444C19.422 10.8635 19.5061 11.0107 19.6042 11.0947C19.7864 11.354 20.1367 11.4171 20.5852 11.1788C21.4611 10.5902 22.9257 10.5342 22.0498 12.0968C21.4191 13.8136 20.9005 15.4954 20.4801 17.1912L20.2068 18.1582C20.1017 18.3614 20.0176 18.4595 19.8074 18.5436L19.0015 18.908C18.8824 18.9851 18.7633 19.0271 18.6722 19.0692C18.7142 19.1603 18.8053 19.1813 18.8754 19.2023C18.9104 19.2584 19.0366 19.2794 19.0436 19.3425C19.0646 19.5597 19.1627 19.5807 19.3239 19.5947C19.7303 19.6158 19.7303 19.6158 19.5902 20.0642C19.5902 20.1273 19.5411 20.2604 19.5201 20.3235C19.2818 21.0663 19.0786 21.8371 18.9104 22.5729C18.8053 22.8392 18.7983 23.0564 18.8544 23.2666C18.8964 23.3577 18.8754 23.4839 18.8264 23.617C18.7002 24.2547 18.5741 24.8293 18.4199 25.4389C18.3078 25.8874 18.2517 26.2658 18.3218 26.6372C18.3078 26.7633 18.3148 26.8895 18.2658 27.0156C18.1817 27.373 18.2517 27.4851 18.532 27.4571C18.6582 27.443 18.7493 27.408 18.8404 27.429C18.9945 27.415 19.1207 27.401 19.2538 27.1627C19.2818 27.1347 19.429 27.0857 19.457 27.0506C19.6112 27.0366 19.8214 26.8895 19.9616 26.7843C20.354 26.5881 20.6833 26.455 20.9636 26.1467C20.9916 26.1467 20.9916 26.1467 21.0197 26.1116L21.8255 25.7472C22.246 25.544 22.3861 25.3759 22.4912 24.9274C22.6104 24.542 22.6664 24.1916 22.7855 23.8062C23.0168 23.0284 23.22 22.2576 23.4793 21.4517C23.7035 20.8631 23.8927 20.2534 23.9908 19.7069C24.131 19.2233 24.208 18.7819 24.3482 18.3264C24.3622 18.1722 24.4463 18.0671 24.6215 17.955C25.091 17.6257 25.2802 17.6747 25.4414 17.997C25.6796 18.5366 25.8968 19.0762 26.1071 19.6158C26.1561 19.798 26.2682 19.9731 26.4014 20.0572C26.4294 20.0572 26.4294 20.0222 26.4574 20.0222C26.4154 19.868 26.4014 19.7419 26.3243 19.6298ZM29.6878 13.1269C27.9921 14.2341 24.9859 17.8569 24.4253 14.4793C24.4183 14.164 24.3272 13.8627 24.18 13.6244C24.0749 13.5123 23.9908 13.3301 23.9418 13.183L23.7876 12.5383C23.5844 10.5902 23.6475 10.5552 26.7728 9.32888C27.6907 9.13968 28.5737 8.95748 29.4216 8.92946C29.7019 8.93646 29.9751 8.8734 30.2554 8.84537C30.9282 8.74726 31.4467 8.90843 31.9372 9.13968C32.3647 9.31486 32.3507 9.78436 31.9372 10.359C31.4257 11.1298 30.8861 11.9707 30.2344 12.6294L29.6878 13.1269Z" fill="#1A1A1A"/>
<path d="M58.8457 15.7547C58.8878 15.8458 58.8667 15.9369 58.9088 16.028C59.0139 17.1142 59.2872 18.1793 59.8127 19.0622C60.4224 20.1554 61.2493 20.9192 62.3775 21.4868C62.8049 21.725 63.3164 21.8582 63.849 21.8372C64.0662 21.8161 64.2835 21.8512 64.5077 21.8652C64.795 21.9283 65.1033 21.8932 65.4257 21.676C65.6079 21.5919 65.7831 21.5429 65.9652 21.4307C66.7501 21.1644 67.3807 20.6599 67.8573 20.0853C68.3898 19.4616 68.7962 18.894 69.2657 18.3124C69.3428 18.1443 69.511 17.941 69.525 17.7869C69.8333 17.1282 70.2398 16.4905 70.3239 15.7968C70.457 15.2502 70.6812 14.7246 70.7233 14.1921C70.8564 13.3652 71.0807 12.4963 71.0526 11.6554C71.0176 10.9757 71.1928 10.2399 71.2138 9.51813C71.1788 9.17477 71.1718 8.8314 71.1367 8.49505C71.1928 8.39694 71.1367 8.20774 71.1928 8.10964C71.417 7.52802 71.5291 6.82728 71.5221 6.16859C71.4731 5.3347 71.3539 4.50082 71.0316 3.78606C70.7373 3.02926 70.443 2.31451 69.9525 1.80297C69.532 1.37551 69.1256 1.03916 68.6771 0.681781C68.4108 0.457543 67.9904 0.373454 67.5279 0.394477C66.5048 0.527617 65.4397 0.821929 64.5918 1.62778C64.2765 1.94311 63.9892 2.18837 63.6738 2.47568C63.5967 2.63685 63.4566 2.74897 63.2253 2.67889C62.854 2.6859 62.4826 2.74897 62.1812 3.12737C61.7958 3.66694 61.4455 4.23454 61.2563 4.81615L60.6676 6.37881C60.5065 6.64509 60.3944 7.05853 60.3033 7.38788L59.14 11.6274C58.7897 13.0429 58.5864 14.4093 58.8457 15.7547ZM61.4174 11.8306C62.0481 11.8936 62.5456 11.8726 63.0011 12.0758C63.2043 12.1809 63.4426 12.0969 63.6878 12.0688C63.842 12.0548 64.0172 11.9427 64.0032 11.7535C64.2064 11.0177 64.4797 10.331 64.7109 9.55317C64.7039 9.46207 64.7319 9.399 64.816 9.32893C64.9632 8.90848 65.0753 8.52308 65.1594 8.10263C65.2715 7.65416 65.5168 7.3178 65.692 6.92539C65.9793 6.36479 66.2035 5.81121 66.4908 5.25061C66.5959 5.0474 66.7361 4.90725 66.8552 4.86521C67.0584 4.69002 67.2686 4.64097 67.4508 4.52885C67.8713 4.36067 68.2216 4.44476 68.4949 4.69703C68.8733 5.00535 69.0345 5.36273 69.0555 5.86026C69.1116 7.04451 69.0906 8.3549 69.0205 9.52514C68.8733 11.3821 68.4669 13.204 67.7662 14.8998C67.1355 16.4344 66.1825 17.7518 65.1103 18.9221C64.802 19.2724 64.3886 19.4687 64.0032 19.6929C63.828 19.84 63.5757 19.798 63.3795 19.6999C62.882 19.4336 62.6858 19.0202 62.5316 18.4736C62.3284 17.6818 62.0621 16.8969 61.7538 16.049C61.6697 15.5585 61.4665 15.11 61.3193 14.5915C61.2913 14.2551 61.3474 13.9328 61.3404 13.5614C61.3404 13.218 61.3263 12.8116 61.4104 12.3982C61.3964 12.244 61.3754 12.0548 61.4174 11.8306Z" fill="#1A1A1A"/>
<path d="M74.018 9.63028C73.997 9.72138 74.039 9.81248 74.018 9.87554C74.2632 9.25889 74.3824 8.59319 74.7818 7.92047C74.7748 8.14471 74.7397 8.36895 74.6977 8.58618L73.7797 11.8727C73.1701 14.1501 72.8057 16.3504 72.9248 18.4316C72.9739 19.2094 73.058 20.0083 72.9529 20.8632C72.9178 21.0874 73.2332 21.4308 73.3873 21.4448C73.7657 21.4728 74.1932 21.3957 74.6557 21.2836C75.0481 21.1505 75.4335 20.9262 75.8049 20.6319C76.0081 20.4567 76.1693 20.2255 76.4496 20.1624C76.5056 20.1554 76.5897 20.0573 76.6458 19.9592C76.9821 19.5808 77.0662 19.1954 77.1153 18.782C77.1923 18.2774 77.2904 17.7309 77.5147 17.1773C77.7109 16.6587 77.844 16.1402 78.0122 15.6286C78.1524 15.1731 78.3275 14.7177 78.6289 14.3112C79.0913 13.6736 79.4347 13.0149 79.673 12.3281C79.8762 11.8376 80.1074 11.3821 80.4368 10.9407C80.7731 10.4992 81.0324 10.0367 81.2076 9.58123C81.4038 9.09071 81.6701 8.65625 82.0415 8.24282C82.2657 8.03259 82.4269 7.76631 82.56 7.53507L84.7463 3.58989C85.9586 3.21149 84.3679 6.91141 84.2698 8.38997C84.1577 9.09071 84.0386 9.79145 83.8914 10.4572L83.9545 10.4502C84.0596 10.0017 84.1717 9.52517 84.2488 9.0767C84.3119 9.06969 84.3399 9.06969 84.3679 9.03465C84.1998 9.52517 84.389 9.84751 84.1927 10.338C83.9895 10.7935 84.1227 11.214 83.7933 11.6554C83.8704 11.7746 83.9965 11.8236 83.9755 11.9217C83.9685 12.1389 83.9335 12.3912 83.8634 12.6224C83.7443 12.9728 83.7723 13.2811 83.8844 13.4633C84.1016 13.7506 83.7653 14.7247 83.7443 15.1311C83.7303 15.2923 83.7162 15.4464 83.7303 15.5726C83.8774 16.1191 84.0316 16.6938 84.2068 17.2123C84.5291 18.2424 85.6853 18.1863 86.6664 17.7098C87.1078 17.4786 87.5493 17.1773 87.9908 16.883C88.222 16.7358 88.4182 16.5256 88.5794 16.2593C88.7896 15.8669 89.0068 15.5305 89.2171 15.1661C89.3782 14.8648 89.5324 14.5705 89.6585 14.2762C89.6866 14.2131 89.7006 14.087 89.6375 14.059C89.4974 13.9188 89.4413 13.7016 89.4133 13.4283C88.8457 13.9819 88.5724 14.6686 87.9067 15.1731L87.6754 14.7597C87.6684 14.6966 87.6334 14.6406 87.5983 14.5775C87.4162 14.3813 87.6474 13.5474 87.7315 13.162C87.8226 12.8046 87.7875 12.4963 87.6684 12.202C87.6264 12.1109 87.6404 11.9848 87.6614 11.8516C87.6964 11.5713 87.7946 11.3121 87.7946 11.0248C87.8646 10.5202 87.9067 9.98766 88.0398 9.44108C88.1029 9.18181 88.0188 8.94356 88.1169 8.68428C88.2991 8.29187 88.3481 7.90646 88.4392 7.55609C88.6284 6.65914 89.6445 4.36772 89.8337 3.5058C90.0159 2.51776 90.079 1.57176 89.8687 0.751891C89.7286 0.296409 89.4203 0.0441425 88.9157 0.00209804C88.2851 -0.0259316 87.5913 0.233343 86.9256 0.394513C86.7995 0.436558 86.6243 0.520647 86.4982 0.534661C86.2459 0.527654 86.0147 0.67481 85.8185 0.885032L85.5031 1.16533C84.3469 2.06928 82.6932 4.57794 81.9714 5.74818C81.3828 6.7152 80.8923 7.70324 80.3667 8.66326C78.9442 10.6814 79.3787 9.42006 79.687 6.91841C79.75 6.35081 79.694 5.82526 79.9743 5.2016C80.0584 5.06846 80.0093 4.9213 79.9673 4.83021C79.8411 4.52889 79.722 4.22757 79.5398 3.99632C79.1334 3.35164 78.3345 3.21149 77.4937 3.23952C76.9961 3.26055 76.4566 3.47077 75.9801 3.42172C75.6998 3.42172 75.5806 3.52683 75.4895 3.84917C75.3564 4.33268 75.2162 4.81619 75.1111 5.2927L74.018 9.63028Z" fill="#1A1A1A"/>
<path d="M24.6925 28.0246C24.3772 28.0246 24.1249 28.1297 23.9357 28.347C23.7535 28.5572 23.6554 28.8515 23.6554 29.2159C23.6554 29.6013 23.7465 29.9026 23.9217 30.1058C24.1039 30.3161 24.3631 30.4212 24.6925 30.4212C24.8957 30.4212 25.127 30.3861 25.3932 30.3091V30.6034C25.183 30.6804 24.9378 30.7225 24.6434 30.7225C24.209 30.7225 23.8796 30.5893 23.6414 30.3301C23.4101 30.0708 23.291 29.6994 23.291 29.2159C23.291 28.9146 23.3471 28.6553 23.4662 28.4311C23.5783 28.1998 23.7395 28.0246 23.9497 27.9055C24.1669 27.7794 24.4122 27.7163 24.6995 27.7163C25.0078 27.7163 25.2741 27.7724 25.5054 27.8845L25.3582 28.1788C25.134 28.0737 24.9167 28.0246 24.6925 28.0246Z" fill="#1A1A1A"/>
<path d="M30.4729 29.2159C30.4729 29.6854 30.3538 30.0568 30.1225 30.3231C29.8843 30.5893 29.5549 30.7225 29.1345 30.7225C28.707 30.7225 28.3707 30.5893 28.1324 30.3231C27.9012 30.0638 27.7891 29.6924 27.7891 29.2159C27.7891 28.7394 27.9082 28.368 28.1394 28.1087C28.3777 27.8494 28.707 27.7163 29.1345 27.7163C29.5549 27.7163 29.8843 27.8494 30.1225 28.1157C30.3538 28.382 30.4729 28.7464 30.4729 29.2159ZM28.1464 29.2159C28.1464 29.6153 28.2305 29.9096 28.3987 30.1128C28.5669 30.3161 28.8121 30.4212 29.1345 30.4212C29.4568 30.4212 29.7021 30.3231 29.8703 30.1199C30.0314 29.9166 30.1155 29.6153 30.1155 29.2159C30.1155 28.8305 30.0314 28.5292 29.8703 28.326C29.7021 28.1227 29.4568 28.0176 29.1345 28.0176C28.8121 28.0176 28.5669 28.1227 28.3987 28.326C28.2305 28.5292 28.1464 28.8305 28.1464 29.2159Z" fill="#1A1A1A"/>
<path d="M34.6914 29.9026C34.6914 30.1619 34.5933 30.3651 34.4111 30.5123C34.2219 30.6524 33.9696 30.7225 33.6473 30.7225C33.3039 30.7225 33.0377 30.6804 32.8555 30.5823V30.253C32.9676 30.3091 33.1007 30.3511 33.2409 30.3791C33.381 30.4072 33.5282 30.4212 33.6683 30.4212C33.8926 30.4212 34.0607 30.3791 34.1729 30.295C34.285 30.2109 34.341 30.0918 34.341 29.9377C34.341 29.8325 34.32 29.7555 34.285 29.6924C34.2429 29.6223 34.1729 29.5663 34.0818 29.5102C33.9837 29.4541 33.8435 29.3911 33.6473 29.328C33.374 29.2299 33.1848 29.1108 33.0657 28.9776C32.9466 28.8445 32.8905 28.6693 32.8905 28.4591C32.8905 28.2349 32.9746 28.0527 33.1428 27.9195C33.311 27.7864 33.5352 27.7163 33.8155 27.7163C34.1028 27.7163 34.3691 27.7724 34.6143 27.8845L34.5092 28.1788C34.271 28.0737 34.0327 28.0246 33.8085 28.0246C33.6263 28.0246 33.4861 28.0597 33.381 28.1438C33.2829 28.2138 33.2339 28.3189 33.2339 28.4591C33.2339 28.5642 33.2549 28.6483 33.2899 28.7114C33.325 28.7744 33.388 28.8375 33.4791 28.8865C33.5702 28.9426 33.7034 28.9987 33.8856 29.0687C34.1869 29.1739 34.3971 29.293 34.5162 29.4191C34.6354 29.5382 34.6914 29.6994 34.6914 29.9026Z" fill="#1A1A1A"/>
<path d="M38.4975 30.6805L37.5025 28.0947H37.4955C37.5095 28.2979 37.5165 28.5432 37.5165 28.8235V30.6805H37.2012V27.7654H37.7197L38.6447 30.1689H38.6517L39.5907 27.7654H40.0952V30.6805H39.7519V28.8025C39.7519 28.5852 39.7659 28.354 39.7869 28.1017H39.7659L38.7708 30.6805H38.4975Z" fill="#1A1A1A"/>
<path d="M44.4324 30.6805H42.8066V27.7654H44.4324V28.0667H43.15V28.9987H44.3553V29.3H43.15V30.3721H44.4324V30.6805Z" fill="#1A1A1A"/>
<path d="M47.9012 30.6805H47.5578V28.0667H46.6328V27.7654H48.8191V28.0667H47.9012V30.6805Z" fill="#1A1A1A"/>
<path d="M52.7501 30.6807C52.638 30.7087 52.5119 30.7227 52.3717 30.7227C52.2386 30.7227 52.1055 30.7087 51.9863 30.6807H52.7501Z" fill="#1A1A1A"/>
<path d="M56.2812 30.6805V27.7654H56.6176V30.3721H57.907V30.6805H56.2812Z" fill="#1A1A1A"/>
<path d="M66.7021 29.1458H67.6902V30.5683C67.543 30.6174 67.3819 30.6594 67.2207 30.6804C67.0665 30.7085 66.8773 30.7225 66.6671 30.7225C66.2256 30.7225 65.8823 30.5893 65.637 30.3231C65.3918 30.0638 65.2656 29.6924 65.2656 29.2159C65.2656 28.9146 65.3287 28.6553 65.4478 28.4241C65.5669 28.1998 65.7421 28.0246 65.9734 27.8985C66.2046 27.7794 66.4709 27.7163 66.7792 27.7163C67.0946 27.7163 67.3819 27.7724 67.6481 27.8915L67.522 28.1858C67.2557 28.0807 67.0035 28.0246 66.7582 28.0246C66.4008 28.0246 66.1275 28.1297 65.9243 28.34C65.7281 28.5502 65.623 28.8445 65.623 29.2159C65.623 29.6153 65.7211 29.9166 65.9103 30.1199C66.1065 30.3231 66.3868 30.4212 66.7582 30.4212C66.9684 30.4212 67.1646 30.3931 67.3538 30.3511V29.4541H66.7021V29.1458Z" fill="#1A1A1A"/>
<path d="M71.0524 29.2159L71.8302 27.7654H72.2016L71.2205 29.5523V30.6805H70.8842V29.5663L69.9102 27.7654H70.2815L71.0524 29.2159Z" fill="#1A1A1A"/>
<path d="M53.7092 29.2159C53.7092 29.6854 53.5971 30.0568 53.3589 30.3231C53.1206 30.5893 52.7913 30.7225 52.3708 30.7225C51.9434 30.7225 51.607 30.5893 51.3758 30.3231C51.1375 30.0638 51.0254 29.6924 51.0254 29.2159C51.0254 28.7394 51.1445 28.368 51.3758 28.1087C51.614 27.8494 51.9434 27.7163 52.3708 27.7163C52.7913 27.7163 53.1206 27.8494 53.3589 28.1157C53.5971 28.382 53.7092 28.7464 53.7092 29.2159ZM51.3828 29.2159C51.3828 29.6153 51.4669 29.9096 51.635 30.1128C51.8032 30.3161 52.0555 30.4212 52.3708 30.4212C52.6932 30.4212 52.9384 30.3231 53.1066 30.1199C53.2678 29.9166 53.3519 29.6153 53.3519 29.2159C53.3519 28.8305 53.2678 28.5292 53.1066 28.326C52.9384 28.1227 52.6932 28.0176 52.3708 28.0176C52.0555 28.0176 51.8032 28.1227 51.635 28.326C51.4669 28.5292 51.3828 28.8305 51.3828 29.2159Z" fill="#222222"/>
<path d="M62.8549 29.2159C62.8549 29.6854 62.7358 30.0568 62.4975 30.3231C62.2663 30.5893 61.9369 30.7225 61.5165 30.7225C61.082 30.7225 60.7457 30.5893 60.5144 30.3231C60.2832 30.0638 60.1641 29.6924 60.1641 29.2159C60.1641 28.7394 60.2832 28.368 60.5214 28.1087C60.7527 27.8494 61.089 27.7163 61.5165 27.7163C61.9369 27.7163 62.2663 27.8494 62.4975 28.1157C62.7358 28.382 62.8549 28.7464 62.8549 29.2159ZM60.5285 29.2159C60.5285 29.6153 60.6055 29.9096 60.7807 30.1128C60.9489 30.3161 61.1942 30.4212 61.5165 30.4212C61.8388 30.4212 62.0771 30.3231 62.2453 30.1199C62.4134 29.9166 62.4905 29.6153 62.4905 29.2159C62.4905 28.8305 62.4134 28.5292 62.2453 28.326C62.0771 28.1227 61.8388 28.0176 61.5165 28.0176C61.1942 28.0176 60.9489 28.1227 60.7807 28.326C60.6055 28.5292 60.5285 28.8305 60.5285 29.2159Z" fill="#222222"/>
<path d="M50.5353 17.1703C50.5353 17.1703 50.5703 17.1633 50.5633 17.1353C50.7525 17.3945 50.9627 17.6538 51.0258 17.9621C51.0818 18.1724 51.1939 18.3826 51.278 18.5928C51.5653 18.9362 51.7615 19.3216 51.9578 19.707C52.168 19.9733 52.3712 20.1344 52.2941 20.5479C52.2731 20.646 52.3292 20.639 52.3362 20.674C52.4483 20.8492 52.5534 20.9964 52.6935 21.1015C52.9038 21.3607 53.121 21.655 53.3102 21.9494C53.4223 22.0895 53.4643 22.2437 53.5765 22.3908L54.4174 23.2738C54.5925 23.4419 54.7747 23.3929 55.055 23.1126L55.5596 22.4959C55.8048 22.2226 55.8329 22.1245 55.7137 21.9213C55.5666 21.3748 55.4474 20.8212 55.3283 20.2746C55.2933 20.2466 55.3213 20.2395 55.3213 20.2115C55.3213 19.9312 55.3844 19.6089 55.1461 19.4477C55.1461 19.4127 55.1672 19.3216 55.1882 19.2515C55.1601 18.6629 55.1672 18.0673 55.1672 17.4716C55.1531 17.3175 55.1321 17.1353 55.0831 16.9811C55.055 16.7008 54.9429 16.5256 54.8588 16.2874C54.7958 16.0141 54.6766 15.7758 54.6206 15.5306C54.5085 15.2923 54.4174 15.0471 54.3263 14.8088C54.2422 14.5355 54.1511 14.2622 54.088 13.9889C53.8077 12.7977 53.5064 12.8607 54.5505 12.0969C55.6437 11.172 56.5406 10.1419 57.3955 9.05572C57.7739 8.48812 58.1243 7.94855 58.3485 7.39496C58.832 6.25275 59.0352 5.20164 58.8741 4.24863C58.7269 3.44979 58.4326 2.72802 57.9491 2.24451C57.3675 1.73998 56.5897 1.50873 55.6857 1.54377C55.3073 1.51574 54.8728 1.52976 54.4664 1.54377C53.5625 1.50873 52.4483 1.65589 51.4392 1.8521C50.0027 2.18845 48.5311 2.49678 47.0876 3.05036L44.9223 3.8352C44.7121 3.94731 44.4458 4.06644 44.3407 4.29768L43.7381 5.42588C43.654 5.52398 43.661 5.58705 43.64 5.68515C43.5489 5.97246 43.4157 6.23874 43.3527 6.52604C43.2546 7.06561 43.3597 7.55613 43.4087 8.01862C43.4508 8.10972 43.4928 8.20081 43.5629 8.2849C43.64 8.40403 43.717 8.55118 43.8151 8.63527C44.0043 8.90156 44.3547 8.95761 44.7962 8.72637C45.6721 8.13074 47.1367 8.07468 46.2677 9.63733C45.6301 11.3541 45.1115 13.0359 44.6981 14.7317L44.4178 15.6987C44.3127 15.902 44.2286 16.0001 44.0184 16.0842L43.2125 16.4485C43.0934 16.5256 42.9743 16.5677 42.8832 16.6097C42.9252 16.7008 43.0233 16.7218 43.0864 16.7429C43.1214 16.8059 43.2545 16.8199 43.2545 16.883C43.2826 17.1002 43.3737 17.1213 43.5348 17.1353C43.9413 17.1563 43.9413 17.1563 43.8011 17.6118C43.8081 17.6678 43.7591 17.801 43.7311 17.864C43.4998 18.6068 43.2966 19.3776 43.1214 20.1134C43.0233 20.3797 43.0093 20.5969 43.0654 20.8071C43.1074 20.8982 43.0864 21.0244 43.0373 21.1575C42.9182 21.7952 42.7921 22.3698 42.6309 22.9794C42.5188 23.4279 42.4697 23.8133 42.5398 24.1777C42.5188 24.3039 42.5328 24.43 42.4837 24.5561C42.3926 24.9135 42.4697 25.0256 42.743 24.9976C42.8691 24.9906 42.9602 24.9485 43.0583 24.9696C43.2125 24.9555 43.3316 24.9415 43.4648 24.7103C43.4928 24.6752 43.647 24.6262 43.675 24.5912C43.8292 24.5771 44.0324 24.43 44.1725 24.3249C44.5649 24.1287 44.8943 24.0025 45.1746 23.6872C45.2026 23.6872 45.2026 23.6872 45.2306 23.6522L46.0365 23.2878C46.4569 23.0916 46.5971 22.9164 46.7092 22.4679C46.8213 22.0825 46.8774 21.7321 46.9965 21.3467C47.2278 20.5689 47.431 19.7981 47.6902 18.9922C47.9145 18.4036 48.1037 17.794 48.2018 17.2474C48.3419 16.7709 48.419 16.3224 48.5592 15.8739C48.5732 15.7128 48.6573 15.6076 48.8325 15.4955C49.3019 15.1662 49.4911 15.2152 49.6523 15.5376C49.8976 16.0771 50.1078 16.6167 50.318 17.1563C50.3671 17.3455 50.4792 17.5137 50.6123 17.5978C50.6474 17.5978 50.6404 17.5627 50.6754 17.5627C50.6263 17.4086 50.6123 17.2894 50.5353 17.1703ZM53.9058 10.6674C52.203 11.7746 49.2038 15.3974 48.6362 12.0199C48.6362 11.7045 48.5451 11.4032 48.391 11.165C48.2859 11.0528 48.2088 10.8706 48.1597 10.7235L47.9986 10.0858C47.8024 8.13074 47.8584 8.0957 50.9837 6.86941C51.9017 6.6802 52.7916 6.49801 53.6325 6.46998C53.9128 6.47699 54.1861 6.41392 54.4664 6.38589C55.1461 6.28779 55.6577 6.44896 56.1552 6.68721C56.5756 6.85539 56.5616 7.33189 56.1552 7.8995C55.6366 8.67031 55.0971 9.5112 54.4454 10.1699L53.9058 10.6674Z" fill="#1A1A1A"/>
</svg>
