<svg width="63" height="57" viewBox="0 0 63 57" fill="none" xmlns="http://www.w3.org/2000/svg">
<path fill-rule="evenodd" clip-rule="evenodd" d="M61.0643 2.90879C60.2652 2.90879 59.6541 2.28888 59.6541 1.47824C59.6541 0.667595 60.2652 1.14441e-05 61.0643 1.14441e-05C61.8634 1.14441e-05 62.4745 0.667595 62.4745 1.47824C62.4745 2.28888 61.8634 2.90879 61.0643 2.90879ZM61.0643 56.1728C60.2652 56.1728 59.6541 55.5052 59.6541 54.7422C59.6541 53.9316 60.2652 53.264 61.0643 53.264C61.8634 53.264 62.4745 53.9316 62.4745 54.7422C62.4745 55.5052 61.8634 56.1728 61.0643 56.1728ZM46.163 56.1728C45.3639 56.1728 44.7058 55.5052 44.7058 54.7422C44.7058 53.9316 45.3639 53.264 46.163 53.264C46.9621 53.264 47.5732 53.9316 47.5732 54.7422C47.5732 55.5052 46.9621 56.1728 46.163 56.1728ZM31.2617 56.1728C30.4626 56.1728 29.8045 55.5052 29.8045 54.7422C29.8045 53.9316 30.4626 53.264 31.2617 53.264C32.0608 53.264 32.6719 53.9316 32.6719 54.7422C32.6719 55.5052 32.0608 56.1728 31.2617 56.1728ZM16.3605 56.1728C15.5613 56.1728 14.9032 55.5052 14.9032 54.7422C14.9032 53.9316 15.5613 53.264 16.3605 53.264C17.1126 53.264 17.7707 53.9316 17.7707 54.7422C17.7707 55.5052 17.1126 56.1728 16.3605 56.1728ZM1.41217 56.1728C0.660054 56.1728 0.00195313 55.5052 0.00195313 54.7422C0.00195313 53.9316 0.660054 53.264 1.41217 53.264C2.21129 53.264 2.86939 53.9316 2.86939 54.7422C2.86939 55.5052 2.21129 56.1728 1.41217 56.1728ZM61.0643 42.8687C60.2652 42.8687 59.6541 42.2011 59.6541 41.3905C59.6541 40.6275 60.2652 39.9599 61.0643 39.9599C61.8634 39.9599 62.4745 40.6275 62.4745 41.3905C62.4745 42.2011 61.8634 42.8687 61.0643 42.8687ZM46.163 42.8687C45.3639 42.8687 44.7058 42.2011 44.7058 41.3905C44.7058 40.6275 45.3639 39.9599 46.163 39.9599C46.9621 39.9599 47.5732 40.6275 47.5732 41.3905C47.5732 42.2011 46.9621 42.8687 46.163 42.8687ZM31.2617 42.8687C30.4626 42.8687 29.8045 42.2011 29.8045 41.3905C29.8045 40.6275 30.4626 39.9599 31.2617 39.9599C32.0608 39.9599 32.6719 40.6275 32.6719 41.3905C32.6719 42.2011 32.0608 42.8687 31.2617 42.8687ZM16.3605 42.8687C15.5613 42.8687 14.9032 42.2011 14.9032 41.3905C14.9032 40.6275 15.5613 39.9599 16.3605 39.9599C17.1126 39.9599 17.7707 40.6275 17.7707 41.3905C17.7707 42.2011 17.1126 42.8687 16.3605 42.8687ZM1.41217 42.8687C0.660054 42.8687 0.00195313 42.2011 0.00195313 41.3905C0.00195313 40.6275 0.660054 39.9599 1.41217 39.9599C2.21129 39.9599 2.86939 40.6275 2.86939 41.3905C2.86939 42.2011 2.21129 42.8687 1.41217 42.8687ZM61.0643 29.5646C60.2652 29.5646 59.6541 28.897 59.6541 28.0864C59.6541 27.2758 60.2652 26.6559 61.0643 26.6559C61.8634 26.6559 62.4745 27.2758 62.4745 28.0864C62.4745 28.897 61.8634 29.5646 61.0643 29.5646ZM46.163 29.5646C45.3639 29.5646 44.7058 28.897 44.7058 28.0864C44.7058 27.2758 45.3639 26.6559 46.163 26.6559C46.9621 26.6559 47.5732 27.2758 47.5732 28.0864C47.5732 28.897 46.9621 29.5646 46.163 29.5646ZM31.2617 29.5646C30.4626 29.5646 29.8045 28.897 29.8045 28.0864C29.8045 27.2758 30.4626 26.6559 31.2617 26.6559C32.0608 26.6559 32.6719 27.2758 32.6719 28.0864C32.6719 28.897 32.0608 29.5646 31.2617 29.5646ZM16.3605 29.5646C15.5613 29.5646 14.9032 28.897 14.9032 28.0864C14.9032 27.2758 15.5613 26.6559 16.3605 26.6559C17.1126 26.6559 17.7707 27.2758 17.7707 28.0864C17.7707 28.897 17.1126 29.5646 16.3605 29.5646ZM1.41217 29.5646C0.660054 29.5646 0.00195313 28.897 0.00195313 28.0864C0.00195313 27.2758 0.660054 26.6559 1.41217 26.6559C2.21129 26.6559 2.86939 27.2758 2.86939 28.0864C2.86939 28.897 2.21129 29.5646 1.41217 29.5646ZM61.0643 16.2129C60.2652 16.2129 59.6541 15.593 59.6541 14.7823C59.6541 13.9717 60.2652 13.3518 61.0643 13.3518C61.8634 13.3518 62.4745 13.9717 62.4745 14.7823C62.4745 15.593 61.8634 16.2129 61.0643 16.2129ZM46.163 16.2129C45.3639 16.2129 44.7058 15.593 44.7058 14.7823C44.7058 13.9717 45.3639 13.3518 46.163 13.3518C46.9621 13.3518 47.5732 13.9717 47.5732 14.7823C47.5732 15.593 46.9621 16.2129 46.163 16.2129ZM31.2617 16.2129C30.4626 16.2129 29.8045 15.593 29.8045 14.7823C29.8045 13.9717 30.4626 13.3518 31.2617 13.3518C32.0608 13.3518 32.6719 13.9717 32.6719 14.7823C32.6719 15.593 32.0608 16.2129 31.2617 16.2129ZM16.3605 16.2129C15.5613 16.2129 14.9032 15.593 14.9032 14.7823C14.9032 13.9717 15.5613 13.3518 16.3605 13.3518C17.1126 13.3518 17.7707 13.9717 17.7707 14.7823C17.7707 15.593 17.1126 16.2129 16.3605 16.2129ZM46.163 2.90879C45.3639 2.90879 44.7058 2.28888 44.7058 1.47824C44.7058 0.667595 45.3639 1.14441e-05 46.163 1.14441e-05C46.9621 1.14441e-05 47.5732 0.667595 47.5732 1.47824C47.5732 2.28888 46.9621 2.90879 46.163 2.90879ZM31.2617 2.90879C30.4626 2.90879 29.8045 2.28888 29.8045 1.47824C29.8045 0.667595 30.4626 1.14441e-05 31.2617 1.14441e-05C32.0608 1.14441e-05 32.6719 0.667595 32.6719 1.47824C32.6719 2.28888 32.0608 2.90879 31.2617 2.90879ZM16.3605 2.90879C15.5613 2.90879 14.9032 2.28888 14.9032 1.47824C14.9032 0.667595 15.5613 1.14441e-05 16.3605 1.14441e-05C17.1126 1.14441e-05 17.7707 0.667595 17.7707 1.47824C17.7707 2.28888 17.1126 2.90879 16.3605 2.90879ZM1.41217 2.90879C0.660054 2.90879 0.00195313 2.28888 0.00195313 1.47824C0.00195313 0.667595 0.660054 1.14441e-05 1.41217 1.14441e-05C2.21129 1.14441e-05 2.86939 0.667595 2.86939 1.47824C2.86939 2.28888 2.21129 2.90879 1.41217 2.90879ZM1.41217 16.2129C0.660054 16.2129 0.00195313 15.593 0.00195313 14.7823C0.00195313 13.9717 0.660054 13.3518 1.41217 13.3518C2.21129 13.3518 2.86939 13.9717 2.86939 14.7823C2.86939 15.593 2.21129 16.2129 1.41217 16.2129Z" fill="#8C52FF"/>
</svg>
