<svg width="85" height="85" viewBox="0 0 85 85" fill="none" xmlns="http://www.w3.org/2000/svg">
<path fill-rule="evenodd" clip-rule="evenodd" d="M42.5 0C65.97 0 85 19.03 85 42.5C85 65.97 65.97 85 42.5 85C19.03 85 0 65.97 0 42.5C0 19.03 19.03 0 42.5 0Z" fill="#8C52FF" fill-opacity="0.2"/>
<path fill-rule="evenodd" clip-rule="evenodd" d="M42.4993 7.53003C61.8093 7.53003 77.4693 23.19 77.4693 42.5C77.4693 61.81 61.8093 77.47 42.4993 77.47C23.1893 77.47 7.5293 61.81 7.5293 42.5C7.5293 23.19 23.1893 7.53003 42.4993 7.53003Z" fill="#8C52FF" fill-opacity="0.2"/>
<path fill-rule="evenodd" clip-rule="evenodd" d="M42.4997 13.4299C58.5597 13.4299 71.5797 26.4399 71.5797 42.4999C71.5797 58.5599 58.5597 71.5699 42.4997 71.5699C26.4397 71.5699 13.4297 58.5599 13.4297 42.4999C13.4297 26.4399 26.4397 13.4299 42.4997 13.4299Z" fill="#8C52FF"/>
<path fill-rule="evenodd" clip-rule="evenodd" d="M30.5624 15.9354C33.1396 15.2482 35.7167 15.9354 37.7784 18.3408C34.8577 18.8562 32.2805 20.0589 30.047 21.777C28.5007 23.1515 27.1262 24.8696 26.0954 26.5877C25.7517 27.1031 25.5799 27.6185 25.4081 27.9621C23.5182 25.9004 23.1746 23.4951 24.0336 21.4334C24.5491 20.0589 25.4081 18.8562 26.6108 17.8254C27.6417 16.9663 29.1879 16.1073 30.5624 15.9354ZM46.1971 45.6586C46.1971 46.0022 45.8535 46.3458 45.3381 46.3458C44.9945 46.3458 44.6508 46.0022 44.6508 45.6586V42.9096C44.6508 42.7378 44.6508 42.3942 44.8227 42.2224C44.9945 42.0506 45.1663 42.0506 45.5099 42.0506H48.087C48.6025 42.0506 48.9461 42.3942 48.9461 42.9096C48.9461 43.2532 48.6025 43.5969 48.087 43.5969H47.3998C48.2589 44.2841 48.9461 44.9713 49.8051 45.4868C50.4924 46.0022 51.3514 46.5176 52.2105 46.8613L51.8669 46.0022C51.8669 45.6586 52.0387 45.1432 52.3823 45.1432C52.8977 44.9713 53.4132 45.1432 53.4132 45.6586L54.1004 47.8921C54.2722 48.0639 54.2722 48.2357 54.2722 48.4075C54.2722 48.7512 54.1004 49.0948 53.7568 49.2666L51.1796 49.9538C50.6642 50.1256 50.3206 49.9538 50.1488 49.4384C49.977 49.0948 50.1488 48.5793 50.6642 48.4075L51.3514 48.2357C50.4924 47.8921 49.6333 47.3767 48.9461 46.8613C47.9152 46.174 47.0562 45.4868 46.1971 44.7995V45.6586ZM34.5141 21.0897C43.4482 17.3099 51.0078 20.4025 57.193 27.9621C57.8802 28.8212 57.8802 29.1648 57.7084 29.1648C57.5366 29.8521 54.1004 30.3675 53.2414 30.5393C48.6025 31.3983 46.7126 31.5702 44.479 37.0681C44.3072 37.4117 44.3072 37.5835 44.1354 37.7553C42.4173 34.8346 39.1529 32.7728 36.5758 35.0064C33.1396 38.2708 37.9503 42.9096 36.7476 45.6586C36.0603 46.8613 35.0295 47.2049 33.655 47.2049C28.1571 46.5176 24.5491 38.2708 26.2672 30.8829V31.0547L26.6108 29.6803C26.6108 29.3366 26.7826 28.8212 26.9544 28.4776C28.3289 25.385 30.7342 22.8078 34.5141 21.0897ZM58.9111 30.3675C59.7701 29.3366 59.2547 27.9621 58.3956 26.9313C52.8977 20.0589 46.5408 17.1381 39.6684 17.9972C37.0912 14.3892 33.4832 13.5301 30.2188 14.2173C28.5007 14.7328 26.9544 15.42 25.5799 16.6227C24.2055 17.8254 23.0028 19.1998 22.4874 20.9179C21.4565 23.6669 21.9719 26.9313 24.8927 29.8521C23.0028 37.2399 25.9236 45.1432 30.3906 47.7203C30.906 48.0639 31.9369 48.5793 33.1396 48.7512C33.9986 49.4384 34.6859 50.1256 35.2013 50.4693C35.7167 50.8129 35.8885 51.3283 35.8885 51.8437C36.0603 58.2007 33.4832 62.3242 32.1087 64.3859C31.4215 65.5885 31.0779 66.104 31.4215 66.7912C31.5933 66.963 31.9369 67.1348 32.6241 67.1348C39.6684 65.7604 47.0562 70.2274 49.6333 68.1657C50.1488 67.6503 50.3206 67.1348 50.3206 66.2758C50.3206 66.2758 50.4924 59.0598 50.836 56.998C50.836 56.139 52.0387 56.139 52.8977 56.3108C54.444 56.3108 57.3648 57.1699 58.2238 56.6544C59.7701 55.9672 59.5983 54.7645 59.4265 53.7337C59.2547 53.39 59.2547 53.0464 59.2547 52.7028C59.2547 52.0156 59.5983 51.8437 59.7701 51.6719C59.9419 51.3283 60.1138 51.1565 60.1138 50.6411C60.1138 50.2975 60.1138 50.1256 60.1138 49.9538C60.2856 49.6102 60.2856 49.2666 60.1138 49.0948C60.1138 48.923 60.1138 48.923 60.1138 48.923C59.9419 48.7512 59.9419 48.4075 59.9419 48.2357V48.0639C59.9419 48.0639 60.1138 48.0639 60.1138 47.8921C61.1446 47.5485 62.6909 46.8613 61.66 44.7995C61.66 44.4559 61.3164 44.1123 60.9728 43.5969C60.2856 42.3942 59.2547 40.8479 59.2547 39.817C59.0829 39.6452 59.4265 39.1298 59.5983 38.6144C59.9419 37.9271 60.2856 37.4117 60.2856 36.7245C60.2856 35.5218 60.2856 34.4909 59.9419 33.4601C59.7701 32.601 59.4265 31.5702 58.9111 30.3675ZM37.7784 36.209C39.4965 34.6627 41.9019 36.8963 43.1046 38.958C43.2764 39.3016 43.7918 39.817 44.3072 39.817C45.1663 39.6452 45.5099 38.958 45.8535 37.7553C46.5408 36.0372 47.7434 33.4601 50.3206 32.7728C52.7259 32.2574 55.6467 31.9138 57.5366 31.2265C58.052 32.0856 58.2238 32.9446 58.3956 33.8037C58.5675 34.8346 58.7393 35.6936 58.5675 36.7245C58.5675 37.0681 58.3956 37.4117 58.2238 37.9271C57.8802 38.6144 57.5366 39.3016 57.5366 39.9889C57.7084 41.3633 58.9111 43.0814 59.5983 44.4559C59.9419 44.7995 60.1138 45.315 60.2856 45.4868C60.4574 46.0022 59.9419 46.3458 59.4265 46.5176C59.2547 46.5176 59.0829 46.6894 59.0829 46.6894C58.3957 47.2049 58.2238 47.7203 58.2238 48.4075C58.3956 48.7512 58.3957 49.0948 58.5675 49.2666C58.3957 49.4384 58.3956 49.6102 58.2238 49.782C58.2238 49.782 58.2238 49.9538 58.3956 50.1256C58.3956 50.2975 58.3957 50.4693 58.5675 50.4693L58.3956 50.6411C58.052 50.9847 57.7084 51.5001 57.7084 52.7028C57.7084 53.0464 57.7084 53.5618 57.7084 53.9055C57.8802 54.4209 57.8802 55.1081 57.7084 55.1081C57.0212 55.4518 53.9286 54.7645 52.8977 54.7645C51.1796 54.5927 49.2897 54.7645 49.1179 56.8262L48.7743 66.2758C48.7743 66.7912 48.6025 66.7912 48.6025 66.963C47.228 67.9939 39.8402 64.7295 33.4832 65.4167C36.0603 61.2933 37.6066 57.1699 37.6066 51.8437C37.4348 49.9538 36.2322 49.2666 35.5449 48.5793C36.7476 48.2357 37.6066 47.5485 38.1221 46.174C39.6684 42.7378 35.2013 38.4426 37.7784 36.209Z" fill="white"/>
</svg>
