<svg width="85" height="85" viewBox="0 0 85 85" fill="none" xmlns="http://www.w3.org/2000/svg">
<path fill-rule="evenodd" clip-rule="evenodd" d="M42.5 0C65.97 0 85 19.03 85 42.5C85 65.97 65.97 85 42.5 85C19.03 85 0 65.97 0 42.5C0 19.03 19.03 0 42.5 0Z" fill="#8C52FF" fill-opacity="0.2"/>
<path fill-rule="evenodd" clip-rule="evenodd" d="M42.4993 7.53003C61.8093 7.53003 77.4693 23.19 77.4693 42.5C77.4693 61.81 61.8093 77.47 42.4993 77.47C23.1893 77.47 7.5293 61.81 7.5293 42.5C7.5293 23.19 23.1893 7.53003 42.4993 7.53003Z" fill="#8C52FF" fill-opacity="0.2"/>
<path d="M42.4997 71.5699C58.5546 71.5699 71.5697 58.5548 71.5697 42.4999C71.5697 26.445 58.5546 13.4299 42.4997 13.4299C26.4448 13.4299 13.4297 26.445 13.4297 42.4999C13.4297 58.5548 26.4448 71.5699 42.4997 71.5699Z" fill="#8C52FF"/>
<path fill-rule="evenodd" clip-rule="evenodd" d="M53.0799 48.0125C53.7527 48.0125 54.0891 48.3489 54.0891 48.8535C54.0891 49.3581 53.7527 49.8627 53.0799 49.8627C52.5753 49.8627 52.2389 49.3581 52.2389 48.8535C52.2389 48.3489 52.5753 48.0125 53.0799 48.0125ZM31.5506 14.8775C34.0736 14.373 36.7647 14.8775 38.7831 17.2323C35.9237 17.9051 33.2326 19.0825 31.046 20.7645C29.364 22.1101 28.0185 23.792 27.0093 25.6422C26.8411 25.9786 26.6729 26.4832 26.5047 26.9878C24.4863 24.8012 24.3181 22.4464 24.9909 20.4281C25.4955 19.0825 26.3365 17.9051 27.5139 16.8959C28.6912 15.8867 30.0368 15.2139 31.5506 14.8775ZM35.4192 20.0917C44.3336 16.2231 52.0707 19.2507 58.1259 26.8196C58.7986 27.6606 58.7986 27.997 58.7986 28.1652C58.4622 28.838 54.9301 29.3426 54.2573 29.5108C49.5478 30.3517 47.6976 30.5199 45.3428 36.0705C45.3428 36.2387 45.1746 36.4069 45.1746 36.5751C43.3244 33.7157 40.1287 31.6973 37.6057 34.0521C34.2418 37.0797 38.7831 41.7892 37.6057 44.4804C37.1011 45.8259 36.0919 46.1623 34.5782 45.9941C29.1958 45.4895 25.4955 37.2479 27.1775 29.8472V30.0153L27.5139 28.6698C27.6821 28.3334 27.8503 27.8288 28.0185 27.4924C29.364 24.4648 31.7188 21.7737 35.4192 20.0917ZM59.8078 29.3426C60.817 28.3334 60.3124 26.9878 59.3032 25.8104C53.9209 19.0825 47.5294 16.0549 40.6333 17.0641C38.1103 13.532 34.5782 12.5228 31.2142 13.1956C29.5322 13.7002 27.8503 14.5412 26.5047 15.5503C25.1591 16.7277 23.9817 18.2415 23.4771 19.9235C22.4679 22.6146 22.9725 25.9786 25.8319 28.6698C23.9817 36.0705 26.8411 43.9758 31.3824 46.6669C31.887 47.0033 32.8962 47.5079 34.2418 47.6761C34.9146 48.3489 35.7555 49.0217 36.2601 49.3581C36.5965 49.6945 36.9329 50.1991 36.9329 50.7037C37.1011 57.0952 34.41 61.3001 33.0644 63.3185C32.3916 64.4959 32.0552 65.0005 32.3916 65.6733C32.5598 65.8415 32.8962 66.1779 33.569 66.0097C40.6333 64.6641 48.034 69.0372 50.5569 67.0189C51.0615 66.6825 51.3979 66.0097 51.3979 65.1687C51.3979 65.1687 51.3979 57.9362 51.7343 55.9178C51.7343 55.0768 53.0799 55.0768 53.9209 55.245C55.2665 55.245 58.2941 55.9178 59.135 55.5814C60.1442 55.245 60.3124 54.5722 60.4806 53.8994C60.4806 53.8994 60.4806 53.8994 60.6488 53.7312C61.1534 53.563 61.1534 52.8902 60.9852 52.5539C60.817 52.2175 60.4806 52.0493 60.3124 52.0493C60.1442 51.8811 60.1442 51.7129 60.1442 51.7129C60.3124 51.0401 60.4806 50.7037 60.6488 50.5355C60.817 50.1991 60.9852 50.0309 61.1534 49.5263C61.1534 49.3581 61.1534 49.0217 60.9852 48.8535C60.9852 48.8535 60.9852 48.8535 61.1534 48.8535C61.1534 48.5171 61.1534 48.1807 61.1534 48.0125C61.1534 47.8443 61.1534 47.8443 60.9852 47.8443C60.9852 47.6761 60.817 47.3397 60.817 47.1715V47.0033C60.817 47.0033 60.9852 47.0033 61.1534 46.8351C62.1626 46.4987 63.6764 45.6577 62.6672 43.6394C62.499 43.4712 62.3308 42.9666 61.9944 42.462C61.1534 41.2846 60.1442 39.7708 60.1442 38.7616C60.1442 38.5934 60.3124 38.0888 60.6488 37.5843C60.817 36.9115 61.1534 36.2387 61.1534 35.7341C61.1534 34.5567 61.1534 33.5475 60.9852 32.5383C60.817 31.5291 60.4806 30.5199 59.8078 29.3426ZM38.6149 35.2295C40.4651 33.5475 42.8199 35.9023 43.9972 37.7524C44.3336 38.257 44.67 38.7616 45.3428 38.7616C46.0156 38.5934 46.352 37.7524 46.8566 36.7433C47.5294 34.8931 48.7068 32.3701 51.2297 31.6973C53.7527 31.1927 56.6121 30.8563 58.4622 30.1835C58.9668 31.1927 59.135 32.0337 59.3032 32.7065C59.4714 33.7157 59.6396 34.5567 59.6396 35.7341C59.6396 35.9023 59.3032 36.4069 59.135 36.9115C58.7986 37.5842 58.4622 38.257 58.4622 38.9298C58.6304 40.2754 59.8078 42.1256 60.6488 43.303C60.817 43.8076 61.1534 44.144 61.1534 44.3122C61.4898 44.985 60.817 45.3214 60.4806 45.4895C60.3124 45.4895 60.1442 45.6577 59.976 45.6577C59.3032 46.1623 59.135 46.6669 59.3032 47.3397C59.3032 47.6761 59.3032 48.0125 59.4714 48.1807C59.3032 48.3489 59.3032 48.5171 59.3032 48.6853C59.135 48.8535 59.3032 48.8535 59.3032 49.0217C59.3032 49.1899 59.3032 49.3581 59.4714 49.3581C59.4714 49.5263 59.4714 49.5263 59.3032 49.5263C59.3032 49.6945 59.135 49.8627 58.9668 50.0309C58.6304 49.6945 57.9577 49.8627 57.6213 50.1991C57.2849 50.5355 57.2849 51.2083 57.7895 51.5447C57.9577 51.7129 58.294 51.8811 58.6304 51.7129C58.6304 52.0493 58.6304 52.3857 58.6304 52.8902C58.7986 53.3948 58.7986 53.8994 58.6304 54.0676C57.9577 54.404 54.9301 53.7312 53.9209 53.563C52.0707 53.563 50.2206 53.7312 50.0524 55.7496L49.8842 63.8231C49.716 63.9913 49.5478 63.9913 49.5478 64.3277C49.3796 64.6641 49.3796 65.0005 49.716 65.3369C49.716 65.6733 49.5478 65.8415 49.5478 65.8415C48.2022 66.8507 40.8015 63.6549 34.41 64.3277C37.1011 60.1228 38.6149 56.086 38.4467 50.7037C38.4467 48.8535 37.2693 48.1807 36.4283 47.5079C37.6057 47.1715 38.6149 46.3305 39.1195 45.1532C40.6333 41.621 36.2601 37.4161 38.6149 35.2295ZM56.2757 48.5171C56.7803 48.6853 56.9485 49.1899 56.7803 49.6945C56.6121 50.1991 56.1075 50.5355 55.6029 50.3673C55.0983 50.1991 54.7619 49.5263 54.9301 49.0217C55.2665 48.5171 55.7711 48.3489 56.2757 48.5171ZM61.9944 55.4132C62.1626 55.9178 61.8262 56.4224 61.3216 56.5906C60.817 56.5906 60.3124 56.2542 60.1442 55.7496C60.1442 55.245 60.4806 54.7404 60.9852 54.5722C61.4898 54.5722 61.9944 54.9086 61.9944 55.4132ZM61.9944 58.609C61.9944 59.1136 61.4898 59.45 60.9852 59.2818C60.4806 59.2818 60.1442 58.7772 60.1442 58.2726C60.3124 57.768 60.817 57.4316 61.3216 57.4316C61.8262 57.5998 62.1626 58.1044 61.9944 58.609ZM60.9852 61.4683C60.6488 61.9729 60.1442 62.1411 59.6396 61.8047C59.135 61.6365 58.9668 60.9637 59.3032 60.6273C59.6396 60.1228 60.1442 59.9546 60.6488 60.1228C61.1534 60.4591 61.1534 61.1319 60.9852 61.4683ZM58.9668 63.9913C58.6304 64.3277 57.9577 64.1595 57.6213 63.8231C57.2849 63.3185 57.2849 62.8139 57.7895 62.4775C58.1259 62.1411 58.7986 62.1411 59.135 62.6457C59.4714 62.9821 59.3032 63.6549 58.9668 63.9913ZM56.2757 65.5051C55.7711 65.6733 55.2665 65.3369 54.9301 64.8323C54.7619 64.4959 55.0983 63.8231 55.6029 63.6549C56.1075 63.4867 56.6121 63.8231 56.7803 64.3277C56.9485 64.8323 56.7803 65.3369 56.2757 65.5051ZM53.0799 66.0097C52.5753 66.0097 52.2389 65.6733 52.2389 65.0005C52.2389 64.4959 52.5753 64.1595 53.0799 64.1595C53.7527 64.1595 54.0891 64.4959 54.0891 65.0005C54.0891 65.6733 53.7527 66.0097 53.0799 66.0097ZM47.3612 63.9913C46.8566 63.6549 46.8566 62.9821 47.193 62.6457C47.5294 62.1411 48.2022 62.1411 48.5386 62.4775C49.0432 62.8139 49.0432 63.3185 48.7068 63.8231C48.3704 64.1595 47.6976 64.3277 47.3612 63.9913ZM45.3428 61.4683C45.0064 61.1319 45.1746 60.4591 45.6792 60.1228C46.1838 59.9546 46.6884 60.1228 47.0248 60.6273C47.193 60.9637 47.0248 61.6365 46.6884 61.8047C46.1838 62.1411 45.511 61.9729 45.3428 61.4683ZM44.1654 58.609C44.1654 58.1044 44.5018 57.5998 45.0064 57.4316C45.511 57.4316 46.0156 57.768 46.1838 58.2726C46.1838 58.7772 45.8474 59.2818 45.3428 59.2818C44.8382 59.45 44.3336 59.1136 44.1654 58.609ZM44.1654 55.4132C44.3336 54.9086 44.8382 54.5722 45.3428 54.5722C45.8474 54.7404 46.1838 55.245 46.1838 55.7496C46.0156 56.2542 45.511 56.5906 45.0064 56.5906C44.5018 56.4224 44.1654 55.9178 44.1654 55.4132ZM45.3428 52.5539C45.511 52.0493 46.1838 51.8811 46.6884 52.0493C47.0248 52.3857 47.193 52.8903 47.0248 53.3948C46.6884 53.8994 46.1838 54.0676 45.6792 53.7312C45.1746 53.563 45.0064 52.8902 45.3428 52.5539ZM47.3612 50.0309C47.6976 49.6945 48.3704 49.8627 48.7068 50.1991C49.0432 50.5355 49.0432 51.2083 48.5386 51.5447C48.2022 51.8811 47.5294 51.8811 47.193 51.3765C46.8566 51.0401 46.8566 50.3673 47.3612 50.0309ZM50.0524 48.5171C50.5569 48.3489 51.0615 48.5171 51.2297 49.0217C51.3979 49.5263 51.2297 50.1991 50.7251 50.3673C50.2206 50.5355 49.716 50.1991 49.5478 49.6945C49.2114 49.1899 49.5478 48.6853 50.0524 48.5171Z" fill="white"/>
</svg>
