<svg width="85" height="85" viewBox="0 0 85 85" fill="none" xmlns="http://www.w3.org/2000/svg">
<path fill-rule="evenodd" clip-rule="evenodd" d="M42.5 0C65.97 0 85 19.03 85 42.5C85 65.97 65.97 85 42.5 85C19.03 85 0 65.97 0 42.5C0 19.03 19.03 0 42.5 0Z" fill="#8C52FF" fill-opacity="0.2"/>
<path fill-rule="evenodd" clip-rule="evenodd" d="M42.4993 7.53003C61.8093 7.53003 77.4693 23.19 77.4693 42.5C77.4693 61.81 61.8093 77.47 42.4993 77.47C23.1893 77.47 7.5293 61.81 7.5293 42.5C7.5293 23.19 23.1893 7.53003 42.4993 7.53003Z" fill="#8C52FF" fill-opacity="0.2"/>
<path d="M42.4997 71.5699C58.5546 71.5699 71.5697 58.5548 71.5697 42.4999C71.5697 26.445 58.5546 13.4299 42.4997 13.4299C26.4448 13.4299 13.4297 26.445 13.4297 42.4999C13.4297 58.5548 26.4448 71.5699 42.4997 71.5699Z" fill="#8C52FF"/>
<path fill-rule="evenodd" clip-rule="evenodd" d="M31.6419 15.9135C34.0219 15.2336 36.7418 15.9135 38.7817 18.2935C35.8918 18.8034 33.3419 20.1634 31.132 21.8633C29.432 23.2233 28.0721 24.7533 27.0521 26.6232C26.8821 27.1332 26.5421 27.4732 26.3721 27.9832C24.5022 25.9432 24.1622 23.5633 25.0122 21.5234C25.5221 20.1634 26.3721 18.8034 27.5621 17.9535C28.752 16.9335 30.112 16.2535 31.6419 15.9135ZM42.5216 48.3825C42.5216 48.8925 42.1816 49.2325 41.6716 49.2325C41.1616 49.2325 40.8217 48.7225 40.8217 48.3825L40.9916 45.6626C40.9916 45.4926 41.1616 45.1526 41.3316 44.9826C41.5016 44.8126 41.6716 44.8126 41.8416 44.8126H44.5615C45.0715 44.8126 45.4115 45.3226 45.4115 45.6626C45.4115 46.1726 45.0715 46.5126 44.5615 46.5126H43.7116C44.5615 47.3625 45.5815 48.2125 46.9415 48.8925C48.6414 49.9124 50.8513 50.5924 53.7412 50.7624L53.2313 50.0824C52.8913 49.7425 52.8913 49.2325 53.2313 49.0625C53.5712 48.7225 54.0812 48.7225 54.4212 49.0625L56.1212 51.1024C56.2912 51.2724 56.2912 51.4424 56.2912 51.6124C56.2912 51.9524 56.1212 52.1224 55.9512 52.2924L53.9112 53.9923C53.5712 54.3323 53.0613 54.3323 52.7213 53.9923C52.5513 53.6523 52.5513 53.1423 52.8913 52.8024L53.4012 52.2924C50.3413 52.1224 48.1314 51.2724 46.2615 50.2524C44.7315 49.5725 43.5416 48.5525 42.5216 47.7025V48.3825ZM35.5518 21.1834C44.3915 17.2735 52.0413 20.3334 58.1611 27.8132C58.8411 28.6631 58.8411 29.0031 58.8411 29.1731C58.5011 29.8531 54.9312 30.3631 54.2512 30.5331C49.6614 31.383 47.6214 31.553 45.4115 37.1629C45.4115 37.3329 45.2415 37.5028 45.2415 37.6728C43.3716 34.7829 40.1417 32.743 37.5918 35.1229C34.1919 38.1828 38.7817 42.9427 37.7618 45.6626C37.0818 46.8525 36.0618 47.1925 34.5319 47.1925C29.262 46.5126 25.5221 38.3528 27.2221 30.8731V31.0431L27.5621 29.6831C27.7321 29.3431 27.9021 28.8331 28.0721 28.4931C29.262 25.4332 31.6419 22.7133 35.5518 21.1834ZM59.861 30.3631C60.711 29.3431 60.371 27.9832 59.3511 26.7932C53.9112 20.1634 47.4514 17.1035 40.6517 18.1235C38.1017 14.3836 34.5319 13.5336 31.302 14.2136C29.602 14.7236 27.9021 15.5735 26.5421 16.5935C25.1822 17.7835 23.9922 19.3134 23.4822 20.8434C22.4622 23.7333 22.9722 26.9632 25.8621 29.8531C23.9922 37.1629 26.8821 45.1526 31.302 47.7025C31.9819 48.0425 33.0019 48.5525 34.1919 48.7225C35.0418 49.4025 35.7218 50.0824 36.2318 50.4224C36.7418 50.7624 36.9118 51.2724 36.9118 51.7824C37.0818 58.0722 34.3619 62.3221 33.1719 64.362C32.4919 65.5519 32.1519 66.0619 32.4919 66.7419C32.6619 66.9119 33.0019 67.2519 33.6819 67.0819C40.6517 65.8919 48.1314 70.1418 50.6813 68.1019C51.1913 67.7619 51.3613 67.0819 51.3613 66.2319C51.3613 66.2319 51.5313 58.9222 51.7013 56.8822C51.8713 56.2022 53.0613 56.2022 53.9112 56.2022C55.4412 56.3722 58.3311 57.0522 59.1811 56.7122C60.711 56.0322 60.541 54.8423 60.371 53.6523C60.371 53.3123 60.201 52.9723 60.201 52.8024C60.371 52.1224 60.541 51.7824 60.711 51.6124C60.881 51.2724 61.051 51.1024 61.221 50.5924C61.221 50.4224 61.051 50.0824 61.051 49.9124C61.221 49.5725 61.221 49.2325 61.221 49.0625C61.051 48.8925 61.051 48.8925 61.051 48.8925C61.051 48.7225 60.881 48.3825 60.881 48.2125V48.0425C60.881 48.0425 61.051 48.0425 61.221 48.0425C62.071 47.5325 63.6009 46.8525 62.7509 44.8126C62.581 44.4726 62.241 43.9626 61.901 43.4527C61.221 42.4327 60.201 40.7327 60.201 39.8828C60.201 39.5428 60.371 39.0328 60.711 38.5228C60.881 38.0128 61.221 37.3329 61.221 36.6529C61.221 35.4629 61.221 34.6129 61.051 33.593C60.881 32.573 60.541 31.553 59.861 30.3631ZM38.7817 36.1429C40.4817 34.6129 42.8616 36.8229 44.0515 38.8628C44.3915 39.3728 44.7315 39.7128 45.2415 39.7128C46.0915 39.7128 46.4315 38.8628 46.9415 37.6728C47.6214 35.9729 48.6414 33.423 51.1913 32.743C53.7412 32.233 56.6311 31.893 58.5011 31.213C59.0111 32.233 59.1811 33.083 59.3511 33.763C59.5211 34.7829 59.6911 35.6329 59.6911 36.6529C59.6911 36.9929 59.3511 37.5028 59.1811 37.8428C58.8411 38.5228 58.5011 39.3728 58.5011 40.0528C58.6711 41.4127 59.861 43.1127 60.541 44.3026C60.881 44.8126 61.221 45.1526 61.221 45.4926C61.561 46.0026 60.881 46.3426 60.541 46.5126C60.371 46.5126 60.201 46.6826 60.031 46.6826C59.3511 47.1925 59.1811 47.7025 59.3511 48.3825C59.3511 48.7225 59.3511 49.0625 59.5211 49.2325C59.3511 49.4025 59.3511 49.5725 59.3511 49.7425C59.1811 49.9124 59.3511 49.9124 59.3511 50.0824C59.3511 50.2524 59.3511 50.4224 59.5211 50.4224C59.5211 50.5924 59.5211 50.5924 59.3511 50.5924C59.1811 50.9324 58.6711 51.4424 58.6711 52.6324C58.6711 53.1423 58.6711 53.4823 58.6711 53.8223C58.8411 54.5023 58.8411 55.0123 58.6711 55.1823C57.9911 55.5223 54.9312 54.8423 53.9112 54.6723C52.2113 54.6723 50.1714 54.8423 50.1714 56.8822L49.8314 66.2319C49.8314 66.7419 49.6614 66.9119 49.6614 66.9119C48.3014 67.9319 40.8217 64.702 34.3619 65.382C37.0818 61.1321 38.6117 57.2222 38.6117 51.7824C38.4417 49.9124 37.2518 49.2325 36.4018 48.5525C37.5918 48.2125 38.6117 47.5325 39.1217 46.1726C40.6517 42.7727 36.2318 38.5228 38.7817 36.1429Z" fill="white"/>
</svg>
