<svg width="80" height="80" viewBox="0 0 80 80" fill="none" xmlns="http://www.w3.org/2000/svg">
<path fill-rule="evenodd" clip-rule="evenodd" d="M40 0C62.09 0 80 17.91 80 40C80 62.09 62.09 80 40 80C17.91 80 0 62.09 0 40C0 17.91 17.91 0 40 0Z" fill="#8C52FF" fill-opacity="0.2"/>
<path d="M40.0014 74.5599C59.0884 74.5599 74.5614 59.0869 74.5614 39.9999C74.5614 20.913 59.0884 5.43994 40.0014 5.43994C20.9144 5.43994 5.44141 20.913 5.44141 39.9999C5.44141 59.0869 20.9144 74.5599 40.0014 74.5599Z" fill="#8C52FF"/>
<path d="M47.07 28.6136C47.05 28.5936 47.03 28.5836 47.02 28.5636L46.97 28.5236C46.37 28.0236 45.48 28.0636 44.93 28.6136L34.63 38.9036C34.27 39.2736 34.27 39.8636 34.63 40.2236L39.07 44.6636C39.43 45.0236 40.02 45.0236 40.39 44.6636L50.68 34.3636C51.24 33.8036 51.27 32.9036 50.75 32.3036L47.07 28.6136ZM39.73 42.6836L36.61 39.5736L46 30.1836L49.12 33.2936L39.73 42.6836Z" fill="white"/>
<path d="M54.2916 26.3235L60.0116 20.6035C60.3916 20.2435 60.3916 19.6435 60.0216 19.2735C59.6516 18.9035 59.0516 18.9135 58.6916 19.2835L52.9716 25.0035L52.7916 24.8235C51.7916 23.8235 50.1616 23.8235 49.1516 24.8235L48.2616 25.7135C46.4716 24.7035 44.2316 25.0035 42.7716 26.4535L26.6416 42.5735L26.1816 42.1135C25.3416 41.2735 23.9916 41.2735 23.1516 42.1135L22.0516 43.2135C21.2216 44.0535 21.2216 45.4035 22.0516 46.2435L24.9416 49.1235L21.5016 52.5635L19.7616 50.8235C18.7216 49.7835 17.0316 49.7835 15.9916 50.8235L15.6316 51.1835C14.5916 52.2235 14.5916 53.9135 15.6316 54.9535L24.3416 63.6735C24.8416 64.1635 25.5216 64.4535 26.2316 64.4535C26.9316 64.4535 27.6116 64.1635 28.1116 63.6735L28.4716 63.3035C29.5116 62.2635 29.5116 60.5835 28.4716 59.5335L26.7316 57.7935L30.1716 54.3635L33.0616 57.2435C33.8916 58.0835 35.2516 58.0835 36.0816 57.2435L37.1916 56.1435C38.0216 55.3035 38.0216 53.9535 37.1916 53.1135L36.7216 52.6535L52.8416 36.5335C54.2916 35.0735 54.5916 32.8235 53.5816 31.0335L54.4716 30.1435C55.4816 29.1435 55.4816 27.5035 54.4716 26.5035L54.2916 26.3235ZM27.1516 61.9835L26.7916 62.3535C26.4716 62.6535 25.9816 62.6535 25.6616 62.3535L16.9416 53.6335C16.6316 53.3235 16.6316 52.8135 16.9416 52.5035L17.3116 52.1435C17.6216 51.8335 18.1316 51.8335 18.4416 52.1435L27.1516 60.8535C27.4616 61.1735 27.4616 61.6735 27.1516 61.9835ZM25.4116 56.4835L22.8216 53.8835L26.2516 50.4435L28.8516 53.0435L25.4116 56.4835ZM35.8716 54.8235L34.7616 55.9235C34.6616 56.0335 34.4816 56.0335 34.3716 55.9235L23.3716 44.9235C23.2616 44.8135 23.2616 44.6335 23.3716 44.5335L24.4716 43.4235C24.5816 43.3235 24.7516 43.3235 24.8616 43.4235L34.7416 53.3135L35.8716 54.4335C35.9716 54.5435 35.9716 54.7135 35.8716 54.8235ZM51.4816 26.1435L53.1516 27.8235C53.4316 28.0935 53.4316 28.5535 53.1516 28.8235L52.3816 29.6035L49.7016 26.9135L50.4716 26.1435C50.7516 25.8735 51.1916 25.8735 51.4816 26.1435ZM51.5216 35.2135L35.4016 51.3335L27.9616 43.8935L44.0916 27.7735C45.0916 26.7735 46.6816 26.7135 47.7616 27.6335C47.8116 27.6735 47.8616 27.7235 47.9116 27.7735L51.5316 31.3835C51.5716 31.4335 51.6216 31.4835 51.6616 31.5335C52.5816 32.6135 52.5216 34.2135 51.5216 35.2135Z" fill="white"/>
<path d="M31.3713 43.2138C30.4913 42.3738 29.2013 43.6538 30.0513 44.5338L31.1513 45.6338C32.0313 46.4838 33.3213 45.1938 32.4713 44.3138L31.3713 43.2138Z" fill="white"/>
<path d="M33.54 41.0436C32.66 40.1636 31.34 41.4836 32.22 42.3636L33.32 43.4636C33.68 43.8236 34.28 43.8236 34.64 43.4636C35 43.0936 35 42.5036 34.64 42.1436L33.54 41.0436Z" fill="white"/>
<path d="M61.8181 24.6237C61.6281 24.4137 61.3681 24.2837 61.0781 24.2837C60.7981 24.2837 60.5281 24.4137 60.3481 24.6237C59.6981 25.4537 57.5781 28.2937 57.5781 29.9037C57.5981 31.8237 59.1581 33.3737 61.0781 33.3737C62.9981 33.3737 64.5681 31.8237 64.5881 29.9037C64.5881 28.2937 62.4681 25.4537 61.8181 24.6237ZM61.0781 31.5537C60.1781 31.5537 59.4381 30.8137 59.4381 29.9137C59.4381 29.3937 60.1981 28.0437 61.0781 26.7737C61.9681 28.0437 62.7281 29.3937 62.7281 29.9137C62.7181 30.8137 61.9881 31.5537 61.0781 31.5537Z" fill="white"/>
</svg>
