<svg width="80" height="80" viewBox="0 0 80 80" fill="none" xmlns="http://www.w3.org/2000/svg">
<path fill-rule="evenodd" clip-rule="evenodd" d="M40 0C62.09 0 80 17.91 80 40C80 62.09 62.09 80 40 80C17.91 80 0 62.09 0 40C0 17.91 17.91 0 40 0Z" fill="#8C52FF" fill-opacity="0.2"/>
<path d="M40.0014 74.5599C59.0884 74.5599 74.5614 59.0869 74.5614 39.9999C74.5614 20.913 59.0884 5.43994 40.0014 5.43994C20.9144 5.43994 5.44141 20.913 5.44141 39.9999C5.44141 59.0869 20.9144 74.5599 40.0014 74.5599Z" fill="#8C52FF"/>
<path d="M45.7346 28.1383H38.7178C38.2697 28.1383 37.9031 28.5151 37.9031 28.9632C37.9031 29.4215 38.2697 29.7881 38.7178 29.7881H45.7346C49.3601 29.7881 52.3032 32.7313 52.3032 36.3568V60.1771C52.3032 61.5315 51.2034 62.6314 49.8387 62.6314H29.1041C27.7497 62.6314 26.6396 61.5315 26.6396 60.1771V36.3568C26.6396 32.7313 29.5828 29.7881 33.2083 29.7881H34.135C34.5831 29.7881 34.9599 29.4215 34.9599 28.9632C34.9599 28.5151 34.5831 28.1383 34.135 28.1383V24.6554C34.135 24.1971 34.5016 23.8305 34.9599 23.8305H43.9931C44.4412 23.8305 44.8078 24.1971 44.8078 24.6554V25.7858C44.8078 26.2339 45.1744 26.6005 45.6327 26.6005C46.0808 26.6005 46.4576 26.2339 46.4576 25.7858V24.6554C46.4576 23.2907 45.3476 22.1909 43.9931 22.1909H43.4737V17.4655C43.4737 16.111 42.3738 15.001 41.0092 15.001H37.9336C36.5792 15.001 35.4691 16.111 35.4691 17.4655V22.1909H34.9599C33.5953 22.1909 32.4954 23.2907 32.4954 24.6554V28.179C28.2996 28.5457 25 32.0693 25 36.3568V60.1771C25 62.4379 26.8433 64.2812 29.1041 64.2812H49.8387C52.0995 64.2812 53.9428 62.4379 53.9428 60.1771V36.3568C53.9428 31.8249 50.2664 28.1383 45.7346 28.1383ZM37.1087 17.4655C37.1087 17.0174 37.4754 16.6406 37.9336 16.6406H41.0092C41.4675 16.6406 41.8341 17.0174 41.8341 17.4655V22.1909H37.1087V17.4655ZM56 16.8545C56 17.3026 55.6334 17.6692 55.1751 17.6692H54.9409C54.4826 17.6692 54.116 17.3026 54.116 16.8545C54.116 16.3962 54.4826 16.0296 54.9409 16.0296H55.1751C55.6334 16.0296 56 16.3962 56 16.8545ZM48.0972 16.8545C48.0972 16.3962 48.4639 16.0296 48.912 16.0296H52.2014C52.6597 16.0296 53.0263 16.3962 53.0263 16.8545C53.0263 17.3026 52.6597 17.6692 52.2014 17.6692H48.912C48.4639 17.6692 48.0972 17.3026 48.0972 16.8545ZM55.2362 22.5473C55.1242 22.8936 54.8085 23.1176 54.4622 23.1176C54.2687 23.1176 54.6659 23.2296 48.6574 21.2234C48.2296 21.0808 47.9954 20.6123 48.138 20.1846C48.2806 19.7569 48.749 19.5227 49.1767 19.6652L54.7168 21.5085C55.1547 21.6613 55.3788 22.1196 55.2362 22.5473ZM39.4714 39.1268C35.571 39.1268 32.3936 42.3042 32.3936 46.2148C32.3936 50.1153 35.571 53.2927 39.4714 53.2927C41.9054 53.2927 44.1459 52.0706 45.4494 50.0135C45.6938 49.6265 46.203 49.5145 46.5798 49.7589C46.9668 50.0033 47.0788 50.5125 46.8344 50.8995C45.2254 53.4251 42.4655 54.9323 39.4714 54.9323C34.6646 54.9323 30.7438 51.0217 30.7438 46.2148C30.7438 41.3978 34.6646 37.4872 39.4714 37.4872C44.2783 37.4872 48.1991 41.3978 48.1991 46.2148C48.1991 46.6629 47.8325 47.0296 47.3742 47.0296C46.9261 47.0296 46.5595 46.6629 46.5595 46.2148C46.5595 42.3042 43.3821 39.1268 39.4714 39.1268ZM38.6465 48.7812V47.0296H36.9051C36.457 47.0296 36.0802 46.6629 36.0802 46.2148C36.0802 45.7566 36.457 45.3899 36.9051 45.3899H38.6465V43.6485C38.6465 43.1902 39.0233 42.8236 39.4714 42.8236C39.9297 42.8236 40.2963 43.1902 40.2963 43.6485V45.3899H42.0378C42.4961 45.3899 42.8627 45.7566 42.8627 46.2148C42.8627 46.6629 42.4961 47.0296 42.0378 47.0296H40.2963V48.7812C40.2963 49.2293 39.9297 49.5959 39.4714 49.5959C39.0233 49.5959 38.6465 49.2293 38.6465 48.7812Z" fill="white"/>
</svg>
