<svg width="80" height="80" viewBox="0 0 80 80" fill="none" xmlns="http://www.w3.org/2000/svg">
<path fill-rule="evenodd" clip-rule="evenodd" d="M40 0C62.09 0 80 17.91 80 40C80 62.09 62.09 80 40 80C17.91 80 0 62.09 0 40C0 17.91 17.91 0 40 0Z" fill="#8C52FF" fill-opacity="0.2"/>
<path d="M40.0014 74.5599C59.0884 74.5599 74.5614 59.0869 74.5614 39.9999C74.5614 20.913 59.0884 5.43994 40.0014 5.43994C20.9144 5.43994 5.44141 20.913 5.44141 39.9999C5.44141 59.0869 20.9144 74.5599 40.0014 74.5599Z" fill="#8C52FF"/>
<path d="M54.0495 48.3887C54.0812 47.9028 54.5037 47.5437 54.9791 47.5754C55.465 47.6071 55.8347 48.0296 55.803 48.5049C55.6129 51.2302 54.884 53.776 53.8277 56.0365C52.634 58.5717 51.0179 60.7372 49.2961 62.3217C48.0073 63.5153 46.3172 64.6244 44.6377 65.4272C42.9475 66.2406 41.2574 66.7477 39.9687 66.7477C38.68 66.7477 36.9899 66.2406 35.2998 65.4272C33.6308 64.6244 31.9301 63.5153 30.6414 62.3322C28.9196 60.7477 27.3034 58.5823 26.1097 56.0365C25.0534 53.776 24.3246 51.2197 24.145 48.5049C24.1133 48.0296 24.4724 47.6071 24.9583 47.5754C25.4443 47.5437 25.8562 47.9028 25.8879 48.3887C26.0569 50.8817 26.733 53.2267 27.6942 55.2971C28.7928 57.621 30.2717 59.5963 31.8245 61.0435C32.9864 62.1104 34.5286 63.1139 36.0603 63.8533C37.518 64.5505 38.9441 64.9942 39.9687 64.9942C41.0039 64.9942 42.43 64.5505 43.8877 63.8533C45.4088 63.1139 46.951 62.1104 48.113 61.0435C49.6763 59.5963 51.1446 57.621 52.2432 55.2865C53.215 53.2267 53.8805 50.8817 54.0495 48.3887Z" fill="white"/>
<path d="M22.4654 45.9806C22.571 46.5087 22.8879 46.9946 23.3316 47.301C23.5745 47.4594 23.8597 47.5756 24.1766 47.6179C24.7259 39.8645 31.2963 36.537 37.1483 33.5793C37.9934 33.1462 38.8279 32.7237 39.5567 32.3329C44.5743 29.6498 47.0989 27.0618 48.0496 24.6639C48.958 22.3823 48.4193 20.2168 47.2996 18.2943C47.1517 18.0514 47.0038 17.819 46.8348 17.6077C45.6517 16.0972 43.7398 15.0725 41.4264 14.819C39.0497 14.5549 36.261 15.1042 33.4089 16.7626C32.6906 17.1852 31.9723 17.6711 31.2751 18.2204C27.4512 21.1992 24.6203 25.2238 23.0781 30.0406C21.5992 34.6673 21.3034 40.044 22.4548 45.9489L22.4654 45.9806ZM22.3492 48.7481C21.5147 48.1777 20.9443 47.301 20.7436 46.3292L20.733 46.2869C19.5288 40.0863 19.8457 34.4138 21.4091 29.5125C23.0569 24.347 26.0991 20.0372 30.1977 16.8366C30.9899 16.2239 31.761 15.6957 32.5322 15.2521C35.7328 13.3824 38.8912 12.7697 41.6166 13.0761C44.4052 13.3824 46.7397 14.65 48.208 16.5302C48.4298 16.8155 48.6411 17.1112 48.8101 17.4176C50.1833 19.7626 50.8171 22.4351 49.6763 25.3083C48.5777 28.0653 45.8102 30.9702 40.3807 33.8751C39.5567 34.3187 38.7539 34.7307 37.9405 35.1427C32.3315 37.9736 26.0252 41.1743 25.8984 48.4101C25.909 48.8432 25.6132 49.2235 25.1801 49.308C24.0921 49.5193 23.1097 49.2657 22.3492 48.7481Z" fill="white"/>
<path d="M42.9793 31.8679C42.5462 31.6672 42.3455 31.1496 42.5462 30.706C42.7469 30.2623 43.2645 30.0722 43.7081 30.2729C47.7961 32.1531 50.9228 34.5721 52.9827 37.5826C55.0531 40.6143 56.0249 44.2375 55.8031 48.4945C55.7714 48.9804 55.3594 49.3501 54.884 49.3184C54.3981 49.2973 54.0284 48.8853 54.0496 48.3994C54.2608 44.5438 53.3841 41.2798 51.5355 38.565C49.6658 35.8291 46.7715 33.6108 42.9793 31.8679Z" fill="white"/>
<path d="M54.9052 46.8468C54.4193 46.8468 54.0284 46.4454 54.039 45.9595C54.039 45.4841 54.4404 45.0933 54.9263 45.1038C55.4756 45.1038 55.9826 44.8503 56.4157 44.4595C56.9861 43.9313 57.4086 43.1813 57.6199 42.4736C58.2643 40.2764 58.4755 38.206 57.9685 36.4737C57.4826 34.8047 56.2995 33.4103 54.1657 32.4702C53.7221 32.2801 53.5214 31.7625 53.7115 31.3188C53.9016 30.8752 54.4193 30.6745 54.8629 30.8646C57.5354 32.0265 59.0248 33.8223 59.6481 35.9772C60.2607 38.0793 60.0283 40.4771 59.2995 42.9701C59.0143 43.9419 58.4122 44.9982 57.5988 45.7482C56.8594 46.4137 55.9509 46.8679 54.9052 46.8468Z" fill="white"/>
<path d="M57.7889 33.3888C57.6833 33.8535 57.2185 34.1599 56.7431 34.0542C56.2678 33.9486 55.972 33.4838 56.0777 33.0085C56.1199 32.8395 56.1516 32.6282 56.1727 32.4064L56.1833 32.3853C56.4157 30.3888 55.7608 28.1811 54.5671 26.3642C53.3735 24.5579 51.6622 23.1424 49.782 22.7304C49.6235 22.6988 49.4545 22.6671 49.2644 22.6459C48.7785 22.5826 48.4404 22.1495 48.4932 21.6636C48.5566 21.1882 48.9897 20.8396 49.4756 20.903C49.6763 20.9241 49.9087 20.9664 50.1517 21.0192C52.5073 21.5368 54.5988 23.2375 56.0248 25.4029C57.4403 27.5473 58.2009 30.1775 57.9262 32.586V32.6176C57.8945 32.85 57.8523 33.1036 57.7889 33.3888Z" fill="white"/>
<path d="M55.3382 45.2513C55.3382 44.1316 53.8277 44.2795 53.8277 45.1563C53.7643 46.1809 53.5847 47.026 53.4052 48.0295C53.2256 49.1175 54.7361 49.2442 54.884 48.3675C55.0847 47.2795 55.2749 46.371 55.3382 45.2513ZM26.1309 45.3358C25.9619 44.3323 24.6203 44.4485 24.6203 45.4626C24.6837 46.4239 24.8527 47.6386 25.1062 48.5682C25.2436 49.4238 26.7647 49.3287 26.5745 48.2196C26.3527 47.3534 26.1942 46.2337 26.1309 45.3358ZM28.0534 52.3181C27.4618 51.3358 26.2576 52.2653 26.7013 52.9942C27.1449 53.9132 27.6942 54.8744 28.2858 55.6984C28.909 56.4906 30.0498 55.7089 29.5322 54.8322C28.9829 54.04 28.4759 53.1843 28.0534 52.3181ZM32.4054 58.0751C31.5921 57.4202 30.6942 58.635 31.4336 59.2371C32.1625 59.818 33.1871 60.6314 34.011 61.0434C34.3596 61.2441 34.8772 61.1279 35.0462 60.7793C35.2786 60.399 35.1308 59.9448 34.7822 59.7335C34.0216 59.3533 33.0815 58.6138 32.4054 58.0751ZM38.7434 61.4237C37.6342 61.2335 37.5392 62.7441 38.3948 62.8919C38.923 63.0081 39.43 63.0927 39.9687 63.0927C40.5497 63.0927 41.2046 62.987 41.7645 62.8391C42.8102 62.4905 42.2081 61.0962 41.3631 61.3814C40.93 61.4976 40.4229 61.5821 39.9687 61.5821C39.5251 61.5821 39.1765 61.4976 38.7434 61.4237ZM45.3137 59.6385C44.532 60.1138 45.1341 61.4237 46.0954 60.9377C47.0567 60.3462 47.8066 59.7969 48.6728 59.0892C49.3911 58.5188 48.5038 57.2829 47.6693 57.9589C47.1095 58.5188 46.0109 59.2159 45.3137 59.6385ZM50.5214 54.6843C49.951 55.6244 51.3136 56.3005 51.7784 55.5294C52.37 54.6737 52.8664 53.7442 53.3312 52.8041C53.7643 51.9484 52.4228 51.2301 51.9686 52.1491C51.5355 53.0259 51.0813 53.8815 50.5214 54.6843Z" fill="white"/>
<path d="M25.1062 44.375C24.3668 44.9665 25.2541 46.1919 26.0886 45.5264C26.828 44.8926 27.6097 44.3222 28.4336 43.8046C28.7505 43.6144 28.8984 43.1391 28.6977 42.7905C28.4759 42.4208 28.0322 42.2835 27.6308 42.5159C26.7435 43.0757 25.8879 43.6989 25.1062 44.375ZM54.4509 45.5475C55.222 46.1602 56.1727 44.9877 55.391 44.3539C55.0107 44.0581 54.6305 43.7729 54.2291 43.4982C53.3629 42.9701 52.5812 44.1109 53.3629 44.7341C53.7326 44.9982 54.0917 45.2623 54.4509 45.5475ZM49.539 42.5898C50.6587 42.9595 50.9333 41.4595 50.1517 41.1954C49.1693 40.7729 48.2397 40.4349 47.2256 40.118C46.3278 39.8222 45.789 41.2377 46.782 41.5652C47.7432 41.8715 48.62 42.1884 49.539 42.5898ZM42.4722 40.7095C43.3489 40.8469 43.7292 39.3786 42.6306 39.199C41.5954 39.1039 40.5497 39.03 39.5145 39.0617C38.5638 39.0617 38.5004 40.5828 39.5462 40.5828C40.4757 40.53 41.5532 40.6145 42.4722 40.7095ZM35.1835 41.0898C36.0708 40.9314 35.9441 39.4208 34.8561 39.6004C33.8948 39.8222 32.7646 40.1074 31.8561 40.4666C30.9582 40.7624 31.3702 42.2201 32.3737 41.8926C33.2927 41.5546 34.2328 41.2905 35.1835 41.0898Z" fill="white"/>
</svg>
