<svg width="80" height="80" viewBox="0 0 80 80" fill="none" xmlns="http://www.w3.org/2000/svg">
<path fill-rule="evenodd" clip-rule="evenodd" d="M40 0C62.09 0 80 17.91 80 40C80 62.09 62.09 80 40 80C17.91 80 0 62.09 0 40C0 17.91 17.91 0 40 0Z" fill="#8C52FF" fill-opacity="0.2"/>
<path d="M40.0014 74.5599C59.0884 74.5599 74.5614 59.0869 74.5614 39.9999C74.5614 20.913 59.0884 5.43994 40.0014 5.43994C20.9144 5.43994 5.44141 20.913 5.44141 39.9999C5.44141 59.0869 20.9144 74.5599 40.0014 74.5599Z" fill="#8C52FF"/>
<path d="M20.7315 45.0447H15.0458C14.7573 45.0447 14.4928 45.1649 14.3125 45.3452C14.1202 45.5376 14 45.802 14 46.0905V51.68C14 51.9685 14.1202 52.2329 14.3125 52.4253C14.4928 52.6056 14.7573 52.7258 15.0458 52.7258H20.7315C20.8156 52.7258 20.8997 52.7138 20.9719 52.7017C21.056 52.6777 21.1281 52.6537 21.2003 52.6176L26.5734 49.925H29.2059L29.278 50.1774C30.444 53.7115 32.5476 57.558 35.3003 60.2987C37.524 62.5104 40.1806 64.001 43.0895 64.001C46.912 64.001 50.3739 61.4406 53.0064 57.8826C56.1678 53.6033 58.1512 47.9176 58.1992 43.47C58.2113 42.9532 59.0286 40.1043 59.209 39.3951C60.8558 32.8439 61 32.303 61 30.5C61 28.9613 60.7355 27.4588 60.2307 26.0283C59.7379 24.6099 58.9926 23.2636 58.043 22.0736L57.9949 22.0135L57.9829 21.9414C57.5982 20.511 56.7448 19.2608 55.6028 18.3833C54.4849 17.5179 53.0905 17.001 51.5639 17.001H38.7621C35.0478 17.001 31.6701 18.5156 29.2299 20.9557C26.7898 23.3959 25.2752 26.7736 25.2752 30.5C25.2752 32.303 25.4074 32.8439 27.0422 39.359C27.2225 40.0562 28.0639 43.0012 28.0639 43.47C28.076 44.0831 28.124 44.7322 28.1962 45.3813C28.2683 46.0424 28.3885 46.7276 28.5327 47.4127L28.6169 47.8455H26.5734L21.2003 45.1529C21.1281 45.1168 21.056 45.0928 20.9719 45.0688C20.8997 45.0567 20.8156 45.0447 20.7315 45.0447ZM40.5051 42.5805C40.1445 42.2199 39.5555 42.2199 39.1949 42.5805C38.2212 43.5542 36.6345 43.5542 35.6609 42.5805C35.3003 42.2199 34.6992 42.2199 34.3386 42.5805C33.978 42.9531 33.978 43.5422 34.3386 43.9028C35.1921 44.7562 36.31 45.1769 37.4279 45.1769C38.5458 45.1769 39.6637 44.7562 40.5051 43.9028C40.8778 43.5422 40.8778 42.9531 40.5051 42.5805ZM48.7151 45.1769C49.833 45.1769 50.9389 44.7562 51.7923 43.9028C52.1529 43.5422 52.1529 42.9531 51.7923 42.5805C51.4317 42.2199 50.8427 42.2199 50.4821 42.5805C49.4964 43.5542 47.9217 43.5542 46.9481 42.5805C46.5755 42.2199 45.9864 42.2199 45.6258 42.5805C45.2652 42.9531 45.2652 43.5422 45.6258 43.9028C46.4793 44.7562 47.5972 45.1769 48.7151 45.1769ZM45.9744 53.1585L45.2171 52.5936C44.58 52.1127 43.7747 51.9805 43.0294 52.2089C42.2962 51.9805 41.4908 52.1127 40.8417 52.5936L40.0844 53.1585C39.856 53.3388 39.6997 53.6033 39.6757 53.9038C39.6517 54.1923 39.7478 54.4808 39.9522 54.6971L40.2407 55.0097C40.9499 55.791 41.9716 56.2358 43.0294 56.2358C44.0992 56.2358 45.109 55.791 45.8302 55.0097L46.1187 54.6971C46.323 54.4808 46.4192 54.1923 46.3951 53.9038C46.3591 53.6033 46.2148 53.3388 45.9744 53.1585ZM38.7621 19.1046H51.5639C52.8141 19.1046 53.956 19.6094 54.7734 20.4268C55.5908 21.2562 56.1077 22.3861 56.1077 23.6483C56.1077 24.8864 55.5908 26.0283 54.7734 26.8457C53.956 27.6751 52.8141 28.18 51.5639 28.18H43.0895C40.0604 28.18 37.2356 29.0815 34.8795 30.6442C32.4514 32.2429 30.5041 34.5388 29.3261 37.2555L28.9174 38.1931L28.665 37.1953C28.0639 34.7913 27.7394 33.469 27.5711 32.5795C27.3908 31.6539 27.3668 31.1971 27.3668 30.5C27.3668 27.3506 28.6529 24.5017 30.7084 22.4462C32.776 20.3787 35.6248 19.1046 38.7621 19.1046ZM55.2302 29.1777C56.2159 28.5166 57.0333 27.591 57.5501 26.5092L57.9107 25.7639L58.1872 26.5332C58.4276 27.1703 58.5959 27.8194 58.7161 28.4925C58.8363 29.1537 58.8964 29.8268 58.8964 30.5C58.8964 31.1971 58.8844 31.6659 58.7041 32.5795C58.5238 33.481 58.1992 34.8033 57.5982 37.2194L57.3578 38.2051L56.9371 37.2795C56.5043 36.2938 55.9634 35.3442 55.3263 34.4667C54.7013 33.6012 53.968 32.7838 53.1506 32.0626C52.9343 31.8583 52.6939 31.6539 52.4414 31.4616C52.201 31.2693 51.9606 31.089 51.6962 30.9086L50.8668 30.3196L51.8765 30.2716C53.1146 30.2115 54.2565 29.8148 55.2302 29.1777ZM51.6721 56.1516C49.3642 59.4693 46.3471 61.9094 43.0895 61.9094C40.7335 61.9094 38.5698 60.6232 36.7307 58.7721C34.4107 56.4401 32.5957 53.1705 31.5739 50.4058L31.3936 49.925H34.2184C34.5069 49.925 34.7714 49.8168 34.9517 49.6245C35.144 49.4442 35.2522 49.1797 35.2522 48.8913C35.2522 48.5907 35.144 48.3263 34.9517 48.146C34.7593 47.9537 34.5069 47.8455 34.2184 47.8455H30.7685L30.7084 47.569C30.5281 46.8237 30.3959 46.0785 30.2997 45.3693C30.2156 44.648 30.1675 43.9508 30.1675 43.3017C30.1675 39.7076 31.61 36.4501 33.954 34.0941C36.298 31.7381 39.5315 30.2836 43.0895 30.2836C46.335 30.2836 49.3762 31.5457 51.7082 33.6133C54.0281 35.6808 55.6389 38.5537 56.0115 41.7751L56.0836 42.5445L56.1077 43.3017C56.1077 47.1243 54.3647 52.257 51.6721 56.1516ZM20.4069 50.6342H16.0916V47.1363H20.479L23.977 48.8913L20.4911 50.6342H20.4069Z" fill="white"/>
</svg>
