<svg width="85" height="85" viewBox="0 0 85 85" fill="none" xmlns="http://www.w3.org/2000/svg">
<path fill-rule="evenodd" clip-rule="evenodd" d="M42.5 0C65.97 0 85 19.03 85 42.5C85 65.97 65.97 85 42.5 85C19.03 85 0 65.97 0 42.5C0 19.03 19.03 0 42.5 0Z" fill="#8C52FF" fill-opacity="0.2"/>
<path fill-rule="evenodd" clip-rule="evenodd" d="M42.4993 7.53003C61.8093 7.53003 77.4693 23.19 77.4693 42.5C77.4693 61.81 61.8093 77.47 42.4993 77.47C23.1893 77.47 7.5293 61.81 7.5293 42.5C7.5293 23.19 23.1893 7.53003 42.4993 7.53003Z" fill="#8C52FF" fill-opacity="0.2"/>
<path fill-rule="evenodd" clip-rule="evenodd" d="M42.4997 13.4299C58.5597 13.4299 71.5797 26.4399 71.5797 42.4999C71.5797 58.5599 58.5597 71.5699 42.4997 71.5699C26.4397 71.5699 13.4297 58.5599 13.4297 42.4999C13.4297 26.4399 26.4397 13.4299 42.4997 13.4299Z" fill="#8C52FF"/>
<path d="M41.9772 56C41.6337 56 41.3204 55.776 41.2049 55.4482C41.0914 55.1261 41.1877 54.7548 41.4459 54.5333C41.7155 54.3021 42.1105 54.2734 42.4105 54.4613C42.6986 54.6418 42.8475 54.995 42.782 55.3308C42.707 55.7155 42.3635 56 41.9772 56Z" fill="white"/>
<path d="M62.9794 41.4121C62.929 41.192 62.7972 41.0135 62.6245 40.9006C59.9617 39.0717 57.7534 37.3471 55.8827 35.635L55.9581 35.4265L59.4893 34.0915C59.7696 33.9855 59.9858 33.742 60.0351 33.443C60.1013 33.0414 59.8763 32.6606 59.5124 32.523L55.9581 31.1792L54.6506 27.5689C54.5469 27.2828 54.3058 27.0618 54.0091 27.0116C53.6113 26.9444 53.2345 27.1746 53.1002 27.5456L51.7841 31.1792L51.721 31.2031C50.3025 29.515 49.4064 28.5948 46.8111 28.7201C45.1213 28.8012 44.4113 29.4022 43.5892 30.0981C43.3386 30.3102 43.0796 30.5294 42.7598 30.7653C42.2932 31.1095 41.6605 31.1096 41.1939 30.7653C40.8741 30.5294 40.615 30.3102 40.3645 30.0981C39.5425 29.4022 38.8324 28.8012 37.1427 28.72C34.4193 28.589 33.5667 29.6084 32.0184 31.4588C30.4713 33.3077 27.8819 36.4021 21.3144 40.9107C21.3143 40.9108 21.3136 40.9114 21.3121 40.9126C20.8031 41.3386 20.9393 42.1636 21.5566 42.4006L21.5717 42.4065C24.1578 43.0759 25.3472 45.0864 26.7242 47.4146C27.6853 49.0393 28.7746 50.8809 30.475 52.4106C32.4252 54.1649 34.8862 55.248 37.9987 55.7219C38.04 55.7282 38.0811 55.7312 38.1216 55.7312C38.5328 55.7312 38.8918 55.4177 38.9374 54.9863C38.9846 54.5383 38.6542 54.1389 38.2147 54.0713C32.013 53.1182 30.0406 49.7836 28.133 46.5586C27.3667 45.2632 26.6222 44.0046 25.6442 42.9717C26.4301 43.0391 27.3016 43.0917 28.2318 43.1131C28.9771 43.1302 29.7031 43.1265 30.4092 43.1021C34.2283 43.7232 37.5034 44.7194 40.1448 46.0637C40.7269 46.36 41.3519 46.508 41.9768 46.508C42.6018 46.508 43.2268 46.3599 43.8089 46.0636C46.4217 44.734 49.7386 43.6782 53.1589 43.0868C53.6976 43.1114 54.2481 43.1238 54.8103 43.1238C55.1106 43.1238 55.415 43.1203 55.7219 43.1133C56.6384 43.0922 57.4979 43.0408 58.2747 42.9748C57.2705 44.0146 56.4949 45.2833 55.6965 46.5892C53.7289 49.8076 51.6944 53.1356 45.6142 54.0774L45.6063 54.0785C45.166 54.1461 44.8363 54.5477 44.8852 54.9963C44.932 55.4262 45.2903 55.7383 45.7006 55.7383C45.7412 55.7383 45.7824 55.7352 45.8239 55.7289L45.8632 55.7228C48.9059 55.2515 51.3335 54.1752 53.2848 52.4326C54.9847 50.9144 56.1046 49.0824 57.0928 47.4659C58.5273 45.1194 59.7668 43.0919 62.3632 42.4115C62.7971 42.2979 63.0808 41.8546 62.9794 41.4121ZM52.7121 32.6052C52.9366 32.5203 53.1134 32.3401 53.196 32.1122L53.8712 30.2479L54.5464 32.1122C54.629 32.3402 54.8058 32.5203 55.0303 32.6052L56.8756 33.3029L55.0304 34.0005C54.8058 34.0853 54.629 34.2655 54.5464 34.4935L53.8712 36.3577L53.196 34.4935C53.1134 34.2654 52.9366 34.0853 52.712 34.0005L50.8668 33.3029L52.7121 32.6052ZM43.0721 44.5759C42.3659 44.9354 41.5881 44.9353 40.8819 44.5759C39.2807 43.761 37.4677 43.0685 35.4606 42.5038C37.3877 42.0862 39.1025 41.4583 40.5924 40.6225C41.0295 40.3774 41.4952 40.2531 41.9768 40.2531C42.4583 40.2531 42.9243 40.3774 43.3615 40.6225C44.8319 41.4473 46.5208 42.0697 48.4167 42.4874C46.4752 43.0621 44.6538 43.7709 43.0721 44.5759ZM44.1567 39.1658C43.4827 38.788 42.7289 38.5884 41.9768 38.5884C41.2245 38.5884 40.4708 38.7881 39.7971 39.166C34.6534 42.0511 27.3764 41.5596 23.9179 41.1043C29.45 37.102 31.8098 34.282 33.2711 32.5358C34.7516 30.7664 35.1497 30.291 37.065 30.383C38.2034 30.4377 38.5739 30.7513 39.3118 31.376C39.5705 31.5949 39.8636 31.8431 40.2276 32.1117C41.274 32.8837 42.6799 32.8837 43.7261 32.1117C44.0902 31.843 44.3833 31.5949 44.642 31.376C45.3801 30.7514 45.7505 30.4377 46.8889 30.383C48.5164 30.3049 49.0484 30.6364 50.08 31.8235L48.2299 32.523C47.9087 32.6445 47.6956 32.9554 47.6956 33.3029C47.6956 33.6503 47.9087 33.9613 48.2299 34.0828L51.7841 35.4265L53.1002 39.0602C53.2189 39.3878 53.5267 39.6058 53.8711 39.6058C54.2155 39.6058 54.5233 39.3879 54.642 39.0602L55.2742 37.3148C56.6739 38.5599 58.2474 39.8125 60.0365 41.1055C56.5795 41.5621 49.3067 42.0549 44.1567 39.1658Z" fill="white"/>
</svg>
