<svg width="80" height="80" viewBox="0 0 80 80" fill="none" xmlns="http://www.w3.org/2000/svg">
<path fill-rule="evenodd" clip-rule="evenodd" d="M40 0C62.09 0 80 17.91 80 40C80 62.09 62.09 80 40 80C17.91 80 0 62.09 0 40C0 17.91 17.91 0 40 0Z" fill="#8C52FF" fill-opacity="0.2"/>
<path d="M39.9995 74.5594C59.0864 74.5594 74.5594 59.0864 74.5594 39.9995C74.5594 20.9125 59.0864 5.43945 39.9995 5.43945C20.9125 5.43945 5.43945 20.9125 5.43945 39.9995C5.43945 59.0864 20.9125 74.5594 39.9995 74.5594Z" fill="#8C52FF"/>
<path d="M62.7501 35.4097C62.3748 35.2314 62.0135 35.0522 61.6647 34.8722C59.2234 33.6122 57.3933 32.3142 55.616 31.0538C52.7159 28.997 50.2112 27.2207 46.0078 26.3045C45.4998 26.1939 44.9691 26.0968 44.4297 26.0161C44.3799 26.0064 44.3289 26.0014 44.2776 26.0014C44.2728 26.0013 44.2679 26.0014 44.2632 26.0015C44.2447 26.0011 44.2262 26.001 44.207 26.001C44.0792 26.001 43.9521 26.0067 43.8255 26.0155C42.1981 26.1285 40.6774 26.9574 39.7009 28.2834C39.6245 28.3872 39.5158 28.4026 39.4579 28.4026C39.4145 28.4026 39.3427 28.3939 39.277 28.3458C39.2552 28.3297 39.2342 28.3094 39.215 28.2834C39.132 28.1707 39.0436 28.063 38.9529 27.9576C37.8631 26.6901 36.207 25.9145 34.3959 26.01C34.2329 26.0182 33.4274 26.1662 33.1856 26.2143L33.1847 26.2145C31.8402 26.4805 30.6092 26.8447 29.4213 27.3278C29.0089 27.4955 28.8102 27.967 28.9773 28.3807C29.1445 28.7944 29.6145 28.9937 30.0267 28.8261C31.119 28.3818 32.2544 28.0463 33.4985 27.8002C33.7796 27.7444 34.4211 27.6179 34.7082 27.6179C35.8039 27.6179 36.8193 28.0546 37.5674 28.8298C37.9667 29.2438 38.3378 30.0199 39.4583 30.0199C40.0735 30.0199 40.6344 29.7373 40.9975 29.2445C41.7472 28.226 42.947 27.6179 44.207 27.6179H44.2094C44.708 27.6929 45.1979 27.7826 45.6659 27.8845C49.3061 28.6781 51.626 30.2116 54.173 32.011C56.4633 33.6286 58.1589 34.859 60.7403 36.2121C56.6771 37.594 51.636 38.2649 47.4137 37.9403C45.2208 37.7717 43.2996 37.3385 41.7419 36.669C41.0339 36.3647 40.401 36.0115 39.8518 35.6123C39.5697 35.4073 39.1884 35.4073 38.9063 35.6123C38.6866 35.7721 38.4536 35.9243 38.2076 36.0691C36.2302 37.2334 33.6489 37.7631 31.3448 37.9403C27.1219 38.2645 22.0811 37.5943 18.018 36.2121C20.4816 34.9208 22.3734 33.579 24.0719 32.3743C25.1094 31.6385 26.0893 30.9436 27.1118 30.3177C27.4916 30.0853 27.6117 29.5879 27.38 29.2067C27.1483 28.8255 26.6525 28.7051 26.2726 28.9376C25.2036 29.5918 24.2021 30.3021 23.1417 31.0542C21.1108 32.4946 19.0107 33.9841 16.009 35.4097L16.0087 35.4098C16.0078 35.4102 16.0071 35.4107 16.0063 35.4111C15.9525 35.4366 15.9006 35.4653 15.8501 35.4957C15.8342 35.5052 15.8192 35.5158 15.8037 35.5257C15.769 35.5481 15.735 35.5713 15.7021 35.5958C15.6845 35.6091 15.6673 35.6226 15.6502 35.6364C15.6214 35.6596 15.5935 35.6839 15.5662 35.7089C15.5487 35.7248 15.5312 35.7407 15.5143 35.7574C15.5086 35.763 15.5024 35.7681 15.4968 35.7738C15.4863 35.7846 15.4774 35.7963 15.4676 35.8076C15.2721 36.0172 15.1278 36.2711 15.0547 36.5532C14.9279 37.0421 15.024 37.5597 15.3176 37.972C17.666 41.283 20.3545 44.7151 24.0929 47.3872C28.461 50.5094 33.461 52.0272 39.379 52.0272C42.8833 52.0272 46.1436 51.4719 49.0696 50.3768C49.4865 50.2207 49.6983 49.7551 49.5427 49.3369C49.3875 48.9183 48.9234 48.7057 48.5067 48.8617C45.7615 49.8893 42.6905 50.4103 39.3793 50.4103C27.4816 50.4103 21.5539 43.883 17.0146 37.5716C21.2602 39.0983 26.6261 39.8682 31.1538 39.5733C32.9816 40.9389 36.0203 41.7474 39.3793 41.7474C42.7385 41.7474 45.7775 40.9388 47.6052 39.5729C48.2445 39.6145 48.8991 39.6361 49.5665 39.6361C53.6245 39.636 58.0979 38.8824 61.7441 37.5712C59.6038 40.5486 57.1551 43.5833 53.8801 45.9623C53.5197 46.2242 53.4391 46.7294 53.7001 47.0912C53.8577 47.3095 54.1036 47.4256 54.3533 47.4256C54.517 47.4255 54.6823 47.3756 54.8251 47.2719C58.4856 44.6128 61.1291 41.2306 63.4396 37.9731C64.0723 37.0847 63.7226 35.8702 62.7501 35.4097ZM39.3793 40.1308C37.3585 40.1308 35.4452 39.8068 33.9444 39.2408C35.8454 38.8989 37.7679 38.2846 39.3793 37.2448C40.9973 38.2888 42.9357 38.9028 44.8142 39.2408C43.3134 39.8068 41.4001 40.1308 39.3793 40.1308Z" fill="white"/>
<path d="M69.8116 62.2827L61.737 52.6254C61.4603 52.2948 61.072 52.0921 60.6433 52.0547C59.8737 51.987 59.3964 52.4981 59.3536 52.5233C58.6798 51.8038 58.2952 50.974 57.149 50.5113L56.2025 50.129L55.1301 48.8466C54.6887 48.319 53.9016 48.2497 53.3754 48.6926L53.15 48.8824L49.9445 45.0496C49.6585 44.7077 49.1503 44.6629 48.8095 44.95C48.4687 45.2369 48.4242 45.7468 48.7103 46.0888L51.9157 49.9216L51.6902 50.1114C51.1642 50.5544 51.0953 51.3442 51.5368 51.872L52.6091 53.1541L52.82 54.1558C53.0774 55.3778 53.8194 55.8881 54.4124 56.6839C54.3685 56.7356 53.7982 57.0815 53.7282 57.8752C53.6903 58.3058 53.822 58.7254 54.099 59.0564L62.1746 68.7122C62.4592 69.0525 62.9671 69.1001 63.3096 68.8118C63.6504 68.5249 63.6949 68.0149 63.4088 67.673L61.2538 65.097L62.8281 63.7716C63.169 63.4847 63.2134 62.9747 62.9274 62.6328C62.6414 62.2908 62.1331 62.2463 61.7924 62.5332L60.2178 63.8589L58.3058 61.5734L59.8807 60.2474C60.2215 59.9605 60.2659 59.4505 59.98 59.1087C59.694 58.7668 59.1858 58.7222 58.8449 59.0091L57.2698 60.3352L55.3326 58.0196L56.0641 57.4034C56.0644 57.4031 56.0648 57.403 56.0652 57.4026L59.7723 54.2817C59.7794 54.2758 59.7856 54.2691 59.7925 54.2629L60.5027 53.6648L68.577 63.322C68.863 63.6641 69.3712 63.7089 69.712 63.4218C70.053 63.1346 70.0976 62.6248 69.8116 62.2827ZM55.6467 55.6444C54.9602 54.7581 54.5406 54.5053 54.3964 53.8216L54.144 52.6222C54.1166 52.4925 54.0578 52.3713 53.9728 52.2697L53.006 51.1138C54.3742 49.9619 54.0433 50.2404 54.1308 50.1668L55.0975 51.3229C55.3129 51.5804 55.5192 51.5691 56.5473 52.011C57.1918 52.2711 57.364 52.7254 58.1193 53.5626C58.0712 53.603 57.4911 54.0915 55.6467 55.6444Z" fill="white"/>
</svg>
