<svg width="81" height="80" viewBox="0 0 81 80" fill="none" xmlns="http://www.w3.org/2000/svg">
<path fill-rule="evenodd" clip-rule="evenodd" d="M40.2439 0C62.4417 0 80.4391 17.91 80.4391 40C80.4391 62.09 62.4417 80 40.2439 80C18.0462 80 0.0488281 62.09 0.0488281 40C0.0488281 17.91 18.0462 0 40.2439 0Z" fill="#8C52FF" fill-opacity="0.2"/>
<path d="M40.2442 74.5594C59.4243 74.5594 74.9728 59.0864 74.9728 39.9995C74.9728 20.9125 59.4243 5.43945 40.2442 5.43945C21.0641 5.43945 5.51562 20.9125 5.51562 39.9995C5.51562 59.0864 21.0641 74.5594 40.2442 74.5594Z" fill="#8C52FF"/>
<path d="M46.4222 26.3297H39.4986C39.0564 26.3297 38.6947 26.6997 38.6947 27.1397C38.6947 27.5897 39.0564 27.9497 39.4986 27.9497H46.4222C49.9996 27.9497 52.9037 30.8397 52.9037 34.3997V57.7897C52.9037 59.1197 51.8184 60.1997 50.4719 60.1997H30.0125C28.6761 60.1997 27.5807 59.1197 27.5807 57.7897V34.3997C27.5807 30.8397 30.4848 27.9497 34.0622 27.9497H34.9766C35.4188 27.9497 35.7906 27.5897 35.7906 27.1397C35.7906 26.6997 35.4188 26.3297 34.9766 26.3297V22.9097C34.9766 22.4597 35.3384 22.0997 35.7906 22.0997H44.7039C45.146 22.0997 45.5078 22.4597 45.5078 22.9097V24.0197C45.5078 24.4597 45.8695 24.8197 46.3217 24.8197C46.7639 24.8197 47.1357 24.4597 47.1357 24.0197V22.9097C47.1357 21.5697 46.0404 20.4897 44.7039 20.4897H44.1914V15.8497C44.1914 14.5197 43.1061 13.4297 41.7596 13.4297H38.7248C37.3884 13.4297 36.293 14.5197 36.293 15.8497V20.4897H35.7906C34.4441 20.4897 33.3588 21.5697 33.3588 22.9097V26.3697C29.2187 26.7297 25.9629 30.1897 25.9629 34.3997V57.7897C25.9629 60.0097 27.7817 61.8197 30.0125 61.8197H50.4719C52.7027 61.8197 54.5215 60.0097 54.5215 57.7897V34.3997C54.5215 29.9497 50.8939 26.3297 46.4222 26.3297ZM37.9109 15.8497C37.9109 15.4097 38.2726 15.0397 38.7248 15.0397H41.7596C42.2118 15.0397 42.5735 15.4097 42.5735 15.8497V20.4897H37.9109V15.8497ZM56.5514 15.2497C56.5514 15.6897 56.1896 16.0497 55.7374 16.0497H55.5063C55.0541 16.0497 54.6924 15.6897 54.6924 15.2497C54.6924 14.7997 55.0541 14.4397 55.5063 14.4397H55.7374C56.1896 14.4397 56.5514 14.7997 56.5514 15.2497ZM48.7535 15.2497C48.7535 14.7997 49.1153 14.4397 49.5574 14.4397H52.8032C53.2554 14.4397 53.6171 14.7997 53.6171 15.2497C53.6171 15.6897 53.2554 16.0497 52.8032 16.0497H49.5574C49.1153 16.0497 48.7535 15.6897 48.7535 15.2497ZM55.7977 20.8397C55.6872 21.1797 55.3757 21.3997 55.034 21.3997C54.8431 21.3997 55.235 21.5097 49.3062 19.5397C48.8842 19.3997 48.653 18.9397 48.7937 18.5197C48.9344 18.0997 49.3966 17.8697 49.8187 18.0097L55.2852 19.8197C55.7173 19.9697 55.9384 20.4197 55.7977 20.8397ZM40.2422 37.1197C36.3935 37.1197 33.2583 40.2397 33.2583 44.0797C33.2583 47.9097 36.3935 51.0297 40.2422 51.0297C42.6439 51.0297 44.8546 49.8297 46.1408 47.8097C46.382 47.4297 46.8845 47.3197 47.2563 47.5597C47.6381 47.7997 47.7486 48.2997 47.5075 48.6797C45.9198 51.1597 43.1965 52.6397 40.2422 52.6397C35.4992 52.6397 31.6304 48.7997 31.6304 44.0797C31.6304 39.3497 35.4992 35.5097 40.2422 35.5097C44.9852 35.5097 48.854 39.3497 48.854 44.0797C48.854 44.5197 48.4923 44.8797 48.0401 44.8797C47.5979 44.8797 47.2362 44.5197 47.2362 44.0797C47.2362 40.2397 44.1009 37.1197 40.2422 37.1197ZM39.4283 46.5997V44.8797H37.7099C37.2678 44.8797 36.896 44.5197 36.896 44.0797C36.896 43.6297 37.2678 43.2697 37.7099 43.2697H39.4283V41.5597C39.4283 41.1097 39.8001 40.7497 40.2422 40.7497C40.6944 40.7497 41.0562 41.1097 41.0562 41.5597V43.2697H42.7745C43.2267 43.2697 43.5885 43.6297 43.5885 44.0797C43.5885 44.5197 43.2267 44.8797 42.7745 44.8797H41.0562V46.5997C41.0562 47.0397 40.6944 47.3997 40.2422 47.3997C39.8001 47.3997 39.4283 47.0397 39.4283 46.5997Z" fill="white"/>
</svg>
