<svg width="80" height="80" viewBox="0 0 80 80" fill="none" xmlns="http://www.w3.org/2000/svg">
<path fill-rule="evenodd" clip-rule="evenodd" d="M40 0C62.09 0 80 17.91 80 40C80 62.09 62.09 80 40 80C17.91 80 0 62.09 0 40C0 17.91 17.91 0 40 0Z" fill="#8C52FF" fill-opacity="0.2"/>
<path d="M39.9995 74.5594C59.0864 74.5594 74.5594 59.0864 74.5594 39.9995C74.5594 20.9125 59.0864 5.43945 39.9995 5.43945C20.9125 5.43945 5.43945 20.9125 5.43945 39.9995C5.43945 59.0864 20.9125 74.5594 39.9995 74.5594Z" fill="#8C52FF"/>
<path d="M47.0696 27.6136C47.0496 27.5936 47.0296 27.5836 47.0196 27.5636L46.9696 27.5236C46.3696 27.0236 45.4796 27.0636 44.9296 27.6136L34.6296 37.9036C34.2696 38.2736 34.2696 38.8636 34.6296 39.2236L39.0696 43.6636C39.4296 44.0236 40.0196 44.0236 40.3896 43.6636L50.6796 33.3636C51.2396 32.8036 51.2696 31.9036 50.7496 31.3036L47.0696 27.6136ZM39.7296 41.6836L36.6096 38.5736L45.9996 29.1836L49.1196 32.2936L39.7296 41.6836Z" fill="white"/>
<path d="M54.2896 25.3235L60.0096 19.6035C60.3896 19.2435 60.3896 18.6435 60.0196 18.2735C59.6496 17.9035 59.0496 17.9135 58.6896 18.2835L52.9696 24.0035L52.7896 23.8235C51.7896 22.8235 50.1596 22.8235 49.1496 23.8235L48.2596 24.7135C46.4696 23.7035 44.2296 24.0035 42.7696 25.4535L26.6396 41.5735L26.1796 41.1135C25.3396 40.2735 23.9896 40.2735 23.1496 41.1135L22.0496 42.2135C21.2196 43.0535 21.2196 44.4035 22.0496 45.2435L24.9396 48.1235L21.4996 51.5635L19.7596 49.8235C18.7196 48.7835 17.0296 48.7835 15.9896 49.8235L15.6296 50.1835C14.5896 51.2235 14.5896 52.9135 15.6296 53.9535L24.3396 62.6735C24.8396 63.1635 25.5196 63.4535 26.2296 63.4535C26.9296 63.4535 27.6096 63.1635 28.1096 62.6735L28.4696 62.3035C29.5096 61.2635 29.5096 59.5835 28.4696 58.5335L26.7296 56.7935L30.1696 53.3635L33.0596 56.2435C33.8896 57.0835 35.2496 57.0835 36.0796 56.2435L37.1896 55.1435C38.0196 54.3035 38.0196 52.9535 37.1896 52.1135L36.7196 51.6535L52.8396 35.5335C54.2896 34.0735 54.5896 31.8235 53.5796 30.0335L54.4696 29.1435C55.4796 28.1435 55.4796 26.5035 54.4696 25.5035L54.2896 25.3235ZM27.1496 60.9835L26.7896 61.3535C26.4696 61.6535 25.9796 61.6535 25.6596 61.3535L16.9396 52.6335C16.6296 52.3235 16.6296 51.8135 16.9396 51.5035L17.3096 51.1435C17.6196 50.8335 18.1296 50.8335 18.4396 51.1435L27.1496 59.8535C27.4596 60.1735 27.4596 60.6735 27.1496 60.9835ZM25.4096 55.4835L22.8196 52.8835L26.2496 49.4435L28.8496 52.0435L25.4096 55.4835ZM35.8696 53.8235L34.7596 54.9235C34.6596 55.0335 34.4796 55.0335 34.3696 54.9235L23.3696 43.9235C23.2596 43.8135 23.2596 43.6335 23.3696 43.5335L24.4696 42.4235C24.5796 42.3235 24.7496 42.3235 24.8596 42.4235L34.7396 52.3135L35.8696 53.4335C35.9696 53.5435 35.9696 53.7135 35.8696 53.8235ZM51.4796 25.1435L53.1496 26.8235C53.4296 27.0935 53.4296 27.5535 53.1496 27.8235L52.3796 28.6035L49.6996 25.9135L50.4696 25.1435C50.7496 24.8735 51.1896 24.8735 51.4796 25.1435ZM51.5196 34.2135L35.3996 50.3335L27.9596 42.8935L44.0896 26.7735C45.0896 25.7735 46.6796 25.7135 47.7596 26.6335C47.8096 26.6735 47.8596 26.7235 47.9096 26.7735L51.5296 30.3835C51.5696 30.4335 51.6196 30.4835 51.6596 30.5335C52.5796 31.6135 52.5196 33.2135 51.5196 34.2135Z" fill="white"/>
<path d="M31.3696 42.2138C30.4896 41.3738 29.1996 42.6538 30.0496 43.5338L31.1496 44.6338C32.0296 45.4838 33.3196 44.1938 32.4696 43.3138L31.3696 42.2138Z" fill="white"/>
<path d="M33.5396 40.0436C32.6596 39.1636 31.3396 40.4836 32.2196 41.3636L33.3196 42.4636C33.6796 42.8236 34.2796 42.8236 34.6396 42.4636C34.9996 42.0936 34.9996 41.5036 34.6396 41.1436L33.5396 40.0436Z" fill="white"/>
<path d="M61.8196 23.6237C61.6296 23.4137 61.3696 23.2837 61.0796 23.2837C60.7996 23.2837 60.5296 23.4137 60.3496 23.6237C59.6996 24.4537 57.5796 27.2937 57.5796 28.9037C57.5996 30.8237 59.1596 32.3737 61.0796 32.3737C62.9996 32.3737 64.5696 30.8237 64.5896 28.9037C64.5896 27.2937 62.4696 24.4537 61.8196 23.6237ZM61.0796 30.5537C60.1796 30.5537 59.4396 29.8137 59.4396 28.9137C59.4396 28.3937 60.1996 27.0437 61.0796 25.7737C61.9696 27.0437 62.7296 28.3937 62.7296 28.9137C62.7196 29.8137 61.9896 30.5537 61.0796 30.5537Z" fill="white"/>
</svg>
