<svg width="85" height="85" viewBox="0 0 85 85" fill="none" xmlns="http://www.w3.org/2000/svg">
<path fill-rule="evenodd" clip-rule="evenodd" d="M42.5 0C65.97 0 85 19.03 85 42.5C85 65.97 65.97 85 42.5 85C19.03 85 0 65.97 0 42.5C0 19.03 19.03 0 42.5 0Z" fill="#8C52FF" fill-opacity="0.2"/>
<path fill-rule="evenodd" clip-rule="evenodd" d="M42.5003 7.53003C61.8103 7.53003 77.4703 23.19 77.4703 42.5C77.4703 61.81 61.8103 77.47 42.5003 77.47C23.1903 77.47 7.53027 61.81 7.53027 42.5C7.53027 23.19 23.1903 7.53003 42.5003 7.53003Z" fill="#8C52FF" fill-opacity="0.2"/>
<path d="M42.5002 71.5699C58.5551 71.5699 71.5702 58.5548 71.5702 42.4999C71.5702 26.445 58.5551 13.4299 42.5002 13.4299C26.4453 13.4299 13.4302 26.445 13.4302 42.4999C13.4302 58.5548 26.4453 71.5699 42.5002 71.5699Z" fill="#8C52FF"/>
<path d="M24.6664 20.6664H22V23.3327H24.6664V20.6664Z" fill="white"/>
<path d="M29.9979 20.6666H27.3315V23.333H29.9979V20.6666Z" fill="white"/>
<path d="M27.3324 18H24.666V20.6664H27.3324V18Z" fill="white"/>
<path d="M27.3329 23.3334H24.6665V25.9997H27.3329V23.3334Z" fill="white"/>
<path d="M61.1633 54.8103C60.8303 53.8738 59.9428 53.249 58.9488 53.2514H57.0541L54.2493 48.3435V39.9361C54.2493 38.2058 52.8466 36.8031 51.1163 36.8031V26.6208C51.2752 22.0213 47.6755 18.1639 43.076 18.005C42.8842 17.9983 42.6923 17.9983 42.5005 18.005C37.1149 18.005 34.0414 22.4288 33.8847 26.591C33.8847 26.6012 33.8902 26.6106 33.8902 26.6208H33.8847V36.8031C32.1544 36.8031 30.7517 38.2058 30.7517 39.9361V48.3435L27.9469 53.2514H26.0523C24.7576 53.2488 23.7059 54.2961 23.7031 55.5908C23.7011 56.5844 24.3257 57.4715 25.262 57.8044C24.1307 59.0832 24.2502 61.037 25.5291 62.1683C25.9912 62.5772 26.5652 62.8384 27.1771 62.9183L42.3949 64.9931C42.4654 65.0023 42.5367 65.0023 42.6071 64.9931L57.825 62.9183C59.518 62.6971 60.7112 61.1454 60.49 59.4524C60.4101 58.8406 60.1489 58.2666 59.74 57.8044C60.9598 57.3707 61.5971 56.0302 61.1633 54.8103ZM42.5006 19.5716C46.2211 19.3989 49.3772 22.2749 49.5499 25.9955C49.5596 26.2038 49.5596 26.4125 49.5499 26.6209H47.9834C45.8216 26.6183 44.0697 24.8664 44.0671 22.7046C44.067 22.2721 43.7163 21.9215 43.2837 21.9216C43.076 21.9216 42.877 22.0041 42.7301 22.1509C40.7883 24.1001 38.2635 25.3624 35.5391 25.746C35.9698 22.2264 38.9547 19.5789 42.5006 19.5716ZM40.9341 37.5864V34.2365C41.4447 34.3765 41.9712 34.4494 42.5006 34.4534C43.0303 34.4489 43.557 34.3743 44.0671 34.2318V37.5864C44.0671 38.019 44.4178 38.3697 44.8504 38.3697H46.4169V39.3715L42.5006 40.6771L38.5844 39.3715V38.3697H40.1509C40.5834 38.3697 40.9341 38.019 40.9341 37.5864ZM36.385 27.184C38.7106 26.7538 40.8915 25.7487 42.7293 24.2602C43.421 26.586 45.5569 28.1825 47.9834 28.1874H48.3249C47.3458 30.8152 44.8629 32.8869 42.5006 32.8869C39.7804 32.8869 37.0327 30.2505 36.385 27.184ZM45.6336 36.8032V33.6036C47.3629 32.6304 48.7352 31.1293 49.5499 29.32V36.8032H47.2001H45.6336ZM35.4513 29.3223C36.2611 31.1355 37.6347 32.6386 39.3676 33.6083V36.8032H35.4513V29.3223ZM37.0178 38.3697V39.9362C37.0181 40.2732 37.2338 40.5722 37.5536 40.6787V40.6795L42.2531 42.246C42.414 42.3 42.5881 42.3 42.7489 42.246L47.4484 40.6795C47.7681 40.5727 47.9836 40.2733 47.9834 39.9362V38.3697H50.1131L46.5884 52.4682H38.4128L34.8882 38.3697H37.0178ZM38.1614 54.0347H46.8398L49.987 57.7059L42.5006 58.7272L35.0143 57.709L38.1614 54.0347ZM33.1705 57.4544L31.7254 57.2578L36.6325 51.8048L36.9458 53.0494L33.1705 57.4544ZM48.0617 53.0494L48.375 51.8048L53.2821 57.2578L51.8339 57.4544L48.0617 53.0494ZM25.269 55.6013C25.269 55.1687 25.6198 54.818 26.0523 54.818H28.4021C28.6825 54.8186 28.9417 54.6692 29.0819 54.4264L32.2149 48.9436C32.2832 48.8243 32.3188 48.6893 32.3183 48.552V39.9362C32.3183 39.2964 32.7075 38.7208 33.3013 38.4825L34.7378 44.2276L36.1735 49.9728L30.4033 56.3845H26.0523C25.6197 56.3845 25.269 56.0338 25.269 55.6013ZM42.5006 63.4267L27.3885 61.3652C26.5428 61.2535 25.9478 60.4774 26.0595 59.6317C26.1614 58.8609 26.8202 58.2859 27.5977 58.2894C27.6674 58.2894 27.737 58.2944 27.806 58.3043L33.3757 59.064L42.2265 60.271L46.4192 62.8918L42.5006 63.4267ZM57.6127 61.3652L48.845 62.5612L44.7493 60.0016L51.62 59.0617L57.189 58.3019C58.0342 58.1833 58.8154 58.7724 58.934 59.6177C58.944 59.6895 58.949 59.7621 58.9489 59.8347C58.9462 60.6062 58.3768 61.2584 57.6127 61.3652ZM58.9489 56.3845H54.598L48.827 49.972L50.2627 44.2268L51.6991 38.4817C52.2935 38.7199 52.6831 39.2959 52.6829 39.9362V48.552C52.6824 48.6893 52.7181 48.8243 52.7863 48.9436L55.9193 54.4264C56.0595 54.6692 56.3188 54.8186 56.5992 54.818H58.9489C59.3815 54.818 59.7322 55.1687 59.7322 55.6013C59.7322 56.0338 59.3815 56.3845 58.9489 56.3845Z" fill="white"/>
</svg>
