<svg width="85" height="85" viewBox="0 0 85 85" fill="none" xmlns="http://www.w3.org/2000/svg">
<path fill-rule="evenodd" clip-rule="evenodd" d="M42.5 0C65.97 0 85 19.03 85 42.5C85 65.97 65.97 85 42.5 85C19.03 85 0 65.97 0 42.5C0 19.03 19.03 0 42.5 0Z" fill="#8C52FF" fill-opacity="0.2"/>
<path fill-rule="evenodd" clip-rule="evenodd" d="M42.5003 7.53003C61.8103 7.53003 77.4703 23.19 77.4703 42.5C77.4703 61.81 61.8103 77.47 42.5003 77.47C23.1903 77.47 7.53027 61.81 7.53027 42.5C7.53027 23.19 23.1903 7.53003 42.5003 7.53003Z" fill="#8C52FF" fill-opacity="0.2"/>
<path d="M42.5002 71.5699C58.5551 71.5699 71.5702 58.5548 71.5702 42.4999C71.5702 26.445 58.5551 13.4299 42.5002 13.4299C26.4453 13.4299 13.4302 26.445 13.4302 42.4999C13.4302 58.5548 26.4453 71.5699 42.5002 71.5699Z" fill="#8C52FF"/>
<path d="M39.6438 38.0896C38.9935 37.9147 38.2975 37.9149 37.6477 38.0896C37.2365 38.2001 36.9928 38.623 37.1033 39.0341C37.1958 39.3783 37.5071 39.605 37.8472 39.605C37.9135 39.605 37.9808 39.5965 38.0478 39.5784C38.4367 39.4738 38.8543 39.4738 39.2437 39.5784C39.6547 39.6889 40.0776 39.4451 40.1881 39.0341C40.2986 38.623 40.0549 38.2001 39.6438 38.0896Z" fill="white"/>
<path d="M47.3518 38.0896C46.7018 37.9148 46.0059 37.9148 45.3557 38.0896C44.9445 38.2001 44.7008 38.623 44.8113 39.0342C44.9219 39.4451 45.345 39.6888 45.7558 39.5784C46.145 39.4738 46.5626 39.4738 46.9517 39.5784C47.0186 39.5964 47.0859 39.605 47.1522 39.605C47.4923 39.605 47.8036 39.3782 47.8961 39.0342C48.0066 38.623 47.7629 38.2001 47.3518 38.0896Z" fill="white"/>
<path d="M43.6565 43.7397C43.3055 43.9423 42.9059 44.0495 42.5006 44.0495C42.0952 44.0495 41.6954 43.9423 41.3445 43.7397C40.9758 43.5266 40.5045 43.6528 40.2915 44.0215C40.0785 44.3902 40.2048 44.8615 40.5734 45.0746C41.1584 45.4126 41.8248 45.5911 42.5006 45.5911C43.1763 45.5911 43.8426 45.4126 44.4276 45.0746C44.7963 44.8615 44.9225 44.3902 44.7096 44.0215C44.4965 43.653 44.0252 43.5266 43.6565 43.7397Z" fill="white"/>
<path d="M59.2292 58.9237H58.6683C58.4121 53.5312 55.4786 48.635 50.8316 45.8322C51.0472 45.5102 51.2451 45.1753 51.423 44.8285C52.1636 45.4052 53.0842 45.7301 54.0457 45.7301C56.3987 45.7301 58.313 43.8158 58.313 41.4628C58.313 39.9395 57.4838 38.5332 56.1938 37.7773C57.7978 30.9995 55.0693 27.4787 53.2599 25.965C51.1296 24.1828 48.6594 23.7027 47.1264 24.0967C44.9571 22.0964 42.1578 21 39.1897 21C32.7268 21 27.4689 26.2579 27.4689 32.7208C27.4689 34.5052 27.8791 36.2686 28.6601 37.8675C27.4543 38.6419 26.6875 39.9982 26.6875 41.4629C26.6875 43.816 28.6019 45.7302 30.9548 45.7302C31.9164 45.7302 32.8372 45.4052 33.5777 44.8285C33.7555 45.1752 33.9533 45.51 34.1689 45.8319C29.5216 48.6347 26.5878 53.531 26.3314 58.9238H25.7708C25.345 58.9238 25 59.2691 25 59.6947C25 60.1204 25.345 60.4655 25.7708 60.4655H27.0807C27.0817 60.4655 27.0826 60.4656 27.0836 60.4656C27.0846 60.4656 27.0855 60.4655 27.0865 60.4655H31.7057C31.7067 60.4655 31.7076 60.4656 31.7086 60.4656C31.7096 60.4656 31.7105 60.4655 31.7115 60.4655H53.2885C53.2895 60.4655 53.2904 60.4656 53.2915 60.4656C53.2925 60.4656 53.2934 60.4655 53.2945 60.4655H57.9133C57.9143 60.4655 57.9153 60.4656 57.9163 60.4656C57.9173 60.4656 57.9183 60.4655 57.9193 60.4655H59.2292C59.6549 60.4655 60 60.1204 60 59.6947C60 59.2689 59.6549 58.9237 59.2292 58.9237ZM30.9378 58.9236H27.8747C28.0338 55.8996 29.1244 53.0507 30.9378 50.7225V58.9236ZM31.6844 36.7815C31.8345 36.9291 32.0297 37.0025 32.2246 37.0025C32.311 37.0025 32.3972 36.9872 32.4797 36.9585V40.2701C32.4797 41.3314 32.646 42.3543 32.9532 43.315C32.4414 43.8671 31.7185 44.1884 30.9549 44.1884C29.452 44.1884 28.2292 42.9657 28.2292 41.4628C28.2292 40.3404 28.9338 39.3171 29.9824 38.9165C30.0974 38.8726 30.1951 38.8036 30.2732 38.7189C30.2732 38.7188 30.2734 38.7188 30.2734 38.7186C30.29 38.7006 30.3057 38.6818 30.3203 38.6624C30.3211 38.6615 30.3216 38.6608 30.3224 38.6599C30.3365 38.6411 30.3497 38.6216 30.362 38.6016C30.3629 38.6002 30.3638 38.5989 30.3646 38.5975C30.3766 38.5778 30.3877 38.5577 30.3979 38.5368C30.3987 38.5353 30.3995 38.5337 30.4002 38.5321C30.4103 38.5113 30.4194 38.4901 30.4275 38.4686C30.4281 38.4671 30.4288 38.4656 30.4292 38.4641C30.4372 38.4424 30.4443 38.4205 30.4504 38.3982C30.4508 38.3966 30.4513 38.3952 30.4517 38.3936C30.4575 38.3717 30.4624 38.3494 30.4662 38.3268C30.4665 38.3249 30.467 38.3229 30.4673 38.3209C30.4709 38.2993 30.4734 38.2775 30.4752 38.2556C30.4754 38.2523 30.4758 38.2491 30.4759 38.2458C30.4773 38.2256 30.4776 38.2053 30.4773 38.185C30.4773 38.1797 30.4773 38.1744 30.4772 38.169C30.4765 38.1511 30.4751 38.133 30.4731 38.115C30.4722 38.107 30.4715 38.099 30.4704 38.0912C30.4682 38.0757 30.4654 38.0602 30.4623 38.0448C30.4602 38.0342 30.4581 38.0239 30.4555 38.0133C30.4523 38.0001 30.4484 37.9869 30.4445 37.9737C30.4408 37.9617 30.4369 37.9496 30.4327 37.9375C30.4308 37.9321 30.4295 37.9267 30.4274 37.9213C30.4248 37.9142 30.4212 37.9076 30.4184 37.9007C30.4135 37.8891 30.4085 37.8775 30.403 37.8659C30.3968 37.853 30.3904 37.8403 30.3835 37.8279C30.3804 37.822 30.3779 37.8161 30.3746 37.8102C29.4823 36.2646 29.0108 34.5047 29.0108 32.7206C29.0108 27.1078 33.5771 22.5415 39.1899 22.5415C41.9088 22.5415 44.465 23.6003 46.3877 25.523C46.3916 25.5269 46.3959 25.5301 46.3999 25.534C46.4111 25.5447 46.4226 25.555 46.4343 25.5651C46.4428 25.5724 46.4513 25.5793 46.4601 25.586C46.4706 25.5941 46.4812 25.602 46.4921 25.6095C46.503 25.6172 46.5139 25.6244 46.525 25.6314C46.5342 25.6371 46.5435 25.6425 46.5529 25.6479C46.5659 25.6553 46.5791 25.6624 46.5924 25.669C46.6007 25.6731 46.6092 25.6768 46.6177 25.6805C46.6319 25.687 46.6464 25.6932 46.6612 25.6986C46.6696 25.7019 46.6783 25.7047 46.6869 25.7076C46.7014 25.7125 46.716 25.7171 46.7308 25.7212C46.7406 25.7237 46.7503 25.726 46.7601 25.7282C46.7738 25.7314 46.7876 25.7344 46.8014 25.7368C46.8129 25.7387 46.8244 25.7403 46.836 25.7417C46.8483 25.7433 46.8606 25.7447 46.8731 25.7457C46.8861 25.7467 46.8991 25.7472 46.9122 25.7476C46.9235 25.7479 46.9349 25.7481 46.9463 25.7479C46.9598 25.7476 46.9734 25.7468 46.987 25.746C46.9982 25.7452 47.0095 25.7444 47.0207 25.743C47.0338 25.7414 47.0467 25.7395 47.0597 25.7374C47.072 25.7353 47.0843 25.733 47.0966 25.7303C47.108 25.7279 47.1194 25.7251 47.1307 25.7221C47.1448 25.7183 47.1586 25.7142 47.1725 25.7097C47.182 25.7066 47.1915 25.7033 47.201 25.6998C47.2162 25.6941 47.2313 25.6879 47.2463 25.6813C47.251 25.6792 47.2558 25.6777 47.2605 25.6754C48.1331 25.2654 50.3598 25.5487 52.2708 27.1474C53.8526 28.4706 56.2518 31.6395 54.5494 37.9952C54.5355 38.0467 54.5271 38.0985 54.524 38.1501C54.5235 38.158 54.5239 38.1658 54.5236 38.1736C54.5231 38.1908 54.5224 38.2081 54.5231 38.2253C54.5236 38.2384 54.5252 38.2512 54.5264 38.2643C54.5275 38.276 54.528 38.288 54.5295 38.2997C54.5315 38.3145 54.5347 38.3292 54.5376 38.3439C54.5395 38.3535 54.5409 38.3632 54.5431 38.3727C54.5466 38.3874 54.5511 38.4017 54.5554 38.4162C54.5581 38.4255 54.5604 38.435 54.5635 38.4442C54.568 38.4571 54.5734 38.4696 54.5784 38.4823C54.5826 38.4927 54.5863 38.5032 54.5909 38.5134C54.5956 38.524 54.6013 38.5341 54.6065 38.5444C54.6126 38.5561 54.6181 38.5682 54.6247 38.5798C54.6294 38.5879 54.6348 38.5956 54.6398 38.6038C54.6479 38.6169 54.6559 38.63 54.6648 38.6426C54.6694 38.6489 54.6745 38.6549 54.6792 38.6611C54.6894 38.6747 54.6995 38.6882 54.7106 38.7012C54.7155 38.7069 54.7212 38.7122 54.7264 38.7178C54.7379 38.7304 54.7495 38.743 54.7619 38.7549C54.7687 38.7615 54.7764 38.7674 54.7834 38.7737C54.7949 38.7838 54.8062 38.7942 54.8183 38.8037C54.8295 38.8124 54.8416 38.8204 54.8534 38.8285C54.8621 38.8347 54.8706 38.8413 54.8796 38.847C54.899 38.8592 54.9192 38.8705 54.9397 38.881C54.9419 38.8822 54.9439 38.8836 54.9461 38.8846C54.9696 38.8965 54.9938 38.9072 55.0188 38.9167C56.067 39.3174 56.7711 40.3405 56.7711 41.4626C56.7711 42.9656 55.5485 44.1883 54.0455 44.1883C53.2819 44.1883 52.5592 43.8669 52.0473 43.3151C52.3544 42.3545 52.5209 41.3314 52.5209 40.2701V36.3244C52.5425 36.3503 52.5641 36.3753 52.5859 36.4022C52.8526 36.7342 53.3379 36.7869 53.6696 36.5199C54.0014 36.2533 54.054 35.7681 53.7873 35.4362C53.2349 34.7491 52.6673 34.3184 52.1214 33.994C52.1198 33.9931 52.1183 33.9921 52.1166 33.9911C51.8053 33.8064 51.5009 33.6558 51.2107 33.5127C49.9141 32.873 48.7942 32.3203 47.6631 28.9536C47.5612 28.6502 47.2822 28.4414 46.9624 28.4289C46.643 28.4155 46.3483 28.603 46.2229 28.8976C44.548 32.8376 42.3611 32.8632 39.5925 32.8956C37.1408 32.9243 34.3621 32.9569 31.6749 35.6915C31.3765 35.9952 31.3808 36.4832 31.6844 36.7815ZM41.7295 58.9236H32.4794V49.0333C33.2107 48.3473 34.018 47.7305 34.8931 47.1959L37.197 53.6342C37.2821 53.8719 37.478 54.0529 37.7218 54.1187C37.7881 54.1366 37.8556 54.1453 37.9226 54.1453C38.1022 54.1453 38.2786 54.0826 38.4191 53.9642L41.7295 51.1766V58.9236ZM37.0627 48.6832C38.1224 49.3705 39.3195 49.8629 40.6032 50.1099L38.2748 52.0706L37.0627 48.6832ZM35.9671 45.6686C35.9638 45.6634 35.96 45.6587 35.9567 45.6536C35.9509 45.6444 35.9449 45.6357 35.9388 45.6269C35.9304 45.6149 35.9216 45.6031 35.9126 45.5917C35.9054 45.5827 35.8981 45.5741 35.8907 45.5655C35.8819 45.5553 35.8729 45.5455 35.8636 45.5358C35.8566 45.5286 35.8496 45.5213 35.8424 45.5145C35.3065 44.8357 34.8726 44.0733 34.5626 43.2504C34.5526 43.2158 34.5396 43.1819 34.5249 43.149C34.1993 42.2498 34.0214 41.2806 34.0214 40.2703V35.7219C35.8483 34.4817 37.686 34.4599 39.6108 34.4373C42.1834 34.4071 44.8329 34.3763 46.8414 31.0788C48.027 33.6611 49.3446 34.3112 50.5288 34.8954C50.6831 34.9716 50.8329 35.0457 50.9795 35.1223V40.2703C50.9795 41.2798 50.8017 42.2485 50.4767 43.1472C50.4611 43.1818 50.4474 43.2173 50.4371 43.2536C50.1277 44.0741 49.6949 44.8344 49.1609 45.5115C49.1503 45.5216 49.1401 45.5322 49.1302 45.5427C49.1257 45.5475 49.1215 45.5522 49.1171 45.557C49.1049 45.5707 49.0931 45.5847 49.0819 45.5993C49.0773 45.6052 49.073 45.6112 49.0686 45.6171C49.0581 45.6316 49.048 45.6464 49.0383 45.6618C49.0366 45.6646 49.0344 45.6673 49.0326 45.6702C47.4761 47.5499 45.1257 48.7493 42.5005 48.7493C39.8745 48.7493 37.5236 47.5493 35.9671 45.6686ZM47.9378 48.6834L46.7258 52.0705L44.3976 50.1098C45.681 49.863 46.8781 49.3707 47.9378 48.6834ZM52.5206 58.9238H43.2712V51.1769L46.5813 53.9643C46.7219 54.0826 46.8983 54.1454 47.0778 54.1454C47.1449 54.1454 47.2124 54.1367 47.2786 54.1188C47.5223 54.0529 47.7185 53.872 47.8036 53.6343L50.1073 47.1962C50.9823 47.7309 51.7894 48.3477 52.5206 49.0335V58.9238ZM54.0623 58.9237V50.7226C55.8756 53.0509 56.9661 55.8996 57.1251 58.9237H54.0623Z" fill="white"/>
</svg>
