<svg width="85" height="85" viewBox="0 0 85 85" fill="none" xmlns="http://www.w3.org/2000/svg">
<path fill-rule="evenodd" clip-rule="evenodd" d="M42.5 0C65.97 0 85 19.03 85 42.5C85 65.97 65.97 85 42.5 85C19.03 85 0 65.97 0 42.5C0 19.03 19.03 0 42.5 0Z" fill="#8C52FF" fill-opacity="0.2"/>
<path fill-rule="evenodd" clip-rule="evenodd" d="M42.4998 7.53003C61.8098 7.53003 77.4698 23.19 77.4698 42.5C77.4698 61.81 61.8098 77.47 42.4998 77.47C23.1898 77.47 7.52979 61.81 7.52979 42.5C7.52979 23.19 23.1898 7.53003 42.4998 7.53003Z" fill="#8C52FF" fill-opacity="0.2"/>
<path fill-rule="evenodd" clip-rule="evenodd" d="M42.5002 13.4299C58.5602 13.4299 71.5802 26.4399 71.5802 42.4999C71.5802 58.5599 58.5602 71.5699 42.5002 71.5699C26.4402 71.5699 13.4302 58.5599 13.4302 42.4999C13.4302 26.4399 26.4402 13.4299 42.5002 13.4299Z" fill="#8C52FF"/>
<path d="M37.948 52.3154C38.3429 52.2802 38.6345 51.9316 38.5994 51.5367L38.3623 48.8737C38.2539 47.6557 37.8731 46.4516 37.2613 45.3921L31.7082 35.7573C30.842 34.2544 29.2547 33.2847 27.5655 33.2267C27.4996 33.2245 27.4336 33.2234 27.3676 33.2234C23.9594 33.2234 21.1867 35.9961 21.1867 39.4043C21.1867 41.1167 21.8996 42.7393 23.1294 43.8996C22.8491 44.1825 22.6059 44.5054 22.409 44.8641C22.315 45.0353 22.2352 45.2104 22.1666 45.3878C21.202 44.5509 20.4552 43.5002 19.983 42.3011C19.3494 40.6921 19.2644 38.9231 19.7373 37.1849C20.4387 34.6069 22.4626 32.5476 25.0192 31.8103C27.1891 31.1846 29.4235 31.4377 31.3107 32.5229C32.0845 32.9678 32.9608 33.2031 33.8447 33.2031H47.0897C47.4861 33.2031 47.8074 32.8818 47.8074 32.4853C47.8074 32.0888 47.4861 31.7675 47.0897 31.7675H33.8448C33.2116 31.7675 32.5827 31.5983 32.0263 31.2785C29.7987 29.9975 27.1689 29.6964 24.6216 30.4312C21.5865 31.3064 19.1842 33.7499 18.3522 36.8083C17.7975 38.8471 17.8996 40.9284 18.6474 42.8274C19.3078 44.5041 20.421 45.9358 21.879 46.9912C21.8995 48.4944 22.7041 49.946 24.1133 50.7198L26.0402 51.7779C26.6852 52.1321 27.3936 52.3123 28.1096 52.3123C28.5144 52.3122 28.9215 52.2546 29.3208 52.1385C30.4268 51.8166 31.3412 51.0833 31.8956 50.0737C33.04 47.9896 32.2755 45.3627 30.1913 44.2183L28.2645 43.1603C27.2549 42.606 26.0899 42.478 24.9838 42.7997C24.7585 42.8652 24.5418 42.9488 24.3338 43.0473C23.256 42.148 22.6224 40.8167 22.6224 39.4045C22.6224 36.788 24.7512 34.6592 27.3678 34.6592C27.4176 34.6592 27.4673 34.6601 27.5168 34.6617C28.7144 34.7029 29.8439 35.3975 30.4647 36.4743L36.018 46.1097C36.5264 46.99 36.8427 47.9898 36.9327 49.0013L37.1697 51.6643C37.2029 52.0374 37.5161 52.3185 37.8838 52.3184C37.9049 52.3181 37.9264 52.3172 37.948 52.3154ZM26.1929 44.0617C26.6705 44.0617 27.1431 44.1819 27.5734 44.4182L29.5003 45.4762C30.8906 46.2397 31.4007 47.992 30.6371 49.3823C30.2673 50.0559 29.6573 50.545 28.9196 50.7598C28.1819 50.9747 27.4046 50.8892 26.731 50.5192L24.8042 49.4612C23.4138 48.6977 22.9038 46.9454 23.6674 45.5551C24.0371 44.8815 24.6471 44.3924 25.3849 44.1776C25.6513 44.1 25.9229 44.0617 26.1929 44.0617Z" fill="white"/>
<path d="M66.9926 39.0018C66.9047 36.7094 65.9093 34.5029 64.19 32.789C62.4707 31.0752 60.2611 30.0868 57.9683 30.0059C56.1962 29.9434 54.4547 30.3791 52.9319 31.2663C52.3681 31.5946 51.7316 31.7681 51.0913 31.7681H50.2235C49.8271 31.7681 49.5058 32.0894 49.5058 32.4859C49.5058 32.8824 49.8271 33.2037 50.2235 33.2037H51.0913C51.9852 33.2037 52.8716 32.9626 53.6544 32.5067C54.9428 31.7563 56.4172 31.3885 57.9178 31.4405C61.9063 31.5811 65.4052 35.069 65.5581 39.0568C65.6516 41.4946 64.6483 43.7799 62.8368 45.35C62.7712 45.1857 62.6958 45.0235 62.6086 44.8647C62.4029 44.4903 62.1488 44.1593 61.8593 43.8734C63.0962 42.7128 63.8128 41.087 63.8128 39.3676C63.8128 35.9595 61.04 33.1867 57.6319 33.1867C57.5645 33.1867 57.4973 33.1881 57.43 33.1906C55.7521 33.2548 54.1738 34.2222 53.3111 35.7155L47.7211 45.3923C47.109 46.4523 46.7282 47.6563 46.6199 48.8744L45.8323 57.7231C45.7797 58.3155 45.2917 58.7623 44.6971 58.7623H44.451L45.0978 48.7301C45.2271 47.2921 45.6766 45.8723 46.3977 44.6233L50.7271 37.1252C51.0144 36.6275 51.0143 36.0333 50.727 35.5357C50.4397 35.0382 49.9251 34.741 49.3506 34.741H35.6496C35.0749 34.741 34.5603 35.0382 34.273 35.5358C33.9857 36.0335 33.9858 36.6277 34.2732 37.1254L38.6023 44.6233C39.3234 45.8723 39.7728 47.2921 39.9022 48.7301L40.5489 58.7623H40.2855C39.6909 58.7623 39.2027 58.3155 39.1502 57.7228L38.8771 54.6548C38.8419 54.26 38.4938 53.9701 38.0985 54.0035C37.7036 54.0386 37.412 54.3872 37.4472 54.7821L37.7203 57.8498C37.8391 59.1884 38.9418 60.1978 40.2855 60.1978H44.697C46.0406 60.1978 47.1434 59.1884 47.2621 57.8501L48.0497 49.0017C48.1396 47.9903 48.4559 46.9904 48.9642 46.1103L54.554 36.4337C55.1723 35.3636 56.2952 34.6706 57.4849 34.6251C57.5339 34.6232 57.5828 34.6223 57.6318 34.6223C60.2484 34.6223 62.3772 36.7511 62.3772 39.3677C62.3772 40.7918 61.7346 42.1313 60.6419 43.0305C59.4404 42.4751 57.9998 42.4761 56.7531 43.1607L54.8262 44.2187C52.7421 45.3632 51.9776 47.99 53.122 50.0741C53.905 51.5 55.3633 52.3171 56.8895 52.317C57.4668 52.317 58.0541 52.2 58.6178 51.9549C58.9813 51.7968 59.1479 51.374 58.9897 51.0104C58.8317 50.6469 58.4089 50.4803 58.0452 50.6384C56.6759 51.2342 55.1002 50.6944 54.3803 49.3833C53.6167 47.9929 54.1268 46.2405 55.5171 45.4771L57.444 44.419C58.8343 43.6556 60.5866 44.1657 61.35 45.5559C61.537 45.8965 61.6486 46.2595 61.6898 46.6249C61.6908 46.6409 61.6926 46.6569 61.6947 46.673C61.7849 47.6178 61.4027 48.5731 60.6168 49.1946C60.3059 49.4406 60.2532 49.8919 60.4991 50.2029C60.7449 50.5138 61.1964 50.5664 61.5074 50.3206C62.576 49.4754 63.1467 48.2194 63.1439 46.9369C65.681 45.0896 67.1135 42.1543 66.9926 39.0018ZM41.3342 48.6289C41.3338 48.6229 41.3334 48.6172 41.3329 48.6112C41.186 46.9637 40.6717 45.3365 39.8456 43.9055L35.5164 36.4076C35.4796 36.3438 35.4961 36.2886 35.5164 36.2536C35.5367 36.2185 35.5762 36.1765 35.6497 36.1765H49.3506C49.4241 36.1765 49.4636 36.2185 49.4839 36.2535C49.5042 36.2886 49.5206 36.3438 49.4839 36.4075L45.1544 43.9055C44.3282 45.3365 43.8138 46.9637 43.667 48.6112C43.6664 48.6171 43.6661 48.6229 43.6657 48.6289L43.0124 58.7624H41.9874L41.3342 48.6289Z" fill="white"/>
</svg>
