<svg width="85" height="85" viewBox="0 0 85 85" fill="none" xmlns="http://www.w3.org/2000/svg">
<path fill-rule="evenodd" clip-rule="evenodd" d="M42.5 0C65.97 0 85 19.03 85 42.5C85 65.97 65.97 85 42.5 85C19.03 85 0 65.97 0 42.5C0 19.03 19.03 0 42.5 0Z" fill="#8C52FF" fill-opacity="0.2"/>
<path fill-rule="evenodd" clip-rule="evenodd" d="M42.5013 7.53003C61.8112 7.53003 77.4713 23.19 77.4713 42.5C77.4713 61.81 61.8112 77.47 42.5013 77.47C23.1913 77.47 7.53125 61.81 7.53125 42.5C7.53125 23.19 23.1913 7.53003 42.5013 7.53003Z" fill="#8C52FF" fill-opacity="0.2"/>
<path d="M42.4997 71.5699C58.5546 71.5699 71.5697 58.5548 71.5697 42.4999C71.5697 26.445 58.5546 13.4299 42.4997 13.4299C26.4448 13.4299 13.4297 26.445 13.4297 42.4999C13.4297 58.5548 26.4448 71.5699 42.4997 71.5699Z" fill="#8C52FF"/>
<path d="M42.97 61.2375C42.8 61.2375 42.62 61.2075 42.46 61.1275C35.1 57.5375 29 53.6675 29 42.6175V29.8175C29 29.3275 29.31 28.8875 29.77 28.7275L42.57 24.0675C42.83 23.9775 43.11 23.9775 43.37 24.0675L56.17 28.7275C56.63 28.8875 56.94 29.3275 56.94 29.8175V42.6175C56.94 53.6675 50.84 57.5375 43.48 61.1275C43.32 61.2075 43.14 61.2375 42.97 61.2375ZM31.33 30.6275V42.6175C31.33 51.2975 35.25 54.9475 42.97 58.7775C50.69 54.9475 54.61 51.2975 54.61 42.6175V30.6275L42.97 26.3975L31.33 30.6275Z" fill="white"/>
<path d="M42.15 47.2775L36.67 41.7975L38.31 40.1475L42.15 43.9875L49.47 36.6575L51.12 38.3075L42.15 47.2775Z" fill="white"/>
</svg>
