<svg width="85" height="85" viewBox="0 0 85 85" fill="none" xmlns="http://www.w3.org/2000/svg">
<path fill-rule="evenodd" clip-rule="evenodd" d="M42.5 0C65.97 0 85 19.03 85 42.5C85 65.97 65.97 85 42.5 85C19.03 85 0 65.97 0 42.5C0 19.03 19.03 0 42.5 0Z" fill="#8C52FF" fill-opacity="0.2"/>
<path fill-rule="evenodd" clip-rule="evenodd" d="M42.5013 7.53003C61.8112 7.53003 77.4713 23.19 77.4713 42.5C77.4713 61.81 61.8112 77.47 42.5013 77.47C23.1913 77.47 7.53125 61.81 7.53125 42.5C7.53125 23.19 23.1913 7.53003 42.5013 7.53003Z" fill="#8C52FF" fill-opacity="0.2"/>
<path d="M42.4997 71.5699C58.5546 71.5699 71.5697 58.5548 71.5697 42.4999C71.5697 26.445 58.5546 13.4299 42.4997 13.4299C26.4448 13.4299 13.4297 26.445 13.4297 42.4999C13.4297 58.5548 26.4448 71.5699 42.4997 71.5699Z" fill="#8C52FF"/>
<path d="M30.31 44.89L29.46 41.51C28.11 36.14 28 35.69 28 34.19C28 31.1 29.25 28.31 31.28 26.28C33.3 24.26 36.1 23 39.18 23H49.8C51.06 23 52.22 23.43 53.15 24.14C54.1 24.87 54.81 25.91 55.12 27.1L55.14 27.16L55.18 27.21C55.97 28.19 56.58 29.31 56.99 30.49C57.41 31.67 57.62 32.92 57.62 34.19C57.62 35.69 57.51 36.14 56.15 41.54C56.01 42.13 55.3 44.55 55.3 44.96C55.26 48.64 53.62 53.36 51 56.9C48.81 59.85 45.95 61.98 42.77 61.98C39.56 61.98 36.73 59.87 34.58 56.95C31.96 53.39 30.35 48.62 30.31 44.96V44.89ZM47.47 43.77C46.54 43.77 45.61 44.12 44.91 44.83C44.61 45.13 44.61 45.62 44.91 45.92C45.21 46.22 45.7 46.22 46 45.92C46.81 45.11 48.13 45.11 48.93 45.92C49.23 46.22 49.72 46.22 50.03 45.92C50.33 45.62 50.33 45.13 50.03 44.83C49.32 44.12 48.39 43.77 47.47 43.77ZM38.11 43.77C37.18 43.77 36.25 44.12 35.55 44.83C35.25 45.13 35.25 45.62 35.55 45.92C35.85 46.22 36.34 46.22 36.64 45.92C37.45 45.11 38.77 45.11 39.57 45.92C39.87 46.22 40.36 46.22 40.67 45.92C40.97 45.62 40.97 45.13 40.67 44.83C39.96 44.12 39.03 43.77 38.11 43.77ZM40.37 52.99L41 52.52C41.53 52.12 42.2 52.01 42.82 52.2C43.43 52.01 44.1 52.12 44.63 52.52L45.26 52.99C45.45 53.13 45.58 53.36 45.6 53.6C45.62 53.84 45.54 54.08 45.38 54.26L45.14 54.52C44.54 55.17 43.69 55.54 42.82 55.54C41.94 55.54 41.09 55.17 40.49 54.52L40.26 54.26C40.09 54.08 40.01 53.84 40.03 53.6C40.05 53.36 40.18 53.13 40.37 52.99ZM49.8 24.74H39.18C36.58 24.74 34.22 25.8 32.51 27.51C30.8 29.22 29.73 31.59 29.73 34.19C29.73 34.77 29.75 35.16 29.9 35.92C30.04 36.66 30.31 37.75 30.81 39.75L31.02 40.57L31.36 39.79C32.33 37.55 33.95 35.64 35.97 34.31C37.92 33.02 40.26 32.27 42.77 32.27H49.8C50.84 32.27 51.78 31.85 52.46 31.17C53.14 30.49 53.57 29.54 53.57 28.51C53.57 27.47 53.14 26.53 52.46 25.84C51.78 25.16 50.84 24.74 49.8 24.74ZM54.77 30.89C54.33 31.78 53.66 32.55 52.84 33.1C52.03 33.63 51.08 33.96 50.06 34L49.22 34.05L49.91 34.53C50.12 34.68 50.33 34.83 50.53 34.99C50.72 35.14 50.92 35.31 51.12 35.49C51.8 36.09 52.4 36.77 52.93 37.49C53.45 38.22 53.9 39 54.26 39.81L54.6 40.59L54.81 39.77C55.31 37.76 55.58 36.66 55.72 35.92C55.87 35.16 55.89 34.77 55.89 34.19C55.89 33.63 55.83 33.07 55.74 32.53C55.64 31.97 55.49 31.43 55.3 30.91L55.06 30.27L54.77 30.89ZM42.77 60.24C45.47 60.24 47.98 58.22 49.89 55.47C52.12 52.24 53.57 47.98 53.57 44.81L53.55 44.18L53.49 43.55C53.18 40.87 51.85 38.49 49.92 36.77C47.99 35.06 45.46 34.01 42.77 34.01C39.82 34.01 37.14 35.22 35.2 37.18C33.25 39.13 32.05 41.83 32.05 44.81C32.05 47.82 33.47 52.24 35.76 55.56C37.61 58.25 40.04 60.24 42.77 60.24Z" fill="white"/>
</svg>
