<svg width="85" height="85" viewBox="0 0 85 85" fill="none" xmlns="http://www.w3.org/2000/svg">
<path fill-rule="evenodd" clip-rule="evenodd" d="M42.5 0C65.97 0 85 19.03 85 42.5C85 65.97 65.97 85 42.5 85C19.03 85 0 65.97 0 42.5C0 19.03 19.03 0 42.5 0Z" fill="#8C52FF" fill-opacity="0.2"/>
<path fill-rule="evenodd" clip-rule="evenodd" d="M42.5013 7.53003C61.8112 7.53003 77.4713 23.19 77.4713 42.5C77.4713 61.81 61.8112 77.47 42.5013 77.47C23.1913 77.47 7.53125 61.81 7.53125 42.5C7.53125 23.19 23.1913 7.53003 42.5013 7.53003Z" fill="#8C52FF" fill-opacity="0.2"/>
<path fill-rule="evenodd" clip-rule="evenodd" d="M42.4997 13.4299C58.5597 13.4299 71.5797 26.4399 71.5797 42.4999C71.5797 58.5599 58.5597 71.5699 42.4997 71.5699C26.4397 71.5699 13.4297 58.5599 13.4297 42.4999C13.4297 26.4399 26.4397 13.4299 42.4997 13.4299Z" fill="#8C52FF"/>
<path d="M60.4602 54.8103C60.1272 53.8738 59.2397 53.249 58.2457 53.2514H56.351L53.5462 48.3435V39.9361C53.5462 38.2058 52.1435 36.8031 50.4132 36.8031V26.6208C50.5721 22.0213 46.9724 18.1639 42.3729 18.005C42.1811 17.9983 41.9892 17.9983 41.7974 18.005C36.4117 18.005 33.3383 22.4288 33.1816 26.591C33.1816 26.6012 33.1871 26.6106 33.1871 26.6208H33.1816V36.8031C31.4513 36.8031 30.0486 38.2058 30.0486 39.9361V48.3435L27.2438 53.2514H25.3492C24.0545 53.2488 23.0027 54.2961 23 55.5908C22.9979 56.5844 23.6226 57.4715 24.5589 57.8044C23.4276 59.0832 23.5471 61.037 24.826 62.1683C25.2881 62.5772 25.8621 62.8384 26.4739 62.9183L41.6918 64.9931C41.7623 65.0023 41.8335 65.0023 41.904 64.9931L57.1218 62.9183C58.8148 62.6971 60.008 61.1454 59.7869 59.4524C59.707 58.8406 59.4458 58.2666 59.0369 57.8044C60.2567 57.3707 60.894 56.0302 60.4602 54.8103ZM41.7975 19.5716C45.5179 19.3989 48.6741 22.2749 48.8468 25.9955C48.8565 26.2038 48.8565 26.4125 48.8468 26.6209H47.2803C45.1185 26.6183 43.3665 24.8664 43.364 22.7046C43.3639 22.2721 43.0132 21.9215 42.5806 21.9216C42.3729 21.9216 42.1738 22.0041 42.027 22.1509C40.0852 24.1001 37.5604 25.3624 34.8359 25.746C35.2666 22.2264 38.2516 19.5789 41.7975 19.5716ZM40.231 37.5864V34.2365C40.7416 34.3765 41.2681 34.4494 41.7975 34.4534C42.3272 34.4489 42.8539 34.3743 43.364 34.2318V37.5864C43.364 38.019 43.7147 38.3697 44.1473 38.3697H45.7138V39.3715L41.7975 40.6771L37.8812 39.3715V38.3697H39.4477C39.8803 38.3697 40.231 38.019 40.231 37.5864ZM35.6819 27.184C38.0074 26.7538 40.1884 25.7487 42.0262 24.2602C42.7179 26.586 44.8538 28.1825 47.2803 28.1874H47.6218C46.6427 30.8152 44.1598 32.8869 41.7975 32.8869C39.0773 32.8869 36.3296 30.2505 35.6819 27.184ZM44.9305 36.8032V33.6036C46.6597 32.6304 48.0321 31.1293 48.8468 29.32V36.8032H46.497H44.9305ZM34.7482 29.3223C35.558 31.1355 36.9315 32.6386 38.6645 33.6083V36.8032H34.7482V29.3223ZM36.3147 38.3697V39.9362C36.315 40.2732 36.5307 40.5722 36.8505 40.6787V40.6795L41.55 42.246C41.7108 42.3 41.8849 42.3 42.0458 42.246L46.7453 40.6795C47.065 40.5727 47.2805 40.2733 47.2803 39.9362V38.3697H49.4099L45.8853 52.4682H37.7097L34.1851 38.3697H36.3147ZM37.4583 54.0347H46.1367L49.2838 57.7059L41.7975 58.7272L34.3112 57.709L37.4583 54.0347ZM32.4674 57.4544L31.0223 57.2578L35.9294 51.8048L36.2427 53.0494L32.4674 57.4544ZM47.3586 53.0494L47.6719 51.8048L52.579 57.2578L51.1307 57.4544L47.3586 53.0494ZM24.5659 55.6013C24.5659 55.1687 24.9166 54.818 25.3492 54.818H27.6989C27.9793 54.8186 28.2386 54.6692 28.3788 54.4264L31.5118 48.9436C31.5801 48.8243 31.6157 48.6893 31.6152 48.552V39.9362C31.6152 39.2964 32.0044 38.7208 32.5982 38.4825L34.0347 44.2276L35.4704 49.9728L29.7001 56.3845H25.3492C24.9165 56.3845 24.5659 56.0338 24.5659 55.6013ZM41.7975 63.4267L26.6854 61.3652C25.8397 61.2535 25.2447 60.4774 25.3564 59.6317C25.4582 58.8609 26.1171 58.2859 26.8945 58.2894C26.9642 58.2894 27.0339 58.2944 27.1029 58.3043L32.6726 59.064L41.5234 60.271L45.7161 62.8918L41.7975 63.4267ZM56.9096 61.3652L48.1418 62.5612L44.0462 60.0016L50.9169 59.0617L56.4858 58.3019C57.3311 58.1833 58.1123 58.7724 58.2308 59.6177C58.2409 59.6895 58.2459 59.7621 58.2458 59.8347C58.2431 60.6062 57.6736 61.2584 56.9096 61.3652ZM58.2458 56.3845H53.8948L48.1238 49.972L49.5595 44.2268L50.996 38.4817C51.5904 38.7199 51.98 39.2959 51.9798 39.9362V48.552C51.9793 48.6893 52.0149 48.8243 52.0832 48.9436L55.2162 54.4264C55.3564 54.6692 55.6157 54.8186 55.8961 54.818H58.2458C58.6784 54.818 59.0291 55.1687 59.0291 55.6013C59.0291 56.0338 58.6784 56.3845 58.2458 56.3845Z" fill="white"/>
</svg>
