<svg width="80" height="80" viewBox="0 0 80 80" fill="none" xmlns="http://www.w3.org/2000/svg">
<path fill-rule="evenodd" clip-rule="evenodd" d="M40 0C62.09 0 80 17.91 80 40C80 62.09 62.09 80 40 80C17.91 80 0 62.09 0 40C0 17.91 17.91 0 40 0Z" fill="#5271FF" fill-opacity="0.2"/>
<path d="M40.0014 74.5594C59.0884 74.5594 74.5614 59.0864 74.5614 39.9995C74.5614 20.9125 59.0884 5.43945 40.0014 5.43945C20.9144 5.43945 5.44141 20.9125 5.44141 39.9995C5.44141 59.0864 20.9144 74.5594 40.0014 74.5594Z" fill="#5271FF"/>
<path d="M33.8026 15.0391L33.9605 15.0261H33.9868L34.1447 15.013H34.1711H34.3421H34.3684L34.5263 15H34.5526H34.7105H34.7368H48.6842H48.7105H48.7632H48.7895H48.8421H48.8684L48.921 15.013H48.9474H48.9868H49.0921H49.1447C50.6316 15.1043 52.0132 15.6388 53.1184 16.4862C54.3684 17.4379 55.3026 18.7938 55.7105 20.3452L55.7368 20.4234L55.7895 20.4886C56.8289 21.7662 57.6316 23.2263 58.1711 24.7647C58.7237 26.3031 59 27.9327 59 29.5884C59 31.5439 58.8553 32.1306 57.0658 39.1706C56.8816 39.9398 55.9474 43.0947 55.9474 43.6292C55.8947 48.4268 53.7368 54.5803 50.2895 59.1954C47.5395 62.8718 43.9737 65.5574 40.0263 65.7921L39.8553 65.8051H39.8289L39.6579 65.8182H39.6316H39.4605H39.4342H39.2632H39.2368L39.0658 65.8051H39.0395L38.8684 65.7921C34.8816 65.5574 31.3553 62.8979 28.6579 59.2606C25.2105 54.6194 23.0921 48.4008 23.0395 43.6292V43.538L21.9211 39.1315C20.1447 32.1306 20 31.5439 20 29.5884C20 25.56 21.6447 21.9226 24.3158 19.2761C26.7763 16.8382 30.1053 15.2607 33.8026 15.0391ZM38.5263 34.5555C37.4868 34.6467 36.4342 34.8293 35.4342 35.077C34.0921 35.4029 32.7895 35.8722 31.6316 36.4458C31.1447 36.6805 30.5526 36.485 30.3158 36.0026C30.0658 35.5202 30.2632 34.9336 30.75 34.6989C32.0263 34.0601 33.4605 33.5516 34.9605 33.1736C36.1184 32.8867 37.3158 32.6912 38.5263 32.5999V32.1697C38.5263 31.6222 38.9737 31.1919 39.5132 31.1919C40.0526 31.1919 40.5 31.6222 40.5 32.1697V52.9507C40.9868 52.9898 41.4737 53.1723 41.8816 53.4852L42.7105 54.0979C42.9605 54.2804 43.1316 54.5803 43.1579 54.8932C43.1842 55.2061 43.0789 55.519 42.8684 55.7536L42.5526 56.0926C42 56.6923 41.2763 57.1095 40.5 57.292V60.1732C40.5 60.7077 40.0526 61.1509 39.5132 61.1509C38.9737 61.1509 38.5263 60.7077 38.5263 60.1732V57.305C37.7368 57.1225 37 56.6923 36.4342 56.0926L36.1316 55.7536C35.9079 55.519 35.8026 55.2061 35.8289 54.8932C35.8553 54.5803 36.0263 54.2804 36.2763 54.0979L37.1053 53.4852C37.5263 53.1593 38.0263 52.9898 38.5263 52.9507V37.9842C37.2763 38.1015 35.9737 38.3623 34.7368 38.7404C33.2105 39.2097 31.7895 39.8485 30.7105 40.5916C30.2632 40.9045 29.6579 40.7872 29.3421 40.3569C29.0395 39.9137 29.1447 39.3009 29.5921 39.0011C30.8421 38.1276 32.4474 37.3975 34.1579 36.8761C35.5789 36.4458 37.0789 36.146 38.5263 36.0156V34.5555ZM35.6842 49.8088C36.2105 49.7175 36.7237 50.0565 36.8289 50.591C36.921 51.1255 36.5658 51.6339 36.0263 51.7252C35.1711 51.8816 34.2895 52.351 33.5526 53.0289C32.8421 53.6807 32.2763 54.5281 32 55.4668C31.8421 55.9883 31.3026 56.2881 30.7763 56.1317C30.2632 55.9883 29.9605 55.4407 30.1053 54.9323C30.4868 53.6286 31.25 52.4813 32.2105 51.5948C33.2105 50.6822 34.4474 50.0304 35.6842 49.8088ZM45.6184 42.0778C44.3947 42.0778 43.171 42.5341 42.25 43.4597C41.8553 43.8509 41.8553 44.4897 42.25 44.8808C42.6447 45.2719 43.2895 45.2719 43.6842 44.8808C44.75 43.8248 46.4737 43.8248 47.5395 44.8808C47.9342 45.2719 48.5789 45.2719 48.9868 44.8808C49.3816 44.4897 49.3816 43.8509 48.9868 43.4597C48.0526 42.5341 46.8289 42.0778 45.6184 42.0778ZM33.3026 42.0778C32.0789 42.0778 30.8553 42.5341 29.9342 43.4597C29.5395 43.8509 29.5395 44.4897 29.9342 44.8808C30.3289 45.2719 30.9737 45.2719 31.3684 44.8808C32.4342 43.8248 34.1711 43.8248 35.2237 44.8808C35.6184 45.2719 36.2632 45.2719 36.6711 44.8808C37.0658 44.4897 37.0658 43.8509 36.6711 43.4597C35.7368 42.5341 34.5132 42.0778 33.3026 42.0778ZM23.9868 37.8669L24.4211 36.8891C25.6974 33.9688 27.8289 31.4788 30.4868 29.7448C32.8289 28.2195 35.5789 27.2678 38.5395 27.1114H38.6711H38.6974L38.8158 27.0983H38.8421H38.9737H39L39.1316 27.0853H39.1579H39.2763H39.3026H39.4342H39.4605H48.6842H48.7105H48.75H48.7763H48.8158H48.8421H48.8816H48.9079H48.9342H48.9605L49 27.0723C50.2368 26.994 51.3553 26.4725 52.1842 25.6512C53.0789 24.7647 53.6447 23.5262 53.6447 22.1834C53.6447 20.8275 53.0789 19.6021 52.1842 18.7025C51.3684 17.9072 50.2763 17.3727 49.0658 17.2815H49.0263L48.9342 17.2684H48.9079H48.8816H48.8421H48.8158H48.7763H48.75H48.7105H48.6842H34.7368H34.7105H34.5789H34.5526H34.4211H34.3947L34.2632 17.2815H34.2368H34.1053H34.0789L33.9474 17.2945C30.8421 17.4901 28.0263 18.8329 25.9605 20.8797C23.7105 23.109 22.3026 26.1988 22.3026 29.5884C22.3026 30.3445 22.3289 30.853 22.5263 31.8438C22.7105 32.8085 23.0658 34.2296 23.7237 36.837L23.9868 37.8669ZM55.0132 37.893L55.2763 36.863C55.9342 34.2426 56.2895 32.8085 56.4737 31.8438C56.6711 30.853 56.6974 30.3445 56.6974 29.5884C56.6974 28.8583 56.6184 28.1282 56.5 27.4242C56.3684 26.6942 56.1711 25.9902 55.9211 25.3123L55.6184 24.504L55.25 25.2862C54.6711 26.4465 53.7895 27.4503 52.7105 28.1674C51.6711 28.8453 50.4605 29.2625 49.1579 29.3407H49.1184H49.0921H49.0526H49.0263L47.9474 29.4059L48.8553 30.0316C49.1316 30.2272 49.4079 30.4228 49.671 30.6313C49.921 30.8269 50.1842 31.0485 50.4474 31.2832C51.3421 32.0654 52.1316 32.9519 52.8289 33.8906C53.5132 34.8423 54.1053 35.8592 54.5789 36.9152L55.0132 37.893ZM39.9342 63.5237C43.3026 63.302 46.3947 60.7468 48.8026 57.3311C51.7368 53.1202 53.6447 47.5664 53.6447 43.4337L53.6184 42.6123L53.5395 41.791C53.1316 38.2971 51.3816 35.1943 48.8421 32.9519C46.5 30.8921 43.4868 29.5754 40.2632 29.3798L40.1316 29.3668H40.1053H39.9605H39.9342L39.7895 29.3537H39.7632H39.6316H39.6053H39.4605H39.4342H39.2763H39.25H39.1053H39.0789L38.9211 29.3668H38.8947H38.7368C35.1447 29.5623 31.8816 31.0876 29.5 33.4864C26.9342 36.0287 25.3553 39.5486 25.3553 43.4337C25.3553 47.3578 27.2237 53.1202 30.2368 57.4484C32.5526 60.7859 35.5789 63.302 38.9605 63.5237L39.1053 63.5367H39.1316L39.2632 63.5497H39.2895H39.4342H39.4605H39.6053H39.6316L39.7632 63.5367H39.7895L39.9342 63.5237Z" fill="white"/>
</svg>
