<svg width="80" height="80" viewBox="0 0 80 80" fill="none" xmlns="http://www.w3.org/2000/svg">
<path fill-rule="evenodd" clip-rule="evenodd" d="M40 0C62.09 0 80 17.91 80 40C80 62.09 62.09 80 40 80C17.91 80 0 62.09 0 40C0 17.91 17.91 0 40 0Z" fill="#5271FF" fill-opacity="0.2"/>
<path d="M40.0014 74.5599C59.0884 74.5599 74.5614 59.0869 74.5614 39.9999C74.5614 20.913 59.0884 5.43994 40.0014 5.43994C20.9144 5.43994 5.44141 20.913 5.44141 39.9999C5.44141 59.0869 20.9144 74.5599 40.0014 74.5599Z" fill="#5271FF"/>
<path d="M23.4273 55.0049C23.5321 55.3638 23.8592 55.5962 24.214 55.5962C24.2902 55.5962 24.3682 55.5855 24.4452 55.5629C24.8801 55.4351 25.1289 54.978 25.0015 54.5418C24.8494 54.0218 24.708 53.4993 24.5815 52.9874C24.4725 52.5465 24.0278 52.2774 23.5883 52.3872C23.1487 52.4965 22.8804 52.9426 22.9894 53.3835C23.1215 53.9176 23.2688 54.4631 23.4273 55.0049Z" fill="white"/>
<path d="M25.1672 35.2012C25.2698 35.2443 25.3763 35.2644 25.4811 35.2644C25.8027 35.2644 26.1081 35.0735 26.2388 34.7564C26.4467 34.2548 26.6626 33.7528 26.8807 33.2645C27.0664 32.8501 26.8815 32.363 26.4684 32.1771C26.0552 31.9909 25.5697 32.1763 25.3844 32.5907C25.1595 33.0932 24.9372 33.6097 24.7238 34.1262C24.5505 34.5458 24.7489 35.0273 25.1672 35.2012Z" fill="white"/>
<path d="M22.0328 46.1955C22.0328 46.3211 22.0341 46.4523 22.0366 46.5877C22.0443 47.0372 22.4102 47.3961 22.8561 47.3961H22.871C23.3238 47.388 23.6845 47.0133 23.6765 46.5587C23.6743 46.4331 23.6735 46.3121 23.6735 46.1955C23.6735 45.7708 23.6871 45.3645 23.7139 44.9877C23.7463 44.5348 23.4064 44.1409 22.9545 44.1084C22.5035 44.0772 22.1103 44.4169 22.0775 44.8698C22.0481 45.2859 22.0328 45.7319 22.0328 46.1955Z" fill="white"/>
<path d="M22.4587 50.8572C22.5277 51.2575 22.8744 51.5404 23.2663 51.5404C23.3123 51.5404 23.3591 51.5365 23.4064 51.5284C23.8528 51.4511 24.1522 51.0255 24.0755 50.5778C23.9835 50.0437 23.9065 49.5105 23.846 48.9931C23.7932 48.5419 23.3855 48.2198 22.9358 48.2719C22.4856 48.3249 22.164 48.7338 22.2168 49.1854C22.2807 49.7318 22.3621 50.2941 22.4587 50.8572Z" fill="white"/>
<path d="M22.5831 40.6161C22.4506 41.2172 22.3501 41.7885 22.2845 42.314C22.2287 42.7647 22.5478 43.1757 22.9971 43.2321C23.0316 43.2364 23.0657 43.2385 23.0998 43.2385C23.5074 43.2385 23.8605 42.9339 23.9124 42.5174C23.9716 42.0431 24.0632 41.5231 24.1846 40.972C24.2825 40.5285 24.0036 40.0889 23.5615 39.9906C23.1193 39.8928 22.6811 40.1722 22.5831 40.6161Z" fill="white"/>
<path d="M30.4384 19.429C30.4797 19.4354 30.5202 19.438 30.5607 19.438C30.9598 19.438 31.3099 19.1449 31.3708 18.7369C31.4551 18.1678 31.5254 17.6051 31.579 17.0646C31.6242 16.6126 31.2954 16.2093 30.8448 16.1644C30.3937 16.1195 29.9921 16.449 29.9469 16.901C29.8958 17.4154 29.8289 17.9511 29.7484 18.4942C29.6816 18.9432 29.9908 19.3619 30.4384 19.429Z" fill="white"/>
<path d="M30.0772 14.4644C30.0772 14.919 30.4444 15.2868 30.8976 15.2868C31.3503 15.2868 31.7175 14.9181 31.7175 14.4635C31.7175 13.3224 31.6216 12.7161 31.6174 12.6909C31.545 12.2431 31.1246 11.9402 30.6786 12.0116C30.2323 12.0834 29.9282 12.5046 29.998 12.9528C29.9989 12.9575 30.0772 13.4728 30.0772 14.4644Z" fill="white"/>
<path d="M23.7987 36.5188C23.6036 37.0631 23.423 37.598 23.2625 38.1095C23.1262 38.5427 23.3655 39.005 23.7978 39.1417C23.88 39.1677 23.9631 39.1801 24.0449 39.1801C24.3933 39.1801 24.7161 38.9554 24.8264 38.6046C24.9811 38.1142 25.1544 37.5998 25.3422 37.0755C25.4956 36.6483 25.2741 36.177 24.8477 36.0232C24.4214 35.8694 23.9516 36.0916 23.7987 36.5188Z" fill="white"/>
<path d="M29.5402 23.4977C29.6066 23.5143 29.6735 23.5224 29.7395 23.5224C30.1071 23.5224 30.4414 23.2729 30.5347 22.8991C30.671 22.3514 30.7979 21.8028 30.9112 21.2683C31.0058 20.8239 30.7234 20.3869 30.2804 20.292C29.837 20.1972 29.4013 20.4809 29.3072 20.9252C29.1973 21.4413 29.075 21.9711 28.943 22.5C28.8331 22.941 29.1006 23.3874 29.5402 23.4977Z" fill="white"/>
<path d="M26.5391 62.8778C26.6822 63.1674 26.9727 63.3349 27.2747 63.3349C27.3969 63.3349 27.5213 63.3076 27.6384 63.2495C28.0443 63.0474 28.21 62.5539 28.009 62.1467C27.7687 61.6605 27.5345 61.1688 27.313 60.6847C27.1243 60.2716 26.6371 60.0904 26.2256 60.2797C25.8142 60.4689 25.6336 60.9573 25.8223 61.3704C26.0501 61.8694 26.2916 62.3766 26.5391 62.8778Z" fill="white"/>
<path d="M29.3536 26.9588C29.5295 26.4273 29.6982 25.8924 29.8553 25.3681C29.9861 24.9332 29.7399 24.4743 29.3063 24.3436C28.8727 24.2124 28.4153 24.459 28.2845 24.8943C28.1316 25.4036 27.9676 25.924 27.7968 26.4405C27.6542 26.872 27.8871 27.3377 28.3169 27.4804C28.4025 27.5091 28.4898 27.5227 28.5754 27.5227C28.9192 27.5227 29.2394 27.304 29.3536 26.9588Z" fill="white"/>
<path d="M29.1585 64.35C28.94 63.9518 28.4413 63.807 28.0443 64.0262C27.6478 64.2458 27.5034 64.7461 27.7219 65.1439C27.9851 65.6237 28.2615 66.1111 28.5426 66.5931C28.6955 66.8541 28.9694 66.9998 29.2514 66.9998C29.3919 66.9998 29.5346 66.9635 29.6649 66.887C30.0559 66.6576 30.1871 66.1534 29.9584 65.7612C29.6841 65.2921 29.4154 64.817 29.1585 64.35Z" fill="white"/>
<path d="M24.8141 59.0146C24.9423 59.3363 25.2507 59.5324 25.5761 59.5324C25.6774 59.5324 25.7805 59.5136 25.8802 59.4735C26.3006 59.3051 26.5054 58.8266 26.3376 58.4045C26.1374 57.9008 25.9449 57.3923 25.7665 56.8933C25.6136 56.4656 25.1442 56.2435 24.7178 56.3969C24.2911 56.5502 24.0696 57.0215 24.2225 57.4492C24.4078 57.9661 24.6067 58.4929 24.8141 59.0146Z" fill="white"/>
<path d="M28.0247 28.3076C27.6009 28.1478 27.1277 28.3636 26.9684 28.7887C26.7823 29.2873 26.5842 29.797 26.3811 30.3045C26.212 30.7258 26.416 31.2052 26.836 31.3744C26.9365 31.4149 27.04 31.4342 27.1418 31.4342C27.4668 31.4342 27.7743 31.2389 27.9029 30.9181C28.1112 30.399 28.3135 29.8773 28.5043 29.3667C28.6636 28.9416 28.4485 28.4674 28.0247 28.3076Z" fill="white"/>
<path d="M52.0996 30.9185C52.2283 31.2393 52.5358 31.4342 52.8608 31.4342C52.9626 31.4342 53.0665 31.4149 53.1666 31.3748C53.587 31.2052 53.7906 30.7262 53.6215 30.3045C53.4183 29.7974 53.2207 29.2873 53.0341 28.7891C52.8748 28.3636 52.4021 28.1478 51.9783 28.308C51.554 28.4674 51.3394 28.942 51.4987 29.3672C51.6895 29.8773 51.8918 30.3994 52.0996 30.9185Z" fill="white"/>
<path d="M52.3646 63.2495C52.4817 63.3076 52.6056 63.3349 52.7283 63.3349C53.0299 63.3349 53.3203 63.1674 53.4635 62.8778C53.7113 62.3766 53.9524 61.8694 54.1807 61.3704C54.3698 60.9573 54.1888 60.4689 53.7769 60.2797C53.3655 60.0904 52.8787 60.2716 52.6895 60.6847C52.4685 61.1688 52.2342 61.6605 51.994 62.1467C51.793 62.5539 51.9587 63.0474 52.3646 63.2495Z" fill="white"/>
<path d="M55.1884 59.0146C55.3963 58.4929 55.5952 57.9661 55.78 57.4492C55.9334 57.0215 55.7115 56.5502 55.2851 56.3969C54.8588 56.2435 54.3894 56.4656 54.2365 56.8933C54.058 57.3923 53.8655 57.9008 53.6653 58.4045C53.4971 58.8266 53.702 59.3051 54.1228 59.4735C54.2224 59.5136 54.3255 59.5324 54.4265 59.5324C54.7523 59.5324 55.0602 59.3363 55.1884 59.0146Z" fill="white"/>
<path d="M56.5753 55.0049C56.7337 54.4631 56.8811 53.9176 57.0131 53.3835C57.1221 52.9426 56.8542 52.4961 56.4143 52.3872C55.9747 52.2774 55.53 52.5465 55.421 52.9874C55.2945 53.4993 55.1535 54.0222 55.0015 54.5418C54.8737 54.978 55.1229 55.4351 55.5573 55.5629C55.6344 55.5855 55.7123 55.5962 55.7886 55.5962C56.1434 55.5962 56.4705 55.3638 56.5753 55.0049Z" fill="white"/>
<path d="M55.818 40.972C55.9398 41.5227 56.0313 42.0431 56.0905 42.5173C56.1421 42.9339 56.4956 43.2385 56.9032 43.2385C56.9373 43.2385 56.9714 43.2364 57.0059 43.2321C57.4552 43.1757 57.7742 42.7647 57.718 42.3136C57.6528 41.788 57.5523 41.2168 57.4199 40.6157C57.3219 40.1722 56.8845 39.8928 56.4415 39.9906C55.9994 40.0889 55.72 40.5281 55.818 40.972Z" fill="white"/>
<path d="M54.6186 32.5912C54.4329 32.1767 53.9477 31.9909 53.5346 32.1771C53.121 32.3634 52.9366 32.8501 53.1219 33.2649C53.3404 33.7528 53.5563 34.2548 53.7637 34.7569C53.8945 35.0734 54.1999 35.2644 54.5219 35.2644C54.6262 35.2644 54.7327 35.2443 54.8358 35.2016C55.254 35.0273 55.4525 34.5462 55.2792 34.1267C55.0653 33.6101 54.8434 33.0932 54.6186 32.5912Z" fill="white"/>
<path d="M57.5438 50.8572C57.6405 50.2941 57.7218 49.7318 57.7857 49.1854C57.8385 48.7338 57.517 48.3253 57.0668 48.2719C56.6166 48.2189 56.2094 48.5419 56.1566 48.9931C56.0961 49.5105 56.019 50.0437 55.927 50.5778C55.8503 51.0255 56.1498 51.4511 56.5961 51.5284C56.6434 51.5365 56.6903 51.5404 56.7362 51.5404C57.1285 51.5404 57.4752 51.2575 57.5438 50.8572Z" fill="white"/>
<path d="M52.2061 26.4405C52.0349 25.924 51.8709 25.4036 51.718 24.8943C51.5877 24.459 51.1298 24.2124 50.6962 24.3436C50.2626 24.4743 50.0169 24.9332 50.1472 25.3681C50.3048 25.8924 50.4735 26.4273 50.6489 26.9588C50.7635 27.304 51.0838 27.5227 51.4275 27.5227C51.5131 27.5227 51.6 27.5091 51.6856 27.4809C52.1158 27.3377 52.3488 26.872 52.2061 26.4405Z" fill="white"/>
<path d="M56.2043 36.5188C56.0509 36.0916 55.5816 35.8694 55.1548 36.0232C54.7284 36.1766 54.5074 36.6478 54.6603 37.0755C54.8481 37.5993 55.0219 38.1137 55.1761 38.6046C55.2864 38.9554 55.6097 39.1797 55.9581 39.1797C56.0399 39.1797 56.1229 39.1673 56.2051 39.1417C56.637 39.0045 56.8764 38.5427 56.7405 38.1095C56.5795 37.5985 56.3993 37.0631 56.2043 36.5188Z" fill="white"/>
<path d="M49.7226 20.292C49.2796 20.3869 48.9972 20.8239 49.0913 21.2683C49.2051 21.8028 49.332 22.3514 49.4683 22.8991C49.5616 23.2729 49.8959 23.5224 50.2635 23.5224C50.3291 23.5224 50.3959 23.5143 50.4628 23.4977C50.9024 23.3874 51.1694 22.941 51.0595 22.5C50.9279 21.9711 50.8053 21.4413 50.6958 20.9252C50.6012 20.4809 50.1659 20.1976 49.7226 20.292Z" fill="white"/>
<path d="M51.9582 64.0262C51.5617 63.807 51.0629 63.9518 50.844 64.35C50.5876 64.817 50.3184 65.2921 50.0446 65.7612C49.8158 66.1534 49.947 66.6576 50.3376 66.887C50.4679 66.9635 50.6106 66.9998 50.7516 66.9998C51.0331 66.9998 51.3074 66.8541 51.4599 66.5931C51.7414 66.1111 52.0174 65.6237 52.2811 65.1439C52.4996 64.7461 52.3552 64.2454 51.9582 64.0262Z" fill="white"/>
<path d="M57.9697 46.1955C57.9697 45.7319 57.9548 45.2859 57.925 44.8698C57.8926 44.4169 57.5012 44.0764 57.048 44.1084C56.5961 44.1409 56.2562 44.5344 56.2886 44.9877C56.3159 45.3645 56.3295 45.7708 56.3295 46.1955C56.3295 46.3121 56.3282 46.4335 56.3261 46.5591C56.318 47.0133 56.6787 47.388 57.1315 47.3961H57.1464C57.5928 47.3961 57.9582 47.0372 57.9663 46.5877C57.9684 46.4523 57.9697 46.3215 57.9697 46.1955Z" fill="white"/>
<path d="M49.1054 15.2868C49.5582 15.2868 49.9253 14.9181 49.9253 14.4635C49.9253 13.4728 50.0041 12.9579 50.0049 12.9524C50.0761 12.505 49.7728 12.0838 49.3269 12.0107C48.8797 11.9381 48.4584 12.2423 48.3856 12.6909C48.3813 12.7161 48.2851 13.3224 48.2851 14.4644C48.2851 14.919 48.6522 15.2868 49.1054 15.2868Z" fill="white"/>
<path d="M49.1582 16.1644C48.7076 16.2097 48.3788 16.6126 48.4235 17.0646C48.4772 17.6051 48.5474 18.1678 48.6322 18.7369C48.6927 19.1449 49.0428 19.4384 49.4423 19.4384C49.4823 19.4384 49.5232 19.4354 49.5641 19.429C50.0122 19.3623 50.3214 18.9436 50.2545 18.4942C50.1736 17.9511 50.1072 17.4154 50.0556 16.9014C50.0109 16.449 49.6097 16.1187 49.1582 16.1644Z" fill="white"/>
<path d="M56.0756 28.7113C56.6732 29.4248 57.5881 30.6113 58.5524 32.2126C58.7062 32.4685 58.9775 32.6099 59.2552 32.6099C59.3996 32.6099 59.5456 32.5719 59.6781 32.4916C60.0661 32.2566 60.1905 31.7508 59.9562 31.362C58.9374 29.6701 57.9667 28.411 57.3317 27.653C56.7086 26.9092 56.1834 26.1957 55.7272 25.4711C53.7561 22.3424 52.8058 19.2367 52.9792 16.4912C53.1087 14.4353 53.8268 13.2801 53.831 13.2732C54.0789 12.893 53.9729 12.3829 53.5934 12.1346C53.2147 11.886 52.7062 11.9928 52.4583 12.373C52.3147 12.5935 48.9993 17.8717 54.3409 26.3504C54.8371 27.1378 55.4044 27.9102 56.0756 28.7113Z" fill="white"/>
<path d="M61.8248 34.9833L61.7741 34.8675C61.5914 34.4514 61.1075 34.2625 60.6931 34.4454C60.2782 34.6287 60.09 35.114 60.2727 35.5297L60.3217 35.6425C61.7945 39.0426 62.4764 42.4725 62.3478 45.8362C62.1821 50.1749 60.6552 54.3926 57.8096 58.3729C56.775 59.82 55.8137 61.2709 55.0922 62.3732L52.2428 66.7255C51.994 67.1053 52.0996 67.6155 52.4783 67.865C52.6171 67.956 52.7735 68 52.9276 68C53.1947 68 53.4562 67.8693 53.6138 67.6287L56.4632 63.2764C57.1767 62.1873 58.1256 60.7543 59.1427 59.332C65.9515 49.8083 64.3603 40.8366 61.8248 34.9833Z" fill="white"/>
<path d="M24.9104 62.3732C24.1888 61.2709 23.2275 59.82 22.1934 58.3733C17.9282 52.4072 16.647 46.0148 18.3865 39.3724C19.7775 34.0592 22.7245 30.1469 23.9269 28.7113C24.5982 27.9102 25.1659 27.1378 25.6621 26.3499C26.3027 25.3331 26.85 24.309 27.2883 23.3062C27.4702 22.8905 27.2815 22.4052 26.8666 22.2223C26.4518 22.0403 25.9679 22.2296 25.7861 22.6453C25.3806 23.5728 24.8724 24.5235 24.2753 25.4711C23.8191 26.1953 23.2944 26.9092 22.6713 27.653C21.3973 29.1732 18.2753 33.3183 16.7999 38.9545C15.963 42.1512 15.7815 45.3508 16.2615 48.4633C16.8404 52.2167 18.3873 55.8735 20.8602 59.332C21.8774 60.7548 22.8263 62.1873 23.5397 63.2764L26.3887 67.6287C26.5463 67.8693 26.8083 68 27.0753 68C27.2299 68 27.3858 67.956 27.5247 67.865C27.9033 67.6155 28.0085 67.1054 27.7598 66.7255L24.9104 62.3732Z" fill="white"/>
<path d="M26.8922 18.9876C26.8202 19.4363 27.1243 19.8588 27.5711 19.9314C27.6154 19.9383 27.6597 19.9417 27.7031 19.9417C28.0984 19.9417 28.4468 19.6542 28.5115 19.25C29.1998 14.9737 27.6124 12.4768 27.5447 12.3726C27.2968 11.9924 26.7883 11.8855 26.4092 12.1342C26.0301 12.3829 25.9236 12.893 26.1715 13.2732C26.1847 13.2933 27.4804 15.3338 26.8922 18.9876Z" fill="white"/>
<path d="M49.3294 54.2709C47.1823 54.2311 45.2372 53.4907 43.7051 52.1295C42.176 50.7717 41.2083 48.9307 40.9055 46.806C40.2402 42.1354 42.6216 37.3772 45.0719 34.4813C45.3649 34.1348 45.3223 33.6157 44.9769 33.3217C44.6319 33.0278 44.114 33.0701 43.821 33.4166C42.2348 35.2913 40.9677 37.4746 40.1567 39.7296C40.092 39.9094 40.0315 40.0893 39.9727 40.2692C39.9144 40.0893 39.8539 39.9094 39.7892 39.7296C38.9782 37.4746 37.7111 35.2913 36.1245 33.4166C35.8315 33.0701 35.314 33.0274 34.9686 33.3217C34.6236 33.6157 34.581 34.1348 34.874 34.4813C37.3243 37.3772 39.7053 42.1354 39.0404 46.806C38.7376 48.9312 37.7694 50.7717 36.2408 52.1295C34.7087 53.4907 32.7635 54.2311 30.6165 54.2709C30.1637 54.2794 29.8029 54.6545 29.8115 55.1087C29.82 55.5577 30.1854 55.9162 30.6314 55.9162H30.6467C34.2841 55.8487 37.3993 54.018 39.1814 51.1511V67.1391C39.1814 67.5916 39.5289 67.988 39.98 67.9996C40.443 68.0115 40.8216 67.639 40.8216 67.1771V51.2443C42.613 54.0577 45.701 55.8491 49.2992 55.9158C49.3043 55.9162 49.3094 55.9162 49.3145 55.9162C49.7605 55.9162 50.1259 55.5577 50.1344 55.1087C50.1425 54.6545 49.7822 54.2794 49.3294 54.2709Z" fill="white"/>
</svg>
