<svg width="80" height="80" viewBox="0 0 80 80" fill="none" xmlns="http://www.w3.org/2000/svg">
<path fill-rule="evenodd" clip-rule="evenodd" d="M40 0C62.09 0 80 17.91 80 40C80 62.09 62.09 80 40 80C17.91 80 0 62.09 0 40C0 17.91 17.91 0 40 0Z" fill="#5271FF" fill-opacity="0.2"/>
<path d="M40.0014 74.5599C59.0884 74.5599 74.5614 59.0869 74.5614 39.9999C74.5614 20.913 59.0884 5.43994 40.0014 5.43994C20.9144 5.43994 5.44141 20.913 5.44141 39.9999C5.44141 59.0869 20.9144 74.5599 40.0014 74.5599Z" fill="#5271FF"/>
<path d="M29.1671 57.3542C29.2842 57.7309 29.6911 57.9412 30.0703 57.8412C31.2367 57.5337 33.191 57.5351 34.3496 57.8456C34.4127 57.8625 34.4761 57.8705 34.5385 57.8705C34.8888 57.8705 35.2068 57.6156 35.2629 57.2395C35.3189 56.8652 35.0684 56.5104 34.7046 56.4144C33.2881 56.0409 31.0858 56.0428 29.6774 56.4202C29.2761 56.5277 29.0417 56.9508 29.1671 57.3542Z" fill="white"/>
<path d="M24.2727 46.2898C24.0682 46.5911 24.1358 46.9986 24.3953 47.2534C24.9315 47.7798 25.6361 48.0692 26.3846 48.0692C27.1334 48.0692 27.838 47.7797 28.3743 47.2531C28.6337 46.9983 28.7011 46.5907 28.4964 46.2895C28.2273 45.8936 27.6863 45.8579 27.3679 46.1807C27.1049 46.4473 26.7557 46.5942 26.3846 46.5942C26.0135 46.5942 25.6643 46.4473 25.4013 46.1807C25.0829 45.858 24.5416 45.8937 24.2727 46.2898Z" fill="white"/>
<path d="M23.4681 51.5121C23.3099 51.7556 23.3138 52.0804 23.4769 52.3205C23.6249 52.5382 23.8554 52.6472 24.0859 52.6472C24.2733 52.6472 24.4608 52.5752 24.6039 52.4311L24.6094 52.4255C24.8157 52.2179 24.8886 51.9029 24.7724 51.6336C24.5239 51.0575 23.7868 51.0217 23.4681 51.5121Z" fill="white"/>
<path d="M25.1671 55.4989C24.9606 55.7641 24.9639 56.1501 25.1742 56.4123C25.322 56.5964 25.534 56.6886 25.746 56.6886C25.9334 56.6886 26.1209 56.6166 26.264 56.4725L26.2667 56.4698C26.4741 56.2609 26.5484 55.9436 26.4301 55.6734C26.1892 55.1233 25.5032 55.0674 25.1671 55.4989Z" fill="white"/>
<path d="M29.2328 51.391C28.9467 51.679 28.9467 52.146 29.2328 52.4339C29.3758 52.5779 29.5633 52.65 29.7507 52.65C29.9381 52.65 30.1256 52.578 30.2687 52.4339L30.273 52.4296C30.4782 52.223 30.5526 51.9097 30.4377 51.6415C30.2129 51.1168 29.5864 51.0354 29.2328 51.391Z" fill="white"/>
<path d="M29.5741 42.9923C29.7615 42.9923 29.949 42.9203 30.0921 42.7763L30.0976 42.7707C30.3039 42.563 30.3768 42.248 30.2606 41.9787C30.0122 41.4027 29.2751 41.3669 28.9564 41.8572C28.7982 42.1006 28.8021 42.4254 28.9652 42.6656C29.1131 42.8834 29.3436 42.9923 29.5741 42.9923Z" fill="white"/>
<path d="M35.2482 53.4249C35.3583 53.4249 35.47 53.3998 35.5753 53.3469L35.5795 53.3448C35.8419 53.2126 36.0119 52.9352 35.9847 52.6411C35.9294 52.0416 35.2932 51.771 34.8393 52.0749C34.5685 52.2562 34.4483 52.6095 34.5524 52.9198C34.6591 53.2377 34.9475 53.4249 35.2482 53.4249Z" fill="white"/>
<path d="M49.7747 23.7887C41.966 23.6147 35.5774 30.0484 35.749 37.9127C35.9097 45.2704 41.8505 51.2526 49.1577 51.4146C56.9679 51.5875 63.3574 45.1541 63.1843 37.2909C63.0222 29.9333 57.0817 23.9516 49.7747 23.7887ZM49.4654 49.943C43.3121 49.943 38.2042 45.3526 37.3401 39.3941H42.7807C44.6074 39.3941 45.534 38.0424 46.3515 36.8497C47.1635 35.6651 47.8648 34.642 49.338 34.642C50.8096 34.642 51.511 35.6649 52.3231 36.8491C53.1411 38.0421 54.0684 39.3941 55.8952 39.3941H61.5933C60.7289 45.3525 55.6199 49.943 49.4654 49.943ZM55.8952 37.9192C54.8881 37.9192 54.3398 37.1941 53.5284 36.011C52.6596 34.744 51.5782 33.167 49.338 33.167C47.0958 33.167 46.0146 34.7444 45.1459 36.0119C44.3353 37.1944 43.7874 37.9193 42.7807 37.9193H37.2145C37.2118 37.8142 37.2105 37.7088 37.2105 37.6031C37.2105 30.7973 42.708 25.2603 49.4654 25.2603C56.2242 25.2603 61.7229 30.7972 61.7229 37.6031C61.7229 37.7088 61.7215 37.8141 61.7189 37.9193L55.8952 37.9192Z" fill="white"/>
<path d="M49.3748 28.3925C49.003 28.4379 48.7339 28.7752 48.7339 29.1523V30.4537C48.7339 30.8309 49.003 31.1682 49.3748 31.2136C49.8203 31.2679 50.1988 30.9193 50.1988 30.4817V29.1243C50.1988 28.6867 49.8202 28.3381 49.3748 28.3925Z" fill="white"/>
<path d="M45.6283 30.4203C45.3208 30.1108 44.8084 30.1339 44.5316 30.4894C44.3005 30.786 44.3472 31.2162 44.612 31.4828L45.5447 32.422C45.6877 32.566 45.8752 32.638 46.0626 32.638C46.2858 32.638 46.5091 32.5359 46.6574 32.3317C46.8607 32.0516 46.8063 31.6064 46.5627 31.361L45.6283 30.4203Z" fill="white"/>
<path d="M53.3033 30.4203L52.3695 31.3606C52.1259 31.606 52.0713 32.0511 52.2743 32.3314C52.4224 32.5358 52.6458 32.6381 52.8691 32.6381C53.0565 32.6381 53.244 32.5661 53.3871 32.422L54.3237 31.4788C54.5689 31.2319 54.6297 30.8417 54.4416 30.5484C54.1778 30.1372 53.6269 30.0945 53.3033 30.4203Z" fill="white"/>
<path d="M49.4668 36.7346C47.9426 36.7346 46.7027 38.232 46.7027 40.0725C46.7027 41.9115 47.9426 43.4076 49.4668 43.4076C50.9924 43.4076 52.2336 41.9115 52.2336 40.0725C52.2336 38.232 50.9924 36.7346 49.4668 36.7346ZM49.4668 41.9327C48.7625 41.9327 48.1675 41.0809 48.1675 40.0725C48.1675 39.0627 48.7626 38.2096 49.4668 38.2096C50.1725 38.2096 50.7688 39.0627 50.7688 40.0725C50.7688 41.0808 50.1725 41.9327 49.4668 41.9327Z" fill="white"/>
<path d="M49.4662 19.9474C45.8607 19.9474 42.5064 21.0497 39.7169 22.9365C39.1072 21.2678 37.8498 19.9077 36.0892 19.0417C34.1531 18.0896 31.7317 17.7762 29.27 18.1592C26.0393 18.6621 23.1727 20.2689 21.1988 22.6839C18.9151 25.4777 17.9593 29.2094 18.4269 33.4861C17.6797 35.1521 17.2128 36.9341 17.059 38.7454C16.8234 41.5179 17.2943 44.2655 18.4552 46.9146L18.4549 48.0178C18.4544 49.025 18.4721 49.1634 18.4746 49.2025C18.4796 51.3922 19.1586 53.9881 20.3393 56.3296C21.3885 58.4098 23.3119 60.5932 25.6166 62.3202C27.9045 64.0345 30.2085 65.0001 31.9909 65C32.0631 65 32.1349 64.9984 32.2053 64.9952C34.0134 65.0774 36.4127 64.1039 38.793 62.3201C41.0966 60.5936 43.0204 58.4104 44.0719 56.3283C44.3535 55.7672 44.6056 55.1973 44.8255 54.6268C46.3043 55.0361 47.8602 55.2559 49.4662 55.2559C53.1551 55.2559 56.6861 54.1143 59.6796 51.9542C59.9645 51.7486 60.0912 51.3711 59.9499 51.0482C59.7545 50.6016 59.2188 50.471 58.8481 50.7395C56.1668 52.681 53.0128 53.7295 49.7121 53.779C40.8274 53.9125 33.4644 46.6683 33.4004 37.7213C33.3362 28.7452 40.5681 21.4223 49.4662 21.4223C58.3267 21.4224 65.5352 28.681 65.5352 37.603C65.5352 41.7383 63.9857 45.6736 61.1718 48.6866C60.9173 48.9591 60.8857 49.3877 61.1224 49.676C61.409 50.0253 61.9235 50.0338 62.2223 49.7148C65.3032 46.4248 67 42.1235 67 37.603C67 27.8678 59.1344 19.9474 49.4662 19.9474ZM33.8356 29.6154C30.6022 29.3199 28.2147 29.7308 26.3498 30.9055C26.0311 31.1062 25.8975 31.521 26.0621 31.8612C26.1921 32.1299 26.4541 32.2785 26.7227 32.2785C26.856 32.2785 26.9909 32.2419 27.112 32.1652C28.6 31.2224 30.5475 30.862 33.1909 31.043C32.4515 32.8977 32.0156 34.9071 31.9462 37.0083C30.1725 37.0401 28.3938 37.3911 26.7579 38.0366C26.4079 38.1747 26.1918 38.5498 26.2859 38.9162C26.3739 39.2588 26.6754 39.4723 26.9962 39.4723C27.0856 39.4723 27.1766 39.4557 27.2647 39.4207C28.7427 38.8337 30.3517 38.5126 31.957 38.4827C32.3104 45.699 36.9872 51.7895 43.4275 54.1765C43.2326 54.6742 43.0114 55.1716 42.7654 55.6615C40.7522 59.6482 35.346 63.6893 32.2446 63.5206C32.2185 63.5191 32.1924 63.5191 32.1662 63.5206C29.0638 63.6877 23.656 59.6484 21.6455 55.6619C20.5612 53.5117 19.9394 51.1486 19.9394 49.1782C19.9394 49.1629 19.9194 48.6218 19.9197 48.0186L19.9201 46.902C20.9065 44.4158 22.4514 42.4055 24.5137 40.9247C24.8163 40.7074 24.932 40.2941 24.7564 39.9641C24.5437 39.5644 24.0402 39.4539 23.6851 39.7082C21.8373 41.0298 20.3233 42.7954 19.2394 44.8734C18.0261 41.1969 18.2331 37.3721 19.8179 33.9585C19.8333 33.9302 19.8474 33.9012 19.8591 33.871C20.1613 33.231 20.5103 32.605 20.9097 31.9981C24.0329 27.2507 29.6816 24.5069 36.023 24.6581C36.4901 24.6683 36.9403 24.7281 37.3716 24.8336C35.941 26.2084 34.7414 27.8244 33.8356 29.6154ZM36.0562 23.1835C32.5131 23.0989 29.2412 23.8083 26.3274 25.2916C23.6603 26.6494 21.4014 28.638 19.7816 31.0468C19.9486 24.1928 24.5594 20.3848 29.4938 19.6169C33.2132 19.0378 37.3111 20.2419 38.3986 23.6018C37.6626 23.3422 36.8776 23.2015 36.0562 23.1835Z" fill="white"/>
</svg>
