<svg width="80" height="80" viewBox="0 0 80 80" fill="none" xmlns="http://www.w3.org/2000/svg">
<path fill-rule="evenodd" clip-rule="evenodd" d="M40 0C62.09 0 80 17.91 80 40C80 62.09 62.09 80 40 80C17.91 80 0 62.09 0 40C0 17.91 17.91 0 40 0Z" fill="#5271FF" fill-opacity="0.2"/>
<path d="M40.0014 74.5599C59.0884 74.5599 74.5614 59.0869 74.5614 39.9999C74.5614 20.913 59.0884 5.43994 40.0014 5.43994C20.9144 5.43994 5.44141 20.913 5.44141 39.9999C5.44141 59.0869 20.9144 74.5599 40.0014 74.5599Z" fill="#5271FF"/>
<path d="M40.0004 33.2057C39.4064 33.2057 38.9248 32.7423 38.9248 32.1706V31.4194C38.9248 30.8476 39.4065 30.3842 40.0004 30.3842C40.5944 30.3842 41.0761 30.8476 41.0761 31.4194V32.1706C41.0761 32.7423 40.5944 33.2057 40.0004 33.2057Z" fill="white"/>
<path d="M50.7494 20.9667L50.1406 20.3808L50.546 19.9906C50.9661 19.5864 50.9661 18.9309 50.546 18.5267C50.1259 18.1225 49.445 18.1225 49.0248 18.5267L48.6194 18.9169L48.0107 18.3311C47.5905 17.9268 46.9096 17.9268 46.4894 18.3311C46.0694 18.7353 46.0694 19.3908 46.4894 19.7951L47.0981 20.3809L45.6593 21.7656L45.0505 21.1797C44.6304 20.7755 43.9495 20.7755 43.5293 21.1797C43.1092 21.5839 43.1092 22.2394 43.5293 22.6437L44.1381 23.2296L42.6993 24.6144L42.0906 24.0286C41.6706 23.6243 40.9897 23.6243 40.5695 24.0286C40.1494 24.4328 40.1494 25.0883 40.5695 25.4925L41.1783 26.0784L41.0029 26.2471C40.5829 26.6513 40.5829 27.3068 41.0029 27.711C41.213 27.9132 41.4883 28.0142 41.7635 28.0142C42.0389 28.0142 42.314 27.9131 42.5241 27.711L42.6993 27.5424L43.308 28.1282C43.5181 28.3304 43.7933 28.4314 44.0686 28.4314C44.3438 28.4314 44.6191 28.3303 44.8292 28.1282C45.2492 27.724 45.2492 27.0685 44.8292 26.6643L44.2204 26.0784L45.6592 24.6937L46.2679 25.2794C46.478 25.4816 46.7533 25.5826 47.0285 25.5826C47.3038 25.5826 47.579 25.4816 47.7891 25.2794C48.2091 24.8752 48.2091 24.2198 47.7891 23.8154L47.1804 23.2296L48.6192 21.8449L49.228 22.4308C49.438 22.633 49.7133 22.734 49.9885 22.734C50.2638 22.734 50.539 22.633 50.7491 22.4308C51.1695 22.0265 51.1695 21.3709 50.7494 20.9667Z" fill="white"/>
<path d="M33.5766 16.0703C33.1279 16.0703 32.7141 15.7907 32.5639 15.3838C32.416 14.9834 32.5411 14.5208 32.88 14.2462C33.2345 13.9588 33.7496 13.923 34.1441 14.1567C34.5202 14.3797 34.7178 14.8206 34.6307 15.237C34.5308 15.7144 34.084 16.0703 33.5766 16.0703Z" fill="white"/>
<path d="M58.9397 40.4158C58.6382 38.416 58.1491 35.6313 57.3386 33.684C57.3356 33.6766 57.3323 33.6694 57.3292 33.662C56.2479 31.0027 55.1911 19.2709 54.8742 14.9621C54.8344 14.4202 54.366 14 53.8014 14H38.3563C37.7623 14 37.2806 14.4634 37.2806 15.0352C37.2806 15.6069 37.7623 16.0703 38.3563 16.0703H52.8025C53.0532 19.2289 53.9018 29.1502 54.9725 33.2939L43.7076 35.633C40.4857 36.1983 39.5056 36.1983 36.2837 35.6331L25.02 33.2942C26.0934 29.1491 26.9393 19.2287 27.1891 16.0704H28.8602C29.4542 16.0704 29.9358 15.607 29.9358 15.0353C29.9358 14.4635 29.4542 14.0001 28.8602 14.0001H26.1899C25.6252 14.0001 25.1567 14.4204 25.1169 14.9625C24.8017 19.2673 23.7493 30.9825 22.6654 33.6549C22.661 33.6645 22.6568 33.6742 22.6526 33.6841C21.8495 35.6133 21.3623 38.3635 21.06 40.3589C21.0212 40.4659 21 40.5808 21 40.7006C21 50.6819 28.0956 65.7578 28.3975 66.3946C28.5724 66.7634 28.9549 67 29.3762 67H50.6148C51.0319 67 51.4113 66.7679 51.5886 66.4046C51.8913 65.784 59 51.0866 59 40.7587C59.0002 40.6385 58.9477 40.4598 58.9397 40.4158ZM35.8805 37.6666C39.3805 38.2814 40.6111 38.2814 44.1108 37.6666C44.1221 37.6647 44.1333 37.6625 44.1446 37.6601L55.6427 35.2726C56.145 36.8031 56.4953 38.7238 56.6962 39.9725C53.8602 40.6944 50.9571 42.0274 48.2407 43.861C45.5646 45.6673 43.1761 47.874 41.3045 50.2652C40.6251 50.2749 39.3664 50.2749 38.687 50.2652C36.8154 47.874 34.4269 45.6673 31.7508 43.861C29.0345 42.0274 26.1313 40.6944 23.2953 39.9725C23.4962 38.7238 23.8465 36.8031 24.3489 35.2726L35.847 37.6601C35.858 37.6625 35.8693 37.6647 35.8805 37.6666ZM23.1983 42.0961C28.4011 43.5552 33.7984 47.2857 37.255 51.8843C37.5816 52.32 37.9567 52.3252 38.7039 52.3356C38.7717 52.3365 38.844 52.3374 38.9201 52.3382V64.9296H30.0764C28.8213 62.1611 23.7398 50.5002 23.1983 42.0961ZM49.9222 64.9296H41.0713V52.3381C41.1474 52.3374 41.2197 52.3364 41.2875 52.3355C42.0346 52.3251 42.4098 52.3199 42.7363 51.8842C46.1972 47.2805 51.6013 43.5477 56.8085 42.0917C56.3017 50.7227 51.1867 62.2069 49.9222 64.9296Z" fill="white"/>
</svg>
