<svg width="80" height="80" viewBox="0 0 80 80" fill="none" xmlns="http://www.w3.org/2000/svg">
<path fill-rule="evenodd" clip-rule="evenodd" d="M40 0C62.09 0 80 17.91 80 40C80 62.09 62.09 80 40 80C17.91 80 0 62.09 0 40C0 17.91 17.91 0 40 0Z" fill="#5271FF" fill-opacity="0.2"/>
<path d="M40.0014 74.5599C59.0884 74.5599 74.5614 59.0869 74.5614 39.9999C74.5614 20.913 59.0884 5.43994 40.0014 5.43994C20.9144 5.43994 5.44141 20.913 5.44141 39.9999C5.44141 59.0869 20.9144 74.5599 40.0014 74.5599Z" fill="#5271FF"/>
<path d="M15.9279 56.5164H64.0718C64.3298 56.5164 64.5637 56.6212 64.7249 56.7825C64.8942 56.9518 64.9991 57.1856 64.9991 57.4356C64.9991 57.6936 64.8942 57.9274 64.7249 58.0887C64.5637 58.258 64.3298 58.3628 64.0718 58.3628H15.9279C15.6698 58.3628 15.436 58.258 15.2748 58.0887C15.1054 57.9274 15.0006 57.6936 15.0006 57.4356C15.0006 57.1856 15.1054 56.9518 15.2748 56.7825C15.436 56.6212 15.6698 56.5164 15.9279 56.5164ZM39.0928 27.9171L37.3754 25.0547C37.2463 24.8289 37.2222 24.579 37.2786 24.3532C37.335 24.1194 37.4802 23.9178 37.6979 23.7888C37.9156 23.6518 38.1736 23.6276 38.3993 23.684C38.6251 23.7404 38.8347 23.8856 38.9638 24.1033L40.1248 26.0465L41.2456 24.6274C41.4068 24.4258 41.6326 24.3049 41.8664 24.2807C42.1002 24.2565 42.3421 24.3129 42.5437 24.4742C42.7453 24.6354 42.8582 24.8612 42.8904 25.095C42.9146 25.3289 42.8501 25.5707 42.6969 25.7723L40.9392 27.9896V34.2949C40.9392 34.4723 40.9795 34.6416 41.0521 34.7948C41.1246 34.948 41.2375 35.085 41.3746 35.1899L43.3903 36.7621C43.5919 36.9234 43.7128 37.1492 43.7451 37.383C43.7693 37.6168 43.7128 37.8587 43.5516 38.0603C43.4629 38.1732 43.35 38.2618 43.2291 38.3264C43.1001 38.3828 42.963 38.415 42.8259 38.415C42.7211 38.415 42.6243 38.3989 42.5276 38.3667C42.4308 38.3344 42.3421 38.286 42.2534 38.2215L40.2377 36.6493C39.8749 36.359 39.5846 36.0042 39.3911 35.6011C39.1976 35.206 39.0928 34.7545 39.0928 34.2949V27.9171ZM48.2281 34.2142C48.1152 34.2626 47.9943 34.2868 47.8733 34.2868C47.7524 34.2868 47.6314 34.2626 47.5186 34.2142C47.4057 34.1659 47.3089 34.1014 47.2202 34.0127C47.0348 33.8353 46.9461 33.5934 46.9461 33.3596C46.9461 33.1257 47.0348 32.8839 47.2202 32.7065L48.9538 30.9729L48.2604 27.5542C48.1717 27.1269 48.1797 26.6996 48.2765 26.2883C48.3652 25.8771 48.5506 25.4901 48.8086 25.1434L51.2033 22.015C51.3646 21.8134 51.5823 21.6925 51.8161 21.6602C52.0499 21.628 52.2999 21.6844 52.5015 21.8376C52.703 21.9988 52.824 22.2165 52.8562 22.4504C52.8885 22.6842 52.8321 22.9342 52.6789 23.1357C52.4692 23.5711 50.7034 25.7078 50.2761 26.2642C50.1793 26.3932 50.1068 26.5464 50.0745 26.6996C50.0342 26.8608 50.0342 27.0221 50.0665 27.1833L50.8083 30.8278L52.6063 32.7226C52.7837 32.908 52.8724 33.1499 52.8643 33.3838C52.8562 33.6176 52.7595 33.8514 52.574 34.0288C52.4934 34.1094 52.3886 34.1739 52.2838 34.2142C52.1709 34.2626 52.058 34.2868 51.9371 34.2868C51.8161 34.2868 51.6952 34.2546 51.5742 34.2062C51.4613 34.1578 51.3565 34.0933 51.2678 33.9965L49.9375 32.5936L48.5264 34.0127C48.4377 34.1014 48.3329 34.1659 48.2281 34.2142ZM58.5971 48.2519L64.2492 49.6306C64.4992 49.679 64.7088 49.8241 64.8378 50.0177C64.9749 50.2112 65.0313 50.4611 64.9829 50.7111C64.9346 50.961 64.7894 51.1707 64.5959 51.2997C64.4024 51.4367 64.1525 51.4932 63.9025 51.4448C62.7576 51.4448 59.734 50.3482 58.2584 50.066C57.6053 49.9451 56.9522 49.8886 56.3072 49.9048C55.6541 49.9209 55.0091 50.0015 54.364 50.1547L47.2928 51.8238C46.8735 51.9205 46.4462 52.0011 46.0189 52.0495C45.5915 52.0979 45.1561 52.1221 44.7207 52.1221C44.2773 52.1221 43.8338 52.0979 43.3984 52.0495C42.963 51.9931 42.5276 51.9205 42.1002 51.8157L35.6096 50.2515C35.4806 50.2192 35.3515 50.195 35.2145 50.1628C35.0855 50.1386 34.9484 50.1144 34.8194 50.0983C34.5694 50.058 34.3517 49.9209 34.2147 49.7274C34.0695 49.5419 34.005 49.292 34.0453 49.042C34.0776 48.7921 34.2147 48.5824 34.4082 48.4373C34.6017 48.3002 34.8436 48.2277 35.0935 48.268C35.2548 48.2922 35.408 48.3164 35.5692 48.3486C35.7224 48.3809 35.8837 48.4131 36.0369 48.4534L42.5276 50.0177C43.2371 50.187 43.9709 50.2757 44.6965 50.2757C45.4303 50.2757 46.164 50.195 46.8735 50.0257L53.9367 48.3567C54.7027 48.1712 55.4848 48.0745 56.2588 48.0583C57.0409 48.0422 57.823 48.1067 58.5971 48.2519ZM15.4763 47.9455C15.686 47.8245 15.9359 47.7923 16.1778 47.8648L20.3061 49.8241C20.5076 49.8806 20.7173 49.937 20.9269 49.9773C21.072 50.0096 21.2172 50.0338 21.3542 50.058C21.2252 49.6548 21.201 49.2678 21.2736 48.905C21.3542 48.4292 21.5881 48.0019 21.9106 47.6552L28.3045 41.2613C28.6593 40.8904 29.1431 40.6807 29.6349 40.6162C30.1348 40.5437 30.6508 40.6243 31.0379 40.8339L34.6662 37.1975C34.5211 36.9798 34.384 36.7541 34.2469 36.5283C34.1179 36.2945 33.9889 36.0526 33.868 35.8188H15.9279C15.6698 35.8188 15.436 35.714 15.2748 35.5446C15.1054 35.3753 15.0006 35.1495 15.0006 34.8915C15.0006 34.6416 15.1054 34.4078 15.2748 34.2384C15.436 34.0691 15.6698 33.9724 15.9279 33.9724H33.0939C32.8682 33.2789 32.6908 32.5775 32.5779 31.8679C32.4569 31.1342 32.4005 30.3924 32.4005 29.6425H27.2483V31.2713C27.2483 31.5293 27.1434 31.7631 26.9741 31.9244C26.8048 32.0937 26.579 32.1985 26.321 32.1985C26.063 32.1985 25.8372 32.0937 25.6679 31.9244C25.4986 31.7631 25.3938 31.5293 25.3938 31.2713V26.0061C25.3938 25.7562 25.4986 25.5224 25.6679 25.353C25.8372 25.1837 26.063 25.087 26.321 25.087C26.579 25.087 26.8048 25.1837 26.9741 25.353C27.1434 25.5224 27.2483 25.7562 27.2483 26.0061V27.7961H32.5214C32.715 26.3609 33.1342 24.9499 33.7873 23.6276C34.4324 22.3133 35.2951 21.0797 36.3836 19.9912C39.0444 17.3304 42.5437 16 46.035 16C49.5343 16 53.0336 17.3304 55.6944 19.9912C57.5731 21.8698 58.7825 24.1678 59.3389 26.5786C59.8952 29.0217 59.7743 31.5857 58.9841 33.9724H64.0718C64.3298 33.9724 64.5637 34.0691 64.7249 34.2384C64.8942 34.4078 64.9991 34.6416 64.9991 34.8915C64.9991 35.1495 64.8942 35.3753 64.7249 35.5446C64.5637 35.714 64.3298 35.8188 64.0718 35.8188H58.2181C57.9037 36.4396 57.5328 37.0443 57.1135 37.6168C56.6942 38.2054 56.2185 38.7698 55.6944 39.2939C54.4043 40.584 52.9046 41.5838 51.2678 42.2611C49.6311 42.9384 47.8653 43.2931 46.043 43.2931C44.5998 43.2931 43.1968 43.0754 41.8664 42.6481C40.5602 42.2288 39.3266 41.616 38.1978 40.8178L34.6098 44.4058C34.8275 44.8412 34.9081 45.325 34.8436 45.7927C34.7791 46.2845 34.5533 46.7602 34.1744 47.1392L27.7885 53.525C27.5627 53.7508 27.3047 53.9201 27.0306 54.033C26.7403 54.154 26.4339 54.2104 26.1275 54.2104C25.8211 54.2104 25.5147 54.154 25.2245 54.033C24.9503 53.9201 24.6923 53.7508 24.4665 53.525L22.9749 52.0334C22.4831 52.0415 21.9428 52.0011 21.4268 51.9366C20.8382 51.856 20.2657 51.7351 19.7981 51.598L15.6698 49.6387C15.428 49.5661 15.2344 49.4049 15.1135 49.1952C15.0006 48.9937 14.9684 48.7437 15.0329 48.5018L15.0409 48.4938C15.1054 48.2519 15.2748 48.0583 15.4763 47.9455ZM41.5117 18.7414C40.1248 19.3139 38.8267 20.1686 37.6979 21.2974C35.3919 23.6034 34.2469 26.6189 34.2469 29.6425C34.2469 32.6662 35.3919 35.6898 37.6979 37.9877C38.8186 39.1004 40.1168 39.9631 41.5278 40.5517C42.9469 41.1403 44.4708 41.4467 46.043 41.4467C46.7606 41.4467 47.4621 41.3822 48.1475 41.2613C48.7603 41.1484 49.3569 40.9871 49.9455 40.7856L48.0023 39.4068C47.8008 39.2536 47.6718 39.0359 47.6314 38.8021C47.5911 38.5682 47.6395 38.3264 47.7927 38.1167C47.9378 37.9071 48.1555 37.7781 48.3894 37.7378C48.6232 37.6974 48.8731 37.7539 49.0747 37.899L51.8806 39.9067C52.3241 39.6487 52.7514 39.3665 53.1626 39.0601C53.59 38.7376 53.9931 38.3747 54.3882 37.9877C56.6861 35.6898 57.8392 32.6662 57.8392 29.6425C57.8392 26.6189 56.6861 23.6034 54.3882 21.2974C53.2594 20.1686 51.9532 19.3219 50.5664 18.7414C49.1231 18.1447 47.5831 17.8464 46.043 17.8464C44.4949 17.8464 42.9549 18.1447 41.5117 18.7414ZM35.8595 38.7295L35.8031 38.6731L32.4247 42.0595L33.3842 43.019L36.7545 39.6487C36.2788 39.1972 36.1014 38.9956 35.8595 38.7295ZM29.6027 42.5755L23.2329 48.9533C22.9749 49.3081 23.12 49.5177 23.2087 49.6387L23.2329 49.679L25.7727 52.2188C25.8695 52.3156 25.9985 52.364 26.1275 52.364C26.2565 52.364 26.3855 52.3156 26.4823 52.2188L32.8682 45.833C33.1181 45.4782 32.973 45.2686 32.8843 45.1476L32.8601 45.1073L30.3283 42.5755C29.9735 42.3175 29.7639 42.4707 29.643 42.5513L29.6027 42.5755ZM18.6048 29.6425H15.9279C15.6698 29.6425 15.436 29.5458 15.2748 29.3765C15.1054 29.2071 15.0006 28.9733 15.0006 28.7234C15.0006 28.4653 15.1054 28.2315 15.2748 28.0703C15.436 27.9009 15.6698 27.7961 15.9279 27.7961H18.6048V26.0061C18.6048 25.1273 18.7257 24.2484 18.9595 23.4018C19.1934 22.5633 19.5481 21.7489 20.0077 20.991C20.7011 19.8541 21.58 18.556 22.1847 17.403C22.3218 17.1853 22.5314 17.0401 22.7572 16.9837C22.991 16.9272 23.241 16.9595 23.4587 17.0966C23.6764 17.2256 23.8215 17.4352 23.8779 17.669C23.9344 17.8948 23.9021 18.1447 23.7651 18.3624C23.0878 19.5558 22.3057 20.7733 21.58 21.9505C21.2172 22.5633 20.9269 23.2244 20.7415 23.9017C20.5479 24.5871 20.4512 25.2885 20.4512 26.0061V27.7961H22.4911C22.7491 27.7961 22.9749 27.9009 23.1442 28.0703C23.3135 28.2315 23.4184 28.4653 23.4184 28.7234C23.4184 28.9733 23.3135 29.2071 23.1442 29.3765C22.9749 29.5458 22.7491 29.6425 22.4911 29.6425H20.4512V31.2713C20.4512 31.5293 20.3464 31.7631 20.177 31.9244C20.0077 32.0937 19.782 32.1985 19.5239 32.1985C19.2659 32.1985 19.0402 32.0937 18.8708 31.9244C18.7015 31.7631 18.6048 31.5293 18.6048 31.2713V29.6425ZM64.0718 29.6425H62.435C62.177 29.6425 61.9513 29.5377 61.7819 29.3765C61.6126 29.2071 61.5078 28.9733 61.5078 28.7234C61.5078 28.4653 61.6126 28.2315 61.7819 28.0703C61.9513 27.9009 62.177 27.7961 62.435 27.7961H64.0718C64.3298 27.7961 64.5637 27.9009 64.7249 28.0703C64.8942 28.2315 64.9991 28.4653 64.9991 28.7234C64.9991 28.9733 64.8942 29.2071 64.7249 29.3765C64.5637 29.5458 64.3298 29.6425 64.0718 29.6425Z" fill="white"/>
</svg>
