<svg width="80" height="80" viewBox="0 0 80 80" fill="none" xmlns="http://www.w3.org/2000/svg">
<path fill-rule="evenodd" clip-rule="evenodd" d="M40 0C62.09 0 80 17.91 80 40C80 62.09 62.09 80 40 80C17.91 80 0 62.09 0 40C0 17.91 17.91 0 40 0Z" fill="#5271FF" fill-opacity="0.2"/>
<path d="M40.0014 74.5599C59.0884 74.5599 74.5614 59.0869 74.5614 39.9999C74.5614 20.913 59.0884 5.43994 40.0014 5.43994C20.9144 5.43994 5.44141 20.913 5.44141 39.9999C5.44141 59.0869 20.9144 74.5599 40.0014 74.5599Z" fill="#5271FF"/>
<path d="M54.0727 21.7C58.0091 24.6545 61.0182 28.8545 62.4727 33.8C64.2636 33.8273 65.8727 34.5727 67.0545 35.7455C68.2545 36.9545 69 38.6091 69 40.4455C69 42.2727 68.2545 43.9364 67.0545 45.1364C65.8818 46.3091 64.2727 47.0545 62.4909 47.0909C61.4909 50.4727 59.7727 53.5273 57.4727 56.0818C55.1545 58.6455 52.2455 60.7182 48.8818 62.1C46.0455 63.2727 43.0364 63.7 40.2455 63.7091C36.4091 63.7182 33 62.9182 31.1273 62.1455C27.8727 60.8 25.0091 58.7 22.7 56.1364C20.3364 53.5091 18.5545 50.4 17.5091 47.0909C15.7273 47.0545 14.1182 46.3091 12.9455 45.1364C11.7455 43.9364 11 42.2727 11 40.4455C11 38.6182 11.7455 36.9545 12.9455 35.7455C14.1273 34.5727 15.7364 33.8364 17.5182 33.8C17.8455 32.6909 18.2545 31.6091 18.7455 30.5636C19.2455 29.4818 19.8364 28.4364 20.5 27.4273C20.6727 27.1818 20.9273 27.0182 21.2 26.9636C21.4727 26.9091 21.7636 26.9636 22.0182 27.1273V27.1364C22.2727 27.3 22.4273 27.5545 22.4818 27.8273C22.5364 28.1 22.4818 28.3909 22.3182 28.6455C21.5273 29.8364 20.8636 31.0909 20.3273 32.3909C19.8182 33.6364 19.4273 34.9273 19.1545 36.2545H19.2818C20.5545 36.2455 21.7727 35.8818 22.8091 35.2273C23.8455 34.5818 24.7182 33.6364 25.3 32.4727C25.5091 32.0636 25.6273 31.7818 25.7545 31.4727C25.8636 31.2 25.9818 30.9182 26.1727 30.5L25.2636 29.5909C25.0545 29.3727 24.9455 29.1 24.9455 28.8182C24.9455 28.5364 25.0545 28.2545 25.2636 28.0455C25.4818 27.8273 25.7545 27.7273 26.0364 27.7273C26.3182 27.7273 26.5909 27.8273 26.8091 28.0455L27.7636 29C28.0364 28.9 28.2545 28.8091 28.4636 28.7273C30.5091 27.9091 32.7636 27.0182 36.1182 26.5455C38.4182 26.2182 40.7455 26.1909 43.0455 26.4455C45.3455 26.6909 47.6091 27.2364 49.7818 28.0455C50.8545 28.4455 51.8273 29.0455 52.6545 29.7909C53.4909 30.5455 54.1818 31.4455 54.7 32.4727C55.2818 33.6364 56.1545 34.5818 57.2091 35.2364C58.2545 35.8909 59.4818 36.2545 60.7636 36.2545H60.8455C59.8727 31.3364 57.2364 27.0818 53.5727 24.0455C49.8818 21 45.1455 19.1909 40 19.1909C37.0364 19.1909 34.1727 19.7818 31.5545 20.9182C28.9273 22.0545 26.5364 23.7273 24.5091 25.8909C24.3 26.1091 24.0273 26.2273 23.7455 26.2364C23.4727 26.2455 23.1818 26.1455 22.9636 25.9364C22.7455 25.7273 22.6273 25.4545 22.6182 25.1727C22.6091 24.9 22.7091 24.6182 22.9182 24.3909C25.1545 22.0091 27.8091 20.1727 30.6909 18.9273C33.6091 17.6545 36.7727 17 40 17C45.2273 17 50.1182 18.7273 54.0727 21.7ZM48.1727 42.1455C48.3727 41.9545 48.6455 41.8273 48.9455 41.8273C49.2455 41.8273 49.5182 41.9545 49.7182 42.1455C49.9182 42.3455 50.0364 42.6182 50.0364 42.9182V43.7818C50.0364 44.0909 49.9182 44.3636 49.7182 44.5545C49.5182 44.7545 49.2455 44.8818 48.9455 44.8818C48.6455 44.8818 48.3727 44.7545 48.1727 44.5545C47.9727 44.3636 47.8545 44.0909 47.8545 43.7818V42.9182C47.8545 42.6182 47.9727 42.3455 48.1727 42.1455ZM30.2818 42.1455C30.4818 41.9545 30.7545 41.8273 31.0545 41.8273C31.3545 41.8273 31.6273 41.9545 31.8273 42.1455C32.0273 42.3455 32.1455 42.6182 32.1455 42.9182V43.7818C32.1455 44.0909 32.0273 44.3636 31.8273 44.5545C31.6273 44.7545 31.3545 44.8818 31.0545 44.8818C30.7545 44.8818 30.4818 44.7545 30.2818 44.5545C30.0818 44.3636 29.9636 44.0909 29.9636 43.7818V42.9182C29.9636 42.6182 30.0818 42.3455 30.2818 42.1455ZM42.7182 44.4364C42.7364 44.7182 42.6455 45 42.4455 45.2273C42.3455 45.3455 42.2455 45.4545 42.1273 45.5545C41.5273 46.0818 40.7636 46.3455 40 46.3455C39.2364 46.3455 38.4818 46.0818 37.8727 45.5545C37.7545 45.4545 37.6545 45.3455 37.5545 45.2273C37.3545 45 37.2636 44.7182 37.2818 44.4364C37.3 44.1636 37.4273 43.8909 37.6455 43.7L37.6545 43.6909C37.8818 43.4909 38.1727 43.4 38.4455 43.4273C38.7273 43.4455 39 43.5636 39.2 43.8C39.2364 43.8364 39.2636 43.8727 39.3 43.9C39.5 44.0727 39.7545 44.1636 40 44.1636C40.2455 44.1636 40.5 44.0727 40.7 43.9C40.7364 43.8727 40.7727 43.8364 40.8 43.8C41 43.5636 41.2727 43.4455 41.5545 43.4273C41.8273 43.4 42.1182 43.4909 42.3455 43.6909C42.5727 43.8909 42.7 44.1636 42.7182 44.4364ZM14.3364 43.4364C15.0091 44.1818 15.9364 44.7 16.9727 44.8545C16.8455 44.1727 16.7455 43.4818 16.6727 42.7818C16.6 42.0091 16.5545 41.2273 16.5545 40.4455C16.5545 39.6636 16.6 38.8909 16.6727 38.1091C16.7455 37.4091 16.8455 36.7182 16.9727 36.0273C15.9364 36.1909 15.0091 36.7091 14.3364 37.4545C13.6273 38.2455 13.1909 39.2909 13.1909 40.4455C13.1909 41.5909 13.6273 42.6364 14.3364 43.4364ZM23.1727 53.3909C24.3455 54.9182 25.7273 56.2909 27.2818 57.4636H29.4364C29.4636 57.4636 29.5 57.4636 29.5182 57.4636C29.7091 57.4364 29.8818 57.3455 30 57.2182C30.1273 57.0818 30.2 56.9 30.2 56.7C30.2 56.6727 30.2 56.6455 30.1909 56.6091C30.1727 56.4273 30.0727 56.2636 29.9364 56.1455C29.7909 56.0182 29.6 55.9455 29.3909 55.9455H28.9909C28.1727 55.9455 27.4182 55.6182 26.8818 55.0818C26.3364 54.5455 26 53.8091 26 53C26 52.1909 26.3273 51.4545 26.8636 50.9182C27.4 50.3818 28.1364 50.0545 28.9455 50.0545H31.3818C31.5909 50.0545 31.7818 49.9818 31.9273 49.8545C32.0727 49.7364 32.1727 49.5727 32.1909 49.3909C32.1909 49.3545 32.1909 49.3273 32.1909 49.3C32.1909 49.1 32.1182 48.9182 32 48.7818C31.8818 48.6545 31.7091 48.5636 31.5182 48.5364C31.4909 48.5364 31.4636 48.5364 31.4364 48.5364H20.3636C21.0818 50.2727 22.0273 51.9091 23.1727 53.3909ZM31.8364 58.4091C31.5091 58.8727 31.0455 59.2454 30.4909 59.4545C31.9091 60.1727 33.3909 60.7091 34.9 61.0818C36.5727 61.5 38.2818 61.7 40 61.7C40.2909 61.7 40.5636 61.6909 40.8364 61.6818C40.9909 61.6727 41.1545 61.6727 41.3182 61.6545C41.0455 61.3455 40.8091 60.9909 40.6273 60.6182C40.4 60.1455 40.2455 59.6364 40.1909 59.1C40.1727 58.9091 40.1636 58.7364 40.1636 58.5545C40.1636 57.3273 40.6273 56.2 41.3909 55.3545C42.1545 54.5 43.2182 53.9182 44.4273 53.7909C44.6 53.7727 44.7818 53.7545 44.9545 53.7545L49.8545 53.7636C50.5636 53.7455 51.2273 53.4636 51.7091 53C52.2 52.5364 52.5091 51.8909 52.5091 51.1455V51.0909C52.4909 50.3909 52.1818 49.7455 51.7 49.2909C51.2091 48.8273 50.5455 48.5364 49.8182 48.5364H48.6636C47.2273 48.5364 46.0273 47.9455 45.1909 47.0545C44.7636 46.6 44.4364 46.0727 44.2091 45.5C43.9818 44.9273 43.8636 44.3182 43.8636 43.7C43.8636 42.4909 44.3182 41.2545 45.3636 40.2818C46.3 39.4 46.7273 38.3091 46.7273 37.2727C46.7273 36.8 46.6364 36.3364 46.4727 35.9091C46.3091 35.4909 46.0727 35.1 45.7636 34.7727C45.1636 34.1273 44.3 33.7182 43.2455 33.7182H40.0727C38.8182 33.7182 37.6727 33.2636 36.8 32.5C35.9364 31.7364 35.3455 30.6727 35.2091 29.4636C35.1909 29.3364 35.1818 29.2091 35.1818 29.0818C35.1818 29.0273 35.1818 28.9727 35.1818 28.9182C32.7818 29.3727 31.2545 29.9727 29.1545 30.8C28.9 30.9091 28.6364 31.0091 28.2909 31.1455C28.0273 31.6727 27.8909 32.0091 27.7636 32.3273C27.6273 32.6545 27.5 32.9636 27.2545 33.4545C26.4818 34.9818 25.3364 36.2273 23.9636 37.0909C22.5818 37.9455 20.9818 38.4273 19.2909 38.4364H18.8364C18.8091 38.7455 18.7818 39.0545 18.7727 39.3636C18.7545 39.7182 18.7455 40.0727 18.7455 40.4455C18.7455 41.4727 18.8182 42.4909 18.9636 43.4818C19.1091 44.4636 19.3182 45.4182 19.5909 46.3545H31.4364C31.5455 46.3545 31.6545 46.3545 31.7636 46.3727C32.5 46.4545 33.1545 46.8091 33.6273 47.3273C34.0909 47.8545 34.3818 48.5455 34.3818 49.2909C34.3818 49.4 34.3727 49.5091 34.3636 49.6273C34.2818 50.3727 33.9182 51.0273 33.3818 51.4909C32.8545 51.9636 32.1545 52.2364 31.3818 52.2364H28.9455C28.7364 52.2364 28.5455 52.3273 28.4091 52.4636C28.2727 52.6 28.1818 52.7909 28.1818 53C28.1818 53.2182 28.2727 53.4 28.4091 53.5273C28.5636 53.6727 28.7818 53.7545 28.9909 53.7545H29.3909C30.1545 53.7545 30.8545 54.0364 31.3909 54.5091C31.9182 54.9727 32.2818 55.6273 32.3636 56.3727C32.4455 57.1182 32.2455 57.8364 31.8364 58.4091ZM43.1545 60.4182C43.5727 60.8182 44.1364 61.0818 44.7818 61.1545C49.6 60.0455 53.6909 57.3364 56.6 53.6909C59.5364 49.9909 61.2545 45.3455 61.2545 40.4455C61.2545 40.0727 61.2455 39.7091 61.2273 39.3545C61.2091 39.0455 61.1909 38.7455 61.1636 38.4364H60.7636C59.0636 38.4364 57.4455 37.9636 56.0545 37.1C54.6727 36.2364 53.5182 34.9909 52.7455 33.4545C52.3545 32.6727 51.8273 31.9909 51.2 31.4182C50.5727 30.8545 49.8455 30.4091 49.0455 30.1L49.0182 30.0909C47.1455 29.3909 45.2 28.9091 43.2273 28.6636C41.2909 28.4182 39.3273 28.3909 37.3818 28.5909C37.3727 28.6727 37.3636 28.7545 37.3636 28.8455C37.3636 28.9636 37.3636 29.0909 37.3818 29.2273C37.4545 29.8727 37.7818 30.4455 38.2636 30.8636C38.7455 31.2818 39.3909 31.5364 40.0727 31.5364H43.2455C44.9545 31.5364 46.3545 32.2091 47.3455 33.2636C47.8455 33.8 48.2364 34.4273 48.5 35.1091C48.7636 35.7909 48.9091 36.5364 48.9091 37.2909C48.9091 38.8818 48.2727 40.5455 46.8545 41.8727C46.3364 42.3636 46.0727 43 46.0455 43.6364C46.0182 44.3 46.2545 44.9636 46.7091 45.4818C47.5273 46.3909 48.4818 46.3727 49.4364 46.3545C49.5818 46.3545 49.7364 46.3545 49.8182 46.3545C51.1364 46.3545 52.3455 46.8727 53.2182 47.7273C54.1 48.5727 54.6636 49.7545 54.6909 51.0455V51.1455C54.6909 52.5 54.1364 53.6818 53.2636 54.5364C52.3818 55.3909 51.1909 55.9182 49.9 55.9455H49.8H44.9545C44.8545 55.9455 44.7636 55.9545 44.6727 55.9636C44.0273 56.0273 43.4455 56.3364 43.0273 56.8C42.6 57.2545 42.3455 57.8727 42.3455 58.5545C42.3455 58.6545 42.3455 58.7545 42.3636 58.8545C42.4273 59.4545 42.7091 60.0091 43.1545 60.4182ZM63.3273 42.7818C63.2545 43.4818 63.1636 44.1727 63.0273 44.8545C64.0636 44.7 64.9909 44.1818 65.6636 43.4364C66.3727 42.6364 66.8091 41.5909 66.8091 40.4455C66.8091 39.2909 66.3727 38.2455 65.6636 37.4545C64.9818 36.7091 64.0636 36.1909 63.0182 36.0273C63.1545 36.7273 63.2545 37.4273 63.3273 38.1182C63.4 38.9091 63.4455 39.6818 63.4455 40.4455C63.4455 41.2273 63.4 42.0091 63.3273 42.7818Z" fill="white"/>
</svg>
