<svg width="80" height="80" viewBox="0 0 80 80" fill="none" xmlns="http://www.w3.org/2000/svg">
<path fill-rule="evenodd" clip-rule="evenodd" d="M40 0C62.09 0 80 17.91 80 40C80 62.09 62.09 80 40 80C17.91 80 0 62.09 0 40C0 17.91 17.91 0 40 0Z" fill="#8C52FF" fill-opacity="0.2"/>
<path d="M40.0014 74.5594C59.0884 74.5594 74.5614 59.0864 74.5614 39.9995C74.5614 20.9125 59.0884 5.43945 40.0014 5.43945C20.9144 5.43945 5.44141 20.9125 5.44141 39.9995C5.44141 59.0864 20.9144 74.5594 40.0014 74.5594Z" fill="#8C52FF"/>
<path d="M47.2185 26.6126C47.1985 26.5926 47.1785 26.5826 47.1685 26.5626L47.1185 26.5226C46.5185 26.0226 45.6285 26.0626 45.0785 26.6126L34.7785 36.9026C34.4185 37.2726 34.4185 37.8626 34.7785 38.2226L39.2185 42.6626C39.5785 43.0226 40.1685 43.0226 40.5385 42.6626L50.8285 32.3626C51.3885 31.8026 51.4185 30.9026 50.8985 30.3026L47.2185 26.6126ZM39.8785 40.6826L36.7585 37.5726L46.1485 28.1826L49.2685 31.2926L39.8785 40.6826Z" fill="white"/>
<path d="M54.44 24.3225L60.16 18.6026C60.54 18.2426 60.54 17.6426 60.17 17.2726C59.8 16.9026 59.2 16.9126 58.84 17.2826L53.12 23.0026L52.94 22.8225C51.94 21.8225 50.31 21.8225 49.3 22.8225L48.41 23.7126C46.62 22.7026 44.38 23.0026 42.92 24.4526L26.79 40.5726L26.33 40.1125C25.49 39.2725 24.14 39.2725 23.3 40.1125L22.2 41.2126C21.37 42.0526 21.37 43.4025 22.2 44.2425L25.09 47.1226L21.65 50.5625L19.91 48.8226C18.87 47.7826 17.18 47.7826 16.14 48.8226L15.78 49.1826C14.74 50.2226 14.74 51.9125 15.78 52.9525L24.49 61.6726C24.99 62.1626 25.67 62.4526 26.38 62.4526C27.08 62.4526 27.76 62.1626 28.26 61.6726L28.62 61.3026C29.66 60.2626 29.66 58.5826 28.62 57.5326L26.88 55.7925L30.32 52.3625L33.21 55.2425C34.04 56.0826 35.4 56.0826 36.23 55.2425L37.34 54.1426C38.17 53.3026 38.17 51.9525 37.34 51.1125L36.87 50.6525L52.99 34.5326C54.44 33.0726 54.74 30.8226 53.73 29.0326L54.62 28.1426C55.63 27.1426 55.63 25.5026 54.62 24.5026L54.44 24.3225ZM27.3 59.9826L26.94 60.3526C26.62 60.6525 26.13 60.6525 25.81 60.3526L17.09 51.6325C16.78 51.3225 16.78 50.8126 17.09 50.5026L17.46 50.1426C17.77 49.8326 18.28 49.8326 18.59 50.1426L27.3 58.8526C27.61 59.1726 27.61 59.6726 27.3 59.9826ZM25.56 54.4826L22.97 51.8825L26.4 48.4426L29 51.0425L25.56 54.4826ZM36.02 52.8226L34.91 53.9226C34.81 54.0326 34.63 54.0326 34.52 53.9226L23.52 42.9226C23.41 42.8125 23.41 42.6326 23.52 42.5326L24.62 41.4226C24.73 41.3225 24.9 41.3225 25.01 41.4226L34.89 51.3125L36.02 52.4326C36.12 52.5426 36.12 52.7126 36.02 52.8226ZM51.63 24.1426L53.3 25.8225C53.58 26.0926 53.58 26.5525 53.3 26.8225L52.53 27.6026L49.85 24.9125L50.62 24.1426C50.9 23.8726 51.34 23.8726 51.63 24.1426ZM51.67 33.2126L35.55 49.3326L28.11 41.8926L44.24 25.7726C45.24 24.7726 46.83 24.7126 47.91 25.6326C47.96 25.6726 48.01 25.7226 48.06 25.7726L51.68 29.3826C51.72 29.4326 51.77 29.4826 51.81 29.5326C52.73 30.6126 52.67 32.2126 51.67 33.2126Z" fill="white"/>
<path d="M31.5198 41.2123C30.6398 40.3723 29.3498 41.6523 30.1998 42.5323L31.2998 43.6323C32.1798 44.4823 33.4698 43.1923 32.6198 42.3123L31.5198 41.2123Z" fill="white"/>
<path d="M33.6885 39.0427C32.8085 38.1627 31.4885 39.4827 32.3685 40.3626L33.4685 41.4627C33.8285 41.8227 34.4285 41.8227 34.7885 41.4627C35.1485 41.0927 35.1485 40.5027 34.7885 40.1427L33.6885 39.0427Z" fill="white"/>
<path d="M61.9666 22.6222C61.7766 22.4122 61.5166 22.2822 61.2266 22.2822C60.9466 22.2822 60.6766 22.4122 60.4966 22.6222C59.8466 23.4522 57.7266 26.2922 57.7266 27.9022C57.7466 29.8222 59.3066 31.3722 61.2266 31.3722C63.1466 31.3722 64.7166 29.8222 64.7366 27.9022C64.7366 26.2922 62.6166 23.4522 61.9666 22.6222ZM61.2266 29.5522C60.3266 29.5522 59.5866 28.8122 59.5866 27.9122C59.5866 27.3922 60.3466 26.0422 61.2266 24.7722C62.1166 26.0422 62.8766 27.3922 62.8766 27.9122C62.8666 28.8122 62.1366 29.5522 61.2266 29.5522Z" fill="white"/>
</svg>
