<svg width="80" height="80" viewBox="0 0 80 80" fill="none" xmlns="http://www.w3.org/2000/svg">
<path fill-rule="evenodd" clip-rule="evenodd" d="M40 0C62.09 0 80 17.91 80 40C80 62.09 62.09 80 40 80C17.91 80 0 62.09 0 40C0 17.91 17.91 0 40 0Z" fill="#8C52FF" fill-opacity="0.2"/>
<path d="M40.0014 74.5594C59.0884 74.5594 74.5614 59.0864 74.5614 39.9995C74.5614 20.9125 59.0884 5.43945 40.0014 5.43945C20.9144 5.43945 5.44141 20.9125 5.44141 39.9995C5.44141 59.0864 20.9144 74.5594 40.0014 74.5594Z" fill="#8C52FF"/>
<path d="M45.36 27.9H38.47C38.03 27.9 37.67 28.27 37.67 28.71C37.67 29.16 38.03 29.52 38.47 29.52H45.36C48.92 29.52 51.81 32.41 51.81 35.97V59.36C51.81 60.69 50.73 61.77 49.39 61.77H29.03C27.7 61.77 26.61 60.69 26.61 59.36V35.97C26.61 32.41 29.5 29.52 33.06 29.52H33.97C34.41 29.52 34.78 29.16 34.78 28.71C34.78 28.27 34.41 27.9 33.97 27.9V24.48C33.97 24.03 34.33 23.67 34.78 23.67H43.65C44.09 23.67 44.45 24.03 44.45 24.48V25.59C44.45 26.03 44.81 26.39 45.26 26.39C45.7 26.39 46.07 26.03 46.07 25.59V24.48C46.07 23.14 44.98 22.06 43.65 22.06H43.14V17.42C43.14 16.09 42.06 15 40.72 15H37.7C36.37 15 35.28 16.09 35.28 17.42V22.06H34.78C33.44 22.06 32.36 23.14 32.36 24.48V27.94C28.24 28.3 25 31.76 25 35.97V59.36C25 61.58 26.81 63.39 29.03 63.39H49.39C51.61 63.39 53.42 61.58 53.42 59.36V35.97C53.42 31.52 49.81 27.9 45.36 27.9ZM36.89 17.42C36.89 16.98 37.25 16.61 37.7 16.61H40.72C41.17 16.61 41.53 16.98 41.53 17.42V22.06H36.89V17.42ZM55.44 16.82C55.44 17.26 55.08 17.62 54.63 17.62H54.4C53.95 17.62 53.59 17.26 53.59 16.82C53.59 16.37 53.95 16.01 54.4 16.01H54.63C55.08 16.01 55.44 16.37 55.44 16.82ZM47.68 16.82C47.68 16.37 48.04 16.01 48.48 16.01H51.71C52.16 16.01 52.52 16.37 52.52 16.82C52.52 17.26 52.16 17.62 51.71 17.62H48.48C48.04 17.62 47.68 17.26 47.68 16.82ZM54.69 22.41C54.58 22.75 54.27 22.97 53.93 22.97C53.74 22.97 54.13 23.08 48.23 21.11C47.81 20.97 47.58 20.51 47.72 20.09C47.86 19.67 48.32 19.44 48.74 19.58L54.18 21.39C54.61 21.54 54.83 21.99 54.69 22.41ZM39.21 38.69C35.38 38.69 32.26 41.81 32.26 45.65C32.26 49.48 35.38 52.6 39.21 52.6C41.6 52.6 43.8 51.4 45.08 49.38C45.32 49 45.82 48.89 46.19 49.13C46.57 49.37 46.68 49.87 46.44 50.25C44.86 52.73 42.15 54.21 39.21 54.21C34.49 54.21 30.64 50.37 30.64 45.65C30.64 40.92 34.49 37.08 39.21 37.08C43.93 37.08 47.78 40.92 47.78 45.65C47.78 46.09 47.42 46.45 46.97 46.45C46.53 46.45 46.17 46.09 46.17 45.65C46.17 41.81 43.05 38.69 39.21 38.69ZM38.4 48.17V46.45H36.69C36.25 46.45 35.88 46.09 35.88 45.65C35.88 45.2 36.25 44.84 36.69 44.84H38.4V43.13C38.4 42.68 38.77 42.32 39.21 42.32C39.66 42.32 40.02 42.68 40.02 43.13V44.84H41.73C42.18 44.84 42.54 45.2 42.54 45.65C42.54 46.09 42.18 46.45 41.73 46.45H40.02V48.17C40.02 48.61 39.66 48.97 39.21 48.97C38.77 48.97 38.4 48.61 38.4 48.17Z" fill="white"/>
</svg>
