<svg width="80" height="80" viewBox="0 0 80 80" fill="none" xmlns="http://www.w3.org/2000/svg">
<path fill-rule="evenodd" clip-rule="evenodd" d="M40 0C62.09 0 80 17.91 80 40C80 62.09 62.09 80 40 80C17.91 80 0 62.09 0 40C0 17.91 17.91 0 40 0Z" fill="#8C52FF" fill-opacity="0.2"/>
<path d="M40.0014 74.5594C59.0884 74.5594 74.5614 59.0864 74.5614 39.9995C74.5614 20.9125 59.0884 5.43945 40.0014 5.43945C20.9144 5.43945 5.44141 20.9125 5.44141 39.9995C5.44141 59.0864 20.9144 74.5594 40.0014 74.5594Z" fill="#8C52FF"/>
<path d="M20.7315 45.0437H15.0458C14.7573 45.0437 14.4928 45.1639 14.3125 45.3442C14.1202 45.5366 14 45.801 14 46.0895V51.679C14 51.9675 14.1202 52.232 14.3125 52.4243C14.4928 52.6046 14.7573 52.7248 15.0458 52.7248H20.7315C20.8156 52.7248 20.8997 52.7128 20.9719 52.7008C21.056 52.6767 21.1281 52.6527 21.2003 52.6166L26.5734 49.924H29.2059L29.278 50.1765C30.444 53.7105 32.5476 57.557 35.3003 60.2977C37.524 62.5095 40.1806 64 43.0895 64C46.912 64 50.3739 61.4396 53.0064 57.8816C56.1678 53.6023 58.1512 47.9166 58.1992 43.4691C58.2113 42.9522 59.0286 40.1033 59.209 39.3941C60.8558 32.843 61 32.302 61 30.499C61 28.9604 60.7355 27.4578 60.2307 26.0274C59.7379 24.609 58.9926 23.2627 58.043 22.0726L57.9949 22.0125L57.9829 21.9404C57.5982 20.51 56.7448 19.2598 55.6028 18.3824C54.4849 17.5169 53.0905 17 51.5639 17H38.7621C35.0478 17 31.6701 18.5146 29.2299 20.9547C26.7898 23.3949 25.2752 26.7726 25.2752 30.499C25.2752 32.302 25.4074 32.843 27.0422 39.3581C27.2225 40.0552 28.0639 43.0003 28.0639 43.4691C28.076 44.0821 28.124 44.7312 28.1962 45.3803C28.2683 46.0414 28.3885 46.7266 28.5327 47.4118L28.6169 47.8445H26.5734L21.2003 45.1519C21.1281 45.1159 21.056 45.0918 20.9719 45.0678C20.8997 45.0558 20.8156 45.0437 20.7315 45.0437ZM40.5051 42.5795C40.1445 42.2189 39.5555 42.2189 39.1949 42.5795C38.2212 43.5532 36.6345 43.5532 35.6609 42.5795C35.3003 42.2189 34.6992 42.2189 34.3386 42.5795C33.978 42.9522 33.978 43.5412 34.3386 43.9018C35.1921 44.7552 36.31 45.176 37.4279 45.176C38.5458 45.176 39.6637 44.7552 40.5051 43.9018C40.8778 43.5412 40.8778 42.9522 40.5051 42.5795ZM48.7151 45.176C49.833 45.176 50.9389 44.7552 51.7923 43.9018C52.1529 43.5412 52.1529 42.9522 51.7923 42.5795C51.4317 42.2189 50.8427 42.2189 50.4821 42.5795C49.4964 43.5532 47.9217 43.5532 46.9481 42.5795C46.5755 42.2189 45.9864 42.2189 45.6258 42.5795C45.2652 42.9522 45.2652 43.5412 45.6258 43.9018C46.4793 44.7552 47.5972 45.176 48.7151 45.176ZM45.9744 53.1575L45.2171 52.5926C44.58 52.1118 43.7747 51.9795 43.0294 52.2079C42.2962 51.9795 41.4908 52.1118 40.8417 52.5926L40.0844 53.1575C39.856 53.3379 39.6997 53.6023 39.6757 53.9028C39.6517 54.1913 39.7478 54.4798 39.9522 54.6962L40.2407 55.0087C40.9499 55.79 41.9716 56.2348 43.0294 56.2348C44.0992 56.2348 45.109 55.79 45.8302 55.0087L46.1187 54.6962C46.323 54.4798 46.4192 54.1913 46.3951 53.9028C46.3591 53.6023 46.2148 53.3379 45.9744 53.1575ZM38.7621 19.1036H51.5639C52.8141 19.1036 53.956 19.6084 54.7734 20.4258C55.5908 21.2552 56.1077 22.3852 56.1077 23.6473C56.1077 24.8854 55.5908 26.0274 54.7734 26.8448C53.956 27.6742 52.8141 28.179 51.5639 28.179H43.0895C40.0604 28.179 37.2356 29.0806 34.8795 30.6432C32.4514 32.2419 30.5041 34.5378 29.3261 37.2545L28.9174 38.1921L28.665 37.1944C28.0639 34.7903 27.7394 33.468 27.5711 32.5785C27.3908 31.6529 27.3668 31.1962 27.3668 30.499C27.3668 27.3496 28.6529 24.5008 30.7084 22.4453C32.776 20.3778 35.6248 19.1036 38.7621 19.1036ZM55.2302 29.1767C56.2159 28.5156 57.0333 27.59 57.5501 26.5082L57.9107 25.7629L58.1872 26.5322C58.4276 27.1693 58.5959 27.8184 58.7161 28.4916C58.8363 29.1527 58.8964 29.8258 58.8964 30.499C58.8964 31.1962 58.8844 31.665 58.7041 32.5785C58.5238 33.48 58.1992 34.8023 57.5982 37.2184L57.3578 38.2041L56.9371 37.2785C56.5043 36.2928 55.9634 35.3432 55.3263 34.4657C54.7013 33.6003 53.968 32.7829 53.1506 32.0616C52.9343 31.8573 52.6939 31.6529 52.4414 31.4606C52.201 31.2683 51.9606 31.088 51.6962 30.9077L50.8668 30.3187L51.8765 30.2706C53.1146 30.2105 54.2565 29.8138 55.2302 29.1767ZM51.6721 56.1506C49.3642 59.4683 46.3471 61.9084 43.0895 61.9084C40.7335 61.9084 38.5698 60.6222 36.7307 58.7711C34.4107 56.4391 32.5957 53.1696 31.5739 50.4049L31.3936 49.924H34.2184C34.5069 49.924 34.7714 49.8159 34.9517 49.6235C35.144 49.4432 35.2522 49.1788 35.2522 48.8903C35.2522 48.5898 35.144 48.3253 34.9517 48.145C34.7593 47.9527 34.5069 47.8445 34.2184 47.8445H30.7685L30.7084 47.568C30.5281 46.8228 30.3959 46.0775 30.2997 45.3683C30.2156 44.6471 30.1675 43.9499 30.1675 43.3008C30.1675 39.7067 31.61 36.4491 33.954 34.0931C36.298 31.7371 39.5315 30.2826 43.0895 30.2826C46.335 30.2826 49.3762 31.5448 51.7082 33.6123C54.0281 35.6798 55.6389 38.5527 56.0115 41.7742L56.0836 42.5435L56.1077 43.3008C56.1077 47.1233 54.3647 52.256 51.6721 56.1506ZM20.4069 50.6332H16.0916V47.1353H20.479L23.977 48.8903L20.4911 50.6332H20.4069Z" fill="white"/>
</svg>
