<svg width="80" height="80" viewBox="0 0 80 80" fill="none" xmlns="http://www.w3.org/2000/svg">
<path fill-rule="evenodd" clip-rule="evenodd" d="M40 0C62.09 0 80 17.91 80 40C80 62.09 62.09 80 40 80C17.91 80 0 62.09 0 40C0 17.91 17.91 0 40 0Z" fill="#8C52FF" fill-opacity="0.2"/>
<path d="M40.0014 74.5594C59.0884 74.5594 74.5614 59.0864 74.5614 39.9995C74.5614 20.9125 59.0884 5.43945 40.0014 5.43945C20.9144 5.43945 5.44141 20.9125 5.44141 39.9995C5.44141 59.0864 20.9144 74.5594 40.0014 74.5594Z" fill="#8C52FF"/>
<path d="M45.36 26.9H38.47C38.03 26.9 37.67 27.27 37.67 27.71C37.67 28.16 38.03 28.52 38.47 28.52H45.36C48.92 28.52 51.81 31.41 51.81 34.97V58.36C51.81 59.69 50.73 60.77 49.39 60.77H29.03C27.7 60.77 26.61 59.69 26.61 58.36V34.97C26.61 31.41 29.5 28.52 33.06 28.52H33.97C34.41 28.52 34.78 28.16 34.78 27.71C34.78 27.27 34.41 26.9 33.97 26.9V23.48C33.97 23.03 34.33 22.67 34.78 22.67H43.65C44.09 22.67 44.45 23.03 44.45 23.48V24.59C44.45 25.03 44.81 25.39 45.26 25.39C45.7 25.39 46.07 25.03 46.07 24.59V23.48C46.07 22.14 44.98 21.06 43.65 21.06H43.14V16.42C43.14 15.09 42.06 14 40.72 14H37.7C36.37 14 35.28 15.09 35.28 16.42V21.06H34.78C33.44 21.06 32.36 22.14 32.36 23.48V26.94C28.24 27.3 25 30.76 25 34.97V58.36C25 60.58 26.81 62.39 29.03 62.39H49.39C51.61 62.39 53.42 60.58 53.42 58.36V34.97C53.42 30.52 49.81 26.9 45.36 26.9ZM36.89 16.42C36.89 15.98 37.25 15.61 37.7 15.61H40.72C41.17 15.61 41.53 15.98 41.53 16.42V21.06H36.89V16.42ZM55.44 15.82C55.44 16.26 55.08 16.62 54.63 16.62H54.4C53.95 16.62 53.59 16.26 53.59 15.82C53.59 15.37 53.95 15.01 54.4 15.01H54.63C55.08 15.01 55.44 15.37 55.44 15.82ZM47.68 15.82C47.68 15.37 48.04 15.01 48.48 15.01H51.71C52.16 15.01 52.52 15.37 52.52 15.82C52.52 16.26 52.16 16.62 51.71 16.62H48.48C48.04 16.62 47.68 16.26 47.68 15.82ZM54.69 21.41C54.58 21.75 54.27 21.97 53.93 21.97C53.74 21.97 54.13 22.08 48.23 20.11C47.81 19.97 47.58 19.51 47.72 19.09C47.86 18.67 48.32 18.44 48.74 18.58L54.18 20.39C54.61 20.54 54.83 20.99 54.69 21.41ZM39.21 37.69C35.38 37.69 32.26 40.81 32.26 44.65C32.26 48.48 35.38 51.6 39.21 51.6C41.6 51.6 43.8 50.4 45.08 48.38C45.32 48 45.82 47.89 46.19 48.13C46.57 48.37 46.68 48.87 46.44 49.25C44.86 51.73 42.15 53.21 39.21 53.21C34.49 53.21 30.64 49.37 30.64 44.65C30.64 39.92 34.49 36.08 39.21 36.08C43.93 36.08 47.78 39.92 47.78 44.65C47.78 45.09 47.42 45.45 46.97 45.45C46.53 45.45 46.17 45.09 46.17 44.65C46.17 40.81 43.05 37.69 39.21 37.69ZM38.4 47.17V45.45H36.69C36.25 45.45 35.88 45.09 35.88 44.65C35.88 44.2 36.25 43.84 36.69 43.84H38.4V42.13C38.4 41.68 38.77 41.32 39.21 41.32C39.66 41.32 40.02 41.68 40.02 42.13V43.84H41.73C42.18 43.84 42.54 44.2 42.54 44.65C42.54 45.09 42.18 45.45 41.73 45.45H40.02V47.17C40.02 47.61 39.66 47.97 39.21 47.97C38.77 47.97 38.4 47.61 38.4 47.17Z" fill="white"/>
</svg>
