<svg width="80" height="80" viewBox="0 0 80 80" fill="none" xmlns="http://www.w3.org/2000/svg">
<path fill-rule="evenodd" clip-rule="evenodd" d="M40 0C62.09 0 80 17.91 80 40C80 62.09 62.09 80 40 80C17.91 80 0 62.09 0 40C0 17.91 17.91 0 40 0Z" fill="#8C52FF" fill-opacity="0.2"/>
<path d="M40.0014 74.5594C59.0884 74.5594 74.5614 59.0864 74.5614 39.9995C74.5614 20.9125 59.0884 5.43945 40.0014 5.43945C20.9144 5.43945 5.44141 20.9125 5.44141 39.9995C5.44141 59.0864 20.9144 74.5594 40.0014 74.5594Z" fill="#8C52FF"/>
<path d="M60.4608 44.105L57.1 42.382V41H58.075C58.3336 41 58.5816 40.8946 58.7644 40.7071C58.9473 40.5196 59.05 40.2652 59.05 40V34C59.05 33.7348 58.9473 33.4804 58.7644 33.2929C58.5816 33.1054 58.3336 33 58.075 33H49.3V30C49.2985 28.6744 48.7843 27.4036 47.8704 26.4662C46.9565 25.5289 45.7175 25.0016 44.425 25V23H45.4C45.6586 23 45.9066 22.8946 46.0894 22.7071C46.2723 22.5196 46.375 22.2652 46.375 22V16C46.375 15.7348 46.2723 15.4804 46.0894 15.2929C45.9066 15.1054 45.6586 15 45.4 15H25.9C25.6414 15 25.3934 15.1054 25.2106 15.2929C25.0277 15.4804 24.925 15.7348 24.925 16V22C24.925 22.2652 25.0277 22.5196 25.2106 22.7071C25.3934 22.8946 25.6414 23 25.9 23H26.875V25C25.5825 25.0016 24.3435 25.5289 23.4296 26.4662C22.5157 27.4036 22.0015 28.6744 22 30V58C22.0015 59.3256 22.5157 60.5964 23.4296 61.5338C24.3435 62.4711 25.5825 62.9984 26.875 63H58.075C58.8508 63 59.5947 62.6839 60.1433 62.1213C60.6918 61.5587 61 60.7957 61 60V45C61.0001 44.8142 60.9497 44.632 60.8544 44.4739C60.7592 44.3158 60.6229 44.1881 60.4608 44.105ZM47.35 35H49.3V37H51.25V35H53.2V37H55.15V35H57.1V39H43.45V35H45.4V37H47.35V35ZM26.875 17H28.825V19H30.775V17H32.725V19H34.675V17H36.625V19H38.575V17H40.525V19H42.475V17H44.425V21H26.875V17ZM42.475 23V25H28.825V23H42.475ZM23.95 30C23.95 29.2044 24.2582 28.4413 24.8067 27.8787C25.3553 27.3161 26.0992 27 26.875 27H44.425C45.2008 27 45.9447 27.3161 46.4933 27.8787C47.0418 28.4413 47.35 29.2044 47.35 30V33H23.95V30ZM26.875 61C26.0992 61 25.3553 60.6839 24.8067 60.1213C24.2582 59.5587 23.95 58.7957 23.95 58V53H39.55V60C39.5532 60.3414 39.6139 60.6797 39.7294 61H26.875ZM39.55 45V51H23.95V35H41.5V40C41.5 40.2652 41.6027 40.5196 41.7856 40.7071C41.9684 40.8946 42.2164 41 42.475 41H43.45V42.382L40.0892 44.105C39.9271 44.1881 39.7908 44.3158 39.6956 44.4739C39.6003 44.632 39.5499 44.8142 39.55 45ZM59.05 60C59.05 60.2652 58.9473 60.5196 58.7644 60.7071C58.5816 60.8946 58.3336 61 58.075 61H42.475C42.2164 61 41.9684 60.8946 41.7856 60.7071C41.6027 60.5196 41.5 60.2652 41.5 60V55H59.05V60ZM59.05 53H41.5V49H59.05V53ZM59.05 47H41.5V45.618L44.8608 43.9C45.0236 43.8166 45.1604 43.688 45.2557 43.529C45.351 43.3699 45.401 43.1867 45.4 43V41H55.15V43C55.149 43.1867 55.199 43.3699 55.2943 43.529C55.3896 43.688 55.5264 43.8166 55.6892 43.9L59.05 45.618V47Z" fill="white"/>
<path d="M36.625 40H34.675V38C34.675 37.7348 34.5723 37.4804 34.3894 37.2929C34.2066 37.1054 33.9586 37 33.7 37H29.8C29.5414 37 29.2934 37.1054 29.1106 37.2929C28.9277 37.4804 28.825 37.7348 28.825 38V40H26.875C26.6164 40 26.3684 40.1054 26.1856 40.2929C26.0027 40.4804 25.9 40.7348 25.9 41V45C25.9 45.2652 26.0027 45.5196 26.1856 45.7071C26.3684 45.8946 26.6164 46 26.875 46H28.825V48C28.825 48.2652 28.9277 48.5196 29.1106 48.7071C29.2934 48.8946 29.5414 49 29.8 49H33.7C33.9586 49 34.2066 48.8946 34.3894 48.7071C34.5723 48.5196 34.675 48.2652 34.675 48V46H36.625C36.8836 46 37.1316 45.8946 37.3144 45.7071C37.4973 45.5196 37.6 45.2652 37.6 45V41C37.6 40.7348 37.4973 40.4804 37.3144 40.2929C37.1316 40.1054 36.8836 40 36.625 40ZM35.65 44H33.7C33.4414 44 33.1934 44.1054 33.0106 44.2929C32.8277 44.4804 32.725 44.7348 32.725 45V47H30.775V45C30.775 44.7348 30.6723 44.4804 30.4894 44.2929C30.3066 44.1054 30.0586 44 29.8 44H27.85V42H29.8C30.0586 42 30.3066 41.8946 30.4894 41.7071C30.6723 41.5196 30.775 41.2652 30.775 41V39H32.725V41C32.725 41.2652 32.8277 41.5196 33.0106 41.7071C33.1934 41.8946 33.4414 42 33.7 42H35.65V44Z" fill="white"/>
<path d="M25.9 29H27.85V31H25.9V29Z" fill="white"/>
<path d="M29.8 29H31.75V31H29.8V29Z" fill="white"/>
<path d="M55.15 57H57.1V59H55.15V57Z" fill="white"/>
<path d="M51.25 57H53.2V59H51.25V57Z" fill="white"/>
</svg>
