<svg width="85" height="85" viewBox="0 0 85 85" fill="none" xmlns="http://www.w3.org/2000/svg">
<path fill-rule="evenodd" clip-rule="evenodd" d="M42.5 0C65.97 0 85 19.03 85 42.5C85 65.97 65.97 85 42.5 85C19.03 85 0 65.97 0 42.5C0 19.03 19.03 0 42.5 0Z" fill="#8C52FF" fill-opacity="0.2"/>
<path fill-rule="evenodd" clip-rule="evenodd" d="M42.4993 7.53003C61.8093 7.53003 77.4693 23.19 77.4693 42.5C77.4693 61.81 61.8093 77.47 42.4993 77.47C23.1893 77.47 7.5293 61.81 7.5293 42.5C7.5293 23.19 23.1893 7.53003 42.4993 7.53003Z" fill="#8C52FF" fill-opacity="0.2"/>
<path d="M42.4997 71.5699C58.5546 71.5699 71.5697 58.5548 71.5697 42.4999C71.5697 26.445 58.5546 13.4299 42.4997 13.4299C26.4448 13.4299 13.4297 26.445 13.4297 42.4999C13.4297 58.5548 26.4448 71.5699 42.4997 71.5699Z" fill="#8C52FF"/>
<path d="M42.4993 61.1201C42.3293 61.1201 42.1493 61.0901 41.9893 61.0101C34.6293 57.4201 28.5293 53.5501 28.5293 42.5001V29.7001C28.5293 29.2101 28.8393 28.7701 29.2993 28.6101L42.0993 23.9501C42.3593 23.8601 42.6393 23.8601 42.8993 23.9501L55.6993 28.6101C56.1593 28.7701 56.4693 29.2101 56.4693 29.7001V42.5001C56.4693 53.5501 50.3693 57.4201 43.0093 61.0101C42.8493 61.0901 42.6693 61.1201 42.4993 61.1201ZM30.8593 30.5101V42.5001C30.8593 51.1801 34.7793 54.8301 42.4993 58.6601C50.2193 54.8301 54.1393 51.1801 54.1393 42.5001V30.5101L42.4993 26.2801L30.8593 30.5101Z" fill="white"/>
<path d="M41.6793 47.16L36.1993 41.68L37.8393 40.03L41.6793 43.87L48.9993 36.54L50.6493 38.19L41.6793 47.16Z" fill="white"/>
</svg>
