<svg width="85" height="85" viewBox="0 0 85 85" fill="none" xmlns="http://www.w3.org/2000/svg">
<path fill-rule="evenodd" clip-rule="evenodd" d="M42.5 0C65.97 0 85 19.03 85 42.5C85 65.97 65.97 85 42.5 85C19.03 85 0 65.97 0 42.5C0 19.03 19.03 0 42.5 0Z" fill="#8C52FF" fill-opacity="0.2"/>
<path fill-rule="evenodd" clip-rule="evenodd" d="M42.4993 7.53003C61.8093 7.53003 77.4693 23.19 77.4693 42.5C77.4693 61.81 61.8093 77.47 42.4993 77.47C23.1893 77.47 7.5293 61.81 7.5293 42.5C7.5293 23.19 23.1893 7.53003 42.4993 7.53003Z" fill="#8C52FF" fill-opacity="0.2"/>
<path d="M42.4997 71.5699C58.5546 71.5699 71.5697 58.5548 71.5697 42.4999C71.5697 26.445 58.5546 13.4299 42.4997 13.4299C26.4448 13.4299 13.4297 26.445 13.4297 42.4999C13.4297 58.5548 26.4448 71.5699 42.4997 71.5699Z" fill="#8C52FF"/>
<path d="M29.9995 44.9L29.1495 41.52C27.7995 36.15 27.6895 35.7 27.6895 34.2C27.6895 31.11 28.9395 28.32 30.9695 26.29C32.9895 24.27 35.7895 23.01 38.8695 23.01H49.4895C50.7495 23.01 51.9095 23.44 52.8395 24.15C53.7895 24.88 54.4995 25.92 54.8095 27.11L54.8295 27.17L54.8695 27.22C55.6595 28.2 56.2695 29.32 56.6795 30.5C57.0995 31.68 57.3095 32.93 57.3095 34.2C57.3095 35.7 57.1995 36.15 55.8395 41.55C55.6995 42.14 54.9895 44.56 54.9895 44.97C54.9495 48.65 53.3095 53.37 50.6895 56.91C48.4995 59.86 45.6395 61.99 42.4595 61.99C39.2495 61.99 36.4195 59.88 34.2695 56.96C31.6495 53.4 30.0395 48.63 29.9995 44.97V44.9V44.9ZM47.1595 43.78C46.2295 43.78 45.2995 44.13 44.5995 44.84C44.2995 45.14 44.2995 45.63 44.5995 45.93C44.8995 46.23 45.3895 46.23 45.6895 45.93C46.4995 45.12 47.8195 45.12 48.6195 45.93C48.9195 46.23 49.4095 46.23 49.7195 45.93C50.0195 45.63 50.0195 45.14 49.7195 44.84C49.0095 44.13 48.0795 43.78 47.1595 43.78ZM37.7995 43.78C36.8695 43.78 35.9395 44.13 35.2395 44.84C34.9395 45.14 34.9395 45.63 35.2395 45.93C35.5395 46.23 36.0295 46.23 36.3295 45.93C37.1395 45.12 38.4595 45.12 39.2595 45.93C39.5595 46.23 40.0495 46.23 40.3595 45.93C40.6595 45.63 40.6595 45.14 40.3595 44.84C39.6495 44.13 38.7195 43.78 37.7995 43.78ZM40.0595 53L40.6895 52.53C41.2195 52.13 41.8895 52.02 42.5095 52.21C43.1195 52.02 43.7895 52.13 44.3195 52.53L44.9495 53C45.1395 53.14 45.2695 53.37 45.2895 53.61C45.3095 53.85 45.2295 54.09 45.0695 54.27L44.8295 54.53C44.2295 55.18 43.3795 55.55 42.5095 55.55C41.6295 55.55 40.7795 55.18 40.1795 54.53L39.9495 54.27C39.7795 54.09 39.6995 53.85 39.7195 53.61C39.7395 53.37 39.8695 53.14 40.0595 53V53ZM49.4895 24.75H38.8695C36.2695 24.75 33.9095 25.81 32.1995 27.52C30.4895 29.23 29.4195 31.6 29.4195 34.2C29.4195 34.78 29.4395 35.17 29.5895 35.93C29.7295 36.67 29.9995 37.76 30.4995 39.76L30.7095 40.58L31.0495 39.8C32.0195 37.56 33.6395 35.65 35.6595 34.32C37.6095 33.03 39.9495 32.28 42.4595 32.28H49.4895C50.5295 32.28 51.4695 31.86 52.1495 31.18C52.8295 30.5 53.2595 29.55 53.2595 28.52C53.2595 27.48 52.8295 26.54 52.1495 25.85C51.4695 25.17 50.5295 24.75 49.4895 24.75V24.75ZM54.4595 30.9C54.0195 31.79 53.3495 32.56 52.5295 33.11C51.7195 33.64 50.7695 33.97 49.7495 34.01L48.9095 34.06L49.5995 34.54C49.8095 34.69 50.0195 34.84 50.2195 35C50.4095 35.15 50.6095 35.32 50.8095 35.5C51.4895 36.1 52.0895 36.78 52.6195 37.5C53.1395 38.23 53.5895 39.01 53.9495 39.82L54.2895 40.6L54.4995 39.78C54.9995 37.77 55.2695 36.67 55.4095 35.93C55.5595 35.17 55.5795 34.78 55.5795 34.2C55.5795 33.64 55.5195 33.08 55.4295 32.54C55.3295 31.98 55.1795 31.44 54.9895 30.92L54.7495 30.28L54.4595 30.9ZM42.4595 60.25C45.1595 60.25 47.6695 58.23 49.5795 55.48C51.8095 52.25 53.2595 47.99 53.2595 44.82L53.2395 44.19L53.1795 43.56C52.8695 40.88 51.5395 38.5 49.6095 36.78C47.6795 35.07 45.1495 34.02 42.4595 34.02C39.5095 34.02 36.8295 35.23 34.8895 37.19C32.9395 39.14 31.7395 41.84 31.7395 44.82C31.7395 47.83 33.1595 52.25 35.4495 55.57C37.2995 58.26 39.7295 60.25 42.4595 60.25V60.25Z" fill="white"/>
</svg>
