<svg width="85" height="85" viewBox="0 0 85 85" fill="none" xmlns="http://www.w3.org/2000/svg">
<path fill-rule="evenodd" clip-rule="evenodd" d="M42.5 0C65.97 0 85 19.03 85 42.5C85 65.97 65.97 85 42.5 85C19.03 85 0 65.97 0 42.5C0 19.03 19.03 0 42.5 0Z" fill="#8C52FF" fill-opacity="0.2"/>
<path fill-rule="evenodd" clip-rule="evenodd" d="M42.4993 7.53003C61.8093 7.53003 77.4693 23.19 77.4693 42.5C77.4693 61.81 61.8093 77.47 42.4993 77.47C23.1893 77.47 7.5293 61.81 7.5293 42.5C7.5293 23.19 23.1893 7.53003 42.4993 7.53003Z" fill="#8C52FF" fill-opacity="0.2"/>
<path fill-rule="evenodd" clip-rule="evenodd" d="M42.4997 13.4299C58.5597 13.4299 71.5797 26.4399 71.5797 42.4999C71.5797 58.5599 58.5597 71.5699 42.4997 71.5699C26.4397 71.5699 13.4297 58.5599 13.4297 42.4999C13.4297 26.4399 26.4397 13.4299 42.4997 13.4299Z" fill="#8C52FF"/>
<path d="M23.8207 46.99H19.0907C18.8507 46.99 18.6307 47.09 18.4807 47.24C18.3207 47.4 18.2207 47.62 18.2207 47.86V52.51C18.2207 52.75 18.3207 52.97 18.4807 53.13C18.6307 53.28 18.8507 53.38 19.0907 53.38H23.8207C23.8907 53.38 23.9607 53.37 24.0207 53.36C24.0907 53.34 24.1507 53.32 24.2107 53.29L28.6807 51.05H30.8707L30.9307 51.26C31.9007 54.2 33.6507 57.4 35.9407 59.68C37.7907 61.52 40.0007 62.76 42.4207 62.76C45.6007 62.76 48.4807 60.63 50.6707 57.67C53.3007 54.11 54.9507 49.38 54.9907 45.68C55.0007 45.25 55.6807 42.88 55.8307 42.29C57.2007 36.84 57.3207 36.39 57.3207 34.89C57.3207 33.61 57.1007 32.36 56.6807 31.17C56.2707 29.99 55.6507 28.87 54.8607 27.88L54.8207 27.83L54.8107 27.77C54.4907 26.58 53.7807 25.54 52.8307 24.81C51.9007 24.09 50.7407 23.66 49.4707 23.66H38.8207C35.7307 23.66 32.9207 24.92 30.8907 26.95C28.8607 28.98 27.6007 31.79 27.6007 34.89C27.6007 36.39 27.7107 36.84 29.0707 42.26C29.2207 42.84 29.9207 45.29 29.9207 45.68C29.9307 46.19 29.9707 46.73 30.0307 47.27C30.0907 47.82 30.1907 48.39 30.3107 48.96L30.3807 49.32H28.6807L24.2107 47.08C24.1507 47.05 24.0907 47.03 24.0207 47.01C23.9607 47 23.8907 46.99 23.8207 46.99V46.99ZM40.2707 44.94C39.9707 44.64 39.4807 44.64 39.1807 44.94C38.3707 45.75 37.0507 45.75 36.2407 44.94C35.9407 44.64 35.4407 44.64 35.1407 44.94C34.8407 45.25 34.8407 45.74 35.1407 46.04C35.8507 46.75 36.7807 47.1 37.7107 47.1C38.6407 47.1 39.5707 46.75 40.2707 46.04C40.5807 45.74 40.5807 45.25 40.2707 44.94ZM47.1007 47.1C48.0307 47.1 48.9507 46.75 49.6607 46.04C49.9607 45.74 49.9607 45.25 49.6607 44.94C49.3607 44.64 48.8707 44.64 48.5707 44.94C47.7507 45.75 46.4407 45.75 45.6307 44.94C45.3207 44.64 44.8307 44.64 44.5307 44.94C44.2307 45.25 44.2307 45.74 44.5307 46.04C45.2407 46.75 46.1707 47.1 47.1007 47.1ZM44.8207 53.74L44.1907 53.27C43.6607 52.87 42.9907 52.76 42.3707 52.95C41.7607 52.76 41.0907 52.87 40.5507 53.27L39.9207 53.74C39.7307 53.89 39.6007 54.11 39.5807 54.36C39.5607 54.6 39.6407 54.84 39.8107 55.02L40.0507 55.28C40.6407 55.93 41.4907 56.3 42.3707 56.3C43.2607 56.3 44.1007 55.93 44.7007 55.28L44.9407 55.02C45.1107 54.84 45.1907 54.6 45.1707 54.36C45.1407 54.11 45.0207 53.89 44.8207 53.74V53.74ZM38.8207 25.41H49.4707C50.5107 25.41 51.4607 25.83 52.1407 26.51C52.8207 27.2 53.2507 28.14 53.2507 29.19C53.2507 30.22 52.8207 31.17 52.1407 31.85C51.4607 32.54 50.5107 32.96 49.4707 32.96H42.4207C39.9007 32.96 37.5507 33.71 35.5907 35.01C33.5707 36.34 31.9507 38.25 30.9707 40.51L30.6307 41.29L30.4207 40.46C29.9207 38.46 29.6507 37.36 29.5107 36.62C29.3607 35.85 29.3407 35.47 29.3407 34.89C29.3407 32.27 30.4107 29.9 32.1207 28.19C33.8407 26.47 36.2107 25.41 38.8207 25.41V25.41ZM52.5207 33.79C53.3407 33.24 54.0207 32.47 54.4507 31.57L54.7507 30.95L54.9807 31.59C55.1807 32.12 55.3207 32.66 55.4207 33.22C55.5207 33.77 55.5707 34.33 55.5707 34.89C55.5707 35.47 55.5607 35.86 55.4107 36.62C55.2607 37.37 54.9907 38.47 54.4907 40.48L54.2907 41.3L53.9407 40.53C53.5807 39.71 53.1307 38.92 52.6007 38.19C52.0807 37.47 51.4707 36.79 50.7907 36.19C50.6107 36.02 50.4107 35.85 50.2007 35.69C50.0007 35.53 49.8007 35.38 49.5807 35.23L48.8907 34.74L49.7307 34.7C50.7607 34.65 51.7107 34.32 52.5207 33.79V33.79ZM49.5607 56.23C47.6407 58.99 45.1307 61.02 42.4207 61.02C40.4607 61.02 38.6607 59.95 37.1307 58.41C35.2007 56.47 33.6907 53.75 32.8407 51.45L32.6907 51.05H35.0407C35.2807 51.05 35.5007 50.96 35.6507 50.8C35.8107 50.65 35.9007 50.43 35.9007 50.19C35.9007 49.94 35.8107 49.72 35.6507 49.57C35.4907 49.41 35.2807 49.32 35.0407 49.32H32.1707L32.1207 49.09C31.9707 48.47 31.8607 47.85 31.7807 47.26C31.7107 46.66 31.6707 46.08 31.6707 45.54C31.6707 42.55 32.8707 39.84 34.8207 37.88C36.7707 35.92 39.4607 34.71 42.4207 34.71C45.1207 34.71 47.6507 35.76 49.5907 37.48C51.5207 39.2 52.8607 41.59 53.1707 44.27L53.2307 44.91L53.2507 45.54C53.2507 48.72 51.8007 52.99 49.5607 56.23V56.23ZM23.5507 51.64H19.9607V48.73H23.6107L26.5207 50.19L23.6207 51.64H23.5507V51.64Z" fill="white"/>
</svg>
