<svg width="660" height="660" viewBox="0 0 660 660" fill="none" xmlns="http://www.w3.org/2000/svg">
<path fill-rule="evenodd" clip-rule="evenodd" d="M398.615 597C405.495 597 411 591.495 411 584.615C411 577.505 405.495 572 398.615 572C391.505 572 386 577.505 386 584.615C386 591.495 391.505 597 398.615 597Z" fill="#CB6CE6" fill-opacity="0.2"/>
<path fill-rule="evenodd" clip-rule="evenodd" d="M398.616 594.248C403.892 594.248 408.249 589.89 408.249 584.615C408.249 579.11 403.892 574.752 398.616 574.752C393.112 574.752 388.754 579.11 388.754 584.615C388.754 589.89 393.112 594.248 398.616 594.248Z" fill="#CB6CE6" fill-opacity="0.2"/>
<path fill-rule="evenodd" clip-rule="evenodd" d="M398.614 589.89C401.596 589.89 403.889 587.596 403.889 584.614C403.889 581.403 401.596 579.11 398.614 579.11C395.403 579.11 393.109 581.403 393.109 584.614C393.109 587.596 395.403 589.89 398.614 589.89Z" fill="#CB6CE6"/>
<path fill-rule="evenodd" clip-rule="evenodd" d="M388.615 315C395.495 315 401 309.495 401 302.615C401 295.505 395.495 290 388.615 290C381.505 290 376 295.505 376 302.615C376 309.495 381.505 315 388.615 315Z" fill="#CB6CE6" fill-opacity="0.2"/>
<path fill-rule="evenodd" clip-rule="evenodd" d="M388.616 312.248C393.892 312.248 398.249 307.89 398.249 302.615C398.249 297.11 393.892 292.752 388.616 292.752C383.112 292.752 378.754 297.11 378.754 302.615C378.754 307.89 383.112 312.248 388.616 312.248Z" fill="#CB6CE6" fill-opacity="0.2"/>
<path fill-rule="evenodd" clip-rule="evenodd" d="M388.614 307.89C391.596 307.89 393.889 305.596 393.889 302.614C393.889 299.403 391.596 297.11 388.614 297.11C385.403 297.11 383.109 299.403 383.109 302.614C383.109 305.596 385.403 307.89 388.614 307.89Z" fill="#CB6CE6"/>
<path fill-rule="evenodd" clip-rule="evenodd" d="M310.615 405C317.495 405 323 399.495 323 392.615C323 385.505 317.495 380 310.615 380C303.505 380 298 385.505 298 392.615C298 399.495 303.505 405 310.615 405Z" fill="#CB6CE6" fill-opacity="0.2"/>
<path fill-rule="evenodd" clip-rule="evenodd" d="M310.614 402.248C315.89 402.248 320.247 397.89 320.247 392.615C320.247 387.11 315.89 382.752 310.614 382.752C305.11 382.752 300.752 387.11 300.752 392.615C300.752 397.89 305.11 402.248 310.614 402.248Z" fill="#CB6CE6" fill-opacity="0.2"/>
<path fill-rule="evenodd" clip-rule="evenodd" d="M310.614 397.89C313.596 397.89 315.889 395.596 315.889 392.614C315.889 389.403 313.596 387.11 310.614 387.11C307.403 387.11 305.109 389.403 305.109 392.614C305.109 395.596 307.403 397.89 310.614 397.89Z" fill="#CB6CE6"/>
<path fill-rule="evenodd" clip-rule="evenodd" d="M371.615 261C378.495 261 384 255.495 384 248.615C384 241.505 378.495 236 371.615 236C364.505 236 359 241.505 359 248.615C359 255.495 364.505 261 371.615 261Z" fill="#CB6CE6" fill-opacity="0.2"/>
<path fill-rule="evenodd" clip-rule="evenodd" d="M371.616 258.248C376.892 258.248 381.249 253.89 381.249 248.615C381.249 243.11 376.892 238.752 371.616 238.752C366.112 238.752 361.754 243.11 361.754 248.615C361.754 253.89 366.112 258.248 371.616 258.248Z" fill="#CB6CE6" fill-opacity="0.2"/>
<path fill-rule="evenodd" clip-rule="evenodd" d="M371.614 253.89C374.596 253.89 376.889 251.596 376.889 248.614C376.889 245.403 374.596 243.11 371.614 243.11C368.403 243.11 366.109 245.403 366.109 248.614C366.109 251.596 368.403 253.89 371.614 253.89Z" fill="#CB6CE6"/>
<path fill-rule="evenodd" clip-rule="evenodd" d="M349.615 221C356.495 221 362 215.495 362 208.615C362 201.505 356.495 196 349.615 196C342.505 196 337 201.505 337 208.615C337 215.495 342.505 221 349.615 221Z" fill="#CB6CE6" fill-opacity="0.2"/>
<path fill-rule="evenodd" clip-rule="evenodd" d="M349.616 218.248C354.892 218.248 359.249 213.89 359.249 208.615C359.249 203.11 354.892 198.752 349.616 198.752C344.112 198.752 339.754 203.11 339.754 208.615C339.754 213.89 344.112 218.248 349.616 218.248Z" fill="#CB6CE6" fill-opacity="0.2"/>
<path fill-rule="evenodd" clip-rule="evenodd" d="M349.614 213.89C352.596 213.89 354.889 211.596 354.889 208.614C354.889 205.403 352.596 203.11 349.614 203.11C346.403 203.11 344.109 205.403 344.109 208.614C344.109 211.596 346.403 213.89 349.614 213.89Z" fill="#CB6CE6"/>
</svg>
