<svg width="460" height="578" viewBox="0 0 460 578" fill="none" xmlns="http://www.w3.org/2000/svg">
    <g id="laxity">
        <path fill-rule="evenodd" clip-rule="evenodd"
              d="M55.5 540C62.5833 540 68 534.583 68 527.5C68 520.417 62.5833 515 55.5 515C48.4167 515 43 520.417 43 527.5C43 534.583 48.4167 540 55.5 540Z"
              fill="#5271FF" fill-opacity="0.2"/>
        <path fill-rule="evenodd" clip-rule="evenodd"
              d="M55.5013 537.083C60.918 537.083 65.0846 532.917 65.0846 527.5C65.0846 522.083 60.918 517.917 55.5013 517.917C50.0846 517.917 45.918 522.083 45.918 527.5C45.918 532.917 50.0846 537.083 55.5013 537.083Z"
              fill="#5271FF" fill-opacity="0.2"/>
        <path fill-rule="evenodd" clip-rule="evenodd"
              d="M55.4987 532.917C58.4154 532.917 60.9154 530.417 60.9154 527.5C60.9154 524.583 58.4154 522.083 55.4987 522.083C52.582 522.083 50.082 524.583 50.082 527.5C50.082 530.417 52.582 532.917 55.4987 532.917Z"
              fill="#5271FF"/>
    </g>
    <g id="cellulite">
        <path fill-rule="evenodd" clip-rule="evenodd"
              d="M237.5 224C244.583 224 250 218.583 250 211.5C250 204.417 244.583 199 237.5 199C230.417 199 225 204.417 225 211.5C225 218.583 230.417 224 237.5 224Z"
              fill="#5271FF" fill-opacity="0.2"/>
        <path fill-rule="evenodd" clip-rule="evenodd"
              d="M237.499 221.083C242.916 221.083 247.083 216.917 247.083 211.5C247.083 206.083 242.916 201.917 237.499 201.917C232.083 201.917 227.916 206.083 227.916 211.5C227.916 216.917 232.083 221.083 237.499 221.083V221.083Z"
              fill="#5271FF" fill-opacity="0.2"/>
        <path fill-rule="evenodd" clip-rule="evenodd"
              d="M237.501 216.917C240.417 216.917 242.917 214.417 242.917 211.5C242.917 208.583 240.417 206.083 237.501 206.083C234.584 206.083 232.084 208.583 232.084 211.5C232.084 214.417 234.584 216.917 237.501 216.917Z"
              fill="#5271FF"/>
    </g>
</svg>
