<svg width="80" height="80" viewBox="0 0 80 80" fill="none" xmlns="http://www.w3.org/2000/svg">
<path fill-rule="evenodd" clip-rule="evenodd" d="M40 0C62.09 0 80 17.8449 80 39.8545C80 61.8642 62.09 79.7091 40 79.7091C17.91 79.7091 0 61.8642 0 39.8545C0 17.8449 17.91 0 40 0Z" fill="#8C52FF" fill-opacity="0.2"/>
<path fill-rule="evenodd" clip-rule="evenodd" d="M39.9995 5.41943C59.0895 5.41943 74.5594 20.8332 74.5594 39.8538C74.5594 58.8743 59.0895 74.2881 39.9995 74.2881C20.9095 74.2881 5.43945 58.8743 5.43945 39.8538C5.43945 20.8332 20.9095 5.41943 39.9995 5.41943Z" fill="#8C52FF"/>
<path d="M23.4003 45.6134C23.5003 46.1116 23.8003 46.5699 24.2203 46.8589C24.4503 47.0083 24.7203 47.1179 25.0203 47.1578C25.5403 39.8445 31.7603 36.7059 37.3003 33.9161C38.1003 33.5076 38.8903 33.109 39.5803 32.7404C40.7503 32.1127 41.7703 31.5049 42.6703 30.8872L42.6803 30.8772L42.7003 30.8672L42.7103 30.8573H42.7203C45.4303 28.9941 46.9403 27.2006 47.6203 25.5068C48.4803 23.3546 47.9703 21.3221 46.9103 19.4987L46.8903 19.4788C46.7603 19.2596 46.6203 19.0504 46.4703 18.8511C45.3503 17.4263 43.5403 16.4598 41.3503 16.2207C39.1003 15.9716 36.4603 16.4897 33.7603 18.054C33.0903 18.4426 32.4103 18.9009 31.7403 19.429C28.1203 22.2387 25.4403 26.0349 23.9803 30.5783C22.5803 34.9424 22.3003 40.0138 23.3903 45.5835L23.4003 45.6134ZM55.3603 32.023C55.3603 30.3591 54.7703 28.5955 53.7903 27.1109C52.7503 25.5466 51.3103 24.3012 49.7003 23.803C49.6503 24.5503 49.4803 25.3274 49.1603 26.1146C48.4803 27.8283 47.1003 29.6118 44.7703 31.4053C48.0303 33.0792 50.5603 35.1616 52.2903 37.6923C53.6803 39.7149 54.5503 42.0265 54.8603 44.627C55.1003 44.5174 55.3303 44.358 55.5403 44.1687L55.5803 44.1388C56.1003 43.6406 56.4903 42.9531 56.6803 42.3055C57.2903 40.233 57.4903 38.2802 57.0103 36.6461C56.5503 35.0719 55.4303 33.7467 53.4103 32.8699C52.9903 32.6906 52.8003 32.2024 52.9803 31.7839C53.1603 31.3654 53.6503 31.1661 54.0703 31.3554C54.5403 31.5547 54.9703 31.7839 55.3603 32.023ZM49.6203 22.0693C51.8403 22.5675 53.8203 24.1617 55.1703 26.2042C56.5103 28.2368 57.2403 30.7277 56.9703 32.9994L56.9303 33.2685C57.7403 34.1253 58.2903 35.1018 58.6003 36.1778C59.1803 38.1606 58.9603 40.4224 58.2703 42.7738C58.0103 43.6705 57.4603 44.637 56.7103 45.3444L56.6603 45.3942C56.1803 45.8326 55.6103 46.1714 54.9803 46.3308C54.9903 46.8589 54.9903 47.3969 54.9603 47.9549V47.9947C54.7803 50.5554 54.0903 52.9666 53.0903 55.0888C51.9603 57.4901 50.4303 59.5326 48.8003 61.0272C47.5803 62.153 45.9803 63.1992 44.3903 63.9565C42.7903 64.7237 41.1903 65.2019 39.9703 65.2019C38.7503 65.2019 37.1503 64.7237 35.5503 63.9565C33.9703 63.1992 32.3603 62.153 31.1403 61.0272C29.5103 59.5326 27.9803 57.4901 26.8503 55.0888C25.9603 53.1957 25.3103 51.0735 25.0603 48.8217C24.3903 48.7818 23.7903 48.5626 23.2903 48.2239C22.5003 47.6858 21.9603 46.8489 21.7703 45.9422L21.7603 45.9024C20.6203 40.0537 20.9203 34.7032 22.4003 30.0801C23.9603 25.2079 26.8403 21.1427 30.7203 18.1237C31.4603 17.5458 32.2003 17.0477 32.9303 16.6292C35.9603 14.8656 38.9503 14.2877 41.5303 14.5767C44.1703 14.8656 46.3803 16.0613 47.7703 17.8348C47.9703 18.0938 48.1603 18.3629 48.3203 18.6319L48.3403 18.6717C48.9703 19.7378 49.4303 20.8737 49.6203 22.0693ZM53.3003 47.8652C53.4903 44.2384 52.6703 41.1796 50.9203 38.6189C49.2203 36.138 46.6303 34.1054 43.2403 32.4913C42.3803 33.0592 41.4203 33.6272 40.3603 34.1951C39.5703 34.6136 38.8203 35.0021 38.0403 35.3907C32.7503 38.061 26.7803 41.08 26.6503 47.905C26.8003 50.2465 27.4403 52.4485 28.3503 54.3914C29.3903 56.5933 30.7903 58.4565 32.2603 59.8216C33.3603 60.8279 34.8203 61.7744 36.2703 62.4719C37.6503 63.1295 39.0003 63.548 39.9703 63.548C40.9503 63.548 42.2903 63.1295 43.6703 62.4719C45.1203 61.7744 46.5803 60.8279 47.6803 59.8216C49.1603 58.4565 50.5503 56.5933 51.5903 54.3914C52.5103 52.4485 53.1403 50.2365 53.3003 47.8851V47.8652Z" fill="white"/>
<path d="M46.2092 56.2947C46.8492 57.0221 47.9592 57.0918 48.6992 56.4542L49.3392 55.8862C50.5192 56.6534 52.0692 56.5538 53.1292 55.6272L64.8692 45.3547L65.1692 45.6934C65.6992 46.3012 66.6292 46.361 67.2392 45.8329L68.0392 45.1255C68.6492 44.5875 68.7092 43.6708 68.1692 43.063L66.3292 40.9707L68.8292 38.7787L69.9392 40.0441C70.6092 40.7913 71.7592 40.871 72.5192 40.2134L72.7792 39.9743C73.5392 39.3167 73.6192 38.1609 72.9492 37.4137L68.2792 32.103C67.9592 31.7443 67.5092 31.5251 67.0192 31.4953C66.5392 31.4654 66.0592 31.6248 65.6992 31.9436L65.4392 32.1728C64.6792 32.8403 64.5992 33.9862 65.2692 34.7434L66.3792 35.9988L63.8792 38.1908L62.0292 36.0985C61.4992 35.4907 60.5692 35.4309 59.9592 35.9689L59.1592 36.6664C58.5492 37.2044 58.4892 38.1211 59.0292 38.7289L59.3192 39.0676L47.5892 49.3401C46.5292 50.2667 46.2292 51.7812 46.8392 53.0466L46.1892 53.6145C45.4592 54.2522 45.3892 55.3681 46.0292 56.0955C46.3892 56.504 45.8492 55.8862 46.2092 56.2947ZM50.2892 53.9633C50.2992 53.9732 50.3092 53.9931 50.3192 54.0031L50.3592 54.033C50.7392 54.4017 51.3492 54.4116 51.7492 54.0629L61.3792 45.6337C61.6392 45.4045 61.6692 44.996 61.4392 44.7369L59.4992 42.535C59.2692 42.2759 58.8592 42.246 58.5992 42.4752L48.9692 50.9044C48.5592 51.2631 48.4992 51.8809 48.8292 52.3093L50.2892 53.9633ZM58.9592 43.8601L60.0492 45.0956L51.0892 52.947L49.9892 51.7015L58.9592 43.8601ZM66.2792 33.1293L66.5392 32.9001C66.7692 32.7108 67.1092 32.7307 67.3192 32.9499L71.9892 38.2506C72.1892 38.4798 72.1692 38.8185 71.9392 39.0178L71.6792 39.247C71.4492 39.4462 71.0992 39.4263 70.8992 39.1971L66.2292 33.8965C66.0292 33.6673 66.0492 33.3286 66.2792 33.1293ZM67.2292 36.9553L67.9892 37.8222L65.4792 40.0142L64.7192 39.1473L67.2292 36.9553ZM59.9992 37.6229L60.8092 36.9254C60.8892 36.8557 60.9992 36.8557 61.0692 36.9354L67.2092 43.9C67.2792 43.9797 67.2792 44.0993 67.1992 44.169L66.3892 44.8764C66.3092 44.9362 66.1992 44.9362 66.1292 44.8565L65.4092 44.0395L60.7092 38.7089L59.9892 37.8919C59.9192 37.8122 59.9292 37.6926 59.9992 37.6229ZM47.1692 55.4578L46.9892 55.2585C46.8092 55.0592 46.8292 54.7504 47.0392 54.571L47.5992 54.0828L48.4192 55.0094L47.8492 55.4977C47.6492 55.667 47.3492 55.6471 47.1692 55.4578ZM48.4292 50.2966L60.1692 40.0241L64.0292 44.3982L52.2892 54.6707C51.5592 55.3083 50.4692 55.2785 49.7692 54.6109C49.7392 54.571 49.6992 54.5411 49.6692 54.5013L48.2592 52.8971C48.2292 52.8673 48.1992 52.8274 48.1692 52.7875C47.5892 52.0203 47.7092 50.9343 48.4292 50.2966Z" fill="#EBECEC"/>
<path d="M47.4299 55.0189L49.9699 57.8884H49.9599L49.8199 58.008L49.6699 58.1276L49.5099 58.2272L49.3599 58.3169L49.1999 58.4065L49.0299 58.4862L48.8599 58.556L48.6799 58.6257L48.5199 58.6656L48.3499 58.7154L48.1699 58.7453L48.0099 58.7752L47.8299 58.7951L47.6399 58.8051H47.4599L47.2999 58.7951L47.1199 58.7852L46.9399 58.7553L46.7699 58.7254L46.5999 58.6855L46.4299 58.6357L46.2599 58.5759L46.0999 58.5161L45.9299 58.4364L45.7699 58.3567L45.5999 58.2571L45.4599 58.1674L45.3099 58.0578L45.1699 57.9482L45.0299 57.8287L44.8899 57.6892L44.7699 57.5596L47.6499 55.0289H47.6399V55.0189L47.6299 55.0089H47.6199L47.6099 54.999L47.5999 54.989H47.5799L47.5699 54.979H47.5599H47.5499H47.5399H47.5299H47.5099H47.4999H47.5099H47.4999H47.4899H47.4999L47.4899 54.989H47.4699L47.4599 54.999H47.4499V55.0089H47.4399L47.4299 55.0189ZM49.9699 57.8884H49.9599L50.0899 57.7788L49.9699 57.8884ZM50.6099 57.3205L49.9699 57.8884L47.4299 55.0189L48.0699 54.451L50.3899 54.2816L50.6099 57.3205ZM48.0699 54.451L49.1699 53.4845L50.3899 54.2816L48.0699 54.451ZM51.8699 54.1919L54.3999 57.0615L54.3899 57.0714L54.2299 57.2009L54.0699 57.3305L53.8899 57.45L53.7199 57.5696L53.5399 57.6692L53.3599 57.7689L53.1799 57.8486L52.9899 57.9383L52.7999 58.008L52.5999 58.0777L52.4099 58.1276L52.2199 58.1774L52.0099 58.2272L51.8099 58.2571L51.6099 58.287L51.4199 58.2969L51.2199 58.3069H50.9999H50.8099L50.6099 58.287L50.3999 58.267L50.2099 58.2372L49.9999 58.1973L49.7999 58.1475L49.6099 58.0977L49.4199 58.0379L49.2199 57.9681L49.0299 57.8884L48.8399 57.7988L48.6499 57.7091L48.4699 57.5995L48.2899 57.4899L50.3899 54.2816L50.4399 54.3115L50.4799 54.3414L50.5299 54.3613L50.5799 54.3812L50.6199 54.4012L50.6599 54.4211L50.7199 54.4311L50.7699 54.451L50.8099 54.4609L50.8599 54.4709L50.9099 54.4809H50.9499H51.0099L51.0599 54.4908L51.0899 54.4809H51.1499H51.1999L51.2499 54.4709L51.2999 54.4609H51.3399L51.3899 54.441L51.4399 54.4311L51.4799 54.4111L51.5299 54.3912L51.5699 54.3713L51.6199 54.3513L51.6699 54.3314L51.7099 54.3015L51.7499 54.2716L51.7899 54.2517L51.8299 54.2218L51.8699 54.182V54.1919ZM54.3999 57.0615L54.3899 57.0714L54.2899 57.1611L54.3999 57.0615ZM66.1399 46.7889L54.3999 57.0615L51.8699 54.1919L63.5999 43.9194L66.3099 44.0988L66.1399 46.7889ZM63.5999 43.9194L65.0499 42.654L66.3099 44.0988L63.5999 43.9194ZM63.7199 46.9583L63.4299 46.6196L66.3099 44.0988L66.6099 44.4276L63.7299 46.9583H63.7199ZM63.7299 46.9583H63.7199L63.6499 46.8687L63.7299 46.9583ZM65.9699 44.3877L68.4999 47.2672L68.3699 47.3768L68.2399 47.4764L68.0899 47.5761L67.9399 47.6657L67.7899 47.7454L67.6499 47.8052L67.4999 47.875L67.3299 47.9348L67.1899 47.9746L67.0099 48.0244L66.8499 48.0543L66.7099 48.0742L66.5499 48.0942L66.3599 48.1041H66.2099L66.0499 48.0942L65.8799 48.0842L65.7499 48.0643L65.5799 48.0344L65.3999 47.9945L65.2499 47.9447L65.1099 47.8949L64.9499 47.8351L64.7899 47.7654L64.6499 47.6857L64.5099 47.6159L64.3699 47.5263L64.2199 47.4167L64.0899 47.317L63.9799 47.2174L63.8499 47.0878L63.7299 46.9583L66.6099 44.4276L66.5899 44.4076L66.5699 44.3877L66.5499 44.3777L66.5199 44.3578L66.4999 44.3379H66.4899L66.4699 44.3279L66.4399 44.308L66.4199 44.298H66.4099H66.3999L66.3499 44.2881L66.3199 44.2781H66.3299H66.2999H66.2799H66.2699H66.2299H66.1999L66.1799 44.2881L66.1399 44.298H66.1299L66.0999 44.308L66.0799 44.318L66.0699 44.3279L66.0499 44.3379L66.0299 44.3478L65.9999 44.3678L65.9899 44.3777L65.9699 44.3877ZM69.3099 46.5598L68.4999 47.2672L65.9699 44.3877L66.7699 43.6902L69.3099 46.5598ZM66.7299 44.3279L69.6199 41.7972V41.8071L69.7299 41.9367L69.8299 42.0761L69.9299 42.2156L70.0099 42.3551L70.0899 42.5046L70.1599 42.654L70.2299 42.8135L70.2799 42.9629L70.3299 43.1124L70.3799 43.2917L70.4099 43.4511L70.4299 43.6006L70.4499 43.75L70.4599 43.9194V44.0788L70.4499 44.2482L70.4299 44.4176L70.4099 44.567L70.3899 44.7165L70.3499 44.8859L70.2999 45.0453L70.2499 45.1848L70.1899 45.3442L70.1199 45.5036L70.0399 45.6531L69.9599 45.7926L69.8699 45.9221L69.7699 46.0616L69.6599 46.2011L69.5599 46.3207L69.4399 46.4402L69.3099 46.5598L66.7699 43.6902L66.7499 43.7102L66.7399 43.7201L66.7299 43.7301L66.7099 43.76L66.6899 43.7799V43.7899L66.6799 43.7998L66.6599 43.8297L66.6499 43.8497L66.6399 43.8796V43.8895L66.6299 43.9194L66.6199 43.9493V43.9593V43.9692V43.9892V44.0191V44.0489V44.0689V44.0788V44.0888L66.6299 44.1187L66.6399 44.1585V44.1685L66.6499 44.1884L66.6599 44.2084L66.6699 44.2283L66.6799 44.2482L66.6899 44.2681L66.6999 44.2881L66.7099 44.308L66.7299 44.3279ZM69.6199 41.7972V41.8071L69.7099 41.9167L69.6199 41.7972ZM67.7699 39.7048L69.6199 41.7972L66.7299 44.3279L64.8799 42.2356L65.0599 39.5354L67.7699 39.7048ZM64.8799 42.2356L63.6199 40.7908L65.0599 39.5354L64.8799 42.2356ZM70.0999 40.2129L67.5899 42.4049L65.0599 39.5354L67.5699 37.3434L70.2799 37.5128L70.0999 40.2129ZM67.5699 37.3434L69.0099 36.078L70.2799 37.5128L67.5699 37.3434ZM68.4999 41.299L67.3899 40.0436L70.2799 37.5128L71.3899 38.7782L68.4999 41.3089V41.299ZM68.4999 41.3089V41.299L68.3699 41.1595L68.4999 41.3089ZM71.2499 38.7782L73.7899 41.6377V41.6477L73.6399 41.7673L73.4899 41.8868L73.3299 41.9865L73.1699 42.0861L73.0099 42.1758L72.8399 42.2555L72.6599 42.3252L72.4899 42.385L72.3199 42.4348L72.1399 42.4846L71.9699 42.5145L71.7899 42.5444L71.6099 42.5644L71.4199 42.5743H71.2499L71.0799 42.5644L70.8899 42.5444L70.7099 42.5245L70.5499 42.4946L70.3599 42.4548L70.1899 42.4049L70.0299 42.3452L69.8599 42.2754L69.6799 42.1957L69.5099 42.116L69.3599 42.0263L69.2099 41.9267L69.0599 41.8171L68.9099 41.6975L68.7699 41.578L68.6299 41.4484L68.4999 41.3089L71.3899 38.7782H71.3799V38.7682H71.3699V38.7583H71.3599L71.3499 38.7483H71.3399H71.3299H71.3399H71.3299H71.3099H71.3199H71.3099H71.2999H71.2899L71.2799 38.7583H71.2699L71.2599 38.7682L71.2499 38.7782ZM73.7899 41.6377V41.6477L73.6999 41.7274L73.7899 41.6377ZM74.0499 41.4086L73.7899 41.6377L71.2499 38.7782L71.5099 38.5391H71.5199L74.0499 41.4086ZM71.5099 38.5391H71.5199L71.5999 38.4693L71.5099 38.5391ZM71.5099 38.6686L74.3899 36.1478L74.5199 36.2972L74.6299 36.4467L74.7299 36.5961L74.8399 36.7655L74.9199 36.9249L74.9999 37.0943L75.0699 37.2537L75.1299 37.4331L75.1899 37.6124L75.2299 37.7818L75.2699 37.9612L75.2999 38.1505L75.3099 38.3298L75.3199 38.4892V38.6686V38.8579L75.2999 39.0372L75.2799 39.1966L75.2499 39.376L75.1999 39.5653L75.1499 39.7347L75.0999 39.8941L75.0299 40.0635L74.9499 40.2428L74.8699 40.4022L74.7799 40.5517L74.6799 40.7111L74.5599 40.8705L74.4499 41.01L74.3199 41.1495L74.1899 41.279L74.0499 41.4086L71.5199 38.5391H71.5099V38.549L71.4999 38.559V38.5689V38.559L71.4899 38.5789V38.5889V38.5789L71.4799 38.5988V38.6088V38.5988V38.6188V38.6088L71.4899 38.6287V38.6487L71.4999 38.6586V38.6686H71.5099H71.4999H71.5099ZM69.7199 30.8471L74.3899 36.1478L71.5099 38.6686L66.8299 33.3679L69.7199 30.8471ZM66.8999 33.3978L67.1499 29.5817H67.1399L67.2399 29.5917L67.3399 29.6017L67.4099 29.6116L67.5099 29.6216L67.5999 29.6415L67.6899 29.6615L67.7899 29.6814L67.8599 29.7013L67.9699 29.7312L68.0699 29.7611L68.1199 29.781L68.2199 29.8109L68.3199 29.8508L68.3899 29.8806L68.4699 29.9105L68.5499 29.9504L68.6399 30.0002L68.7299 30.05L68.7999 30.0899L68.8799 30.1397L68.9699 30.1895L69.0299 30.2393L69.0999 30.2892L69.1799 30.339L69.2499 30.3988L69.3199 30.4585L69.3999 30.5183L69.4599 30.5781L69.5299 30.6479L69.5799 30.6977L69.6499 30.7674L69.7199 30.8471L66.8299 33.3679L66.8399 33.3779L66.8499 33.3878L66.8399 33.3779L66.8499 33.3878V33.3779H66.8399L66.8499 33.3878H66.8599H66.8499H66.8599L66.8699 33.3978H66.8599L66.8499 33.3878L66.8799 33.3978H66.8899L66.8599 33.3878L66.8699 33.3978H66.8899H66.8699H66.8899H66.8999L66.9099 33.4078L66.8899 33.3978H66.8999ZM66.8999 33.3978H66.7699H66.8999ZM66.9699 33.3779L64.4299 30.5084L64.5099 30.4386L64.5699 30.3888L64.6499 30.329L64.7299 30.2692L64.7999 30.2194L64.8799 30.1696L64.9399 30.1297L65.0199 30.0799L65.1199 30.0201L65.1899 29.9903L65.2699 29.9504L65.3499 29.9105L65.4499 29.8707L65.5299 29.8408L65.6099 29.8009L65.6999 29.771L65.7699 29.7511L65.8599 29.7212L65.9599 29.6913L66.0599 29.6714L66.1499 29.6515L66.2199 29.6415L66.3099 29.6216L66.4299 29.6017H66.4999L66.5799 29.5917L66.6999 29.5817H66.7899L66.8599 29.5718H66.9599L67.0499 29.5817H67.1499L66.8999 33.3978H66.9099H66.8899H66.8999H66.9299H66.9099L66.8899 33.4078L66.9199 33.3978H66.9299H66.9099H66.9199H66.9299H66.9399H66.9299H66.9399L66.9499 33.3878L66.9399 33.3978L66.9599 33.3779H66.9699L66.9499 33.3878H66.9599H66.9499L66.9599 33.3779H66.9699L66.9599 33.3878L66.9699 33.3779ZM64.1699 30.7375L64.4299 30.5084L66.9699 33.3779L66.6999 33.607L64.1699 30.7375ZM64.1699 30.7375L63.7799 31.0763L64.1699 30.7375ZM66.7099 33.4775L63.8299 35.9983H63.8199L63.6999 35.8489L63.5899 35.6994L63.4799 35.55L63.3899 35.3905L63.2899 35.2112L63.2099 35.0418L63.1499 34.8924L63.0899 34.723L63.0299 34.5337L62.9899 34.3643L62.9499 34.1849L62.9199 34.0056L62.9099 33.8263L62.8999 33.6569V33.4775V33.2882L62.9199 33.1089L62.9499 32.9395L62.9799 32.7601L63.0199 32.6007L63.0599 32.4313L63.1299 32.242L63.1999 32.0726L63.2699 31.9232L63.3499 31.7538L63.4499 31.5944L63.5399 31.4449L63.6499 31.2855L63.7699 31.1361L63.8999 30.9966L64.0299 30.867L64.1699 30.7375L66.7099 33.607V33.5971H66.7199V33.5871L66.7299 33.5672V33.5772L66.7399 33.5572H66.7299H66.7399V33.5473V33.5373V33.5273V33.5373L66.7299 33.5273V33.5174V33.5074V33.4974V33.5074L66.7199 33.4875L66.7099 33.4775ZM63.8299 35.9983H63.8199L63.7499 35.9186L63.8299 35.9983ZM64.9399 37.2637L63.8299 35.9983L66.7099 33.4775L67.8199 34.7429L67.6499 37.4431L64.9399 37.2637ZM67.8199 34.7429L69.0899 36.1777L67.6499 37.4431L67.8199 34.7429ZM62.6099 36.7556L65.1199 34.5636L67.6499 37.4431L65.1399 39.6251L62.4399 39.4557L62.6099 36.7556ZM65.1399 39.6251L63.6999 40.8905L62.4399 39.4557L65.1399 39.6251ZM63.4699 34.8326L65.3199 36.9249L62.4399 39.4557L60.5899 37.3633L63.4699 34.8326ZM61.2299 37.4032L58.6999 34.5237L58.8299 34.4141L58.9599 34.3145L59.1099 34.2148L59.2599 34.1252L59.4099 34.0554L59.5499 33.9857L59.6999 33.9159L59.8699 33.8561L60.0099 33.8163L60.1899 33.7665L60.3499 33.7366L60.4899 33.7167L60.6499 33.6967L60.8399 33.6868H60.9899L61.1599 33.6967L61.3199 33.7167L61.4499 33.7266L61.6199 33.7565L61.7999 33.7964L61.9499 33.8462L62.0999 33.896L62.2499 33.9558L62.4099 34.0255L62.5499 34.0953L62.6899 34.175L62.8399 34.2746L62.9699 34.3742L63.0999 34.4739L63.2299 34.5835L63.3599 34.713L63.4699 34.8326L60.5899 37.3633L60.5999 37.3733L60.6299 37.3932L60.6399 37.4132L60.6499 37.4231L60.6699 37.4331L60.6999 37.453L60.7199 37.463H60.7299L60.7599 37.4829L60.7799 37.4929H60.7899H60.8099L60.8499 37.5028L60.8799 37.5128H60.8699H60.8999H60.9199H60.9299H60.9799H60.9999L61.0199 37.5028L61.0599 37.4929H61.0699L61.0999 37.4829L61.1199 37.4729L61.1299 37.463L61.1499 37.453L61.1699 37.4431L61.1999 37.4231L61.2099 37.4132L61.2299 37.4032ZM57.8899 35.2311L58.6999 34.5237L61.2299 37.4032L60.4299 38.1007L57.8899 35.2311ZM60.4699 37.463L57.5899 39.9937L57.5799 39.9838L57.4699 39.8542L57.3699 39.7148L57.2699 39.5753L57.1899 39.4358L57.1099 39.2863L57.0299 39.1269L56.9699 38.9774L56.9199 38.828L56.8699 38.6686L56.8299 38.5191L56.7899 38.3497L56.7699 38.1903L56.7499 38.0209L56.7399 37.8715V37.7121L56.7499 37.5427L56.7599 37.3932L56.7899 37.2239L56.8199 37.0644L56.8499 36.915L56.8999 36.7456L56.9499 36.5961L57.0099 36.4467L57.0799 36.3072L57.1599 36.1478L57.2399 35.9983L57.3299 35.8688L57.4299 35.7293L57.5399 35.5998L57.6399 35.4702L57.7599 35.3507L57.8899 35.2311L60.4299 38.1007L60.4499 38.0807L60.4599 38.0708L60.4699 38.0608L60.4899 38.0409L60.5099 38.011L60.5199 37.9811L60.5399 37.9512L60.5499 37.9412V37.9213L60.5599 37.9014L60.5699 37.8715V37.8615L60.5799 37.8316V37.8117V37.8017V37.7718V37.742V37.732V37.7121L60.5699 37.6822V37.6622V37.6523L60.5599 37.6224L60.5499 37.6025V37.5925L60.5299 37.5626L60.5199 37.5427L60.5099 37.5228L60.4999 37.5028L60.4799 37.4829L60.4699 37.4729V37.463ZM57.5899 39.9937L57.5799 39.9838L57.6399 40.0535L57.5899 39.9937ZM57.8799 40.3325L57.5899 39.9937L60.4699 37.463L60.7599 37.8017L60.5899 40.5019L57.8799 40.3325ZM60.7599 37.8017L62.0399 39.2365L60.5899 40.5019L60.7599 37.8017ZM46.3199 47.8949L58.0599 37.6324L60.5899 40.5019L48.8499 50.7744L46.3099 47.9049L46.3199 47.8949ZM46.3099 47.9049L46.3199 47.8949L46.2699 47.9348L46.3099 47.9049ZM48.1099 54.4809L45.5699 51.6113L45.1099 53.8831L45.0199 53.6838L44.9499 53.4945L44.8699 53.2952L44.8099 53.0959L44.7599 52.9066L44.7099 52.7073L44.6699 52.4981L44.6399 52.2988L44.6199 52.0896L44.6099 51.8903V51.701V51.4818L44.6199 51.2825L44.6399 51.0833L44.6699 50.894L44.6999 50.6947L44.7499 50.4954L44.7999 50.3061L44.8599 50.0969L44.9299 49.9076L44.9999 49.7382L45.0799 49.5489L45.1699 49.3695L45.2699 49.1902L45.3799 49.0108L45.4899 48.8414L45.6099 48.6721L45.7299 48.5027L45.8699 48.3532L46.0099 48.1938L46.1599 48.0444L46.3099 47.9049L48.8599 50.7644L48.8199 50.8043L48.7899 50.8342L48.7499 50.874L48.7199 50.9139L48.6899 50.9537L48.6599 50.9936L48.6299 51.0335L48.6099 51.0733L48.5899 51.1231L48.5599 51.163L48.5499 51.2028L48.5199 51.2626L48.5099 51.3025L48.4999 51.3423L48.4799 51.3921L48.4699 51.432L48.4599 51.4818V51.5416L48.4499 51.5914V51.6412V51.6811V51.7309V51.7907L48.4599 51.8305V51.8804L48.4699 51.9302L48.4799 51.97L48.4999 52.0298L48.5099 52.0697L48.5299 52.1095L48.5499 52.1693L48.5699 52.2191L48.1099 54.4809ZM48.5699 52.2191L49.2099 53.5244L48.1099 54.4809L48.5699 52.2191ZM44.9299 52.1793L45.5699 51.6113L48.1099 54.4809L47.4599 55.0488L44.9299 52.1793ZM47.4699 54.8296L44.5899 57.3604L44.4699 57.2109L44.3499 57.0615L44.2499 56.912L44.1599 56.7625L44.0599 56.5832L43.9899 56.4337L43.9199 56.2644L43.8599 56.085L43.8099 55.9256L43.7599 55.7463L43.7299 55.5769L43.6999 55.4174L43.6799 55.2182L43.6699 55.0388V54.8794L43.6799 54.7001L43.6899 54.5207L43.7199 54.3513L43.7499 54.172L43.7999 53.9926L43.8399 53.8332L43.8999 53.6639L43.9699 53.4945L44.0399 53.335L44.1199 53.1756L44.2099 53.0262L44.3099 52.8668L44.4199 52.7173L44.5299 52.5778L44.6599 52.4284L44.7899 52.2988L44.9299 52.1793L47.4599 55.0488H47.4699H47.4599L47.4799 55.0289L47.4899 55.0189V55.0089L47.4999 54.999V54.989L47.5099 54.979V54.9691V54.9591V54.9492V54.9392V54.9292V54.9392V54.9292V54.9093V54.8993L47.4999 54.8794V54.8694L47.4899 54.8495L47.4799 54.8396L47.4699 54.8296ZM44.5899 57.3604L44.6099 57.3803L44.5899 57.3604ZM47.6499 55.0289L44.7699 57.5596L44.7299 57.5198L44.7099 57.4998L44.6999 57.4799L44.6599 57.4401L44.6399 57.4201V57.4102L44.6499 57.4201L44.7199 57.4998L47.4299 54.7997H47.4399L47.5299 54.8894L47.5599 54.9292L47.5499 54.9193V54.9292L47.5199 54.8894L47.5299 54.8993L47.6299 55.0089L47.5999 54.979L47.5699 54.9392L47.5999 54.979L47.6599 55.0388L47.5199 54.8894L44.6199 57.3902L44.7199 57.5098L44.7499 57.5397L44.6699 57.45L44.6799 57.46L44.6699 57.45L44.6199 57.3902L44.5899 57.3604L47.4699 54.8296L47.5099 54.8694L47.5399 54.9093L47.5799 54.9591L47.5299 54.8993L47.5499 54.9292L47.5899 54.9691L47.6999 55.0887L44.7999 57.5895L44.6599 57.4301L44.7099 57.4899L44.7299 57.5198L44.6899 57.47L44.6499 57.4201L44.7299 57.5098L44.7199 57.4998L44.6699 57.4401L44.6499 57.4301L44.6399 57.4102L44.6099 57.3803L44.6399 57.4102L44.7199 57.4998L47.4399 54.7997L47.5199 54.8794L47.5399 54.9093L47.5499 54.9193L47.5599 54.9292L47.5799 54.9591L47.6199 54.999L47.6499 55.0289ZM51.6299 52.5977L49.0199 55.3975L48.9699 55.3577L48.9599 55.3477L48.5999 54.8495L48.9599 55.3477L49.4499 55.7064L48.9499 55.3377L48.9399 55.3278L48.5799 54.8296L48.9399 55.3278V55.3178L48.5699 54.8196L48.9299 55.3178L48.7999 55.1783L51.7699 52.7572L51.6499 52.6177L52.0099 53.1159L51.6499 52.6177L51.6599 52.6276L52.0199 53.1258L51.6599 52.6276V52.6376H51.6699L51.1699 52.2789L51.6699 52.6376L52.0299 53.1358L51.6699 52.6376V52.6476H51.6799L51.6299 52.5977ZM49.0199 55.3975L48.9999 55.3876L48.9699 55.3577L49.0199 55.3975ZM49.0499 55.4374L49.0199 55.3975L51.6299 52.5977L51.6599 52.6276L51.6799 52.6476L49.0499 55.4374ZM51.6599 52.6276L51.6699 52.6376L51.6799 52.6476L51.6599 52.6276ZM50.4799 52.6177L53.0199 55.4972L52.9199 55.5868L52.7999 55.6765L52.6799 55.7562L52.5699 55.826L52.4499 55.8857L52.3199 55.9555L52.1999 56.0053L52.0799 56.0551L51.9499 56.095L51.7999 56.1348L51.6699 56.1647L51.5499 56.1946L51.4099 56.2145L51.2599 56.2245H51.1399H51.0199H50.8799L50.7399 56.2145L50.6199 56.1946L50.4699 56.1647L50.3299 56.1348L50.2199 56.1049L50.0799 56.0651L49.9499 56.0053L49.8499 55.9654L49.7199 55.9057L49.5699 55.826L49.4599 55.7562L49.3499 55.6765L49.2599 55.6068L49.1399 55.5171L49.0299 55.4174L51.6799 52.6476L51.6399 52.6177L51.6099 52.5778L51.5899 52.5678L51.5599 52.5479L51.5299 52.528L51.4699 52.4981L51.4299 52.4782L51.4099 52.4682L51.3699 52.4583L51.3199 52.4383H51.2999L51.2499 52.4184L51.1999 52.4084H51.1699H51.1199H51.0699H51.0499H51.0199H50.9699L50.9199 52.4184H50.8999L50.8499 52.4284L50.7999 52.4483L50.7499 52.4583L50.7299 52.4682L50.6999 52.4881L50.6499 52.5081L50.6099 52.528L50.5799 52.5479L50.5499 52.5678L50.5099 52.5977L50.4799 52.6276V52.6177ZM50.4799 52.6276V52.6177L50.2999 52.7871L50.4799 52.6276ZM62.6499 47.0679L53.0199 55.4972L50.4799 52.6177L60.1099 44.1984L62.6499 47.0679ZM59.9899 46.0018L62.8799 43.4711L62.9599 43.5707L63.0399 43.6803L63.0999 43.77L63.1899 43.9094L63.2399 44.0091L63.2899 44.1087L63.3499 44.2482L63.3799 44.3379L63.4199 44.4674L63.4599 44.6069L63.4799 44.7165L63.4899 44.8161L63.5099 44.9556V45.1051V45.2047V45.3143L63.4999 45.414L63.4899 45.5535L63.4599 45.6929L63.4299 45.8025L63.3999 45.9321L63.3599 46.0417L63.3199 46.1413L63.2599 46.2609L63.2099 46.3605L63.1299 46.5L63.0499 46.6196L63.0099 46.6793L62.9299 46.7889L62.8199 46.9085L62.7399 46.9783L62.6499 47.0679L60.1099 44.1984L60.0599 44.2383L60.0299 44.2681L59.9699 44.3478L59.9299 44.3977L59.9199 44.4176L59.8699 44.4774L59.8199 44.567L59.7999 44.6069L59.7699 44.6667L59.7499 44.7165L59.7399 44.7663L59.7199 44.8361L59.7099 44.8859L59.6899 44.9656L59.6799 45.0353V45.0852V45.135V45.1748V45.2545L59.6899 45.3342V45.3741L59.6999 45.414L59.7199 45.5036L59.7499 45.5734L59.7599 45.6033L59.7899 45.683L59.8099 45.7228L59.8299 45.7627L59.8899 45.8623L59.9099 45.8922L59.9499 45.942L59.9899 45.9918V46.0018ZM62.8799 43.4711L62.9699 43.5707L62.8799 43.4711ZM60.9399 41.279L62.8799 43.4711L59.9899 46.0018L58.0599 43.7998L60.9399 41.279ZM58.0599 43.7998L57.9699 43.7002L58.0599 43.7998ZM59.8699 43.9194L57.3299 41.0399L57.4299 40.9602L57.5399 40.8805L57.6299 40.8207L57.7699 40.7311L57.8699 40.6812L57.9599 40.6414L58.0899 40.5816L58.1999 40.5417L58.3399 40.5019L58.4699 40.462L58.5699 40.4421L58.6799 40.4321L58.8199 40.4122H58.9599H59.0699H59.1699L59.3199 40.4222L59.4099 40.4421L59.5199 40.462L59.6999 40.5019L59.7999 40.5318L59.8999 40.5617L60.0399 40.6215L60.1299 40.6613L60.2299 40.7111L60.3399 40.7709L60.4599 40.8506L60.5699 40.9303L60.6799 41.02L60.7799 41.0997L60.8499 41.1794L60.9399 41.279L58.0599 43.7998L58.0999 43.8497L58.1299 43.8796L58.1799 43.9294L58.2399 43.9692L58.2999 44.0091L58.3699 44.0589L58.4199 44.0888L58.4699 44.1087L58.4999 44.1287L58.5799 44.1585L58.6299 44.1685L58.6599 44.1884L58.7799 44.2084L58.8299 44.2183L58.8699 44.2283H58.9499L58.9899 44.2383H59.0399L59.1199 44.2283L59.1999 44.2183H59.2399L59.2799 44.2084L59.3599 44.1884L59.4399 44.1685L59.4799 44.1486L59.5599 44.1187L59.5899 44.0988L59.6299 44.0788L59.7299 44.0191L59.7599 43.9991L59.8099 43.9593L59.8699 43.9194ZM47.6999 49.4692L57.3299 41.0399L59.8699 43.9194L50.2399 52.3387L47.6999 49.4791V49.4692ZM47.6999 49.4791V49.4692L47.6599 49.509L47.6999 49.4791ZM50.2799 51.0534L47.3899 53.5742L47.3099 53.4646L47.2099 53.335L47.1499 53.2454L47.0799 53.1159L47.0099 52.9863L46.9499 52.8568L46.8899 52.7273L46.8499 52.6077L46.8099 52.4682L46.7699 52.3287L46.7499 52.1992L46.7299 52.0796L46.7099 51.9401L46.6999 51.7907V51.6711V51.5316L46.7199 51.3921L46.7299 51.2726L46.7499 51.1331L46.7799 50.9936L46.8199 50.8641L46.8599 50.7345L46.9099 50.605L46.9599 50.4854L47.0099 50.3659L47.0799 50.2463L47.1499 50.1168L47.2399 49.9873L47.3099 49.8876L47.3999 49.778L47.4999 49.6684L47.5899 49.5788L47.6999 49.4791L50.2499 52.3387L50.2799 52.2988L50.2999 52.2789L50.3299 52.249L50.3599 52.2092L50.3699 52.1992L50.3999 52.1494L50.4299 52.0996L50.4499 52.0597L50.4699 52.0398L50.4799 52.0099L50.4899 51.9601L50.5099 51.9202L50.5199 51.8903L50.5299 51.8405V51.7907L50.5399 51.7708V51.7209V51.6711V51.6512V51.6014L50.5299 51.5615V51.5316L50.5199 51.4918L50.5099 51.442L50.4899 51.4021V51.3722L50.4699 51.3324L50.4499 51.2925L50.4299 51.2427L50.4099 51.2128L50.3999 51.1929L50.3599 51.153L50.2799 51.0534ZM47.3899 53.5742L47.3499 53.5244L47.3099 53.4646L47.3899 53.5742ZM48.8399 55.2281L47.3899 53.5742L50.2799 51.0534L51.7299 52.7073L51.7699 52.7572L48.8399 55.2281ZM51.7299 52.7073L51.7399 52.7173L51.7699 52.7572L51.7299 52.7073ZM58.6099 46.3605L57.5199 45.115L60.3999 42.5942L61.4999 43.8397L61.3199 46.5299L58.6099 46.3605ZM61.4999 43.8397L62.7599 45.2745L61.3199 46.5299L61.4999 43.8397ZM49.8199 51.5117L58.7899 43.6604L61.3199 46.5299L52.3599 54.3812L49.6499 54.2118L49.8199 51.5117ZM52.3599 54.3812L50.9099 55.6466L49.6499 54.2118L52.3599 54.3812ZM51.4399 50.4456L52.5299 51.6811L49.6499 54.2118L48.5499 52.9664L48.7299 50.2663L51.4399 50.4456ZM48.5499 52.9664L47.2799 51.5316L48.7299 50.2663L48.5499 52.9664ZM60.2299 45.2944L51.2599 53.1358L48.7299 50.2663L57.6899 42.4149L60.3999 42.5942L60.2299 45.2944ZM57.6899 42.4149L59.1399 41.1595L60.3999 42.5942L57.6899 42.4149ZM67.8099 34.3344L67.5499 34.5636L65.0099 31.694L65.2799 31.4649L65.3099 31.435L67.8099 34.3344ZM65.2799 31.4649L65.2999 31.435H65.3099L65.2799 31.4649ZM68.7599 31.6841L65.8699 34.2049L65.8999 34.2447L65.9599 34.3045L65.9999 34.3444L66.0299 34.3643L66.0999 34.4241L66.1799 34.4739L66.2099 34.4938L66.2499 34.5137L66.3299 34.5536L66.3999 34.5835L66.4499 34.6034L66.4999 34.6233L66.5699 34.6333L66.6199 34.6532L66.6799 34.6632L66.7499 34.6732H66.8099L66.8699 34.6831H66.9299L66.9899 34.6732L67.0899 34.6632L67.1499 34.6532H67.1799L67.2299 34.6433L67.3299 34.6134L67.3899 34.5935L67.4399 34.5735L67.4999 34.5436L67.5599 34.5137L67.6499 34.4639L67.6699 34.444L67.6999 34.4241L67.7699 34.3643L65.3099 31.435L65.4299 31.3353L65.4999 31.2855L65.5699 31.2357L65.7099 31.156L65.8199 31.1062L65.9299 31.0564L66.0199 31.0165L66.1399 30.9766L66.2799 30.9368L66.3899 30.9069L66.4599 30.8969L66.5699 30.877L66.7299 30.8571H66.8399H66.9599H67.0699L67.1799 30.867L67.2999 30.887L67.4099 30.9069L67.5199 30.9268L67.6399 30.9667L67.7399 30.9966L67.8399 31.0364L67.9499 31.0863L68.0799 31.146L68.1599 31.1959L68.2499 31.2457L68.3699 31.3254L68.4799 31.415L68.5499 31.4748L68.6299 31.5545L68.7299 31.6542L68.7599 31.6841ZM68.7299 31.6542L68.7399 31.6641L68.7599 31.6841L68.7299 31.6542ZM70.5499 39.5155L65.8699 34.2049L68.7599 31.6841L73.4299 36.9847L70.5499 39.5155ZM70.5499 39.5155L70.4799 39.4358L70.5499 39.5155ZM73.2099 40.4521L70.6699 37.5825L70.6799 37.5726L70.6199 37.6224L70.5799 37.6722L70.5399 37.7121L70.4899 37.7818L70.4499 37.8416L70.4099 37.8914L70.3799 37.9512L70.3399 38.0309L70.3299 38.0508L70.2999 38.1206L70.2599 38.2202L70.2499 38.27L70.2399 38.3298L70.2199 38.3996V38.4593L70.2099 38.5191V38.5789V38.6387V38.6985L70.2199 38.7981L70.2299 38.8579L70.2399 38.9177L70.2599 38.9675L70.2699 39.0273L70.3099 39.1269L70.3199 39.1568L70.3399 39.2066L70.3799 39.2764L70.4399 39.376L70.4799 39.4258L70.4999 39.4557L70.5499 39.5155L73.4299 36.9847L73.5199 37.0943L73.5699 37.1641L73.6399 37.2537L73.7299 37.4032L73.7999 37.5228L73.8399 37.6224L73.8699 37.6921L73.9299 37.8416L73.9599 37.9612L73.9899 38.0708L74.0099 38.1704L74.0299 38.28L74.0399 38.4394L74.0499 38.549V38.6586L74.0399 38.7682L74.0299 38.8878L74.0199 38.9974L73.9899 39.1169L73.9699 39.2265L73.9399 39.3262L73.8899 39.4856L73.8399 39.5952L73.8099 39.6649L73.7399 39.7945L73.6799 39.8941L73.6199 39.9937L73.5499 40.0934L73.4599 40.203L73.3799 40.2926L73.2999 40.3724L73.1999 40.462L73.2099 40.4521ZM70.6699 37.5825L70.6799 37.5726H70.6899L70.6699 37.5825ZM70.4099 37.8217L70.6699 37.5825L73.2099 40.4521L72.9499 40.6812L72.9399 40.6912L70.4099 37.8217ZM72.9499 40.6812L72.9399 40.6912L72.9299 40.7012L72.9499 40.6812ZM69.4599 40.462L72.3499 37.9412L72.2999 37.8914L72.2399 37.8316L72.1899 37.7918L72.1699 37.7619L72.0899 37.7121L72.0099 37.6622L71.9999 37.6523L71.9199 37.6124L71.8199 37.5726L71.8099 37.5626L71.7599 37.5427L71.6499 37.5128L71.5899 37.5028L71.5299 37.4929L71.4699 37.4829L71.4099 37.4729H71.3499H71.2499L71.1899 37.4829H71.1699L71.0699 37.4929L71.0099 37.5028L70.9499 37.5228L70.8799 37.5427L70.8299 37.5626L70.7499 37.5925L70.6899 37.6224L70.6299 37.6523L70.5899 37.6822L70.5399 37.7121L70.4699 37.7619L70.4199 37.8117L72.9399 40.6912L72.8399 40.7709L72.7299 40.8606L72.6299 40.9204L72.5399 40.9702L72.4399 41.03L72.3299 41.0798L72.1999 41.1396L72.0999 41.1694L71.9799 41.2093L71.8599 41.2392L71.7599 41.2591L71.5999 41.279L71.5299 41.289L71.4199 41.299H71.2599H71.1499L71.0399 41.279L70.9299 41.2691L70.8199 41.2492L70.6999 41.2193L70.5399 41.1794L70.4399 41.1396L70.3799 41.1196L70.2399 41.0499L70.1099 40.9901L70.0599 40.9502L69.9199 40.8705L69.8099 40.7908L69.7399 40.7311L69.6499 40.6513L69.5499 40.5517L69.4599 40.462ZM72.3499 37.9412L72.4299 38.0409L72.3499 37.9412ZM67.6699 32.6306L72.3499 37.9412L69.4599 40.462L64.7899 35.1614H64.7799L67.6699 32.6306ZM64.7899 35.1614H64.7799L64.6999 35.0617L64.7899 35.1614ZM65.0099 31.694L67.5499 34.5636H67.5399L67.5999 34.5237L67.6599 34.454L67.6999 34.4141L67.7199 34.3842L67.7699 34.3145L67.8099 34.2547L67.8299 34.2148L67.8899 34.1052L67.8999 34.0753L67.9199 34.0355L67.9499 33.9359L67.9699 33.8761L67.9899 33.8063L67.9999 33.7465V33.6967L68.0099 33.6369V33.5672V33.5074V33.4576L67.9999 33.348L67.9899 33.2882L67.9799 33.2384L67.9599 33.1687L67.9399 33.1089L67.9099 33.0192L67.8999 33.0092L67.8799 32.9494L67.8299 32.8498L67.7899 32.79L67.7499 32.7402L67.7199 32.7004L67.6699 32.6406L64.7799 35.1614L64.6999 35.0617L64.6299 34.9721L64.5699 34.8724L64.4999 34.7628L64.4299 34.6233L64.3799 34.5137L64.3499 34.454L64.2999 34.3145L64.2599 34.1949L64.2299 34.0853L64.2099 33.9757L64.1899 33.8661L64.1799 33.7067L64.1699 33.5971V33.4875L64.1799 33.3679L64.1899 33.2583L64.1999 33.1487L64.2199 33.0391L64.2499 32.9295L64.2799 32.81L64.3299 32.6705L64.3699 32.5708L64.4099 32.4911L64.4899 32.3317L64.5399 32.252L64.5999 32.1524L64.6899 32.0328L64.7499 31.9631L64.8199 31.8734L64.9199 31.7737L65.0099 31.6841V31.694ZM67.5499 34.5636H67.5399L67.4599 34.6433L67.5499 34.5636ZM66.5499 39.087L65.7799 38.2202L68.6699 35.6994L69.4299 36.5563L69.2599 39.2564L66.5499 39.087ZM69.4299 36.5563L70.6999 38.001L69.2599 39.2564L69.4299 36.5563ZM64.2199 38.5789L66.7199 36.3869L69.2599 39.2564L66.7499 41.4484L64.0399 41.279L64.2199 38.5789ZM66.7499 41.4484L65.3099 42.7138L64.0399 41.279L66.7499 41.4484ZM66.1699 37.8914L66.9299 38.7483L64.0399 41.279L63.2799 40.4122L63.4599 37.7121L66.1699 37.8914ZM63.2799 40.4122L62.0099 38.9774L63.4599 37.7121L63.2799 40.4122ZM68.4899 38.3896L65.9899 40.5816L63.4599 37.7121L65.9599 35.5201L68.6699 35.6994L68.4899 38.3896ZM65.9599 35.5201L67.3999 34.2547L68.6699 35.6994L65.9599 35.5201ZM62.0699 38.3597L61.2699 39.0572L58.7399 36.1876L59.5399 35.4802L62.0699 38.3597ZM62.5199 35.6795L59.6299 38.2003L59.6499 38.2202L59.6999 38.28L59.8799 38.4394L59.8699 38.4294L59.9499 38.4793L60.0199 38.5291L60.1099 38.5789L60.1599 38.6088L60.2899 38.6686L60.3899 38.6985L60.3399 38.6885L60.4799 38.7284L60.5899 38.7583L60.7099 38.7682H60.6999L60.8199 38.7782L60.9299 38.7881L61.0399 38.7782H61.1499V38.7682L61.2699 38.7583L61.4899 38.6985L61.5199 38.6885L61.4699 38.6985L61.6699 38.6188L61.6999 38.6088L61.9199 38.4793L61.9899 38.4294H61.9799L62.0699 38.3597L59.5399 35.4802L59.6399 35.4005L59.6499 35.3905L59.7399 35.3308L59.9799 35.1913L59.9899 35.1813L60.0399 35.1514L60.2599 35.0717L60.2299 35.0817L60.2699 35.0617L60.5099 35.002L60.6399 34.982L60.6699 34.9721L60.7899 34.9621H60.9299H61.0699L61.2099 34.982H61.2199L61.3499 35.002L61.4699 35.0318L61.6299 35.0817L61.5999 35.0717L61.7199 35.1116L61.8699 35.1813L61.9299 35.2112L62.0399 35.271L62.1299 35.3308L62.2199 35.3905V35.4005L62.4199 35.5699L62.4799 35.6396L62.5199 35.6795ZM65.7699 45.1649L59.6299 38.2003L62.5199 35.6795L68.6599 42.6441L65.7699 45.1649ZM68.4599 45.6033L65.9299 42.7337L65.8499 42.8135L65.7999 42.8633L65.7399 42.9231L65.7499 42.9131L65.6499 43.0426L65.5699 43.1721L65.5199 43.2519L65.4799 43.3515L65.4299 43.491L65.3999 43.5906V43.5807V43.5707L65.3799 43.6803L65.3399 43.9194V43.9094H65.3499V44.1486L65.3599 44.2681L65.3499 44.2383V44.2482L65.3699 44.3578L65.3999 44.4674L65.4399 44.6069L65.4699 44.6667L65.4599 44.6567L65.5199 44.7962L65.5699 44.8859L65.6499 45.0154L65.6999 45.0852V45.0752L65.7699 45.1649L68.6599 42.6441L68.7399 42.7437L68.7499 42.7537L68.8099 42.8334L68.8999 42.9828L68.9599 43.0825L69.0299 43.2419V43.2519L69.0599 43.3216L69.1099 43.481L69.1399 43.6105L69.1599 43.7401V43.77V43.76L69.1799 43.8895V44.1486V44.1685V44.1785L69.1399 44.4375L69.1099 44.5571V44.567V44.577L69.0699 44.6966L69.0099 44.856L68.9599 44.9656L68.8999 45.0652V45.0752L68.8099 45.2246L68.6999 45.3641L68.6899 45.3741L68.6299 45.4439L68.5599 45.5136L68.4599 45.6033ZM65.1299 43.4312L65.9299 42.7337L68.4599 45.6033L67.6599 46.3107L67.6399 46.3306L65.1299 43.4312ZM67.6599 46.3107L67.6399 46.3306L67.6599 46.3107ZM64.6799 46.1114L67.5699 43.5906L67.5599 43.5807L67.4899 43.5109L67.4399 43.4611L67.3799 43.4013L67.3899 43.4113L67.2599 43.3116L67.1199 43.2319L67.0399 43.1821L66.9399 43.1422H66.9499L66.9599 43.1522L66.8199 43.0924L66.7199 43.0625L66.6099 43.0426L66.4899 43.0227H66.4999L66.3799 43.0127L66.2699 43.0028L66.1499 43.0127H66.1599H66.1699L65.9299 43.0426L65.8199 43.0625L65.7199 43.0924L65.5799 43.1422H65.5899L65.4999 43.1821L65.4099 43.2319H65.4199L65.3399 43.2718L65.2199 43.3615L65.1499 43.4113L67.6399 46.3306L67.5599 46.3904L67.4199 46.49L67.3199 46.5498L67.2099 46.6096L67.0999 46.6594H67.0899L66.9399 46.7192L66.8099 46.7591L66.6799 46.7889L66.4199 46.8288H66.3999H66.2699H66.1399L65.9899 46.8089L65.8499 46.7889L65.7299 46.7591L65.6099 46.7292L65.4499 46.6594H65.4399H65.4299L65.3199 46.6096L65.2199 46.5498L65.0699 46.4601L64.9299 46.3505L64.9199 46.3406L64.8399 46.2808L64.7799 46.2111L64.6999 46.1313L64.6799 46.1114ZM64.6999 46.1313L64.6799 46.1114L64.6699 46.1014L64.6999 46.1313ZM66.8499 42.7736L67.5699 43.5906L64.6799 46.1114L63.9699 45.3044L66.8499 42.7736ZM62.1499 37.4431L66.8499 42.7736L63.9699 45.3044L59.2599 39.9639L62.1499 37.4431ZM61.4299 36.626L62.1499 37.4431L59.2599 39.9639L58.5399 39.1468L61.4299 36.626ZM58.7399 36.1876L61.2699 39.0572L61.2799 39.0472L61.3499 38.9774L61.3999 38.9276L61.4599 38.8678L61.4499 38.8778L61.5499 38.7483L61.6299 38.6188L61.6799 38.5291V38.5391L61.7199 38.4394L61.7699 38.2999V38.3099L61.7999 38.2102L61.8299 38.1007L61.8499 37.9911L61.8399 38.001L61.8599 37.8815V37.7619V37.7718V37.6523L61.8499 37.5526V37.5427L61.8299 37.4331L61.7699 37.2139L61.7599 37.184L61.7699 37.2239L61.6999 37.0345L61.6799 36.9947V37.0046L61.5499 36.7755L61.4999 36.7057V36.7157L61.4299 36.626L58.5399 39.1468L58.4599 39.0472L58.4499 39.0372L58.3899 38.9575L58.2499 38.7184L58.2399 38.7084L58.2199 38.6487L58.1299 38.4394L58.1399 38.4693L58.1199 38.4195L58.0599 38.1804L58.0399 38.0508V38.0309L58.0199 37.9014V37.7718V37.7619V37.6224L58.0399 37.4929V37.4829L58.0599 37.3534L58.0899 37.2239L58.1299 37.1043V37.0943L58.1899 36.9349L58.2399 36.8253L58.2499 36.8153L58.2999 36.7157L58.3899 36.5663L58.4999 36.4268L58.5099 36.4168L58.5699 36.347L58.6399 36.2773L58.7199 36.1976L58.7399 36.1876ZM58.7199 36.1976L58.7399 36.1876L58.8099 36.1179L58.7199 36.1976ZM48.4399 53.9926L48.6099 54.1919L45.7199 56.7127L45.5499 56.5135L48.4399 53.9926ZM48.4399 53.9926L48.5099 54.0724L48.4399 53.9926ZM45.7699 53.1258L48.2999 56.0053H48.3099L48.3699 55.9356L48.4299 55.8857V55.8758L48.4999 55.7961L48.5399 55.7363L48.5899 55.6665L48.6299 55.5968L48.6599 55.537L48.6699 55.5071L48.6999 55.4274L48.7199 55.3676L48.7399 55.2979L48.7599 55.2182L48.7699 55.1983L48.7799 55.0787L48.7899 54.999V54.979V54.8993V54.8296L48.7799 54.7499L48.7699 54.6901L48.7499 54.6104L48.7299 54.5307L48.7099 54.4709L48.6899 54.4111L48.6799 54.3912L48.6499 54.3215L48.5799 54.1919L48.5499 54.1421V54.1321L48.4799 54.0524L48.4399 53.9926L45.5499 56.5135L45.4699 56.4238L45.3799 56.2943L45.3399 56.2444L45.2899 56.1647L45.1999 55.9953L45.1399 55.8758L45.1199 55.816L45.0799 55.7064L45.0399 55.5968L45.0099 55.4772L44.9899 55.3477L44.9699 55.2381L44.9599 55.1185L44.9499 54.999V54.8794V54.8097L44.9599 54.6801L44.9899 54.5207L44.9999 54.451L45.0299 54.3215L45.0599 54.2118L45.0999 54.1022L45.1499 53.9827L45.1799 53.903L45.2299 53.8133L45.2999 53.6937L45.3699 53.5841L45.4399 53.4845L45.5399 53.3649L45.5799 53.3251L45.6599 53.2354L45.7699 53.1358V53.1258ZM45.7699 53.1358V53.1258L45.6999 53.1956L45.7699 53.1358ZM48.8599 55.5171L48.2999 56.0053L45.7699 53.1258L46.3299 52.6376L49.0399 52.8169L48.8599 55.5171ZM46.3299 52.6376L47.7799 51.3822L49.0399 52.8169L46.3299 52.6376ZM46.9699 56.2743L46.1599 55.3377L49.0399 52.8169L49.8599 53.7436L49.6799 56.4437L46.9699 56.2743ZM49.8599 53.7436L51.1299 55.1783L49.6799 56.4437L49.8599 53.7436ZM46.5899 54.0624L47.1499 53.5642L49.6799 56.4437L49.1199 56.9319L49.0799 56.9718L46.5899 54.0624ZM49.1199 56.9319L49.1099 56.9419L49.0799 56.9718L49.1199 56.9319ZM45.7199 56.7127L48.6099 54.1919L48.5699 54.1521L48.5199 54.0923L48.4599 54.0425L48.4299 54.0126L48.3699 53.9727L48.2999 53.9229L48.2699 53.903L48.1999 53.8631L48.1399 53.8332L48.0599 53.8033L47.9999 53.7735L47.9599 53.7635L47.8899 53.7436L47.7799 53.7236L47.7499 53.7137H47.7199L47.6499 53.7037H47.5699H47.4999H47.4199L47.3499 53.7137L47.2799 53.7236H47.2499L47.1899 53.7436L47.1099 53.7635L47.0399 53.7834L46.9699 53.8133L46.8899 53.8532L46.8399 53.8831L46.8099 53.903L46.7399 53.9428L46.6999 53.9727L46.6299 54.0225L49.0799 56.9718L48.9699 57.0515L48.8899 57.1113L48.7799 57.181L48.7099 57.2209L48.6099 57.2707L48.4899 57.3305L48.3699 57.3803L48.2599 57.4102L48.1399 57.45L48.0299 57.47L47.9599 57.4899L47.8399 57.5098L47.7199 57.5198L47.5999 57.5297H47.4699L47.3499 57.5198L47.2399 57.5098L47.1599 57.4998L47.0799 57.4799L46.9299 57.45L46.8099 57.4102L46.7299 57.3902L46.6199 57.3504L46.4999 57.3006L46.3999 57.2508L46.2899 57.181L46.2199 57.1412L46.1099 57.0615L46.0099 56.9917L45.9399 56.9319L45.8499 56.8422L45.7599 56.7625L45.7199 56.7127ZM45.7599 56.7625L45.7299 56.7227L45.7199 56.7127L45.7599 56.7625ZM47.1699 55.4573L45.7199 56.7127L47.1699 55.4573ZM45.7599 56.7625L45.7299 56.7227L45.7199 56.7127L45.7599 56.7625ZM61.4299 41.4584L49.6999 51.7309L47.1599 48.8514L58.8999 38.5889L61.6099 38.7583L61.4299 41.4584ZM58.8999 38.5889L60.3399 37.3235L61.6099 38.7583L58.8999 38.5889ZM62.5799 45.6631L58.7199 41.289L61.6099 38.7583L65.4699 43.1323L65.2899 45.8324L62.5799 45.6631ZM65.4699 43.1323L66.7399 44.577L65.2899 45.8324L65.4699 43.1323ZM51.0199 53.2354L62.7599 42.9629L65.2899 45.8324L53.5599 56.1049L53.5499 56.1149L51.0199 53.2354ZM53.5599 56.1049L53.5499 56.1149L53.5899 56.085L53.5599 56.1049ZM48.4599 56.0053L51.0799 53.2055L51.1099 53.2354V53.2254H51.0999L51.0899 53.2155L51.0999 53.2254L51.0899 53.2155H51.0799H51.0899H51.0599H51.0699H51.0599H51.0699H51.0599H51.0699H51.0499H51.0399H51.0499L51.0399 53.2254H51.0299H51.0399H51.0299L53.5499 56.1149L53.4099 56.2345L53.2599 56.3441L53.1099 56.4437L52.9699 56.5334L52.8099 56.6131L52.6499 56.6928L52.4899 56.7625L52.3199 56.8323L52.1599 56.8821L51.9999 56.922L51.8199 56.9618L51.6499 56.9917L51.4899 57.0216L51.3099 57.0316L51.1399 57.0415H50.9699L50.7999 57.0316L50.6399 57.0216L50.4399 56.9917L50.2799 56.9618L50.1199 56.922L49.9499 56.8721L49.7899 56.8124L49.6299 56.7526L49.4599 56.6828L49.3099 56.6131L49.1599 56.5234L48.9999 56.4238L48.8499 56.3241L48.7099 56.2145L48.5699 56.1049L48.4399 55.9754L48.4599 56.0053ZM51.0799 53.2055L51.1099 53.2354L51.0899 53.2155L51.0799 53.2055ZM48.2299 55.7662L51.1199 53.2354V53.2454L51.1499 53.2852H51.1599L51.0399 53.1657H51.0499L51.1699 53.2952L51.0499 53.1756L51.1699 53.3052H51.1799L50.9299 53.066L51.0599 53.1856L51.1799 53.3151L51.0699 53.1956H51.0799V53.2055L51.1999 53.335L51.0899 53.2055L50.9599 53.0959L51.2099 53.345L51.0899 53.2155L50.9699 53.1059L51.0999 53.2254H51.1099V53.2354L50.9899 53.1159V53.1258L51.2399 53.3749L51.1199 53.2454L50.9999 53.1358L51.0799 53.2055L48.4599 56.0053L48.5399 56.075L48.4099 55.9555L48.2899 55.826L48.5299 56.0651L48.3999 55.9356H48.3899V55.9256L48.5099 56.0452L48.3799 55.9256L48.2599 55.7961L48.4999 56.0352L48.3699 55.9156L48.2499 55.7861L48.3699 55.9057H48.3599V55.8957L48.2299 55.7662L48.3499 55.8857L48.4699 56.0053L48.2199 55.7562L48.3399 55.8758L48.2199 55.7463L48.3299 55.8658L48.2099 55.7363H48.1999V55.7263L48.2199 55.7562L48.2299 55.7662ZM51.1199 53.2354V53.2454L51.0599 53.1756L51.1199 53.2354ZM49.6999 51.6412L51.1199 53.2354L48.2299 55.7662L46.8199 54.162L49.6899 51.6213L49.6999 51.6412ZM49.6899 51.6213L49.6999 51.6412L49.7699 51.711L49.6899 51.6213ZM46.6299 53.9329L49.7099 51.6512L49.6699 51.5914L49.6499 51.5715L49.7799 51.7409L49.6599 51.5814L49.6899 51.6213L49.6699 51.5914V51.6014L49.7999 51.7608L49.6799 51.6014V51.6113L49.8099 51.7708V51.7807L49.6899 51.6213L49.8199 51.7907L49.6999 51.6313L49.7299 51.6612L49.5899 51.5117L49.7099 51.6412L49.8299 51.8106L49.7099 51.6512H49.7199V51.6612L49.6099 51.5416L49.7499 51.701L49.7299 51.6711L49.6899 51.6213L46.8299 54.182L46.7799 54.1222L46.7599 54.0923L46.8999 54.2417L46.7699 54.1122V54.1022H46.7599L46.6399 53.9329L46.7599 54.0923L46.8699 54.2118L46.7299 54.0524L46.7499 54.0823L46.6199 53.9129L46.7399 54.0724L46.6099 53.903V53.893L46.7299 54.0524L46.5999 53.8831L46.7199 54.0425L46.6899 54.0126L46.7099 54.0325L46.5799 53.8631L46.6999 54.0225L46.6799 53.9926L46.6299 53.9329ZM46.6799 53.9926L46.6399 53.9528L46.6299 53.9329L46.6799 53.9926ZM47.1599 48.8514L49.6999 51.7309V51.7209H49.7099L49.7199 51.711H49.7099H49.7199V51.701V51.6911V51.701V51.6911V51.6811V51.6911V51.6711V51.6811V51.6711V51.6612V51.6512V51.6612V51.6512H49.7099L46.6299 53.9329L46.5299 53.7834L46.4299 53.634L46.3399 53.4745L46.2599 53.3251L46.1899 53.1657L46.1199 52.9963L46.0599 52.8269L46.0099 52.6675L45.9699 52.4881L45.9399 52.3188L45.9099 52.1494L45.8999 51.99L45.8799 51.8007V51.6313L45.8899 51.4718L45.8999 51.2925L45.9199 51.1231L45.9599 50.9537L45.9899 50.7943L46.0299 50.6349L46.0899 50.4556L46.1499 50.2961L46.2099 50.1467L46.2899 49.9773L46.3699 49.8278L46.4599 49.6784L46.5599 49.5289L46.6599 49.3895L46.7799 49.24L46.8999 49.1105L47.0299 48.9809L47.1599 48.8614V48.8514ZM47.1599 48.8614V48.8514L47.0999 48.9112L47.1599 48.8614ZM48.4299 50.2961L47.1599 48.8514L48.4299 50.2961ZM47.1599 48.8614V48.8514L47.0999 48.9112L47.1599 48.8614Z" fill="#8C52FF"/>
<path d="M45.7691 55.6572L41.6091 59.294C41.3391 59.5231 41.3091 59.9316 41.5391 60.2006C41.7791 60.4697 42.1891 60.4896 42.4491 60.2505L46.6191 56.6137L45.7691 55.6572Z" fill="#EBECEC"/>
<path d="M40.3409 57.8591L44.5109 54.2124L47.0409 57.0919L42.8809 60.7386L42.8509 60.7586L40.3409 57.8591ZM42.8809 60.7386L42.8509 60.7586L42.8809 60.7386ZM42.9909 58.9452L40.1009 61.466L40.0209 61.3663L39.9409 61.2567L39.8609 61.1471L39.8009 61.0475L39.7409 60.9379L39.6909 60.8183L39.6409 60.6988L39.5909 60.5892L39.5509 60.4497L39.5209 60.3102L39.5009 60.2106L39.4909 60.1109L39.4709 59.9714L39.4609 59.8319V59.7323L39.4709 59.5928L39.4809 59.4533L39.5009 59.3437L39.5209 59.2441L39.5509 59.1046L39.5909 59.005L39.6209 58.8954L39.6909 58.726L39.7309 58.6463L39.7909 58.5466L39.8709 58.4071L39.9309 58.3175L39.9909 58.2278L40.0809 58.1182L40.1909 58.0086L40.2809 57.9189L40.3709 57.8392L42.8509 60.7586L42.8909 60.7187L42.9409 60.6788L43.0009 60.6091L43.0409 60.5593L43.0709 60.5194L43.0909 60.4796L43.1409 60.3999L43.1709 60.35L43.1809 60.3202L43.2309 60.2106L43.2409 60.1707L43.2609 60.1209L43.2809 60.0511V60.0113L43.2909 59.9515L43.3009 59.8818V59.802V59.7622V59.6825L43.2909 59.6028V59.5629L43.2809 59.5231L43.2609 59.4533L43.2409 59.3736L43.2209 59.3138L43.1909 59.254L43.1609 59.1943L43.1309 59.1444L43.1109 59.1046L43.0709 59.0448L43.0209 58.985L42.9809 58.9352L42.9909 58.9452ZM42.9809 58.9352L42.9909 58.9452L42.8409 58.7658L42.9809 58.9352ZM41.1909 58.8156L43.7209 61.6852L43.7409 61.6752L43.6409 61.7549L43.5409 61.8346L43.4509 61.8944L43.3309 61.9741L43.2109 62.0439L43.0809 62.1037L42.9709 62.1435L42.8809 62.1834L42.7409 62.2332L42.6009 62.2631L42.4709 62.293L42.3709 62.3029L42.2609 62.3228H42.1609L42.0209 62.3328L41.8809 62.3228L41.7409 62.3129L41.6309 62.3029L41.5309 62.283L41.3909 62.2531L41.2509 62.2132L41.1509 62.1834L41.0509 62.1435L40.9209 62.0837L40.8209 62.0339L40.6909 61.9642L40.5809 61.8844L40.4709 61.8047L40.3809 61.745L40.3009 61.6652L40.1909 61.5656L40.1009 61.466L42.9909 58.9452L42.9409 58.8954L42.8809 58.8256L42.8409 58.7957L42.8109 58.7758L42.7509 58.7359L42.6909 58.6961L42.6209 58.6562L42.5809 58.6263L42.5009 58.5964L42.4609 58.5765L42.4209 58.5666L42.3409 58.5466L42.2609 58.5267L42.2209 58.5167H42.1709L42.1009 58.5068H42.0209H41.9409H41.8909L41.8509 58.5167H41.8109L41.7409 58.5367L41.6609 58.5566L41.5809 58.5865L41.5509 58.5964L41.5009 58.6164L41.4309 58.6463L41.3609 58.6861L41.3009 58.726L41.2709 58.7559L41.2209 58.7858L41.1609 58.8356L41.1909 58.8156ZM41.1609 58.8356L41.1909 58.8156L41.1309 58.8555L41.1609 58.8356ZM47.8809 58.0484L43.7209 61.6852L41.1909 58.8156L45.3509 55.169L48.0609 55.3483L47.8809 58.0484ZM48.0609 55.3483L49.3309 56.7831L47.8809 58.0484L48.0609 55.3483ZM47.2109 54.3918L48.0609 55.3483L45.1709 57.8691L44.3309 56.9126L44.5109 54.2124L47.2109 54.3918ZM44.5109 54.2124L45.9509 52.957L47.2109 54.3918L44.5109 54.2124Z" fill="#8C52FF"/>
<path d="M46.2092 56.2947C46.8492 57.0221 47.9592 57.0918 48.6992 56.4542L49.3392 55.8862C50.5192 56.6534 52.0692 56.5538 53.1292 55.6272L64.8692 45.3547L65.1692 45.6934C65.6992 46.3012 66.6292 46.361 67.2392 45.8329L68.0392 45.1255C68.6492 44.5875 68.7092 43.6708 68.1692 43.063L66.3292 40.9707L68.8292 38.7787L69.9392 40.0441C70.6092 40.7913 71.7592 40.871 72.5192 40.2134L72.7792 39.9743C73.5392 39.3167 73.6192 38.1609 72.9492 37.4137L68.2792 32.103C67.9592 31.7443 67.5092 31.5251 67.0192 31.4953C66.5392 31.4654 66.0592 31.6248 65.6992 31.9436L65.4392 32.1728C64.6792 32.8403 64.5992 33.9862 65.2692 34.7434L66.3792 35.9988L63.8792 38.1908L62.0292 36.0985C61.4992 35.4907 60.5692 35.4309 59.9592 35.9689L59.1592 36.6664C58.5492 37.2044 58.4892 38.1211 59.0292 38.7289L59.3192 39.0676L47.5892 49.3401C46.5292 50.2667 46.2292 51.7812 46.8392 53.0466L46.1892 53.6145C45.4592 54.2522 45.3892 55.3681 46.0292 56.0955C46.3892 56.504 45.8492 55.8862 46.2092 56.2947ZM50.2892 53.9633C50.2992 53.9732 50.3092 53.9931 50.3192 54.0031L50.3592 54.033C50.7392 54.4017 51.3492 54.4116 51.7492 54.0629L61.3792 45.6337C61.6392 45.4045 61.6692 44.996 61.4392 44.7369L59.4992 42.535C59.2692 42.2759 58.8592 42.246 58.5992 42.4752L48.9692 50.9044C48.5592 51.2631 48.4992 51.8809 48.8292 52.3093L50.2892 53.9633ZM58.9592 43.8601L60.0492 45.0956L51.0892 52.947L49.9892 51.7015L58.9592 43.8601ZM66.2792 33.1293L66.5392 32.9001C66.7692 32.7108 67.1092 32.7307 67.3192 32.9499L71.9892 38.2506C72.1892 38.4798 72.1692 38.8185 71.9392 39.0178L71.6792 39.247C71.4492 39.4462 71.0992 39.4263 70.8992 39.1971L66.2292 33.8965C66.0292 33.6673 66.0492 33.3286 66.2792 33.1293ZM67.2292 36.9553L67.9892 37.8222L65.4792 40.0142L64.7192 39.1473L67.2292 36.9553ZM59.9992 37.6229L60.8092 36.9254C60.8892 36.8557 60.9992 36.8557 61.0692 36.9354L67.2092 43.9C67.2792 43.9797 67.2792 44.0993 67.1992 44.169L66.3892 44.8764C66.3092 44.9362 66.1992 44.9362 66.1292 44.8565L65.4092 44.0395L60.7092 38.7089L59.9892 37.8919C59.9192 37.8122 59.9292 37.6926 59.9992 37.6229ZM47.1692 55.4578L46.9892 55.2585C46.8092 55.0592 46.8292 54.7504 47.0392 54.571L47.5992 54.0828L48.4192 55.0094L47.8492 55.4977C47.6492 55.667 47.3492 55.6471 47.1692 55.4578ZM48.4292 50.2966L60.1692 40.0241L64.0292 44.3982L52.2892 54.6707C51.5592 55.3083 50.4692 55.2785 49.7692 54.6109C49.7392 54.571 49.6992 54.5411 49.6692 54.5013L48.2592 52.8971C48.2292 52.8673 48.1992 52.8274 48.1692 52.7875C47.5892 52.0203 47.7092 50.9343 48.4292 50.2966Z" fill="white"/>
<path d="M45.7691 55.6562L41.6091 59.293C41.3391 59.5221 41.3091 59.9306 41.5391 60.1997C41.7791 60.4687 42.1891 60.4886 42.4491 60.2495L46.6191 56.6128L45.7691 55.6562Z" fill="white"/>
</svg>
