<svg width="80" height="80" viewBox="0 0 80 80" fill="none" xmlns="http://www.w3.org/2000/svg">
<path fill-rule="evenodd" clip-rule="evenodd" d="M40 0C62.09 0 80 17.91 80 40C80 62.09 62.09 80 40 80C17.91 80 0 62.09 0 40C0 17.91 17.91 0 40 0Z" fill="#8C52FF" fill-opacity="0.2"/>
<path d="M39.9995 74.5599C59.0864 74.5599 74.5594 59.0869 74.5594 39.9999C74.5594 20.913 59.0864 5.43994 39.9995 5.43994C20.9125 5.43994 5.43945 20.913 5.43945 39.9999C5.43945 59.0869 20.9125 74.5599 39.9995 74.5599Z" fill="#8C52FF"/>
<path d="M47.0694 27.1702C47.0494 27.1502 47.0294 27.1402 47.0194 27.1202L46.9694 27.0802C46.3694 26.5802 45.4794 26.6202 44.9294 27.1702L34.6294 37.4602C34.2694 37.8302 34.2694 38.4202 34.6294 38.7802L39.0694 43.2202C39.4294 43.5802 40.0194 43.5802 40.3894 43.2202L50.6794 32.9202C51.2394 32.3602 51.2694 31.4602 50.7494 30.8602L47.0694 27.1702ZM39.7294 41.2402L36.6094 38.1302L45.9994 28.7402L49.1194 31.8502L39.7294 41.2402Z" fill="white"/>
<path d="M54.2896 24.8802L60.0096 19.1602C60.3896 18.8002 60.3896 18.2002 60.0196 17.8302C59.6496 17.4602 59.0496 17.4702 58.6896 17.8402L52.9696 23.5602L52.7896 23.3802C51.7896 22.3802 50.1596 22.3802 49.1496 23.3802L48.2596 24.2702C46.4696 23.2602 44.2296 23.5602 42.7696 25.0102L26.6396 41.1302L26.1796 40.6702C25.3396 39.8302 23.9896 39.8302 23.1496 40.6702L22.0496 41.7702C21.2196 42.6102 21.2196 43.9602 22.0496 44.8002L24.9396 47.6802L21.4996 51.1202L19.7596 49.3802C18.7196 48.3402 17.0296 48.3402 15.9896 49.3802L15.6296 49.7402C14.5896 50.7802 14.5896 52.4702 15.6296 53.5102L24.3396 62.2302C24.8396 62.7202 25.5196 63.0102 26.2296 63.0102C26.9296 63.0102 27.6096 62.7202 28.1096 62.2302L28.4696 61.8602C29.5096 60.8202 29.5096 59.1402 28.4696 58.0902L26.7296 56.3502L30.1696 52.9202L33.0596 55.8002C33.8896 56.6402 35.2496 56.6402 36.0796 55.8002L37.1896 54.7002C38.0196 53.8602 38.0196 52.5102 37.1896 51.6702L36.7196 51.2102L52.8396 35.0902C54.2896 33.6302 54.5896 31.3802 53.5796 29.5902L54.4696 28.7002C55.4796 27.7002 55.4796 26.0602 54.4696 25.0602L54.2896 24.8802ZM27.1496 60.5402L26.7896 60.9102C26.4696 61.2102 25.9796 61.2102 25.6596 60.9102L16.9396 52.1902C16.6296 51.8802 16.6296 51.3702 16.9396 51.0602L17.3096 50.7002C17.6196 50.3902 18.1296 50.3902 18.4396 50.7002L27.1496 59.4102C27.4596 59.7302 27.4596 60.2302 27.1496 60.5402ZM25.4096 55.0402L22.8196 52.4402L26.2496 49.0002L28.8496 51.6002L25.4096 55.0402ZM35.8696 53.3802L34.7596 54.4802C34.6596 54.5902 34.4796 54.5902 34.3696 54.4802L23.3696 43.4802C23.2596 43.3702 23.2596 43.1902 23.3696 43.0902L24.4696 41.9802C24.5796 41.8802 24.7496 41.8802 24.8596 41.9802L25.9896 43.1102L34.7396 51.8702L35.8696 52.9902C35.9696 53.1002 35.9696 53.2702 35.8696 53.3802ZM51.4796 24.7002L53.1496 26.3802C53.4296 26.6502 53.4296 27.1102 53.1496 27.3802L52.3796 28.1602L49.6996 25.4702L50.4696 24.7002C50.7496 24.4302 51.1896 24.4302 51.4796 24.7002ZM51.5196 33.7702L35.3996 49.8902L27.9596 42.4502L44.0896 26.3302C45.0896 25.3302 46.6796 25.2702 47.7596 26.1902C47.8096 26.2302 47.8596 26.2802 47.9096 26.3302L51.5296 29.9402C51.5696 29.9902 51.6196 30.0402 51.6596 30.0902C52.5796 31.1702 52.5196 32.7702 51.5196 33.7702Z" fill="white"/>
<path d="M31.3694 41.7704C30.4894 40.9304 29.1994 42.2104 30.0494 43.0904L31.1494 44.1904C32.0294 45.0404 33.3194 43.7504 32.4694 42.8704L31.3694 41.7704Z" fill="white"/>
<path d="M33.5399 39.6003C32.6599 38.7203 31.3399 40.0403 32.2199 40.9203L33.3199 42.0203C33.6799 42.3803 34.2799 42.3803 34.6399 42.0203C34.9999 41.6503 34.9999 41.0603 34.6399 40.7003L33.5399 39.6003Z" fill="white"/>
<path d="M61.8201 23.1803C61.6301 22.9703 61.3701 22.8403 61.0801 22.8403C60.8001 22.8403 60.5301 22.9703 60.3501 23.1803C59.7001 24.0103 57.5801 26.8503 57.5801 28.4603C57.6001 30.3803 59.1601 31.9303 61.0801 31.9303C63.0001 31.9303 64.5701 30.3803 64.5901 28.4603C64.5901 26.8503 62.4701 24.0103 61.8201 23.1803ZM61.0801 30.1103C60.1801 30.1103 59.4401 29.3703 59.4401 28.4703C59.4401 27.9503 60.2001 26.6003 61.0801 25.3303C61.9701 26.6003 62.7301 27.9503 62.7301 28.4703C62.7201 29.3703 61.9901 30.1103 61.0801 30.1103Z" fill="white"/>
</svg>
