<svg width="80" height="80" viewBox="0 0 80 80" fill="none" xmlns="http://www.w3.org/2000/svg">
<path fill-rule="evenodd" clip-rule="evenodd" d="M40 0C62.09 0 80 17.91 80 40C80 62.09 62.09 80 40 80C17.91 80 0 62.09 0 40C0 17.91 17.91 0 40 0Z" fill="#8C52FF" fill-opacity="0.2"/>
<path d="M39.9995 74.5599C59.0864 74.5599 74.5594 59.0869 74.5594 39.9999C74.5594 20.913 59.0864 5.43994 39.9995 5.43994C20.9125 5.43994 5.43945 20.913 5.43945 39.9999C5.43945 59.0869 20.9125 74.5599 39.9995 74.5599Z" fill="#8C52FF"/>
<path d="M44.5203 48.13C43.2803 47.37 41.6603 47.6 40.6703 48.68C39.5603 49.89 38.5203 50.49 37.4903 50.51C36.5203 50.53 35.5003 50.01 34.4703 48.98L31.5403 46.05C30.5103 45.02 29.9903 44 30.0103 43.03C30.0403 42 30.6303 40.96 31.8403 39.85C32.9203 38.86 33.1503 37.24 32.3903 36C30.2303 32.48 27.4303 30.32 25.4703 29.13C24.2603 28.4 22.7203 28.59 21.7203 29.59L18.7903 32.52C17.1603 34.15 16.3403 36.09 16.3803 38.26C16.4603 43.42 21.3303 48.11 21.6703 48.43L24.0203 50.78C24.3903 51.15 24.9803 51.15 25.3403 50.78C25.7103 50.42 25.7103 49.83 25.3403 49.47L22.9803 47.11C22.9703 47.1 22.9703 47.09 22.9603 47.09C22.9103 47.04 18.3103 42.66 18.2403 38.22C18.2103 36.55 18.8303 35.12 20.1103 33.83L23.0303 30.91C23.4303 30.51 24.0303 30.44 24.5103 30.73C25.9703 31.61 28.7303 33.6 30.8103 36.97C31.1003 37.46 31.0103 38.09 30.5803 38.48C29.0003 39.93 28.1903 41.45 28.1503 42.99C28.1203 44.49 28.8203 45.96 30.2303 47.37L33.1503 50.29C34.5603 51.7 36.0303 52.4 37.5303 52.37C39.0703 52.34 40.5903 51.52 42.0403 49.94C42.4303 49.51 43.0603 49.42 43.5503 49.72C46.9203 51.79 48.9103 54.55 49.8003 56.01C50.0803 56.49 50.0103 57.09 49.6103 57.49L46.6903 60.41C45.4103 61.69 43.9703 62.3 42.3003 62.28C37.8603 62.21 33.4803 57.61 33.4403 57.56C33.4303 57.55 33.4203 57.55 33.4203 57.54L31.1303 55.25C30.7603 54.89 30.1703 54.89 29.8103 55.25C29.4503 55.61 29.4503 56.2 29.8103 56.57L32.0903 58.85C32.4103 59.19 37.1103 64.06 42.2603 64.14C42.3103 64.14 42.3503 64.14 42.4003 64.14C44.5203 64.14 46.4003 63.33 48.0003 61.73L50.9303 58.8C51.9303 57.8 52.1203 56.26 51.3903 55.05C50.2003 53.09 48.0503 50.29 44.5203 48.13Z" fill="white"/>
<path d="M49.5104 16.48C42.7004 16.48 37.1504 22.02 37.1504 28.84C37.1504 31.56 38.0104 34.12 39.6404 36.28V41.83C39.6404 42.47 40.3004 42.93 40.9004 42.7L46.1204 40.73C47.2204 41.04 48.3604 41.2 49.5104 41.2C56.3304 41.2 61.8704 35.66 61.8704 28.84C61.8704 22.02 56.3304 16.48 49.5104 16.48ZM49.5104 39.34C48.4404 39.34 47.3804 39.18 46.3604 38.86C46.1604 38.79 45.9504 38.8 45.7504 38.87L41.5004 40.49V35.99C41.5104 35.77 41.4404 35.55 41.3004 35.38C39.8004 33.5 39.0104 31.24 39.0104 28.84C39.0104 23.05 43.7204 18.34 49.5104 18.34C55.3004 18.34 60.0104 23.05 60.0104 28.84C60.0104 34.63 55.3004 39.34 49.5104 39.34Z" fill="white"/>
<path d="M49.6292 22.1802C49.1192 22.1802 48.6992 22.6002 48.6992 23.1102V30.1602C48.6992 30.6702 49.1192 31.0902 49.6292 31.0902C50.1492 31.0902 50.5592 30.6702 50.5592 30.1602V23.1102C50.5592 22.6002 50.1492 22.1802 49.6292 22.1802Z" fill="white"/>
<path d="M50.4898 34.0801C50.2998 33.6101 49.7498 33.3801 49.2798 33.5701C48.8098 33.7701 48.5798 34.3201 48.7698 34.7901C48.9698 35.2601 49.5198 35.4901 49.9898 35.2901C50.4598 35.1001 50.6898 34.5501 50.4898 34.0801Z" fill="white"/>
<path d="M28.4095 52.6298C28.2095 52.1698 27.6596 51.9398 27.1896 52.1298C26.7196 52.3198 26.4896 52.8798 26.6896 53.3498C26.8796 53.8098 27.4295 54.0398 27.8995 53.8498C28.3695 53.6498 28.5995 53.0998 28.4095 52.6298Z" fill="white"/>
</svg>
