<svg width="80" height="80" viewBox="0 0 80 80" fill="none" xmlns="http://www.w3.org/2000/svg">
<path fill-rule="evenodd" clip-rule="evenodd" d="M40 0C62.09 0 80 17.91 80 40C80 62.09 62.09 80 40 80C17.91 80 0 62.09 0 40C0 17.91 17.91 0 40 0Z" fill="#8C52FF" fill-opacity="0.2"/>
<path d="M39.9995 74.5599C59.0864 74.5599 74.5594 59.0869 74.5594 39.9999C74.5594 20.913 59.0864 5.43994 39.9995 5.43994C20.9125 5.43994 5.43945 20.913 5.43945 39.9999C5.43945 59.0869 20.9125 74.5599 39.9995 74.5599Z" fill="#8C52FF"/>
<path d="M53.3004 48.0599C53.3304 47.5999 53.7304 47.2599 54.1804 47.2899C54.6404 47.3199 54.9904 47.7199 54.9604 48.1699C54.7804 50.7499 54.0904 53.1599 53.0904 55.2999C51.9604 57.6999 50.4304 59.7499 48.8004 61.2499C47.5804 62.3799 45.9804 63.4299 44.3904 64.1899C42.7904 64.9599 41.1904 65.4399 39.9704 65.4399C38.7504 65.4399 37.1504 64.9599 35.5504 64.1899C33.9704 63.4299 32.3604 62.3799 31.1404 61.2599C29.5104 59.7599 27.9804 57.7099 26.8504 55.2999C25.8504 53.1599 25.1604 50.7399 24.9904 48.1699C24.9604 47.7199 25.3004 47.3199 25.7604 47.2899C26.2204 47.2599 26.6104 47.5999 26.6404 48.0599C26.8004 50.4199 27.4404 52.6399 28.3504 54.5999C29.3904 56.7999 30.7904 58.6699 32.2604 60.0399C33.3604 61.0499 34.8204 61.9999 36.2704 62.6999C37.6504 63.3599 39.0004 63.7799 39.9704 63.7799C40.9504 63.7799 42.3004 63.3599 43.6804 62.6999C45.1204 61.9999 46.5804 61.0499 47.6804 60.0399C49.1604 58.6699 50.5504 56.7999 51.5904 54.5899C52.5104 52.6399 53.1404 50.4199 53.3004 48.0599Z" fill="white"/>
<path d="M23.4003 45.7802C23.5003 46.2802 23.8003 46.7402 24.2203 47.0302C24.4503 47.1802 24.7203 47.2902 25.0203 47.3302C25.5403 39.9902 31.7603 36.8402 37.3003 34.0402C38.1003 33.6302 38.8903 33.2302 39.5803 32.8602C44.3303 30.3202 46.7203 27.8702 47.6203 25.6002C48.4803 23.4402 47.9703 21.3902 46.9103 19.5702C46.7703 19.3402 46.6303 19.1202 46.4703 18.9202C45.3503 17.4902 43.5403 16.5202 41.3503 16.2802C39.1003 16.0302 36.4603 16.5502 33.7603 18.1202C33.0803 18.5202 32.4003 18.9802 31.7403 19.5002C28.1203 22.3202 25.4403 26.1302 23.9803 30.6902C22.5803 35.0702 22.3003 40.1602 23.3903 45.7502L23.4003 45.7802ZM23.2903 48.4002C22.5003 47.8602 21.9603 47.0302 21.7703 46.1102L21.7603 46.0702C20.6203 40.2002 20.9203 34.8302 22.4003 30.1902C23.9603 25.3002 26.8403 21.2202 30.7203 18.1902C31.4703 17.6102 32.2003 17.1102 32.9303 16.6902C35.9603 14.9202 38.9503 14.3402 41.5303 14.6302C44.1703 14.9202 46.3803 16.1202 47.7703 17.9002C47.9803 18.1702 48.1803 18.4502 48.3403 18.7402C49.6403 20.9602 50.2403 23.4902 49.1603 26.2102C48.1203 28.8202 45.5003 31.5702 40.3603 34.3202C39.5803 34.7402 38.8203 35.1302 38.0503 35.5202C32.7403 38.2002 26.7703 41.2302 26.6503 48.0802C26.6603 48.4902 26.3803 48.8502 25.9703 48.9302C24.9403 49.1302 24.0103 48.8902 23.2903 48.4002Z" fill="white"/>
<path d="M42.8204 32.42C42.4104 32.23 42.2204 31.74 42.4104 31.32C42.6004 30.9 43.0904 30.72 43.5104 30.91C47.3804 32.69 50.3404 34.98 52.2904 37.83C54.2504 40.7 55.1704 44.13 54.9604 48.16C54.9304 48.62 54.5404 48.97 54.0904 48.94C53.6304 48.92 53.2804 48.53 53.3004 48.07C53.5004 44.42 52.6704 41.33 50.9204 38.76C49.1504 36.17 46.4104 34.07 42.8204 32.42Z" fill="white"/>
<path d="M54.1104 46.6002C53.6504 46.6002 53.2804 46.2202 53.2904 45.7602C53.2904 45.3102 53.6704 44.9402 54.1304 44.9502C54.6504 44.9502 55.1304 44.7102 55.5404 44.3402C56.0804 43.8402 56.4804 43.1302 56.6804 42.4602C57.2904 40.3802 57.4904 38.4202 57.0104 36.7802C56.5504 35.2002 55.4304 33.8802 53.4104 32.9902C52.9904 32.8102 52.8004 32.3202 52.9804 31.9002C53.1604 31.4802 53.6504 31.2902 54.0704 31.4702C56.6004 32.5702 58.0104 34.2702 58.6004 36.3102C59.1804 38.3002 58.9604 40.5702 58.2704 42.9302C58.0004 43.8502 57.4304 44.8502 56.6604 45.5602C55.9604 46.1902 55.1004 46.6202 54.1104 46.6002Z" fill="white"/>
<path d="M56.8404 33.8598C56.7404 34.2998 56.3004 34.5898 55.8504 34.4898C55.4004 34.3898 55.1204 33.9498 55.2204 33.4998C55.2604 33.3398 55.2904 33.1398 55.3104 32.9298L55.3204 32.9098C55.5404 31.0198 54.9204 28.9298 53.7904 27.2098C52.6604 25.4998 51.0404 24.1598 49.2604 23.7698C49.1104 23.7398 48.9504 23.7098 48.7704 23.6898C48.3104 23.6298 47.9904 23.2198 48.0404 22.7598C48.1004 22.3098 48.5104 21.9798 48.9704 22.0398C49.1604 22.0598 49.3804 22.0998 49.6104 22.1498C51.8404 22.6398 53.8204 24.2498 55.1704 26.2998C56.5104 28.3298 57.2304 30.8198 56.9704 33.0998V33.1298C56.9404 33.3498 56.9004 33.5898 56.8404 33.8598Z" fill="white"/>
<path d="M54.5204 45.0898C54.5204 44.0298 53.0904 44.1698 53.0904 44.9998C53.0304 45.9698 52.8604 46.7698 52.6904 47.7198C52.5204 48.7498 53.9504 48.8698 54.0904 48.0398C54.2804 47.0098 54.4604 46.1498 54.5204 45.0898ZM26.8704 45.1698C26.7104 44.2198 25.4404 44.3298 25.4404 45.2898C25.5004 46.1998 25.6604 47.3498 25.9004 48.2298C26.0304 49.0398 27.4704 48.9498 27.2904 47.8998C27.0804 47.0798 26.9304 46.0198 26.8704 45.1698ZM28.6904 51.7798C28.1304 50.8498 26.9904 51.7298 27.4104 52.4198C27.8304 53.2898 28.3504 54.1998 28.9104 54.9798C29.5004 55.7298 30.5804 54.9898 30.0904 54.1598C29.5704 53.4098 29.0904 52.5998 28.6904 51.7798ZM32.8104 57.2298C32.0404 56.6098 31.1904 57.7598 31.8904 58.3298C32.5804 58.8798 33.5504 59.6498 34.3304 60.0398C34.6604 60.2298 35.1504 60.1198 35.3104 59.7898C35.5304 59.4298 35.3904 58.9998 35.0604 58.7998C34.3404 58.4398 33.4504 57.7398 32.8104 57.2298ZM38.8104 60.3998C37.7604 60.2198 37.6704 61.6498 38.4804 61.7898C38.9804 61.8998 39.4604 61.9798 39.9704 61.9798C40.5204 61.9798 41.1404 61.8798 41.6704 61.7398C42.6604 61.4098 42.0904 60.0898 41.2904 60.3598C40.8804 60.4698 40.4004 60.5498 39.9704 60.5498C39.5504 60.5498 39.2204 60.4698 38.8104 60.3998ZM45.0304 58.7098C44.2904 59.1598 44.8604 60.3998 45.7704 59.9398C46.6804 59.3798 47.3904 58.8598 48.2104 58.1898C48.8904 57.6498 48.0504 56.4798 47.2604 57.1198C46.7304 57.6498 45.6904 58.3098 45.0304 58.7098ZM49.9604 54.0198C49.4204 54.9098 50.7104 55.5498 51.1504 54.8198C51.7104 54.0098 52.1804 53.1298 52.6204 52.2398C53.0304 51.4298 51.7604 50.7498 51.3304 51.6198C50.9204 52.4498 50.4904 53.2598 49.9604 54.0198Z" fill="white"/>
<path d="M25.9003 44.2602C25.2003 44.8202 26.0403 45.9802 26.8303 45.3502C27.5303 44.7502 28.2703 44.2102 29.0503 43.7202C29.3503 43.5402 29.4903 43.0902 29.3003 42.7602C29.0903 42.4102 28.6703 42.2802 28.2903 42.5002C27.4503 43.0302 26.6403 43.6202 25.9003 44.2602ZM53.6803 45.3702C54.4103 45.9502 55.3103 44.8402 54.5703 44.2402C54.2103 43.9602 53.8503 43.6902 53.4703 43.4302C52.6503 42.9302 51.9103 44.0102 52.6503 44.6002C53.0003 44.8502 53.3403 45.1002 53.6803 45.3702ZM49.0303 42.5702C50.0903 42.9202 50.3503 41.5002 49.6103 41.2502C48.6803 40.8502 47.8003 40.5302 46.8403 40.2302C45.9903 39.9502 45.4803 41.2902 46.4203 41.6002C47.3303 41.8902 48.1603 42.1902 49.0303 42.5702ZM42.3403 40.7902C43.1703 40.9202 43.5303 39.5302 42.4903 39.3602C41.5103 39.2702 40.5203 39.2002 39.5403 39.2302C38.6403 39.2302 38.5803 40.6702 39.5703 40.6702C40.4503 40.6202 41.4703 40.7002 42.3403 40.7902ZM35.4403 41.1502C36.2803 41.0002 36.1603 39.5702 35.1303 39.7402C34.2203 39.9502 33.1503 40.2202 32.2903 40.5602C31.4403 40.8402 31.8303 42.2202 32.7803 41.9102C33.6503 41.5902 34.5403 41.3402 35.4403 41.1502Z" fill="white"/>
</svg>
