<svg width="80" height="80" viewBox="0 0 80 80" fill="none" xmlns="http://www.w3.org/2000/svg">
<path fill-rule="evenodd" clip-rule="evenodd" d="M40 0C62.09 0 80 17.91 80 40C80 62.09 62.09 80 40 80C17.91 80 0 62.09 0 40C0 17.91 17.91 0 40 0Z" fill="#8C52FF" fill-opacity="0.2"/>
<path d="M39.9995 74.5599C59.0864 74.5599 74.5594 59.0869 74.5594 39.9999C74.5594 20.913 59.0864 5.43994 39.9995 5.43994C20.9125 5.43994 5.43945 20.913 5.43945 39.9999C5.43945 59.0869 20.9125 74.5599 39.9995 74.5599Z" fill="#8C52FF"/>
<path d="M32.0898 50.0804H33.5598C33.9698 50.0804 34.2998 49.7504 34.2998 49.3404C34.2998 48.9403 33.9698 48.6104 33.5598 48.6104H32.0898C31.6798 48.6104 31.3498 48.9403 31.3498 49.3404C31.3498 49.7504 31.6798 50.0804 32.0898 50.0804Z" fill="white"/>
<path d="M54.1898 48.6104H36.5098C36.0998 48.6104 35.7698 48.9403 35.7698 49.3404C35.7698 49.7504 36.0998 50.0804 36.5098 50.0804H54.1898C54.5898 50.0804 54.9198 49.7504 54.9198 49.3404C54.9198 48.9403 54.5898 48.6104 54.1898 48.6104Z" fill="white"/>
<path d="M32.0898 45.6595H33.5598C33.9698 45.6595 34.2998 45.3295 34.2998 44.9195C34.2998 44.5195 33.9698 44.1895 33.5598 44.1895H32.0898C31.6798 44.1895 31.3498 44.5195 31.3498 44.9195C31.3498 45.3295 31.6798 45.6595 32.0898 45.6595Z" fill="white"/>
<path d="M54.1898 44.1895H36.5098C36.0998 44.1895 35.7698 44.5195 35.7698 44.9195C35.7698 45.3295 36.0998 45.6595 36.5098 45.6595H54.1898C54.5898 45.6595 54.9198 45.3295 54.9198 44.9195C54.9198 44.5195 54.5898 44.1895 54.1898 44.1895Z" fill="white"/>
<path d="M32.0898 41.2395H33.5598C33.9698 41.2395 34.2998 40.9095 34.2998 40.5095C34.2998 40.0995 33.9698 39.7695 33.5598 39.7695H32.0898C31.6798 39.7695 31.3498 40.0995 31.3498 40.5095C31.3498 40.9095 31.6798 41.2395 32.0898 41.2395Z" fill="white"/>
<path d="M54.1898 39.7695H36.5098C36.0998 39.7695 35.7698 40.0995 35.7698 40.5095C35.7698 40.9095 36.0998 41.2395 36.5098 41.2395H54.1898C54.5898 41.2395 54.9198 40.9095 54.9198 40.5095C54.9198 40.0995 54.5898 39.7695 54.1898 39.7695Z" fill="white"/>
<path d="M32.0898 36.8196H33.5598C33.9698 36.8196 34.2998 36.4896 34.2998 36.0896C34.2998 35.6796 33.9698 35.3496 33.5598 35.3496H32.0898C31.6798 35.3496 31.3498 35.6796 31.3498 36.0896C31.3498 36.4896 31.6798 36.8196 32.0898 36.8196Z" fill="white"/>
<path d="M54.1898 35.3496H36.5098C36.0998 35.3496 35.7698 35.6796 35.7698 36.0896C35.7698 36.4896 36.0998 36.8196 36.5098 36.8196H54.1898C54.5898 36.8196 54.9198 36.4896 54.9198 36.0896C54.9198 35.6796 54.5898 35.3496 54.1898 35.3496Z" fill="white"/>
<path d="M23.9898 21.3502H26.9298V55.9702C26.9298 56.3802 27.2598 56.7102 27.6698 56.7102H53.4498V59.6602H23.9898V21.3502ZM28.4098 18.4102H47.5598V27.9802C47.5598 28.3902 47.8898 28.7202 48.2898 28.7202H57.8698V55.2402H28.4098V18.4102ZM56.8298 27.2502H49.0298V19.4502L56.8298 27.2502ZM23.2498 61.1302H54.1898C54.5898 61.1302 54.9198 60.8002 54.9198 60.3902V56.7102H58.6098C59.0098 56.7102 59.3398 56.3802 59.3398 55.9702V27.9802C59.3398 27.9702 59.3298 27.9502 59.3298 27.9402C59.3298 27.8702 59.3198 27.8102 59.2998 27.7502C59.2898 27.7202 59.2798 27.7002 59.2698 27.6802C59.2398 27.6002 59.1898 27.5302 59.1198 27.4602L48.8098 17.1502C48.7498 17.0902 48.6798 17.0402 48.5998 17.0002C48.5698 16.9902 48.5498 16.9902 48.5298 16.9802C48.4698 16.9602 48.3998 16.9502 48.3398 16.9402C48.3198 16.9402 48.3098 16.9302 48.2898 16.9302H27.6698C27.2598 16.9302 26.9298 17.2702 26.9298 17.6702V19.8802H23.2498C22.8398 19.8802 22.5098 20.2102 22.5098 20.6202V60.3902C22.5098 60.8002 22.8398 61.1302 23.2498 61.1302Z" fill="white"/>
<path d="M32.8198 25.0401H35.7698V27.9801H32.8198V25.0401ZM32.0898 29.4601H36.5098C36.9098 29.4601 37.2398 29.1301 37.2398 28.7201V24.3001C37.2398 23.8901 36.9098 23.5601 36.5098 23.5601H32.0898C31.6798 23.5601 31.3498 23.8901 31.3498 24.3001V28.7201C31.3498 29.1301 31.6798 29.4601 32.0898 29.4601Z" fill="white"/>
</svg>
