<svg width="80" height="80" viewBox="0 0 80 80" fill="none" xmlns="http://www.w3.org/2000/svg">
<path fill-rule="evenodd" clip-rule="evenodd" d="M40 0C62.09 0 80 17.91 80 40C80 62.09 62.09 80 40 80C17.91 80 0 62.09 0 40C0 17.91 17.91 0 40 0Z" fill="#8C52FF" fill-opacity="0.2"/>
<path d="M39.9995 74.5599C59.0864 74.5599 74.5594 59.0869 74.5594 39.9999C74.5594 20.913 59.0864 5.43994 39.9995 5.43994C20.9125 5.43994 5.43945 20.913 5.43945 39.9999C5.43945 59.0869 20.9125 74.5599 39.9995 74.5599Z" fill="#8C52FF"/>
<path d="M46.1491 26.3302H39.2591C38.8191 26.3302 38.4591 26.7002 38.4591 27.1402C38.4591 27.5902 38.8191 27.9502 39.2591 27.9502H46.1491C49.7091 27.9502 52.5991 30.8402 52.5991 34.4002V57.7902C52.5991 59.1202 51.5191 60.2002 50.1791 60.2002H29.8191C28.4891 60.2002 27.3991 59.1202 27.3991 57.7902V34.4002C27.3991 30.8402 30.2891 27.9502 33.8491 27.9502H34.7591C35.1991 27.9502 35.5691 27.5902 35.5691 27.1402C35.5691 26.7002 35.1991 26.3302 34.7591 26.3302V22.9102C34.7591 22.4602 35.1191 22.1002 35.5691 22.1002H44.4391C44.8791 22.1002 45.2391 22.4602 45.2391 22.9102V24.0202C45.2391 24.4602 45.5991 24.8202 46.0491 24.8202C46.4891 24.8202 46.8591 24.4602 46.8591 24.0202V22.9102C46.8591 21.5702 45.7691 20.4902 44.4391 20.4902H43.9291V15.8502C43.9291 14.5202 42.8491 13.4302 41.5091 13.4302H38.4891C37.1591 13.4302 36.0691 14.5202 36.0691 15.8502V20.4902H35.5691C34.2291 20.4902 33.1491 21.5702 33.1491 22.9102V26.3702C29.0291 26.7302 25.7891 30.1902 25.7891 34.4002V57.7902C25.7891 60.0102 27.5991 61.8202 29.8191 61.8202H50.1791C52.3991 61.8202 54.2091 60.0102 54.2091 57.7902V34.4002C54.2091 29.9502 50.5991 26.3302 46.1491 26.3302ZM37.6791 15.8502C37.6791 15.4102 38.0391 15.0402 38.4891 15.0402H41.5091C41.9591 15.0402 42.3191 15.4102 42.3191 15.8502V20.4902H37.6791V15.8502ZM56.2291 15.2502C56.2291 15.6902 55.8691 16.0502 55.4191 16.0502H55.1891C54.7391 16.0502 54.3791 15.6902 54.3791 15.2502C54.3791 14.8002 54.7391 14.4402 55.1891 14.4402H55.4191C55.8691 14.4402 56.2291 14.8002 56.2291 15.2502ZM48.4691 15.2502C48.4691 14.8002 48.8291 14.4402 49.2691 14.4402H52.4991C52.9491 14.4402 53.3091 14.8002 53.3091 15.2502C53.3091 15.6902 52.9491 16.0502 52.4991 16.0502H49.2691C48.8291 16.0502 48.4691 15.6902 48.4691 15.2502ZM55.4791 20.8402C55.3691 21.1802 55.0591 21.4002 54.7191 21.4002C54.5291 21.4002 54.9191 21.5102 49.0191 19.5402C48.5991 19.4002 48.3691 18.9402 48.5091 18.5202C48.6491 18.1002 49.1091 17.8702 49.5291 18.0102L54.9691 19.8202C55.3991 19.9702 55.6191 20.4202 55.4791 20.8402ZM39.9991 37.1202C36.1691 37.1202 33.0491 40.2402 33.0491 44.0802C33.0491 47.9102 36.1691 51.0302 39.9991 51.0302C42.3891 51.0302 44.5891 49.8302 45.8691 47.8102C46.1091 47.4302 46.6091 47.3202 46.9791 47.5602C47.3591 47.8002 47.4691 48.3002 47.2291 48.6802C45.6491 51.1602 42.9391 52.6402 39.9991 52.6402C35.2791 52.6402 31.4291 48.8002 31.4291 44.0802C31.4291 39.3502 35.2791 35.5102 39.9991 35.5102C44.7191 35.5102 48.5691 39.3502 48.5691 44.0802C48.5691 44.5202 48.2091 44.8802 47.7591 44.8802C47.3191 44.8802 46.9591 44.5202 46.9591 44.0802C46.9591 40.2402 43.8391 37.1202 39.9991 37.1202ZM39.1891 46.6002V44.8802H37.4791C37.0391 44.8802 36.6691 44.5202 36.6691 44.0802C36.6691 43.6302 37.0391 43.2702 37.4791 43.2702H39.1891V41.5602C39.1891 41.1102 39.5591 40.7502 39.9991 40.7502C40.4491 40.7502 40.8091 41.1102 40.8091 41.5602V43.2702H42.5191C42.9691 43.2702 43.3291 43.6302 43.3291 44.0802C43.3291 44.5202 42.9691 44.8802 42.5191 44.8802H40.8091V46.6002C40.8091 47.0402 40.4491 47.4002 39.9991 47.4002C39.5591 47.4002 39.1891 47.0402 39.1891 46.6002Z" fill="white"/>
</svg>
