<svg width="85" height="86" viewBox="0 0 85 86" fill="none" xmlns="http://www.w3.org/2000/svg">
<path fill-rule="evenodd" clip-rule="evenodd" d="M42.5 0.5C65.97 0.5 85 19.53 85 43C85 66.47 65.97 85.5 42.5 85.5C19.03 85.5 0 66.47 0 43C0 19.53 19.03 0.5 42.5 0.5Z" fill="#8C52FF" fill-opacity="0.2"/>
<path fill-rule="evenodd" clip-rule="evenodd" d="M42.5 8.03003C61.81 8.03003 77.47 23.69 77.47 43C77.47 62.31 61.81 77.97 42.5 77.97C23.19 77.97 7.53003 62.31 7.53003 43C7.53003 23.69 23.19 8.03003 42.5 8.03003Z" fill="#8C52FF" fill-opacity="0.2"/>
<path d="M42.5 72.0699C58.5549 72.0699 71.57 59.0548 71.57 42.9999C71.57 26.945 58.5549 13.9299 42.5 13.9299C26.4451 13.9299 13.43 26.945 13.43 42.9999C13.43 59.0548 26.4451 72.0699 42.5 72.0699Z" fill="#8C52FF"/>
<path d="M49.1874 23.4422C49.3202 22.7922 48.901 22.1576 48.2509 22.0249C47.6008 21.8922 46.9664 22.3111 46.8336 22.9611C46.6112 24.0496 46.4086 25.1741 46.2263 26.3293L39.1856 27.8277C38.9502 26.1423 38.6734 24.515 38.3559 22.9611C38.2232 22.3111 37.5885 21.8918 36.9386 22.0247C36.2886 22.1576 35.8694 22.7921 36.0022 23.442C37.2429 29.5131 37.7515 36.252 37.7515 42.5002C37.7515 48.7366 37.2457 55.4732 36.0021 61.5582C35.8501 62.3021 36.4184 63.0001 37.1802 63.0001C37.7391 63.0001 38.2397 62.608 38.3559 62.0392C38.599 60.8495 38.8181 59.6165 39.0132 58.3477L45.9618 56.8685C46.2061 58.6625 46.4971 60.392 46.8336 62.0392C46.9665 62.6895 47.6014 63.1084 48.2509 62.9756C48.9009 62.8428 49.3202 62.2082 49.1874 61.5583C47.9518 55.5125 47.438 48.777 47.438 42.5002C47.438 36.2909 47.9389 29.5507 49.1874 23.4422ZM40.1475 41.2898L45.0576 40.2446C45.0354 41.406 45.0319 42.3932 45.0395 43.3976L40.138 44.4411C40.1562 43.3234 40.1578 42.3012 40.1475 41.2898ZM45.1309 37.7728L40.0968 38.8444C40.0642 37.7946 40.0173 36.754 39.9567 35.7252L45.3058 34.5863C45.2329 35.636 45.1745 36.6991 45.1309 37.7728ZM40.0709 46.9116L45.0831 45.8445C45.113 46.8947 45.1568 47.936 45.2146 48.9658L39.9054 50.0959C39.9751 49.0466 40.0304 47.9843 40.0709 46.9116ZM45.8656 28.8622C45.7308 29.917 45.612 30.9928 45.5095 32.0867L39.7868 33.305C39.7016 32.2608 39.6015 31.2315 39.4873 30.2196L45.8656 28.8622ZM39.3648 55.8167C39.4958 54.762 39.6107 53.6865 39.7096 52.5937L45.3778 51.3872C45.46 52.4318 45.5569 53.462 45.668 54.4749L39.3648 55.8167Z" fill="white"/>
<path d="M34.0098 36.067H34.0041L26.0784 36.1038L26.704 35.4671C27.169 34.994 27.1623 34.2335 26.689 33.7685C26.2161 33.3035 25.4554 33.3102 24.9904 33.7834C21.9178 36.9104 22.3956 36.4235 22.3332 36.4889C21.8799 36.9628 21.8898 37.7155 22.3588 38.1753L25.0521 40.8216C25.5251 41.2865 26.2857 41.2798 26.7507 40.8067C27.2158 40.3335 27.209 39.573 26.7358 39.108L26.123 38.5059L34.0151 38.4693C34.6785 38.4662 35.2138 37.9259 35.2107 37.2626C35.2078 36.6011 34.6706 36.067 34.0098 36.067Z" fill="white"/>
<path d="M34.0096 46.4771H34.0039L26.0782 46.5138L26.7037 45.8772C27.1687 45.404 27.162 44.6435 26.6888 44.1786C26.2158 43.7137 25.4552 43.7204 24.9901 44.1935L22.3438 46.8867C21.8784 47.3603 21.8876 48.1235 22.3587 48.5853L25.052 51.2315C25.5251 51.6965 26.2856 51.6898 26.7507 51.2166C27.2157 50.7435 27.2089 49.983 26.7357 49.518L26.1229 48.9159L34.015 48.8793C34.6784 48.8762 35.2137 48.3359 35.2106 47.6725C35.2075 47.0111 34.6704 46.4771 34.0096 46.4771Z" fill="white"/>
<path d="M62.6409 46.8293L59.9475 44.183C59.4745 43.718 58.714 43.7247 58.2489 44.1979C57.7839 44.671 57.7906 45.4315 58.2639 45.8965L58.8766 46.4986L50.9846 46.5352C50.3212 46.5383 49.7859 47.0786 49.7889 47.7419C49.792 48.4035 50.3291 48.9375 50.99 48.9375H50.9956L58.9214 48.9008L58.2958 49.5374C57.8308 50.0106 57.8376 50.771 58.3108 51.236C58.7838 51.7009 59.5444 51.6943 60.0094 51.2211C60.3791 50.8449 62.6268 48.5574 62.6558 48.5279C63.1205 48.0544 63.114 47.2959 62.6409 46.8293Z" fill="white"/>
<path d="M50.99 38.5275H50.9956L58.9214 38.4907L58.2958 39.1273C57.8308 39.6005 57.8376 40.361 58.3108 40.826C58.7838 41.2909 59.5444 41.2843 60.0094 40.8111C60.3791 40.4349 62.6268 38.1474 62.6558 38.1179C63.1241 37.6408 63.1092 36.8791 62.6409 36.4193L59.9475 33.7729C59.4745 33.308 58.714 33.3147 58.2489 33.7878C57.7839 34.261 57.7906 35.0215 58.2639 35.4864L58.8766 36.0886L50.9846 36.1251C50.3212 36.1283 49.7859 36.6686 49.7889 37.3319C49.7919 37.9934 50.3291 38.5275 50.99 38.5275Z" fill="white"/>
</svg>
