<svg width="85" height="85" viewBox="0 0 85 85" fill="none" xmlns="http://www.w3.org/2000/svg">
<path fill-rule="evenodd" clip-rule="evenodd" d="M42.5 0C65.97 0 85 19.03 85 42.5C85 65.97 65.97 85 42.5 85C19.03 85 0 65.97 0 42.5C0 19.03 19.03 0 42.5 0Z" fill="#8C52FF" fill-opacity="0.2"/>
<path fill-rule="evenodd" clip-rule="evenodd" d="M42.5 7.53003C61.81 7.53003 77.47 23.19 77.47 42.5C77.47 61.81 61.81 77.47 42.5 77.47C23.19 77.47 7.53003 61.81 7.53003 42.5C7.53003 23.19 23.19 7.53003 42.5 7.53003Z" fill="#8C52FF" fill-opacity="0.2"/>
<path d="M42.5 71.5699C58.5549 71.5699 71.57 58.5548 71.57 42.4999C71.57 26.445 58.5549 13.4299 42.5 13.4299C26.4451 13.4299 13.43 26.445 13.43 42.4999C13.43 58.5548 26.4451 71.5699 42.5 71.5699Z" fill="#8C52FF"/>
<path d="M57.5166 26.5477C53.3667 22.9702 47.8562 21 42 21C36.1438 21 30.6333 22.9702 26.4834 26.5477C22.3025 30.1518 20 34.953 20 40.0667C20 45.6902 22.8336 50.9818 27.7793 54.6152C28.0493 55.1758 28.346 55.7276 28.6695 56.2704L27.0054 57.1025C26.8836 57.1634 26.7811 57.257 26.7096 57.3728C26.638 57.4887 26.6 57.6222 26.6 57.7583C26.6 57.8945 26.638 58.028 26.7096 58.1438C26.7811 58.2597 26.8836 58.3533 27.0054 58.4142L29.0641 59.4436C29.4893 59.6573 29.8343 60.0023 30.048 60.4275L31.0775 62.4863C31.1384 62.6081 31.232 62.7105 31.3478 62.7821C31.4637 62.8537 31.5972 62.8916 31.7333 62.8916C31.8695 62.8916 32.003 62.8537 32.1188 62.7821C32.2347 62.7105 32.3283 62.6081 32.3892 62.4863L32.9496 61.3656C35.7208 63.7158 38.9017 65 42 65H52.2667C52.3765 65 52.4848 64.9753 52.5838 64.9279C52.6828 64.8804 52.7699 64.8113 52.8386 64.7256L59.289 56.6886C59.9608 56.0051 60.336 55.0842 60.3333 54.1259V50.6112C62.7324 47.4839 64 43.8433 64 40.0667C64 34.953 61.6975 30.1518 57.5166 26.5477ZM21.4667 40.0667C21.4667 30.362 30.6779 22.4667 42 22.4667C44.4798 22.4622 46.9446 22.8508 49.3028 23.618C49.1133 25.0127 48.0555 27.1434 46.5508 29.1125C44.8951 31.278 43.0664 32.7333 42 32.7333C37.5517 32.7333 33.5213 34.0019 30.6517 36.3053C27.5212 38.8178 25.8667 42.4007 25.8667 46.6667C25.8779 48.3952 26.1453 50.1126 26.6603 51.7627C23.3318 48.559 21.4667 44.416 21.4667 40.0667ZM55.3696 43.8394C55.085 44.1193 54.8586 44.4529 54.7037 44.8208C54.5487 45.1887 54.4681 45.5837 54.4667 45.9829V53.015L53.1688 54.6834C52.9841 54.2379 52.6924 53.8448 52.3195 53.539C51.9466 53.2331 51.5041 53.024 51.031 52.93C50.558 52.836 50.0691 52.86 49.6076 53C49.1461 53.1401 48.7263 53.3917 48.3852 53.7327C48.3537 53.7641 48.3252 53.7984 48.3 53.8351L41.6205 63.5251C38.9035 63.4205 36.1113 62.1986 33.6646 60.0456C33.864 59.7938 34.1158 59.5883 34.4026 59.4436L36.4613 58.4142C36.5831 58.3533 36.6855 58.2597 36.7571 58.1438C36.8287 58.028 36.8666 57.8945 36.8666 57.7583C36.8666 57.6222 36.8287 57.4887 36.7571 57.3728C36.6855 57.257 36.5831 57.1634 36.4613 57.1025L34.4026 56.073C33.9774 55.8594 33.6323 55.5144 33.4186 55.0892L32.3892 53.0303C32.3283 52.9086 32.2347 52.8061 32.1188 52.7346C32.003 52.663 31.8695 52.6251 31.7333 52.6251C31.5972 52.6251 31.4637 52.663 31.3478 52.7346C31.232 52.8061 31.1384 52.9086 31.0775 53.0303L30.048 55.0891C29.9936 55.1977 29.9302 55.3015 29.8584 55.3995C28.2256 52.6201 27.3333 49.55 27.3333 46.6667C27.3333 42.8609 28.7982 39.6735 31.5696 37.4491C34.1799 35.3539 37.8842 34.2 42 34.2C45.6317 34.2 48.8913 35.0724 51.4262 36.7228C53.852 38.3023 55.503 40.5493 56.2323 43.2494C55.9119 43.3932 55.6198 43.593 55.3696 43.8394ZM31.7333 60.5185L31.3599 59.7715C31.0037 59.0629 30.4287 58.4879 29.7201 58.1318L28.9732 57.7583L29.7201 57.3849C30.4287 57.0287 31.0037 56.4537 31.3599 55.7451L31.7333 54.9982L32.1068 55.7452C32.463 56.4538 33.038 57.0287 33.7466 57.3849L34.4935 57.7583L33.7466 58.1318C33.038 58.4879 32.4629 59.063 32.1068 59.7716L31.7333 60.5185ZM58.8667 54.1259C58.8675 54.4149 58.8109 54.7012 58.7003 54.9682C58.5897 55.2352 58.4273 55.4776 58.2223 55.6814C58.2034 55.7003 58.1856 55.7202 58.1689 55.741L51.9149 63.5333H43.3962L49.4657 54.7285C49.7478 54.4673 50.1211 54.3274 50.5053 54.3387C50.8896 54.35 51.254 54.5117 51.5202 54.7891C51.7864 55.0664 51.9331 55.4371 51.9287 55.8215C51.9243 56.2059 51.7691 56.5732 51.4967 56.8443C51.4695 56.8715 51.4445 56.9008 51.422 56.9319L49.4736 59.6136C49.3637 59.7711 49.32 59.9655 49.3519 60.1549C49.3838 60.3443 49.4887 60.5136 49.6441 60.6265C49.7996 60.7393 49.9931 60.7867 50.183 60.7584C50.373 60.7302 50.5443 60.6285 50.6601 60.4752L52.577 57.837C52.7207 57.6869 52.8481 57.522 52.9569 57.3449L55.779 53.7165C55.8791 53.5883 55.9334 53.4293 55.9333 53.2667V45.9829C55.9343 45.7786 55.9758 45.5765 56.0553 45.3883C56.1348 45.2 56.2509 45.0294 56.3967 44.8863C56.5319 44.7509 56.6929 44.644 56.8701 44.5719C57.0474 44.4999 57.2373 44.4641 57.4286 44.4667C57.812 44.4759 58.1767 44.6343 58.4452 44.9082C58.7138 45.182 58.8649 45.5498 58.8667 45.9333V54.1259ZM57.6877 43.015C56.8852 39.8957 55.0066 37.3042 52.2265 35.4937C50.1633 34.1504 47.6779 33.2786 44.9281 32.9199C46.1343 31.9689 47.1695 30.7176 47.7159 30.0027C49.5393 27.6173 50.4209 25.5446 50.6989 24.1268C57.6842 26.9385 62.5333 33.0258 62.5333 40.0667C62.5271 42.8601 61.767 45.6 60.3333 47.9975V45.9333C60.3296 45.2063 60.0574 44.5064 59.5691 43.9678C59.0808 43.4291 58.4108 43.0899 57.6877 43.015Z" fill="white"/>
<path d="M36.8663 46.6667C37.0607 46.6667 37.2473 46.5894 37.3848 46.4519C37.5223 46.3144 37.5996 46.1278 37.5996 45.9333C37.5996 45.3499 37.3678 44.7903 36.9552 44.3777C36.5426 43.9651 35.9831 43.7333 35.3996 43.7333C34.8161 43.7333 34.2565 43.9651 33.844 44.3777C33.4314 44.7903 33.1996 45.3499 33.1996 45.9333C33.1996 46.1278 33.2769 46.3144 33.4144 46.4519C33.5519 46.5894 33.7384 46.6667 33.9329 46.6667C34.1274 46.6667 34.3139 46.5894 34.4515 46.4519C34.589 46.3144 34.6663 46.1278 34.6663 45.9333C34.6663 45.7389 34.7435 45.5523 34.881 45.4148C35.0186 45.2773 35.2051 45.2 35.3996 45.2C35.5941 45.2 35.7806 45.2773 35.9181 45.4148C36.0557 45.5523 36.1329 45.7389 36.1329 45.9333C36.1329 46.1278 36.2102 46.3144 36.3477 46.4519C36.4852 46.5894 36.6718 46.6667 36.8663 46.6667Z" fill="white"/>
<path d="M48.6002 43.7333C48.0169 43.734 47.4577 43.966 47.0453 44.3784C46.6329 44.7909 46.4009 45.3501 46.4002 45.9333C46.4002 46.1278 46.4775 46.3144 46.615 46.4519C46.7525 46.5894 46.939 46.6667 47.1335 46.6667C47.328 46.6667 47.5146 46.5894 47.6521 46.4519C47.7896 46.3144 47.8669 46.1278 47.8669 45.9333C47.8669 45.7389 47.9441 45.5523 48.0817 45.4148C48.2192 45.2773 48.4057 45.2 48.6002 45.2C48.7947 45.2 48.9812 45.2773 49.1187 45.4148C49.2563 45.5523 49.3335 45.7389 49.3335 45.9333C49.3335 46.1278 49.4108 46.3144 49.5483 46.4519C49.6859 46.5894 49.8724 46.6667 50.0669 46.6667C50.2614 46.6667 50.4479 46.5894 50.5854 46.4519C50.7229 46.3144 50.8002 46.1278 50.8002 45.9333C50.7995 45.3501 50.5676 44.7909 50.1551 44.3784C49.7427 43.966 49.1835 43.734 48.6002 43.7333Z" fill="white"/>
<path d="M47.4267 51.1281C47.2485 51.0502 47.0466 51.0462 46.8655 51.1171C46.6844 51.1879 46.5388 51.3278 46.4609 51.506C46.45 51.5309 45.3313 54 41.9994 54C38.7116 54 37.5874 51.6151 37.5364 51.5027C37.4572 51.3259 37.3113 51.1876 37.1305 51.118C36.9497 51.0484 36.7487 51.0532 36.5714 51.1313C36.3942 51.2094 36.255 51.3544 36.1843 51.5348C36.1136 51.7152 36.1172 51.9162 36.1942 52.0939C36.2544 52.2316 37.719 55.4666 41.9994 55.4666C46.2797 55.4666 47.7443 52.2316 47.8045 52.0939C47.8825 51.9158 47.8865 51.7139 47.8156 51.5328C47.7448 51.3517 47.6049 51.2061 47.4267 51.1281Z" fill="white"/>
<path d="M40.5337 49.6H43.4671C43.6616 49.6 43.8481 49.5227 43.9856 49.3852C44.1231 49.2477 44.2004 49.0612 44.2004 48.8667C44.2004 48.6722 44.1231 48.4857 43.9856 48.3481C43.8481 48.2106 43.6616 48.1333 43.4671 48.1333H41.2671V45.9333C41.2671 45.7388 41.1898 45.5523 41.0523 45.4148C40.9148 45.2773 40.7282 45.2 40.5337 45.2C40.3393 45.2 40.1527 45.2773 40.0152 45.4148C39.8777 45.5523 39.8004 45.7388 39.8004 45.9333V48.8667C39.8004 49.0612 39.8777 49.2477 40.0152 49.3852C40.1527 49.5227 40.3393 49.6 40.5337 49.6Z" fill="white"/>
</svg>
