<svg width="80" height="80" viewBox="0 0 80 80" fill="none" xmlns="http://www.w3.org/2000/svg">
<path fill-rule="evenodd" clip-rule="evenodd" d="M40 0C62.09 0 80 17.91 80 40C80 62.09 62.09 80 40 80C17.91 80 0 62.09 0 40C0 17.91 17.91 0 40 0Z" fill="#8C52FF" fill-opacity="0.2"/>
<path d="M39.9999 74.5599C59.0869 74.5599 74.5599 59.0869 74.5599 39.9999C74.5599 20.913 59.0869 5.43994 39.9999 5.43994C20.913 5.43994 5.43994 20.913 5.43994 39.9999C5.43994 59.0869 20.913 74.5599 39.9999 74.5599Z" fill="#8C52FF"/>
<path d="M18.7315 45.0437H13.0458C12.7573 45.0437 12.4928 45.1639 12.3125 45.3442C12.1202 45.5366 12 45.801 12 46.0895V51.679C12 51.9675 12.1202 52.232 12.3125 52.4243C12.4928 52.6046 12.7573 52.7248 13.0458 52.7248H18.7315C18.8156 52.7248 18.8997 52.7128 18.9719 52.7008C19.056 52.6767 19.1281 52.6527 19.2003 52.6166L24.5734 49.924H27.2059L27.278 50.1765C28.444 53.7105 30.5476 57.557 33.3003 60.2977C35.524 62.5095 38.1806 64 41.0895 64C44.912 64 48.3739 61.4396 51.0064 57.8816C54.1678 53.6023 56.1512 47.9166 56.1992 43.4691C56.2113 42.9522 57.0286 40.1033 57.209 39.3941C58.8558 32.843 59 32.302 59 30.499C59 28.9604 58.7355 27.4578 58.2307 26.0274C57.7379 24.609 56.9926 23.2627 56.043 22.0726L55.9949 22.0125L55.9829 21.9404C55.5982 20.51 54.7448 19.2598 53.6028 18.3824C52.4849 17.5169 51.0905 17 49.5639 17H36.7621C33.0478 17 29.6701 18.5146 27.2299 20.9547C24.7898 23.3949 23.2752 26.7726 23.2752 30.499C23.2752 32.302 23.4074 32.843 25.0422 39.3581C25.2225 40.0552 26.0639 43.0003 26.0639 43.4691C26.076 44.0821 26.124 44.7312 26.1962 45.3803C26.2683 46.0414 26.3885 46.7266 26.5327 47.4118L26.6169 47.8445H24.5734L19.2003 45.1519C19.1281 45.1159 19.056 45.0918 18.9719 45.0678C18.8997 45.0558 18.8156 45.0437 18.7315 45.0437ZM38.5051 42.5795C38.1445 42.2189 37.5555 42.2189 37.1949 42.5795C36.2212 43.5532 34.6345 43.5532 33.6609 42.5795C33.3003 42.2189 32.6992 42.2189 32.3386 42.5795C31.978 42.9522 31.978 43.5412 32.3386 43.9018C33.1921 44.7552 34.31 45.176 35.4279 45.176C36.5458 45.176 37.6637 44.7552 38.5051 43.9018C38.8778 43.5412 38.8778 42.9522 38.5051 42.5795ZM46.7151 45.176C47.833 45.176 48.9389 44.7552 49.7923 43.9018C50.1529 43.5412 50.1529 42.9522 49.7923 42.5795C49.4317 42.2189 48.8427 42.2189 48.4821 42.5795C47.4964 43.5532 45.9217 43.5532 44.9481 42.5795C44.5755 42.2189 43.9864 42.2189 43.6258 42.5795C43.2652 42.9522 43.2652 43.5412 43.6258 43.9018C44.4793 44.7552 45.5972 45.176 46.7151 45.176ZM43.9744 53.1575L43.2171 52.5926C42.58 52.1118 41.7747 51.9795 41.0294 52.2079C40.2962 51.9795 39.4908 52.1118 38.8417 52.5926L38.0844 53.1575C37.856 53.3379 37.6997 53.6023 37.6757 53.9028C37.6517 54.1913 37.7478 54.4798 37.9522 54.6962L38.2407 55.0087C38.9499 55.79 39.9716 56.2348 41.0294 56.2348C42.0992 56.2348 43.109 55.79 43.8302 55.0087L44.1187 54.6962C44.323 54.4798 44.4192 54.1913 44.3951 53.9028C44.3591 53.6023 44.2148 53.3379 43.9744 53.1575ZM36.7621 19.1036H49.5639C50.8141 19.1036 51.956 19.6084 52.7734 20.4258C53.5908 21.2552 54.1077 22.3852 54.1077 23.6473C54.1077 24.8854 53.5908 26.0274 52.7734 26.8448C51.956 27.6742 50.8141 28.179 49.5639 28.179H41.0895C38.0604 28.179 35.2356 29.0806 32.8795 30.6432C30.4514 32.2419 28.5041 34.5378 27.3261 37.2545L26.9174 38.1921L26.665 37.1944C26.0639 34.7903 25.7394 33.468 25.5711 32.5785C25.3908 31.6529 25.3668 31.1962 25.3668 30.499C25.3668 27.3496 26.6529 24.5008 28.7084 22.4453C30.776 20.3778 33.6248 19.1036 36.7621 19.1036ZM53.2302 29.1767C54.2159 28.5156 55.0333 27.59 55.5501 26.5082L55.9107 25.7629L56.1872 26.5322C56.4276 27.1693 56.5959 27.8184 56.7161 28.4916C56.8363 29.1527 56.8964 29.8258 56.8964 30.499C56.8964 31.1962 56.8844 31.665 56.7041 32.5785C56.5238 33.48 56.1992 34.8023 55.5982 37.2184L55.3578 38.2041L54.9371 37.2785C54.5043 36.2928 53.9634 35.3432 53.3263 34.4657C52.7013 33.6003 51.968 32.7829 51.1506 32.0616C50.9343 31.8573 50.6939 31.6529 50.4414 31.4606C50.201 31.2683 49.9606 31.088 49.6962 30.9077L48.8668 30.3187L49.8765 30.2706C51.1146 30.2105 52.2565 29.8138 53.2302 29.1767ZM49.6721 56.1506C47.3642 59.4683 44.3471 61.9084 41.0895 61.9084C38.7335 61.9084 36.5698 60.6222 34.7307 58.7711C32.4107 56.4391 30.5957 53.1696 29.5739 50.4049L29.3936 49.924H32.2184C32.5069 49.924 32.7714 49.8159 32.9517 49.6235C33.144 49.4432 33.2522 49.1788 33.2522 48.8903C33.2522 48.5898 33.144 48.3253 32.9517 48.145C32.7593 47.9527 32.5069 47.8445 32.2184 47.8445H28.7685L28.7084 47.568C28.5281 46.8228 28.3959 46.0775 28.2997 45.3683C28.2156 44.6471 28.1675 43.9499 28.1675 43.3008C28.1675 39.7067 29.61 36.4491 31.954 34.0931C34.298 31.7371 37.5315 30.2826 41.0895 30.2826C44.335 30.2826 47.3762 31.5448 49.7082 33.6123C52.0281 35.6798 53.6389 38.5527 54.0115 41.7742L54.0836 42.5435L54.1077 43.3008C54.1077 47.1233 52.3647 52.256 49.6721 56.1506ZM18.4069 50.6332H14.0916V47.1353H18.479L21.977 48.8903L18.4911 50.6332H18.4069Z" fill="white"/>
</svg>
