<svg width="80" height="80" viewBox="0 0 80 80" fill="none" xmlns="http://www.w3.org/2000/svg">
<path fill-rule="evenodd" clip-rule="evenodd" d="M40 0C62.09 0 80 17.91 80 40C80 62.09 62.09 80 40 80C17.91 80 0 62.09 0 40C0 17.91 17.91 0 40 0Z" fill="#8C52FF" fill-opacity="0.2"/>
<path d="M39.9999 74.5599C59.0869 74.5599 74.5599 59.0869 74.5599 39.9999C74.5599 20.913 59.0869 5.43994 39.9999 5.43994C20.913 5.43994 5.43994 20.913 5.43994 39.9999C5.43994 59.0869 20.913 74.5599 39.9999 74.5599Z" fill="#8C52FF"/>
<path d="M45.7346 27.1373H38.7178C38.2697 27.1373 37.9031 27.5141 37.9031 27.9622C37.9031 28.4205 38.2697 28.7871 38.7178 28.7871H45.7346C49.3601 28.7871 52.3032 31.7303 52.3032 35.3558V59.1761C52.3032 60.5306 51.2034 61.6304 49.8387 61.6304H29.1041C27.7497 61.6304 26.6396 60.5306 26.6396 59.1761V35.3558C26.6396 31.7303 29.5828 28.7871 33.2083 28.7871H34.135C34.5831 28.7871 34.9599 28.4205 34.9599 27.9622C34.9599 27.5141 34.5831 27.1373 34.135 27.1373V23.6544C34.135 23.1961 34.5016 22.8295 34.9599 22.8295H43.9931C44.4412 22.8295 44.8078 23.1961 44.8078 23.6544V24.7848C44.8078 25.2329 45.1744 25.5995 45.6327 25.5995C46.0808 25.5995 46.4576 25.2329 46.4576 24.7848V23.6544C46.4576 22.2898 45.3476 21.1899 43.9931 21.1899H43.4737V16.4645C43.4737 15.1101 42.3738 14 41.0092 14H37.9336C36.5792 14 35.4691 15.1101 35.4691 16.4645V21.1899H34.9599C33.5953 21.1899 32.4954 22.2898 32.4954 23.6544V27.1781C28.2996 27.5447 25 31.0683 25 35.3558V59.1761C25 61.4369 26.8433 63.2802 29.1041 63.2802H49.8387C52.0995 63.2802 53.9428 61.4369 53.9428 59.1761V35.3558C53.9428 30.8239 50.2664 27.1373 45.7346 27.1373ZM37.1087 16.4645C37.1087 16.0164 37.4754 15.6396 37.9336 15.6396H41.0092C41.4675 15.6396 41.8341 16.0164 41.8341 16.4645V21.1899H37.1087V16.4645ZM56 15.8535C56 16.3016 55.6334 16.6682 55.1751 16.6682H54.9409C54.4826 16.6682 54.116 16.3016 54.116 15.8535C54.116 15.3952 54.4826 15.0286 54.9409 15.0286H55.1751C55.6334 15.0286 56 15.3952 56 15.8535ZM48.0972 15.8535C48.0972 15.3952 48.4639 15.0286 48.912 15.0286H52.2014C52.6597 15.0286 53.0263 15.3952 53.0263 15.8535C53.0263 16.3016 52.6597 16.6682 52.2014 16.6682H48.912C48.4639 16.6682 48.0972 16.3016 48.0972 15.8535ZM55.2362 21.5463C55.1242 21.8926 54.8085 22.1166 54.4622 22.1166C54.2687 22.1166 54.6659 22.2286 48.6574 20.2224C48.2296 20.0798 47.9954 19.6114 48.138 19.1836C48.2806 18.7559 48.749 18.5217 49.1767 18.6643L54.7168 20.5076C55.1547 20.6603 55.3788 21.1186 55.2362 21.5463ZM39.4714 38.1258C35.571 38.1258 32.3936 41.3032 32.3936 45.2139C32.3936 49.1143 35.571 52.2917 39.4714 52.2917C41.9054 52.2917 44.1459 51.0697 45.4494 49.0125C45.6938 48.6255 46.203 48.5135 46.5798 48.7579C46.9668 49.0023 47.0788 49.5115 46.8344 49.8985C45.2254 52.4241 42.4655 53.9313 39.4714 53.9313C34.6646 53.9313 30.7438 50.0207 30.7438 45.2139C30.7438 40.3969 34.6646 36.4862 39.4714 36.4862C44.2783 36.4862 48.1991 40.3969 48.1991 45.2139C48.1991 45.662 47.8325 46.0286 47.3742 46.0286C46.9261 46.0286 46.5595 45.662 46.5595 45.2139C46.5595 41.3032 43.3821 38.1258 39.4714 38.1258ZM38.6465 47.7802V46.0286H36.9051C36.457 46.0286 36.0802 45.662 36.0802 45.2139C36.0802 44.7556 36.457 44.389 36.9051 44.389H38.6465V42.6475C38.6465 42.1892 39.0233 41.8226 39.4714 41.8226C39.9297 41.8226 40.2963 42.1892 40.2963 42.6475V44.389H42.0378C42.4961 44.389 42.8627 44.7556 42.8627 45.2139C42.8627 45.662 42.4961 46.0286 42.0378 46.0286H40.2963V47.7802C40.2963 48.2283 39.9297 48.5949 39.4714 48.5949C39.0233 48.5949 38.6465 48.2283 38.6465 47.7802Z" fill="white"/>
</svg>
