<svg width="85" height="85" viewBox="0 0 85 85" fill="none" xmlns="http://www.w3.org/2000/svg">
<path fill-rule="evenodd" clip-rule="evenodd" d="M42.5 0C65.97 0 85 19.03 85 42.5C85 65.97 65.97 85 42.5 85C19.03 85 0 65.97 0 42.5C0 19.03 19.03 0 42.5 0Z" fill="#8C52FF" fill-opacity="0.2"/>
<path fill-rule="evenodd" clip-rule="evenodd" d="M42.5013 7.53027C61.8112 7.53027 77.4713 23.1903 77.4713 42.5003C77.4713 61.8103 61.8112 77.4703 42.5013 77.4703C23.1913 77.4703 7.53125 61.8103 7.53125 42.5003C7.53125 23.1903 23.1913 7.53027 42.5013 7.53027Z" fill="#8C52FF" fill-opacity="0.2"/>
<path d="M42.4997 71.5697C58.5546 71.5697 71.5697 58.5546 71.5697 42.4997C71.5697 26.4448 58.5546 13.4297 42.4997 13.4297C26.4448 13.4297 13.4297 26.4448 13.4297 42.4997C13.4297 58.5546 26.4448 71.5697 42.4997 71.5697Z" fill="#8C52FF"/>
<path d="M53.7359 25.0398C53.1331 25.0398 52.5677 25.2085 52.0829 25.503C51.9002 23.8276 50.5149 22.5191 48.8389 22.5191C48.2362 22.5191 47.6708 22.6893 47.186 22.9839C47.0033 21.3084 45.6179 20 43.942 20C42.2646 20 40.8793 21.3084 40.698 22.9839C40.2132 22.6893 39.6478 22.5191 39.0451 22.5191C37.244 22.5191 35.7795 24.0259 35.7795 25.879V47.1792C34.0776 45.1233 31.996 42.7714 31.7759 42.5227C31.153 41.7531 30.2395 41.3105 29.2641 41.3105C27.4645 41.3105 26 42.8188 26 44.6704C26 45.4445 26.2633 46.2008 26.7409 46.7988C28.4024 48.8828 29.8597 50.9268 31.1472 52.7325C34.4488 57.3652 37.0569 61.0241 40.8476 62.4228C40.9382 62.4553 41.0317 62.4716 41.1238 62.4716C41.459 62.4716 41.7726 62.2585 41.892 61.9151C42.0445 61.4784 41.823 60.9974 41.3986 60.8405C38.0783 59.6165 35.5997 56.1397 32.4635 51.7394C31.1645 49.9174 29.6914 47.8526 28.0039 45.7331C27.7608 45.4297 27.6328 45.0626 27.6328 44.6704C27.6328 43.8637 28.2571 42.9905 29.2641 42.9905C29.7547 42.9905 30.2165 43.214 30.5272 43.6062C30.5373 43.618 30.5459 43.6284 30.556 43.6402C30.5934 43.6817 34.1381 47.6794 35.814 49.8567C35.9133 50.2045 36.2254 50.4576 36.5966 50.4576C36.611 50.4576 36.6254 50.4561 36.6412 50.4561C36.6527 50.4561 36.6656 50.4576 36.6786 50.4576L39.1271 50.428C39.1486 50.428 39.1702 50.428 39.1918 50.428C42.0805 50.428 44.4599 52.848 44.4944 55.8215C44.5002 56.2818 44.8641 56.6518 45.3101 56.6518H45.3202C45.7704 56.6459 46.1315 56.2655 46.1272 55.8022C46.1042 53.9107 45.3734 52.1375 44.0643 50.8084C42.758 49.4807 41.026 48.7481 39.1918 48.7481C39.163 48.7481 39.1343 48.7481 39.1069 48.7495L37.4123 48.7703V25.879C37.4123 24.9524 38.1445 24.1991 39.0451 24.1991C39.9456 24.1991 40.6764 24.9524 40.6764 25.879V39.4826C40.6764 39.9459 41.0433 40.3218 41.4935 40.3218C41.9438 40.3218 42.3092 39.9459 42.3092 39.4826V23.3598C42.3092 22.4333 43.0414 21.6799 43.942 21.6799C44.8411 21.6799 45.5748 22.4333 45.5748 23.3598V39.4826C45.5748 39.9459 45.9402 40.3218 46.3905 40.3218C46.8407 40.3218 47.2061 39.9459 47.2061 39.4826V25.879C47.2061 24.9524 47.9384 24.1991 48.8389 24.1991C49.7395 24.1991 50.4717 24.9524 50.4717 25.879V39.4826C50.4717 39.9459 50.8371 40.3218 51.2874 40.3218C51.7377 40.3218 52.1031 39.9459 52.1031 39.4826V28.3981C52.1031 27.4716 52.8367 26.7182 53.7359 26.7182C54.6364 26.7182 55.3687 27.4716 55.3687 28.3981V50.8187C55.3687 55.4618 52.4728 59.4966 48.1628 60.8568C47.7312 60.993 47.4881 61.4622 47.6204 61.9047C47.7283 62.2659 48.052 62.4982 48.4016 62.4982C48.4807 62.4982 48.5613 62.4864 48.6404 62.4612C51.0112 61.7138 53.1388 60.173 54.6364 58.1231C56.1829 56.0035 57 53.477 57 50.8187V28.3981C57 26.5465 55.5355 25.0398 53.7359 25.0398Z" fill="white"/>
<path d="M45.5762 62.1593C45.5762 62.624 45.2108 63 44.7605 63C44.3088 63 43.9449 62.624 43.9449 62.1593C43.9449 61.696 44.3088 61.3201 44.7605 61.3201C45.2108 61.3201 45.5762 61.696 45.5762 62.1593Z" fill="white"/>
<path d="M52.1031 44.5209C52.1031 44.0576 51.7377 43.6817 51.2874 43.6817H41.4935C41.0433 43.6817 40.6764 44.0576 40.6764 44.5209C40.6764 44.9842 41.0433 45.3601 41.4935 45.3601H51.2874C51.7377 45.3601 52.1031 44.9842 52.1031 44.5209Z" fill="white"/>
</svg>
