<svg width="85" height="85" viewBox="0 0 85 85" fill="none" xmlns="http://www.w3.org/2000/svg">
<path fill-rule="evenodd" clip-rule="evenodd" d="M42.5 0C65.97 0 85 19.03 85 42.5C85 65.97 65.97 85 42.5 85C19.03 85 0 65.97 0 42.5C0 19.03 19.03 0 42.5 0Z" fill="#8C52FF" fill-opacity="0.2"/>
<path fill-rule="evenodd" clip-rule="evenodd" d="M42.5013 7.53027C61.8112 7.53027 77.4713 23.1903 77.4713 42.5003C77.4713 61.8103 61.8112 77.4703 42.5013 77.4703C23.1913 77.4703 7.53125 61.8103 7.53125 42.5003C7.53125 23.1903 23.1913 7.53027 42.5013 7.53027Z" fill="#8C52FF" fill-opacity="0.2"/>
<path d="M42.4997 71.5697C58.5546 71.5697 71.5697 58.5546 71.5697 42.4997C71.5697 26.4448 58.5546 13.4297 42.4997 13.4297C26.4448 13.4297 13.4297 26.4448 13.4297 42.4997C13.4297 58.5546 26.4448 71.5697 42.4997 71.5697Z" fill="#8C52FF"/>
<path d="M41.6104 23.6265C41.609 23.6222 41.609 23.618 41.6076 23.6137C41.6076 23.6137 41.6076 23.6123 41.6076 23.6108C41.296 22.1228 39.9355 21 38.3099 21C36.8902 21 35.6749 21.856 35.1815 23.0616C34.743 22.732 34.1946 22.5365 33.5982 22.5365C32.3125 22.5365 31.2424 23.451 31.045 24.6452C30.9012 24.6166 30.7532 24.6024 30.6009 24.6024C29.3292 24.6024 28.2958 25.6039 28.2958 26.8351C28.2958 26.8608 28.2972 26.8879 28.2986 26.9136C28.2112 26.9022 28.121 26.8965 28.0293 26.8965C26.8747 26.8965 25.9315 27.7882 25.8906 28.8967C24.8473 28.8995 24 29.7213 24 30.7314C24 31.2707 24.2425 31.7786 24.6654 32.1281C24.6654 32.1281 24.6951 37.8819 24.7514 38.2001C24.7514 38.2115 24.7543 38.2229 24.7557 38.2343L25.2026 40.9036C25.2519 41.1975 25.5156 41.4073 25.8145 41.4073C25.8469 41.4073 25.8807 41.4044 25.9146 41.3987C26.2515 41.3459 26.4813 41.0378 26.4263 40.7096L25.9865 38.0845C25.9851 38.066 25.9822 38.0489 25.9794 38.0317C25.9301 37.7692 25.9061 37.5067 25.9061 37.2499C25.9061 37.2085 25.9061 31.9541 25.9061 31.9541C25.9061 31.7586 25.7158 31.3834 25.4733 31.2179C25.3154 31.108 25.2393 30.9197 25.2393 30.7314C25.2393 30.3819 25.5325 30.098 25.8934 30.098C26.2205 30.098 26.4926 30.3334 26.5391 30.6387V33.3108C26.5391 33.6418 26.8169 33.9115 27.1595 33.9115C27.5119 33.9115 28.0364 33.6076 28.2338 33.3836L33.1739 30.4989C33.1908 30.4889 33.2077 30.4775 33.2246 30.466C33.446 30.3048 33.6856 30.1636 33.938 30.0437C33.9394 30.0437 33.9422 30.0423 33.9451 30.0409C34.564 29.7484 35.228 29.6 35.9202 29.6C36.2628 29.6 36.5406 29.3304 36.5406 28.9994C36.5406 28.7597 36.3954 28.5529 36.1853 28.4558C36.1853 28.4558 36.1853 24.3499 36.1853 24.26C36.1853 23.1243 37.1384 22.2013 38.3099 22.2013C39.3321 22.2013 40.1893 22.9046 40.3895 23.8405C40.3993 23.8933 40.4741 24.24 40.4853 24.4968C40.5065 25.0247 40.5544 25.5497 40.5192 26.0719C40.4769 26.7082 40.3824 27.0734 40.2908 27.4272C40.1879 27.8281 40.0807 28.2418 40.0694 28.9366C40.0596 29.5016 40.1188 29.8811 40.1921 30.2406C40.0046 30.0395 39.8016 29.8483 39.5802 29.6714C39.3166 29.4602 38.926 29.4973 38.7075 29.7527C38.4904 30.0081 38.5271 30.3876 38.7921 30.5987C39.8354 31.4333 40.4346 32.6631 40.4346 33.9728C40.4346 34.2467 40.4064 34.525 40.3528 34.8003C40.3486 34.8188 40.3472 34.836 40.3443 34.8545L38.1492 56.3675C38.1478 56.3874 38.1464 56.4074 38.1464 56.4274C38.1464 58.8385 36.1219 60.8002 33.6321 60.8002C31.4567 60.8002 29.59 59.2964 29.1953 57.2249C29.1939 57.2178 29.1925 57.2092 29.1896 57.2021L29.1868 57.1792C29.1868 57.1764 29.1854 57.1735 29.1854 57.1707C29.177 57.1265 29.1699 57.0808 29.1629 57.0351C29.1629 57.0309 29.1614 57.0266 29.1614 57.0209L26.9931 44.0923C26.9395 43.7656 26.6195 43.543 26.2825 43.5958C25.9442 43.6486 25.7158 43.9582 25.7694 44.2849L27.9363 57.2078C27.9447 57.262 27.9532 57.3162 27.9631 57.3704L27.9715 57.4275C27.9758 57.446 27.9786 57.466 27.9842 57.4846C28.5045 60.1039 30.873 62 33.6321 62C36.7944 62 39.3701 59.5161 39.3857 56.4573L41.5751 34.9986C41.6301 34.7118 41.6611 34.4222 41.671 34.1355C41.7415 33.3993 41.7514 32.6503 41.702 31.9084C41.647 31.1052 41.5399 30.6173 41.4553 30.2235C41.3651 29.8083 41.2988 29.5073 41.3087 28.9566C41.3186 28.3988 41.3961 28.0992 41.4934 27.7182C41.5935 27.3316 41.7063 26.8936 41.757 26.1503C41.8078 25.3771 41.7697 24.5952 41.6428 23.822C41.6344 23.7564 41.6231 23.6907 41.6104 23.6265ZM30.6009 25.8036C30.8237 25.8036 31.0309 25.8707 31.2029 25.9863C31.5864 26.2145 31.6653 26.7866 31.6653 26.8351V29.9767L30.1723 30.8498V28.5985C30.1723 28.4929 30.1159 27.8652 29.9171 27.6255C29.7183 27.3873 29.5365 27.1404 29.5365 26.8351C29.5365 26.2659 30.0144 25.8036 30.6009 25.8036ZM27.7798 32.2465V30.8227C27.777 30.1721 27.5979 29.7598 27.4513 29.6414C27.2455 29.4745 27.1284 29.2305 27.1284 28.9709C27.1284 28.4901 27.5331 28.0977 28.0293 28.0977C28.527 28.0977 28.9316 28.4901 28.9316 28.9709V31.5731L27.7798 32.2465ZM33.3966 28.9637C33.3938 28.9637 33.391 28.9652 33.3882 28.9666C33.2232 29.0465 33.0611 29.1321 32.9046 29.2263V26.7438C32.9046 26.741 32.9046 26.7395 32.9046 26.7381C32.8919 26.1931 32.6113 25.7138 32.3985 25.4441C32.3068 25.3286 32.2532 25.1887 32.2518 25.0432V25.0418C32.2518 24.3227 32.8567 23.7364 33.5982 23.7364C34.3412 23.7364 34.9446 24.3227 34.9446 25.0418V28.4787C34.4103 28.5671 33.8915 28.7283 33.3966 28.9637Z" fill="white"/>
<path d="M43.391 23.6265C43.391 23.6222 43.391 23.618 43.3924 23.6137C43.3924 23.6137 43.3924 23.6123 43.3938 23.6108C43.704 22.1228 45.0645 21 46.6915 21C48.1098 21 49.3251 21.856 49.8185 23.0616C50.257 22.732 50.8054 22.5365 51.4018 22.5365C52.689 22.5365 53.759 23.451 53.955 24.6452C54.0988 24.6166 54.2482 24.6024 54.4005 24.6024C55.6708 24.6024 56.7042 25.6039 56.7042 26.8351C56.7042 26.8608 56.7028 26.8879 56.7014 26.9136C56.7902 26.9022 56.879 26.8965 56.9707 26.8965C58.1253 26.8965 59.0699 27.7882 59.1094 28.8967C60.1527 28.8995 61 29.7213 61 30.7314C61 31.2707 60.7575 31.7786 60.3346 32.1281C60.3346 32.1281 60.3064 37.8819 60.25 38.2001C60.2486 38.2115 60.2471 38.2229 60.2443 38.2343L59.7974 40.9036C59.7481 41.1975 59.4844 41.4073 59.1869 41.4073C59.1531 41.4073 59.1193 41.4044 59.0854 41.3987C58.7485 41.3459 58.5187 41.0378 58.5737 40.7096L59.0135 38.0845C59.0149 38.066 59.0178 38.0489 59.022 38.0317C59.0699 37.7692 59.0939 37.5067 59.0939 37.2499C59.0939 37.2085 59.0939 31.9541 59.0939 31.9541C59.0939 31.7586 59.2842 31.3834 59.5267 31.2179C59.6846 31.108 59.7607 30.9197 59.7607 30.7314C59.7607 30.3819 59.4675 30.098 59.1066 30.098C58.7795 30.098 58.5074 30.3334 58.4609 30.6387V33.3108C58.4609 33.6418 58.1831 33.9115 57.8405 33.9115C57.4881 33.9115 56.9636 33.6076 56.7662 33.3836L51.8261 30.4989C51.8092 30.4889 51.7923 30.4775 51.7754 30.466C51.554 30.3048 51.3144 30.1636 51.062 30.0437C51.0606 30.0437 51.0578 30.0423 51.0564 30.0409C50.4374 29.7484 49.772 29.6 49.0798 29.6C48.7372 29.6 48.4594 29.3304 48.4594 28.9994C48.4594 28.7597 48.606 28.5529 48.8161 28.4558C48.8161 28.4558 48.8161 24.3499 48.8161 24.26C48.8161 23.1243 47.8631 22.2013 46.6915 22.2013C45.6679 22.2013 44.8107 22.9046 44.6105 23.8405C44.6007 23.8933 44.5259 24.24 44.5147 24.4968C44.4935 25.0247 44.4456 25.5497 44.4808 26.0719C44.5245 26.7082 44.6176 27.0734 44.7092 27.4272C44.8136 27.8281 44.9193 28.2418 44.932 28.9366C44.9419 29.5016 44.8826 29.8811 44.8079 30.2406C44.9954 30.0395 45.1999 29.8483 45.4198 29.6714C45.6834 29.4602 46.074 29.4973 46.2925 29.7527C46.5096 30.0081 46.4729 30.3876 46.2093 30.5987C45.1646 31.4333 44.5654 32.6631 44.5654 33.9728C44.5654 34.2467 44.5936 34.525 44.6486 34.8003C44.6514 34.8188 44.6542 34.836 44.6557 34.8545L46.8508 56.3675C46.8536 56.3874 46.8536 56.4074 46.8536 56.4274C46.8536 58.8385 48.8781 60.8002 51.3679 60.8002C53.5447 60.8002 55.4114 59.2964 55.8047 57.2249C55.8061 57.2178 55.8089 57.2092 55.8104 57.2021L55.8132 57.1792C55.8146 57.1764 55.8146 57.1735 55.8146 57.1707C55.823 57.1265 55.8301 57.0808 55.8371 57.0351C55.8371 57.0309 55.8386 57.0266 55.8386 57.0209L58.0069 44.0923C58.0619 43.7656 58.3805 43.543 58.7175 43.5958C59.0558 43.6486 59.2856 43.9582 59.2306 44.2849L57.0637 57.2078C57.0567 57.262 57.0468 57.3162 57.0383 57.3704L57.0285 57.4275C57.0256 57.446 57.0214 57.466 57.0158 57.4846C56.497 60.1039 54.1284 62 51.3679 62C48.2056 62 45.6313 59.5161 45.6143 56.4573L43.4249 34.9986C43.3699 34.7118 43.3389 34.4222 43.3304 34.1355C43.2599 33.3993 43.2486 32.6503 43.2994 31.9084C43.353 31.1052 43.4601 30.6173 43.5461 30.2235C43.6363 29.8083 43.7012 29.5073 43.6913 28.9566C43.6829 28.3988 43.6053 28.0992 43.5066 27.7182C43.4065 27.3316 43.2937 26.8936 43.2444 26.1503C43.1922 25.3771 43.2303 24.5952 43.3572 23.822C43.3671 23.7564 43.3769 23.6907 43.391 23.6265ZM54.4005 25.8036C54.1763 25.8036 53.9691 25.8707 53.7971 25.9863C53.4136 26.2145 53.3347 26.7866 53.3347 26.8351V29.9767L54.8291 30.8498V28.5985C54.8291 28.4929 54.8841 27.8652 55.0829 27.6255C55.2817 27.3873 55.4649 27.1404 55.4649 26.8351C55.4649 26.2659 54.987 25.8036 54.4005 25.8036ZM57.2216 32.2465V30.8227C57.2244 30.1721 57.4035 29.7598 57.5487 29.6414C57.7545 29.4745 57.8716 29.2305 57.8716 28.9709C57.8716 28.4901 57.4683 28.0977 56.9707 28.0977C56.473 28.0977 56.0684 28.4901 56.0684 28.9709V31.5731L57.2216 32.2465ZM51.6034 28.9637C51.6062 28.9637 51.609 28.9652 51.6118 28.9666C51.7782 29.0465 51.9389 29.1321 52.0954 29.2263V26.7438C52.0954 26.741 52.0954 26.7395 52.0954 26.7381C52.1081 26.1931 52.3887 25.7138 52.603 25.4441C52.6932 25.3286 52.7482 25.1887 52.7482 25.0432V25.0418C52.7482 24.3227 52.1448 23.7364 51.4018 23.7364C50.6602 23.7364 50.0554 24.3227 50.0554 25.0418V28.4787C50.5911 28.5671 51.1085 28.7283 51.6034 28.9637Z" fill="white"/>
</svg>
