<svg width="85" height="85" viewBox="0 0 85 85" fill="none" xmlns="http://www.w3.org/2000/svg">
<path fill-rule="evenodd" clip-rule="evenodd" d="M42.5 0C65.97 0 85 19.03 85 42.5C85 65.97 65.97 85 42.5 85C19.03 85 0 65.97 0 42.5C0 19.03 19.03 0 42.5 0Z" fill="#8C52FF" fill-opacity="0.2"/>
<path fill-rule="evenodd" clip-rule="evenodd" d="M42.5013 7.53027C61.8112 7.53027 77.4713 23.1903 77.4713 42.5003C77.4713 61.8103 61.8112 77.4703 42.5013 77.4703C23.1913 77.4703 7.53125 61.8103 7.53125 42.5003C7.53125 23.1903 23.1913 7.53027 42.5013 7.53027Z" fill="#8C52FF" fill-opacity="0.2"/>
<path fill-rule="evenodd" clip-rule="evenodd" d="M42.4997 13.4297C58.5597 13.4297 71.5797 26.4397 71.5797 42.4997C71.5797 58.5597 58.5597 71.5697 42.4997 71.5697C26.4397 71.5697 13.4297 58.5597 13.4297 42.4997C13.4297 26.4397 26.4397 13.4297 42.4997 13.4297Z" fill="#8C52FF"/>
<path d="M25.7512 37.8307L22.7283 37.4938C22.2621 37.4374 21.8381 37.7792 21.7845 38.2555C21.7293 38.7334 22.0623 39.1649 22.5301 39.2213L25.5514 39.5582C25.5855 39.5615 25.6196 39.5632 25.6521 39.5632C26.0777 39.5632 26.4464 39.2379 26.4967 38.7948C26.552 38.3186 26.2174 37.8854 25.7512 37.8307ZM38.3187 50.2751C38.3187 49.3641 37.9711 48.5078 37.3408 47.8639C36.7106 47.22 35.8724 46.8649 34.9807 46.8649C34.1149 46.8649 33.3011 47.2001 32.6773 47.8075C32.0536 47.2001 31.2382 46.8649 30.374 46.8649C29.4823 46.8649 28.6441 47.22 28.0139 47.8639C27.3836 48.5078 27.036 49.3641 27.036 50.2751C27.036 51.1862 27.3836 52.0425 28.0139 52.6863L31.4217 56.1679C31.7677 56.5214 32.2225 56.6973 32.6773 56.6973C33.1322 56.6973 33.587 56.5214 33.933 56.1679L37.3408 52.6863C37.9711 52.0425 38.3187 51.1862 38.3187 50.2751ZM36.1372 51.4567L32.7293 54.9366C32.7001 54.9665 32.653 54.9665 32.6254 54.9366L29.2175 51.4567C28.9089 51.1414 28.74 50.7215 28.74 50.2751C28.74 49.8287 28.9089 49.4089 29.2175 49.0936C29.5261 48.7783 29.9371 48.604 30.374 48.604C30.811 48.604 31.2203 48.7783 31.5306 49.0936L32.0763 49.6511C32.4077 49.9897 32.947 49.9897 33.28 49.6511L33.8241 49.0936C34.1328 48.7783 34.5437 48.604 34.9807 48.604C35.4176 48.604 35.8286 48.7783 36.1372 49.0936C36.7739 49.7457 36.7739 50.8045 36.1372 51.4567ZM39.2527 57.4623C38.7832 57.4822 38.4178 57.8871 38.4389 58.3684L38.4405 58.4032C38.46 58.8695 38.8368 59.2346 39.29 59.2346C39.3014 59.2346 39.3144 59.2346 39.3274 59.2346C39.7968 59.2131 40.1607 58.8082 40.1412 58.3286L40.1396 58.2937C40.1201 57.8141 39.7221 57.4424 39.2527 57.4623ZM37.5179 59.3309L37.487 59.3325C37.016 59.3558 36.6553 59.764 36.6781 60.2436C36.7008 60.7099 37.0761 61.0717 37.5276 61.0717C37.5422 61.0717 37.5552 61.07 37.5699 61.07L37.6007 61.0684C38.0718 61.0451 38.434 60.6369 38.4096 60.1573C38.3869 59.6761 37.9873 59.306 37.5179 59.3309ZM40.9988 59.3408L40.968 59.3425C40.4985 59.3657 40.1363 59.774 40.159 60.2536C40.1818 60.7199 40.5586 61.0816 41.0086 61.0816C41.0232 61.0816 41.0378 61.08 41.0524 61.08L41.0833 61.0783C41.5527 61.0551 41.915 60.6469 41.8906 60.1673C41.8678 59.6877 41.4683 59.3159 40.9988 59.3408ZM39.2429 61.1762C38.7735 61.1978 38.408 61.6027 38.4291 62.084L38.4307 62.1171C38.4502 62.5851 38.8271 62.9502 39.2803 62.9502C39.2917 62.9502 39.3046 62.9502 39.3176 62.9486C39.7871 62.9286 40.1509 62.5221 40.1314 62.0441L40.1298 62.0093C40.1103 61.528 39.714 61.1547 39.2429 61.1762ZM22.5756 42.366C22.1062 42.3876 21.7423 42.7925 21.7618 43.2721L21.7634 43.307C21.7829 43.7749 22.1598 44.14 22.613 44.14C22.6259 44.14 22.6373 44.14 22.6503 44.14C23.1197 44.1184 23.4836 43.7135 23.4641 43.2339L23.4625 43.1991C23.443 42.7178 23.0466 42.3461 22.5756 42.366ZM20.8408 44.2363L20.8099 44.2379C20.3405 44.2612 19.9783 44.6694 20.001 45.149C20.0238 45.6136 20.4006 45.9754 20.8505 45.9754C20.8652 45.9754 20.8798 45.9754 20.8944 45.9754L20.9253 45.9737C21.3947 45.9488 21.7569 45.5406 21.7326 45.061C21.7098 44.5814 21.3119 44.213 20.8408 44.2363ZM24.3234 44.2462L24.2909 44.2479C23.8215 44.2711 23.4592 44.6793 23.482 45.1589C23.5047 45.6252 23.8816 45.9854 24.3315 45.9854C24.3461 45.9854 24.3607 45.9854 24.3754 45.9854L24.4062 45.9837C24.8757 45.9605 25.2379 45.5522 25.2151 45.0726C25.1924 44.5931 24.7928 44.223 24.3234 44.2462ZM22.5658 46.0816C22.0964 46.1015 21.7326 46.5081 21.7521 46.9877L21.7537 47.0225C21.7732 47.4905 22.15 47.8556 22.6032 47.8556C22.6162 47.8556 22.6292 47.8539 22.6406 47.8539C23.11 47.834 23.4755 47.4274 23.4544 46.9479L23.4527 46.913C23.4332 46.4334 23.0385 46.06 22.5658 46.0816ZM60.1481 58.6157H46.8903C46.71 58.6157 46.5573 58.4829 46.5297 58.3004C46.2666 56.5645 46.0067 54.8254 45.6444 53.1062C45.6152 52.9651 45.6688 52.8191 45.7825 52.7345C48.2174 50.9157 53.7677 45.8111 54.1592 36.835C55.5237 37.0905 58.0934 37.756 59.5309 39.3026C59.8558 39.6495 60.395 39.6644 60.7345 39.3325C61.0756 39.0023 61.0903 38.4513 60.7654 38.1028C58.8763 36.0716 55.6536 35.3182 54.1803 35.071V27.9136C56.586 26.4549 56.9271 24.5333 57.3039 22.0026C57.3754 21.5263 57.0554 21.0832 56.5908 21.0102C56.1263 20.9372 55.6926 21.2641 55.6211 21.7387C55.3596 23.4978 55.2914 24.8801 53.771 26.0965C53.641 26.0152 53.4916 25.9687 53.3292 25.9687C52.8679 25.9687 52.4943 26.3421 52.4796 26.8084C51.112 27.2797 50.0675 26.9279 48.6819 26.5628C44.8777 25.5605 41.7379 25.5157 37.8801 26.3819C35.9276 26.82 33.8485 27.0424 31.6979 27.0424H22.0444C21.575 27.0424 21.1933 27.4307 21.1933 27.912C21.1933 28.3916 21.575 28.7815 22.0444 28.7815H31.6979C33.9703 28.7815 36.1729 28.5459 38.2456 28.0812C41.8467 27.2731 44.7104 27.3112 48.2564 28.2472C49.8287 28.6604 50.9398 28.9873 52.478 28.6156V35.8293C52.478 43.9741 47.8698 48.8363 45.3472 50.8858C44.3109 48.0365 42.8636 45.3249 41.3107 42.7228C39.8244 40.2336 37.8379 39.2661 36.3565 39.0886L29.3101 38.2439C28.8439 38.1875 28.42 38.5293 28.3647 39.0072C28.3111 39.4835 28.6441 39.915 29.1119 39.9714L35.7084 40.763C36.4166 40.8476 37.5016 41.0932 38.1465 41.601C40.7194 43.6322 43.4093 49.9499 44.0493 52.3395C43.9275 52.698 43.8999 53.0896 43.9811 53.4746C44.3401 55.1739 44.587 56.8516 44.8469 58.5675C44.9541 59.2678 45.3829 59.8387 45.9661 60.1341C46.3299 62.3943 46.5557 64.7557 46.6369 67.1603C46.6515 67.6299 47.03 68 47.4864 68C47.4962 68 47.5076 68 47.5157 68C47.9867 67.9834 48.3538 67.5802 48.3376 67.1006C48.2612 64.8005 48.055 62.5353 47.7268 60.3564H60.1481C60.6192 60.3564 60.9993 59.9665 60.9993 59.4852C60.9993 59.0056 60.6192 58.6157 60.1481 58.6157Z" fill="white"/>
</svg>
