<svg width="80" height="80" viewBox="0 0 80 80" fill="none" xmlns="http://www.w3.org/2000/svg">
<path fill-rule="evenodd" clip-rule="evenodd" d="M40 0C62.0894 0 80 17.9106 80 40C80 62.0894 62.0894 80 40 80C17.9106 80 0 62.0894 0 40C0 17.9106 17.9106 0 40 0Z" fill="#8C52FF" fill-opacity="0.2"/>
<path fill-rule="evenodd" clip-rule="evenodd" d="M39.9989 7.08691C58.173 7.08691 72.9118 21.8257 72.9118 39.9999C72.9118 58.174 58.173 72.9128 39.9989 72.9128C21.8248 72.9128 7.08594 58.174 7.08594 39.9999C7.08594 21.8257 21.8248 7.08691 39.9989 7.08691Z" fill="#8C52FF" fill-opacity="0.2"/>
<path fill-rule="evenodd" clip-rule="evenodd" d="M40.0006 12.6406C55.1159 12.6406 67.37 24.8853 67.37 40.0006C67.37 55.1159 55.1159 67.3606 40.0006 67.3606C24.8853 67.3606 12.6406 55.1159 12.6406 40.0006C12.6406 24.8853 24.8853 12.6406 40.0006 12.6406Z" fill="#8C52FF"/>
<path d="M47.6811 23.2697H50.8626C52.65 23.2697 54.2693 24.0942 55.4413 25.4239C56.6074 26.7478 57.3307 28.5755 57.3307 30.5881V44.8148C57.3307 45.0205 57.2467 45.2069 57.1101 45.3425C56.9751 45.4782 56.7875 45.5617 56.5789 45.5617C56.3718 45.5617 56.1827 45.4782 56.0476 45.3425C55.911 45.2083 55.827 45.022 55.827 44.8148V30.5881C55.827 28.9765 55.2672 27.517 54.3638 26.463C53.4649 25.4135 52.2268 24.7635 50.8626 24.7635H47.6811C46.5525 24.7635 45.5306 24.2477 44.7892 23.4158C44.0538 22.587 43.5991 21.445 43.5991 20.1883V18.2875C43.5991 18.2472 43.5856 18.21 43.5661 18.1846C43.5556 18.1697 43.5421 18.1608 43.5316 18.1608H36.4632C36.4527 18.1608 36.4407 18.1697 36.4287 18.1846C36.4092 18.21 36.3972 18.2472 36.3972 18.2875V20.1883C36.3972 21.445 35.9409 22.587 35.2056 23.4158C34.4657 24.2477 33.4422 24.7635 32.3137 24.7635H29.1322C27.768 24.7635 26.5299 25.4135 25.631 26.4615C24.7276 27.5185 24.1678 28.978 24.1678 30.5881V51.6739C24.1678 51.8797 24.0837 52.066 23.9472 52.2017C23.8106 52.3373 23.623 52.4208 23.4159 52.4208C23.2088 52.4208 23.0212 52.3373 22.8847 52.2017C22.7481 52.0675 22.6641 51.8812 22.6641 51.6739V30.5881C22.6641 28.5755 23.3874 26.7478 24.5535 25.4239C25.7255 24.0942 27.3448 23.2697 29.1322 23.2697H32.3137C33.019 23.2697 33.6614 22.9283 34.1281 22.3768C34.5993 21.8177 34.8919 21.0425 34.8919 20.1883V18.2875C34.8919 17.8432 35.0675 17.4377 35.3512 17.144C35.6363 16.8504 36.0295 16.667 36.4632 16.667H43.5316C43.9653 16.667 44.3585 16.8504 44.6436 17.144C44.9273 17.4377 45.1029 17.8432 45.1029 18.2875V20.1883C45.1029 21.0425 45.3955 21.8177 45.8667 22.3768C46.3334 22.9283 46.9758 23.2697 47.6811 23.2697ZM34.7284 33.3714C34.8124 33.2 34.964 33.0613 35.1606 32.9942C35.9049 32.7423 36.4467 32.38 36.7949 31.8866C37.143 31.3946 37.3051 30.7655 37.2901 29.9843C37.2871 29.7801 37.3666 29.5907 37.5002 29.4536C37.6338 29.3164 37.8198 29.23 38.0269 29.2255H38.033C38.2371 29.2225 38.4246 29.303 38.5627 29.4342C38.6993 29.5654 38.7878 29.7502 38.7923 29.956V29.9604C38.8118 31.0577 38.5492 31.9924 38.0179 32.7423C37.4882 33.4922 36.6898 34.0542 35.6423 34.4075C35.6033 34.4209 35.5628 34.4314 35.5237 34.4373C35.4817 34.4448 35.4397 34.4478 35.4022 34.4478C35.2431 34.4478 35.09 34.3986 34.9625 34.3076C34.8394 34.2212 34.7419 34.0944 34.6893 33.9409C34.6233 33.7471 34.6428 33.5428 34.7284 33.3714ZM41.9618 29.2255H41.9678C42.1749 29.23 42.361 29.3164 42.4946 29.4536C42.6282 29.5907 42.7092 29.7801 42.7047 29.9843C42.6912 30.7655 42.8518 31.3946 43.1999 31.8866C43.5496 32.38 44.0899 32.7423 44.8357 32.9942C45.0323 33.0613 45.1824 33.2 45.2679 33.3714C45.352 33.5428 45.3715 33.7471 45.3054 33.9409C45.2529 34.0944 45.1554 34.2212 45.0323 34.3076C44.9048 34.3986 44.7517 34.4478 44.5941 34.4478C44.5551 34.4478 44.5146 34.4448 44.471 34.4373C44.432 34.4314 44.3915 34.4209 44.3525 34.4075C43.305 34.0542 42.5081 33.4922 41.9768 32.7423C41.4456 31.9924 41.183 31.0577 41.2025 29.9604V29.9545C41.2085 29.7502 41.2955 29.5654 41.4336 29.4342C41.5702 29.303 41.7577 29.2225 41.9618 29.2255ZM40.9879 44.1573C40.8513 44.2915 40.6637 44.3765 40.4551 44.3765C40.248 44.3765 40.0604 44.2915 39.9239 44.1573C39.7888 44.0217 39.7033 43.8353 39.7033 43.6296V40.1814C39.7033 39.9756 39.7888 39.7893 39.9239 39.6536C40.0604 39.5195 40.248 39.4345 40.4551 39.4345C40.6637 39.4345 40.8513 39.5195 40.9879 39.6536C41.1229 39.7893 41.207 39.9756 41.207 40.1814V43.6296C41.207 43.8353 41.1229 44.0217 40.9879 44.1573ZM24.2353 57.7534C23.8016 57.7534 23.4069 57.57 23.1233 57.2749C22.8396 56.9812 22.6641 56.5772 22.6641 56.1314V54.2784C22.6641 54.0726 22.7481 53.8848 22.8847 53.7506C23.0197 53.615 23.2088 53.5315 23.4159 53.5315C23.623 53.5315 23.8106 53.615 23.9472 53.7491C24.0837 53.8848 24.1678 54.0726 24.1678 54.2784V56.1314C24.1678 56.1732 24.1798 56.2104 24.1993 56.2343C24.2113 56.2492 24.2248 56.2596 24.2353 56.2596H27.4484L28.8846 50.535C29.2177 49.2067 29.3903 47.8381 29.4008 46.471C29.4128 45.104 29.2627 43.7339 28.9506 42.4012L27.3043 35.3452C27.2563 35.144 27.2968 34.9442 27.3973 34.7832C27.4994 34.6207 27.663 34.4969 27.8656 34.4507C28.0682 34.403 28.2708 34.4433 28.4328 34.5432C28.5964 34.6445 28.721 34.807 28.7675 35.0083L30.4153 42.0642C30.753 43.5103 30.915 44.9981 30.903 46.4845C30.891 47.9708 30.7049 49.4541 30.3433 50.8942L28.9971 56.2596H39.7033V46.2325C39.7033 46.0268 39.7888 45.8404 39.9239 45.7048C40.0604 45.5706 40.248 45.4856 40.4551 45.4856C40.6637 45.4856 40.8513 45.5706 40.9879 45.7048C41.1229 45.8404 41.207 46.0268 41.207 46.2325V56.2596H50.9977L49.6515 50.8957C49.2914 49.4556 49.1038 47.9708 49.0918 46.4845C49.0798 44.9981 49.2418 43.5103 49.5795 42.0642L51.2273 35.0053C51.2753 34.8055 51.3999 34.643 51.562 34.5432C51.7255 34.4433 51.9266 34.403 52.1277 34.4492L52.1457 34.4537C52.3408 34.5044 52.4984 34.6252 52.5975 34.7832C52.6995 34.9442 52.7385 35.1454 52.692 35.3452L51.0442 42.4012C50.7321 43.7339 50.582 45.104 50.594 46.4725C50.6045 47.8396 50.7771 49.2067 51.1102 50.535L52.5464 56.2596H55.761C55.77 56.2596 55.7835 56.2507 55.794 56.2358C55.815 56.2104 55.827 56.1732 55.827 56.1314V47.4192C55.827 47.2135 55.911 47.0256 56.0476 46.8915C56.1827 46.7558 56.3718 46.6723 56.5789 46.6723C56.7875 46.6723 56.9751 46.7558 57.1101 46.89C57.2467 47.0256 57.3307 47.2135 57.3307 47.4192V56.1314C57.3307 56.5772 57.1551 56.9812 56.8715 57.2749C56.5879 57.57 56.1947 57.7534 55.761 57.7534H24.2353Z" fill="white"/>
</svg>
