<svg width="80" height="80" viewBox="0 0 80 80" fill="none" xmlns="http://www.w3.org/2000/svg">
<path fill-rule="evenodd" clip-rule="evenodd" d="M40 0C62.0894 0 80 17.9106 80 40C80 62.0894 62.0894 80 40 80C17.9106 80 0 62.0894 0 40C0 17.9106 17.9106 0 40 0Z" fill="#8C52FF" fill-opacity="0.2"/>
<path fill-rule="evenodd" clip-rule="evenodd" d="M39.9989 7.08691C58.173 7.08691 72.9118 21.8257 72.9118 39.9999C72.9118 58.174 58.173 72.9128 39.9989 72.9128C21.8248 72.9128 7.08594 58.174 7.08594 39.9999C7.08594 21.8257 21.8248 7.08691 39.9989 7.08691Z" fill="#8C52FF" fill-opacity="0.2"/>
<path fill-rule="evenodd" clip-rule="evenodd" d="M40.0006 12.6406C55.1159 12.6406 67.37 24.8853 67.37 40.0006C67.37 55.1159 55.1159 67.3606 40.0006 67.3606C24.8853 67.3606 12.6406 55.1159 12.6406 40.0006C12.6406 24.8853 24.8853 12.6406 40.0006 12.6406Z" fill="#8C52FF"/>
<path d="M26.4793 35.0402L23.7759 34.7391C23.3589 34.6887 22.9798 34.9942 22.9319 35.4198C22.8825 35.8469 23.1803 36.2325 23.5986 36.2829L26.3006 36.5839C26.3311 36.5869 26.3616 36.5884 26.3906 36.5884C26.7712 36.5884 27.101 36.2977 27.146 35.9018C27.1954 35.4762 26.8962 35.0891 26.4793 35.0402ZM37.7185 46.1607C37.7185 45.3466 37.4076 44.5814 36.844 44.006C36.2804 43.4306 35.5308 43.1133 34.7333 43.1133C33.959 43.1133 33.2312 43.4129 32.6734 43.9556C32.1156 43.4129 31.3863 43.1133 30.6135 43.1133C29.816 43.1133 29.0664 43.4306 28.5028 44.006C27.9392 44.5814 27.6283 45.3466 27.6283 46.1607C27.6283 46.9749 27.9392 47.7401 28.5028 48.3154L31.5505 51.4267C31.8599 51.7425 32.2667 51.8997 32.6734 51.8997C33.0801 51.8997 33.4869 51.7425 33.7963 51.4267L36.844 48.3154C37.4076 47.7401 37.7185 46.9749 37.7185 46.1607ZM35.7676 47.2166L32.7199 50.3263C32.6937 50.353 32.6516 50.353 32.6269 50.3263L29.5792 47.2166C29.3032 46.9348 29.1522 46.5597 29.1522 46.1607C29.1522 45.7618 29.3032 45.3866 29.5792 45.1049C29.8552 44.8231 30.2228 44.6674 30.6135 44.6674C31.0043 44.6674 31.3704 44.8231 31.6478 45.1049L32.1359 45.6032C32.4323 45.9057 32.9145 45.9057 33.2123 45.6032L33.699 45.1049C33.975 44.8231 34.3425 44.6674 34.7333 44.6674C35.124 44.6674 35.4916 44.8231 35.7676 45.1049C36.337 45.6877 36.337 46.6338 35.7676 47.2166ZM38.5538 52.5833C38.134 52.6011 37.8071 52.963 37.826 53.393L37.8274 53.4242C37.8449 53.8409 38.1819 54.1671 38.5872 54.1671C38.5973 54.1671 38.609 54.1671 38.6206 54.1671C39.0404 54.1478 39.3658 53.786 39.3484 53.3574L39.3469 53.3263C39.3295 52.8977 38.9736 52.5656 38.5538 52.5833ZM37.0023 54.2531L36.9747 54.2546C36.5535 54.2754 36.231 54.6402 36.2513 55.0688C36.2716 55.4855 36.6072 55.8087 37.011 55.8087C37.0241 55.8087 37.0357 55.8073 37.0488 55.8073L37.0764 55.8058C37.4977 55.785 37.8216 55.4202 37.7998 54.9916C37.7795 54.5616 37.4221 54.2309 37.0023 54.2531ZM40.1154 54.262L40.0878 54.2635C39.668 54.2843 39.344 54.6491 39.3644 55.0776C39.3847 55.4944 39.7217 55.8176 40.1241 55.8176C40.1372 55.8176 40.1502 55.8162 40.1633 55.8162L40.1909 55.8147C40.6107 55.7939 40.9347 55.4291 40.9129 55.0005C40.8926 54.572 40.5352 54.2398 40.1154 54.262ZM38.5451 55.9022C38.1252 55.9214 37.7984 56.2833 37.8173 56.7133L37.8187 56.743C37.8362 57.1612 38.1732 57.4874 38.5785 57.4874C38.5886 57.4874 38.6003 57.4874 38.6119 57.4859C39.0317 57.4681 39.3571 57.1048 39.3397 56.6777L39.3382 56.6466C39.3208 56.2165 38.9663 55.8829 38.5451 55.9022ZM23.6393 39.0931C23.2195 39.1123 22.8941 39.4742 22.9115 39.9027L22.913 39.9339C22.9304 40.3521 23.2674 40.6783 23.6727 40.6783C23.6843 40.6783 23.6945 40.6783 23.7061 40.6783C24.126 40.659 24.4513 40.2972 24.4339 39.8686L24.4325 39.8375C24.415 39.4074 24.0606 39.0753 23.6393 39.0931ZM22.0879 40.7643L22.0603 40.7658C21.6405 40.7866 21.3165 41.1514 21.3368 41.5799C21.3572 41.9952 21.6942 42.3184 22.0966 42.3184C22.1097 42.3184 22.1227 42.3184 22.1358 42.3184L22.1634 42.317C22.5832 42.2947 22.9072 41.9299 22.8854 41.5013C22.865 41.0728 22.5091 40.7436 22.0879 40.7643ZM25.2024 40.7732L25.1733 40.7747C24.7535 40.7955 24.4296 41.1603 24.4499 41.5888C24.4702 42.0055 24.8072 42.3273 25.2096 42.3273C25.2227 42.3273 25.2358 42.3273 25.2489 42.3273L25.2765 42.3259C25.6963 42.3051 26.0202 41.9403 25.9999 41.5117C25.9795 41.0832 25.6222 40.7525 25.2024 40.7732ZM23.6306 42.4134C23.2108 42.4311 22.8854 42.7945 22.9028 43.223L22.9043 43.2542C22.9217 43.6724 23.2587 43.9986 23.664 43.9986C23.6756 43.9986 23.6872 43.9971 23.6974 43.9971C24.1172 43.9793 24.4441 43.616 24.4252 43.1874L24.4237 43.1563C24.4063 42.7277 24.0533 42.3941 23.6306 42.4134ZM57.2408 53.614H45.3842C45.2229 53.614 45.0864 53.4954 45.0617 53.3322C44.8264 51.7811 44.5939 50.227 44.27 48.6906C44.2438 48.5646 44.2918 48.4341 44.3935 48.3585C46.571 46.7332 51.5347 42.1716 51.8848 34.1504C53.1051 34.3788 55.4032 34.9734 56.6888 36.3555C56.9793 36.6655 57.4616 36.6788 57.7652 36.3822C58.0703 36.0871 58.0833 35.5948 57.7928 35.2834C56.1034 33.4683 53.2213 32.795 51.9037 32.5741V26.1781C54.0551 24.8746 54.3602 23.1574 54.6972 20.8959C54.7611 20.4703 54.4749 20.0744 54.0595 20.0091C53.644 19.9439 53.2561 20.236 53.1922 20.6601C52.9583 22.232 52.8973 23.4673 51.5376 24.5543C51.4214 24.4817 51.2878 24.4401 51.1425 24.4401C50.73 24.4401 50.3959 24.7738 50.3828 25.1905C49.1596 25.6117 48.2256 25.2973 46.9865 24.971C43.5843 24.0753 40.7763 24.0353 37.3263 24.8094C35.5802 25.2009 33.7208 25.3996 31.7974 25.3996H23.1643C22.7445 25.3996 22.4031 25.7466 22.4031 26.1767C22.4031 26.6052 22.7445 26.9537 23.1643 26.9537H31.7974C33.8297 26.9537 35.7995 26.7431 37.6531 26.3279C40.8737 25.6057 43.4347 25.6398 46.6059 26.4762C48.012 26.8455 49.0057 27.1376 50.3813 26.8054V33.2518C50.3813 40.53 46.2601 44.875 44.0041 46.7065C43.0774 44.1603 41.783 41.7371 40.3943 39.4119C39.0651 37.1875 37.2885 36.3229 35.9637 36.1642L29.662 35.4094C29.2451 35.359 28.866 35.6645 28.8166 36.0916C28.7687 36.5172 29.0664 36.9028 29.4848 36.9532L35.3841 37.6605C36.0174 37.7362 36.9878 37.9556 37.5645 38.4094C39.8655 40.2245 42.2711 45.8701 42.8435 48.0055C42.7345 48.3258 42.7098 48.6758 42.7825 49.0198C43.1035 50.5384 43.3243 52.0376 43.5567 53.571C43.6526 54.1968 44.0361 54.7069 44.5576 54.9709C44.883 56.9906 45.0849 59.1009 45.1576 61.2496C45.1706 61.6693 45.5091 62 45.9173 62C45.926 62 45.9362 62 45.9435 62C46.3647 61.9852 46.693 61.6248 46.6785 61.1963C46.6102 59.1409 46.4257 57.1167 46.1323 55.1696H57.2408C57.6621 55.1696 58.002 54.8211 58.002 54.391C58.002 53.9625 57.6621 53.614 57.2408 53.614Z" fill="white"/>
</svg>
