<svg width="120" height="120" viewBox="0 0 120 120" fill="none" xmlns="http://www.w3.org/2000/svg">
<path fill-rule="evenodd" clip-rule="evenodd" d="M60 0C93.1341 0 120 26.8659 120 60C120 93.1341 93.1341 120 60 120C26.8659 120 0 93.1341 0 60C0 26.8659 26.8659 0 60 0Z" fill="#8C52FF" fill-opacity="0.2"/>
<path fill-rule="evenodd" clip-rule="evenodd" d="M60.0022 10.6306C87.2634 10.6306 109.372 32.7389 109.372 60C109.372 87.2612 87.2634 109.369 60.0022 109.369C32.7411 109.369 10.6328 87.2612 10.6328 60C10.6328 32.7389 32.7411 10.6306 60.0022 10.6306Z" fill="#8C52FF" fill-opacity="0.2"/>
<path fill-rule="evenodd" clip-rule="evenodd" d="M60.0009 18.96C82.6739 18.96 101.055 37.327 101.055 60C101.055 82.6729 82.6739 101.04 60.0009 101.04C37.328 101.04 18.9609 82.6729 18.9609 60C18.9609 37.327 37.328 18.96 60.0009 18.96Z" fill="#8C52FF"/>
<path d="M88 52.4968C88 45.6543 85.0125 39.2312 79.5908 34.4109C74.2173 29.6326 67.0803 27 59.5 27C51.9198 27 44.7827 29.6326 39.4069 34.4109C33.9876 39.2312 31 45.6543 31 52.4968C31 58.652 33.4732 64.5672 37.9671 69.2011C38.4402 74.4733 40.5322 79.4846 43.9767 83.5104C47.9195 88.1186 53.3687 91.1287 59.3232 91.986C59.3829 91.9953 59.4403 92 59.5 92C59.5597 92 59.6171 91.9953 59.6768 91.986C62.9767 91.5108 66.0951 90.3971 68.9426 88.6731C69.5373 88.3143 69.7302 87.5362 69.3766 86.9328C69.023 86.3317 68.256 86.1337 67.6612 86.4925C65.149 88.0115 62.4049 89.0063 59.5 89.4466C48.5786 87.7832 40.3668 78.124 40.3668 66.9039V58.193C40.3668 53.5102 42.902 49.2934 46.9803 47.1826C54.82 43.1289 64.18 43.1289 72.0197 47.1826C76.098 49.2934 78.6332 53.5102 78.6332 58.193V66.9039C78.6332 71.1814 77.4552 75.3539 75.2277 78.9697C74.8603 79.5661 75.0394 80.3489 75.6273 80.7194C76.2128 81.0921 76.9844 80.9104 77.3495 80.3163C79.4254 76.9452 80.6815 73.143 81.0329 69.2011C85.5268 64.5672 88 58.652 88 52.4968ZM72.7614 82.8254C72.433 82.8254 72.1116 82.9629 71.8773 83.1982C71.6454 83.4335 71.5099 83.762 71.5099 84.0952C71.5099 84.4283 71.6454 84.7568 71.8773 84.9921C72.1116 85.2298 72.433 85.3649 72.7614 85.3649C73.0921 85.3649 73.4136 85.2298 73.6478 84.9921C73.8797 84.7568 74.0129 84.4283 74.0129 84.0952C74.0129 83.762 73.8797 83.4335 73.6478 83.1982C73.4136 82.9629 73.0921 82.8254 72.7614 82.8254ZM56.3196 58.3258C56.8087 58.822 57.6009 58.822 58.0877 58.3258L58.2646 58.1487V61.471C58.2646 62.1722 58.8249 62.7383 59.5161 62.7383C60.2073 62.7383 60.7676 62.1722 60.7676 61.471V58.1487L60.9421 58.3258C61.1878 58.5751 61.507 58.6986 61.8262 58.6986C62.1477 58.6986 62.4669 58.5751 62.7126 58.3258C63.2017 57.8319 63.2017 57.0281 62.7126 56.5319L60.4002 54.1858C60.1659 53.9482 59.8468 53.8131 59.5161 53.8131C59.1831 53.8131 58.8662 53.9482 58.632 54.1858L56.3196 56.5319C55.8304 57.0281 55.8304 57.8319 56.3196 58.3258ZM50.0987 67.9081C51.7269 67.9081 53.355 67.279 54.595 66.021C55.0841 65.5271 55.0841 64.7233 54.595 64.2271C54.1059 63.7308 53.3136 63.7308 52.8245 64.2271C51.3204 65.753 48.8748 65.753 47.3707 64.2271C46.8816 63.7308 46.0893 63.7308 45.6002 64.2271C45.1134 64.7233 45.1134 65.5271 45.6002 66.021C46.8402 67.279 48.4706 67.9081 50.0987 67.9081ZM66.1571 52.6529C66.2696 52.6855 66.3822 52.6995 66.4924 52.6995C67.0412 52.6995 67.5441 52.3314 67.698 51.7699C67.8817 51.0919 67.4913 50.393 66.8254 50.2066C66.4396 50.0995 66.0492 49.9993 65.6588 49.9084C64.986 49.75 64.3154 50.1787 64.1593 50.8613C64.0054 51.5439 64.4257 52.2242 65.0985 52.3826C65.4521 52.4642 65.8081 52.555 66.1571 52.6529ZM59.252 51.7396C59.6148 51.7349 59.9822 51.7396 60.3428 51.7536C60.3565 51.7536 60.3703 51.7536 60.3864 51.7536C61.0569 51.7536 61.6126 51.2131 61.6356 50.5281C61.6586 49.8269 61.1189 49.2398 60.4277 49.2142C60.0305 49.2025 59.6263 49.1979 59.2267 49.2002C58.5355 49.2072 57.9798 49.7803 57.9867 50.4815C57.9936 51.1805 58.5539 51.7396 59.2382 51.7396C59.2428 51.7396 59.2474 51.7396 59.252 51.7396ZM53.9796 49.7663C53.5892 49.8479 53.1942 49.9387 52.8084 50.0389C52.1379 50.209 51.7314 50.8986 51.8991 51.5765C52.0415 52.1543 52.5512 52.5387 53.1116 52.5387C53.2126 52.5387 53.3136 52.5271 53.417 52.4991C53.7683 52.4106 54.1265 52.329 54.4802 52.2545C55.1576 52.1124 55.5939 51.4437 55.4561 50.7565C55.3183 50.0692 54.6547 49.6265 53.9796 49.7663ZM47.8368 51.8375C47.4763 52.0099 47.1135 52.1916 46.7599 52.3803C46.149 52.7065 45.9125 53.4729 46.234 54.095C46.459 54.526 46.893 54.7729 47.3431 54.7729C47.5406 54.7729 47.7381 54.7263 47.9241 54.6285C48.2456 54.4561 48.574 54.2907 48.9023 54.1346C49.527 53.8364 49.7956 53.0792 49.4994 52.4455C49.2078 51.8118 48.4614 51.5392 47.8368 51.8375ZM70.6327 54.3979C70.9565 54.5633 71.2826 54.7357 71.5995 54.9151C71.7901 55.0246 71.999 55.0758 72.2057 55.0758C72.6443 55.0758 73.0714 54.8405 73.3011 54.4235C73.6363 53.8108 73.4205 53.0373 72.8165 52.6971C72.4675 52.4991 72.1093 52.3081 71.7533 52.1263C71.1356 51.8142 70.3824 52.0681 70.0747 52.6948C69.7647 53.3215 70.015 54.0833 70.6327 54.3979ZM52.6959 78.2661C54.4434 80.1905 56.9212 81.2925 59.5 81.2925C62.0765 81.2925 64.5566 80.1905 66.3041 78.2661L67.1354 77.3482C67.3765 77.0849 67.4936 76.7308 67.4614 76.372C67.4293 76.0156 67.2502 75.6894 66.9677 75.4728L64.7724 73.8C63.2339 72.6235 61.2314 72.3952 59.5 73.157C57.7686 72.3975 55.7661 72.6235 54.2253 73.8L52.0323 75.4728C51.7498 75.6894 51.5707 76.0156 51.5386 76.372C51.5064 76.7308 51.6235 77.0849 51.8646 77.3482L52.6959 78.2661ZM55.7317 75.8269C56.6456 75.1303 57.8719 75.0651 58.8524 75.6685C59.252 75.9108 59.748 75.9108 60.1476 75.6685C61.1281 75.0651 62.3544 75.1303 63.2683 75.8269L64.3568 76.6586C63.0892 77.9912 61.3279 78.753 59.5 78.753C57.6721 78.753 55.9085 77.9912 54.6432 76.6586L55.7317 75.8269ZM73.4297 66.021C73.9188 65.5271 73.9188 64.7233 73.4297 64.2271C72.9405 63.7308 72.1483 63.7308 71.6615 64.2271C70.1574 65.753 67.7095 65.753 66.2076 64.2271C65.7185 63.7308 64.9263 63.7308 64.4372 64.2271C63.948 64.7233 63.948 65.5271 64.4372 66.021C65.6772 67.279 67.3053 67.9081 68.9334 67.9081C70.5615 67.9081 72.1896 67.279 73.4297 66.021ZM73.1564 44.9204C72.5134 44.5896 71.859 44.2844 71.1976 44.0025C72.0679 42.4416 72.5226 40.6896 72.5226 38.8584C72.5226 38.1572 71.9646 37.5887 71.2734 37.5887C70.5822 37.5887 70.0219 38.1572 70.0219 38.8584C70.0219 40.3821 69.6062 41.8358 68.814 43.1009C66.1985 42.2389 63.4888 41.752 60.7676 41.6355V36.5427C60.7676 35.8414 60.2073 35.2729 59.5161 35.2729C58.8249 35.2729 58.2646 35.8414 58.2646 36.5427V41.6332C55.5319 41.7473 52.8107 42.2342 50.186 43.1009C49.3938 41.8335 48.9781 40.3821 48.9781 38.8584C48.9781 38.1572 48.4178 37.5887 47.7266 37.5887C47.0354 37.5887 46.4751 38.1572 46.4751 38.8584C46.4751 40.6896 46.9321 42.4416 47.8024 44.0025C47.141 44.2844 46.4866 44.5896 45.8436 44.9204C43.5725 46.097 41.6987 47.814 40.337 49.8758C40.1326 49.4215 39.9627 48.9532 39.8272 48.4663C39.6412 47.7907 38.95 47.397 38.284 47.5857C37.6181 47.7767 37.2323 48.478 37.4183 49.1513C37.7536 50.3697 38.2679 51.509 38.9408 52.5527C38.2404 54.307 37.8638 56.2151 37.8638 58.193V65.2219C35.0347 61.4733 33.503 57.0514 33.503 52.4968C33.503 39.8392 45.1662 29.5394 59.5 29.5394C73.8338 29.5394 85.497 39.8392 85.497 52.4968C85.497 57.0514 83.9653 61.4733 81.1362 65.2219V58.193C81.1362 56.2151 80.7596 54.307 80.0592 52.5504C80.7321 51.509 81.2464 50.3697 81.5817 49.1513C81.7677 48.4756 81.3819 47.7767 80.716 47.5857C80.05 47.397 79.3588 47.7907 79.1728 48.4663C79.0373 48.9532 78.8651 49.4215 78.663 49.8758C77.3013 47.814 75.4275 46.097 73.1564 44.9204Z" fill="white"/>
</svg>
