<svg width="80" height="80" viewBox="0 0 80 80" fill="none" xmlns="http://www.w3.org/2000/svg">
<path fill-rule="evenodd" clip-rule="evenodd" d="M40 0C62.0894 0 80 17.9106 80 40C80 62.0894 62.0894 80 40 80C17.9106 80 0 62.0894 0 40C0 17.9106 17.9106 0 40 0Z" fill="#8C52FF" fill-opacity="0.2"/>
<path fill-rule="evenodd" clip-rule="evenodd" d="M39.9989 7.08691C58.173 7.08691 72.9118 21.8257 72.9118 39.9999C72.9118 58.174 58.173 72.9128 39.9989 72.9128C21.8248 72.9128 7.08594 58.174 7.08594 39.9999C7.08594 21.8257 21.8248 7.08691 39.9989 7.08691Z" fill="#8C52FF" fill-opacity="0.2"/>
<path fill-rule="evenodd" clip-rule="evenodd" d="M40.0006 12.6406C55.1159 12.6406 67.37 24.8853 67.37 40.0006C67.37 55.1159 55.1159 67.3606 40.0006 67.3606C24.8853 67.3606 12.6406 55.1159 12.6406 40.0006C12.6406 24.8853 24.8853 12.6406 40.0006 12.6406Z" fill="#8C52FF"/>
<path d="M38.7877 22.5198C38.7863 22.5156 38.7863 22.5115 38.7849 22.5074C38.7849 22.5074 38.7849 22.5061 38.7849 22.5047C38.4761 21.0772 37.1279 20 35.517 20C34.11 20 32.9057 20.8212 32.4167 21.9778C31.9822 21.6616 31.4387 21.4741 30.8477 21.4741C29.5735 21.4741 28.5131 22.3514 28.3175 23.497C28.175 23.4696 28.0283 23.4559 27.8774 23.4559C26.6171 23.4559 25.593 24.4168 25.593 25.5979C25.593 25.6226 25.5944 25.6486 25.5958 25.6732C25.5092 25.6623 25.4198 25.6568 25.329 25.6568C24.1847 25.6568 23.25 26.5122 23.2095 27.5757C22.1756 27.5784 21.3359 28.3668 21.3359 29.3358C21.3359 29.8532 21.5762 30.3404 21.9954 30.6758C21.9954 30.6758 22.0247 36.1957 22.0806 36.5009C22.0806 36.5118 22.0834 36.5228 22.0848 36.5337L22.5277 39.0946C22.5766 39.3765 22.8379 39.5777 23.1341 39.5777C23.1662 39.5777 23.1997 39.575 23.2333 39.5695C23.5672 39.5188 23.7949 39.2232 23.7404 38.9084L23.3045 36.39C23.3031 36.3722 23.3003 36.3558 23.2975 36.3394C23.2486 36.0875 23.2249 35.8357 23.2249 35.5893C23.2249 35.5497 23.2249 30.5088 23.2249 30.5088C23.2249 30.3213 23.0363 29.9613 22.796 29.8025C22.6395 29.6971 22.564 29.5165 22.564 29.3358C22.564 29.0005 22.8546 28.7281 23.2123 28.7281C23.5364 28.7281 23.8061 28.954 23.8522 29.2469V31.8104C23.8522 32.1279 24.1274 32.3866 24.4669 32.3866C24.8162 32.3866 25.336 32.0951 25.5316 31.8802L30.4272 29.1127C30.4439 29.1031 30.4607 29.0922 30.4775 29.0812C30.6968 28.9266 30.9343 28.7911 31.1844 28.6761C31.1858 28.6761 31.1886 28.6747 31.1914 28.6734C31.8047 28.3928 32.4628 28.2504 33.1488 28.2504C33.4883 28.2504 33.7635 27.9918 33.7635 27.6742C33.7635 27.4443 33.6196 27.2458 33.4115 27.1528C33.4115 27.1528 33.4115 23.2137 33.4115 23.1275C33.4115 22.038 34.3559 21.1524 35.517 21.1524C36.5299 21.1524 37.3794 21.8272 37.5777 22.7251C37.5875 22.7757 37.6616 23.1083 37.6728 23.3547C37.6937 23.8611 37.7412 24.3647 37.7063 24.8657C37.6644 25.4761 37.5708 25.8265 37.4799 26.1659C37.378 26.5505 37.2718 26.9475 37.2606 27.614C37.2508 28.156 37.3095 28.5201 37.3821 28.865C37.1963 28.672 36.9951 28.4886 36.7758 28.3189C36.5145 28.1163 36.1275 28.1519 35.911 28.3969C35.6958 28.6419 35.7321 29.006 35.9948 29.2085C37.0287 30.0092 37.6225 31.189 37.6225 32.4455C37.6225 32.7083 37.5945 32.9752 37.5414 33.2393C37.5372 33.2571 37.5358 33.2735 37.533 33.2913L35.3577 53.9298C35.3563 53.9489 35.3549 53.9681 35.3549 53.9872C35.3549 56.3003 33.3486 58.1823 30.8812 58.1823C28.7254 58.1823 26.8756 56.7397 26.4844 54.7523C26.483 54.7455 26.4816 54.7373 26.4788 54.7304L26.476 54.7085C26.476 54.7058 26.4746 54.7031 26.4746 54.7003C26.4663 54.6579 26.4593 54.6141 26.4523 54.5703C26.4523 54.5662 26.4509 54.5621 26.4509 54.5566L24.3021 42.1536C24.249 41.8401 23.9318 41.6266 23.5979 41.6773C23.2626 41.7279 23.0363 42.0249 23.0894 42.3383L25.2368 54.7359C25.2451 54.7879 25.2535 54.8399 25.2633 54.8919L25.2717 54.9467C25.2759 54.9645 25.2787 54.9836 25.2843 55.0014C25.7998 57.5143 28.147 59.3333 30.8812 59.3333C34.015 59.3333 36.5676 56.9504 36.583 54.016L38.7527 33.4296C38.8072 33.1545 38.838 32.8766 38.8477 32.6015C38.9176 31.8953 38.9274 31.1767 38.8785 30.465C38.824 29.6944 38.7178 29.2263 38.634 28.8486C38.5446 28.4503 38.4789 28.1615 38.4887 27.6332C38.4985 27.098 38.5753 26.8106 38.6717 26.4451C38.7709 26.0742 38.8827 25.654 38.933 24.941C38.9833 24.1991 38.9456 23.4491 38.8198 22.7073C38.8114 22.6443 38.8002 22.5813 38.7877 22.5198ZM27.8774 24.6084C28.0981 24.6084 28.3035 24.6727 28.474 24.7836C28.854 25.0026 28.9322 25.5514 28.9322 25.5979V28.6118L27.4526 29.4494V27.2896C27.4526 27.1883 27.3968 26.5861 27.1998 26.3562C27.0028 26.1276 26.8225 25.8908 26.8225 25.5979C26.8225 25.0518 27.2962 24.6084 27.8774 24.6084ZM25.0817 30.7894V29.4234C25.0789 28.7993 24.9015 28.4037 24.7561 28.2901C24.5522 28.13 24.4362 27.896 24.4362 27.6469C24.4362 27.1856 24.8372 26.8092 25.329 26.8092C25.8222 26.8092 26.2231 27.1856 26.2231 27.6469V30.1433L25.0817 30.7894ZM30.6479 27.64C30.6451 27.64 30.6423 27.6414 30.6395 27.6427C30.4761 27.7194 30.3154 27.8015 30.1603 27.8918V25.5103C30.1603 25.5076 30.1603 25.5062 30.1603 25.5049C30.1477 24.982 29.8697 24.5221 29.6587 24.2635C29.5679 24.1526 29.5148 24.0185 29.5134 23.8789V23.8775C29.5134 23.1877 30.1128 22.6251 30.8477 22.6251C31.584 22.6251 32.182 23.1877 32.182 23.8775V27.1747C31.6525 27.2595 31.1383 27.4142 30.6479 27.64Z" fill="white"/>
<path d="M40.5523 22.5198C40.5523 22.5156 40.5523 22.5115 40.5537 22.5074C40.5537 22.5074 40.5537 22.5061 40.5551 22.5047C40.8624 21.0772 42.2107 20 43.823 20C45.2285 20 46.4328 20.8212 46.9219 21.9778C47.3564 21.6616 47.8999 21.4741 48.4908 21.4741C49.7664 21.4741 50.8269 22.3514 51.0211 23.497C51.1636 23.4696 51.3117 23.4559 51.4626 23.4559C52.7214 23.4559 53.7455 24.4168 53.7455 25.5979C53.7455 25.6226 53.7441 25.6486 53.7427 25.6732C53.8307 25.6623 53.9188 25.6568 54.0096 25.6568C55.1538 25.6568 56.0899 26.5122 56.129 27.5757C57.1629 27.5784 58.0026 28.3668 58.0026 29.3358C58.0026 29.8532 57.7623 30.3404 57.3432 30.6758C57.3432 30.6758 57.3152 36.1957 57.2593 36.5009C57.2579 36.5118 57.2565 36.5228 57.2537 36.5337L56.8108 39.0946C56.7619 39.3765 56.5007 39.5777 56.2059 39.5777C56.1723 39.5777 56.1388 39.575 56.1053 39.5695C55.7714 39.5188 55.5436 39.2232 55.5981 38.9084L56.034 36.39C56.0354 36.3722 56.0382 36.3558 56.0424 36.3394C56.0899 36.0875 56.1137 35.8357 56.1137 35.5893C56.1137 35.5497 56.1137 30.5088 56.1137 30.5088C56.1137 30.3213 56.3023 29.9613 56.5426 29.8025C56.6991 29.6971 56.7745 29.5165 56.7745 29.3358C56.7745 29.0005 56.4839 28.7281 56.1262 28.7281C55.8021 28.7281 55.5325 28.954 55.4863 29.2469V31.8104C55.4863 32.1279 55.2111 32.3866 54.8716 32.3866C54.5223 32.3866 54.0026 32.0951 53.807 31.8802L48.9114 29.1127C48.8946 29.1031 48.8779 29.0922 48.8611 29.0812C48.6417 28.9266 48.4042 28.7911 48.1541 28.6761C48.1527 28.6761 48.1499 28.6747 48.1485 28.6734C47.5352 28.3928 46.8757 28.2504 46.1897 28.2504C45.8502 28.2504 45.575 27.9918 45.575 27.6742C45.575 27.4443 45.7203 27.2458 45.9285 27.1528C45.9285 27.1528 45.9285 23.2137 45.9285 23.1275C45.9285 22.038 44.984 21.1524 43.823 21.1524C42.8087 21.1524 41.9592 21.8272 41.7608 22.7251C41.751 22.7757 41.677 23.1083 41.6658 23.3547C41.6448 23.8611 41.5973 24.3647 41.6323 24.8657C41.6756 25.4761 41.7678 25.8265 41.8586 26.1659C41.962 26.5505 42.0668 26.9475 42.0793 27.614C42.0891 28.156 42.0304 28.5201 41.9564 28.865C42.1422 28.672 42.3448 28.4886 42.5628 28.3189C42.824 28.1163 43.211 28.1519 43.4276 28.3969C43.6427 28.6419 43.6064 29.006 43.3452 29.2085C42.3099 30.0092 41.7161 31.189 41.7161 32.4455C41.7161 32.7083 41.744 32.9752 41.7985 33.2393C41.8013 33.2571 41.8041 33.2735 41.8055 33.2913L43.9809 53.9298C43.9837 53.9489 43.9837 53.9681 43.9837 53.9872C43.9837 56.3003 45.99 58.1823 48.4573 58.1823C50.6145 58.1823 52.4643 56.7397 52.8541 54.7523C52.8555 54.7455 52.8583 54.7373 52.8597 54.7304L52.8625 54.7085C52.8639 54.7058 52.8639 54.7031 52.8639 54.7003C52.8723 54.6579 52.8793 54.6141 52.8863 54.5703C52.8863 54.5662 52.8877 54.5621 52.8877 54.5566L55.0365 42.1536C55.091 41.8401 55.4067 41.6266 55.7406 41.6773C56.0759 41.7279 56.3037 42.0249 56.2492 42.3383L54.1018 54.7359C54.0948 54.7879 54.085 54.8399 54.0766 54.8919L54.0668 54.9467C54.0641 54.9645 54.0599 54.9836 54.0543 55.0014C53.5401 57.5143 51.1929 59.3333 48.4573 59.3333C45.3235 59.3333 42.7723 56.9504 42.7556 54.016L40.5858 33.4296C40.5313 33.1545 40.5006 32.8766 40.4922 32.6015C40.4223 31.8953 40.4112 31.1767 40.4615 30.465C40.5145 29.6944 40.6207 29.2263 40.706 28.8486C40.7954 28.4503 40.8596 28.1615 40.8499 27.6332C40.8415 27.098 40.7646 26.8106 40.6668 26.4451C40.5676 26.0742 40.4559 25.654 40.407 24.941C40.3553 24.1991 40.393 23.4491 40.5187 22.7073C40.5285 22.6443 40.5383 22.5813 40.5523 22.5198ZM51.4626 24.6084C51.2404 24.6084 51.035 24.6727 50.8646 24.7836C50.4846 25.0026 50.4063 25.5514 50.4063 25.5979V28.6118L51.8873 29.4494V27.2896C51.8873 27.1883 51.9418 26.5861 52.1388 26.3562C52.3358 26.1276 52.5174 25.8908 52.5174 25.5979C52.5174 25.0518 52.0438 24.6084 51.4626 24.6084ZM54.2583 30.7894V29.4234C54.2611 28.7993 54.4385 28.4037 54.5824 28.2901C54.7864 28.13 54.9023 27.896 54.9023 27.6469C54.9023 27.1856 54.5028 26.8092 54.0096 26.8092C53.5164 26.8092 53.1154 27.1856 53.1154 27.6469V30.1433L54.2583 30.7894ZM48.6906 27.64C48.6934 27.64 48.6962 27.6414 48.699 27.6427C48.8639 27.7194 49.0232 27.8015 49.1782 27.8918V25.5103C49.1782 25.5076 49.1782 25.5062 49.1782 25.5049C49.1908 24.982 49.4688 24.5221 49.6812 24.2635C49.7706 24.1526 49.8251 24.0185 49.8251 23.8789V23.8775C49.8251 23.1877 49.2271 22.6251 48.4908 22.6251C47.7559 22.6251 47.1566 23.1877 47.1566 23.8775V27.1747C47.6875 27.2595 48.2002 27.4142 48.6906 27.64Z" fill="white"/>
</svg>
