<svg width="80" height="80" viewBox="0 0 80 80" fill="none" xmlns="http://www.w3.org/2000/svg">
<path fill-rule="evenodd" clip-rule="evenodd" d="M40 0C62.0894 0 80 17.9106 80 40C80 62.0894 62.0894 80 40 80C17.9106 80 0 62.0894 0 40C0 17.9106 17.9106 0 40 0Z" fill="#8C52FF" fill-opacity="0.2"/>
<path fill-rule="evenodd" clip-rule="evenodd" d="M39.9989 7.08691C58.173 7.08691 72.9118 21.8257 72.9118 39.9999C72.9118 58.174 58.173 72.9128 39.9989 72.9128C21.8248 72.9128 7.08594 58.174 7.08594 39.9999C7.08594 21.8257 21.8248 7.08691 39.9989 7.08691Z" fill="#8C52FF" fill-opacity="0.2"/>
<path fill-rule="evenodd" clip-rule="evenodd" d="M40.0006 12.6406C55.1159 12.6406 67.37 24.8853 67.37 40.0006C67.37 55.1159 55.1159 67.3606 40.0006 67.3606C24.8853 67.3606 12.6406 55.1159 12.6406 40.0006C12.6406 24.8853 24.8853 12.6406 40.0006 12.6406Z" fill="#8C52FF"/>
<path d="M50.6982 24.0993C50.0889 24.0993 49.5175 24.2589 49.0275 24.5374C48.8428 22.9529 47.4425 21.7154 45.7486 21.7154C45.1393 21.7154 44.5679 21.8764 44.0779 22.155C43.8932 20.5704 42.493 19.333 40.799 19.333C39.1036 19.333 37.7033 20.5704 37.5201 22.155C37.0301 21.8764 36.4586 21.7154 35.8494 21.7154C34.0289 21.7154 32.5487 23.1404 32.5487 24.893V45.0373C30.8286 43.093 28.7245 40.8688 28.5021 40.6336C27.8725 39.9057 26.9491 39.4872 25.9633 39.4872C24.1443 39.4872 22.6641 40.9136 22.6641 42.6647C22.6641 43.3968 22.9302 44.1121 23.4129 44.6776C25.0923 46.6485 26.5653 48.5816 27.8667 50.2893C31.2037 54.6707 33.8399 58.131 37.6713 59.4538C37.7629 59.4846 37.8574 59.5 37.9505 59.5C38.2893 59.5 38.6063 59.2984 38.727 58.9736C38.8811 58.5607 38.6572 58.1058 38.2282 57.9574C34.8723 56.7998 32.3669 53.5117 29.1971 49.3501C27.8841 47.6269 26.3952 45.6742 24.6896 43.6697C24.4438 43.3828 24.3144 43.0356 24.3144 42.6647C24.3144 41.9018 24.9455 41.0759 25.9633 41.0759C26.4591 41.0759 26.9259 41.2873 27.24 41.6582C27.2501 41.6694 27.2589 41.6792 27.269 41.6904C27.3068 41.7296 30.8896 45.5105 32.5836 47.5695C32.6839 47.8985 32.9995 48.1379 33.3746 48.1379C33.3891 48.1379 33.4037 48.1365 33.4197 48.1365C33.4313 48.1365 33.4444 48.1379 33.4575 48.1379L35.9323 48.1099C35.9541 48.1099 35.9759 48.1099 35.9977 48.1099C38.9174 48.1099 41.3224 50.3985 41.3573 53.2107C41.3632 53.646 41.731 53.996 42.1818 53.996H42.192C42.6471 53.9904 43.012 53.6306 43.0077 53.1925C42.9844 51.4036 42.2458 49.7266 40.9226 48.4696C39.6023 47.214 37.8516 46.5211 35.9977 46.5211C35.9686 46.5211 35.9395 46.5211 35.9119 46.5225L34.199 46.5421V24.893C34.199 24.0167 34.9392 23.3042 35.8494 23.3042C36.7596 23.3042 37.4983 24.0167 37.4983 24.893V37.7584C37.4983 38.1966 37.8691 38.5521 38.3242 38.5521C38.7793 38.5521 39.1486 38.1966 39.1486 37.7584V22.5105C39.1486 21.6343 39.8887 20.9218 40.799 20.9218C41.7078 20.9218 42.4493 21.6343 42.4493 22.5105V37.7584C42.4493 38.1966 42.8187 38.5521 43.2738 38.5521C43.7289 38.5521 44.0982 38.1966 44.0982 37.7584V24.893C44.0982 24.0167 44.8383 23.3042 45.7486 23.3042C46.6588 23.3042 47.3989 24.0167 47.3989 24.893V37.7584C47.3989 38.1966 47.7682 38.5521 48.2234 38.5521C48.6785 38.5521 49.0478 38.1966 49.0478 37.7584V27.2754C49.0478 26.3991 49.7894 25.6866 50.6982 25.6866C51.6084 25.6866 52.3485 26.3991 52.3485 27.2754V48.4794C52.3485 52.8705 49.4215 56.6864 45.0652 57.9728C44.629 58.1016 44.3832 58.5453 44.517 58.9638C44.626 59.3054 44.9532 59.5251 45.3065 59.5251C45.3865 59.5251 45.4679 59.5139 45.5479 59.4902C47.9442 58.7833 50.0947 57.3261 51.6084 55.3874C53.1715 53.3829 53.9974 50.9934 53.9974 48.4794V27.2754C53.9974 25.5243 52.5172 24.0993 50.6982 24.0993Z" fill="white"/>
<path d="M42.4508 59.2046C42.4508 59.6441 42.0815 59.9997 41.6263 59.9997C41.1698 59.9997 40.8019 59.6441 40.8019 59.2046C40.8019 58.7665 41.1698 58.4109 41.6263 58.4109C42.0815 58.4109 42.4508 58.7665 42.4508 59.2046Z" fill="white"/>
<path d="M49.0478 42.5233C49.0478 42.0852 48.6785 41.7296 48.2234 41.7296H38.3242C37.8691 41.7296 37.4983 42.0852 37.4983 42.5233C37.4983 42.9614 37.8691 43.317 38.3242 43.317H48.2234C48.6785 43.317 49.0478 42.9614 49.0478 42.5233Z" fill="white"/>
</svg>
