<svg width="80" height="80" viewBox="0 0 80 80" fill="none" xmlns="http://www.w3.org/2000/svg">
<path fill-rule="evenodd" clip-rule="evenodd" d="M40 0C62.09 0 80 17.91 80 40C80 62.09 62.09 80 40 80C17.91 80 0 62.09 0 40C0 17.91 17.91 0 40 0Z" fill="#8C52FF" fill-opacity="0.2"/>
<path d="M40.0014 74.5604C59.0884 74.5604 74.5614 59.0874 74.5614 40.0004C74.5614 20.9135 59.0884 5.44043 40.0014 5.44043C20.9144 5.44043 5.44141 20.9135 5.44141 40.0004C5.44141 59.0874 20.9144 74.5604 40.0014 74.5604Z" fill="#CB6CE6"/>
<path d="M33.6815 42.6365V49.9701C33.6815 50.3907 34.0256 50.7318 34.4502 50.7318C34.8748 50.7318 35.2189 50.3907 35.2189 49.9701V41.757L37.5044 40.4494C37.872 40.2391 37.998 39.7732 37.7858 39.4089C37.5736 39.0445 37.1032 38.9197 36.7357 39.1301L35.2189 39.998V33.7986C35.2189 33.3653 34.9578 32.9784 34.554 32.8126C34.15 32.647 33.6895 32.7377 33.3809 33.0438L26.051 40.3082C25.9016 40.4576 25.6865 40.5445 25.4731 40.5445C24.9848 40.5445 24.779 40.1817 24.7276 40.0705C24.6761 39.9593 24.5329 39.5678 24.8514 39.2011L33.1436 29.6565C33.7777 28.9273 34.698 28.5092 35.6688 28.5092H37.7422C38.5616 28.5092 39.2283 27.8485 39.2283 27.0366V25.6797H41.6881V27.0366C41.6881 27.4374 41.8509 27.8009 42.114 28.0667L41.6203 28.3493C41.2527 28.5596 41.1268 29.0256 41.3391 29.3899C41.5536 29.758 42.0271 29.8761 42.3892 29.6685L44.4149 28.5092H45.2486C46.2188 28.5092 47.1387 28.9273 47.7726 29.6562L50.6791 33.0017C50.8311 33.1767 51.0459 33.2665 51.262 33.2665C51.4396 33.2665 51.6181 33.2059 51.7633 33.0821C52.085 32.8075 52.1213 32.3266 51.8442 32.0078L48.9375 28.662C48.3351 27.9693 47.5554 27.4703 46.6942 27.2048L50.5448 25.0012C50.8697 25.3085 51.2687 25.5322 51.7146 25.6506C53.1237 26.0248 54.6586 25.1614 55.041 23.7475C55.4286 22.314 54.5671 20.8354 53.1205 20.4511C51.6737 20.067 50.1816 20.9208 49.7942 22.3543C49.6748 22.7957 49.6707 23.2496 49.7765 23.6817L44.0031 26.9858H43.2257V25.494C44.5662 25.035 45.532 23.7726 45.532 22.2902V19.0273C45.532 16.2553 43.2561 14 40.4586 14C38.2168 14 36.3112 15.449 35.6423 17.4511H28.8277C28.7039 17.033 28.4761 16.6388 28.1438 16.3095C27.0846 15.2601 25.3618 15.2603 24.3027 16.3095C23.2437 17.359 23.2437 19.0663 24.3027 20.1158C25.3617 21.1652 27.0846 21.1653 28.1438 20.1158C28.476 19.7866 28.7038 19.3927 28.8276 18.9745H35.3868C35.3866 18.9922 35.3854 19.0097 35.3854 19.0273V22.2902C35.3854 23.7725 36.351 25.0348 37.6913 25.4939V26.9858H35.6691C34.2506 26.9858 32.9057 27.5968 31.9791 28.6623L23.6866 38.2072C23.078 38.9078 22.9415 39.8651 23.3305 40.7055C23.7195 41.5459 24.5406 42.0679 25.4734 42.0679C26.09 42.0679 26.7071 41.8166 27.1403 41.3837L33.6818 34.9004V40.8776L24.5842 46.0825C24.2661 45.7817 23.8699 45.5535 23.4162 45.4331C21.9838 45.0527 20.4727 45.9207 20.0899 47.3363C19.7085 48.7464 20.5767 50.2519 22.0103 50.6326C23.4207 51.0071 24.9448 50.1788 25.3367 48.7294C25.4583 48.2796 25.4568 47.8253 25.353 47.4018L33.6815 42.6365ZM51.2789 22.7486C51.4491 22.1187 52.1074 21.7595 52.7224 21.9228C53.3502 22.0894 53.724 22.7311 53.5559 23.3532C53.3903 23.9657 52.7291 24.3428 52.1124 24.179C51.4846 24.0123 51.1107 23.3707 51.2789 22.7486ZM27.4009 18.2137C27.4006 18.5124 27.2858 18.8111 27.0563 19.0385C26.5969 19.4939 25.8489 19.4937 25.3895 19.0385C24.9299 18.5831 24.9299 17.8421 25.3895 17.3867C25.8489 16.9314 26.5967 16.9314 27.0563 17.3867C27.2858 17.6142 27.4007 17.9129 27.4009 18.2117V18.2128C27.4008 18.2131 27.4009 18.2134 27.4009 18.2137ZM36.9225 22.2902V19.0273C36.9225 19.0097 36.9236 18.9922 36.9238 18.9745H38.2475C38.6721 18.9745 39.0161 18.6335 39.0161 18.2128C39.0161 17.7921 38.6721 17.4511 38.2475 17.4511H37.302C37.8852 16.3088 39.0806 15.5234 40.4584 15.5234C42.4081 15.5234 43.9943 17.0953 43.9943 19.0273V22.2902C43.9943 23.3192 43.1496 24.1562 42.1112 24.1562H38.8054C37.7671 24.1562 36.9225 23.3192 36.9225 22.2902ZM23.8514 48.3349C23.6831 48.957 23.0349 49.3273 22.4078 49.1607C21.7801 48.9941 21.4063 48.3524 21.5744 47.7303C21.7405 47.1158 22.3995 46.7404 23.0178 46.9045C23.6458 47.0712 24.0196 47.7128 23.8514 48.3349ZM58.2058 45.2548C57.1467 44.2055 55.4238 44.2054 54.3647 45.2548C54.0324 45.5841 53.8046 45.9782 53.6808 46.3964H47.2358V34.9012L53.7763 41.3835C54.2214 41.8248 54.8137 42.0678 55.4441 42.0678C56.3772 42.0678 57.1982 41.5457 57.587 40.7051C57.9757 39.8647 57.8388 38.9074 57.2299 38.2071L54.1862 34.7038C53.9091 34.3849 53.4238 34.3492 53.1022 34.6235C52.7805 34.8979 52.7442 35.3789 53.0212 35.6977L56.0651 39.2014C56.3839 39.568 56.241 39.9593 56.1895 40.0705C56.1381 40.1817 55.9324 40.5445 55.4442 40.5445C55.2245 40.5445 55.0184 40.46 54.8635 40.3065L47.5353 33.0437C47.2265 32.7379 46.7668 32.6471 46.363 32.8126C45.9593 32.9784 45.6985 33.3654 45.6985 33.7987V46.3965H44.2615C43.8369 46.3965 43.4928 46.7375 43.4928 47.1582C43.4928 47.5789 43.8369 47.9199 44.2615 47.9199H45.6985V61.8746C45.6985 62.674 46.243 63.3774 47.0242 63.5855L48.5511 63.9897C48.6754 64.0264 48.7353 64.1035 48.7353 64.2287C48.7353 64.3653 48.6236 64.4765 48.4862 64.4765H44.3886C44.2594 64.4765 44.1526 64.3804 44.1399 64.253L42.4201 46.8468C42.3247 45.8593 41.4557 45.0852 40.4581 45.0852C39.439 45.0852 38.5954 45.8431 38.4959 46.8482L36.7762 64.2527C36.7636 64.3804 36.6567 64.4765 36.5276 64.4765H32.431C32.2734 64.4705 32.181 64.385 32.181 64.2287C32.181 64.117 32.2576 64.0186 32.3661 63.9897L33.8949 63.585C34.6744 63.3767 35.2189 62.6734 35.2189 61.8745V53.5249C35.2189 53.1042 34.8748 52.7631 34.4502 52.7631C34.0256 52.7631 33.6815 53.1042 33.6815 53.5249V61.8745C33.6815 61.9862 33.6048 62.0846 33.4964 62.1136L31.968 62.5181C31.1883 62.7259 30.6436 63.4294 30.6436 64.2287C30.6436 65.1901 31.4572 66.0053 32.431 66H36.5276C37.4513 66 38.216 65.3128 38.3062 64.4015L40.0259 46.9969C40.0478 46.7756 40.2336 46.6087 40.4581 46.6087C40.6773 46.6087 40.8693 46.7796 40.8902 46.9967L42.61 64.4017C42.7004 65.3128 43.465 66 44.3886 66H48.4861C49.4711 66 50.2725 65.2054 50.2725 64.2287C50.2725 63.4404 49.7178 62.719 48.9479 62.5178L47.422 62.1139C47.3123 62.0846 47.2358 61.9862 47.2358 61.8745V47.9198H53.6809C53.8047 48.3379 54.0325 48.7319 54.3647 49.0611C55.4237 50.1106 57.1468 50.1105 58.2058 49.0611C59.2647 48.0116 59.2647 46.3043 58.2058 45.2548ZM57.1186 47.9838C56.6592 48.4391 55.9113 48.4392 55.4518 47.9838C54.9922 47.5284 54.9922 46.7874 55.4518 46.332C55.9114 45.8767 56.659 45.8767 57.1186 46.332C57.5783 46.7875 57.5783 47.5284 57.1186 47.9838Z" fill="white"/>
</svg>
