<svg width="80" height="80" viewBox="0 0 80 80" fill="none" xmlns="http://www.w3.org/2000/svg">
<path fill-rule="evenodd" clip-rule="evenodd" d="M40 0C62.09 0 80 17.91 80 40C80 62.09 62.09 80 40 80C17.91 80 0 62.09 0 40C0 17.91 17.91 0 40 0Z" fill="#8C52FF" fill-opacity="0.2"/>
<path d="M40.0014 74.5604C59.0884 74.5604 74.5614 59.0874 74.5614 40.0004C74.5614 20.9135 59.0884 5.44043 40.0014 5.44043C20.9144 5.44043 5.44141 20.9135 5.44141 40.0004C5.44141 59.0874 20.9144 74.5604 40.0014 74.5604Z" fill="#CB6CE6"/>
<path d="M64 33.9382V30.5399C64 29.6218 63.2668 28.8747 62.366 28.8747C61.7888 28.8747 61.2465 28.6459 60.8385 28.231C60.4305 27.8145 60.2057 27.2614 60.2057 26.6736V20.6898C60.2057 19.758 59.4619 19 58.5475 19H56.5476C55.6332 19 54.8894 19.7583 54.8894 20.6898V24.1922C54.8894 26.365 53.1891 28.1615 51.0995 28.1974C50.0605 28.2138 49.0732 27.8148 48.3306 27.0703C47.5875 26.3254 47.1785 25.3305 47.1785 24.2688V20.6898C47.1785 19.758 46.4343 19 45.5199 19H43.5204C42.606 19 41.8618 19.7583 41.8618 20.6898V22.8491C41.8618 23.2451 42.1768 23.5657 42.5649 23.5657C42.9535 23.5657 43.2681 23.2451 43.2681 22.8491V20.6898C43.2681 20.5484 43.3812 20.4331 43.5204 20.4331H45.5199C45.6591 20.4331 45.7722 20.5484 45.7722 20.6898V24.2688C45.7722 25.7179 46.3307 27.0755 47.3444 28.0918C48.358 29.108 49.6998 29.6513 51.1229 29.6304C53.9753 29.5812 56.2957 27.1416 56.2957 24.1922V20.6898C56.2957 20.5484 56.4088 20.4331 56.5476 20.4331H58.5475C58.6863 20.4331 58.7994 20.5484 58.7994 20.6898V26.6736C58.7994 27.6435 59.17 28.5564 59.8442 29.2442C60.5184 29.9301 61.4138 30.3078 62.366 30.3078C62.4916 30.3078 62.5938 30.4119 62.5938 30.5399V33.5005L51.0336 39.1525L39.4741 33.5008V30.5399C39.4741 30.4608 39.5104 30.407 39.5422 30.3746C39.5668 30.3496 39.6199 30.3078 39.7019 30.3078C41.6685 30.3078 43.2681 28.6777 43.2681 26.6736V25.7153C43.2681 25.3197 42.9535 24.9987 42.5649 24.9987C42.1768 24.9987 41.8618 25.3197 41.8618 25.7153V26.6736C41.8618 27.8872 40.8928 28.8747 39.7019 28.8747C39.2639 28.8747 38.853 29.0482 38.5465 29.3625C38.2378 29.6771 38.0679 30.0954 38.0679 30.5399V33.927C38.0675 33.9431 38.0675 33.9591 38.0679 33.9752V45.8812L34.4519 48.0897C33.9425 47.7919 33.3595 47.6314 32.7681 47.6314H28.5728V35.2533H32.7681C34.6317 35.2533 36.1478 33.7083 36.1478 31.8091C36.1478 29.91 34.6317 28.3649 32.7681 28.3649H32.0316V27.5823C32.0316 26.0317 30.7935 24.7703 29.2719 24.7703H28.5728V23.366C28.5728 22.5494 27.9209 21.8852 27.1196 21.8852H25.0282C24.2269 21.8852 23.5751 22.5494 23.5751 23.366V24.7703H22.876C21.3544 24.7703 20.1162 26.0317 20.1162 27.5823V28.3649H19.3798C19.071 28.3649 18.7653 28.4075 18.4705 28.4911C18.0966 28.5974 17.8776 28.9926 17.9819 29.374C18.0863 29.7551 18.4738 29.9775 18.8484 29.8715C19.0201 29.8226 19.1989 29.798 19.3798 29.798H32.7681C33.8564 29.798 34.7416 30.7 34.7416 31.8091C34.7416 32.9179 33.8564 33.8199 32.7681 33.8199H19.3798C18.2914 33.8199 17.4062 32.9179 17.4062 31.8091C17.4062 31.6953 17.4158 31.5807 17.4341 31.4695C17.4989 31.0792 17.2411 30.7093 16.8584 30.6433C16.4757 30.5769 16.1124 30.84 16.0476 31.2303C16.0161 31.4206 16 31.6154 16 31.8091C16 33.7083 17.5161 35.2533 19.3798 35.2533H23.5751V47.6314H19.3798C17.5161 47.6314 16 49.1765 16 51.0756C16 51.9945 16.3512 52.8595 16.9902 53.5119C17.6293 54.162 18.4781 54.5199 19.3798 54.5199H20.1166V55.3021C20.1166 56.8531 21.3544 58.1148 22.8756 58.1148H23.5751V59.5192C23.5751 60.3357 24.2269 61 25.0282 61H27.1196C27.9209 61 28.5728 60.3357 28.5728 59.5192V58.1148H28.6006C28.746 58.3093 28.906 58.494 29.0807 58.6675C30.0251 59.6076 31.2501 60.086 32.4985 60.086H57.848C59.3282 60.086 60.5327 58.8586 60.5327 57.3498V53.1058H60.9081C62.6132 53.1058 64 51.6922 64 49.9549V33.9628C64 33.9546 64 33.9464 64 33.9382ZM24.9813 23.366C24.9813 23.3399 25.0022 23.3182 25.0282 23.3182H27.1196C27.1456 23.3182 27.1665 23.3399 27.1665 23.366V24.7703H24.9813V23.366ZM21.5225 28.3649V27.5823C21.5225 26.8218 22.1296 26.2034 22.876 26.2034H29.2719C30.0182 26.2034 30.6254 26.8218 30.6254 27.5823V28.3649H21.5225ZM45.4866 44.263C45.8008 44.263 46.0835 44.4653 46.1908 44.7661C47.0071 47.0612 49.1652 48.6032 51.5602 48.6032C54.0065 48.6032 56.1796 47.0175 56.9673 44.6575C57.046 44.4216 57.2635 44.263 57.5082 44.263H57.9451C58.5966 44.263 59.1265 44.803 59.1265 45.4669V54.4937H49.3918L47.0854 51.126C46.8635 50.8017 46.4248 50.7222 46.1066 50.9488C45.7883 51.1749 45.7103 51.6216 45.9323 51.9463L47.6769 54.4937H45.9897L41.6465 48.1506L42.8363 47.4236L44.3235 49.5959C44.4604 49.7956 44.6787 49.9027 44.901 49.9027C45.0398 49.9027 45.1801 49.8609 45.3024 49.7736C45.621 49.547 45.699 49.1003 45.4771 48.776L43.9803 46.5899C44.3781 46.1331 44.6091 45.5352 44.6091 44.9112V44.263H45.4866ZM42.6364 54.4937L39.2819 49.5948L40.4373 48.8891L44.2748 54.4937H42.6364ZM39.2339 54.4937L36.8828 51.0603L38.0726 50.3337L40.9214 54.4941H39.2339V54.4937ZM32.7219 50.817C32.7578 50.8835 32.7988 50.9476 32.8446 51.0085C33.313 51.6295 34.0227 51.962 34.7452 51.962C35.0532 51.962 35.3638 51.9015 35.6589 51.7769L37.5193 54.4937H29.0616C29.2345 53.4865 29.8314 52.5826 30.7052 52.0493L32.7219 50.817ZM43.2029 44.416V44.9116C43.2029 45.2882 43.0081 45.6423 42.6938 45.8397C42.6814 45.8472 42.6689 45.8547 42.6569 45.8629L40.2963 47.3045C40.2842 47.3116 40.2721 47.3191 40.26 47.3269L37.9203 48.7559C37.9159 48.7585 37.9111 48.7615 37.9067 48.7645L35.2524 50.3856C34.8214 50.6491 34.2659 50.5412 33.9594 50.1352C33.9557 50.1304 33.9443 50.115 33.9491 50.09C33.9531 50.068 33.9659 50.058 33.9725 50.0535L34.7778 49.5616C34.787 49.5564 34.7965 49.5504 34.8057 49.5444L43.1714 44.4343C43.182 44.4279 43.1923 44.422 43.2029 44.416ZM24.9813 35.2533H27.1665V47.6314H24.9813V35.2533ZM21.5228 55.3024V54.5199H25.4951C25.8833 54.5199 26.1982 54.1993 26.1982 53.8033C26.1982 53.4077 25.8833 53.0868 25.4951 53.0868H19.3798C18.8531 53.0868 18.3573 52.8778 17.9845 52.4986C17.6117 52.1176 17.4062 51.6123 17.4062 51.0756C17.4062 49.9669 18.2914 49.0645 19.3798 49.0645H32.7681C32.7966 49.0645 32.8248 49.0653 32.853 49.0664L29.9823 50.82C28.5153 51.7161 27.6041 53.3551 27.6041 55.0983C27.6041 55.5745 27.67 56.0354 27.7927 56.4717C27.7942 56.4773 27.796 56.4829 27.7975 56.4885C27.7986 56.4922 27.7997 56.4959 27.8008 56.4997C27.818 56.5609 27.8367 56.6213 27.8564 56.6818H22.8756C22.1296 56.6818 21.5228 56.063 21.5228 55.3024ZM27.1665 59.5192C27.1665 59.5453 27.1453 59.5669 27.1196 59.5669H25.0282C25.0026 59.5669 24.9813 59.5453 24.9813 59.5192V58.1148H27.1665V59.5192ZM59.1265 57.3498C59.1265 58.0686 58.553 58.653 57.8477 58.653C41.6289 58.653 32.4802 58.6537 32.4055 58.6519C30.803 58.6089 29.4663 57.4591 29.106 55.9268H38.8497C38.856 55.9272 38.8618 55.9272 38.868 55.9272C38.8743 55.9272 38.8805 55.9272 38.8867 55.9268H42.2518C42.2581 55.9272 42.2639 55.9272 42.2701 55.9272C42.2764 55.9272 42.2826 55.9272 42.2888 55.9268H45.6052C45.6115 55.9272 45.6177 55.9272 45.6235 55.9272C45.6298 55.9272 45.636 55.9272 45.6422 55.9268H49.0073C49.0135 55.9272 49.0194 55.9272 49.0256 55.9272C49.0319 55.9272 49.0381 55.9272 49.0443 55.9268H59.1265V57.3498ZM60.9081 51.6728H60.5327V45.4669C60.5327 44.013 59.3718 42.8299 57.9451 42.8299H57.5082C56.6611 42.8299 55.9089 43.3789 55.6357 44.1958C55.0421 45.9748 53.4041 47.1698 51.5602 47.1698C49.7544 47.1698 48.1281 46.0077 47.5125 44.2779C47.2045 43.4117 46.3904 42.8299 45.4862 42.8299C43.9188 42.871 43.3215 42.6732 42.4485 43.2054L39.4738 45.0221V35.0903L50.7292 40.5934C50.8256 40.6404 50.9296 40.6639 51.0336 40.6639C51.1376 40.6639 51.2416 40.6404 51.3375 40.5934L62.5934 35.0899V49.9549C62.5938 50.9021 61.8375 51.6728 60.9081 51.6728Z" fill="white"/>
<path d="M50.3004 31.6248H49.828C49.4395 31.6248 49.1249 31.9454 49.1249 32.3413C49.1249 32.7369 49.4395 33.0578 49.828 33.0578H49.9767V35.5362H49.891C49.5024 35.5362 49.1879 35.8568 49.1879 36.2528C49.1879 36.6487 49.5024 36.9693 49.891 36.9693H51.4686C51.8572 36.9693 52.1718 36.6487 52.1718 36.2528C52.1718 35.8568 51.8572 35.5362 51.4686 35.5362H51.3829V32.7279C51.3829 32.1196 50.8973 31.6248 50.3004 31.6248Z" fill="white"/>
</svg>
