<svg width="80" height="80" viewBox="0 0 80 80" fill="none" xmlns="http://www.w3.org/2000/svg">
<path fill-rule="evenodd" clip-rule="evenodd" d="M40 0C62.09 0 80 17.91 80 40C80 62.09 62.09 80 40 80C17.91 80 0 62.09 0 40C0 17.91 17.91 0 40 0Z" fill="#8C52FF" fill-opacity="0.2"/>
<path d="M40.0014 74.5604C59.0884 74.5604 74.5614 59.0874 74.5614 40.0004C74.5614 20.9135 59.0884 5.44043 40.0014 5.44043C20.9144 5.44043 5.44141 20.9135 5.44141 40.0004C5.44141 59.0874 20.9144 74.5604 40.0014 74.5604Z" fill="#CB6CE6"/>
<path d="M59.7095 45.913C60.616 44.7629 61.0508 43.5299 60.9953 42.2601C60.9398 40.8616 60.3108 39.7666 59.7928 39.0949C60.394 37.6043 60.6253 35.258 58.618 33.4362C57.1472 32.102 54.6496 31.504 51.19 31.6696C48.7572 31.78 46.7221 32.2309 46.6389 32.2493H46.6296C46.1671 32.3321 45.6768 32.4333 45.1773 32.5437C45.1403 31.9548 45.2421 30.4918 46.3336 27.1978C47.6286 23.2781 47.5546 20.2785 46.0931 18.2727C44.5575 16.1656 42.1062 16 41.3847 16C40.6909 16 40.0527 16.2852 39.5994 16.8097C38.5726 17.9967 38.6929 20.1865 38.8224 21.1987C37.6013 24.4559 34.1787 32.4425 31.2834 34.66C31.2279 34.6968 31.1816 34.7428 31.1354 34.7888C30.2844 35.6813 29.7108 36.6474 29.3223 37.4939C28.7766 37.1995 28.1568 37.0339 27.4908 37.0339H21.8481C19.7206 37.0339 18 38.7545 18 40.8616V55.8135C18 57.9297 19.7298 59.6412 21.8481 59.6412H27.4908C28.3141 59.6412 29.0818 59.3835 29.7108 58.9419L31.8847 59.1995C32.2177 59.2455 38.1379 59.9908 44.2153 59.8712C45.3161 59.954 46.3521 60 47.3141 60C48.9699 60 50.413 59.8712 51.6155 59.6135C54.4461 59.0155 56.3794 57.8193 57.3599 56.0619C58.1092 54.7185 58.1092 53.3844 57.9889 52.5378C59.8298 50.8816 60.1535 49.0506 60.0888 47.7624C60.0518 47.0171 59.8853 46.3823 59.7095 45.913ZM21.8481 57.1568C21.0988 57.1568 20.4976 56.5496 20.4976 55.8135V40.8524C20.4976 40.1071 21.1081 39.509 21.8481 39.509H27.4908C28.2401 39.509 28.8413 40.1163 28.8413 40.8524V55.8043C28.8413 56.5496 28.2308 57.1476 27.4908 57.1476H21.8481V57.1568ZM57.3414 44.8365C56.9529 45.2413 56.8789 45.8578 57.1749 46.3363C57.1749 46.3455 57.5542 46.9895 57.6004 47.8729C57.6652 49.0782 57.0824 50.1455 55.8614 51.0565C55.4266 51.3877 55.2509 51.9582 55.4359 52.4734C55.4359 52.4826 55.8336 53.6972 55.1861 54.8473C54.5663 55.9515 53.1881 56.7428 51.0975 57.1844C49.4232 57.5433 47.1476 57.6077 44.354 57.3869C44.317 57.3869 44.2708 57.3869 44.2245 57.3869C38.2766 57.5157 32.2639 56.7428 32.1992 56.7336H32.1899L31.2556 56.6232C31.3111 56.3655 31.3389 56.0895 31.3389 55.8135V40.8524C31.3389 40.4567 31.2741 40.0703 31.1631 39.7114C31.3296 39.0949 31.7922 37.724 32.8837 36.5554C37.0371 33.2798 41.0979 22.2292 41.2737 21.7507C41.3477 21.5575 41.3662 21.3459 41.3292 21.1343C41.1719 20.1037 41.2274 18.8432 41.4494 18.4659C41.9397 18.4751 43.2625 18.6131 44.058 19.7081C45.0016 21.0054 44.9646 23.3241 43.947 26.3973C42.393 31.0807 42.2635 33.5466 43.4938 34.6324C44.1043 35.1752 44.9183 35.2028 45.5103 34.9912C46.0746 34.8624 46.6111 34.752 47.1199 34.6692C47.1569 34.66 47.2031 34.6508 47.2401 34.6416C50.08 34.0251 55.1676 33.6478 56.9344 35.2488C58.433 36.6106 57.3692 38.4141 57.2489 38.6073C56.9067 39.1225 57.0084 39.7942 57.4709 40.2083C57.4802 40.2175 58.4515 41.1284 58.4977 42.3522C58.5347 43.1711 58.1462 44.0084 57.3414 44.8365Z" fill="white"/>
</svg>
