<svg width="80" height="80" viewBox="0 0 80 80" fill="none" xmlns="http://www.w3.org/2000/svg">
<path fill-rule="evenodd" clip-rule="evenodd" d="M40 0C62.09 0 80 17.91 80 40C80 62.09 62.09 80 40 80C17.91 80 0 62.09 0 40C0 17.91 17.91 0 40 0Z" fill="#8C52FF" fill-opacity="0.2"/>
<path d="M40.0014 74.5604C59.0884 74.5604 74.5614 59.0874 74.5614 40.0004C74.5614 20.9135 59.0884 5.44043 40.0014 5.44043C20.9144 5.44043 5.44141 20.9135 5.44141 40.0004C5.44141 59.0874 20.9144 74.5604 40.0014 74.5604Z" fill="#CB6CE6"/>
<path d="M40 64C39.7931 64 39.5741 63.9637 39.3794 63.8671C30.4231 59.5287 23 54.852 23 41.4985V26.0302C23 25.4381 23.3772 24.9063 23.937 24.713L39.5132 19.0816C39.8296 18.9728 40.1704 18.9728 40.4868 19.0816L56.063 24.713C56.6228 24.9063 57 25.4381 57 26.0302V41.4985C57 54.852 49.5769 59.5287 40.6206 63.8671C40.4259 63.9637 40.2069 64 40 64ZM25.8354 27.0091V41.4985C25.8354 51.9879 30.6056 56.3988 40 61.0272C49.3944 56.3988 54.1646 51.9879 54.1646 41.4985V27.0091L40 21.8973L25.8354 27.0091Z" fill="white"/>
<path d="M39.0021 47.1299L32.3336 40.5075L34.3293 38.5136L39.0021 43.154L47.9098 34.296L49.9177 36.29L39.0021 47.1299Z" fill="white"/>
</svg>
