<svg width="80" height="80" viewBox="0 0 80 80" fill="none" xmlns="http://www.w3.org/2000/svg">
<path fill-rule="evenodd" clip-rule="evenodd" d="M40 0C62.09 0 80 17.91 80 40C80 62.09 62.09 80 40 80C17.91 80 0 62.09 0 40C0 17.91 17.91 0 40 0Z" fill="#8C52FF" fill-opacity="0.2"/>
<path d="M40.0014 74.5594C59.0884 74.5594 74.5614 59.0864 74.5614 39.9995C74.5614 20.9125 59.0884 5.43945 40.0014 5.43945C20.9144 5.43945 5.44141 20.9125 5.44141 39.9995C5.44141 59.0864 20.9144 74.5594 40.0014 74.5594Z" fill="#8C52FF"/>
<path d="M32.58 50.1502H34.05C34.46 50.1502 34.79 49.8202 34.79 49.4102C34.79 49.0102 34.46 48.6802 34.05 48.6802H32.58C32.17 48.6802 31.84 49.0102 31.84 49.4102C31.84 49.8202 32.17 50.1502 32.58 50.1502Z" fill="white"/>
<path d="M54.68 48.6802H37C36.59 48.6802 36.26 49.0102 36.26 49.4102C36.26 49.8202 36.59 50.1502 37 50.1502H54.68C55.08 50.1502 55.41 49.8202 55.41 49.4102C55.41 49.0102 55.08 48.6802 54.68 48.6802Z" fill="white"/>
<path d="M32.58 45.7293H34.05C34.46 45.7293 34.79 45.3993 34.79 44.9893C34.79 44.5893 34.46 44.2593 34.05 44.2593H32.58C32.17 44.2593 31.84 44.5893 31.84 44.9893C31.84 45.3993 32.17 45.7293 32.58 45.7293Z" fill="white"/>
<path d="M54.68 44.2593H37C36.59 44.2593 36.26 44.5893 36.26 44.9893C36.26 45.3993 36.59 45.7293 37 45.7293H54.68C55.08 45.7293 55.41 45.3993 55.41 44.9893C55.41 44.5893 55.08 44.2593 54.68 44.2593Z" fill="white"/>
<path d="M32.58 41.3094H34.05C34.46 41.3094 34.79 40.9794 34.79 40.5794C34.79 40.1694 34.46 39.8394 34.05 39.8394H32.58C32.17 39.8394 31.84 40.1694 31.84 40.5794C31.84 40.9794 32.17 41.3094 32.58 41.3094Z" fill="white"/>
<path d="M54.68 39.8394H37C36.59 39.8394 36.26 40.1694 36.26 40.5794C36.26 40.9794 36.59 41.3094 37 41.3094H54.68C55.08 41.3094 55.41 40.9794 55.41 40.5794C55.41 40.1694 55.08 39.8394 54.68 39.8394Z" fill="white"/>
<path d="M32.58 36.8894H34.05C34.46 36.8894 34.79 36.5594 34.79 36.1594C34.79 35.7494 34.46 35.4194 34.05 35.4194H32.58C32.17 35.4194 31.84 35.7494 31.84 36.1594C31.84 36.5594 32.17 36.8894 32.58 36.8894Z" fill="white"/>
<path d="M54.68 35.4194H37C36.59 35.4194 36.26 35.7494 36.26 36.1594C36.26 36.5594 36.59 36.8894 37 36.8894H54.68C55.08 36.8894 55.41 36.5594 55.41 36.1594C55.41 35.7494 55.08 35.4194 54.68 35.4194Z" fill="white"/>
<path d="M24.48 21.42H27.42V56.04C27.42 56.45 27.75 56.78 28.16 56.78H53.94V59.73H24.48V21.42ZM28.9 18.48H48.05V28.05C48.05 28.46 48.38 28.79 48.78 28.79H58.36V55.31H28.9V18.48ZM57.32 27.32H49.52V19.52L57.32 27.32ZM23.74 61.2H54.68C55.08 61.2 55.41 60.87 55.41 60.46V56.78H59.1C59.5 56.78 59.83 56.45 59.83 56.04V28.05C59.83 28.04 59.82 28.02 59.82 28.01C59.82 27.94 59.81 27.88 59.79 27.82C59.78 27.79 59.77 27.77 59.76 27.75C59.73 27.67 59.68 27.6 59.61 27.53L49.3 17.22C49.24 17.16 49.17 17.11 49.09 17.07C49.06 17.06 49.04 17.06 49.02 17.05C48.96 17.03 48.89 17.02 48.83 17.01C48.81 17.01 48.8 17 48.78 17H28.16C27.75 17 27.42 17.34 27.42 17.74V19.95H23.74C23.33 19.95 23 20.28 23 20.69V60.46C23 60.87 23.33 61.2 23.74 61.2Z" fill="white"/>
<path d="M33.31 25.1099H36.26V28.0499H33.31V25.1099ZM32.58 29.5299H37C37.4 29.5299 37.73 29.1999 37.73 28.7899V24.3699C37.73 23.9599 37.4 23.6299 37 23.6299H32.58C32.17 23.6299 31.84 23.9599 31.84 24.3699V28.7899C31.84 29.1999 32.17 29.5299 32.58 29.5299Z" fill="white"/>
</svg>
