<svg width="85" height="85" viewBox="0 0 85 85" fill="none" xmlns="http://www.w3.org/2000/svg">
<path fill-rule="evenodd" clip-rule="evenodd" d="M42.5 0C65.97 0 85 19.03 85 42.5C85 65.97 65.97 85 42.5 85C19.03 85 0 65.97 0 42.5C0 19.03 19.03 0 42.5 0Z" fill="#8C52FF" fill-opacity="0.2"/>
<path fill-rule="evenodd" clip-rule="evenodd" d="M42.4993 7.53003C61.8093 7.53003 77.4693 23.19 77.4693 42.5C77.4693 61.81 61.8093 77.47 42.4993 77.47C23.1893 77.47 7.5293 61.81 7.5293 42.5C7.5293 23.19 23.1893 7.53003 42.4993 7.53003Z" fill="#8C52FF" fill-opacity="0.2"/>
<path d="M42.4997 71.5699C58.5546 71.5699 71.5697 58.5548 71.5697 42.4999C71.5697 26.445 58.5546 13.4299 42.4997 13.4299C26.4448 13.4299 13.4297 26.445 13.4297 42.4999C13.4297 58.5548 26.4448 71.5699 42.4997 71.5699Z" fill="#8C52FF"/>
<path d="M30.31 45.89L29.46 42.51C28.11 37.14 28 36.69 28 35.19C28 32.1 29.25 29.31 31.28 27.28C33.3 25.26 36.1 24 39.18 24H49.8C51.06 24 52.22 24.43 53.15 25.14C54.1 25.87 54.81 26.91 55.12 28.1L55.14 28.16L55.18 28.21C55.97 29.19 56.58 30.31 56.99 31.49C57.41 32.67 57.62 33.92 57.62 35.19C57.62 36.69 57.51 37.14 56.15 42.54C56.01 43.13 55.3 45.55 55.3 45.96C55.26 49.64 53.62 54.36 51 57.9C48.81 60.85 45.95 62.98 42.77 62.98C39.56 62.98 36.73 60.87 34.58 57.95C31.96 54.39 30.35 49.62 30.31 45.96V45.89ZM47.47 44.77C46.54 44.77 45.61 45.12 44.91 45.83C44.61 46.13 44.61 46.62 44.91 46.92C45.21 47.22 45.7 47.22 46 46.92C46.81 46.11 48.13 46.11 48.93 46.92C49.23 47.22 49.72 47.22 50.03 46.92C50.33 46.62 50.33 46.13 50.03 45.83C49.32 45.12 48.39 44.77 47.47 44.77ZM38.11 44.77C37.18 44.77 36.25 45.12 35.55 45.83C35.25 46.13 35.25 46.62 35.55 46.92C35.85 47.22 36.34 47.22 36.64 46.92C37.45 46.11 38.77 46.11 39.57 46.92C39.87 47.22 40.36 47.22 40.67 46.92C40.97 46.62 40.97 46.13 40.67 45.83C39.96 45.12 39.03 44.77 38.11 44.77ZM40.37 53.99L41 53.52C41.53 53.12 42.2 53.01 42.82 53.2C43.43 53.01 44.1 53.12 44.63 53.52L45.26 53.99C45.45 54.13 45.58 54.36 45.6 54.6C45.62 54.84 45.54 55.08 45.38 55.26L45.14 55.52C44.54 56.17 43.69 56.54 42.82 56.54C41.94 56.54 41.09 56.17 40.49 55.52L40.26 55.26C40.09 55.08 40.01 54.84 40.03 54.6C40.05 54.36 40.18 54.13 40.37 53.99ZM49.8 25.74H39.18C36.58 25.74 34.22 26.8 32.51 28.51C30.8 30.22 29.73 32.59 29.73 35.19C29.73 35.77 29.75 36.16 29.9 36.92C30.04 37.66 30.31 38.75 30.81 40.75L31.02 41.57L31.36 40.79C32.33 38.55 33.95 36.64 35.97 35.31C37.92 34.02 40.26 33.27 42.77 33.27H49.8C50.84 33.27 51.78 32.85 52.46 32.17C53.14 31.49 53.57 30.54 53.57 29.51C53.57 28.47 53.14 27.53 52.46 26.84C51.78 26.16 50.84 25.74 49.8 25.74ZM54.77 31.89C54.33 32.78 53.66 33.55 52.84 34.1C52.03 34.63 51.08 34.96 50.06 35L49.22 35.05L49.91 35.53C50.12 35.68 50.33 35.83 50.53 35.99C50.72 36.14 50.92 36.31 51.12 36.49C51.8 37.09 52.4 37.77 52.93 38.49C53.45 39.22 53.9 40 54.26 40.81L54.6 41.59L54.81 40.77C55.31 38.76 55.58 37.66 55.72 36.92C55.87 36.16 55.89 35.77 55.89 35.19C55.89 34.63 55.83 34.07 55.74 33.53C55.64 32.97 55.49 32.43 55.3 31.91L55.06 31.27L54.77 31.89ZM42.77 61.24C45.47 61.24 47.98 59.22 49.89 56.47C52.12 53.24 53.57 48.98 53.57 45.81L53.55 45.18L53.49 44.55C53.18 41.87 51.85 39.49 49.92 37.77C47.99 36.06 45.46 35.01 42.77 35.01C39.82 35.01 37.14 36.22 35.2 38.18C33.25 40.13 32.05 42.83 32.05 45.81C32.05 48.82 33.47 53.24 35.76 56.56C37.61 59.25 40.04 61.24 42.77 61.24Z" fill="white"/>
</svg>
