<svg width="85" height="85" viewBox="0 0 85 85" fill="none" xmlns="http://www.w3.org/2000/svg">
<path fill-rule="evenodd" clip-rule="evenodd" d="M42.5 0C65.97 0 85 19.03 85 42.5C85 65.97 65.97 85 42.5 85C19.03 85 0 65.97 0 42.5C0 19.03 19.03 0 42.5 0Z" fill="#8C52FF" fill-opacity="0.2"/>
<path fill-rule="evenodd" clip-rule="evenodd" d="M42.4993 7.53003C61.8093 7.53003 77.4693 23.19 77.4693 42.5C77.4693 61.81 61.8093 77.47 42.4993 77.47C23.1893 77.47 7.5293 61.81 7.5293 42.5C7.5293 23.19 23.1893 7.53003 42.4993 7.53003Z" fill="#8C52FF" fill-opacity="0.2"/>
<path d="M42.4997 71.5699C58.5546 71.5699 71.5697 58.5548 71.5697 42.4999C71.5697 26.445 58.5546 13.4299 42.4997 13.4299C26.4448 13.4299 13.4297 26.445 13.4297 42.4999C13.4297 58.5548 26.4448 71.5699 42.4997 71.5699Z" fill="#8C52FF"/>
<path d="M41.97 61.2375C41.8 61.2375 41.62 61.2075 41.46 61.1275C34.1 57.5375 28 53.6675 28 42.6175V29.8175C28 29.3275 28.31 28.8875 28.77 28.7275L41.57 24.0675C41.83 23.9775 42.11 23.9775 42.37 24.0675L55.17 28.7275C55.63 28.8875 55.94 29.3275 55.94 29.8175V42.6175C55.94 53.6675 49.84 57.5375 42.48 61.1275C42.32 61.2075 42.14 61.2375 41.97 61.2375ZM30.33 30.6275V42.6175C30.33 51.2975 34.25 54.9475 41.97 58.7775C49.69 54.9475 53.61 51.2975 53.61 42.6175V30.6275L41.97 26.3975L30.33 30.6275Z" fill="white"/>
<path d="M41.15 47.2775L35.67 41.7975L37.31 40.1475L41.15 43.9875L48.47 36.6575L50.12 38.3075L41.15 47.2775Z" fill="white"/>
</svg>
