<svg width="85" height="85" viewBox="0 0 85 85" fill="none" xmlns="http://www.w3.org/2000/svg">
<path fill-rule="evenodd" clip-rule="evenodd" d="M42.5 0C65.97 0 85 19.03 85 42.5C85 65.97 65.97 85 42.5 85C19.03 85 0 65.97 0 42.5C0 19.03 19.03 0 42.5 0Z" fill="#8C52FF" fill-opacity="0.2"/>
<path fill-rule="evenodd" clip-rule="evenodd" d="M42.4993 7.53003C61.8093 7.53003 77.4693 23.19 77.4693 42.5C77.4693 61.81 61.8093 77.47 42.4993 77.47C23.1893 77.47 7.5293 61.81 7.5293 42.5C7.5293 23.19 23.1893 7.53003 42.4993 7.53003Z" fill="#8C52FF" fill-opacity="0.2"/>
<path fill-rule="evenodd" clip-rule="evenodd" d="M42.4997 13.4299C58.5597 13.4299 71.5797 26.4399 71.5797 42.4999C71.5797 58.5599 58.5597 71.5699 42.4997 71.5699C26.4397 71.5699 13.4297 58.5599 13.4297 42.4999C13.4297 26.4399 26.4397 13.4299 42.4997 13.4299Z" fill="#8C52FF"/>
<path d="M41.0328 26.9575C40.9203 27.1041 40.8042 27.2465 40.6853 27.3821C39.818 28.3774 38.7592 29.149 37.5984 29.6743C36.4135 30.2105 35.1215 30.4909 33.8183 30.4909C33.2816 30.4909 32.7409 30.4428 32.2033 30.3457C31.6767 30.2504 31.155 30.1075 30.6447 29.9157L30.6256 29.9084L30.9545 30.5653C32.437 33.532 33.0539 36.7854 32.8298 39.979C32.6057 43.173 31.5401 46.308 29.6576 49.0388L29.5709 49.1645C29.4984 49.2697 29.4035 49.3514 29.2979 49.4072C29.1876 49.4653 29.0647 49.4957 28.9418 49.4957C28.866 49.4957 28.7898 49.4839 28.7154 49.4607C28.6455 49.4389 28.577 49.4063 28.5131 49.3627L28.5081 49.3591C28.3353 49.2398 28.2264 49.0611 28.191 48.8692C28.1561 48.6791 28.1933 48.475 28.3103 48.3026L28.4006 48.172C30.1244 45.6706 31.1006 42.7992 31.3061 39.8733C31.5111 36.9469 30.9459 33.9666 29.5877 31.2484L28.2273 28.5253C27.8326 28.2018 27.4675 27.8417 27.1363 27.4479C26.802 27.051 26.5026 26.6205 26.2413 26.1592C25.7686 25.3254 25.442 24.419 25.2701 23.4859C25.0977 22.5528 25.08 21.5925 25.2247 20.6512C25.2565 20.443 25.3699 20.267 25.5277 20.1513C25.6852 20.0356 25.887 19.9803 26.0952 20.012H26.0957C26.3039 20.0438 26.4799 20.1576 26.5956 20.3155C26.7108 20.4729 26.7666 20.6743 26.7348 20.8825C26.616 21.6564 26.6305 22.4448 26.772 23.2106C26.9136 23.9763 27.1821 24.7207 27.57 25.4061C27.9755 26.122 28.4908 26.7462 29.0983 27.2637C29.7057 27.7818 30.4061 28.1937 31.1822 28.4858C31.6077 28.6455 32.0419 28.7643 32.4792 28.8433C32.9228 28.924 33.3723 28.9635 33.8214 28.9635C34.9065 28.9635 35.9812 28.7308 36.9664 28.2844C37.9322 27.8476 38.8127 27.2057 39.534 26.3783C39.6302 26.2685 39.7259 26.151 39.8207 26.0276C39.9141 25.9051 40.0067 25.7763 40.0974 25.642L40.0979 25.6416C40.2158 25.4669 40.3941 25.3562 40.586 25.319C40.7778 25.2823 40.9838 25.3181 41.1584 25.4356L41.1589 25.4361C41.3335 25.5545 41.4438 25.7323 41.481 25.9246C41.5182 26.1165 41.4819 26.3225 41.3639 26.4971C41.2573 26.655 41.1466 26.8088 41.0328 26.9575ZM60.2603 52.637C60.5311 52.8983 60.8618 53.1133 61.256 53.2848C61.4493 53.3692 61.6071 53.5071 61.7155 53.6758C61.8235 53.8446 61.882 54.0446 61.8775 54.2547C61.8734 54.4656 61.8058 54.6643 61.6901 54.829C61.5745 54.9932 61.4103 55.1243 61.2129 55.2005C60.8341 55.3466 60.5143 55.5498 60.2508 55.8133C59.9872 56.0769 59.7781 56.4022 59.6207 56.7923C59.5408 56.9905 59.4066 57.1534 59.2392 57.2663C59.0713 57.3797 58.8704 57.4437 58.6576 57.4437H58.6522C58.4394 57.4419 58.2394 57.3765 58.0729 57.2622C57.9069 57.1479 57.7744 56.9846 57.6968 56.7864C57.5408 56.3867 57.3367 56.0565 57.0813 55.7929C56.8268 55.5307 56.5201 55.3325 56.1586 55.196C55.9599 55.1211 55.7952 54.9909 55.6791 54.8267C55.5634 54.6629 55.4958 54.4647 55.4918 54.2524C55.4877 54.0392 55.548 53.8364 55.6582 53.6659C55.7689 53.4962 55.93 53.3583 56.1268 53.2748C56.5247 53.1065 56.854 52.8961 57.118 52.6407C57.3807 52.3871 57.5794 52.0881 57.7173 51.7402C57.7944 51.5461 57.9259 51.3855 58.0897 51.2725C58.2539 51.1591 58.4512 51.0938 58.6604 51.0906C58.8713 51.0879 59.0704 51.1469 59.2378 51.2544C59.4052 51.3619 59.5413 51.5188 59.6243 51.7107C59.7799 52.0691 59.9908 52.3766 60.2603 52.637ZM58.1727 54.7224C58.3546 54.9093 58.5197 55.1166 58.6676 55.3429C58.8196 55.1175 58.9901 54.9115 59.1779 54.7246C59.3662 54.5373 59.5726 54.3694 59.7967 54.2202C59.5776 54.071 59.3753 53.9063 59.1911 53.7271C59.0056 53.547 58.8382 53.3524 58.688 53.1428C58.542 53.3533 58.3764 53.5484 58.1918 53.728C58.0067 53.9076 57.8025 54.0728 57.5789 54.2229C57.7935 54.3694 57.9912 54.5359 58.1727 54.7224ZM38.8454 34.9455C39.0051 35.0498 39.1348 35.2004 39.2142 35.3837C39.3466 35.6881 39.5258 35.9494 39.7549 36.1703C39.9849 36.3926 40.2666 36.5758 40.6032 36.7224C40.7901 36.8036 40.943 36.9369 41.0478 37.1002C41.1525 37.2635 41.2097 37.4577 41.2052 37.6618C41.2011 37.866 41.1353 38.0583 41.0233 38.2175C40.9117 38.3767 40.7524 38.5038 40.5615 38.5773C40.2403 38.7011 39.9695 38.8735 39.7463 39.0967C39.5226 39.3198 39.3457 39.5961 39.2119 39.9273C39.1343 40.1191 39.0046 40.2765 38.8422 40.3859C38.6798 40.4956 38.4852 40.5573 38.2793 40.5573H38.2743C38.0683 40.556 37.8746 40.4929 37.7131 40.3822C37.5516 40.2716 37.4233 40.1132 37.3489 39.9214C37.2159 39.582 37.0431 39.3017 36.8272 39.0785C36.6117 38.8562 36.3527 38.6888 36.0469 38.5732C35.8551 38.501 35.6958 38.3749 35.5833 38.2157C35.4708 38.0569 35.4055 37.8646 35.4014 37.6596C35.3973 37.4527 35.4554 37.2563 35.5625 37.0916C35.6691 36.9269 35.8251 36.7936 36.0156 36.7128C36.3545 36.5695 36.6344 36.3912 36.8589 36.1744C37.0817 35.9598 37.25 35.7062 37.367 35.4123C37.4414 35.224 37.5684 35.0684 37.7276 34.9591C37.8864 34.8493 38.0778 34.7858 38.2806 34.7826L38.296 34.7822C38.4961 34.7822 38.6857 34.8407 38.8454 34.9455ZM37.9191 38.0079C38.0524 38.1454 38.1758 38.2946 38.2892 38.4552C38.4063 38.2946 38.5342 38.1454 38.673 38.0075C38.8123 37.8696 38.9615 37.743 39.1216 37.6283C38.9651 37.5144 38.8191 37.3919 38.6839 37.2604C38.5478 37.1279 38.4221 36.9868 38.3069 36.8362C38.1935 36.9873 38.0688 37.1297 37.9322 37.2626C37.7961 37.3951 37.6483 37.5185 37.4895 37.6323C37.6428 37.7462 37.7862 37.8714 37.9191 38.0079ZM32.4383 52.588C32.6234 52.7659 32.8498 52.9128 33.1201 53.0308C33.3002 53.1093 33.4476 53.2376 33.5484 53.395C33.6495 53.5525 33.7044 53.7398 33.7003 53.9358C33.6962 54.1331 33.6332 54.3182 33.5252 54.4715C33.4173 54.6248 33.2644 54.7469 33.0802 54.8181C32.8244 54.917 32.6084 55.054 32.4311 55.2318C32.2528 55.4101 32.1113 55.6305 32.0047 55.895C31.9303 56.0796 31.8046 56.2316 31.6486 56.3368C31.4921 56.4425 31.3047 56.5019 31.1065 56.5019H31.1015C30.9028 56.5006 30.7154 56.4398 30.5603 56.3327C30.4056 56.2261 30.2818 56.0737 30.2096 55.8886C30.1035 55.6174 29.9656 55.3937 29.7937 55.2155C29.6231 55.039 29.4181 54.9061 29.1758 54.8149C28.9907 54.745 28.837 54.6235 28.7285 54.4701C28.6201 54.3173 28.5571 54.1317 28.5534 53.9335C28.5494 53.7348 28.6052 53.5457 28.7086 53.3869C28.8111 53.2286 28.9613 53.0997 29.145 53.0222C29.4167 52.9074 29.6412 52.7645 29.8204 52.5921C29.9983 52.4211 30.1325 52.2197 30.2251 51.9861C30.2972 51.8051 30.4197 51.6545 30.573 51.5492C30.7259 51.4435 30.9105 51.3823 31.1056 51.3791H31.1065C31.3024 51.3782 31.4889 51.4336 31.6454 51.5343C31.7883 51.6263 31.9067 51.7561 31.9851 51.9153L32.0414 51.8591L31.996 51.938L32.0051 51.9584C32.1113 52.2015 32.2546 52.4107 32.4383 52.588ZM30.8865 54.1449C30.9672 54.2284 31.0443 54.3164 31.1165 54.4098C31.1922 54.3159 31.272 54.227 31.3569 54.1426C31.4412 54.0587 31.5306 53.9793 31.6245 53.9049C31.5338 53.8323 31.4476 53.7561 31.365 53.6763C31.2829 53.596 31.2049 53.5121 31.131 53.4241C31.0575 53.513 30.979 53.5983 30.8951 53.6795C30.8125 53.7602 30.7245 53.8369 30.6315 53.9099C30.7204 53.9829 30.8057 54.0614 30.8865 54.1449ZM46.2078 59.0836L47.6875 57.6324C47.8381 57.485 48.0345 57.4124 48.2296 57.4142C48.4251 57.416 48.6202 57.4927 48.7676 57.6428C48.9155 57.7934 48.9881 57.9899 48.9863 58.1849C48.984 58.3804 48.9078 58.5755 48.7576 58.7229L47.2779 60.1736C46.6687 60.7711 45.9723 61.2483 45.218 61.5948C44.4903 61.9287 43.7092 62.1406 42.9008 62.2195V64.2341C42.9008 64.445 42.8155 64.636 42.6772 64.7743C42.5388 64.9131 42.3479 64.9984 42.1365 64.9984C41.926 64.9984 41.7345 64.9127 41.5962 64.7743C41.4578 64.636 41.3721 64.445 41.3721 64.2341V62.2113C40.5805 62.1242 39.8157 61.9097 39.1035 61.5772C38.3641 61.2319 37.6809 60.7606 37.0826 60.1736L35.6033 58.7229C35.4527 58.5755 35.3765 58.3804 35.3747 58.1849C35.3729 57.9899 35.4454 57.7934 35.5929 57.6428C35.7407 57.4927 35.9354 57.416 36.1309 57.4142C36.3264 57.4124 36.5223 57.485 36.6734 57.6324L38.1527 59.0836C38.6939 59.6138 39.3221 60.0253 40.004 60.3038C40.6848 60.5823 41.4215 60.728 42.1805 60.728C42.9389 60.728 43.6756 60.5823 44.357 60.3038C45.0388 60.0253 45.6666 59.6138 46.2078 59.0836ZM56.6975 50.9854C56.6227 51.0085 56.546 51.0198 56.4702 51.0198C56.3473 51.0198 56.2248 50.9899 56.1146 50.9318C56.008 50.8765 55.9136 50.7948 55.841 50.6891L54.7029 49.0388C52.8203 46.308 51.7548 43.173 51.5307 39.979C51.3066 36.785 51.9235 33.532 53.406 30.5653L53.7494 29.8794L53.6546 29.9157C53.1424 30.108 52.6185 30.2532 52.0859 30.3498C51.5524 30.4469 51.0122 30.4958 50.4687 30.4958C50.4052 30.4958 50.3299 30.4945 50.2433 30.4927C50.1657 30.4909 50.0904 30.4881 50.0178 30.4845C49.8069 30.4741 49.62 30.3793 49.4889 30.235C49.3573 30.0894 49.2811 29.8948 49.2915 29.6843C49.302 29.4738 49.3968 29.2874 49.5415 29.1563C49.6867 29.0247 49.8817 28.9485 50.0918 28.9585C50.6107 28.9839 51.1247 28.9567 51.6296 28.8778C52.1344 28.7993 52.6312 28.6682 53.1166 28.4858C53.8932 28.1941 54.5936 27.7818 55.201 27.2637C55.8084 26.7462 56.3233 26.122 56.7288 25.4061C57.1171 24.7207 57.3857 23.9758 57.5267 23.2101C57.6683 22.4444 57.6828 21.6564 57.5639 20.8825C57.5322 20.6743 57.588 20.4729 57.7036 20.3151C57.8193 20.1572 57.9953 20.0438 58.204 20.012C58.4122 19.9803 58.6136 20.0356 58.771 20.1513C58.9289 20.267 59.0428 20.443 59.0745 20.6512C59.2192 21.592 59.2015 22.5523 59.0292 23.4855C58.8568 24.4186 58.5302 25.3254 58.0579 26.1592C57.8075 26.6014 57.5227 27.0147 57.2069 27.3962C56.8935 27.7754 56.5487 28.1238 56.1758 28.4405L54.7728 31.2484C53.415 33.9666 52.8498 36.9469 53.0549 39.8728C53.2604 42.7983 54.2366 45.6702 55.9608 48.1715L57.0985 49.8223C57.2183 49.996 57.2564 50.2015 57.221 50.3938C57.1856 50.5862 57.0767 50.7649 56.9034 50.8847C56.8381 50.9296 56.7687 50.9631 56.6975 50.9854ZM59.5744 58.3827H59.5758C59.7872 58.38 59.9786 58.4612 60.1183 58.5959C60.2594 58.7311 60.3479 58.9207 60.3519 59.1316C60.3624 59.6828 60.3447 60.2321 60.2984 60.7756C60.2521 61.3204 60.1773 61.8634 60.0739 62.4L59.6937 64.3783C59.6588 64.5598 59.5626 64.7135 59.4311 64.8229C59.2963 64.9336 59.1253 64.9984 58.9443 64.9984C58.9239 64.9984 58.8999 64.9971 58.8727 64.9948C58.8459 64.9925 58.8209 64.9889 58.7987 64.9844C58.5923 64.9444 58.4208 64.8242 58.3115 64.6627C58.2017 64.5008 58.1536 64.2971 58.1936 64.0903L58.5733 62.1115C58.6662 61.6302 58.7334 61.1408 58.7756 60.6477C58.8178 60.1519 58.8345 59.6551 58.825 59.1611L58.8246 59.1584C58.8214 58.9488 58.903 58.7574 59.0378 58.6172C59.173 58.4766 59.3621 58.3872 59.5726 58.3832L59.5744 58.3827ZM27.7814 50.4056L27.7832 50.4065C27.9574 50.5249 28.0672 50.7032 28.1039 50.8955C28.1402 51.087 28.1034 51.2929 27.985 51.4671C26.9186 53.0362 26.19 54.7664 25.8176 56.5691C25.4452 58.3718 25.4293 60.2489 25.7872 62.1115L26.1678 64.0903C26.2073 64.2971 26.1592 64.5008 26.0499 64.6627C25.9405 64.8238 25.77 64.9435 25.564 64.9839L25.5622 64.9844C25.5404 64.9889 25.5164 64.9921 25.4901 64.9948C25.462 64.9971 25.4375 64.9984 25.4161 64.9984C25.2352 64.9984 25.0641 64.9336 24.9299 64.8224C24.7979 64.7135 24.7017 64.5598 24.6672 64.3783L24.2866 62.4C23.8901 60.3365 23.9083 58.2579 24.3206 56.2606C24.733 54.2633 25.54 52.3476 26.7212 50.6098L26.7221 50.6084C26.8405 50.4342 27.0184 50.3244 27.2103 50.2877C27.4012 50.2514 27.6063 50.2877 27.78 50.4047L27.7814 50.4056ZM53.0358 23.9414C52.8974 24.0797 52.7065 24.1655 52.4955 24.1655C52.285 24.1655 52.0941 24.0797 51.9557 23.9414C51.8174 23.803 51.7316 23.612 51.7316 23.4015V23.0473C51.7316 22.8368 51.8174 22.6458 51.9557 22.5074C52.0941 22.3691 52.285 22.2833 52.4955 22.2833C52.7065 22.2833 52.8974 22.3691 53.0358 22.5074C53.1742 22.6458 53.2599 22.8368 53.2599 23.0473V23.4015C53.2599 23.612 53.1742 23.803 53.0358 23.9414ZM32.4052 23.9414C32.2669 24.0797 32.0759 24.1655 31.8649 24.1655C31.6545 24.1655 31.463 24.0797 31.3247 23.9414C31.1863 23.8026 31.1006 23.6116 31.1006 23.4015V23.0473C31.1006 22.8368 31.1863 22.6458 31.3251 22.5074C31.4635 22.3691 31.6545 22.2833 31.8649 22.2833C32.0759 22.2833 32.2669 22.3691 32.4052 22.5074C32.5436 22.6458 32.6293 22.8368 32.6293 23.0473V23.4015C32.6293 23.6116 32.5436 23.803 32.4052 23.9414ZM45.1817 28.8038C44.606 28.3928 44.078 27.9152 43.6135 27.3821C43.4951 27.246 43.3785 27.1036 43.266 26.9571C43.1521 26.8083 43.0415 26.6545 42.9353 26.4971C42.8169 26.3225 42.7811 26.1165 42.8183 25.9246C42.855 25.7323 42.9657 25.5545 43.1403 25.4361C43.315 25.3181 43.5214 25.2823 43.7128 25.319C43.9052 25.3562 44.083 25.4669 44.2014 25.6416C44.2917 25.7758 44.3842 25.9042 44.4776 26.0267C44.5724 26.1505 44.6682 26.268 44.7643 26.3783C45.1508 26.821 45.5904 27.2184 46.0699 27.5604C46.548 27.902 47.067 28.1882 47.6122 28.4101C47.8073 28.4894 47.952 28.641 48.0282 28.8215C48.104 29.0016 48.1117 29.2107 48.0323 29.4058C47.9729 29.5514 47.8731 29.6693 47.751 29.7514C47.6258 29.8358 47.477 29.8821 47.3242 29.8821C47.2761 29.8821 47.2271 29.8776 47.1776 29.868C47.1305 29.8585 47.0828 29.8444 47.0366 29.8258C46.3815 29.5596 45.7578 29.2148 45.1817 28.8038Z" fill="white"/>
</svg>
