<svg width="80" height="80" viewBox="0 0 80 80" fill="none" xmlns="http://www.w3.org/2000/svg">
<path fill-rule="evenodd" clip-rule="evenodd" d="M40 0C62.09 0 80 17.91 80 40C80 62.09 62.09 80 40 80C17.91 80 0 62.09 0 40C0 17.91 17.91 0 40 0Z" fill="#8C52FF" fill-opacity="0.2"/>
<path d="M40.0014 74.5599C59.0884 74.5599 74.5614 59.0869 74.5614 39.9999C74.5614 20.913 59.0884 5.43994 40.0014 5.43994C20.9144 5.43994 5.44141 20.913 5.44141 39.9999C5.44141 59.0869 20.9144 74.5599 40.0014 74.5599Z" fill="#CB6CE6"/>
<path d="M42.5684 43.7855H42.514C41.9512 43.7855 41.4973 44.2535 41.4973 44.8224C41.4973 45.3913 41.9512 45.8593 42.514 45.8593H42.5775C43.1403 45.8593 43.5942 45.3913 43.5942 44.8224C43.5942 44.2535 43.1313 43.7855 42.5684 43.7855ZM65.036 39.8306C65.2357 39.3075 65.8167 39.0414 66.3432 39.2341C66.8697 39.436 67.1329 40.0233 66.9332 40.5555C66.8697 40.7207 66.8243 40.8491 66.7789 40.9501C62.3399 52.3744 53.4527 58.3206 43.7486 60.6697C34.1352 62.9913 23.7139 61.7617 16.0704 58.8253H16.0613L15.6437 58.6601C15.1263 58.4491 14.863 57.8618 15.0718 57.3296C15.2715 56.8065 15.8616 56.5496 16.379 56.7515L16.7784 56.9075C24.1042 59.7246 34.0898 60.9083 43.2856 58.6785C52.3997 56.4762 60.7331 50.9062 64.8998 40.2068L65.036 39.8306ZM66.5247 30.4341C61.7317 21.5332 52.5359 16 42.514 16C32.5012 16 23.2963 21.5332 18.5032 30.4341C18.3398 30.7461 18.3398 31.1132 18.5032 31.4252C20.4822 35.0865 23.3054 38.3165 26.6732 40.739C30.1046 43.2166 34.117 44.8683 38.2656 45.5198C38.8284 45.6116 39.3458 45.2262 39.4366 44.6664C39.5274 44.0975 39.1461 43.5745 38.5833 43.4827C31.1486 42.3081 24.5309 37.72 20.7091 31.1499C23.5777 28.7733 27.8806 26.9655 32.8915 25.947C32.1562 27.4519 31.7568 29.1128 31.7568 30.8104C31.7568 36.8024 36.5862 41.6842 42.514 41.6842C48.4508 41.6842 53.2712 36.8024 53.2712 30.8104C53.2712 29.1128 52.8808 27.4519 52.1364 25.947C57.1564 26.9655 61.4593 28.7733 64.3188 31.1499C60.5062 37.72 53.8794 42.3081 46.4537 43.4827C45.8909 43.5745 45.5096 44.0975 45.6004 44.6664C45.673 45.1711 46.1088 45.5382 46.6081 45.5382C46.6534 45.5382 46.7079 45.529 46.7624 45.5198C50.92 44.8683 54.9233 43.2166 58.3547 40.739C61.7226 38.3165 64.5548 35.0865 66.5247 31.4252C66.6881 31.1132 66.6881 30.7461 66.5247 30.4341ZM42.514 18.0646C50.0122 18.0646 57.0112 21.414 61.7589 27.0481C58.5544 25.4056 54.5965 24.1943 50.2573 23.5245C50.1938 23.5153 50.1302 23.5061 50.0667 23.4969C47.6429 23.1391 45.1102 22.9464 42.514 22.9464C39.9268 22.9464 37.385 23.1391 34.9613 23.4969C34.8977 23.5061 34.8432 23.5153 34.7797 23.5245C30.4405 24.1943 26.4735 25.4056 23.2691 27.0481C28.0167 21.414 35.0248 18.0646 42.514 18.0646ZM40.3989 27.2959C41.1614 27.2959 41.7787 27.9199 41.7787 28.6815C41.7787 29.4523 41.1614 30.0763 40.3989 30.0763C39.6454 30.0763 39.0281 29.4523 39.0281 28.6815C39.0281 27.9199 39.6454 27.2959 40.3989 27.2959ZM40.3989 32.1409C42.287 32.1409 43.8212 30.5901 43.8212 28.6815C43.8212 27.9749 43.6124 27.3142 43.2402 26.7637C45.1375 27.1124 46.5808 28.7916 46.5808 30.8104C46.5808 33.0769 44.7562 34.9213 42.514 34.9213C40.535 34.9213 38.8738 33.4715 38.5198 31.572C39.0644 31.9299 39.7089 32.1409 40.3989 32.1409ZM51.2287 30.8104C51.2287 35.6646 47.3252 39.6195 42.514 39.6195C37.7118 39.6195 33.7993 35.6646 33.7993 30.8104C33.7993 28.8925 34.4257 27.0206 35.5695 25.4974C37.0945 25.2771 38.665 25.1303 40.2718 25.0661C40.0993 25.1303 39.9359 25.2037 39.7725 25.2863C38.3745 25.5524 37.2761 26.6719 37.031 28.085C36.6225 28.9293 36.4046 29.8652 36.4046 30.8104C36.4046 34.2147 39.1461 36.986 42.514 36.986C45.8909 36.986 48.6233 34.2147 48.6233 30.8104C48.6233 28.2043 47.0166 25.9653 44.7562 25.0661C46.363 25.1303 47.9425 25.2771 49.4676 25.4974C50.6023 27.0206 51.2287 28.8925 51.2287 30.8104Z" fill="white"/>
</svg>
