<svg width="80" height="80" viewBox="0 0 80 80" fill="none" xmlns="http://www.w3.org/2000/svg">
<path fill-rule="evenodd" clip-rule="evenodd" d="M40 0C62.09 0 80 17.91 80 40C80 62.09 62.09 80 40 80C17.91 80 0 62.09 0 40C0 17.91 17.91 0 40 0Z" fill="#8C52FF" fill-opacity="0.2"/>
<path d="M40.0014 74.5599C59.0884 74.5599 74.5614 59.0869 74.5614 39.9999C74.5614 20.913 59.0884 5.43994 40.0014 5.43994C20.9144 5.43994 5.44141 20.913 5.44141 39.9999C5.44141 59.0869 20.9144 74.5599 40.0014 74.5599Z" fill="#CB6CE6"/>
<path d="M43.8322 25.2945C44.1368 25.6837 44.6868 25.7514 45.076 25.4553C45.4568 25.1591 45.5329 24.6091 45.2283 24.2199C44.5006 23.2637 44.0014 22.2568 43.7052 21.1314C43.6375 20.8776 43.6883 20.6237 43.8322 20.4037C43.976 20.1922 44.196 20.0568 44.4583 20.0314C44.8899 19.9722 45.3045 20.2514 45.4145 20.6661C45.7191 21.8422 46.2775 22.8322 47.1829 23.7884C48.8414 25.523 50.5591 25.8191 52.5137 27.4776C53.1822 28.0361 53.9183 28.8822 54.5783 29.8553C56.2452 32.2837 58.9783 33.7391 61.8891 33.7391H65.1214C65.6122 33.7391 66.0014 33.3499 66.0014 32.8591C66.0014 32.3684 65.6122 31.9791 65.1214 31.9791H61.8891C59.5622 31.9791 57.3706 30.8114 56.0337 28.8568C55.746 28.4337 55.4414 28.0276 55.1283 27.6468C55.7037 26.9784 56.1268 26.2253 56.3975 25.4045C56.6683 24.5837 56.7783 23.7207 56.7275 22.8661C56.9222 22.3584 57.4129 21.4191 58.496 20.8184C59.7229 20.1245 60.9245 20.3191 61.3814 20.4291C61.8552 20.5476 62.3291 20.2599 62.4475 19.7861C62.566 19.3122 62.2783 18.8384 61.8045 18.7199C61.1445 18.5507 59.4183 18.2799 57.6329 19.2784C57.0237 19.6168 56.5414 20.0314 56.1691 20.4545C55.8052 19.5914 55.2806 18.7622 54.6037 18.0345C54.2737 17.6791 53.7152 17.6622 53.3599 17.9922C53.0045 18.3307 52.9791 18.8891 53.3175 19.2445C54.8068 20.8353 55.3483 22.9845 54.7222 24.8545C54.5445 25.3961 54.2652 25.8953 53.9099 26.3522C52.1245 24.6684 50.0599 24.1607 48.4691 22.5784C47.7752 21.8422 47.3437 21.0976 47.1237 20.2261C46.7937 18.9568 45.5583 18.1191 44.2468 18.2799C43.4852 18.373 42.8083 18.7791 42.3768 19.4137C41.9452 20.0399 41.8099 20.8268 41.996 21.5714C42.3514 22.9337 42.9522 24.1522 43.8322 25.2945ZM24.6245 40.2376C24.8699 40.2376 25.1406 40.2122 25.4452 40.1614C26.486 39.9922 27.7129 39.5184 28.8891 38.833C30.0737 38.1561 31.0891 37.3353 31.7575 36.5145C32.9168 35.1099 32.6629 34.1791 32.4175 33.7391C31.5037 32.1653 28.576 32.893 26.2406 34.2468C23.9052 35.5922 21.8068 37.7668 22.7122 39.3407C22.9237 39.7045 23.4314 40.2376 24.6245 40.2376ZM27.1206 35.7699C29.0499 34.6614 30.4545 34.5176 30.8522 34.6445C30.7591 35.0507 29.9299 36.2014 28.0091 37.3099C26.0799 38.4184 24.6752 38.5622 24.2775 38.4437C24.3706 38.0291 25.1914 36.8868 27.1206 35.7699ZM45.7783 48.8345C43.0791 48.8345 40.1683 49.6637 40.1683 51.4914C40.1683 53.3107 43.0791 54.1399 45.7783 54.1399C48.4776 54.1399 51.3799 53.3107 51.3799 51.4914C51.3799 49.6637 48.4776 48.8345 45.7783 48.8345ZM45.7783 52.3799C43.5445 52.3799 42.2583 51.7961 41.9706 51.4914C42.2583 51.1784 43.5445 50.603 45.7783 50.603C48.0037 50.603 49.2983 51.1784 49.586 51.4914C49.2983 51.7961 48.0037 52.3799 45.7783 52.3799ZM34.6683 41.6761C34.6683 43.1314 35.8529 44.3245 37.3083 44.3245C38.7722 44.3245 39.9568 43.1314 39.9568 41.6761C39.9568 40.2207 38.7722 39.0276 37.3083 39.0276C35.8529 39.0276 34.6683 40.2207 34.6683 41.6761ZM38.1883 41.6761C38.1883 42.1584 37.7991 42.5561 37.3083 42.5561C36.826 42.5561 36.4283 42.1584 36.4283 41.6761C36.4283 41.1853 36.826 40.796 37.3083 40.796C37.7991 40.796 38.1883 41.1853 38.1883 41.6761ZM52.5391 42.8522C52.5391 44.3076 53.7237 45.5007 55.1875 45.5007C56.6429 45.5007 57.8275 44.3076 57.8275 42.8522C57.8275 41.3968 56.6429 40.2037 55.1875 40.2037C53.7237 40.2037 52.5391 41.3968 52.5391 42.8522ZM56.0675 42.8522C56.0675 43.3345 55.6699 43.7322 55.1875 43.7322C54.6968 43.7322 54.2991 43.3345 54.2991 42.8522C54.2991 42.3614 54.6968 41.9722 55.1875 41.9722C55.6699 41.9722 56.0675 42.3614 56.0675 42.8522ZM65.1214 50.7891H57.3452C57.2268 50.1545 56.9306 49.5453 56.4737 48.9784C59.8414 48.6061 62.4729 45.7376 62.4729 42.2599C62.4729 42.0145 62.4645 41.7691 62.4306 41.5153C62.3799 41.033 61.9483 40.686 61.466 40.7368C60.9752 40.7876 60.6283 41.2276 60.6791 41.7099C60.7045 41.8961 60.7129 42.0822 60.7129 42.2599C60.7129 45.0184 58.4706 47.2607 55.7122 47.2607H54.3752C54.1806 47.1507 53.986 47.0407 53.7745 46.9391C52.2429 46.1861 50.3475 45.6699 48.2999 45.433C48.2745 43.3599 46.5737 41.6761 44.4837 41.6761C42.3768 41.6761 40.6591 43.3937 40.6591 45.5007C40.6591 45.6276 40.6675 45.763 40.6845 45.8984C39.4491 46.2284 38.3406 46.6007 37.1814 47.2607H34.8883C34.7699 45.2637 33.1029 43.673 31.0806 43.673C29.0499 43.673 27.3914 45.2553 27.2645 47.2437C25.4537 47.1253 23.8799 46.0507 23.1099 44.4514C25.4622 44.2653 28.1275 43.3599 30.6575 41.8961C32.9168 40.6014 34.846 38.9768 36.1829 37.2676H44.5429C44.5429 39.3745 46.2522 41.0922 48.3675 41.0922C50.4745 41.0922 52.1837 39.3745 52.1837 37.2676H55.7122C56.9983 37.2676 58.2252 37.7584 59.156 38.6384C59.3252 38.7991 59.5452 38.8837 59.7652 38.8837C59.9937 38.8837 60.2306 38.7907 60.3999 38.6045C60.7383 38.2491 60.7214 37.6991 60.366 37.3607C59.1052 36.1591 57.4552 35.5076 55.7122 35.5076H37.3337C37.6468 34.8984 37.8752 34.3061 38.0022 33.7391H52.7083C53.1399 33.7391 53.5545 33.5022 53.7745 33.1299C53.9945 32.7491 53.9945 32.2753 53.7745 31.8945C53.0383 30.6084 52.1668 29.4914 51.3799 28.8314C50.5337 28.1207 49.7552 27.6807 48.9852 27.2576C48.6806 27.0884 48.3591 26.9107 48.046 26.7161C47.6314 26.4622 47.0899 26.5976 46.836 27.0122C46.5822 27.4268 46.7175 27.9684 47.1322 28.2222C47.4706 28.4337 47.8091 28.6199 48.1306 28.7976C48.8837 29.2207 49.5352 29.5761 50.2545 30.1853C50.7199 30.5745 51.2529 31.2176 51.7606 31.9791H38.0783C38.0022 31.5307 37.8583 31.1161 37.6383 30.7268C36.7499 29.1953 34.8206 28.4422 32.2145 28.6114C31.216 28.6791 30.1499 28.8737 29.0668 29.1953C28.7283 28.7637 28.2799 28.0107 28.0175 27.2745C27.1291 24.8291 27.0868 22.5361 27.2222 21.0468C27.3322 19.693 26.4183 18.483 25.0814 18.2291C24.3452 18.0853 23.5837 18.263 22.9829 18.7114C22.3906 19.1684 22.0099 19.8537 21.9422 20.5984C21.8152 22.113 21.8152 24.2537 22.3314 26.6314C21.2991 26.2168 20.4445 25.5145 19.9114 24.6007C19.1922 23.3907 19.2345 22.1045 19.3191 21.4445C19.3783 20.9622 19.0399 20.5222 18.5575 20.4545C18.0752 20.3953 17.6352 20.7337 17.5675 21.2161C17.4575 22.0961 17.4068 23.8307 18.3883 25.4976C19.3275 27.0968 20.9522 28.2222 22.8899 28.6453C23.1522 29.4322 23.6006 30.5153 24.0745 31.4122C23.7699 31.5984 23.4822 31.7845 23.1945 31.9791H15.0291C14.5383 31.9791 14.1406 32.3684 14.1406 32.8591C14.1406 33.3499 14.5383 33.7391 15.0291 33.7391H20.9099C20.1991 34.3737 19.5645 35.0422 19.0145 35.7191C18.7099 36.0999 18.7775 36.6584 19.1583 36.963C19.5391 37.2676 20.0891 37.1999 20.3937 36.8191C21.5952 35.3214 23.3552 33.8576 25.3522 32.7068C27.7214 31.3361 30.2006 30.5068 32.3245 30.3714C34.2029 30.253 35.5822 30.7014 36.1068 31.6068C36.6314 32.5207 36.3352 33.9337 35.286 35.4991C34.1014 37.2761 32.1468 39.0022 29.7775 40.373C27.4083 41.7437 24.9291 42.573 22.8052 42.7084C20.9268 42.8353 19.5475 42.3784 19.0229 41.473C18.8029 41.0837 18.7183 40.6099 18.7945 40.0684C18.8537 39.5861 18.5152 39.1376 18.0245 39.0784C17.5506 39.0191 17.1022 39.3576 17.0429 39.8399C16.9245 40.7791 17.0768 41.6253 17.4914 42.353C18.1683 43.5291 19.4629 44.2484 21.206 44.4345C22.1283 47.1676 24.6752 49.0207 27.6114 49.0207H35.0491C34.6091 49.5791 34.3299 50.1714 34.2029 50.7891H15.0291C14.5383 50.7891 14.1406 51.1784 14.1406 51.6691C14.1406 52.1599 14.5383 52.5491 15.0291 52.5491H34.296C34.4568 53.0737 34.736 53.5814 35.1252 54.0553C33.5175 54.1484 31.5291 54.2922 29.5152 55.5276C29.2699 55.6799 29.0245 55.8491 28.7875 56.0353C27.7722 55.4684 26.1645 54.8845 24.2606 55.2737C22.7968 55.5699 21.7475 56.323 21.1299 56.8984C20.7745 57.2368 20.7491 57.7953 21.0875 58.1507C21.2568 58.3368 21.4937 58.4299 21.7306 58.4299C21.9422 58.4299 22.1622 58.3537 22.3314 58.193C22.7883 57.7699 23.5499 57.2114 24.6075 56.9999C25.7075 56.7799 26.6722 57.0084 27.4083 57.3214C26.6299 58.2099 25.9868 59.2591 25.5045 60.4522C25.2168 61.1714 25.2506 61.9753 25.6145 62.6607C25.9699 63.3545 26.6129 63.8537 27.3745 64.023C27.5775 64.0653 27.7722 64.0907 27.9752 64.0907C29.0245 64.0907 29.9975 63.4645 30.4037 62.4576C30.8268 61.4337 31.5714 60.4268 32.4091 59.9614C32.8406 59.7245 32.9845 59.183 32.7475 58.7599C32.5106 58.3368 31.9691 58.1845 31.546 58.4214C30.446 59.0307 29.3883 60.2576 28.7706 61.7891C28.6099 62.1784 28.1868 62.3984 27.7637 62.3053C27.5099 62.2461 27.2983 62.0768 27.1714 61.8484C27.1037 61.713 27.0106 61.4422 27.1375 61.1122C27.8737 59.3184 29.016 57.9053 30.4375 57.0337C32.1214 56.0014 33.746 55.8999 35.3283 55.8068C35.8952 55.773 36.4791 55.7391 37.0714 55.6545C37.7822 56.0776 38.7129 56.4922 39.7368 56.8137C38.3491 57.3299 37.1052 57.4568 35.9375 57.533C35.4552 57.5668 35.0829 57.9899 35.1168 58.4722C35.1337 58.8107 35.4975 59.3353 36.056 59.293C37.5537 59.1999 39.3137 59.0137 41.3275 58.0576C41.7252 57.863 42.1145 57.6599 42.5037 57.4484C43.5529 57.6007 44.6529 57.6853 45.7783 57.6853C48.7822 57.6853 51.6252 57.1014 53.7745 56.0353C55.6445 55.113 56.846 53.903 57.2606 52.5491H65.1214C65.6122 52.5491 66.0014 52.1514 66.0014 51.6691C66.0014 51.1784 65.6122 50.7891 65.1214 50.7891ZM23.7022 20.7422C23.7275 20.4968 23.846 20.2768 24.0491 20.1245C24.2522 19.9722 24.4975 19.913 24.7514 19.9553C25.1914 20.0399 25.496 20.4461 25.4622 20.8945C25.3183 22.5614 25.3606 25.1253 26.3591 27.8753C26.5452 28.4084 26.8837 29.1361 27.3237 29.7961C26.7568 30.0161 26.1899 30.2784 25.6229 30.5576C25.2675 29.8976 24.9629 29.1953 24.7006 28.4761C23.5922 25.4384 23.5499 22.5953 23.7022 20.7422ZM48.3675 39.3237C47.2252 39.3237 46.3029 38.4014 46.3029 37.2676H50.4237C50.4237 38.4014 49.5014 39.3237 48.3675 39.3237ZM42.4275 45.543C42.4275 44.3584 43.3499 43.4361 44.4837 43.4361C45.5583 43.4361 46.4383 44.2653 46.5314 45.3061C46.286 45.2976 46.0322 45.2976 45.7783 45.2976C44.6275 45.2976 43.5022 45.3822 42.4275 45.543ZM31.0806 45.4414C32.1299 45.4414 33.0014 46.2368 33.1199 47.2607H29.0329C29.1514 46.2368 30.0229 45.4414 31.0806 45.4414ZM52.996 54.453C51.0837 55.4007 48.5199 55.9253 45.7783 55.9253C43.0368 55.9253 40.4729 55.4007 38.5606 54.453C36.8683 53.6237 35.8952 52.5407 35.8952 51.4914C35.8952 50.4422 36.8683 49.3591 38.5606 48.5214C40.4729 47.5822 43.0368 47.0576 45.7783 47.0576C48.5199 47.0576 51.0837 47.5822 52.996 48.5214C54.6883 49.3591 55.6529 50.4422 55.6529 51.4914C55.6529 52.5407 54.6883 53.6237 52.996 54.453Z" fill="white"/>
</svg>
