<svg width="80" height="80" viewBox="0 0 80 80" fill="none" xmlns="http://www.w3.org/2000/svg">
<path fill-rule="evenodd" clip-rule="evenodd" d="M40 0C62.09 0 80 17.91 80 40C80 62.09 62.09 80 40 80C17.91 80 0 62.09 0 40C0 17.91 17.91 0 40 0Z" fill="#8C52FF" fill-opacity="0.2"/>
<path d="M40.0014 74.5599C59.0884 74.5599 74.5614 59.0869 74.5614 39.9999C74.5614 20.913 59.0884 5.43994 40.0014 5.43994C20.9144 5.43994 5.44141 20.913 5.44141 39.9999C5.44141 59.0869 20.9144 74.5599 40.0014 74.5599Z" fill="#CB6CE6"/>
<path d="M34.7608 31.052C35.2569 30.9546 35.7353 31.2647 35.8416 31.7608C35.9391 32.2481 35.629 32.7265 35.1329 32.8328C34.5482 32.9568 33.9369 33.0454 33.3079 33.1074C32.6788 33.1783 32.0587 33.2049 31.4474 33.2049C28.3289 33.2049 25.4939 32.4341 23.4297 31.1938C21.2326 29.8649 19.8682 27.9867 19.8682 25.8782C19.8682 23.7608 21.2326 21.8826 23.4297 20.5537C25.4939 19.3134 28.3289 18.5426 31.4474 18.5426C34.557 18.5426 37.392 19.3134 39.4563 20.5537C41.6622 21.8826 43.0266 23.7608 43.0266 25.8782C43.0266 26.9502 42.6633 27.9956 41.9812 28.9524C41.3344 29.8472 40.4042 30.6622 39.2171 31.3355C38.7829 31.5836 38.2248 31.4241 37.9767 30.99C37.7375 30.5559 37.8881 30.0066 38.3223 29.7586C39.2702 29.2182 40.0055 28.5803 40.5017 27.8893C40.9623 27.2514 41.2015 26.5692 41.2015 25.8782C41.2015 24.443 40.1827 23.1141 38.5172 22.113C36.7276 21.0321 34.2204 20.3677 31.4474 20.3677C28.6656 20.3677 26.1672 21.0321 24.3688 22.113C22.7121 23.1141 21.6844 24.443 21.6844 25.8782C21.6844 27.3045 22.7121 28.6423 24.3688 29.6345C26.1672 30.7154 28.6656 31.3887 31.4474 31.3887C32.0321 31.3887 32.5903 31.3621 33.1307 31.309C33.68 31.247 34.2292 31.1672 34.7608 31.052ZM36.1872 55.1141C36.5415 54.7685 37.1174 54.7774 37.4629 55.1406C37.8173 55.495 37.7996 56.0709 37.4452 56.4164C36.8782 56.9657 36.1606 57.3909 35.3632 57.6833C34.5836 57.9668 33.7243 58.1174 32.8472 58.1174C31.9701 58.1174 31.1107 57.9668 30.3223 57.6833C29.5338 57.3909 28.8162 56.9657 28.2492 56.4164C27.8859 56.0709 27.8771 55.495 28.2226 55.1406C28.5681 54.7774 29.144 54.7685 29.5072 55.1141C29.8881 55.4773 30.3843 55.7696 30.9424 55.9734C31.5183 56.186 32.1739 56.3012 32.8472 56.3012C33.5205 56.3012 34.1672 56.186 34.7431 55.9734C35.3101 55.7696 35.8062 55.4773 36.1872 55.1141ZM29.5249 52.7309C29.0377 52.8283 28.5592 52.5183 28.4529 52.0221C28.3555 51.5349 28.6656 51.0565 29.1528 50.9502C29.7464 50.8261 30.3577 50.7375 30.9778 50.6755C31.6157 50.6046 32.2359 50.5781 32.8472 50.5781C35.9568 50.5781 38.7918 51.34 40.856 52.5891C43.062 53.918 44.4264 55.7874 44.4264 57.9048C44.4264 60.0221 43.062 61.9003 40.856 63.2292C38.7918 64.4695 35.9568 65.2403 32.8472 65.2403C29.7287 65.2403 26.8937 64.4695 24.8295 63.2292C22.6323 61.9003 21.268 60.0221 21.268 57.9048C21.268 56.8328 21.6312 55.7874 22.3134 54.8394C22.9513 53.9358 23.8904 53.1207 25.0775 52.4474C25.5116 52.1993 26.0609 52.3499 26.309 52.7929C26.557 53.227 26.4064 53.7763 25.9723 54.0244C25.0244 54.5648 24.2802 55.2027 23.7841 55.8937C23.3322 56.5316 23.0842 57.2137 23.0842 57.9048C23.0842 59.34 24.1118 60.6689 25.7685 61.67C27.567 62.7508 30.0653 63.4241 32.8472 63.4241C35.629 63.4241 38.1274 62.7508 39.9169 61.67C41.5825 60.6689 42.6013 59.34 42.6013 57.9048C42.6013 56.4784 41.5825 55.1406 39.9169 54.1484C38.1274 53.0676 35.629 52.3942 32.8472 52.3942C32.2625 52.3942 31.6955 52.4208 31.155 52.474C30.6058 52.536 30.0653 52.6157 29.5249 52.7309ZM51.3898 38.4673C51.753 38.113 52.3289 38.1307 52.6744 38.485C53.0199 38.8483 53.0111 39.4241 52.6478 39.7697C52.0808 40.3189 51.3721 40.7442 50.5747 41.0277C49.7951 41.3112 48.9358 41.4706 48.0498 41.4706C47.1728 41.4706 46.3134 41.3112 45.5338 41.0277C44.7364 40.7442 44.0277 40.3189 43.4607 39.7697C43.0975 39.4241 43.0886 38.8483 43.4341 38.485C43.7796 38.1307 44.3555 38.113 44.7187 38.4673C45.0997 38.8306 45.5869 39.1229 46.1539 39.3267C46.7298 39.5393 47.3765 39.6456 48.0498 39.6456C48.732 39.6456 49.3787 39.5393 49.9546 39.3267C50.5127 39.1229 51.0089 38.8306 51.3898 38.4673ZM51.3721 46.4319C51.8594 46.3344 52.3466 46.6534 52.4441 47.1406C52.5504 47.6279 52.2314 48.1063 51.7442 48.2126C51.1506 48.3367 50.5393 48.4252 49.9192 48.4961C49.2901 48.5581 48.6611 48.5847 48.0498 48.5847C44.9402 48.5847 42.1052 47.8228 40.041 46.5736C37.835 45.2536 36.4795 43.3754 36.4795 41.258C36.4795 39.1406 37.835 37.2625 40.041 35.9424C42.1052 34.6932 44.9402 33.9225 48.0498 33.9225C51.1683 33.9225 54.0033 34.6932 56.0676 35.9424C58.2647 37.2625 59.629 39.1406 59.629 41.258C59.629 42.3389 59.2746 43.3843 58.5925 44.3322C57.9457 45.227 57.0155 46.0421 55.8284 46.7154C55.3854 46.9634 54.8361 46.8128 54.588 46.3787C54.34 45.9358 54.4906 45.3865 54.9336 45.1384C55.8815 44.598 56.6168 43.9601 57.113 43.2691C57.5648 42.6312 57.8128 41.9491 57.8128 41.258C57.8128 39.8228 56.7852 38.4939 55.1285 37.4928C53.33 36.412 50.8317 35.7475 48.0498 35.7475C45.2769 35.7475 42.7697 36.412 40.9801 37.4928C39.3234 38.4939 38.2957 39.8228 38.2957 41.258C38.2957 42.6932 39.3234 44.0221 40.9801 45.0233C42.7697 46.1041 45.2769 46.7685 48.0498 46.7685C48.6345 46.7685 49.2015 46.742 49.742 46.6888C50.2912 46.6357 50.8405 46.5471 51.3721 46.4319ZM34.7874 23.0786C35.1417 22.7331 35.7176 22.742 36.0631 23.1052C36.4175 23.4684 36.3998 24.0443 36.0454 24.3898C35.4784 24.9302 34.7608 25.3555 33.9635 25.6478C33.1838 25.9313 32.3245 26.0819 31.4474 26.0819C30.5703 26.0819 29.7021 25.9313 28.9225 25.6478C28.1251 25.3555 27.4164 24.9302 26.8494 24.3898C26.4862 24.0443 26.4773 23.4684 26.8228 23.1052C27.1683 22.742 27.7442 22.7331 28.1074 23.0786C28.4884 23.4507 28.9845 23.7431 29.5426 23.9468C30.1185 24.1506 30.7741 24.2658 31.4474 24.2658C32.1207 24.2658 32.7674 24.1506 33.3433 23.9468C33.9103 23.7431 34.4064 23.4507 34.7874 23.0786ZM24.6877 41.9225C24.5548 41.2137 24.2713 40.5581 23.8815 39.9823C24.4396 39.4241 24.9978 38.866 25.5559 38.3079C25.9457 37.918 25.9457 37.289 25.5559 36.8992C25.1661 36.5094 24.5282 36.5094 24.1384 36.8992C23.5891 37.4574 23.031 38.0066 22.4729 38.5648C21.897 38.175 21.2326 37.9003 20.5238 37.7586C20.5238 36.9701 20.5238 36.1816 20.5238 35.402C20.5238 34.8527 20.072 34.4009 19.5227 34.4009C18.9734 34.4009 18.5305 34.8527 18.5305 35.402C18.5305 36.1816 18.5305 36.9701 18.5305 37.7586C17.8217 37.9003 17.1573 38.175 16.5814 38.5648C16.0233 38.0066 15.4651 37.4574 14.907 36.8992C14.526 36.5094 13.8882 36.5094 13.4983 36.8992C13.1085 37.289 13.1085 37.918 13.4983 38.3079C14.0565 38.866 14.6146 39.4241 15.1728 39.9823C14.7741 40.5581 14.4994 41.2137 14.3577 41.9225C13.5781 41.9225 12.7896 41.9225 12.0011 41.9225C11.4518 41.9225 11 42.3743 11 42.9236C11 43.4729 11.4518 43.9247 12.0011 43.9247C12.7896 43.9247 13.5781 43.9247 14.3577 43.9247C14.4994 44.6334 14.7741 45.289 15.1728 45.8738C14.6146 46.423 14.0565 46.9812 13.4983 47.5393C13.1085 47.9291 13.1085 48.567 13.4983 48.9568C13.8882 49.3466 14.526 49.3466 14.907 48.9568C15.4651 48.3987 16.0233 47.8405 16.5814 47.2824C17.1573 47.6722 17.8217 47.9557 18.5305 48.0886C18.5305 48.8771 18.5305 49.6656 18.5305 50.454C18.5305 51.0033 18.9734 51.4551 19.5227 51.4551C20.072 51.4551 20.5238 51.0033 20.5238 50.454C20.5238 49.6656 20.5238 48.8771 20.5238 48.0886C21.2326 47.9557 21.897 47.6722 22.4729 47.2824C23.031 47.8405 23.5891 48.3987 24.1384 48.9568C24.5282 49.3466 25.1661 49.3466 25.5559 48.9568C25.9457 48.567 25.9457 47.9291 25.5559 47.5393C24.9978 46.9812 24.4396 46.423 23.8815 45.8738C24.2713 45.289 24.5548 44.6334 24.6877 43.9247C25.4762 43.9247 26.2647 43.9247 27.0532 43.9247C27.6024 43.9247 28.0543 43.4729 28.0543 42.9236C28.0543 42.3743 27.6024 41.9225 27.0532 41.9225C26.2647 41.9225 25.4762 41.9225 24.6877 41.9225ZM19.5227 41.7896C20.1517 41.7896 20.6656 42.2946 20.6656 42.9236C20.6656 43.5526 20.1517 44.0664 19.5227 44.0664C18.8937 44.0664 18.3887 43.5526 18.3887 42.9236C18.3887 42.2946 18.8937 41.7896 19.5227 41.7896ZM19.5227 46.1927C17.7243 46.1927 16.2625 44.722 16.2625 42.9236C16.2625 41.1251 17.7243 39.6633 19.5227 39.6633C21.33 39.6633 22.7918 41.1251 22.7918 42.9236C22.7918 44.722 21.33 46.1927 19.5227 46.1927ZM57.1307 54.5471L58.0875 53.5637C58.4684 53.1739 58.4684 52.5448 58.0786 52.155C57.6888 51.7652 57.0509 51.7741 56.67 52.1639C56.351 52.4828 56.0321 52.8106 55.7132 53.1296C55.5891 53.0675 55.4563 53.0144 55.3234 52.9701C55.3234 52.5183 55.3234 52.0664 55.3234 51.6058C55.3234 51.0565 54.8804 50.6135 54.3311 50.6135C53.7818 50.6135 53.33 51.0565 53.33 51.6058C53.33 52.0664 53.33 52.5183 53.33 52.9701C53.1971 53.0144 53.0642 53.0675 52.9402 53.1296C52.6124 52.8106 52.2935 52.4917 51.9745 52.1728C51.5847 51.7829 50.9468 51.7829 50.557 52.1639C50.1495 52.5803 50.1938 53.1561 50.557 53.5814L51.5227 54.5471C51.4607 54.6711 51.4075 54.804 51.3632 54.9369C50.9025 54.9369 50.4507 54.928 49.9989 54.928C49.4496 54.928 48.9978 55.3798 48.9978 55.9291C48.9978 56.4784 49.4496 56.9302 49.9989 56.9302V56.9391H51.3632C51.4075 57.072 51.4607 57.2049 51.5227 57.3289L50.557 58.2946C50.1672 58.6844 50.1672 59.3134 50.557 59.7032C50.9468 60.093 51.5847 60.093 51.9745 59.7032C52.2935 59.3843 52.6124 59.0653 52.9402 58.7375C53.0642 58.8084 53.1971 58.8616 53.33 58.9059C53.33 59.3577 53.33 59.8095 53.33 60.2702C53.33 60.8195 53.7818 61.2625 54.3311 61.2625C54.8804 61.2625 55.3234 60.8195 55.3234 60.2702C55.3234 59.8095 55.3234 59.3577 55.3234 58.9059C55.4563 58.8616 55.5891 58.8084 55.7132 58.7375L56.6788 59.7032C57.1218 60.0576 57.6622 60.1373 58.0963 59.7032C58.4862 59.3134 58.4862 58.6844 58.0963 58.2946L57.1307 57.3289C57.1927 57.2049 57.2458 57.072 57.2901 56.9391C57.7508 56.9391 58.2027 56.9391 58.6545 56.9391C59.2038 56.9391 59.6556 56.4873 59.6556 55.938C59.6556 55.3887 59.2038 54.9369 58.6545 54.9369C58.2027 54.9369 57.7508 54.9369 57.2901 54.9369C57.2458 54.804 57.1927 54.6711 57.1307 54.5471ZM54.3311 57.072C53.7021 57.072 53.1971 56.5581 53.1971 55.938C53.1971 55.309 53.7021 54.804 54.3311 54.804C54.9513 54.804 55.4563 55.309 55.4563 55.938C55.4563 56.5581 54.9513 57.072 54.3311 57.072ZM63.6334 23.5305C63.5005 22.8217 63.2259 22.1573 62.8272 21.5814C63.3854 21.0233 63.9435 20.474 64.5017 19.9158C64.8915 19.526 64.8915 18.8882 64.5017 18.4983C64.1118 18.1085 63.474 18.1085 63.0842 18.4983C62.526 19.0565 61.9767 19.6146 61.4186 20.1728C60.8427 19.7741 60.1783 19.4994 59.4695 19.3666C59.4695 18.5781 59.4695 17.7896 59.4695 17.0011C59.4695 16.4518 59.0177 16 58.4684 16C57.9192 16 57.4762 16.4518 57.4762 17.0011C57.4762 17.7896 57.4762 18.5781 57.4762 19.3666C56.7674 19.4994 56.103 19.7741 55.5271 20.1728C54.969 19.6146 54.4109 19.0565 53.8527 18.4983C53.4629 18.1085 52.8339 18.1085 52.4441 18.4983C52.0543 18.8882 52.0543 19.526 52.4441 19.9158C53.0022 20.474 53.5604 21.0233 54.1096 21.5814C53.7198 22.1573 53.4452 22.8217 53.3034 23.5305C52.5149 23.5305 51.7353 23.5305 50.9468 23.5305C50.3976 23.5305 49.9457 23.9823 49.9457 24.5316C49.9457 25.0808 50.3976 25.5238 50.9468 25.5238C51.7353 25.5238 52.5149 25.5238 53.3034 25.5238C53.4452 26.2326 53.7198 26.897 54.1096 27.4729C53.5604 28.031 53.0022 28.5891 52.4441 29.1473C52.0543 29.5282 52.0543 30.1661 52.4441 30.5559C52.8339 30.9457 53.4629 30.9457 53.8527 30.5559C54.4109 29.9978 54.969 29.4396 55.5271 28.8904C56.103 29.2802 56.7674 29.5548 57.4762 29.6966C57.4762 30.485 57.4762 31.2647 57.4762 32.0532C57.4762 32.6024 57.9192 33.0543 58.4684 33.0543C59.0177 33.0543 59.4695 32.6024 59.4695 32.0532C59.4695 31.2647 59.4695 30.485 59.4695 29.6966C60.1783 29.5548 60.8427 29.2802 61.4186 28.8904C61.9767 29.4396 62.526 29.9978 63.0842 30.5559C63.474 30.9457 64.1118 30.9457 64.5017 30.5559C64.8915 30.1661 64.8915 29.5282 64.5017 29.1473C63.9435 28.5891 63.3854 28.031 62.8272 27.4729C63.2259 26.897 63.5005 26.2326 63.6334 25.5238C64.4219 25.5238 65.2104 25.5238 65.9989 25.5238C66.5482 25.5238 67 25.0808 67 24.5316C67 23.9823 66.5482 23.5305 65.9989 23.5305C65.2104 23.5305 64.4219 23.5305 63.6334 23.5305ZM58.4684 23.3887C59.0975 23.3887 59.6113 23.9025 59.6113 24.5316C59.6113 25.1606 59.0975 25.6656 58.4684 25.6656C57.8394 25.6656 57.3344 25.1606 57.3344 24.5316C57.3344 23.9025 57.8394 23.3887 58.4684 23.3887ZM58.4684 27.7918C56.67 27.7918 55.2082 26.33 55.2082 24.5316C55.2082 22.7243 56.67 21.2625 58.4684 21.2625C60.2757 21.2625 61.7375 22.7243 61.7375 24.5316C61.7375 26.33 60.2757 27.7918 58.4684 27.7918Z" fill="white"/>
</svg>
