<svg width="80" height="80" viewBox="0 0 80 80" fill="none" xmlns="http://www.w3.org/2000/svg">
<path fill-rule="evenodd" clip-rule="evenodd" d="M40 0C62.09 0 80 17.91 80 40C80 62.09 62.09 80 40 80C17.91 80 0 62.09 0 40C0 17.91 17.91 0 40 0Z" fill="#8C52FF" fill-opacity="0.2"/>
<path d="M40.0014 74.5599C59.0884 74.5599 74.5614 59.0869 74.5614 39.9999C74.5614 20.913 59.0884 5.43994 40.0014 5.43994C20.9144 5.43994 5.44141 20.913 5.44141 39.9999C5.44141 59.0869 20.9144 74.5599 40.0014 74.5599Z" fill="#CB6CE6"/>
<path d="M34.8026 16.0391L34.9605 16.0261H34.9868L35.1447 16.013H35.1711H35.3421H35.3684L35.5263 16H35.5526H35.7105H35.7368H49.6842H49.7105H49.7632H49.7895H49.8421H49.8684L49.921 16.013H49.9474H49.9868H50.0921H50.1447C51.6316 16.1043 53.0132 16.6388 54.1184 17.4862C55.3684 18.4379 56.3026 19.7938 56.7105 21.3452L56.7368 21.4234L56.7895 21.4886C57.8289 22.7662 58.6316 24.2263 59.1711 25.7647C59.7237 27.3031 60 28.9327 60 30.5884C60 32.5439 59.8553 33.1306 58.0658 40.1706C57.8816 40.9398 56.9474 44.0947 56.9474 44.6292C56.8947 49.4268 54.7368 55.5803 51.2895 60.1954C48.5395 63.8718 44.9737 66.5574 41.0263 66.7921L40.8553 66.8051H40.8289L40.6579 66.8182H40.6316H40.4605H40.4342H40.2632H40.2368L40.0658 66.8051H40.0395L39.8684 66.7921C35.8816 66.5574 32.3553 63.8979 29.6579 60.2606C26.2105 55.6194 24.0921 49.4008 24.0395 44.6292V44.538L22.9211 40.1315C21.1447 33.1306 21 32.5439 21 30.5884C21 26.56 22.6447 22.9226 25.3158 20.2761C27.7763 17.8382 31.1053 16.2607 34.8026 16.0391ZM39.5263 35.5555C38.4868 35.6467 37.4342 35.8293 36.4342 36.077C35.0921 36.4029 33.7895 36.8722 32.6316 37.4458C32.1447 37.6805 31.5526 37.485 31.3158 37.0026C31.0658 36.5202 31.2632 35.9336 31.75 35.6989C33.0263 35.0601 34.4605 34.5516 35.9605 34.1736C37.1184 33.8867 38.3158 33.6912 39.5263 33.5999V33.1697C39.5263 32.6222 39.9737 32.1919 40.5132 32.1919C41.0526 32.1919 41.5 32.6222 41.5 33.1697V53.9507C41.9868 53.9898 42.4737 54.1723 42.8816 54.4852L43.7105 55.0979C43.9605 55.2804 44.1316 55.5803 44.1579 55.8932C44.1842 56.2061 44.0789 56.519 43.8684 56.7536L43.5526 57.0926C43 57.6923 42.2763 58.1095 41.5 58.292V61.1732C41.5 61.7077 41.0526 62.1509 40.5132 62.1509C39.9737 62.1509 39.5263 61.7077 39.5263 61.1732V58.305C38.7368 58.1225 38 57.6923 37.4342 57.0926L37.1316 56.7536C36.9079 56.519 36.8026 56.2061 36.8289 55.8932C36.8553 55.5803 37.0263 55.2804 37.2763 55.0979L38.1053 54.4852C38.5263 54.1593 39.0263 53.9898 39.5263 53.9507V38.9842C38.2763 39.1015 36.9737 39.3623 35.7368 39.7404C34.2105 40.2097 32.7895 40.8485 31.7105 41.5916C31.2632 41.9045 30.6579 41.7872 30.3421 41.3569C30.0395 40.9137 30.1447 40.3009 30.5921 40.0011C31.8421 39.1276 33.4474 38.3975 35.1579 37.8761C36.5789 37.4458 38.0789 37.146 39.5263 37.0156V35.5555ZM36.6842 50.8088C37.2105 50.7175 37.7237 51.0565 37.8289 51.591C37.921 52.1255 37.5658 52.6339 37.0263 52.7252C36.1711 52.8816 35.2895 53.351 34.5526 54.0289C33.8421 54.6807 33.2763 55.5281 33 56.4668C32.8421 56.9883 32.3026 57.2881 31.7763 57.1317C31.2632 56.9883 30.9605 56.4407 31.1053 55.9323C31.4868 54.6286 32.25 53.4813 33.2105 52.5948C34.2105 51.6822 35.4474 51.0304 36.6842 50.8088ZM46.6184 43.0778C45.3947 43.0778 44.171 43.5341 43.25 44.4597C42.8553 44.8509 42.8553 45.4897 43.25 45.8808C43.6447 46.2719 44.2895 46.2719 44.6842 45.8808C45.75 44.8248 47.4737 44.8248 48.5395 45.8808C48.9342 46.2719 49.5789 46.2719 49.9868 45.8808C50.3816 45.4897 50.3816 44.8509 49.9868 44.4597C49.0526 43.5341 47.8289 43.0778 46.6184 43.0778ZM34.3026 43.0778C33.0789 43.0778 31.8553 43.5341 30.9342 44.4597C30.5395 44.8509 30.5395 45.4897 30.9342 45.8808C31.3289 46.2719 31.9737 46.2719 32.3684 45.8808C33.4342 44.8248 35.1711 44.8248 36.2237 45.8808C36.6184 46.2719 37.2632 46.2719 37.6711 45.8808C38.0658 45.4897 38.0658 44.8509 37.6711 44.4597C36.7368 43.5341 35.5132 43.0778 34.3026 43.0778ZM24.9868 38.8669L25.4211 37.8891C26.6974 34.9688 28.8289 32.4788 31.4868 30.7448C33.8289 29.2195 36.5789 28.2678 39.5395 28.1114H39.6711H39.6974L39.8158 28.0983H39.8421H39.9737H40L40.1316 28.0853H40.1579H40.2763H40.3026H40.4342H40.4605H49.6842H49.7105H49.75H49.7763H49.8158H49.8421H49.8816H49.9079H49.9342H49.9605L50 28.0723C51.2368 27.994 52.3553 27.4725 53.1842 26.6512C54.0789 25.7647 54.6447 24.5262 54.6447 23.1834C54.6447 21.8275 54.0789 20.6021 53.1842 19.7025C52.3684 18.9072 51.2763 18.3727 50.0658 18.2815H50.0263L49.9342 18.2684H49.9079H49.8816H49.8421H49.8158H49.7763H49.75H49.7105H49.6842H35.7368H35.7105H35.5789H35.5526H35.4211H35.3947L35.2632 18.2815H35.2368H35.1053H35.0789L34.9474 18.2945C31.8421 18.4901 29.0263 19.8329 26.9605 21.8797C24.7105 24.109 23.3026 27.1988 23.3026 30.5884C23.3026 31.3445 23.3289 31.853 23.5263 32.8438C23.7105 33.8085 24.0658 35.2296 24.7237 37.837L24.9868 38.8669ZM56.0132 38.893L56.2763 37.863C56.9342 35.2426 57.2895 33.8085 57.4737 32.8438C57.6711 31.853 57.6974 31.3445 57.6974 30.5884C57.6974 29.8583 57.6184 29.1282 57.5 28.4242C57.3684 27.6942 57.1711 26.9902 56.9211 26.3123L56.6184 25.504L56.25 26.2862C55.6711 27.4465 54.7895 28.4503 53.7105 29.1674C52.6711 29.8453 51.4605 30.2625 50.1579 30.3407H50.1184H50.0921H50.0526H50.0263L48.9474 30.4059L49.8553 31.0316C50.1316 31.2272 50.4079 31.4228 50.671 31.6313C50.921 31.8269 51.1842 32.0485 51.4474 32.2832C52.3421 33.0654 53.1316 33.9519 53.8289 34.8906C54.5132 35.8423 55.1053 36.8592 55.5789 37.9152L56.0132 38.893ZM40.9342 64.5237C44.3026 64.302 47.3947 61.7468 49.8026 58.3311C52.7368 54.1202 54.6447 48.5664 54.6447 44.4337L54.6184 43.6123L54.5395 42.791C54.1316 39.2971 52.3816 36.1943 49.8421 33.9519C47.5 31.8921 44.4868 30.5754 41.2632 30.3798L41.1316 30.3668H41.1053H40.9605H40.9342L40.7895 30.3537H40.7632H40.6316H40.6053H40.4605H40.4342H40.2763H40.25H40.1053H40.0789L39.9211 30.3668H39.8947H39.7368C36.1447 30.5623 32.8816 32.0876 30.5 34.4864C27.9342 37.0287 26.3553 40.5486 26.3553 44.4337C26.3553 48.3578 28.2237 54.1202 31.2368 58.4484C33.5526 61.7859 36.5789 64.302 39.9605 64.5237L40.1053 64.5367H40.1316L40.2632 64.5497H40.2895H40.4342H40.4605H40.6053H40.6316L40.7632 64.5367H40.7895L40.9342 64.5237Z" fill="white"/>
</svg>
