<svg width="80" height="80" viewBox="0 0 80 80" fill="none" xmlns="http://www.w3.org/2000/svg">
<path fill-rule="evenodd" clip-rule="evenodd" d="M40 0C62.09 0 80 17.91 80 40C80 62.09 62.09 80 40 80C17.91 80 0 62.09 0 40C0 17.91 17.91 0 40 0Z" fill="#8C52FF" fill-opacity="0.2"/>
<path d="M40.0014 74.5599C59.0884 74.5599 74.5614 59.0869 74.5614 39.9999C74.5614 20.913 59.0884 5.43994 40.0014 5.43994C20.9144 5.43994 5.44141 20.913 5.44141 39.9999C5.44141 59.0869 20.9144 74.5599 40.0014 74.5599Z" fill="#CB6CE6"/>
<path d="M24.6217 49.0832C22.8325 49.0832 21.375 50.5408 21.375 52.33C21.375 54.1192 22.8325 55.5767 24.6217 55.5767C26.4109 55.5767 27.8684 54.1192 27.8684 52.33C27.8684 50.5408 26.4109 49.0832 24.6217 49.0832ZM40.2007 30.1266C41.1259 30.1266 41.5623 28.9308 40.8553 28.3374C40.1396 27.7439 39.0399 28.381 39.197 29.2887C39.2843 29.7687 39.712 30.1266 40.2007 30.1266ZM50.8573 27.7351C51.2588 28.1803 51.9832 28.1803 52.376 27.7351L55.3521 24.3924C55.7274 23.9735 55.6838 23.3364 55.2649 22.9611C54.8459 22.5858 54.2088 22.6207 53.8335 23.0396L52.6378 24.3924V18.0211C52.6378 17.4626 52.184 17 51.6166 17C51.0581 17 50.6042 17.4626 50.6042 18.0211V24.3924L49.4085 23.0396C49.0332 22.6207 48.3874 22.5858 47.9684 22.9611C47.5495 23.3364 47.5146 23.9735 47.8899 24.3924L50.8573 27.7351ZM40.2007 42.0487C40.7593 42.0487 41.2132 41.5861 41.2132 41.0275V36.0789L42.4176 37.4317C42.7842 37.8506 43.43 37.8855 43.8489 37.5102C44.2679 37.1349 44.3028 36.4978 43.9362 36.0789L40.9601 32.7362C40.5586 32.291 39.8342 32.291 39.4414 32.7362L36.4653 36.0789C36.0987 36.4978 36.1336 37.1349 36.5525 37.5102C36.7445 37.6848 36.9889 37.7721 37.2246 37.7721C37.5039 37.7721 37.7831 37.6499 37.9839 37.4317L39.1883 36.0789V41.0275C39.1883 41.5861 39.6422 42.0487 40.2007 42.0487ZM27.816 27.7351C28.2175 28.1803 28.9419 28.1803 29.3347 27.7351L32.3108 24.3924C32.6861 23.9735 32.6425 23.3364 32.2236 22.9611C31.8046 22.5858 31.1675 22.6207 30.7922 23.0396L29.5965 24.3924V18.0211C29.5965 17.4626 29.1339 17 28.5754 17C28.0168 17 27.5629 17.4626 27.5629 18.0211V24.3924L26.3672 23.0396C25.9919 22.6207 25.3461 22.5858 24.9272 22.9611C24.5082 23.3364 24.4733 23.9735 24.8486 24.3924L27.816 27.7351ZM66 43.9862V29.3149C66 28.8261 65.6509 28.4072 65.1709 28.3199C62.2122 27.7526 59.2796 28.2588 56.6962 29.7774C53.5193 31.6277 49.3562 31.6277 46.1007 29.7774C45.7167 29.5592 45.3239 29.3498 44.9137 29.1665C44.3988 28.9396 43.8053 29.1665 43.5697 29.6814C43.3427 30.1964 43.5697 30.7899 44.0846 31.0255C44.425 31.1739 44.7654 31.3484 45.0796 31.5317C45.0883 31.5404 45.0883 31.5404 45.0883 31.5404C48.9634 33.7398 53.9208 33.7398 57.7174 31.5317C59.6636 30.3884 61.767 29.9345 63.9664 30.1876V42.8604C62.3082 42.7905 60.6324 43.2007 59.2011 44.0386C57.1151 45.243 54.5317 45.243 52.4545 44.0386C49.8275 42.4851 46.4585 42.4676 43.7966 43.9601C41.667 45.147 39.0487 45.2779 36.9104 44.0386C34.2135 42.4676 30.7573 42.4676 28.1215 44.0386C26.149 45.1819 23.6093 45.2169 21.5844 44.1521C19.8389 43.2095 18.0322 42.6771 16.0336 42.904V30.1091C18.0759 30.0393 20.1618 30.5455 21.855 31.5317C25.6254 33.7486 30.4867 33.7835 34.3008 31.6452C34.8681 31.3223 35.4616 31.0517 36.0551 30.8335C36.5874 30.6328 36.858 30.048 36.6573 29.5243C36.4653 29.0007 35.8805 28.7301 35.3568 28.9221C34.6586 29.184 33.9604 29.4982 33.3058 29.8734C30.1114 31.6626 26.0181 31.6277 22.8849 29.7774C20.5633 28.4246 17.6482 27.8399 14.899 28.1628C14.384 28.2239 14 28.6603 14 29.1665V44.1172C14 44.1259 14 44.1259 14 44.1259V57.3484C14 58.003 14.6371 58.4918 15.2743 58.3259C17.0111 57.8721 18.809 58.1165 20.3625 59.0154C23.0681 60.5864 26.4371 60.5864 29.1514 59.0067C31.1762 57.811 33.8207 57.811 35.898 59.0154C38.6036 60.5952 41.9725 60.5952 44.6868 59.0154C46.7466 57.811 49.3911 57.811 51.4334 59.0154C54.1128 60.5777 57.5341 60.5777 60.2222 59.0154C61.5401 58.2474 63.2944 57.9419 64.8043 58.2125C65.101 58.2736 65.4065 58.1863 65.6334 57.9943C65.8691 57.8023 66 57.523 66 57.2175V43.995C66 43.9862 66 43.9862 66 43.9862ZM59.2011 57.2612C57.1151 58.4656 54.5317 58.4656 52.4545 57.2612C49.7925 55.6902 46.3276 55.7076 43.6657 57.2612C41.6146 58.4481 38.9614 58.4481 36.9191 57.2612C34.2135 55.6902 30.766 55.6902 28.1215 57.2612C26.0792 58.4481 23.426 58.4481 21.375 57.2612C19.7429 56.3098 17.8839 55.9171 16.0336 56.1266V44.9463C17.7093 44.7106 19.1668 45.1732 20.6244 45.9413C23.2689 47.3552 26.5592 47.3115 29.1427 45.7929C31.1675 44.6146 33.8207 44.6146 35.898 45.7929C38.5948 47.3639 41.9637 47.3202 44.6694 45.8016C46.7378 44.6321 49.3649 44.5797 51.4246 45.7929C54.139 47.3639 57.5079 47.3639 60.2222 45.7929C61.3394 45.1383 62.6747 44.8416 63.9664 44.9027V56.0916C62.3169 56.0305 60.6062 56.4408 59.2011 57.2612ZM41.2568 50.3575C41.091 49.956 40.6808 49.7029 40.2444 49.7291C39.8167 49.764 39.4589 50.0608 39.3454 50.471C39.2232 50.8899 39.3978 51.3525 39.7556 51.5881C40.1047 51.8238 40.5848 51.815 40.9251 51.5619C41.2917 51.2914 41.4314 50.7764 41.2568 50.3575ZM55.8671 49.0832C54.0779 49.0832 52.6203 50.5408 52.6203 52.33C52.6203 54.1192 54.0779 55.5767 55.8671 55.5767C57.6563 55.5767 59.1138 54.1192 59.1138 52.33C59.1138 50.5408 57.6563 49.0832 55.8671 49.0832ZM55.8671 53.5431C55.195 53.5431 54.6539 53.002 54.6539 52.33C54.6539 51.6579 55.195 51.1168 55.8671 51.1168C56.5391 51.1168 57.0802 51.6579 57.0802 52.33C57.0802 53.002 56.5391 53.5431 55.8671 53.5431ZM24.6217 53.5431C23.9496 53.5431 23.4085 53.002 23.4085 52.33C23.4085 51.6579 23.9496 51.1168 24.6217 51.1168C25.2937 51.1168 25.8436 51.6579 25.8436 52.33C25.8436 53.002 25.2937 53.5431 24.6217 53.5431Z" fill="white"/>
</svg>
