<svg width="80" height="80" viewBox="0 0 80 80" fill="none" xmlns="http://www.w3.org/2000/svg">
<path fill-rule="evenodd" clip-rule="evenodd" d="M40 0C62.09 0 80 17.91 80 40C80 62.09 62.09 80 40 80C17.91 80 0 62.09 0 40C0 17.91 17.91 0 40 0Z" fill="#8C52FF" fill-opacity="0.2"/>
<path d="M40.0014 74.5599C59.0884 74.5599 74.5614 59.0869 74.5614 39.9999C74.5614 20.913 59.0884 5.43994 40.0014 5.43994C20.9144 5.43994 5.44141 20.913 5.44141 39.9999C5.44141 59.0869 20.9144 74.5599 40.0014 74.5599Z" fill="#CB6CE6"/>
<path d="M47.8397 19.5827C47.9856 18.8693 47.5255 18.1729 46.812 18.0272C46.0984 17.8815 45.4021 18.3414 45.2564 19.0548C45.0122 20.2495 44.79 21.4836 44.5898 22.7515L36.8622 24.3961C36.6039 22.5463 36.3001 20.7602 35.9516 19.0547C35.8059 18.3414 35.1093 17.8811 34.396 18.027C33.6826 18.1728 33.2224 18.8692 33.3683 19.5826C34.73 26.246 35.2882 33.6423 35.2882 40.5C35.2882 47.3449 34.7331 54.7387 33.3682 61.4174C33.2013 62.2338 33.825 62.9999 34.6612 62.9999C35.2746 62.9999 35.824 62.5696 35.9515 61.9453C36.2184 60.6396 36.4588 59.2862 36.673 57.8937L44.2995 56.2702C44.5676 58.2392 44.887 60.1374 45.2564 61.9453C45.4022 62.659 46.0991 63.1188 46.812 62.973C47.5254 62.8272 47.9856 62.1308 47.8397 61.4175C46.4836 54.7818 45.9197 47.3892 45.9197 40.5001C45.9197 33.685 46.4695 26.2872 47.8397 19.5827ZM37.918 39.1716L43.3071 38.0244C43.2827 39.2991 43.2789 40.3826 43.2872 41.485L37.9075 42.6303C37.9276 41.4036 37.9293 40.2816 37.918 39.1716ZM43.3876 35.3115L37.8624 36.4876C37.8265 35.3354 37.7751 34.1933 37.7085 33.0641L43.5795 31.8141C43.4995 32.9661 43.4354 34.133 43.3876 35.3115ZM37.8339 45.3418L43.3351 44.1707C43.3679 45.3233 43.416 46.4662 43.4794 47.5965L37.6522 48.8368C37.7288 47.6851 37.7895 46.5192 37.8339 45.3418ZM44.194 25.5315C44.046 26.6892 43.9155 27.87 43.803 29.0706L37.5221 30.4078C37.4285 29.2617 37.3188 28.132 37.1933 27.0214L44.194 25.5315ZM37.0589 55.1157C37.2026 53.9581 37.3288 52.7777 37.4373 51.5783L43.6585 50.2541C43.7488 51.4006 43.8551 52.5313 43.9771 53.643L37.0589 55.1157Z" fill="white"/>
<path d="M31.1815 33.4392H31.1752L22.4763 33.4796L23.1629 32.7809C23.6733 32.2615 23.6659 31.4268 23.1465 30.9165C22.6274 30.4062 21.7925 30.4135 21.2821 30.9329C17.9098 34.3649 18.4342 33.8305 18.3657 33.9023C17.8682 34.4224 17.879 35.2486 18.3938 35.7532L21.3499 38.6576C21.8691 39.1679 22.7038 39.1606 23.2142 38.6413C23.7246 38.122 23.7172 37.2873 23.1978 36.777L22.5252 36.1161L31.1873 36.076C31.9154 36.0725 32.5029 35.4795 32.4996 34.7515C32.4963 34.0255 31.9067 33.4392 31.1815 33.4392Z" fill="white"/>
<path d="M31.1812 44.8649H31.175L22.476 44.9053L23.1626 44.2065C23.673 43.6872 23.6656 42.8525 23.1462 42.3422C22.6271 41.8319 21.7922 41.8393 21.2819 42.3585L18.3773 45.3145C17.8665 45.8343 17.8766 46.6719 18.3937 47.1788L21.3498 50.0832C21.869 50.5935 22.7037 50.5862 23.2141 50.0669C23.7245 49.5475 23.7171 48.7128 23.1977 48.2025L22.5252 47.5417L31.1872 47.5015C31.9153 47.4981 32.5028 46.9051 32.4995 46.177C32.496 45.451 31.9065 44.8649 31.1812 44.8649Z" fill="white"/>
<path d="M62.6058 45.2515L59.6497 42.347C59.1305 41.8366 58.2958 41.844 57.7854 42.3633C57.275 42.8827 57.2824 43.7174 57.8018 44.2277L58.4743 44.8885L49.8123 44.9287C49.0842 44.9321 48.4967 45.5251 48.5 46.2532C48.5033 46.9793 49.0929 47.5654 49.8183 47.5654H49.8244L58.5235 47.5251L57.8369 48.2238C57.3265 48.7431 57.3339 49.5778 57.8533 50.0881C58.3725 50.5984 59.2072 50.5911 59.7176 50.0718C60.1233 49.6589 62.5903 47.1482 62.6221 47.1158C63.1322 46.5961 63.125 45.7636 62.6058 45.2515Z" fill="white"/>
<path d="M49.8183 36.1398H49.8244L58.5235 36.0994L57.8369 36.7982C57.3265 37.3175 57.3339 38.1522 57.8533 38.6625C58.3725 39.1728 59.2072 39.1655 59.7176 38.6461C60.1233 38.2332 62.5903 35.7226 62.6221 35.6902C63.1362 35.1666 63.1198 34.3305 62.6058 33.8259L59.6497 30.9214C59.1305 30.4111 58.2958 30.4184 57.7854 30.9377C57.275 31.4571 57.2824 32.2918 57.8018 32.802L58.4743 33.4629L49.8123 33.5031C49.0842 33.5065 48.4967 34.0995 48.5 34.8276C48.5033 35.5536 49.0929 36.1398 49.8183 36.1398Z" fill="white"/>
</svg>
