<svg width="80" height="80" viewBox="0 0 80 80" fill="none" xmlns="http://www.w3.org/2000/svg">
<path fill-rule="evenodd" clip-rule="evenodd" d="M40 0C62.09 0 80 17.91 80 40C80 62.09 62.09 80 40 80C17.91 80 0 62.09 0 40C0 17.91 17.91 0 40 0Z" fill="#8C52FF" fill-opacity="0.2"/>
<path d="M40.0014 74.5599C59.0884 74.5599 74.5614 59.0869 74.5614 39.9999C74.5614 20.913 59.0884 5.43994 40.0014 5.43994C20.9144 5.43994 5.44141 20.913 5.44141 39.9999C5.44141 59.0869 20.9144 74.5599 40.0014 74.5599Z" fill="#CB6CE6"/>
<path d="M56.7799 22.1781C52.1583 18.1941 46.0217 16 39.5 16C32.9783 16 26.8417 18.1941 22.2201 22.1781C17.5641 26.1918 15 31.5385 15 37.2333C15 43.4959 18.1556 49.3888 23.6633 53.4351C23.964 54.0594 24.2944 54.6739 24.6546 55.2784L22.8014 56.205C22.6658 56.2728 22.5517 56.3771 22.472 56.5061C22.3923 56.6351 22.3501 56.7838 22.3501 56.9354C22.3501 57.0871 22.3923 57.2357 22.472 57.3647C22.5517 57.4937 22.6658 57.598 22.8014 57.6658L25.0941 58.8122C25.5676 59.0502 25.9519 59.4344 26.1899 59.9079L27.3363 62.2007C27.4041 62.3363 27.5084 62.4504 27.6374 62.5301C27.7664 62.6098 27.915 62.652 28.0667 62.652C28.2183 62.652 28.367 62.6098 28.496 62.5301C28.625 62.4504 28.7292 62.3363 28.7971 62.2007L29.4211 60.9526C32.5073 63.5699 36.0496 65 39.5 65H50.9333C51.0556 65 51.1763 64.9725 51.2865 64.9197C51.3968 64.8668 51.4937 64.7898 51.5702 64.6945L58.7536 55.7441C59.5018 54.9829 59.9196 53.9575 59.9167 52.8902V48.9761C62.5884 45.4934 64 41.4392 64 37.2333C64 31.5385 61.4359 26.1918 56.7799 22.1781ZM16.6333 37.2333C16.6333 26.4259 26.8913 17.6333 39.5 17.6333C42.2616 17.6284 45.0065 18.0612 47.6327 18.9155C47.4217 20.4687 46.2436 22.8415 44.5679 25.0344C42.7241 27.446 40.6875 29.0667 39.5 29.0667C34.5462 29.0667 30.0578 30.4794 26.8621 33.0445C23.3759 35.8426 21.5333 39.8326 21.5333 44.5833C21.5458 46.5083 21.8437 48.4208 22.4172 50.2585C18.7104 46.6907 16.6333 42.0769 16.6333 37.2333ZM54.3889 41.4348C54.0719 41.7465 53.8198 42.118 53.6472 42.5277C53.4747 42.9375 53.385 43.3773 53.3833 43.8219V51.6531L51.938 53.511C51.7323 53.0149 51.4074 52.5772 50.9922 52.2366C50.5769 51.896 50.0841 51.663 49.5573 51.5584C49.0305 51.4537 48.4861 51.4805 47.9721 51.6364C47.4582 51.7923 46.9906 52.0726 46.6108 52.4523C46.5757 52.4873 46.5439 52.5255 46.5159 52.5664L39.0774 63.3575C36.0516 63.241 32.9422 61.8802 30.2174 59.4826C30.4394 59.2021 30.7199 58.9734 31.0392 58.8122L33.3319 57.6658C33.4676 57.598 33.5816 57.4937 33.6613 57.3647C33.7411 57.2357 33.7833 57.0871 33.7833 56.9354C33.7833 56.7838 33.7411 56.6351 33.6613 56.5061C33.5816 56.3771 33.4676 56.2728 33.3319 56.205L31.0392 55.0586C30.5657 54.8207 30.1815 54.4365 29.9435 53.963L28.7971 51.6702C28.7292 51.5345 28.625 51.4205 28.496 51.3407C28.367 51.261 28.2183 51.2188 28.0667 51.2188C27.915 51.2188 27.7664 51.261 27.6374 51.3407C27.5084 51.4205 27.4041 51.5345 27.3363 51.6702L26.1899 53.9629C26.1292 54.0838 26.0586 54.1994 25.9787 54.3085C24.1603 51.2133 23.1667 47.7943 23.1667 44.5833C23.1667 40.3451 24.798 36.7955 27.8843 34.3183C30.7913 31.985 34.9165 30.7 39.5 30.7C43.5444 30.7 47.1744 31.6715 49.9973 33.5094C52.6989 35.2684 54.5374 37.7708 55.3497 40.7778C54.9928 40.9378 54.6675 41.1603 54.3889 41.4348ZM28.0667 60.0093L27.6508 59.1774C27.2541 58.3882 26.6138 57.7479 25.8246 57.3513L24.9928 56.9354L25.8246 56.5195C26.6138 56.1229 27.2542 55.4825 27.6508 54.6934L28.0667 53.8616L28.4826 54.6935C28.8792 55.4826 29.5196 56.1229 30.3087 56.5195L31.1405 56.9354L30.3087 57.3513C29.5195 57.7479 28.8792 58.3883 28.4826 59.1775L28.0667 60.0093ZM58.2833 52.8902C58.2842 53.212 58.2213 53.5309 58.0981 53.8282C57.9749 54.1256 57.794 54.3956 57.5658 54.6225C57.5447 54.6435 57.5249 54.6657 57.5063 54.6889L50.5416 63.3667H41.0548L47.8141 53.5613C48.1282 53.2704 48.544 53.1146 48.9719 53.1272C49.3998 53.1398 49.8056 53.3199 50.102 53.6287C50.3985 53.9376 50.5618 54.3504 50.5569 54.7785C50.552 55.2066 50.3793 55.6156 50.0758 55.9175C50.0456 55.9478 50.0178 55.9804 49.9926 56.015L47.8229 59.0015C47.7005 59.1769 47.6518 59.3934 47.6874 59.6043C47.7229 59.8152 47.8397 60.0038 48.0128 60.1295C48.1859 60.2552 48.4014 60.3079 48.6129 60.2765C48.8245 60.245 49.0153 60.1317 49.1442 59.9611L51.2789 57.023C51.439 56.8559 51.5808 56.6722 51.702 56.475L54.8448 52.4343C54.9562 52.2915 55.0168 52.1145 55.0167 51.9333V43.8219C55.0178 43.5943 55.0639 43.3693 55.1525 43.1597C55.2411 42.9501 55.3703 42.7601 55.5327 42.6007C55.6833 42.4499 55.8625 42.3308 56.0599 42.2506C56.2573 42.1703 56.4688 42.1304 56.6819 42.1333C57.1088 42.1437 57.515 42.3201 57.814 42.625C58.1131 42.93 58.2814 43.3396 58.2833 43.7667V52.8902ZM56.9703 40.5167C56.0767 37.0429 53.9846 34.157 50.8886 32.1407C48.5909 30.6448 45.8231 29.6739 42.7608 29.2744C44.1041 28.2154 45.257 26.8219 45.8654 26.0257C47.896 23.3693 48.8778 21.061 49.1874 19.4822C56.9665 22.6134 62.3667 29.3924 62.3667 37.2333C62.3597 40.3442 61.5133 43.3955 59.9167 46.0654V43.7667C59.9125 42.9571 59.6094 42.1775 59.0656 41.5777C58.5218 40.9779 57.7757 40.6001 56.9703 40.5167Z" fill="white"/>
<path d="M33.7829 44.5833C33.9995 44.5833 34.2072 44.4973 34.3603 44.3442C34.5135 44.191 34.5995 43.9833 34.5995 43.7667C34.5995 43.1169 34.3414 42.4937 33.882 42.0343C33.4225 41.5748 32.7993 41.3167 32.1495 41.3167C31.4998 41.3167 30.8766 41.5748 30.4171 42.0343C29.9577 42.4937 29.6995 43.1169 29.6995 43.7667C29.6995 43.9833 29.7856 44.191 29.9387 44.3442C30.0919 44.4973 30.2996 44.5833 30.5162 44.5833C30.7328 44.5833 30.9405 44.4973 31.0937 44.3442C31.2468 44.191 31.3329 43.9833 31.3329 43.7667C31.3329 43.5501 31.4189 43.3424 31.5721 43.1892C31.7252 43.0361 31.933 42.95 32.1495 42.95C32.3661 42.95 32.5739 43.0361 32.727 43.1892C32.8802 43.3424 32.9662 43.5501 32.9662 43.7667C32.9662 43.9833 33.0523 44.191 33.2054 44.3442C33.3586 44.4973 33.5663 44.5833 33.7829 44.5833Z" fill="white"/>
<path d="M46.8502 41.3167C46.2007 41.3174 45.5779 41.5758 45.1186 42.0351C44.6593 42.4944 44.401 43.1171 44.4002 43.7667C44.4002 43.9833 44.4863 44.191 44.6394 44.3442C44.7926 44.4973 45.0003 44.5833 45.2169 44.5833C45.4335 44.5833 45.6412 44.4973 45.7944 44.3442C45.9475 44.191 46.0336 43.9833 46.0336 43.7667C46.0336 43.5501 46.1196 43.3424 46.2728 43.1892C46.4259 43.0361 46.6336 42.95 46.8502 42.95C47.0668 42.95 47.2745 43.0361 47.4277 43.1892C47.5809 43.3424 47.6669 43.5501 47.6669 43.7667C47.6669 43.9833 47.7529 44.191 47.9061 44.3442C48.0592 44.4973 48.267 44.5833 48.4836 44.5833C48.7002 44.5833 48.9079 44.4973 49.061 44.3442C49.2142 44.191 49.3002 43.9833 49.3002 43.7667C49.2995 43.1171 49.0411 42.4944 48.5818 42.0351C48.1225 41.5758 47.4998 41.3174 46.8502 41.3167Z" fill="white"/>
<path d="M45.5433 49.5518C45.3449 49.465 45.1201 49.4605 44.9184 49.5394C44.7167 49.6184 44.5546 49.7742 44.4678 49.9726C44.4556 50.0004 43.2098 52.75 39.4993 52.75C35.8379 52.75 34.586 50.0941 34.5292 49.9689C34.441 49.772 34.2785 49.618 34.0772 49.5405C33.8758 49.463 33.652 49.4683 33.4546 49.5553C33.2571 49.6423 33.1021 49.8038 33.0234 50.0047C32.9447 50.2055 32.9487 50.4294 33.0345 50.6273C33.1015 50.7807 34.7325 54.3833 39.4993 54.3833C44.2661 54.3833 45.8971 50.7807 45.9641 50.6273C46.051 50.4289 46.0554 50.2041 45.9765 50.0024C45.8976 49.8007 45.7418 49.6386 45.5433 49.5518Z" fill="white"/>
<path d="M37.8671 47.85H41.1338C41.3504 47.85 41.5581 47.764 41.7113 47.6108C41.8644 47.4577 41.9505 47.2499 41.9505 47.0333C41.9505 46.8167 41.8644 46.609 41.7113 46.4559C41.5581 46.3027 41.3504 46.2167 41.1338 46.2167H38.6838V43.7667C38.6838 43.5501 38.5977 43.3424 38.4446 43.1892C38.2914 43.036 38.0837 42.95 37.8671 42.95C37.6505 42.95 37.4428 43.036 37.2897 43.1892C37.1365 43.3424 37.0505 43.5501 37.0505 43.7667V47.0333C37.0505 47.2499 37.1365 47.4577 37.2897 47.6108C37.4428 47.764 37.6505 47.85 37.8671 47.85Z" fill="white"/>
</svg>
