<svg width="80" height="80" viewBox="0 0 80 80" fill="none" xmlns="http://www.w3.org/2000/svg">
<path fill-rule="evenodd" clip-rule="evenodd" d="M40 0C62.09 0 80 17.91 80 40C80 62.09 62.09 80 40 80C17.91 80 0 62.09 0 40C0 17.91 17.91 0 40 0Z" fill="#8C52FF" fill-opacity="0.2"/>
<path d="M40.0014 74.5599C59.0884 74.5599 74.5614 59.0869 74.5614 39.9999C74.5614 20.913 59.0884 5.43994 40.0014 5.43994C20.9144 5.43994 5.44141 20.913 5.44141 39.9999C5.44141 59.0869 20.9144 74.5599 40.0014 74.5599Z" fill="#CB6CE6"/>
<path d="M60.0887 33.8425V35.4896C61.9566 35.5745 63.6462 36.3642 64.8858 37.6123C66.1934 38.9198 67 40.7198 67 42.7066C67 44.7019 66.1849 46.5104 64.8774 47.8179C63.5783 49.1255 61.7868 49.9321 59.8085 49.9406L59.7745 50.1443C59.834 50.4075 59.8764 50.6792 59.9104 50.9594C59.9443 51.2481 59.9613 51.5453 59.9613 51.834C59.9613 53.2689 59.5708 54.6189 58.8915 55.7821C58.2038 56.9708 57.2104 57.9557 56.0217 58.6434C54.5443 60.5877 52.7443 62.2094 50.7236 63.4745C48.6858 64.7396 46.4104 65.6396 44.016 66.0981C43.3962 66.217 42.7764 66.3019 42.1396 66.3613C41.5028 66.4292 40.8745 66.4547 40.2462 66.4547C38.65 66.4547 37.0877 66.2679 35.5679 65.9028C34.0566 65.5377 32.5877 64.9943 31.1698 64.2642C30.9066 64.1283 30.7198 63.8906 30.6349 63.6274C30.55 63.3642 30.567 63.067 30.7028 62.8038C30.8387 62.5321 31.0764 62.3538 31.3396 62.2689C31.6028 62.184 31.9 62.2009 32.1632 62.3368C33.4283 62.9821 34.7358 63.466 36.0774 63.7972C37.4274 64.1198 38.8198 64.2811 40.2462 64.2811C40.8151 64.2811 41.384 64.2557 41.9358 64.2047C42.4962 64.1538 43.0481 64.0689 43.6 63.967C45.3321 63.6358 46.9792 63.05 48.5075 62.2434C49.8066 61.5557 51.0208 60.6981 52.1245 59.7047H52.0906C51.7934 59.7047 51.5217 59.5774 51.3264 59.3821C51.1311 59.1868 51.0038 58.9151 51.0038 58.6179C51.0038 58.3208 51.1311 58.0491 51.3264 57.8453C51.5217 57.65 51.7934 57.5311 52.0906 57.5311C53.6613 57.5311 55.0877 56.8943 56.1151 55.8585C57.1509 54.8311 57.7877 53.4047 57.7877 51.834C57.7877 50.2632 57.1509 48.8453 56.1151 47.8094C55.0877 46.7821 53.6613 46.1368 52.0906 46.1368C51.7934 46.1368 51.5217 46.0179 51.3264 45.8226C51.1311 45.6274 51.0038 45.3557 51.0038 45.0585C51.0038 44.7528 51.1311 44.4811 51.3264 44.2858C51.5217 44.0906 51.7934 43.9717 52.0906 43.9717C53.3642 43.9717 54.5698 44.2774 55.6311 44.8123C56.4972 45.2453 57.2613 45.8396 57.9066 46.5443C57.9151 44.4726 57.9151 38.9962 57.9151 37.6887C53.1858 37.6123 49.1443 37.1283 45.7566 36.4321C41.2057 35.4981 37.8009 34.1991 35.4066 33.0189C34.2179 32.433 33.2075 31.8472 32.3585 31.3038C31.45 30.7179 30.7198 30.166 30.1594 29.6991C29.9641 30.3104 29.7009 30.9217 29.3698 31.5245C28.9623 32.2632 28.4358 32.9934 27.816 33.6811C27.0774 34.5217 26.2283 35.2604 25.3113 35.8972C24.4453 36.4915 23.5283 36.9925 22.5774 37.366V46.5528C23.2226 45.8481 23.9953 45.2538 24.8613 44.8123C25.9226 44.2774 27.1283 43.9717 28.4019 43.9717C28.6991 43.9717 28.9708 44.0906 29.166 44.2858C29.3613 44.4811 29.4887 44.7528 29.4887 45.0585C29.4887 45.3557 29.3613 45.6274 29.166 45.8226C28.9708 46.0179 28.6991 46.1368 28.4019 46.1368C26.8311 46.1368 25.4047 46.7821 24.3774 47.8094C23.3415 48.8453 22.7047 50.2632 22.7047 51.834C22.7047 53.4047 23.3415 54.8311 24.3774 55.8585C25.4047 56.8943 26.8311 57.5311 28.4019 57.5311C28.6991 57.5311 28.9708 57.65 29.166 57.8453V57.8538C29.3613 58.0491 29.4887 58.3208 29.4887 58.6179C29.4887 58.9151 29.3613 59.1868 29.166 59.3821C28.9708 59.5774 28.6991 59.7047 28.4019 59.7047H28.3764C28.4698 59.7896 28.5632 59.8745 28.6566 59.9509C28.9453 60.2057 29.2425 60.4434 29.5396 60.6726L29.5566 60.6811C29.7943 60.8679 29.9302 61.1226 29.9726 61.4028C30.0066 61.666 29.9387 61.9547 29.7689 62.1925L29.7604 62.2009C29.65 62.3368 29.5226 62.4472 29.3783 62.5151C29.2255 62.5915 29.0557 62.634 28.8943 62.634C28.7755 62.634 28.6651 62.6085 28.5462 62.5745C28.4358 62.5406 28.334 62.4811 28.2406 62.4132C27.5189 61.8613 26.8481 61.2755 26.2113 60.6387C25.5915 60.0104 25.0142 59.3481 24.4708 58.6434C23.2821 57.9557 22.2887 56.9708 21.6009 55.7821C20.9217 54.6274 20.5311 53.2774 20.5311 51.834C20.5311 51.5453 20.5481 51.2481 20.5821 50.9594C20.616 50.6792 20.6585 50.4075 20.7179 50.1443L20.684 49.9236L20.5906 49.9321C20.4632 49.9406 20.3443 49.9406 20.234 49.9406C18.2387 49.9406 16.4302 49.134 15.1226 47.8179C13.8151 46.5104 13 44.7019 13 42.7066C13 40.7113 13.8151 38.9113 15.1226 37.5953C16.4302 36.2877 18.2387 35.4811 20.234 35.4811C20.2764 35.4811 20.3358 35.4811 20.4038 35.4811V33.8425C20.4038 28.3745 22.6283 23.4075 26.2198 19.816C29.8113 16.2245 34.7783 14 40.2462 14C40.8745 14 41.5028 14.0255 42.1396 14.0849C42.7764 14.1528 43.4047 14.2377 44.016 14.3566C45.884 14.7132 47.684 15.3415 49.3566 16.2075C51.0292 17.0736 52.583 18.1774 53.967 19.5104C54.1792 19.7142 54.2896 19.9943 54.2981 20.266C54.3066 20.5462 54.2047 20.8264 54.0009 21.0387L53.9925 21.0472C53.7887 21.2594 53.517 21.3698 53.2368 21.3783C52.9651 21.3783 52.6849 21.2764 52.4641 21.0726C51.233 19.8925 49.8491 18.9075 48.3632 18.1349C46.8689 17.3623 45.2726 16.8104 43.6 16.4877C43.0481 16.3858 42.4962 16.3009 41.9358 16.25C41.384 16.1991 40.8151 16.1736 40.2462 16.1736C35.3726 16.1736 30.9575 18.1519 27.7566 21.3528C24.5557 24.5538 22.5774 28.9689 22.5774 33.8425V34.9972C23.1887 34.6915 23.7745 34.3264 24.3349 33.9189C25.0142 33.4264 25.6509 32.8575 26.2028 32.2377C26.8906 31.4651 27.4255 30.6585 27.7906 29.8519C28.1472 29.0538 28.334 28.2557 28.334 27.5C28.334 27.2708 28.4019 27.0585 28.5292 26.8717C28.6566 26.6934 28.8349 26.5575 29.0557 26.4811C29.2679 26.4047 29.4972 26.3962 29.7094 26.4557C29.9217 26.5151 30.117 26.6425 30.2613 26.8208C30.6094 27.2453 31.4755 28.0604 32.8509 29.0198C33.8104 29.6821 35.0245 30.4208 36.4764 31.1255C38.7434 32.2292 41.9783 33.4604 46.3 34.3349C49.5434 34.9887 53.3896 35.4472 57.9151 35.5151V33.8425C57.9151 31.8981 57.6094 30.0047 57.0066 28.2132C56.4038 26.4217 55.5123 24.7321 54.3406 23.1868C54.1623 22.9491 54.0943 22.6519 54.1368 22.3802C54.1708 22.1085 54.3066 21.8623 54.5358 21.6755L54.5528 21.667C54.7906 21.4802 55.0792 21.4123 55.3594 21.4547C55.6226 21.4887 55.8774 21.6245 56.0557 21.8538L56.0726 21.8708C57.3887 23.6028 58.3906 25.5132 59.0613 27.5255C59.7406 29.5377 60.0887 31.6604 60.0887 33.8425ZM35.3557 51.5368H45.1368C45.4425 51.5368 45.7141 51.6557 45.9094 51.8509C46.1047 52.0462 46.2236 52.3179 46.2236 52.6236C46.2236 52.9208 46.1047 53.1925 45.9094 53.3877C45.7057 53.583 45.434 53.7104 45.1368 53.7104H35.3557C35.0585 53.7104 34.7783 53.583 34.583 53.3877C34.3877 53.1925 34.2689 52.9208 34.2689 52.6236C34.2689 52.3179 34.3877 52.0462 34.583 51.8509C34.7783 51.6557 35.0585 51.5368 35.3557 51.5368ZM50.1972 42.766H46.6396C46.3425 42.766 46.0708 42.6472 45.8755 42.4519C45.6802 42.2566 45.5528 41.9849 45.5528 41.6792C45.5528 41.3821 45.6802 41.1104 45.8755 40.9151C46.0708 40.7198 46.3425 40.6009 46.6396 40.6009H50.1972C50.4943 40.6009 50.766 40.7198 50.9613 40.9151C51.1566 41.1104 51.284 41.3821 51.284 41.6792C51.284 41.9849 51.1566 42.2566 50.9613 42.4519C50.766 42.6472 50.4943 42.766 50.1972 42.766ZM34.617 40.9151C34.8123 41.1104 34.9396 41.3821 34.9396 41.6792C34.9396 41.9849 34.8123 42.2566 34.617 42.4519C34.4217 42.6472 34.15 42.766 33.8528 42.766H30.2953C29.9981 42.766 29.7264 42.6472 29.5311 42.4519C29.3358 42.2566 29.2085 41.9849 29.2085 41.6792C29.2085 41.3821 29.3358 41.1104 29.5311 40.9151C29.7264 40.7198 29.9981 40.6009 30.2953 40.6009H33.8528C34.15 40.6009 34.4217 40.7198 34.617 40.9151ZM16.6594 46.2811C17.5764 47.1981 18.8415 47.767 20.234 47.767C20.3104 47.767 20.3783 47.767 20.4377 47.767C20.4292 47.6226 20.4208 47.4783 20.4208 47.334C20.4123 47.0792 20.4038 46.833 20.4038 46.6123V42.4434C20.183 42.4519 19.9368 42.4858 19.7075 42.5708C19.3934 42.6896 19.1047 42.9189 18.9264 43.3264C18.8415 43.5302 18.6972 43.6915 18.5274 43.8019C18.3491 43.9208 18.1453 43.9802 17.933 43.9802C17.8651 43.9802 17.7887 43.9717 17.7123 43.9547C17.6443 43.9377 17.5764 43.9208 17.5 43.8868C17.2283 43.7679 17.0245 43.5472 16.9226 43.2925C16.8208 43.0292 16.8208 42.7321 16.9396 42.4604C17.2877 41.6623 17.8057 41.1358 18.4 40.7962C19.0368 40.4311 19.7585 40.2953 20.4038 40.2868V37.6547C20.3528 37.6547 20.3019 37.6547 20.234 37.6547C18.8415 37.6547 17.5764 38.2151 16.6594 39.1321C15.7425 40.0491 15.1736 41.3141 15.1736 42.7066C15.1736 44.1075 15.7425 45.3726 16.6594 46.2811ZM60.0717 47.3425C60.0717 47.4868 60.0632 47.6226 60.0547 47.7585C61.3368 47.6906 62.4915 47.1387 63.3406 46.2896C64.2575 45.3726 64.8264 44.1075 64.8264 42.7066C64.8264 41.3226 64.266 40.0575 63.3491 39.1406C62.5085 38.2915 61.3623 37.7396 60.0887 37.6632V40.2868C60.734 40.2953 61.4557 40.4311 62.0925 40.7962C62.6868 41.1358 63.2047 41.6623 63.5528 42.4604C63.6717 42.7321 63.6717 43.0292 63.5698 43.2925C63.4679 43.5472 63.2642 43.7679 62.9925 43.8868C62.9245 43.9208 62.8481 43.9377 62.7802 43.9547C62.7038 43.9717 62.6274 43.9802 62.5594 43.9802C62.3472 43.9802 62.1434 43.9208 61.9651 43.8019C61.7953 43.6915 61.6509 43.5302 61.566 43.3264C61.3877 42.9189 61.0991 42.6896 60.7849 42.5708C60.5557 42.4858 60.3094 42.4519 60.0887 42.4434V46.6123C60.0887 46.8415 60.0802 47.0877 60.0717 47.3425Z" fill="white"/>
</svg>
