<svg width="80" height="80" viewBox="0 0 80 80" fill="none" xmlns="http://www.w3.org/2000/svg">
<path fill-rule="evenodd" clip-rule="evenodd" d="M40 0C62.09 0 80 17.91 80 40C80 62.09 62.09 80 40 80C17.91 80 0 62.09 0 40C0 17.91 17.91 0 40 0Z" fill="#8C52FF" fill-opacity="0.2"/>
<path d="M40.0014 74.5599C59.0884 74.5599 74.5614 59.0869 74.5614 39.9999C74.5614 20.913 59.0884 5.43994 40.0014 5.43994C20.9144 5.43994 5.44141 20.913 5.44141 39.9999C5.44141 59.0869 20.9144 74.5599 40.0014 74.5599Z" fill="#CB6CE6"/>
<path d="M15.9279 57.5164H64.0718C64.3298 57.5164 64.5637 57.6212 64.7249 57.7825C64.8942 57.9518 64.9991 58.1856 64.9991 58.4356C64.9991 58.6936 64.8942 58.9274 64.7249 59.0887C64.5637 59.258 64.3298 59.3628 64.0718 59.3628H15.9279C15.6698 59.3628 15.436 59.258 15.2748 59.0887C15.1054 58.9274 15.0006 58.6936 15.0006 58.4356C15.0006 58.1856 15.1054 57.9518 15.2748 57.7825C15.436 57.6212 15.6698 57.5164 15.9279 57.5164ZM39.0928 28.9171L37.3754 26.0547C37.2463 25.8289 37.2222 25.579 37.2786 25.3532C37.335 25.1194 37.4802 24.9178 37.6979 24.7888C37.9156 24.6518 38.1736 24.6276 38.3993 24.684C38.6251 24.7404 38.8347 24.8856 38.9638 25.1033L40.1248 27.0465L41.2456 25.6274C41.4068 25.4258 41.6326 25.3049 41.8664 25.2807C42.1002 25.2565 42.3421 25.3129 42.5437 25.4742C42.7453 25.6354 42.8582 25.8612 42.8904 26.095C42.9146 26.3289 42.8501 26.5707 42.6969 26.7723L40.9392 28.9896V35.2949C40.9392 35.4723 40.9795 35.6416 41.0521 35.7948C41.1246 35.948 41.2375 36.085 41.3746 36.1899L43.3903 37.7621C43.5919 37.9234 43.7128 38.1492 43.7451 38.383C43.7693 38.6168 43.7128 38.8587 43.5516 39.0603C43.4629 39.1732 43.35 39.2618 43.2291 39.3264C43.1001 39.3828 42.963 39.415 42.8259 39.415C42.7211 39.415 42.6243 39.3989 42.5276 39.3667C42.4308 39.3344 42.3421 39.286 42.2534 39.2215L40.2377 37.6493C39.8749 37.359 39.5846 37.0042 39.3911 36.6011C39.1976 36.206 39.0928 35.7545 39.0928 35.2949V28.9171ZM48.2281 35.2142C48.1152 35.2626 47.9943 35.2868 47.8733 35.2868C47.7524 35.2868 47.6314 35.2626 47.5186 35.2142C47.4057 35.1659 47.3089 35.1014 47.2202 35.0127C47.0348 34.8353 46.9461 34.5934 46.9461 34.3596C46.9461 34.1257 47.0348 33.8839 47.2202 33.7065L48.9538 31.9729L48.2604 28.5542C48.1717 28.1269 48.1797 27.6996 48.2765 27.2883C48.3652 26.8771 48.5506 26.4901 48.8086 26.1434L51.2033 23.015C51.3646 22.8134 51.5823 22.6925 51.8161 22.6602C52.0499 22.628 52.2999 22.6844 52.5015 22.8376C52.703 22.9988 52.824 23.2165 52.8562 23.4504C52.8885 23.6842 52.8321 23.9342 52.6789 24.1357C52.4692 24.5711 50.7034 26.7078 50.2761 27.2642C50.1793 27.3932 50.1068 27.5464 50.0745 27.6996C50.0342 27.8608 50.0342 28.0221 50.0665 28.1833L50.8083 31.8278L52.6063 33.7226C52.7837 33.908 52.8724 34.1499 52.8643 34.3838C52.8562 34.6176 52.7595 34.8514 52.574 35.0288C52.4934 35.1094 52.3886 35.1739 52.2838 35.2142C52.1709 35.2626 52.058 35.2868 51.9371 35.2868C51.8161 35.2868 51.6952 35.2546 51.5742 35.2062C51.4613 35.1578 51.3565 35.0933 51.2678 34.9965L49.9375 33.5936L48.5264 35.0127C48.4377 35.1014 48.3329 35.1659 48.2281 35.2142ZM58.5971 49.2519L64.2492 50.6306C64.4992 50.679 64.7088 50.8241 64.8378 51.0177C64.9749 51.2112 65.0313 51.4611 64.9829 51.7111C64.9346 51.961 64.7894 52.1707 64.5959 52.2997C64.4024 52.4367 64.1525 52.4932 63.9025 52.4448C62.7576 52.4448 59.734 51.3482 58.2584 51.066C57.6053 50.9451 56.9522 50.8886 56.3072 50.9048C55.6541 50.9209 55.0091 51.0015 54.364 51.1547L47.2928 52.8238C46.8735 52.9205 46.4462 53.0011 46.0189 53.0495C45.5915 53.0979 45.1561 53.1221 44.7207 53.1221C44.2773 53.1221 43.8338 53.0979 43.3984 53.0495C42.963 52.9931 42.5276 52.9205 42.1002 52.8157L35.6096 51.2515C35.4806 51.2192 35.3515 51.195 35.2145 51.1628C35.0855 51.1386 34.9484 51.1144 34.8194 51.0983C34.5694 51.058 34.3517 50.9209 34.2147 50.7274C34.0695 50.5419 34.005 50.292 34.0453 50.042C34.0776 49.7921 34.2147 49.5824 34.4082 49.4373C34.6017 49.3002 34.8436 49.2277 35.0935 49.268C35.2548 49.2922 35.408 49.3164 35.5692 49.3486C35.7224 49.3809 35.8837 49.4131 36.0369 49.4534L42.5276 51.0177C43.2371 51.187 43.9709 51.2757 44.6965 51.2757C45.4303 51.2757 46.164 51.195 46.8735 51.0257L53.9367 49.3567C54.7027 49.1712 55.4848 49.0745 56.2588 49.0583C57.0409 49.0422 57.823 49.1067 58.5971 49.2519ZM15.4763 48.9455C15.686 48.8245 15.9359 48.7923 16.1778 48.8648L20.3061 50.8241C20.5076 50.8806 20.7173 50.937 20.9269 50.9773C21.072 51.0096 21.2172 51.0338 21.3542 51.058C21.2252 50.6548 21.201 50.2678 21.2736 49.905C21.3542 49.4292 21.5881 49.0019 21.9106 48.6552L28.3045 42.2613C28.6593 41.8904 29.1431 41.6807 29.6349 41.6162C30.1348 41.5437 30.6508 41.6243 31.0379 41.8339L34.6662 38.1975C34.5211 37.9798 34.384 37.7541 34.2469 37.5283C34.1179 37.2945 33.9889 37.0526 33.868 36.8188H15.9279C15.6698 36.8188 15.436 36.714 15.2748 36.5446C15.1054 36.3753 15.0006 36.1495 15.0006 35.8915C15.0006 35.6416 15.1054 35.4078 15.2748 35.2384C15.436 35.0691 15.6698 34.9724 15.9279 34.9724H33.0939C32.8682 34.2789 32.6908 33.5775 32.5779 32.8679C32.4569 32.1342 32.4005 31.3924 32.4005 30.6425H27.2483V32.2713C27.2483 32.5293 27.1434 32.7631 26.9741 32.9244C26.8048 33.0937 26.579 33.1985 26.321 33.1985C26.063 33.1985 25.8372 33.0937 25.6679 32.9244C25.4986 32.7631 25.3938 32.5293 25.3938 32.2713V27.0061C25.3938 26.7562 25.4986 26.5224 25.6679 26.353C25.8372 26.1837 26.063 26.087 26.321 26.087C26.579 26.087 26.8048 26.1837 26.9741 26.353C27.1434 26.5224 27.2483 26.7562 27.2483 27.0061V28.7961H32.5214C32.715 27.3609 33.1342 25.9499 33.7873 24.6276C34.4324 23.3133 35.2951 22.0797 36.3836 20.9912C39.0444 18.3304 42.5437 17 46.035 17C49.5343 17 53.0336 18.3304 55.6944 20.9912C57.5731 22.8698 58.7825 25.1678 59.3389 27.5786C59.8952 30.0217 59.7743 32.5857 58.9841 34.9724H64.0718C64.3298 34.9724 64.5637 35.0691 64.7249 35.2384C64.8942 35.4078 64.9991 35.6416 64.9991 35.8915C64.9991 36.1495 64.8942 36.3753 64.7249 36.5446C64.5637 36.714 64.3298 36.8188 64.0718 36.8188H58.2181C57.9037 37.4396 57.5328 38.0443 57.1135 38.6168C56.6942 39.2054 56.2185 39.7698 55.6944 40.2939C54.4043 41.584 52.9046 42.5838 51.2678 43.2611C49.6311 43.9384 47.8653 44.2931 46.043 44.2931C44.5998 44.2931 43.1968 44.0754 41.8664 43.6481C40.5602 43.2288 39.3266 42.616 38.1978 41.8178L34.6098 45.4058C34.8275 45.8412 34.9081 46.325 34.8436 46.7927C34.7791 47.2845 34.5533 47.7602 34.1744 48.1392L27.7885 54.525C27.5627 54.7508 27.3047 54.9201 27.0306 55.033C26.7403 55.154 26.4339 55.2104 26.1275 55.2104C25.8211 55.2104 25.5147 55.154 25.2245 55.033C24.9503 54.9201 24.6923 54.7508 24.4665 54.525L22.9749 53.0334C22.4831 53.0415 21.9428 53.0011 21.4268 52.9366C20.8382 52.856 20.2657 52.7351 19.7981 52.598L15.6698 50.6387C15.428 50.5661 15.2344 50.4049 15.1135 50.1952C15.0006 49.9937 14.9684 49.7437 15.0329 49.5018L15.0409 49.4938C15.1054 49.2519 15.2748 49.0583 15.4763 48.9455ZM41.5117 19.7414C40.1248 20.3139 38.8267 21.1686 37.6979 22.2974C35.3919 24.6034 34.2469 27.6189 34.2469 30.6425C34.2469 33.6662 35.3919 36.6898 37.6979 38.9877C38.8186 40.1004 40.1168 40.9631 41.5278 41.5517C42.9469 42.1403 44.4708 42.4467 46.043 42.4467C46.7606 42.4467 47.4621 42.3822 48.1475 42.2613C48.7603 42.1484 49.3569 41.9871 49.9455 41.7856L48.0023 40.4068C47.8008 40.2536 47.6718 40.0359 47.6314 39.8021C47.5911 39.5682 47.6395 39.3264 47.7927 39.1167C47.9378 38.9071 48.1555 38.7781 48.3894 38.7378C48.6232 38.6974 48.8731 38.7539 49.0747 38.899L51.8806 40.9067C52.3241 40.6487 52.7514 40.3665 53.1626 40.0601C53.59 39.7376 53.9931 39.3747 54.3882 38.9877C56.6861 36.6898 57.8392 33.6662 57.8392 30.6425C57.8392 27.6189 56.6861 24.6034 54.3882 22.2974C53.2594 21.1686 51.9532 20.3219 50.5664 19.7414C49.1231 19.1447 47.5831 18.8464 46.043 18.8464C44.4949 18.8464 42.9549 19.1447 41.5117 19.7414ZM35.8595 39.7295L35.8031 39.6731L32.4247 43.0595L33.3842 44.019L36.7545 40.6487C36.2788 40.1972 36.1014 39.9956 35.8595 39.7295ZM29.6027 43.5755L23.2329 49.9533C22.9749 50.3081 23.12 50.5177 23.2087 50.6387L23.2329 50.679L25.7727 53.2188C25.8695 53.3156 25.9985 53.364 26.1275 53.364C26.2565 53.364 26.3855 53.3156 26.4823 53.2188L32.8682 46.833C33.1181 46.4782 32.973 46.2686 32.8843 46.1476L32.8601 46.1073L30.3283 43.5755C29.9735 43.3175 29.7639 43.4707 29.643 43.5513L29.6027 43.5755ZM18.6048 30.6425H15.9279C15.6698 30.6425 15.436 30.5458 15.2748 30.3765C15.1054 30.2071 15.0006 29.9733 15.0006 29.7234C15.0006 29.4653 15.1054 29.2315 15.2748 29.0703C15.436 28.9009 15.6698 28.7961 15.9279 28.7961H18.6048V27.0061C18.6048 26.1273 18.7257 25.2484 18.9595 24.4018C19.1934 23.5633 19.5481 22.7489 20.0077 21.991C20.7011 20.8541 21.58 19.556 22.1847 18.403C22.3218 18.1853 22.5314 18.0401 22.7572 17.9837C22.991 17.9272 23.241 17.9595 23.4587 18.0966C23.6764 18.2256 23.8215 18.4352 23.8779 18.669C23.9344 18.8948 23.9021 19.1447 23.7651 19.3624C23.0878 20.5558 22.3057 21.7733 21.58 22.9505C21.2172 23.5633 20.9269 24.2244 20.7415 24.9017C20.5479 25.5871 20.4512 26.2885 20.4512 27.0061V28.7961H22.4911C22.7491 28.7961 22.9749 28.9009 23.1442 29.0703C23.3135 29.2315 23.4184 29.4653 23.4184 29.7234C23.4184 29.9733 23.3135 30.2071 23.1442 30.3765C22.9749 30.5458 22.7491 30.6425 22.4911 30.6425H20.4512V32.2713C20.4512 32.5293 20.3464 32.7631 20.177 32.9244C20.0077 33.0937 19.782 33.1985 19.5239 33.1985C19.2659 33.1985 19.0402 33.0937 18.8708 32.9244C18.7015 32.7631 18.6048 32.5293 18.6048 32.2713V30.6425ZM64.0718 30.6425H62.435C62.177 30.6425 61.9513 30.5377 61.7819 30.3765C61.6126 30.2071 61.5078 29.9733 61.5078 29.7234C61.5078 29.4653 61.6126 29.2315 61.7819 29.0703C61.9513 28.9009 62.177 28.7961 62.435 28.7961H64.0718C64.3298 28.7961 64.5637 28.9009 64.7249 29.0703C64.8942 29.2315 64.9991 29.4653 64.9991 29.7234C64.9991 29.9733 64.8942 30.2071 64.7249 30.3765C64.5637 30.5458 64.3298 30.6425 64.0718 30.6425Z" fill="white"/>
</svg>
