<svg width="80" height="80" viewBox="0 0 80 80" fill="none" xmlns="http://www.w3.org/2000/svg">
<path fill-rule="evenodd" clip-rule="evenodd" d="M40 0C62.09 0 80 17.91 80 40C80 62.09 62.09 80 40 80C17.91 80 0 62.09 0 40C0 17.91 17.91 0 40 0Z" fill="#8C52FF" fill-opacity="0.2"/>
<path d="M40.0014 74.5594C59.0884 74.5594 74.5614 59.0864 74.5614 39.9995C74.5614 20.9125 59.0884 5.43945 40.0014 5.43945C20.9144 5.43945 5.44141 20.9125 5.44141 39.9995C5.44141 59.0864 20.9144 74.5594 40.0014 74.5594Z" fill="#8C52FF"/>
<path d="M45.36 28.901H38.47C38.03 28.901 37.67 29.271 37.67 29.711C37.67 30.161 38.03 30.521 38.47 30.521H45.36C48.92 30.521 51.81 33.411 51.81 36.971V60.361C51.81 61.691 50.73 62.771 49.39 62.771H29.03C27.7 62.771 26.61 61.691 26.61 60.361V36.971C26.61 33.411 29.5 30.521 33.06 30.521H33.97C34.41 30.521 34.78 30.161 34.78 29.711C34.78 29.271 34.41 28.901 33.97 28.901V25.481C33.97 25.031 34.33 24.671 34.78 24.671H43.65C44.09 24.671 44.45 25.031 44.45 25.481V26.591C44.45 27.031 44.81 27.391 45.26 27.391C45.7 27.391 46.07 27.031 46.07 26.591V25.481C46.07 24.141 44.98 23.061 43.65 23.061H43.14V18.421C43.14 17.091 42.06 16.001 40.72 16.001H37.7C36.37 16.001 35.28 17.091 35.28 18.421V23.061H34.78C33.44 23.061 32.36 24.141 32.36 25.481V28.941C28.24 29.301 25 32.761 25 36.971V60.361C25 62.581 26.81 64.391 29.03 64.391H49.39C51.61 64.391 53.42 62.581 53.42 60.361V36.971C53.42 32.521 49.81 28.901 45.36 28.901ZM36.89 18.421C36.89 17.981 37.25 17.611 37.7 17.611H40.72C41.17 17.611 41.53 17.981 41.53 18.421V23.061H36.89V18.421ZM55.44 17.821C55.44 18.261 55.08 18.621 54.63 18.621H54.4C53.95 18.621 53.59 18.261 53.59 17.821C53.59 17.371 53.95 17.011 54.4 17.011H54.63C55.08 17.011 55.44 17.371 55.44 17.821ZM47.68 17.821C47.68 17.371 48.04 17.011 48.48 17.011H51.71C52.16 17.011 52.52 17.371 52.52 17.821C52.52 18.261 52.16 18.621 51.71 18.621H48.48C48.04 18.621 47.68 18.261 47.68 17.821ZM54.69 23.411C54.58 23.751 54.27 23.971 53.93 23.971C53.74 23.971 54.13 24.081 48.23 22.111C47.81 21.971 47.58 21.511 47.72 21.091C47.86 20.671 48.32 20.441 48.74 20.581L54.18 22.391C54.61 22.541 54.83 22.991 54.69 23.411ZM39.21 39.691C35.38 39.691 32.26 42.811 32.26 46.651C32.26 50.481 35.38 53.601 39.21 53.601C41.6 53.601 43.8 52.401 45.08 50.381C45.32 50.001 45.82 49.891 46.19 50.131C46.57 50.371 46.68 50.871 46.44 51.251C44.86 53.731 42.15 55.211 39.21 55.211C34.49 55.211 30.64 51.371 30.64 46.651C30.64 41.921 34.49 38.081 39.21 38.081C43.93 38.081 47.78 41.921 47.78 46.651C47.78 47.091 47.42 47.451 46.97 47.451C46.53 47.451 46.17 47.091 46.17 46.651C46.17 42.811 43.05 39.691 39.21 39.691ZM38.4 49.171V47.451H36.69C36.25 47.451 35.88 47.091 35.88 46.651C35.88 46.201 36.25 45.841 36.69 45.841H38.4V44.131C38.4 43.681 38.77 43.321 39.21 43.321C39.66 43.321 40.02 43.681 40.02 44.131V45.841H41.73C42.18 45.841 42.54 46.201 42.54 46.651C42.54 47.091 42.18 47.451 41.73 47.451H40.02V49.171C40.02 49.611 39.66 49.971 39.21 49.971C38.77 49.971 38.4 49.611 38.4 49.171Z" fill="white"/>
</svg>
