<svg width="80" height="80" viewBox="0 0 80 80" fill="none" xmlns="http://www.w3.org/2000/svg">
<path fill-rule="evenodd" clip-rule="evenodd" d="M40 0C62.09 0 80 17.91 80 40C80 62.09 62.09 80 40 80C17.91 80 0 62.09 0 40C0 17.91 17.91 0 40 0Z" fill="#8C52FF" fill-opacity="0.2"/>
<path d="M40.0014 74.5594C59.0884 74.5594 74.5614 59.0864 74.5614 39.9995C74.5614 20.9125 59.0884 5.43945 40.0014 5.43945C20.9144 5.43945 5.44141 20.9125 5.44141 39.9995C5.44141 59.0864 20.9144 74.5594 40.0014 74.5594Z" fill="#8C52FF"/>
<path d="M31.58 51.1512H33.05C33.46 51.1512 33.79 50.8212 33.79 50.4112C33.79 50.0112 33.46 49.6812 33.05 49.6812H31.58C31.17 49.6812 30.84 50.0112 30.84 50.4112C30.84 50.8212 31.17 51.1512 31.58 51.1512Z" fill="white"/>
<path d="M53.68 49.6812H36C35.59 49.6812 35.26 50.0112 35.26 50.4112C35.26 50.8212 35.59 51.1512 36 51.1512H53.68C54.08 51.1512 54.41 50.8212 54.41 50.4112C54.41 50.0112 54.08 49.6812 53.68 49.6812Z" fill="white"/>
<path d="M31.58 46.7303H33.05C33.46 46.7303 33.79 46.4003 33.79 45.9903C33.79 45.5903 33.46 45.2603 33.05 45.2603H31.58C31.17 45.2603 30.84 45.5903 30.84 45.9903C30.84 46.4003 31.17 46.7303 31.58 46.7303Z" fill="white"/>
<path d="M53.68 45.2603H36C35.59 45.2603 35.26 45.5903 35.26 45.9903C35.26 46.4003 35.59 46.7303 36 46.7303H53.68C54.08 46.7303 54.41 46.4003 54.41 45.9903C54.41 45.5903 54.08 45.2603 53.68 45.2603Z" fill="white"/>
<path d="M31.58 42.3103H33.05C33.46 42.3103 33.79 41.9803 33.79 41.5803C33.79 41.1703 33.46 40.8403 33.05 40.8403H31.58C31.17 40.8403 30.84 41.1703 30.84 41.5803C30.84 41.9803 31.17 42.3103 31.58 42.3103Z" fill="white"/>
<path d="M53.68 40.8403H36C35.59 40.8403 35.26 41.1703 35.26 41.5803C35.26 41.9803 35.59 42.3103 36 42.3103H53.68C54.08 42.3103 54.41 41.9803 54.41 41.5803C54.41 41.1703 54.08 40.8403 53.68 40.8403Z" fill="white"/>
<path d="M31.58 37.8904H33.05C33.46 37.8904 33.79 37.5604 33.79 37.1604C33.79 36.7504 33.46 36.4204 33.05 36.4204H31.58C31.17 36.4204 30.84 36.7504 30.84 37.1604C30.84 37.5604 31.17 37.8904 31.58 37.8904Z" fill="white"/>
<path d="M53.68 36.4204H36C35.59 36.4204 35.26 36.7504 35.26 37.1604C35.26 37.5604 35.59 37.8904 36 37.8904H53.68C54.08 37.8904 54.41 37.5604 54.41 37.1604C54.41 36.7504 54.08 36.4204 53.68 36.4204Z" fill="white"/>
<path d="M23.48 22.421H26.42V57.041C26.42 57.451 26.75 57.781 27.16 57.781H52.94V60.731H23.48V22.421ZM27.9 19.481H47.05V29.051C47.05 29.461 47.38 29.791 47.78 29.791H57.36V56.311H27.9V19.481ZM56.32 28.321H48.52V20.521L56.32 28.321ZM22.74 62.201H53.68C54.08 62.201 54.41 61.871 54.41 61.461V57.781H58.1C58.5 57.781 58.83 57.451 58.83 57.041V29.051C58.83 29.041 58.82 29.021 58.82 29.011C58.82 28.941 58.81 28.881 58.79 28.821C58.78 28.791 58.77 28.771 58.76 28.751C58.73 28.671 58.68 28.601 58.61 28.531L48.3 18.221C48.24 18.161 48.17 18.111 48.09 18.071C48.06 18.061 48.04 18.061 48.02 18.051C47.96 18.031 47.89 18.021 47.83 18.011C47.81 18.011 47.8 18.001 47.78 18.001H27.16C26.75 18.001 26.42 18.341 26.42 18.741V20.951H22.74C22.33 20.951 22 21.281 22 21.691V61.461C22 61.871 22.33 62.201 22.74 62.201Z" fill="white"/>
<path d="M32.31 26.1109H35.26V29.0509H32.31V26.1109ZM31.58 30.5309H36C36.4 30.5309 36.73 30.2009 36.73 29.7909V25.3709C36.73 24.9609 36.4 24.6309 36 24.6309H31.58C31.17 24.6309 30.84 24.9609 30.84 25.3709V29.7909C30.84 30.2009 31.17 30.5309 31.58 30.5309Z" fill="white"/>
</svg>
