<svg width="80" height="80" viewBox="0 0 80 80" fill="none" xmlns="http://www.w3.org/2000/svg">
<path fill-rule="evenodd" clip-rule="evenodd" d="M40 0C62.09 0 80 17.91 80 40C80 62.09 62.09 80 40 80C17.91 80 0 62.09 0 40C0 17.91 17.91 0 40 0Z" fill="#8C52FF" fill-opacity="0.2"/>
<path d="M40.0014 74.5594C59.0884 74.5594 74.5614 59.0864 74.5614 39.9995C74.5614 20.9125 59.0884 5.43945 40.0014 5.43945C20.9144 5.43945 5.44141 20.9125 5.44141 39.9995C5.44141 59.0864 20.9144 74.5594 40.0014 74.5594Z" fill="#8C52FF"/>
<path d="M18.7315 45.0447H13.0458C12.7573 45.0447 12.4928 45.1649 12.3125 45.3452C12.1202 45.5376 12 45.802 12 46.0905V51.68C12 51.9685 12.1202 52.2329 12.3125 52.4253C12.4928 52.6056 12.7573 52.7258 13.0458 52.7258H18.7315C18.8156 52.7258 18.8997 52.7138 18.9719 52.7017C19.056 52.6777 19.1281 52.6537 19.2003 52.6176L24.5734 49.925H27.2059L27.278 50.1774C28.444 53.7115 30.5476 57.558 33.3003 60.2987C35.524 62.5104 38.1806 64.001 41.0895 64.001C44.912 64.001 48.3739 61.4406 51.0064 57.8826C54.1678 53.6033 56.1512 47.9176 56.1992 43.47C56.2113 42.9532 57.0286 40.1043 57.209 39.3951C58.8558 32.8439 59 32.303 59 30.5C59 28.9613 58.7355 27.4588 58.2307 26.0283C57.7379 24.6099 56.9926 23.2636 56.043 22.0736L55.9949 22.0135L55.9829 21.9414C55.5982 20.511 54.7448 19.2608 53.6028 18.3833C52.4849 17.5179 51.0905 17.001 49.5639 17.001H36.7621C33.0478 17.001 29.6701 18.5156 27.2299 20.9557C24.7898 23.3959 23.2752 26.7736 23.2752 30.5C23.2752 32.303 23.4074 32.8439 25.0422 39.359C25.2225 40.0562 26.0639 43.0012 26.0639 43.47C26.076 44.0831 26.124 44.7322 26.1962 45.3813C26.2683 46.0424 26.3885 46.7276 26.5327 47.4127L26.6169 47.8455H24.5734L19.2003 45.1529C19.1281 45.1168 19.056 45.0928 18.9719 45.0688C18.8997 45.0567 18.8156 45.0447 18.7315 45.0447ZM38.5051 42.5805C38.1445 42.2199 37.5555 42.2199 37.1949 42.5805C36.2212 43.5542 34.6345 43.5542 33.6609 42.5805C33.3003 42.2199 32.6992 42.2199 32.3386 42.5805C31.978 42.9531 31.978 43.5422 32.3386 43.9028C33.1921 44.7562 34.31 45.1769 35.4279 45.1769C36.5458 45.1769 37.6637 44.7562 38.5051 43.9028C38.8778 43.5422 38.8778 42.9531 38.5051 42.5805ZM46.7151 45.1769C47.833 45.1769 48.9389 44.7562 49.7923 43.9028C50.1529 43.5422 50.1529 42.9531 49.7923 42.5805C49.4317 42.2199 48.8427 42.2199 48.4821 42.5805C47.4964 43.5542 45.9217 43.5542 44.9481 42.5805C44.5755 42.2199 43.9864 42.2199 43.6258 42.5805C43.2652 42.9531 43.2652 43.5422 43.6258 43.9028C44.4793 44.7562 45.5972 45.1769 46.7151 45.1769ZM43.9744 53.1585L43.2171 52.5936C42.58 52.1127 41.7747 51.9805 41.0294 52.2089C40.2962 51.9805 39.4908 52.1127 38.8417 52.5936L38.0844 53.1585C37.856 53.3388 37.6997 53.6033 37.6757 53.9038C37.6517 54.1923 37.7478 54.4808 37.9522 54.6971L38.2407 55.0097C38.9499 55.791 39.9716 56.2358 41.0294 56.2358C42.0992 56.2358 43.109 55.791 43.8302 55.0097L44.1187 54.6971C44.323 54.4808 44.4192 54.1923 44.3951 53.9038C44.3591 53.6033 44.2148 53.3388 43.9744 53.1585ZM36.7621 19.1046H49.5639C50.8141 19.1046 51.956 19.6094 52.7734 20.4268C53.5908 21.2562 54.1077 22.3861 54.1077 23.6483C54.1077 24.8864 53.5908 26.0283 52.7734 26.8457C51.956 27.6751 50.8141 28.18 49.5639 28.18H41.0895C38.0604 28.18 35.2356 29.0815 32.8795 30.6442C30.4514 32.2429 28.5041 34.5388 27.3261 37.2555L26.9174 38.1931L26.665 37.1953C26.0639 34.7913 25.7394 33.469 25.5711 32.5795C25.3908 31.6539 25.3668 31.1971 25.3668 30.5C25.3668 27.3506 26.6529 24.5017 28.7084 22.4462C30.776 20.3787 33.6248 19.1046 36.7621 19.1046ZM53.2302 29.1777C54.2159 28.5166 55.0333 27.591 55.5501 26.5092L55.9107 25.7639L56.1872 26.5332C56.4276 27.1703 56.5959 27.8194 56.7161 28.4925C56.8363 29.1537 56.8964 29.8268 56.8964 30.5C56.8964 31.1971 56.8844 31.6659 56.7041 32.5795C56.5238 33.481 56.1992 34.8033 55.5982 37.2194L55.3578 38.2051L54.9371 37.2795C54.5043 36.2938 53.9634 35.3442 53.3263 34.4667C52.7013 33.6012 51.968 32.7838 51.1506 32.0626C50.9343 31.8583 50.6939 31.6539 50.4414 31.4616C50.201 31.2693 49.9606 31.089 49.6962 30.9086L48.8668 30.3196L49.8765 30.2716C51.1146 30.2115 52.2565 29.8148 53.2302 29.1777ZM49.6721 56.1516C47.3642 59.4693 44.3471 61.9094 41.0895 61.9094C38.7335 61.9094 36.5698 60.6232 34.7307 58.7721C32.4107 56.4401 30.5957 53.1705 29.5739 50.4058L29.3936 49.925H32.2184C32.5069 49.925 32.7714 49.8168 32.9517 49.6245C33.144 49.4442 33.2522 49.1797 33.2522 48.8913C33.2522 48.5907 33.144 48.3263 32.9517 48.146C32.7593 47.9537 32.5069 47.8455 32.2184 47.8455H28.7685L28.7084 47.569C28.5281 46.8237 28.3959 46.0785 28.2997 45.3693C28.2156 44.648 28.1675 43.9508 28.1675 43.3017C28.1675 39.7076 29.61 36.4501 31.954 34.0941C34.298 31.7381 37.5315 30.2836 41.0895 30.2836C44.335 30.2836 47.3762 31.5457 49.7082 33.6133C52.0281 35.6808 53.6389 38.5537 54.0115 41.7751L54.0836 42.5445L54.1077 43.3017C54.1077 47.1243 52.3647 52.257 49.6721 56.1516ZM18.4069 50.6342H14.0916V47.1363H18.479L21.977 48.8913L18.4911 50.6342H18.4069Z" fill="white"/>
</svg>
