<svg width="80" height="80" viewBox="0 0 80 80" fill="none" xmlns="http://www.w3.org/2000/svg">
<path fill-rule="evenodd" clip-rule="evenodd" d="M40 0C62.09 0 80 17.91 80 40C80 62.09 62.09 80 40 80C17.91 80 0 62.09 0 40C0 17.91 17.91 0 40 0Z" fill="#8C52FF" fill-opacity="0.2"/>
<path d="M40.0014 74.5594C59.0884 74.5594 74.5614 59.0864 74.5614 39.9995C74.5614 20.9125 59.0884 5.43945 40.0014 5.43945C20.9144 5.43945 5.44141 20.9125 5.44141 39.9995C5.44141 59.0864 20.9144 74.5594 40.0014 74.5594Z" fill="#8C52FF"/>
<path d="M43.7187 43.4038C43.7057 43.3408 43.6868 43.2779 43.6619 43.217C43.6369 43.157 43.6062 43.099 43.5702 43.0451C43.5333 42.9901 43.4924 42.9392 43.4456 42.8932C43.3997 42.8473 43.3489 42.8053 43.2941 42.7683C43.2403 42.7323 43.1824 42.7014 43.1225 42.6764C43.0627 42.6514 43 42.6324 42.9362 42.6194C42.8076 42.5935 42.675 42.5935 42.5464 42.6194C42.4827 42.6324 42.4199 42.6514 42.3601 42.6764C42.2993 42.7014 42.2415 42.7323 42.1876 42.7683C42.1328 42.8053 42.082 42.8473 42.0361 42.8932C41.9903 42.9392 41.9484 42.9901 41.9125 43.0451C41.8767 43.099 41.8458 43.157 41.8208 43.217C41.7959 43.2779 41.777 43.3408 41.764 43.4038C41.7511 43.4687 41.7441 43.5348 41.7441 43.5997C41.7441 43.6646 41.7511 43.7306 41.764 43.7945C41.7771 43.8585 41.796 43.9215 41.8209 43.9814C41.8459 44.0424 41.8768 44.1003 41.9126 44.1543C41.9485 44.2092 41.9904 44.2602 42.0362 44.3062C42.0821 44.3521 42.1329 44.3941 42.1877 44.43C42.2416 44.466 42.2994 44.497 42.3602 44.522C42.42 44.547 42.4829 44.5659 42.5465 44.5789C42.6103 44.5919 42.6761 44.5989 42.7409 44.5989C43.004 44.5989 43.2602 44.492 43.4456 44.306C43.4914 44.2601 43.5333 44.2091 43.5702 44.1542C43.6061 44.1002 43.6369 44.0423 43.6619 43.9813C43.6868 43.9214 43.7058 43.8585 43.7187 43.7945C43.7316 43.7305 43.7375 43.6646 43.7375 43.5997C43.7375 43.5348 43.7315 43.4687 43.7187 43.4038Z" fill="white"/>
<path d="M33.9001 48.2997C33.8881 48.2368 33.8682 48.174 33.8432 48.113C33.8183 48.053 33.7874 47.995 33.7515 47.9411C33.7157 47.8861 33.6738 47.8351 33.628 47.7892C33.4426 47.6033 33.1854 47.4964 32.9233 47.4964C32.6611 47.4964 32.404 47.6032 32.2186 47.7892C32.1727 47.8351 32.1309 47.8861 32.094 47.9411C32.0581 47.995 32.0282 48.053 32.0033 48.113C31.9784 48.1739 31.9585 48.2368 31.9465 48.2998C31.9335 48.3647 31.9266 48.4307 31.9266 48.4957C31.9266 48.5605 31.9335 48.6266 31.9465 48.6904C31.9585 48.7545 31.9784 48.8173 32.0033 48.8773C32.0282 48.9382 32.0591 48.9962 32.095 49.0501C32.1309 49.1051 32.1727 49.156 32.2186 49.202C32.2644 49.248 32.3153 49.2899 32.3701 49.3259C32.4239 49.3619 32.4817 49.3929 32.5415 49.4178C32.6023 49.4428 32.6651 49.4618 32.7289 49.4748C32.7927 49.4878 32.8585 49.4948 32.9233 49.4948C33.1854 49.4948 33.4426 49.3879 33.628 49.2019C33.6738 49.1559 33.7157 49.105 33.7515 49.05C33.7874 48.9961 33.8183 48.9381 33.8432 48.8772C33.8682 48.8172 33.8881 48.7544 33.9001 48.6903C33.913 48.6264 33.92 48.5604 33.92 48.4956C33.92 48.4306 33.913 48.3646 33.9001 48.2997Z" fill="white"/>
<path d="M51.033 44.1753C50.9827 44.1753 50.9328 44.1765 50.8828 44.1772V24.5086C50.8828 22.1307 48.953 20.1962 46.581 20.1962H44.0373V14.9993H44.973C45.5234 14.9993 45.9698 14.552 45.9698 14.0002C45.9698 13.4483 45.5234 13.001 44.973 13.001H30.9097C30.3592 13.001 29.913 13.4483 29.913 14.0002C29.913 14.552 30.3592 14.9993 30.9097 14.9993H31.8454V20.1963H29.3017C26.9297 20.1963 25 22.1308 25 24.5087V59.8464C25 62.2244 26.9297 64.1589 29.3018 64.1589H46.5808C47.1849 64.1589 47.7806 64.0292 48.3285 63.7849C49.1888 64.0283 50.096 64.1589 51.0329 64.1589C56.5288 64.1589 61 59.6767 61 54.1671C61 48.6576 56.5288 44.1753 51.033 44.1753ZM33.8389 14.9993H42.0439V20.1963H33.8389V14.9993ZM26.9934 24.5087C26.9934 23.2327 28.0289 22.1947 29.3017 22.1947H46.581C47.8538 22.1947 48.8893 23.2328 48.8893 24.5087V28.671C48.8833 28.6706 48.877 28.6705 48.871 28.6701C48.8245 28.6668 48.7773 28.6648 48.7302 28.6625C48.6951 28.6608 48.6605 28.6585 48.6251 28.6572C48.5698 28.6553 48.5134 28.6549 48.4571 28.6543C48.4299 28.654 48.4034 28.6529 48.3761 28.6529C46.2686 28.6529 45.1416 29.5483 44.2361 30.2678C43.4045 30.9286 42.7476 31.4506 41.3342 31.4506C40.451 31.4506 39.8632 31.2466 39.3435 30.9325C39.0318 30.744 38.7447 30.5158 38.433 30.2681C38.2632 30.1331 38.0855 29.992 37.895 29.8516C37.8929 29.8501 37.8908 29.8486 37.8887 29.8471C37.83 29.8039 37.77 29.7607 37.7087 29.718C36.9097 29.1602 35.879 28.6529 34.2928 28.6529C32.1853 28.6529 31.0584 29.5483 30.1529 30.2678C29.3214 30.9286 28.6646 31.4506 27.2514 31.4506C27.2315 31.4506 27.213 31.4494 27.1934 31.4492C27.1258 31.4485 27.0586 31.4473 26.9934 31.4441V24.5087ZM29.3018 62.1602V62.1604C28.0289 62.1604 26.9934 61.1223 26.9934 59.8463V33.4446C27.0783 33.4476 27.1644 33.4491 27.2516 33.4491C29.3589 33.4491 30.4857 32.5536 31.3911 31.834C32.2226 31.1734 32.8793 30.6514 34.2924 30.6514C35.1759 30.6514 35.7639 30.8553 36.2837 31.1696C36.5954 31.3581 36.8826 31.5863 37.1943 31.834C37.5905 32.1489 38.0291 32.4974 38.5737 32.7899C39.2737 33.1657 40.1489 33.4491 41.3341 33.4491C43.4421 33.4491 44.5692 32.5535 45.4747 31.8339C46.3062 31.1733 46.963 30.6514 48.3759 30.6514C48.3811 30.6514 48.3859 30.6518 48.3911 30.6518C48.4885 30.6521 48.5828 30.6553 48.6753 30.6607C48.7063 30.6625 48.7363 30.6654 48.7668 30.6678C48.8083 30.671 48.8487 30.6757 48.8892 30.6801V44.4071C48.8671 44.412 48.8455 44.4181 48.8233 44.4231C48.7262 44.4452 48.6294 44.4685 48.5332 44.4935C48.4765 44.5082 48.4202 44.5239 48.3639 44.5396C48.3092 44.5548 48.2549 44.5706 48.2007 44.5868C48.0994 44.6169 47.9991 44.6485 47.8992 44.6816C47.8658 44.6927 47.8324 44.7039 47.7991 44.7154C47.5084 44.8154 47.2237 44.9278 46.9463 45.0531V39.2808C46.9463 38.7291 46.5 38.2816 45.9496 38.2816H29.7148C29.1643 38.2816 28.718 38.7291 28.718 39.2808V52.8142C28.718 53.366 29.1643 53.8134 29.7148 53.8134H41.0727C41.0686 53.9308 41.0658 54.0485 41.0658 54.1669C41.0658 54.2607 41.0674 54.3542 41.0699 54.4474C41.0708 54.4792 41.0724 54.5108 41.0735 54.5426C41.0758 54.6035 41.0782 54.6643 41.0816 54.7249C41.0838 54.764 41.0864 54.8031 41.0891 54.8422C41.0925 54.8943 41.0963 54.9464 41.1006 54.9983C41.1042 55.042 41.1081 55.0857 41.1123 55.1291C41.1167 55.1744 41.1213 55.2194 41.1263 55.2646C41.1317 55.3136 41.1371 55.3624 41.1431 55.4112C41.1473 55.4447 41.1519 55.4779 41.1564 55.5112C41.5151 58.188 42.9315 60.5728 45.0432 62.1602H29.3018ZM36.5719 49.4947H42.225C42.1023 49.7262 41.9885 49.9629 41.8838 50.2047C41.8818 50.2094 41.8796 50.2141 41.8777 50.2188C41.8247 50.3416 41.7743 50.4658 41.7262 50.5911C41.7226 50.6007 41.719 50.6102 41.7153 50.6198C41.6678 50.7446 41.6225 50.8704 41.58 50.9975C41.5784 51.0021 41.577 51.0068 41.5755 51.0115C41.5345 51.135 41.4957 51.2595 41.4593 51.385C41.4565 51.3946 41.4535 51.4042 41.4508 51.4139C41.4169 51.5323 41.3856 51.6518 41.356 51.7719C41.3523 51.7865 41.348 51.8007 41.3445 51.8152H30.7115V44.5987H39.0924C39.6429 44.5987 40.0891 44.1513 40.0891 43.5995C40.0891 43.0477 39.6429 42.6004 39.0924 42.6004H30.7115V40.28H44.953V46.2498C44.8891 46.2993 44.8274 46.3511 44.7648 46.4019C44.7549 46.41 44.7448 46.418 44.7349 46.4261C44.6345 46.5084 44.5359 46.5928 44.4389 46.6788C44.4336 46.6835 44.4281 46.6882 44.4229 46.693C44.3235 46.7815 44.226 46.8719 44.1304 46.9643C44.1269 46.9677 44.1233 46.9711 44.1198 46.9744C44.0237 47.0675 43.9297 47.1623 43.8375 47.2588C43.8339 47.2626 43.8303 47.2663 43.8267 47.2701C43.756 47.3445 43.6862 47.4199 43.6178 47.4963H36.5719C36.0215 47.4963 35.5752 47.9436 35.5752 48.4955C35.5752 49.0472 36.0215 49.4947 36.5719 49.4947ZM51.033 62.1604C47.0532 62.1604 43.7454 59.2223 43.1536 55.3964C43.1508 55.3777 43.1486 55.3589 43.1458 55.3402C43.1308 55.2387 43.118 55.1365 43.1068 55.0338C43.1028 54.9971 43.0992 54.9604 43.0958 54.9236C43.0874 54.8335 43.0806 54.7429 43.0752 54.652C43.073 54.6154 43.0703 54.579 43.0686 54.5422C43.0628 54.4178 43.0592 54.2929 43.0592 54.167C43.0592 54.0355 43.0627 53.9049 43.0691 53.775C43.0716 53.7247 43.0762 53.6748 43.0796 53.6247C43.0849 53.5464 43.09 53.4681 43.0974 53.3905C43.1036 53.3271 43.1118 53.2644 43.1195 53.2014C43.127 53.1387 43.1343 53.0757 43.1434 53.0134C43.1536 52.943 43.1656 52.8733 43.1777 52.8035C43.1868 52.7501 43.196 52.6966 43.2063 52.6436C43.2208 52.5685 43.2369 52.494 43.2535 52.4197C43.2638 52.3736 43.2742 52.3275 43.2853 52.2818C43.3043 52.2031 43.3247 52.1249 43.3461 52.0471C43.357 52.0075 43.3682 51.9682 43.3797 51.929C43.3798 51.9286 43.3799 51.9282 43.38 51.9278C43.4038 51.8463 43.4285 51.7652 43.4548 51.6848C43.4637 51.6575 43.4732 51.6305 43.4824 51.6033C43.4855 51.5939 43.4887 51.5846 43.492 51.5753C43.52 51.4937 43.5485 51.4125 43.5791 51.3321C43.59 51.3036 43.6015 51.2754 43.6126 51.247C43.6126 51.2469 43.6127 51.2468 43.6127 51.2468C43.6468 51.1602 43.6815 51.0739 43.7185 50.9887C43.7278 50.9672 43.7379 50.9461 43.7475 50.9246C43.7878 50.8339 43.8288 50.7436 43.8724 50.6547C43.8766 50.6462 43.881 50.6379 43.8852 50.6295C43.9225 50.554 43.9617 50.4796 44.0013 50.4053C44.0153 50.3792 44.0284 50.3527 44.0426 50.3268C44.0819 50.255 44.1234 50.1847 44.1648 50.1144C44.1875 50.0758 44.2098 50.037 44.2331 49.9989C44.2685 49.9409 44.3054 49.8841 44.3422 49.8271C44.3489 49.8168 44.3554 49.8064 44.3621 49.7961C44.3871 49.7579 44.4121 49.7195 44.4377 49.6817C44.46 49.6486 44.4834 49.6164 44.5063 49.5837C44.5366 49.5404 44.5668 49.4972 44.598 49.4545C44.617 49.4284 44.636 49.4024 44.6553 49.3766C44.6728 49.3531 44.691 49.3301 44.7087 49.3069C44.755 49.2467 44.8014 49.1866 44.8493 49.1277C44.8605 49.1139 44.8718 49.1001 44.8831 49.0863C44.8986 49.0675 44.9144 49.049 44.9301 49.0304C44.9902 48.9587 45.0509 48.8877 45.1134 48.8182C45.1309 48.7986 45.149 48.7795 45.1667 48.7601C45.2369 48.6836 45.3081 48.6082 45.3812 48.5346C45.3933 48.5225 45.4053 48.5104 45.4175 48.4984C45.4989 48.4173 45.5819 48.3376 45.6668 48.2601C45.6717 48.2555 45.6767 48.2509 45.6818 48.2464C46.6204 47.393 47.7621 46.7605 49.0245 46.4309C49.0435 46.4259 49.0629 46.4214 49.082 46.4166C49.1834 46.3909 49.2855 46.3672 49.3883 46.3456C49.4222 46.3385 49.4564 46.3319 49.4904 46.3251C49.579 46.3076 49.668 46.2916 49.7576 46.2771C49.8027 46.2698 49.8481 46.263 49.8935 46.2564C50.266 46.2028 50.6463 46.1735 51.0334 46.1735C55.4301 46.1735 59.0071 49.7593 59.0071 54.1669C59.0071 58.5745 55.4297 62.1604 51.033 62.1604Z" fill="white"/>
<path d="M56.0696 53.1678C55.5192 53.1678 55.0728 53.6153 55.0728 54.167C55.0728 56.4002 53.2605 58.2169 51.033 58.2169C48.8053 58.2169 46.9931 56.4001 46.9931 54.167C46.9931 51.934 48.8054 50.1172 51.033 50.1172C51.5833 50.1172 52.0297 49.6697 52.0297 49.118C52.0297 48.5662 51.5833 48.1188 51.033 48.1188C47.7061 48.1188 44.9997 50.832 44.9997 54.167C44.9997 57.5021 47.7061 60.2152 51.033 60.2152C54.3598 60.2152 57.0663 57.5021 57.0663 54.167C57.0663 53.6153 56.6199 53.1678 56.0696 53.1678Z" fill="white"/>
</svg>
