<svg width="31" height="31" viewBox="0 0 31 31" fill="none" xmlns="http://www.w3.org/2000/svg">
<path d="M6.33297 24.3749C5.26584 24.3749 4.3976 25.2432 4.3976 26.3106C4.3976 27.378 5.26578 28.2464 6.33297 28.2464C7.40017 28.2464 8.26835 27.378 8.26835 26.3106C8.26835 25.2432 7.40017 24.3749 6.33297 24.3749ZM6.33297 27.0351C5.93349 27.0351 5.60853 26.7101 5.60853 26.3106C5.60853 25.911 5.93349 25.586 6.33297 25.586C6.73246 25.586 7.05742 25.911 7.05742 26.3106C7.05742 26.7101 6.73246 27.0351 6.33297 27.0351Z" fill="#8C52FF"/>
<path d="M24.9598 24.3749C23.8927 24.3749 23.0245 25.2432 23.0245 26.3106C23.0245 27.378 23.8926 28.2464 24.9598 28.2464C26.027 28.2464 26.8952 27.378 26.8952 26.3106C26.8952 25.2432 26.027 24.3749 24.9598 24.3749ZM24.9598 27.0351C24.5604 27.0351 24.2354 26.7101 24.2354 26.3106C24.2354 25.911 24.5604 25.586 24.9598 25.586C25.3593 25.586 25.6843 25.911 25.6843 26.3106C25.6843 26.7101 25.3593 27.0351 24.9598 27.0351Z" fill="#8C52FF"/>
<path d="M16.2488 25.1344C16.1219 24.8299 15.7628 24.6814 15.458 24.8074C15.153 24.9335 15.0045 25.2926 15.1305 25.5977C15.2563 25.9024 15.6167 26.0521 15.9212 25.9253C16.2265 25.7982 16.3741 25.4401 16.2488 25.1344Z" fill="#8C52FF"/>
<path d="M30.9999 17.2047C30.9999 16.8703 30.7289 16.5991 30.3945 16.5991H23.0653C22.7309 16.5991 22.4598 16.8703 22.4598 17.2047C22.4598 17.5392 22.7309 17.8103 23.0653 17.8103H29.789V20.6625C28.863 20.6229 27.9392 20.8306 27.1165 21.2682C25.769 21.9782 24.2914 22.1591 22.9258 21.3651C21.3575 20.4384 19.3499 20.429 17.7634 21.3176C16.4954 22.0279 14.9346 22.1034 13.6603 21.3628C12.0503 20.4273 9.99157 20.4285 8.42063 21.3629C7.21327 22.0648 5.65819 22.068 4.44151 21.3872C3.45267 20.8296 2.34642 20.5599 1.21111 20.6866V17.8252C2.02183 17.8919 2.8119 18.1809 3.51569 18.6711C5.26591 19.8902 7.65841 19.8901 9.40863 18.6711C10.171 18.1401 11.2562 17.8103 12.2406 17.8103H17.6733C18.0077 17.8103 18.2788 17.5392 18.2788 17.2047C18.2788 16.8703 18.0077 16.5991 17.6733 16.5991H12.2406C11.0032 16.5991 9.68587 17.0021 8.71664 17.6772C7.37796 18.6095 5.5463 18.6095 4.20762 17.6772C3.19498 16.9719 2.03315 16.5991 0.847772 16.5991H0.605586C0.271188 16.5991 0.000121093 16.8703 0.000121093 17.2047V21.4114C0.000121093 21.4124 0 21.4133 0 21.4142V29.2995C0 29.6872 0.383259 29.9843 0.759617 29.8851C1.79139 29.6134 2.8673 29.7591 3.78961 30.2956C5.40656 31.2344 7.41422 31.2343 9.03415 30.2925C10.2392 29.576 11.8161 29.5772 13.0517 30.2954C14.6676 31.2349 16.6754 31.2349 18.2916 30.2954C19.523 29.579 21.1002 29.5782 22.3135 30.2954C23.9153 31.2269 25.9514 31.2274 27.5532 30.2955C28.3416 29.8372 29.3884 29.6546 30.2853 29.8189C30.6502 29.8858 30.9999 29.5925 30.9999 29.2232V21.3399C30.9999 21.3392 31 21.3385 31 21.3378L30.9999 17.2047ZM26.9445 29.2484C25.7043 29.97 24.163 29.9699 22.9259 29.2506C21.3397 28.3127 19.2721 28.3238 17.6829 29.2483C16.461 29.9586 14.882 29.9586 13.6602 29.2483C12.0508 28.3126 9.99205 28.3139 8.42045 29.2483C7.19953 29.9582 5.62041 29.9582 4.39792 29.2484C3.42191 28.6806 2.31342 28.4487 1.21087 28.5721V21.9088C2.13856 21.7741 3.03496 21.9868 3.84543 22.4414C5.4369 23.3399 7.45098 23.3394 9.02894 22.4101C10.2362 21.7083 11.8162 21.709 13.0547 22.4119C14.6615 23.3453 16.6698 23.3229 18.2841 22.4142C19.5187 21.7193 21.0828 21.6861 22.3133 22.4101C23.9242 23.3468 25.9435 23.333 27.555 22.4092C28.2014 22.0341 29.0208 21.8445 29.7888 21.8786V28.5509C28.8043 28.5163 27.7817 28.7617 26.9445 29.2484Z" fill="#8C52FF"/>
<path d="M6.78802 17.1348C6.94296 17.1348 7.09795 17.0757 7.21614 16.9574L12.3192 11.8534L13.5345 13.0688C13.7678 13.3022 14.1574 13.3022 14.3907 13.0688L16.613 10.8461C17.0015 11.1537 17.4725 11.3079 17.9438 11.3079C18.4936 11.3079 19.0434 11.0986 19.462 10.6799L29.0051 1.13495C29.251 0.889027 29.2412 0.484194 28.9757 0.250924C28.7334 0.0380612 28.3623 0.0651308 28.1342 0.293193L18.6057 9.82356C18.2408 10.1887 17.6469 10.1887 17.2818 9.82356L13.4925 6.03346C13.1269 5.6678 13.1269 5.07494 13.4925 4.70929L17.1097 1.09135C17.3462 0.854872 17.3462 0.471417 17.1097 0.234936C16.8733 -0.00160446 16.4899 -0.00160446 16.2534 0.234936L12.6362 3.85287C11.8768 4.61252 11.8015 5.85971 12.4699 6.70256L10.2478 8.92518C10.0114 9.16166 10.0114 9.54511 10.2478 9.78159L11.463 10.997L6.37303 16.0879C6.1461 16.3149 6.11964 16.6836 6.33029 16.9258C6.4515 17.0651 6.61982 17.1348 6.78802 17.1348ZM13.3156 7.56946L15.7461 10.0004L13.9626 11.7842L12.7479 10.5692C12.748 10.5694 12.7477 10.5691 12.7479 10.5692C12.7477 10.569 12.7471 10.5685 12.7469 10.5683L11.5321 9.35332L13.3156 7.56946Z" fill="#8C52FF"/>
<path d="M17.3581 6.24821C17.5757 6.53762 18.0153 6.57214 18.2724 6.31513L23.5526 1.03382C23.789 0.797337 23.789 0.41388 23.5526 0.177338C23.3162 -0.059143 22.9328 -0.0590825 22.6963 0.177338L21.7777 1.09607L21.0621 0.38027C20.8341 0.152206 20.4629 0.125137 20.2206 0.338C19.9551 0.571272 19.9453 0.976106 20.1911 1.22209L20.9214 1.95255L19.5092 3.3652L18.7935 2.6494C18.5655 2.42134 18.1943 2.39433 17.952 2.60713C17.6865 2.8404 17.6767 3.24517 17.9226 3.49116L18.6529 4.22168L17.4284 5.44648C17.2135 5.66128 17.1756 6.00543 17.3581 6.24821Z" fill="#8C52FF"/>
<path d="M20.9178 16.8695C20.7367 16.5929 20.3513 16.5203 20.078 16.7018C19.803 16.8843 19.729 17.2677 19.9109 17.5417C20.0935 17.8169 20.4765 17.891 20.7507 17.7088C21.0254 17.5264 21.1003 17.1433 20.9178 16.8695Z" fill="#8C52FF"/>
</svg>
