<svg width="34" height="24" viewBox="0 0 34 24" fill="none" xmlns="http://www.w3.org/2000/svg">
<path d="M33.3439 5.38845L26.1667 2.94623C25.9061 2.85797 25.6234 2.99838 25.5353 3.26076C25.4472 3.52313 25.5871 3.80777 25.8477 3.89644L32.9564 6.31539L29.6102 7.95791C29.4713 7.86357 29.3154 7.79115 29.1463 7.74669L19.1094 5.10561C18.7903 3.45306 16.7695 2.75948 15.5282 3.93555C15.0986 4.34262 14.8522 4.91665 14.8522 5.51047V5.52144C14.8557 6.22064 15.4305 6.78946 16.1336 6.78946H17.8665C18.314 6.78946 18.7615 6.55436 18.9936 6.11179L28.3537 8.5748C25.3962 10.0266 18.7569 13.2856 17.9105 13.7011C17.3131 13.9943 16.6475 13.975 16.0894 13.7011L1.04349 6.31539L16.3347 1.11214C16.7636 0.966106 17.2363 0.966106 17.6652 1.11214L23.6353 3.14368C23.896 3.23227 24.1785 3.09166 24.2667 2.82915C24.3547 2.56677 24.2149 2.28213 23.9543 2.19347L17.9842 0.161929C17.3494 -0.0539762 16.6505 -0.0539762 16.0157 0.161929L0.655989 5.38845C-0.160059 5.66634 -0.233708 6.8043 0.541897 7.18496L8.42465 11.0544C7.99099 13.1302 7.32888 15.365 6.60926 17.3486C6.31467 18.1598 6.56849 19.0622 7.24069 19.5942C9.51557 21.3944 12.2035 22.785 14.9583 23.6789C16.2529 24.0989 17.6965 24.1151 19.0413 23.6789C21.7971 22.7846 24.4852 21.3934 26.7589 19.5942C27.4336 19.0601 27.6839 18.1573 27.3903 17.3486C26.6859 15.409 26.0148 13.1596 25.575 11.0546L29.283 9.23448V16.7821C28.6492 16.831 28.1481 17.3647 28.1481 18.015V19.4764C28.1481 19.6935 28.2417 19.8886 28.3898 20.0245L28.2048 22.8409C28.1687 23.3911 28.6032 23.8588 29.1511 23.8588H30.4111C30.9587 23.8588 31.3935 23.3913 31.3573 22.8409L31.1724 20.0245C31.3205 19.8886 31.4141 19.6936 31.4141 19.4764V18.015C31.4141 17.3646 30.9129 16.8309 30.2792 16.7821V9.22359C30.2792 9.06946 30.2551 8.92015 30.212 8.7784L33.458 7.18503C34.2326 6.80477 34.1613 5.66674 33.3439 5.38845ZM17.8665 5.78649H16.1336C15.9797 5.78649 15.8491 5.66279 15.8484 5.5189V5.51047C15.8484 5.18739 15.9771 4.8875 16.2109 4.66591C16.9282 3.98623 18.1037 4.47548 18.1502 5.45304C18.1613 5.68713 18.0116 5.78649 17.8665 5.78649ZM25.894 16.0595C23.2029 18.18 19.3839 19.697 18.0685 19.9494C17.7982 20.0013 17.621 20.264 17.6725 20.536C17.7241 20.8081 17.9857 20.9866 18.2551 20.9346C19.631 20.6704 23.4009 19.1953 26.231 17.063C26.3006 17.2628 26.3812 17.4904 26.4547 17.6929C26.6008 18.0954 26.4757 18.5425 26.1433 18.8056C23.461 20.9281 20.6346 22.1081 18.7358 22.7241C17.6016 23.0922 16.3698 23.0831 15.2639 22.7241C13.3651 22.108 10.5386 20.9281 7.85631 18.8056C7.52406 18.5426 7.39868 18.0956 7.54498 17.6928C7.5479 17.6848 7.55076 17.6766 7.55368 17.6686C7.62607 17.469 7.70629 17.2424 7.76865 17.0628C10.5318 19.1442 14.2915 20.6558 15.7441 20.9348C16.0147 20.9866 16.2752 20.8082 16.3267 20.5362C16.3783 20.2642 16.201 20.0015 15.9309 19.9496C14.689 19.7113 10.8569 18.2264 8.10568 16.0594C8.51019 14.8139 8.97891 13.2133 9.34735 11.5073L15.6529 14.6025C16.4924 15.0146 17.4748 15.0308 18.3471 14.6025L24.6522 11.5075C25.0207 13.2134 25.4894 14.814 25.894 16.0595ZM29.2021 22.8558L29.3753 20.2187H30.1867L30.3599 22.8558H29.2021ZM30.4179 18.0149V19.2157H29.1442V18.0149C29.1442 17.8877 29.2509 17.7801 29.3774 17.7801H30.1847C30.3111 17.7802 30.4179 17.8877 30.4179 18.0149Z" fill="#8C52FF"/>
</svg>
