<svg width="20" height="20" viewBox="0 0 20 20" fill="none" xmlns="http://www.w3.org/2000/svg">
<path fill-rule="evenodd" clip-rule="evenodd" d="M10.0917 20C15.5963 20 20 15.5963 20 10.0917C20 4.40367 15.5963 0 10.0917 0C4.40367 0 0 4.40367 0 10.0917C0 15.5963 4.40367 20 10.0917 20Z" fill="#8C52FF" fill-opacity="0.2"/>
<path fill-rule="evenodd" clip-rule="evenodd" d="M10.0911 17.7981C14.3113 17.7981 17.7975 14.3119 17.7975 10.0917C17.7975 5.68802 14.3113 2.20178 10.0911 2.20178C5.68741 2.20178 2.20117 5.68802 2.20117 10.0917C2.20117 14.3119 5.68741 17.7981 10.0911 17.7981Z" fill="#8C52FF" fill-opacity="0.2"/>
<path fill-rule="evenodd" clip-rule="evenodd" d="M10.0892 14.3118C12.4745 14.3118 14.3094 12.477 14.3094 10.0917C14.3094 7.52285 12.4745 5.68799 10.0892 5.68799C7.52041 5.68799 5.68555 7.52285 5.68555 10.0917C5.68555 12.477 7.52041 14.3118 10.0892 14.3118Z" fill="#8C52FF"/>
</svg>
