<svg width="26" height="32" viewBox="0 0 26 32" fill="none" xmlns="http://www.w3.org/2000/svg">
<path d="M21.6678 4.19702C19.2712 1.72802 16.083 0.367188 12.6926 0.367188C9.30217 0.367188 6.11396 1.72802 3.71743 4.19702C1.32089 6.66601 0 9.95062 0 13.4436C0 16.4977 1.04553 19.4676 2.93866 21.8124C3.42485 22.4064 3.96267 22.9649 4.53922 23.4614L12.0644 31.2186C12.2408 31.3959 12.4646 31.4845 12.6926 31.4845C12.9206 31.4845 13.1444 31.3959 13.3208 31.2186L20.846 23.4614C21.4225 22.9649 21.9604 22.4064 22.4422 21.8124C24.3397 19.4676 25.3852 16.4977 25.3852 13.4436C25.3852 9.95062 24.0643 6.66601 21.6678 4.19702ZM12.6926 21.5908C8.48898 21.5908 5.08565 18.0801 5.08565 13.7494C5.08565 9.42313 8.48898 5.91246 12.6926 5.91246C16.8962 5.91246 20.2996 9.42313 20.2996 13.7494C20.2996 18.0801 16.8962 21.5908 12.6926 21.5908Z" fill="#8C52FF"/>
</svg>
