<svg width="510" height="528" viewBox="0 0 510 528" fill="none" xmlns="http://www.w3.org/2000/svg">
<path d="M361.802 438.44C317.616 468.19 275.704 495.645 227.973 502.204C180.242 508.764 126.422 494.347 94.1762 460.863C61.98 427.066 51.3297 374.486 41.8962 320.325C32.4135 266.478 24.1723 211.046 41.6609 159.557C59.3865 108.41 102.597 61.1216 154.14 47.7516C205.758 34.0634 265.385 54.5013 318.712 80.3624C371.749 106.171 418.432 137.692 447.488 182.415C476.539 227.112 487.59 285.228 470.123 330.65C452.341 376.024 406.065 408.396 361.802 438.44Z" fill="white"/>
<path fill-rule="evenodd" clip-rule="evenodd" d="M410.407 370.767C408.243 370.767 406.587 369.112 406.587 366.947C406.587 364.783 408.243 363 410.407 363C412.572 363 414.228 364.783 414.228 366.947C414.228 369.112 412.572 370.767 410.407 370.767ZM410.407 513C408.243 513 406.587 511.217 406.587 509.18C406.587 507.015 408.243 505.233 410.407 505.233C412.572 505.233 414.228 507.015 414.228 509.18C414.228 511.217 412.572 513 410.407 513ZM370.042 513C367.878 513 366.095 511.217 366.095 509.18C366.095 507.015 367.878 505.233 370.042 505.233C372.207 505.233 373.862 507.015 373.862 509.18C373.862 511.217 372.207 513 370.042 513ZM329.677 513C327.513 513 325.73 511.217 325.73 509.18C325.73 507.015 327.513 505.233 329.677 505.233C331.842 505.233 333.497 507.015 333.497 509.18C333.497 511.217 331.842 513 329.677 513ZM289.312 513C287.148 513 285.365 511.217 285.365 509.18C285.365 507.015 287.148 505.233 289.312 505.233C291.35 505.233 293.132 507.015 293.132 509.18C293.132 511.217 291.35 513 289.312 513ZM248.82 513C246.783 513 245 511.217 245 509.18C245 507.015 246.783 505.233 248.82 505.233C250.985 505.233 252.767 507.015 252.767 509.18C252.767 511.217 250.985 513 248.82 513ZM410.407 477.474C408.243 477.474 406.587 475.691 406.587 473.526C406.587 471.489 408.243 469.706 410.407 469.706C412.572 469.706 414.228 471.489 414.228 473.526C414.228 475.691 412.572 477.474 410.407 477.474ZM370.042 477.474C367.878 477.474 366.095 475.691 366.095 473.526C366.095 471.489 367.878 469.706 370.042 469.706C372.207 469.706 373.862 471.489 373.862 473.526C373.862 475.691 372.207 477.474 370.042 477.474ZM329.677 477.474C327.513 477.474 325.73 475.691 325.73 473.526C325.73 471.489 327.513 469.706 329.677 469.706C331.842 469.706 333.497 471.489 333.497 473.526C333.497 475.691 331.842 477.474 329.677 477.474ZM289.312 477.474C287.148 477.474 285.365 475.691 285.365 473.526C285.365 471.489 287.148 469.706 289.312 469.706C291.35 469.706 293.132 471.489 293.132 473.526C293.132 475.691 291.35 477.474 289.312 477.474ZM248.82 477.474C246.783 477.474 245 475.691 245 473.526C245 471.489 246.783 469.706 248.82 469.706C250.985 469.706 252.767 471.489 252.767 473.526C252.767 475.691 250.985 477.474 248.82 477.474ZM410.407 441.947C408.243 441.947 406.587 440.165 406.587 438C406.587 435.835 408.243 434.18 410.407 434.18C412.572 434.18 414.228 435.835 414.228 438C414.228 440.165 412.572 441.947 410.407 441.947ZM370.042 441.947C367.878 441.947 366.095 440.165 366.095 438C366.095 435.835 367.878 434.18 370.042 434.18C372.207 434.18 373.862 435.835 373.862 438C373.862 440.165 372.207 441.947 370.042 441.947ZM329.677 441.947C327.513 441.947 325.73 440.165 325.73 438C325.73 435.835 327.513 434.18 329.677 434.18C331.842 434.18 333.497 435.835 333.497 438C333.497 440.165 331.842 441.947 329.677 441.947ZM289.312 441.947C287.148 441.947 285.365 440.165 285.365 438C285.365 435.835 287.148 434.18 289.312 434.18C291.35 434.18 293.132 435.835 293.132 438C293.132 440.165 291.35 441.947 289.312 441.947ZM248.82 441.947C246.783 441.947 245 440.165 245 438C245 435.835 246.783 434.18 248.82 434.18C250.985 434.18 252.767 435.835 252.767 438C252.767 440.165 250.985 441.947 248.82 441.947ZM410.407 406.294C408.243 406.294 406.587 404.638 406.587 402.474C406.587 400.309 408.243 398.654 410.407 398.654C412.572 398.654 414.228 400.309 414.228 402.474C414.228 404.638 412.572 406.294 410.407 406.294ZM370.042 406.294C367.878 406.294 366.095 404.638 366.095 402.474C366.095 400.309 367.878 398.654 370.042 398.654C372.207 398.654 373.862 400.309 373.862 402.474C373.862 404.638 372.207 406.294 370.042 406.294ZM329.677 406.294C327.513 406.294 325.73 404.638 325.73 402.474C325.73 400.309 327.513 398.654 329.677 398.654C331.842 398.654 333.497 400.309 333.497 402.474C333.497 404.638 331.842 406.294 329.677 406.294ZM289.312 406.294C287.148 406.294 285.365 404.638 285.365 402.474C285.365 400.309 287.148 398.654 289.312 398.654C291.35 398.654 293.132 400.309 293.132 402.474C293.132 404.638 291.35 406.294 289.312 406.294ZM370.042 370.767C367.878 370.767 366.095 369.112 366.095 366.947C366.095 364.783 367.878 363 370.042 363C372.207 363 373.862 364.783 373.862 366.947C373.862 369.112 372.207 370.767 370.042 370.767ZM329.677 370.767C327.513 370.767 325.73 369.112 325.73 366.947C325.73 364.783 327.513 363 329.677 363C331.842 363 333.497 364.783 333.497 366.947C333.497 369.112 331.842 370.767 329.677 370.767ZM289.312 370.767C287.148 370.767 285.365 369.112 285.365 366.947C285.365 364.783 287.148 363 289.312 363C291.35 363 293.132 364.783 293.132 366.947C293.132 369.112 291.35 370.767 289.312 370.767ZM248.82 370.767C246.783 370.767 245 369.112 245 366.947C245 364.783 246.783 363 248.82 363C250.985 363 252.767 364.783 252.767 366.947C252.767 369.112 250.985 370.767 248.82 370.767ZM248.82 406.294C246.783 406.294 245 404.638 245 402.474C245 400.309 246.783 398.654 248.82 398.654C250.985 398.654 252.767 400.309 252.767 402.474C252.767 404.638 250.985 406.294 248.82 406.294Z" fill="#CB6CE6"/>
</svg>
