<svg xmlns:xlink="http://www.w3.org/1999/xlink" width="25" height="25" viewBox="0 0 25 25" fill="none" xmlns="http://www.w3.org/2000/svg">
<path d="M22.5951 16.4922C21.091 16.4922 19.6142 16.2569 18.2148 15.7945C17.5291 15.5606 16.6861 15.7751 16.2675 16.205L13.5053 18.2902C10.3019 16.5802 8.32867 14.6076 6.64204 11.4282L8.66588 8.73797C9.19168 8.21287 9.38028 7.44581 9.15432 6.72609C8.68987 5.31929 8.45393 3.84319 8.45393 2.33851C8.45399 1.25151 7.56967 0.367188 6.48274 0.367188H1.97125C0.884321 0.367188 0 1.25151 0 2.33844C0 14.7975 10.136 24.9335 22.5951 24.9335C23.682 24.9335 24.5663 24.0492 24.5663 22.9623V18.4634C24.5663 17.3765 23.6819 16.4922 22.5951 16.4922Z" fill="#8C52FF"></path>
</svg>