<svg xmlns:xlink="http://www.w3.org/1999/xlink" width="32" height="32" viewBox="0 0 32 32" fill="none" xmlns="http://www.w3.org/2000/svg">
<path d="M5.74661 0.102051H25.3722C26.9541 0.102051 28.3907 0.750359 29.4332 1.78765C30.4705 2.83013 31.1188 4.26678 31.1188 5.84866V25.4742C31.1188 27.0561 30.4705 28.4928 29.4332 29.5353C28.3907 30.5725 26.9541 31.2209 25.3722 31.2209H5.74661C4.16473 31.2209 2.72808 30.5725 1.6856 29.5353C0.648308 28.4928 0 27.0561 0 25.4742V5.84866C0 4.26678 0.648308 2.83013 1.6856 1.78765C2.72808 0.750359 4.16473 0.102051 5.74661 0.102051V0.102051ZM8.87405 6.86002C8.87405 6.07167 9.51198 5.43374 10.3003 5.43374H14.8748C17.105 5.43374 19.1277 6.34137 20.5955 7.80395L20.6006 7.80914C22.0632 9.27691 22.9709 11.2996 22.9709 13.5298C22.9709 15.7652 22.0632 17.7879 20.6006 19.2557C19.1381 20.7183 17.1102 21.6259 14.8748 21.6259C14.8696 21.6207 13.0699 21.6155 11.7214 21.6155V24.4629C11.7214 25.2512 11.0835 25.8892 10.3003 25.8892C9.51198 25.8892 8.87405 25.2512 8.87405 24.4629V20.2048V6.86002ZM11.7214 8.28111V18.7837H14.8748C16.327 18.7785 17.6392 18.1924 18.5883 17.2433C19.5374 16.2942 20.1235 14.9768 20.1235 13.5298C20.1235 12.0776 19.5374 10.7654 18.5883 9.8163C17.6392 8.86718 16.327 8.28111 14.8748 8.28111H11.7214ZM25.3722 2.43077H5.74661C4.80786 2.43077 3.95209 2.81457 3.3349 3.43695C2.71252 4.05414 2.32872 4.90991 2.32872 5.84866V25.4742C2.32872 26.413 2.71252 27.2688 3.3349 27.886C3.95209 28.5083 4.80786 28.8921 5.74661 28.8921H25.3722C26.3109 28.8921 27.1667 28.5083 27.7839 27.886C28.4063 27.2688 28.7901 26.413 28.7901 25.4742V5.84866C28.7901 4.90991 28.4063 4.05414 27.7839 3.43695C27.1667 2.81457 26.3109 2.43077 25.3722 2.43077Z" fill="#8C52FF"></path>
</svg>