<svg width="85" height="85" viewBox="0 0 85 85" fill="none" xmlns="http://www.w3.org/2000/svg">
<path fill-rule="evenodd" clip-rule="evenodd" d="M42.5 0C65.97 0 85 19.03 85 42.5C85 65.97 65.97 85 42.5 85C19.03 85 0 65.97 0 42.5C0 19.03 19.03 0 42.5 0Z" fill="#8C52FF" fill-opacity="0.2"/>
<path fill-rule="evenodd" clip-rule="evenodd" d="M42.5013 7.53003C61.8112 7.53003 77.4713 23.19 77.4713 42.5C77.4713 61.81 61.8112 77.47 42.5013 77.47C23.1913 77.47 7.53125 61.81 7.53125 42.5C7.53125 23.19 23.1913 7.53003 42.5013 7.53003Z" fill="#8C52FF" fill-opacity="0.2"/>
<path fill-rule="evenodd" clip-rule="evenodd" d="M42.4997 13.4299C58.5597 13.4299 71.5797 26.4399 71.5797 42.4999C71.5797 58.5599 58.5597 71.5699 42.4997 71.5699C26.4397 71.5699 13.4297 58.5599 13.4297 42.4999C13.4297 26.4399 26.4397 13.4299 42.4997 13.4299Z" fill="#8C52FF"/>
<path d="M37.6791 21.0331L37.8128 21.0221H37.835L37.9686 21.011H37.9909H38.1356H38.1579L38.2915 21H38.3138H38.4474H38.4696H50.2713H50.2935H50.3381H50.3603H50.4049H50.4271L50.4717 21.011H50.4939H50.5273H50.6164H50.6609C51.919 21.0883 53.0881 21.5405 54.0233 22.2576C55.081 23.0629 55.8715 24.2101 56.2166 25.5228L56.2389 25.589L56.2834 25.6442C57.163 26.7252 57.8421 27.9607 58.2986 29.2624C58.7662 30.5641 59 31.943 59 33.344C59 34.9987 58.8775 35.4951 57.3634 41.452C57.2075 42.1029 56.417 44.7724 56.417 45.2247C56.3725 49.2842 54.5466 54.491 51.6296 58.3961C49.3026 61.5069 46.2854 63.7794 42.9453 63.9779L42.8006 63.989H42.7783L42.6336 64H42.6113H42.4666H42.4443H42.2996H42.2773L42.1326 63.989H42.1103L41.9656 63.9779C38.5921 63.7794 35.6083 61.529 33.3259 58.4513C30.4089 54.5241 28.6164 49.2622 28.5719 45.2247V45.1475L27.6255 41.4189C26.1225 35.4951 26 34.9987 26 33.344C26 29.9354 27.3917 26.8576 29.6518 24.6183C31.7338 22.5554 34.5506 21.2206 37.6791 21.0331ZM41.6761 37.5469C40.7966 37.6242 39.9059 37.7786 39.0597 37.9882C37.9241 38.264 36.8219 38.6611 35.8421 39.1465C35.4302 39.345 34.9291 39.1796 34.7287 38.7714C34.5172 38.3633 34.6842 37.8669 35.0962 37.6683C36.1761 37.1278 37.3897 36.6975 38.6589 36.3776C39.6387 36.1349 40.6518 35.9695 41.6761 35.8923V35.5282C41.6761 35.0649 42.0547 34.7009 42.5111 34.7009C42.9676 34.7009 43.3462 35.0649 43.3462 35.5282V53.1121C43.7581 53.1452 44.17 53.2996 44.5152 53.5644L45.2166 54.0829C45.4281 54.2373 45.5729 54.491 45.5951 54.7558C45.6174 55.0205 45.5283 55.2853 45.3502 55.4838L45.083 55.7706C44.6154 56.2781 44.003 56.6311 43.3462 56.7855V59.2234C43.3462 59.6757 42.9676 60.0508 42.5111 60.0508C42.0547 60.0508 41.6761 59.6757 41.6761 59.2234V56.7966C41.0081 56.6421 40.3846 56.2781 39.9059 55.7706L39.6498 55.4838C39.4605 55.2853 39.3715 55.0205 39.3937 54.7558C39.416 54.491 39.5607 54.2373 39.7723 54.0829L40.4737 53.5644C40.83 53.2886 41.253 53.1452 41.6761 53.1121V40.4482C40.6184 40.5475 39.5162 40.7681 38.4696 41.088C37.1781 41.4851 35.9757 42.0257 35.0628 42.6544C34.6842 42.9192 34.1721 42.8199 33.9049 42.4559C33.6488 42.0808 33.7379 41.5623 34.1164 41.3086C35.1741 40.5695 36.5324 39.9518 37.9798 39.5105C39.1822 39.1465 40.4514 38.8928 41.6761 38.7824V37.5469ZM39.2713 50.4536C39.7166 50.3763 40.1508 50.6632 40.2399 51.1154C40.3178 51.5677 40.0172 51.9979 39.5607 52.0752C38.837 52.2075 38.0911 52.6047 37.4676 53.1783C36.8664 53.7299 36.3877 54.4469 36.1538 55.2411C36.0202 55.6824 35.5638 55.9361 35.1184 55.8037C34.6842 55.6824 34.4281 55.2191 34.5506 54.7889C34.8735 53.6857 35.5192 52.715 36.332 51.9649C37.1781 51.1927 38.2247 50.6411 39.2713 50.4536ZM47.6771 43.912C46.6417 43.912 45.6063 44.2981 44.8269 45.0813C44.4929 45.4123 44.4929 45.9528 44.8269 46.2837C45.1609 46.6147 45.7065 46.6147 46.0405 46.2837C46.9423 45.3902 48.4008 45.3902 49.3026 46.2837C49.6366 46.6147 50.1822 46.6147 50.5273 46.2837C50.8613 45.9528 50.8613 45.4123 50.5273 45.0813C49.7368 44.2981 48.7014 43.912 47.6771 43.912ZM37.2561 43.912C36.2206 43.912 35.1852 44.2981 34.4059 45.0813C34.0719 45.4123 34.0719 45.9528 34.4059 46.2837C34.7399 46.6147 35.2854 46.6147 35.6194 46.2837C36.5213 45.3902 37.9909 45.3902 38.8816 46.2837C39.2156 46.6147 39.7611 46.6147 40.1063 46.2837C40.4403 45.9528 40.4403 45.4123 40.1063 45.0813C39.3158 44.2981 38.2804 43.912 37.2561 43.912ZM29.3735 40.3489L29.7409 39.5215C30.8208 37.0505 32.6245 34.9436 34.8735 33.4764C36.8553 32.1857 39.1822 31.3805 41.6872 31.2481H41.7986H41.8208L41.9211 31.237H41.9433H42.0547H42.0769L42.1883 31.226H42.2105H42.3107H42.333H42.4443H42.4666H50.2713H50.2935H50.3269H50.3492H50.3826H50.4049H50.4383H50.4605H50.4828H50.5051L50.5385 31.215C51.585 31.1488 52.5314 30.7075 53.2328 30.0126C53.9899 29.2624 54.4686 28.2145 54.4686 27.0782C54.4686 25.931 53.9899 24.894 53.2328 24.1329C52.5425 23.46 51.6184 23.0077 50.5941 22.9305H50.5607L50.4828 22.9194H50.4605H50.4383H50.4049H50.3826H50.3492H50.3269H50.2935H50.2713H38.4696H38.4474H38.336H38.3138H38.2024H38.1802L38.0688 22.9305H38.0466H37.9352H37.913L37.8016 22.9415C35.1741 23.107 32.7915 24.2432 31.0435 25.9751C29.1397 27.8615 27.9484 30.4759 27.9484 33.344C27.9484 33.9838 27.9706 34.4141 28.1377 35.2524C28.2935 36.0688 28.5941 37.2712 29.1508 39.4774L29.3735 40.3489ZM55.6265 40.371L55.8492 39.4995C56.4059 37.2822 56.7065 36.0688 56.8623 35.2524C57.0294 34.4141 57.0516 33.9838 57.0516 33.344C57.0516 32.7263 56.9848 32.1085 56.8846 31.5128C56.7733 30.8951 56.6063 30.2994 56.3947 29.7258L56.1387 29.0418L55.8269 29.7037C55.337 30.6855 54.5911 31.5349 53.6781 32.1416C52.7986 32.7152 51.7743 33.0682 50.6721 33.1344H50.6387H50.6164H50.583H50.5607L49.6478 33.1896L50.416 33.7191C50.6498 33.8846 50.8836 34.05 51.1063 34.2265C51.3178 34.392 51.5405 34.5795 51.7632 34.7781C52.5202 35.44 53.1883 36.1901 53.7783 36.9844C54.3573 37.7896 54.8583 38.6501 55.2591 39.5436L55.6265 40.371ZM42.8674 62.0585C45.7176 61.871 48.334 59.7088 50.3715 56.8186C52.8542 53.2555 54.4686 48.5562 54.4686 45.0593L54.4464 44.3643L54.3796 43.6693C54.0344 40.7129 52.5536 38.0875 50.4049 36.1901C48.4231 34.4472 45.8735 33.333 43.1457 33.1675L43.0344 33.1565H43.0121H42.8897H42.8674L42.7449 33.1455H42.7227H42.6113H42.5891H42.4666H42.4443H42.3107H42.2885H42.166H42.1437L42.0101 33.1565H41.9879H41.8542C38.8148 33.322 36.0536 34.6126 34.0385 36.6424C31.8674 38.7935 30.5314 41.7719 30.5314 45.0593C30.5314 48.3797 32.1123 53.2555 34.6619 56.9179C36.6215 59.7419 39.1822 61.871 42.0435 62.0585L42.166 62.0695H42.1883L42.2996 62.0806H42.3219H42.4443H42.4666H42.5891H42.6113L42.7227 62.0695H42.7449L42.8674 62.0585Z" fill="white"/>
</svg>
