<svg width="85" height="85" viewBox="0 0 85 85" fill="none" xmlns="http://www.w3.org/2000/svg">
<path fill-rule="evenodd" clip-rule="evenodd" d="M42.5 0C65.97 0 85 19.03 85 42.5C85 65.97 65.97 85 42.5 85C19.03 85 0 65.97 0 42.5C0 19.03 19.03 0 42.5 0Z" fill="#8C52FF" fill-opacity="0.2"/>
<path fill-rule="evenodd" clip-rule="evenodd" d="M42.5013 7.53003C61.8112 7.53003 77.4713 23.19 77.4713 42.5C77.4713 61.81 61.8112 77.47 42.5013 77.47C23.1913 77.47 7.53125 61.81 7.53125 42.5C7.53125 23.19 23.1913 7.53003 42.5013 7.53003Z" fill="#8C52FF" fill-opacity="0.2"/>
<path d="M42.4997 71.5699C58.5546 71.5699 71.5697 58.5548 71.5697 42.4999C71.5697 26.445 58.5546 13.4299 42.4997 13.4299C26.4448 13.4299 13.4297 26.445 13.4297 42.4999C13.4297 58.5548 26.4448 71.5699 42.4997 71.5699Z" fill="#8C52FF"/>
<path d="M60.8295 47.1936C61.6517 46.1481 62.0461 45.0272 61.9957 43.8729C61.9454 42.6014 61.3749 41.606 60.9051 40.9954C61.4504 39.6403 61.6601 37.5073 59.8395 35.8511C58.5056 34.6382 56.2403 34.0945 53.1026 34.2451C50.896 34.3455 49.0503 34.7553 48.9748 34.7721H48.9664C48.5469 34.8473 48.1022 34.9394 47.6492 35.0397C47.6156 34.5044 47.7079 33.1744 48.6979 30.1798C49.8725 26.6165 49.8054 23.8896 48.4798 22.0661C47.0871 20.1506 44.8638 20 44.2094 20C43.5801 20 43.0012 20.2593 42.5901 20.7361C41.6589 21.8151 41.7679 23.8059 41.8854 24.7261C40.778 27.6872 37.6737 34.9477 35.0477 36.9636C34.9974 36.9971 34.9554 37.0389 34.9135 37.0807C34.1416 37.8921 33.6215 38.7704 33.2691 39.5399C32.7741 39.2723 32.212 39.1217 31.6079 39.1217H26.4902C24.5605 39.1217 23 40.6859 23 42.6014V56.1941C23 58.1179 24.5689 59.6738 26.4902 59.6738H31.6079C32.3546 59.6738 33.051 59.4396 33.6215 59.0381L35.5931 59.2723C35.8951 59.3141 41.2646 59.9916 46.7767 59.8829C47.775 59.9582 48.7147 60 49.5872 60C51.089 60 52.3978 59.8829 53.4885 59.6487C56.0558 59.105 57.8092 58.0176 58.6985 56.4199C59.3781 55.1987 59.3781 53.9858 59.269 53.2162C60.9386 51.7106 61.2323 50.046 61.1735 48.8749C61.14 48.1974 60.9889 47.6202 60.8295 47.1936ZM26.4902 57.4153C25.8106 57.4153 25.2652 56.8632 25.2652 56.1941V42.5931C25.2652 41.9155 25.819 41.3718 26.4902 41.3718H31.6079C32.2875 41.3718 32.8328 41.9239 32.8328 42.5931V56.1857C32.8328 56.8632 32.2791 57.4069 31.6079 57.4069H26.4902V57.4153ZM58.6818 46.215C58.3294 46.583 58.2623 47.1435 58.5307 47.5784C58.5307 47.5868 58.8747 48.1723 58.9167 48.9753C58.9754 50.0711 58.4468 51.0414 57.3394 51.8695C56.9451 52.1706 56.7857 52.6893 56.9535 53.1577C56.9535 53.166 57.3142 54.2702 56.7269 55.3158C56.1648 56.3195 54.9147 57.0389 53.0187 57.4404C51.5001 57.7666 49.4362 57.8252 46.9025 57.6244C46.8689 57.6244 46.827 57.6244 46.785 57.6244C41.3904 57.7415 35.937 57.0389 35.8783 57.0305H35.8699L35.0226 56.9302C35.0729 56.6959 35.0981 56.445 35.0981 56.1941V42.5931C35.0981 42.2334 35.0393 41.8821 34.9387 41.5558C35.0897 40.9954 35.5092 39.7491 36.4992 38.6867C40.2662 35.7089 43.9493 25.6629 44.1087 25.2279C44.1758 25.0523 44.1926 24.8599 44.159 24.6675C44.0164 23.7307 44.0667 22.5847 44.2681 22.2417C44.7128 22.2501 45.9125 22.3756 46.634 23.371C47.4898 24.5504 47.4562 26.6583 46.5333 29.4521C45.1239 33.7097 45.0064 35.9515 46.1222 36.9385C46.676 37.432 47.4143 37.4571 47.9512 37.2647C48.463 37.1476 48.9496 37.0473 49.411 36.972C49.4446 36.9636 49.4866 36.9552 49.5201 36.9469C52.0958 36.3864 56.7102 36.0435 58.3126 37.499C59.6718 38.7369 58.7069 40.3764 58.5979 40.5521C58.2874 41.0205 58.3797 41.6311 58.7992 42.0075C58.8076 42.0159 59.6885 42.844 59.7305 43.9565C59.764 44.701 59.4117 45.4621 58.6818 46.215Z" fill="white"/>
</svg>
