<svg width="80" height="80" viewBox="0 0 80 80" fill="none" xmlns="http://www.w3.org/2000/svg">
<path fill-rule="evenodd" clip-rule="evenodd" d="M40 0C62.09 0 80 17.91 80 40C80 62.09 62.09 80 40 80C17.91 80 0 62.09 0 40C0 17.91 17.91 0 40 0Z" fill="#8C52FF" fill-opacity="0.2"/>
<path d="M40.0014 74.5594C59.0884 74.5594 74.5614 59.0864 74.5614 39.9995C74.5614 20.9125 59.0884 5.43945 40.0014 5.43945C20.9144 5.43945 5.44141 20.9125 5.44141 39.9995C5.44141 59.0864 20.9144 74.5594 40.0014 74.5594Z" fill="#8C52FF"/>
<path d="M54.0495 48.3878C54.0812 47.9019 54.5037 47.5427 54.9791 47.5744C55.465 47.6061 55.8347 48.0286 55.803 48.504C55.6129 51.2293 54.884 53.775 53.8277 56.0355C52.634 58.5707 51.0179 60.7362 49.2961 62.3207C48.0073 63.5143 46.3172 64.6235 44.6377 65.4263C42.9475 66.2396 41.2574 66.7467 39.9687 66.7467C38.68 66.7467 36.9899 66.2396 35.2998 65.4263C33.6308 64.6235 31.9301 63.5143 30.6414 62.3312C28.9196 60.7468 27.3034 58.5813 26.1097 56.0355C25.0534 53.775 24.3246 51.2187 24.145 48.504C24.1133 48.0286 24.4724 47.6061 24.9583 47.5744C25.4443 47.5427 25.8562 47.9019 25.8879 48.3878C26.0569 50.8807 26.733 53.2257 27.6942 55.2961C28.7928 57.62 30.2717 59.5954 31.8245 61.0425C32.9864 62.1094 34.5286 63.1129 36.0603 63.8523C37.518 64.5495 38.9441 64.9932 39.9687 64.9932C41.0039 64.9932 42.43 64.5495 43.8877 63.8523C45.4088 63.1129 46.951 62.1094 48.113 61.0425C49.6763 59.5954 51.1446 57.62 52.2432 55.2856C53.215 53.2257 53.8805 50.8807 54.0495 48.3878Z" fill="white"/>
<path d="M22.4654 45.9796C22.571 46.5078 22.8879 46.9937 23.3316 47.3C23.5745 47.4584 23.8597 47.5746 24.1766 47.6169C24.7259 39.8635 31.2963 36.5361 37.1483 33.5783C37.9934 33.1453 38.8279 32.7227 39.5567 32.3319C44.5743 29.6488 47.0989 27.0608 48.0496 24.663C48.958 22.3813 48.4193 20.2158 47.2996 18.2933C47.1517 18.0504 47.0038 17.818 46.8348 17.6067C45.6517 16.0962 43.7398 15.0715 41.4264 14.818C39.0497 14.5539 36.261 15.1032 33.4089 16.7617C32.6906 17.1842 31.9723 17.6701 31.2751 18.2194C27.4512 21.1982 24.6203 25.2228 23.0781 30.0397C21.5992 34.6664 21.3034 40.043 22.4548 45.9479L22.4654 45.9796ZM22.3492 48.7472C21.5147 48.1767 20.9443 47.3 20.7436 46.3282L20.733 46.2859C19.5288 40.0853 19.8457 34.4128 21.4091 29.5115C23.0569 24.3461 26.0991 20.0363 30.1977 16.8356C30.9899 16.2229 31.761 15.6948 32.5322 15.2511C35.7328 13.3814 38.8912 12.7688 41.6166 13.0751C44.4052 13.3814 46.7397 14.649 48.208 16.5293C48.4298 16.8145 48.6411 17.1102 48.8101 17.4166C50.1833 19.7616 50.8171 22.4341 49.6763 25.3073C48.5777 28.0643 45.8102 30.9692 40.3807 33.8741C39.5567 34.3178 38.7539 34.7297 37.9405 35.1417C32.3315 37.9727 26.0252 41.1733 25.8984 48.4091C25.909 48.8422 25.6132 49.2225 25.1801 49.307C24.0921 49.5183 23.1097 49.2648 22.3492 48.7472Z" fill="white"/>
<path d="M42.9793 31.8669C42.5462 31.6662 42.3455 31.1486 42.5462 30.705C42.7469 30.2613 43.2645 30.0712 43.7081 30.2719C47.7961 32.1521 50.9228 34.5711 52.9827 37.5817C55.0531 40.6133 56.0249 44.2365 55.8031 48.4935C55.7714 48.9794 55.3594 49.3491 54.884 49.3174C54.3981 49.2963 54.0284 48.8843 54.0496 48.3984C54.2608 44.5428 53.3841 41.2788 51.5355 38.564C49.6658 35.8282 46.7715 33.6099 42.9793 31.8669Z" fill="white"/>
<path d="M54.9052 46.8458C54.4193 46.8458 54.0284 46.4444 54.039 45.9585C54.039 45.4831 54.4404 45.0923 54.9263 45.1029C55.4756 45.1029 55.9826 44.8493 56.4157 44.4585C56.9861 43.9303 57.4086 43.1804 57.6199 42.4726C58.2643 40.2755 58.4755 38.2051 57.9685 36.4727C57.4826 34.8037 56.2995 33.4094 54.1657 32.4692C53.7221 32.2791 53.5214 31.7615 53.7115 31.3178C53.9016 30.8742 54.4193 30.6735 54.8629 30.8636C57.5354 32.0256 59.0248 33.8213 59.6481 35.9762C60.2607 38.0783 60.0283 40.4762 59.2995 42.9691C59.0143 43.9409 58.4122 44.9972 57.5988 45.7472C56.8594 46.4127 55.9509 46.8669 54.9052 46.8458Z" fill="white"/>
<path d="M57.7889 33.3878C57.6833 33.8526 57.2185 34.1589 56.7431 34.0533C56.2678 33.9476 55.972 33.4829 56.0777 33.0075C56.1199 32.8385 56.1516 32.6272 56.1727 32.4054L56.1833 32.3843C56.4157 30.3878 55.7608 28.1801 54.5671 26.3632C53.3735 24.5569 51.6622 23.1414 49.782 22.7295C49.6235 22.6978 49.4545 22.6661 49.2644 22.645C48.7785 22.5816 48.4404 22.1485 48.4932 21.6626C48.5566 21.1872 48.9897 20.8386 49.4756 20.902C49.6763 20.9232 49.9087 20.9654 50.1517 21.0182C52.5073 21.5358 54.5988 23.2365 56.0248 25.402C57.4403 27.5463 58.2009 30.1766 57.9262 32.585V32.6167C57.8945 32.8491 57.8523 33.1026 57.7889 33.3878Z" fill="white"/>
<path d="M55.3382 45.2504C55.3382 44.1306 53.8277 44.2785 53.8277 45.1553C53.7643 46.1799 53.5847 47.025 53.4052 48.0285C53.2256 49.1165 54.7361 49.2433 54.884 48.3665C55.0847 47.2785 55.2749 46.3701 55.3382 45.2504ZM26.1309 45.3349C25.9619 44.3313 24.6203 44.4475 24.6203 45.4616C24.6837 46.4229 24.8527 47.6376 25.1062 48.5672C25.2436 49.4228 26.7647 49.3278 26.5745 48.2186C26.3527 47.3524 26.1942 46.2327 26.1309 45.3349ZM28.0534 52.3172C27.4618 51.3348 26.2576 52.2643 26.7013 52.9932C27.1449 53.9122 27.6942 54.8735 28.2858 55.6974C28.909 56.4896 30.0498 55.708 29.5322 54.8312C28.9829 54.039 28.4759 53.1833 28.0534 52.3172ZM32.4054 58.0741C31.5921 57.4192 30.6942 58.634 31.4336 59.2361C32.1625 59.8171 33.1871 60.6304 34.011 61.0424C34.3596 61.2431 34.8772 61.1269 35.0462 60.7783C35.2786 60.398 35.1308 59.9438 34.7822 59.7326C34.0216 59.3523 33.0815 58.6129 32.4054 58.0741ZM38.7434 61.4227C37.6342 61.2325 37.5392 62.7431 38.3948 62.891C38.923 63.0072 39.43 63.0917 39.9687 63.0917C40.5497 63.0917 41.2046 62.986 41.7645 62.8382C42.8102 62.4896 42.2081 61.0952 41.3631 61.3804C40.93 61.4966 40.4229 61.5811 39.9687 61.5811C39.5251 61.5811 39.1765 61.4966 38.7434 61.4227ZM45.3137 59.6375C44.532 60.1128 45.1341 61.4227 46.0954 60.9368C47.0567 60.3452 47.8066 59.7959 48.6728 59.0882C49.3911 58.5178 48.5038 57.2819 47.6693 57.9579C47.1095 58.5178 46.0109 59.215 45.3137 59.6375ZM50.5214 54.6833C49.951 55.6235 51.3136 56.2995 51.7784 55.5284C52.37 54.6728 52.8664 53.7432 53.3312 52.8031C53.7643 51.9475 52.4228 51.2291 51.9686 52.1482C51.5355 53.0249 51.0813 53.8805 50.5214 54.6833Z" fill="white"/>
<path d="M25.1062 44.374C24.3668 44.9655 25.2541 46.1909 26.0886 45.5254C26.828 44.8916 27.6097 44.3212 28.4336 43.8036C28.7505 43.6135 28.8984 43.1381 28.6977 42.7895C28.4759 42.4198 28.0322 42.2825 27.6308 42.5149C26.7435 43.0747 25.8879 43.698 25.1062 44.374ZM54.4509 45.5465C55.222 46.1592 56.1727 44.9867 55.391 44.3529C55.0107 44.0571 54.6305 43.7719 54.2291 43.4973C53.3629 42.9691 52.5812 44.1099 53.3629 44.7332C53.7326 44.9972 54.0917 45.2613 54.4509 45.5465ZM49.539 42.5888C50.6587 42.9585 50.9333 41.4586 50.1517 41.1945C49.1693 40.7719 48.2397 40.4339 47.2256 40.117C46.3278 39.8212 45.789 41.2367 46.782 41.5642C47.7432 41.8705 48.62 42.1874 49.539 42.5888ZM42.4722 40.7086C43.3489 40.8459 43.7292 39.3776 42.6306 39.198C41.5954 39.1029 40.5497 39.029 39.5145 39.0607C38.5638 39.0607 38.5004 40.5818 39.5462 40.5818C40.4757 40.529 41.5532 40.6135 42.4722 40.7086ZM35.1835 41.0888C36.0708 40.9304 35.9441 39.4198 34.8561 39.5994C33.8948 39.8213 32.7646 40.1065 31.8561 40.4656C30.9582 40.7614 31.3702 42.2191 32.3737 41.8916C33.2927 41.5536 34.2328 41.2895 35.1835 41.0888Z" fill="white"/>
</svg>
