<svg width="80" height="80" viewBox="0 0 80 80" fill="none" xmlns="http://www.w3.org/2000/svg">
<path fill-rule="evenodd" clip-rule="evenodd" d="M40 0C62.09 0 80 17.91 80 40C80 62.09 62.09 80 40 80C17.91 80 0 62.09 0 40C0 17.91 17.91 0 40 0Z" fill="#8C52FF" fill-opacity="0.2"/>
<path d="M40.0014 74.5594C59.0884 74.5594 74.5614 59.0864 74.5614 39.9995C74.5614 20.9125 59.0884 5.43945 40.0014 5.43945C20.9144 5.43945 5.44141 20.9125 5.44141 39.9995C5.44141 59.0864 20.9144 74.5594 40.0014 74.5594Z" fill="#8C52FF"/>
<path d="M46.1491 27.9H39.2591C38.8191 27.9 38.4591 28.27 38.4591 28.71C38.4591 29.16 38.8191 29.52 39.2591 29.52H46.1491C49.7091 29.52 52.5991 32.41 52.5991 35.97V59.36C52.5991 60.69 51.5191 61.77 50.1791 61.77H29.8191C28.4891 61.77 27.3991 60.69 27.3991 59.36V35.97C27.3991 32.41 30.2891 29.52 33.8491 29.52H34.7591C35.1991 29.52 35.5691 29.16 35.5691 28.71C35.5691 28.27 35.1991 27.9 34.7591 27.9V24.48C34.7591 24.03 35.1191 23.67 35.5691 23.67H44.4391C44.8791 23.67 45.2391 24.03 45.2391 24.48V25.59C45.2391 26.03 45.5991 26.39 46.0491 26.39C46.4891 26.39 46.8591 26.03 46.8591 25.59V24.48C46.8591 23.14 45.7691 22.06 44.4391 22.06H43.9291V17.42C43.9291 16.09 42.8491 15 41.5091 15H38.4891C37.1591 15 36.0691 16.09 36.0691 17.42V22.06H35.5691C34.2291 22.06 33.1491 23.14 33.1491 24.48V27.94C29.0291 28.3 25.7891 31.76 25.7891 35.97V59.36C25.7891 61.58 27.5991 63.39 29.8191 63.39H50.1791C52.3991 63.39 54.2091 61.58 54.2091 59.36V35.97C54.2091 31.52 50.5991 27.9 46.1491 27.9ZM37.6791 17.42C37.6791 16.98 38.0391 16.61 38.4891 16.61H41.5091C41.9591 16.61 42.3191 16.98 42.3191 17.42V22.06H37.6791V17.42ZM56.2291 16.82C56.2291 17.26 55.8691 17.62 55.4191 17.62H55.1891C54.7391 17.62 54.3791 17.26 54.3791 16.82C54.3791 16.37 54.7391 16.01 55.1891 16.01H55.4191C55.8691 16.01 56.2291 16.37 56.2291 16.82ZM48.4691 16.82C48.4691 16.37 48.8291 16.01 49.2691 16.01H52.4991C52.9491 16.01 53.3091 16.37 53.3091 16.82C53.3091 17.26 52.9491 17.62 52.4991 17.62H49.2691C48.8291 17.62 48.4691 17.26 48.4691 16.82ZM55.4791 22.41C55.3691 22.75 55.0591 22.97 54.7191 22.97C54.5291 22.97 54.9191 23.08 49.0191 21.11C48.5991 20.97 48.3691 20.51 48.5091 20.09C48.6491 19.67 49.1091 19.44 49.5291 19.58L54.9691 21.39C55.3991 21.54 55.6191 21.99 55.4791 22.41ZM39.9991 38.69C36.1691 38.69 33.0491 41.81 33.0491 45.65C33.0491 49.48 36.1691 52.6 39.9991 52.6C42.3891 52.6 44.5891 51.4 45.8691 49.38C46.1091 49 46.6091 48.89 46.9791 49.13C47.3591 49.37 47.4691 49.87 47.2291 50.25C45.6491 52.73 42.9391 54.21 39.9991 54.21C35.2791 54.21 31.4291 50.37 31.4291 45.65C31.4291 40.92 35.2791 37.08 39.9991 37.08C44.7191 37.08 48.5691 40.92 48.5691 45.65C48.5691 46.09 48.2091 46.45 47.7591 46.45C47.3191 46.45 46.9591 46.09 46.9591 45.65C46.9591 41.81 43.8391 38.69 39.9991 38.69ZM39.1891 48.17V46.45H37.4791C37.0391 46.45 36.6691 46.09 36.6691 45.65C36.6691 45.2 37.0391 44.84 37.4791 44.84H39.1891V43.13C39.1891 42.68 39.5591 42.32 39.9991 42.32C40.4491 42.32 40.8091 42.68 40.8091 43.13V44.84H42.5191C42.9691 44.84 43.3291 45.2 43.3291 45.65C43.3291 46.09 42.9691 46.45 42.5191 46.45H40.8091V48.17C40.8091 48.61 40.4491 48.97 39.9991 48.97C39.5591 48.97 39.1891 48.61 39.1891 48.17Z" fill="white"/>
</svg>
