<svg width="80" height="80" viewBox="0 0 80 80" fill="none" xmlns="http://www.w3.org/2000/svg">
<path fill-rule="evenodd" clip-rule="evenodd" d="M40 0C62.09 0 80 17.91 80 40C80 62.09 62.09 80 40 80C17.91 80 0 62.09 0 40C0 17.91 17.91 0 40 0Z" fill="#8C52FF" fill-opacity="0.2"/>
<path d="M40.0014 74.5594C59.0884 74.5594 74.5614 59.0864 74.5614 39.9995C74.5614 20.9125 59.0884 5.43945 40.0014 5.43945C20.9144 5.43945 5.44141 20.9125 5.44141 39.9995C5.44141 59.0864 20.9144 74.5594 40.0014 74.5594Z" fill="#8C52FF"/>
<path d="M19.7315 45.0437H14.0458C13.7573 45.0437 13.4928 45.1639 13.3125 45.3442C13.1202 45.5366 13 45.801 13 46.0895V51.679C13 51.9675 13.1202 52.232 13.3125 52.4243C13.4928 52.6046 13.7573 52.7248 14.0458 52.7248H19.7315C19.8156 52.7248 19.8997 52.7128 19.9719 52.7008C20.056 52.6767 20.1281 52.6527 20.2003 52.6166L25.5734 49.924H28.2059L28.278 50.1765C29.444 53.7105 31.5476 57.557 34.3003 60.2977C36.524 62.5095 39.1806 64 42.0895 64C45.912 64 49.3739 61.4396 52.0064 57.8816C55.1678 53.6023 57.1512 47.9166 57.1992 43.4691C57.2113 42.9522 58.0286 40.1033 58.209 39.3941C59.8558 32.843 60 32.302 60 30.499C60 28.9604 59.7355 27.4578 59.2307 26.0274C58.7379 24.609 57.9926 23.2627 57.043 22.0726L56.9949 22.0125L56.9829 21.9404C56.5982 20.51 55.7448 19.2598 54.6028 18.3824C53.4849 17.5169 52.0905 17 50.5639 17H37.7621C34.0478 17 30.6701 18.5146 28.2299 20.9547C25.7898 23.3949 24.2752 26.7726 24.2752 30.499C24.2752 32.302 24.4074 32.843 26.0422 39.3581C26.2225 40.0552 27.0639 43.0003 27.0639 43.4691C27.076 44.0821 27.124 44.7312 27.1962 45.3803C27.2683 46.0414 27.3885 46.7266 27.5327 47.4118L27.6169 47.8445H25.5734L20.2003 45.1519C20.1281 45.1159 20.056 45.0918 19.9719 45.0678C19.8997 45.0558 19.8156 45.0437 19.7315 45.0437ZM39.5051 42.5795C39.1445 42.2189 38.5555 42.2189 38.1949 42.5795C37.2212 43.5532 35.6345 43.5532 34.6609 42.5795C34.3003 42.2189 33.6992 42.2189 33.3386 42.5795C32.978 42.9522 32.978 43.5412 33.3386 43.9018C34.1921 44.7552 35.31 45.176 36.4279 45.176C37.5458 45.176 38.6637 44.7552 39.5051 43.9018C39.8778 43.5412 39.8778 42.9522 39.5051 42.5795ZM47.7151 45.176C48.833 45.176 49.9389 44.7552 50.7923 43.9018C51.1529 43.5412 51.1529 42.9522 50.7923 42.5795C50.4317 42.2189 49.8427 42.2189 49.4821 42.5795C48.4964 43.5532 46.9217 43.5532 45.9481 42.5795C45.5755 42.2189 44.9864 42.2189 44.6258 42.5795C44.2652 42.9522 44.2652 43.5412 44.6258 43.9018C45.4793 44.7552 46.5972 45.176 47.7151 45.176ZM44.9744 53.1575L44.2171 52.5926C43.58 52.1118 42.7747 51.9795 42.0294 52.2079C41.2962 51.9795 40.4908 52.1118 39.8417 52.5926L39.0844 53.1575C38.856 53.3379 38.6997 53.6023 38.6757 53.9028C38.6517 54.1913 38.7478 54.4798 38.9522 54.6962L39.2407 55.0087C39.9499 55.79 40.9716 56.2348 42.0294 56.2348C43.0992 56.2348 44.109 55.79 44.8302 55.0087L45.1187 54.6962C45.323 54.4798 45.4192 54.1913 45.3951 53.9028C45.3591 53.6023 45.2148 53.3379 44.9744 53.1575ZM37.7621 19.1036H50.5639C51.8141 19.1036 52.956 19.6084 53.7734 20.4258C54.5908 21.2552 55.1077 22.3852 55.1077 23.6473C55.1077 24.8854 54.5908 26.0274 53.7734 26.8448C52.956 27.6742 51.8141 28.179 50.5639 28.179H42.0895C39.0604 28.179 36.2356 29.0806 33.8795 30.6432C31.4514 32.2419 29.5041 34.5378 28.3261 37.2545L27.9174 38.1921L27.665 37.1944C27.0639 34.7903 26.7394 33.468 26.5711 32.5785C26.3908 31.6529 26.3668 31.1962 26.3668 30.499C26.3668 27.3496 27.6529 24.5008 29.7084 22.4453C31.776 20.3778 34.6248 19.1036 37.7621 19.1036ZM54.2302 29.1767C55.2159 28.5156 56.0333 27.59 56.5501 26.5082L56.9107 25.7629L57.1872 26.5322C57.4276 27.1693 57.5959 27.8184 57.7161 28.4916C57.8363 29.1527 57.8964 29.8258 57.8964 30.499C57.8964 31.1962 57.8844 31.665 57.7041 32.5785C57.5238 33.48 57.1992 34.8023 56.5982 37.2184L56.3578 38.2041L55.9371 37.2785C55.5043 36.2928 54.9634 35.3432 54.3263 34.4657C53.7013 33.6003 52.968 32.7829 52.1506 32.0616C51.9343 31.8573 51.6939 31.6529 51.4414 31.4606C51.201 31.2683 50.9606 31.088 50.6962 30.9077L49.8668 30.3187L50.8765 30.2706C52.1146 30.2105 53.2565 29.8138 54.2302 29.1767ZM50.6721 56.1506C48.3642 59.4683 45.3471 61.9084 42.0895 61.9084C39.7335 61.9084 37.5698 60.6222 35.7307 58.7711C33.4107 56.4391 31.5957 53.1696 30.5739 50.4049L30.3936 49.924H33.2184C33.5069 49.924 33.7714 49.8159 33.9517 49.6235C34.144 49.4432 34.2522 49.1788 34.2522 48.8903C34.2522 48.5898 34.144 48.3253 33.9517 48.145C33.7593 47.9527 33.5069 47.8445 33.2184 47.8445H29.7685L29.7084 47.568C29.5281 46.8228 29.3959 46.0775 29.2997 45.3683C29.2156 44.6471 29.1675 43.9499 29.1675 43.3008C29.1675 39.7067 30.61 36.4491 32.954 34.0931C35.298 31.7371 38.5315 30.2826 42.0895 30.2826C45.335 30.2826 48.3762 31.5448 50.7082 33.6123C53.0281 35.6798 54.6389 38.5527 55.0115 41.7742L55.0836 42.5435L55.1077 43.3008C55.1077 47.1233 53.3647 52.256 50.6721 56.1506ZM19.4069 50.6332H15.0916V47.1353H19.479L22.977 48.8903L19.4911 50.6332H19.4069Z" fill="white"/>
</svg>
