<svg width="80" height="80" viewBox="0 0 80 80" fill="none" xmlns="http://www.w3.org/2000/svg">
<path fill-rule="evenodd" clip-rule="evenodd" d="M40 0C62.09 0 80 17.91 80 40C80 62.09 62.09 80 40 80C17.91 80 0 62.09 0 40C0 17.91 17.91 0 40 0Z" fill="#8C52FF" fill-opacity="0.2"/>
<path d="M40.0014 74.5594C59.0884 74.5594 74.5614 59.0864 74.5614 39.9995C74.5614 20.9125 59.0884 5.43945 40.0014 5.43945C20.9144 5.43945 5.44141 20.9125 5.44141 39.9995C5.44141 59.0864 20.9144 74.5594 40.0014 74.5594Z" fill="#8C52FF"/>
<path d="M40 22.4783C40.6217 22.4783 41.1304 21.9696 41.1304 21.3478V20.7826C41.1304 20.1609 40.6217 19.6522 40 19.6522C39.3783 19.6522 38.8696 20.1609 38.8696 20.7826V21.3478C38.8696 21.9696 39.3783 22.4783 40 22.4783Z" fill="white"/>
<path d="M40 57.5217C39.3783 57.5217 38.8696 58.0304 38.8696 58.6522V59.2174C38.8696 59.8391 39.3783 60.3478 40 60.3478C40.6217 60.3478 41.1304 59.8391 41.1304 59.2174V58.6522C41.1304 58.0304 40.6217 57.5217 40 57.5217Z" fill="white"/>
<path d="M21.3478 38.8696H20.7826C20.1609 38.8696 19.6522 39.3783 19.6522 40C19.6522 40.6217 20.1609 41.1304 20.7826 41.1304H21.3478C21.9696 41.1304 22.4783 40.6217 22.4783 40C22.4783 39.3783 21.9696 38.8696 21.3478 38.8696Z" fill="white"/>
<path d="M59.2174 38.8696H58.6522C58.0304 38.8696 57.5217 39.3783 57.5217 40C57.5217 40.6217 58.0304 41.1304 58.6522 41.1304H59.2174C59.8391 41.1304 60.3478 40.6217 60.3478 40C60.3478 39.3783 59.8391 38.8696 59.2174 38.8696Z" fill="white"/>
<path d="M27.2261 25.6435C26.7739 25.1913 26.0957 25.1913 25.6435 25.6435C25.1913 26.0957 25.1913 26.7739 25.6435 27.2261L26.0391 27.6217C26.2652 27.8478 26.5478 27.9609 26.8304 27.9609C27.113 27.9609 27.3957 27.8478 27.6217 27.6217C28.0739 27.1696 28.0739 26.4913 27.6217 26.0391L27.2261 25.6435Z" fill="white"/>
<path d="M26.0391 52.3783L25.6435 52.7739C25.1913 53.2261 25.1913 53.9043 25.6435 54.3565C25.8696 54.5826 26.1522 54.6957 26.4348 54.6957C26.7174 54.6957 27 54.5826 27.2261 54.3565L27.6217 53.9609C28.0739 53.5087 28.0739 52.8304 27.6217 52.3783C27.1696 51.9261 26.4913 51.9261 26.0391 52.3783Z" fill="white"/>
<path d="M52.7739 25.6435L52.3783 26.0391C51.9261 26.4913 51.9261 27.1696 52.3783 27.6217C52.6043 27.8478 52.887 27.9609 53.1696 27.9609C53.4522 27.9609 53.7348 27.8478 53.9609 27.6217L54.3565 27.2261C54.8087 26.7739 54.8087 26.0957 54.3565 25.6435C53.9043 25.1913 53.2261 25.1913 52.7739 25.6435Z" fill="white"/>
<path d="M41.1304 39.5478V29.2609C41.1304 28.6391 40.6217 28.1304 40 28.1304C39.3783 28.1304 38.8696 28.6391 38.8696 29.2609V40C38.8696 40.2826 38.9826 40.5652 39.2087 40.7913L51.587 53.1696C51.813 53.3957 52.0957 53.5087 52.3783 53.5087C52.6609 53.5087 52.9435 53.3957 53.1696 53.1696C53.6217 52.7174 53.6217 52.0391 53.1696 51.587L41.1304 39.5478Z" fill="white"/>
<path d="M40 14C25.6435 14 14 25.6435 14 40C14 54.3565 25.6435 66 40 66C54.3565 66 66 54.3565 66 40C66 25.6435 54.3565 14 40 14ZM40 63.7391C26.887 63.7391 16.2609 53.113 16.2609 40C16.2609 26.887 26.887 16.2609 40 16.2609C53.113 16.2609 63.7391 26.887 63.7391 40C63.7391 53.113 53.113 63.7391 40 63.7391Z" fill="white"/>
</svg>
